<svg width="344" height="184" viewBox="0 0 344 184" fill="none" xmlns="http://www.w3.org/2000/svg">
<rect x="114.038" y="0.845154" width="113.924" height="18.778" rx="9.38901" fill="#0F0F0F"/>
<rect x="0.25" y="9.59058" width="343.5" height="173.659" rx="22.75" fill="#0F0F0F" stroke="#FFB905" stroke-width="0.5"/>
<rect x="114.288" y="1.09515" width="113.424" height="18.278" rx="9.13901" fill="#0F0F0F" stroke="#FFB905" stroke-width="0.5"/>
<rect x="18.9753" y="37.9528" width="11.2812" height="75.0311" rx="2.21417" transform="rotate(-90 18.9753 37.9528)" fill="#4D4D4D"/>
<path d="M53.2538 34.2125V30.5661H53.4693V32.0884H53.4906C53.5333 31.9709 53.5939 31.8629 53.6722 31.7643C53.7506 31.6658 53.8479 31.5869 53.9642 31.5275C54.0805 31.467 54.2164 31.4367 54.3719 31.4367C54.5915 31.4367 54.7832 31.4979 54.947 31.6201C55.1108 31.7412 55.2378 31.9086 55.328 32.1222C55.4183 32.3347 55.4634 32.578 55.4634 32.8522C55.4634 33.1288 55.4183 33.3739 55.328 33.5875C55.2378 33.8 55.1114 33.9668 54.9488 34.0878C54.7862 34.2089 54.5945 34.2694 54.3737 34.2694C54.2182 34.2694 54.0823 34.2398 53.966 34.1804C53.8497 34.1199 53.7523 34.0404 53.674 33.9418C53.5957 33.8421 53.5345 33.7335 53.4906 33.616H53.4657V34.2125H53.2538ZM53.4675 32.8504C53.4675 33.0831 53.5025 33.2914 53.5725 33.4754C53.6437 33.6582 53.7458 33.803 53.8788 33.9098C54.0117 34.0154 54.1708 34.0682 54.3559 34.0682C54.5435 34.0682 54.7037 34.0148 54.8366 33.908C54.9696 33.8 55.0711 33.654 55.1411 33.47C55.2123 33.286 55.2479 33.0795 55.2479 32.8504C55.2479 32.6213 55.2123 32.4154 55.1411 32.2326C55.0711 32.0498 54.9696 31.9056 54.8366 31.8C54.7037 31.6931 54.5435 31.6397 54.3559 31.6397C54.1708 31.6397 54.0117 31.6925 53.8788 31.7982C53.7458 31.9026 53.6437 32.0463 53.5725 32.229C53.5025 32.4106 53.4675 32.6178 53.4675 32.8504ZM56.9376 34.2712C56.7797 34.2712 56.6349 34.2398 56.5031 34.1769C56.3726 34.1139 56.2675 34.022 56.188 33.9009C56.1097 33.7798 56.0705 33.6326 56.0705 33.4593C56.0705 33.3454 56.0907 33.2451 56.131 33.1584C56.1714 33.0718 56.2337 32.997 56.318 32.9341C56.4022 32.8712 56.5103 32.8196 56.642 32.7792C56.7738 32.7377 56.931 32.7056 57.1138 32.6831C57.2527 32.6664 57.3767 32.6504 57.4859 32.635C57.5951 32.6184 57.6806 32.5928 57.7423 32.5584C57.8052 32.524 57.8367 32.4718 57.8367 32.4017V32.2878C57.8367 32.0884 57.7738 31.9299 57.648 31.8124C57.5221 31.6949 57.3489 31.6362 57.1281 31.6362C56.9322 31.6362 56.7672 31.6795 56.6331 31.7661C56.5002 31.8516 56.407 31.962 56.3536 32.0973L56.1488 32.0207C56.2011 31.8902 56.2764 31.7816 56.3749 31.6949C56.4747 31.6083 56.5886 31.5436 56.7168 31.5008C56.8462 31.4581 56.9815 31.4367 57.1227 31.4367C57.245 31.4367 57.3613 31.454 57.4717 31.4884C57.5833 31.5228 57.6824 31.575 57.769 31.6451C57.8569 31.7151 57.9263 31.8047 57.9774 31.9139C58.0284 32.0219 58.0539 32.1513 58.0539 32.302V34.2125H57.8367V33.7193H57.8207C57.7732 33.8214 57.7079 33.9145 57.6248 33.9988C57.5429 34.0819 57.4438 34.1484 57.3275 34.1982C57.2124 34.2469 57.0824 34.2712 56.9376 34.2712ZM56.9589 34.07C57.1299 34.07 57.2812 34.0285 57.4129 33.9454C57.5459 33.8611 57.6497 33.746 57.7245 33.6C57.7993 33.454 57.8367 33.2884 57.8367 33.1032V32.7009C57.8094 32.7246 57.7696 32.746 57.7174 32.765C57.6664 32.7828 57.6082 32.7988 57.5429 32.813C57.4788 32.8261 57.4112 32.838 57.3399 32.8486C57.2699 32.8581 57.2017 32.867 57.1352 32.8753C56.9358 32.8991 56.7732 32.9359 56.6474 32.9857C56.5227 33.0344 56.4313 33.0985 56.3732 33.178C56.3162 33.2575 56.2877 33.3537 56.2877 33.4665C56.2877 33.6528 56.3518 33.8 56.48 33.908C56.6082 34.016 56.7678 34.07 56.9589 34.07ZM58.9646 34.2125V31.4777H59.1765V31.905H59.1961C59.2554 31.7649 59.3557 31.6528 59.497 31.5685C59.6382 31.483 59.799 31.4403 59.9795 31.4403C59.9985 31.4403 60.0174 31.4403 60.0364 31.4403C60.0554 31.4403 60.0732 31.4409 60.0899 31.4421V31.6611C60.0756 31.6599 60.0584 31.6581 60.0382 31.6557C60.0192 31.6522 59.9955 31.6504 59.967 31.6504C59.8151 31.6504 59.6798 31.683 59.5611 31.7483C59.4435 31.8136 59.351 31.9038 59.2833 32.019C59.2157 32.1329 59.1818 32.2635 59.1818 32.4106V34.2125H58.9646Z" fill="#797878"/>
<rect x="37.4238" y="151.576" width="93.2515" height="53.4008" rx="26.7004" transform="rotate(-90 37.4238 151.576)" fill="#4C4C4C"/>
<path d="M66.3578 117.376C66.3578 117.575 66.3027 117.75 66.1927 117.899C66.0826 118.048 65.931 118.163 65.7378 118.245C65.5436 118.326 65.3207 118.366 65.0693 118.366C64.82 118.366 64.5988 118.325 64.4056 118.243C64.2114 118.16 64.0592 118.044 63.9492 117.895C63.838 117.746 63.7824 117.573 63.7824 117.374C63.7824 117.232 63.81 117.108 63.865 117.003C63.9189 116.898 63.9907 116.809 64.0803 116.738C64.1698 116.666 64.268 116.611 64.3749 116.573V116.553H62.9909V116.358H66.306V116.549H65.7637V116.573C65.8705 116.613 65.9693 116.668 66.0599 116.74C66.1495 116.811 66.2218 116.899 66.2768 117.005C66.3308 117.111 66.3578 117.234 66.3578 117.376ZM66.1749 117.358C66.1749 117.19 66.1268 117.046 66.0308 116.926C65.9337 116.805 65.802 116.713 65.6358 116.649C65.4686 116.584 65.2792 116.552 65.0677 116.552C64.8562 116.552 64.6679 116.584 64.5027 116.649C64.3366 116.713 64.206 116.805 64.111 116.926C64.015 117.046 63.967 117.19 63.967 117.358C63.967 117.528 64.0155 117.675 64.1126 117.797C64.2087 117.918 64.3398 118.01 64.506 118.075C64.6722 118.139 64.8594 118.171 65.0677 118.171C65.2759 118.171 65.4637 118.139 65.631 118.075C65.7982 118.01 65.931 117.918 66.0292 117.797C66.1263 117.675 66.1749 117.528 66.1749 117.358ZM66.3594 114.81C66.3594 114.954 66.3308 115.085 66.2736 115.205C66.2164 115.324 66.1328 115.419 66.0227 115.492C65.9126 115.563 65.7788 115.598 65.6213 115.598C65.5177 115.598 65.4265 115.58 65.3477 115.543C65.2689 115.507 65.2009 115.45 65.1438 115.373C65.0866 115.297 65.0396 115.199 65.0029 115.079C64.9652 114.959 64.936 114.816 64.9155 114.65C64.9004 114.524 64.8858 114.411 64.8718 114.312C64.8567 114.212 64.8335 114.135 64.8022 114.079C64.7709 114.021 64.7234 113.993 64.6598 113.993H64.5562C64.3749 113.993 64.2308 114.05 64.124 114.164C64.0171 114.279 63.9637 114.436 63.9637 114.637C63.9637 114.815 64.0031 114.965 64.0819 115.087C64.1596 115.208 64.2599 115.293 64.383 115.341L64.3134 115.527C64.1947 115.48 64.0959 115.411 64.0171 115.322C63.9384 115.231 63.8796 115.127 63.8407 115.011C63.8019 114.893 63.7824 114.77 63.7824 114.642C63.7824 114.531 63.7981 114.425 63.8294 114.325C63.8607 114.223 63.9082 114.133 63.9718 114.054C64.0355 113.974 64.117 113.911 64.2162 113.865C64.3144 113.818 64.4321 113.795 64.5691 113.795H66.306V113.993H65.8576V114.007C65.9504 114.05 66.0351 114.11 66.1117 114.185C66.1873 114.26 66.2477 114.35 66.293 114.456C66.3373 114.56 66.3594 114.679 66.3594 114.81ZM66.1765 114.791C66.1765 114.635 66.1387 114.498 66.0632 114.378C65.9865 114.257 65.8819 114.163 65.7491 114.095C65.6164 114.027 65.4659 113.993 65.2975 113.993H64.9317C64.9533 114.018 64.9727 114.054 64.99 114.101C65.0062 114.148 65.0207 114.2 65.0337 114.26C65.0456 114.318 65.0563 114.38 65.0661 114.444C65.0747 114.508 65.0828 114.57 65.0903 114.63C65.1119 114.812 65.1454 114.96 65.1907 115.074C65.2349 115.187 65.2932 115.27 65.3655 115.323C65.4378 115.375 65.5252 115.401 65.6277 115.401C65.7972 115.401 65.931 115.343 66.0292 115.226C66.1274 115.11 66.1765 114.964 66.1765 114.791ZM64.6938 112.77H66.306V112.967H63.8197V112.775H64.213V112.755C64.0846 112.697 63.9815 112.604 63.9038 112.475C63.8261 112.347 63.7873 112.194 63.7873 112.017C63.7873 111.85 63.8229 111.703 63.8941 111.577C63.9653 111.449 64.0668 111.35 64.1984 111.279C64.329 111.207 64.4849 111.171 64.6662 111.171H66.306V111.368H64.6743C64.4628 111.368 64.2929 111.431 64.1644 111.557C64.0349 111.683 63.9702 111.848 63.9702 112.054C63.9702 112.192 64.0004 112.315 64.0608 112.423C64.1213 112.531 64.206 112.616 64.315 112.678C64.4229 112.739 64.5492 112.77 64.6938 112.77ZM66.3578 109.418C66.3578 109.629 66.3022 109.815 66.191 109.976C66.0788 110.137 65.9256 110.262 65.7313 110.353C65.5371 110.443 65.317 110.487 65.0709 110.487C64.8249 110.487 64.6047 110.442 64.4105 110.351C64.2162 110.261 64.063 110.135 63.9508 109.974C63.8385 109.814 63.7824 109.628 63.7824 109.419C63.7824 109.262 63.8148 109.118 63.8796 108.989C63.9443 108.858 64.0344 108.75 64.1499 108.665C64.2653 108.578 64.3992 108.523 64.5513 108.5V108.7C64.383 108.733 64.2438 108.814 64.1337 108.943C64.0225 109.072 63.967 109.23 63.967 109.418C63.967 109.586 64.0144 109.736 64.1094 109.868C64.2033 109.999 64.3333 110.103 64.4995 110.178C64.6646 110.254 64.854 110.292 65.0677 110.292C65.2781 110.292 65.4669 110.255 65.6342 110.182C65.8004 110.108 65.9321 110.006 66.0292 109.874C66.1263 109.742 66.1749 109.59 66.1749 109.418C66.1749 109.296 66.1506 109.184 66.102 109.084C66.0535 108.983 65.9844 108.898 65.8948 108.83C65.8053 108.762 65.7006 108.717 65.5808 108.696V108.495C65.734 108.519 65.8689 108.573 65.9855 108.657C66.102 108.741 66.1932 108.848 66.259 108.979C66.3249 109.109 66.3578 109.256 66.3578 109.418ZM66.3578 106.852C66.3578 107.076 66.3022 107.272 66.191 107.438C66.0799 107.604 65.9277 107.732 65.7346 107.823C65.5414 107.914 65.3213 107.959 65.0741 107.959C64.8259 107.959 64.6047 107.914 64.4105 107.823C64.2162 107.731 64.063 107.606 63.9508 107.446C63.8385 107.286 63.7824 107.104 63.7824 106.899C63.7824 106.76 63.8105 106.628 63.8666 106.504C63.9216 106.379 64.0015 106.269 64.1062 106.174C64.2108 106.078 64.3371 106.003 64.4849 105.949C64.6328 105.894 64.799 105.866 64.9835 105.866H65.1065V107.834H64.9268V106.064C64.7466 106.064 64.5842 106.1 64.4396 106.174C64.295 106.247 64.1801 106.347 64.0948 106.473C64.0096 106.599 63.967 106.741 63.967 106.899C63.967 107.064 64.0134 107.211 64.1062 107.341C64.1979 107.469 64.322 107.571 64.4785 107.647C64.6349 107.721 64.8098 107.76 65.0029 107.763H65.0839C65.2911 107.763 65.4772 107.727 65.6423 107.655C65.8063 107.581 65.9364 107.477 66.0324 107.341C66.1274 107.205 66.1749 107.042 66.1749 106.852C66.1749 106.716 66.1522 106.6 66.1069 106.504C66.0605 106.407 66.0044 106.327 65.9385 106.266C65.8727 106.204 65.809 106.158 65.7475 106.127L65.8204 105.947C65.9035 105.985 65.9865 106.044 66.0696 106.123C66.1517 106.202 66.2202 106.303 66.2752 106.425C66.3302 106.545 66.3578 106.688 66.3578 106.852ZM64.3554 102.324L64.404 102.507C64.3134 102.536 64.2351 102.578 64.1693 102.632C64.1035 102.686 64.0528 102.754 64.0171 102.836C63.9805 102.917 63.9621 103.014 63.9621 103.127C63.9621 103.31 64.0074 103.459 64.0981 103.576C64.1887 103.691 64.3069 103.749 64.4526 103.749C64.5713 103.749 64.6695 103.709 64.7472 103.631C64.8238 103.552 64.8821 103.432 64.922 103.27L65.0175 102.888C65.0661 102.691 65.1448 102.543 65.2538 102.444C65.3617 102.345 65.4961 102.295 65.6569 102.295C65.7939 102.295 65.9153 102.333 66.0211 102.407C66.1268 102.481 66.2094 102.584 66.2687 102.716C66.3281 102.847 66.3578 102.999 66.3578 103.173C66.3578 103.405 66.3038 103.595 66.1959 103.744C66.0869 103.893 65.931 103.988 65.7281 104.031L65.6795 103.841C65.8414 103.806 65.965 103.732 66.0502 103.619C66.1344 103.506 66.1765 103.358 66.1765 103.174C66.1765 102.971 66.1285 102.808 66.0324 102.684C65.9364 102.559 65.8133 102.496 65.6633 102.496C65.549 102.496 65.4524 102.533 65.3736 102.606C65.2948 102.679 65.2371 102.791 65.2004 102.94L65.1033 103.336C65.0536 103.539 64.9743 103.691 64.8653 103.793C64.7553 103.894 64.6198 103.945 64.459 103.945C64.3252 103.945 64.2076 103.91 64.1062 103.84C64.0047 103.769 63.9254 103.673 63.8682 103.55C63.811 103.427 63.7824 103.286 63.7824 103.127C63.7824 102.917 63.8321 102.745 63.9314 102.613C64.0306 102.48 64.172 102.384 64.3554 102.324ZM66.3578 100.679C66.3578 100.891 66.3022 101.077 66.191 101.238C66.0788 101.399 65.9256 101.524 65.7313 101.615C65.5371 101.705 65.317 101.749 65.0709 101.749C64.8249 101.749 64.6047 101.704 64.4105 101.613C64.2162 101.523 64.063 101.397 63.9508 101.236C63.8385 101.075 63.7824 100.89 63.7824 100.681C63.7824 100.523 63.8148 100.38 63.8796 100.25C63.9443 100.12 64.0344 100.012 64.1499 99.9267C64.2653 99.8404 64.3992 99.7854 64.5513 99.7616V99.9623C64.383 99.9947 64.2438 100.076 64.1337 100.205C64.0225 100.334 63.967 100.492 63.967 100.679C63.967 100.848 64.0144 100.998 64.1094 101.129C64.2033 101.261 64.3333 101.365 64.4995 101.44C64.6646 101.516 64.854 101.554 65.0677 101.554C65.2781 101.554 65.4669 101.517 65.6342 101.443C65.8004 101.37 65.9321 101.268 66.0292 101.136C66.1263 101.004 66.1749 100.852 66.1749 100.679C66.1749 100.557 66.1506 100.446 66.102 100.346C66.0535 100.245 65.9844 100.16 65.8948 100.092C65.8053 100.024 65.7006 99.9791 65.5808 99.9575V99.7568C65.734 99.7805 65.8689 99.8345 65.9855 99.9186C66.102 100.003 66.1932 100.11 66.259 100.241C66.3249 100.371 66.3578 100.518 66.3578 100.679ZM66.3578 98.1138C66.3578 98.3383 66.3022 98.5336 66.191 98.6998C66.0799 98.8659 65.9277 98.9944 65.7346 99.085C65.5414 99.1757 65.3213 99.221 65.0741 99.221C64.8259 99.221 64.6047 99.1757 64.4105 99.085C64.2162 98.9933 64.063 98.8676 63.9508 98.7079C63.8385 98.5481 63.7824 98.3658 63.7824 98.1607C63.7824 98.0215 63.8105 97.8899 63.8666 97.7658C63.9216 97.6406 64.0015 97.5305 64.1062 97.4356C64.2108 97.3395 64.3371 97.2645 64.4849 97.2106C64.6328 97.1555 64.799 97.128 64.9835 97.128H65.1065V99.0963H64.9268V97.3255C64.7466 97.3255 64.5842 97.3622 64.4396 97.4356C64.295 97.5089 64.1801 97.6088 64.0948 97.735C64.0096 97.8613 63.967 98.0032 63.967 98.1607C63.967 98.3258 64.0134 98.4731 64.1062 98.6026C64.1979 98.7311 64.322 98.833 64.4785 98.9086C64.6349 98.983 64.8098 99.0219 65.0029 99.0251H65.0839C65.2911 99.0251 65.4772 98.989 65.6423 98.9167C65.8063 98.8433 65.9364 98.7386 66.0324 98.6026C66.1274 98.4667 66.1749 98.3037 66.1749 98.1138C66.1749 97.9778 66.1522 97.8618 66.1069 97.7658C66.0605 97.6687 66.0044 97.5893 65.9385 97.5278C65.8727 97.4663 65.809 97.4199 65.7475 97.3886L65.8204 97.2089C65.9035 97.2467 65.9865 97.3055 66.0696 97.3854C66.1517 97.4642 66.2202 97.5645 66.2752 97.6865C66.3302 97.8073 66.3578 97.9498 66.3578 98.1138ZM64.6938 96.2507H66.306V96.4482H63.8197V96.2555H64.213V96.2361C64.0846 96.1778 63.9815 96.0845 63.9038 95.9561C63.8261 95.8277 63.7873 95.675 63.7873 95.498C63.7873 95.3307 63.8229 95.184 63.8941 95.0577C63.9653 94.9304 64.0668 94.8311 64.1984 94.7599C64.329 94.6876 64.4849 94.6514 64.6662 94.6514H66.306V94.8489H64.6743C64.4628 94.8489 64.2929 94.912 64.1644 95.0383C64.0349 95.1635 63.9702 95.3291 63.9702 95.5352C63.9702 95.6734 64.0004 95.7964 64.0608 95.9043C64.1213 96.0122 64.206 96.0969 64.315 96.1584C64.4229 96.2199 64.5492 96.2507 64.6938 96.2507ZM66.3578 92.8612C66.3578 93.0856 66.3022 93.2809 66.191 93.4471C66.0799 93.6133 65.9277 93.7417 65.7346 93.8324C65.5414 93.923 65.3213 93.9683 65.0741 93.9683C64.8259 93.9683 64.6047 93.923 64.4105 93.8324C64.2162 93.7406 64.063 93.6149 63.9508 93.4552C63.8385 93.2955 63.7824 93.1131 63.7824 92.9081C63.7824 92.7689 63.8105 92.6372 63.8666 92.5131C63.9216 92.388 64.0015 92.2779 64.1062 92.1829C64.2108 92.0869 64.3371 92.0119 64.4849 91.9579C64.6328 91.9029 64.799 91.8754 64.9835 91.8754H65.1065V93.8437H64.9268V92.0729C64.7466 92.0729 64.5842 92.1095 64.4396 92.1829C64.295 92.2563 64.1801 92.3561 64.0948 92.4824C64.0096 92.6086 63.967 92.7505 63.967 92.9081C63.967 93.0732 64.0134 93.2205 64.1062 93.35C64.1979 93.4784 64.322 93.5804 64.4785 93.6559C64.6349 93.7304 64.8098 93.7692 65.0029 93.7725H65.0839C65.2911 93.7725 65.4772 93.7363 65.6423 93.664C65.8063 93.5906 65.9364 93.486 66.0324 93.35C66.1274 93.214 66.1749 93.0511 66.1749 92.8612C66.1749 92.7252 66.1522 92.6092 66.1069 92.5131C66.0605 92.416 66.0044 92.3367 65.9385 92.2752C65.8727 92.2137 65.809 92.1673 65.7475 92.136L65.8204 91.9563C65.9035 91.9941 65.9865 92.0529 66.0696 92.1327C66.1517 92.2115 66.2202 92.3119 66.2752 92.4338C66.3302 92.5547 66.3578 92.6971 66.3578 92.8612Z" fill="#797878"/>
<g filter="url(#filter0_d_192_9)">
<circle cx="6.38452" cy="6.38452" r="6.38452" transform="matrix(0 -1 -1 0 38.8964 66.7808)" fill="url(#paint0_linear_192_9)"/>
</g>
<circle cx="6.38452" cy="6.38452" r="6.38452" transform="matrix(0 -1 -1 0 31.7444 87.6607)" fill="#4C4C4C"/>
<circle cx="6.38452" cy="6.38452" r="6.38452" transform="matrix(0 -1 -1 0 31.7444 87.6607)" fill="#4C4C4C"/>
<circle cx="6.38452" cy="6.38452" r="6.38452" transform="matrix(0 -1 -1 0 109.273 87.6607)" fill="#4C4C4C"/>
<circle cx="6.38452" cy="6.38452" r="6.38452" transform="matrix(0 -1 -1 0 109.273 87.6607)" fill="#4C4C4C"/>
<circle cx="6.38452" cy="6.38452" r="6.38452" transform="matrix(0 -1 -1 0 31.7444 109.71)" fill="#4C4C4C"/>
<circle cx="6.38452" cy="6.38452" r="6.38452" transform="matrix(0 -1 -1 0 109.273 109.71)" fill="#4C4C4C"/>
<circle cx="6.38452" cy="6.38452" r="6.38452" transform="matrix(0 -1 -1 0 31.7444 131.76)" fill="#4C4C4C"/>
<circle cx="6.38452" cy="6.38452" r="6.38452" transform="matrix(0 -1 -1 0 109.273 131.76)" fill="#4C4C4C"/>
<circle cx="6.38452" cy="6.38452" r="6.38452" transform="matrix(0 -1 -1 0 38.8964 153.809)" fill="#4C4C4C"/>
<circle cx="6.38452" cy="6.38452" r="6.38452" transform="matrix(0 -1 -1 0 59.9775 166.578)" fill="#4C4C4C"/>
<circle cx="6.38452" cy="6.38452" r="6.38452" transform="matrix(0 -1 -1 0 59.9775 166.578)" fill="#4C4C4C"/>
<circle cx="6.38452" cy="6.38452" r="6.38452" transform="matrix(0 -1 -1 0 81.6014 166.578)" fill="#4C4C4C"/>
<circle cx="6.38452" cy="6.38452" r="6.38452" transform="matrix(0 -1 -1 0 102.79 153.809)" fill="#4C4C4C"/>
<circle cx="53.593" cy="49.3987" r="6.38452" transform="rotate(90 53.593 49.3987)" fill="#4C4C4C"/>
<circle cx="53.593" cy="49.3987" r="6.38452" transform="rotate(90 53.593 49.3987)" fill="#4C4C4C"/>
<circle cx="53.593" cy="49.3987" r="6.38452" transform="rotate(90 53.593 49.3987)" fill="#4C4C4C"/>
<circle cx="75.2169" cy="49.3987" r="6.38452" transform="rotate(90 75.2169 49.3987)" fill="#4C4C4C"/>
<circle cx="96.4054" cy="60.8392" r="6.38452" transform="rotate(90 96.4054 60.8392)" fill="#4C4C4C"/>
<circle cx="96.4054" cy="60.8392" r="6.38452" transform="rotate(90 96.4054 60.8392)" fill="#4C4C4C"/>
<defs>
<filter id="filter0_d_192_9" x="13.2887" y="41.1731" width="38.4463" height="38.4463" filterUnits="userSpaceOnUse" color-interpolation-filters="sRGB">
<feFlood flood-opacity="0" result="BackgroundImageFix"/>
<feColorMatrix in="SourceAlpha" type="matrix" values="0 0 0 0 0 0 0 0 0 0 0 0 0 0 0 0 0 0 127 0" result="hardAlpha"/>
<feOffset/>
<feGaussianBlur stdDeviation="6.41932"/>
<feComposite in2="hardAlpha" operator="out"/>
<feColorMatrix type="matrix" values="0 0 0 0 0.807843 0 0 0 0 0.203922 0 0 0 0 0.0705882 0 0 0 1 0"/>
<feBlend mode="normal" in2="BackgroundImageFix" result="effect1_dropShadow_192_9"/>
<feBlend mode="normal" in="SourceGraphic" in2="effect1_dropShadow_192_9" result="shape"/>
</filter>
<linearGradient id="paint0_linear_192_9" x1="3.54146" y1="1.26265e-06" x2="13.4779" y2="1.35345" gradientUnits="userSpaceOnUse">
<stop stop-color="#FFB905"/>
<stop offset="1" stop-color="#F4DC00"/>
</linearGradient>
</defs>
</svg>
