<svg width="269" height="78" viewBox="0 0 269 78" fill="none" xmlns="http://www.w3.org/2000/svg">
<path d="M25.2273 2.15406H21.3642L21.0048 5.11879L20.5781 4.93911L20.8027 2.15406H20.7802L20.8252 1.97438L20.8476 1.70486L20.8925 1.72732V1.70486H31.0894L31.3814 4.93911L30.9322 5.11879L30.5728 2.15406H26.6423V17.0002L28.2819 17.09C28.2819 17.105 28.2744 17.2173 28.2594 17.4269L23.7674 17.4494C23.7674 17.3146 23.7749 17.2098 23.7899 17.1349L24.9578 16.9777C25.1075 16.9627 25.1974 16.8654 25.2273 16.6857V2.15406ZM35.6069 17.5168C34.0496 17.5168 32.7844 17.0675 31.8111 16.1691C30.8528 15.2707 30.3737 13.9007 30.3737 12.059C30.3737 10.2023 30.8828 8.74983 31.901 7.7017C32.9341 6.63859 34.2293 6.10703 35.7866 6.10703C37.3438 6.10703 38.609 6.55623 39.5823 7.45464C40.5556 8.35304 41.0422 9.73059 41.0422 11.5873C41.0422 13.429 40.5256 14.8814 39.4925 15.9445C38.4743 16.9927 37.1791 17.5168 35.6069 17.5168ZM35.7641 6.51131C34.6411 6.51131 33.7053 6.99795 32.9566 7.97122C32.2079 8.94449 31.8336 10.2696 31.8336 11.9467C31.8336 13.6087 32.1855 14.8889 32.8892 15.7873C33.6079 16.6708 34.5288 17.1125 35.6518 17.1125C36.7748 17.1125 37.7106 16.6258 38.4593 15.6526C39.208 14.6793 39.5823 13.3616 39.5823 11.6996C39.5823 10.0375 39.2229 8.75732 38.5042 7.85892C37.8005 6.96051 36.8871 6.51131 35.7641 6.51131ZM50.1443 6.55623L50.1219 6.21933L53.154 6.19687V14.013C53.154 14.5969 53.2363 15.106 53.401 15.5403C53.5658 15.9595 53.7454 16.2665 53.9401 16.4611C54.1497 16.6558 54.3893 16.8055 54.6588 16.9103C55.0781 17.0601 55.4299 17.12 55.7144 17.09C56.6278 17.075 57.6685 16.6034 58.8364 15.675V6.98297C58.7765 6.80329 58.6492 6.69848 58.4546 6.66853L57.2866 6.55623C57.2717 6.46639 57.2642 6.35409 57.2642 6.21933L60.2963 6.19687V16.3937C60.3262 16.7681 60.446 16.9552 60.6557 16.9552L62.0033 17.0226L61.9808 17.3595C61.2621 17.4793 60.5134 17.5392 59.7348 17.5392C59.5551 17.5242 59.3605 17.4269 59.1508 17.2472C58.9412 17.0526 58.8364 16.813 58.8364 16.5285V16.1242C57.4738 17.0376 56.1861 17.4943 54.9733 17.4943C54.4642 17.4943 53.8652 17.367 53.1764 17.1125C52.7272 16.9478 52.3679 16.6408 52.0984 16.1916C51.8288 15.7274 51.6941 15.151 51.6941 14.4622V7.00543C51.6941 6.93057 51.6492 6.86319 51.5593 6.80329C51.4845 6.72843 51.4021 6.68351 51.3123 6.66853L50.1443 6.55623ZM66.8776 17.1574C66.9675 17.1574 67.0573 17.1499 67.1471 17.1349C67.9258 17.12 68.5771 16.8804 69.1012 16.4162C69.6252 15.9371 69.8873 15.2408 69.8873 14.3274C69.8873 13.429 69.1835 12.7777 67.776 12.3734C67.1921 12.2087 66.6081 12.029 66.0241 11.8344C65.4402 11.6397 64.9386 11.3327 64.5193 10.9135C64.115 10.4942 63.9129 9.9477 63.9129 9.2739C63.9129 8.31561 64.2797 7.55196 65.0134 6.98297C65.7471 6.39901 66.6755 6.10703 67.7985 6.10703C68.637 6.10703 69.483 6.25676 70.3365 6.55623L70.7408 6.71345V9.29636L70.314 9.45358L70.2242 7.54448C69.3557 6.8557 68.6295 6.51131 68.0455 6.51131C67.222 6.51131 66.5707 6.75837 66.0915 7.2525C65.6124 7.73164 65.3728 8.3755 65.3728 9.18406C65.3728 9.64824 65.5749 10.0226 65.9792 10.3071C66.3985 10.5916 66.9001 10.8162 67.484 10.9809C68.068 11.1456 68.652 11.3327 69.2359 11.5424C69.8199 11.737 70.314 12.0664 70.7183 12.5306C71.1375 12.9798 71.3472 13.5713 71.3472 14.305C71.3472 15.2932 70.9728 16.0793 70.2242 16.6633C69.4905 17.2323 68.4423 17.5168 67.0798 17.5168C65.7172 17.5168 64.5867 17.1948 63.6883 16.551V13.9681L64.0926 13.8108L64.2049 15.7199C64.4145 16.1093 64.7888 16.4462 65.3279 16.7306C65.8819 17.0151 66.3985 17.1574 66.8776 17.1574ZM74.7139 12.2611C74.7139 15.4953 75.9717 17.1125 78.4872 17.1125C79.146 17.1125 79.8498 17.0451 80.5985 16.9103C81.3471 16.7606 81.8263 16.6258 82.0359 16.506L82.1931 16.7306C81.8487 16.9552 81.2797 17.1424 80.4862 17.2921C79.7075 17.4419 78.9888 17.5168 78.33 17.5168C77.6861 17.5168 77.1022 17.4494 76.5781 17.3146C76.069 17.1798 75.5449 16.9403 75.0059 16.5959C74.4668 16.2515 74.0401 15.7125 73.7257 14.9788C73.4112 14.2451 73.254 13.3467 73.254 12.2836C73.254 10.3071 73.7631 8.79475 74.7813 7.74662C75.8444 6.65356 77.0797 6.10703 78.4872 6.10703C79.8947 6.10703 80.9653 6.49634 81.699 7.27495C82.4477 8.05357 82.822 9.14663 82.822 10.5541C82.822 10.8536 82.7995 11.1755 82.7546 11.5199H74.7364C74.7214 11.6846 74.7139 11.9317 74.7139 12.2611ZM81.4969 10.3969C81.4969 9.2739 81.2498 8.36053 80.7557 7.65678C80.2615 6.93805 79.5877 6.57869 78.7343 6.57869C77.6262 6.57869 76.6904 7.06533 75.9268 8.0386C75.3128 8.80224 74.931 9.82043 74.7813 11.0932H81.4744C81.4894 10.9285 81.4969 10.6964 81.4969 10.3969ZM96.3359 17.0002L97.2119 16.9552L97.2793 17.1798C97.2643 17.1798 97.1595 17.2023 96.9648 17.2472C96.5156 17.352 96.014 17.4045 95.46 17.4045C94.9509 17.3745 94.4867 17.2921 94.0675 17.1574C93.6482 17.0077 93.2589 16.7082 92.8996 16.259C92.5402 15.7948 92.3605 15.2034 92.3605 14.4846V6.60115H91.215L91.3947 6.42147L92.383 6.21933L92.5627 4.06316L93.8204 3.95086V6.19687H96.5381V6.60115H93.8204V14.1028C93.8204 15.2408 94.06 16.0119 94.5391 16.4162C95.0183 16.8055 95.6172 17.0002 96.3359 17.0002ZM101.34 1.50271V7.5894C103.302 6.24179 105.076 5.82254 106.663 6.33163C107.023 6.43645 107.33 6.59367 107.584 6.80329C107.854 6.99795 108.086 7.29742 108.28 7.7017C108.475 8.10598 108.572 8.59261 108.572 9.1616V16.9777L110.257 17.09C110.257 17.105 110.249 17.2173 110.234 17.4269L105.742 17.4494C105.742 17.3146 105.75 17.2098 105.765 17.1349L106.933 16.9777C107.023 16.9777 107.082 16.9103 107.112 16.7756V9.74556C107.112 9.1616 107.03 8.65999 106.865 8.24074C106.716 7.80651 106.536 7.49207 106.326 7.29741C106.117 7.10276 105.87 6.95303 105.585 6.84821C105.196 6.69848 104.851 6.63859 104.552 6.66853C103.579 6.69848 102.508 7.09527 101.34 7.85892V16.9777L103.025 17.09C103.025 17.105 103.017 17.2173 103.002 17.4269L98.5102 17.4494C98.5102 17.3146 98.5177 17.2098 98.5326 17.1349L99.7006 16.9777C99.8204 16.9627 99.8802 16.8579 99.8802 16.6633V1.39041C99.8802 1.22571 99.8353 1.14335 99.7455 1.14335L98.3979 1.09843L98.4203 0.783992C99.2289 0.649231 99.8428 0.581851 100.262 0.581851C100.681 0.581851 100.966 0.679178 101.116 0.873832C101.265 1.06849 101.34 1.27811 101.34 1.50271ZM112.286 12.2611C112.286 15.4953 113.544 17.1125 116.06 17.1125C116.718 17.1125 117.422 17.0451 118.171 16.9103C118.919 16.7606 119.399 16.6258 119.608 16.506L119.765 16.7306C119.421 16.9552 118.852 17.1424 118.059 17.2921C117.28 17.4419 116.561 17.5168 115.902 17.5168C115.258 17.5168 114.675 17.4494 114.15 17.3146C113.641 17.1798 113.117 16.9403 112.578 16.5959C112.039 16.2515 111.612 15.7125 111.298 14.9788C110.984 14.2451 110.826 13.3467 110.826 12.2836C110.826 10.3071 111.335 8.79475 112.354 7.74662C113.417 6.65356 114.652 6.10703 116.06 6.10703C117.467 6.10703 118.538 6.49634 119.271 7.27495C120.02 8.05357 120.394 9.14663 120.394 10.5541C120.394 10.8536 120.372 11.1755 120.327 11.5199H112.309C112.294 11.6846 112.286 11.9317 112.286 12.2611ZM119.069 10.3969C119.069 9.2739 118.822 8.36053 118.328 7.65678C117.834 6.93805 117.16 6.57869 116.307 6.57869C115.199 6.57869 114.263 7.06533 113.499 8.0386C112.885 8.80224 112.503 9.82043 112.354 11.0932H119.047C119.062 10.9285 119.069 10.6964 119.069 10.3969ZM131.977 1.50271V7.09527C132.875 6.36158 133.878 5.99473 134.986 5.99473C136.005 5.99473 136.963 6.30917 137.861 6.93805C138.34 7.28244 138.722 7.82148 139.007 8.55518C139.306 9.28888 139.456 10.1798 139.456 11.2279C139.456 13.2194 138.962 14.7167 137.974 15.7199C136.851 16.8579 135.428 17.4269 133.706 17.4269C133.062 17.4269 132.418 17.3745 131.775 17.2697C131.146 17.1649 130.726 17.0451 130.517 16.9103V1.32303C130.487 1.20325 130.442 1.14335 130.382 1.14335L129.012 1.09843L129.034 0.783992C129.978 0.649231 130.622 0.581851 130.966 0.581851C131.325 0.581851 131.58 0.679178 131.73 0.873832C131.894 1.06849 131.977 1.27811 131.977 1.50271ZM131.977 7.52202V17.0226C132.381 17.1574 132.853 17.2248 133.392 17.2248C134.859 17.2248 135.99 16.7082 136.783 15.675C137.592 14.6419 137.996 13.1969 137.996 11.3402C137.996 9.30385 137.592 7.93378 136.783 7.23003C136.154 6.67602 135.428 6.39901 134.605 6.39901C133.781 6.39901 132.905 6.77335 131.977 7.52202ZM146.482 17.5168C144.924 17.5168 143.659 17.0675 142.686 16.1691C141.728 15.2707 141.248 13.9007 141.248 12.059C141.248 10.2023 141.757 8.74983 142.776 7.7017C143.809 6.63859 145.104 6.10703 146.661 6.10703C148.218 6.10703 149.484 6.55623 150.457 7.45464C151.43 8.35304 151.917 9.73059 151.917 11.5873C151.917 13.429 151.4 14.8814 150.367 15.9445C149.349 16.9927 148.054 17.5168 146.482 17.5168ZM146.639 6.51131C145.516 6.51131 144.58 6.99795 143.831 7.97122C143.083 8.94449 142.708 10.2696 142.708 11.9467C142.708 13.6087 143.06 14.8889 143.764 15.7873C144.483 16.6708 145.403 17.1125 146.526 17.1125C147.649 17.1125 148.585 16.6258 149.334 15.6526C150.083 14.6793 150.457 13.3616 150.457 11.6996C150.457 10.0375 150.098 8.75732 149.379 7.85892C148.675 6.96051 147.762 6.51131 146.639 6.51131ZM153.273 17.4494L153.296 17.1349L154.464 16.9777C154.598 16.9627 154.666 16.8579 154.666 16.6633V6.93805C154.636 6.81827 154.591 6.75837 154.531 6.75837L153.161 6.71345L153.183 6.39901C154.127 6.26425 154.763 6.19687 155.093 6.19687C155.692 6.19687 156.028 6.45891 156.103 6.98297H156.126V7.45464C157.354 6.61613 158.529 6.17441 159.652 6.12949C160.745 6.12949 161.576 6.34661 162.145 6.78083C162.4 6.97549 162.624 7.28244 162.819 7.7017C163.028 8.10598 163.133 8.59261 163.133 9.1616V16.9777L164.818 17.09C164.818 17.105 164.81 17.2173 164.795 17.4269L160.303 17.4494C160.303 17.3146 160.311 17.2098 160.326 17.1349L161.494 16.9777C161.613 16.9627 161.673 16.8579 161.673 16.6633V9.7231C161.673 9.12417 161.591 8.61507 161.426 8.19582C161.277 7.77656 161.104 7.46961 160.91 7.27495C160.715 7.0803 160.475 6.93057 160.191 6.82575C159.862 6.70597 159.517 6.64607 159.158 6.64607C158.259 6.66105 157.249 7.01292 156.126 7.7017V16.9777L157.81 17.09C157.81 17.105 157.803 17.2173 157.788 17.4269L153.273 17.4494ZM166.217 6.55623L166.195 6.21933L169.227 6.19687V14.013C169.227 14.5969 169.309 15.106 169.474 15.5403C169.639 15.9595 169.818 16.2665 170.013 16.4611C170.223 16.6558 170.462 16.8055 170.732 16.9103C171.151 17.0601 171.503 17.12 171.787 17.09C172.701 17.075 173.741 16.6034 174.909 15.675V6.98297C174.849 6.80329 174.722 6.69848 174.528 6.66853L173.36 6.55623C173.345 6.46639 173.337 6.35409 173.337 6.21933L176.369 6.19687V16.3937C176.399 16.7681 176.519 16.9552 176.729 16.9552L178.076 17.0226L178.054 17.3595C177.335 17.4793 176.586 17.5392 175.808 17.5392C175.628 17.5242 175.433 17.4269 175.224 17.2472C175.014 17.0526 174.909 16.813 174.909 16.5285V16.1242C173.547 17.0376 172.259 17.4943 171.046 17.4943C170.537 17.4943 169.938 17.367 169.249 17.1125C168.8 16.9478 168.441 16.6408 168.171 16.1916C167.902 15.7274 167.767 15.151 167.767 14.4622V7.00543C167.767 6.93057 167.722 6.86319 167.632 6.80329C167.557 6.72843 167.475 6.68351 167.385 6.66853L166.217 6.55623ZM182.951 17.1574C183.04 17.1574 183.13 17.1499 183.22 17.1349C183.999 17.12 184.65 16.8804 185.174 16.4162C185.698 15.9371 185.96 15.2408 185.96 14.3274C185.96 13.429 185.256 12.7777 183.849 12.3734C183.265 12.2087 182.681 12.029 182.097 11.8344C181.513 11.6397 181.012 11.3327 180.592 10.9135C180.188 10.4942 179.986 9.9477 179.986 9.2739C179.986 8.31561 180.353 7.55196 181.086 6.98297C181.82 6.39901 182.748 6.10703 183.871 6.10703C184.71 6.10703 185.556 6.25676 186.409 6.55623L186.814 6.71345V9.29636L186.387 9.45358L186.297 7.54448C185.429 6.8557 184.702 6.51131 184.119 6.51131C183.295 6.51131 182.644 6.75837 182.164 7.2525C181.685 7.73164 181.446 8.3755 181.446 9.18406C181.446 9.64824 181.648 10.0226 182.052 10.3071C182.471 10.5916 182.973 10.8162 183.557 10.9809C184.141 11.1456 184.725 11.3327 185.309 11.5424C185.893 11.737 186.387 12.0664 186.791 12.5306C187.211 12.9798 187.42 13.5713 187.42 14.305C187.42 15.2932 187.046 16.0793 186.297 16.6633C185.563 17.2323 184.515 17.5168 183.153 17.5168C181.79 17.5168 180.66 17.1948 179.761 16.551V13.9681L180.166 13.8108L180.278 15.7199C180.487 16.1093 180.862 16.4462 181.401 16.7306C181.955 17.0151 182.471 17.1574 182.951 17.1574ZM189.057 15.967C189.057 15.967 189.462 15.9745 190.27 15.9895C190.27 16.5135 190.098 17.2173 189.754 18.1007C189.634 18.4152 189.492 18.7221 189.327 19.0216C189.177 19.321 189.057 19.5606 188.968 19.7403L188.608 19.6954L188.721 18.9317C188.945 17.5692 189.057 16.7456 189.057 16.4611C189.057 16.1766 189.057 16.0119 189.057 15.967ZM201.594 17.1574C201.684 17.1574 201.774 17.1499 201.864 17.1349C202.642 17.12 203.294 16.8804 203.818 16.4162C204.342 15.9371 204.604 15.2408 204.604 14.3274C204.604 13.429 203.9 12.7777 202.493 12.3734C201.909 12.2087 201.325 12.029 200.741 11.8344C200.157 11.6397 199.655 11.3327 199.236 10.9135C198.832 10.4942 198.629 9.9477 198.629 9.2739C198.629 8.31561 198.996 7.55196 199.73 6.98297C200.464 6.39901 201.392 6.10703 202.515 6.10703C203.354 6.10703 204.2 6.25676 205.053 6.55623L205.457 6.71345V9.29636L205.031 9.45358L204.941 7.54448C204.072 6.8557 203.346 6.51131 202.762 6.51131C201.939 6.51131 201.287 6.75837 200.808 7.2525C200.329 7.73164 200.089 8.3755 200.089 9.18406C200.089 9.64824 200.292 10.0226 200.696 10.3071C201.115 10.5916 201.617 10.8162 202.201 10.9809C202.785 11.1456 203.369 11.3327 203.953 11.5424C204.536 11.737 205.031 12.0664 205.435 12.5306C205.854 12.9798 206.064 13.5713 206.064 14.305C206.064 15.2932 205.689 16.0793 204.941 16.6633C204.207 17.2323 203.159 17.5168 201.796 17.5168C200.434 17.5168 199.303 17.1948 198.405 16.551V13.9681L198.809 13.8108L198.921 15.7199C199.131 16.1093 199.505 16.4462 200.044 16.7306C200.598 17.0151 201.115 17.1574 201.594 17.1574ZM210.679 1.50271V7.5894C212.641 6.24179 214.415 5.82254 216.003 6.33163C216.362 6.43645 216.669 6.59367 216.923 6.80329C217.193 6.99795 217.425 7.29742 217.62 7.7017C217.814 8.10598 217.912 8.59261 217.912 9.1616V16.9777L219.596 17.09C219.596 17.105 219.589 17.2173 219.574 17.4269L215.082 17.4494C215.082 17.3146 215.089 17.2098 215.104 17.1349L216.272 16.9777C216.362 16.9777 216.422 16.9103 216.452 16.7756V9.74556C216.452 9.1616 216.369 8.65999 216.205 8.24074C216.055 7.80651 215.875 7.49207 215.666 7.29741C215.456 7.10276 215.209 6.95303 214.924 6.84821C214.535 6.69848 214.191 6.63859 213.891 6.66853C212.918 6.69848 211.847 7.09527 210.679 7.85892V16.9777L212.364 17.09C212.364 17.105 212.357 17.2173 212.342 17.4269L207.85 17.4494C207.85 17.3146 207.857 17.2098 207.872 17.1349L209.04 16.9777C209.16 16.9627 209.22 16.8579 209.22 16.6633V1.39041C209.22 1.22571 209.175 1.14335 209.085 1.14335L207.737 1.09843L207.76 0.783992C208.568 0.649231 209.182 0.581851 209.601 0.581851C210.021 0.581851 210.305 0.679178 210.455 0.873832C210.605 1.06849 210.679 1.27811 210.679 1.50271ZM225.487 17.5168C223.929 17.5168 222.664 17.0675 221.691 16.1691C220.733 15.2707 220.253 13.9007 220.253 12.059C220.253 10.2023 220.763 8.74983 221.781 7.7017C222.814 6.63859 224.109 6.10703 225.666 6.10703C227.224 6.10703 228.489 6.55623 229.462 7.45464C230.435 8.35304 230.922 9.73059 230.922 11.5873C230.922 13.429 230.405 14.8814 229.372 15.9445C228.354 16.9927 227.059 17.5168 225.487 17.5168ZM225.644 6.51131C224.521 6.51131 223.585 6.99795 222.836 7.97122C222.088 8.94449 221.713 10.2696 221.713 11.9467C221.713 13.6087 222.065 14.8889 222.769 15.7873C223.488 16.6708 224.409 17.1125 225.532 17.1125C226.655 17.1125 227.59 16.6258 228.339 15.6526C229.088 14.6793 229.462 13.3616 229.462 11.6996C229.462 10.0375 229.103 8.75732 228.384 7.85892C227.68 6.96051 226.767 6.51131 225.644 6.51131ZM250.908 6.19687C250.908 6.21184 250.915 6.32415 250.93 6.53377L249.628 6.66853L248.819 6.84821L244.799 17.4269H243.451L240.823 8.53272L237.791 17.4269H236.443L232.94 6.93805C232.85 6.77335 232.738 6.68351 232.603 6.66853L231.435 6.55623C231.42 6.46639 231.412 6.35409 231.412 6.21933L236.129 6.19687C236.129 6.21184 236.137 6.32415 236.151 6.53377L234.534 6.64607L237.566 16.7082L240.846 6.30917L241.609 6.19687L244.462 17.0675L247.988 7.00543C248.033 6.91559 248.01 6.84073 247.921 6.78083C247.831 6.72094 247.726 6.68351 247.606 6.66853L246.438 6.55623C246.423 6.46639 246.416 6.35409 246.416 6.21933L250.908 6.19687ZM11.7268 44.0002L12.6028 43.9552L12.6701 44.1798C12.6552 44.1798 12.5504 44.2023 12.3557 44.2472C11.9065 44.352 11.4049 44.4045 10.8509 44.4045C10.3418 44.3745 9.87761 44.2921 9.45835 44.1574C9.0391 44.0077 8.64979 43.7082 8.29043 43.259C7.93107 42.7948 7.75139 42.2034 7.75139 41.4846V33.6012H6.60592L6.7856 33.4215L7.77385 33.2193L7.95353 31.0632L9.21129 30.9509V33.1969H11.929V33.6012H9.21129V41.1028C9.21129 42.2408 9.45087 43.0119 9.93001 43.4162C10.4092 43.8055 11.0081 44.0002 11.7268 44.0002ZM16.731 28.5027V34.5894C18.6925 33.2418 20.4669 32.8225 22.0541 33.3316C22.4134 33.4364 22.7204 33.5937 22.9749 33.8033C23.2445 33.9979 23.4765 34.2974 23.6712 34.7017C23.8658 35.106 23.9632 35.5926 23.9632 36.1616V43.9777L25.6477 44.09C25.6477 44.105 25.6402 44.2173 25.6252 44.4269L21.1332 44.4494C21.1332 44.3146 21.1407 44.2098 21.1557 44.1349L22.3236 43.9777C22.4134 43.9777 22.4733 43.9103 22.5033 43.7756V36.7456C22.5033 36.1616 22.4209 35.66 22.2562 35.2407C22.1065 34.8065 21.9268 34.4921 21.7172 34.2974C21.5075 34.1028 21.2605 33.953 20.976 33.8482C20.5867 33.6985 20.2423 33.6386 19.9428 33.6685C18.9696 33.6985 17.899 34.0953 16.731 34.8589V43.9777L18.4155 44.09C18.4155 44.105 18.4081 44.2173 18.3931 44.4269L13.9011 44.4494C13.9011 44.3146 13.9085 44.2098 13.9235 44.1349L15.0914 43.9777C15.2112 43.9627 15.2711 43.8579 15.2711 43.6633V28.3904C15.2711 28.2257 15.2262 28.1434 15.1364 28.1434L13.7888 28.0984L13.8112 27.784C14.6198 27.6492 15.2337 27.5819 15.6529 27.5819C16.0722 27.5819 16.3567 27.6792 16.5064 27.8738C16.6562 28.0685 16.731 28.2781 16.731 28.5027ZM29.4964 34.1177V43.9777L31.1809 44.09C31.1809 44.105 31.1734 44.2173 31.1585 44.4269L26.6665 44.4494C26.6665 44.3146 26.6739 44.2098 26.6889 44.1349L27.8568 43.9777C27.9467 43.9777 28.0066 43.9103 28.0365 43.7756V33.9156C28.0066 33.8108 27.9617 33.7584 27.9018 33.7584L26.5542 33.7135L26.5766 33.399C27.3852 33.2643 27.9991 33.1969 28.4183 33.1969C28.8376 33.1969 29.1221 33.2942 29.2718 33.4889C29.4216 33.6835 29.4964 33.8931 29.4964 34.1177ZM28.7328 30.1872C28.4333 30.1872 28.2012 30.0974 28.0365 29.9177C27.8718 29.723 27.7895 29.476 27.7895 29.1765C27.7895 28.8621 27.8718 28.615 28.0365 28.4353C28.2162 28.2407 28.4558 28.1434 28.7552 28.1434C29.0547 28.1434 29.2943 28.2407 29.474 28.4353C29.6686 28.615 29.7659 28.8696 29.7659 29.199C29.7659 29.5134 29.6686 29.7605 29.474 29.9402C29.2793 30.1049 29.0323 30.1872 28.7328 30.1872ZM35.8305 44.1574C35.9204 44.1574 36.0102 44.1499 36.1 44.1349C36.8787 44.12 37.53 43.8804 38.0541 43.4162C38.5781 42.9371 38.8402 42.2408 38.8402 41.3274C38.8402 40.429 38.1364 39.7777 36.7289 39.3734C36.145 39.2087 35.561 39.029 34.977 38.8344C34.3931 38.6397 33.8915 38.3327 33.4722 37.9135C33.0679 37.4942 32.8658 36.9477 32.8658 36.2739C32.8658 35.3156 33.2326 34.552 33.9663 33.983C34.7 33.399 35.6284 33.107 36.7514 33.107C37.5899 33.107 38.4359 33.2568 39.2894 33.5562L39.6937 33.7135V36.2964L39.2669 36.4536L39.1771 34.5445C38.3086 33.8557 37.5824 33.5113 36.9984 33.5113C36.1749 33.5113 35.5236 33.7584 35.0444 34.2525C34.5653 34.7316 34.3257 35.3755 34.3257 36.1841C34.3257 36.6482 34.5278 37.0226 34.9321 37.3071C35.3514 37.5916 35.853 37.8162 36.4369 37.9809C37.0209 38.1456 37.6049 38.3327 38.1888 38.5424C38.7728 38.737 39.2669 39.0664 39.6712 39.5306C40.0904 39.9798 40.3001 40.5713 40.3001 41.305C40.3001 42.2932 39.9257 43.0793 39.1771 43.6633C38.4434 44.2323 37.3952 44.5168 36.0327 44.5168C34.6701 44.5168 33.5396 44.1948 32.6412 43.551V40.9681L33.0455 40.8108L33.1578 42.7199C33.3674 43.1093 33.7417 43.4462 34.2808 43.7306C34.8348 44.0151 35.3514 44.1574 35.8305 44.1574ZM55.2299 50.0419L55.2523 49.7275L56.4203 49.5703C56.5251 49.5553 56.5925 49.4729 56.6224 49.3232V43.7306C55.7839 44.2547 54.8106 44.5168 53.7026 44.5168C52.6095 44.5168 51.5988 44.2098 50.6705 43.5959C50.1464 43.2515 49.7197 42.7125 49.3903 41.9788C49.0758 41.2301 48.9186 40.3242 48.9186 39.2611C48.9186 37.2996 49.4202 35.8022 50.4234 34.7691C51.4865 33.661 52.6994 33.107 54.062 33.107C54.9005 33.107 55.754 33.3241 56.6224 33.7584V33.3092L58.0823 33.1969V49.5703L59.9914 49.6826C59.9764 49.8922 59.969 50.0045 59.969 50.0195L55.2299 50.0419ZM53.9946 44.1125C54.9379 44.1125 55.8138 43.8504 56.6224 43.3264V34.1177C55.9636 33.7135 55.3122 33.5113 54.6684 33.5113C53.3807 33.5113 52.34 34.0054 51.5464 34.9937C50.7678 35.9819 50.3785 37.3969 50.3785 39.2386C50.3785 42.4879 51.5839 44.1125 53.9946 44.1125ZM64.278 34.1177V35.9145C65.4609 34.1776 66.6213 33.2942 67.7593 33.2643C67.8491 33.2643 67.939 33.2643 68.0288 33.2643L69.2866 33.4215L68.7026 34.7691C68.4181 34.4846 68.0513 34.3423 67.6021 34.3423C66.509 34.3573 65.401 35.0835 64.278 36.521V43.9777L66.1871 44.09C66.1871 44.105 66.1796 44.2173 66.1646 44.4269L61.448 44.4494C61.448 44.3146 61.4555 44.2098 61.4705 44.1349L62.6384 43.9777C62.7582 43.9627 62.8181 43.8579 62.8181 43.6633V33.9156C62.7881 33.8108 62.7432 33.7584 62.6833 33.7584L61.3357 33.7135L61.3582 33.399C62.1667 33.2643 62.7806 33.1969 63.1999 33.1969C63.6191 33.1969 63.9036 33.2942 64.0534 33.4889C64.2031 33.6835 64.278 33.8931 64.278 34.1177ZM73.4717 37.9135H80.2546V38.3178H73.4717V37.9135ZM90.3978 33.5113C89.1251 33.5113 88.0919 34.0129 87.2983 35.0161C86.5197 36.0044 86.1304 37.4119 86.1304 39.2386C86.1304 42.4879 87.3657 44.1125 89.8363 44.1125C90.8096 44.1125 91.6406 44.0226 92.3294 43.8429C93.0181 43.6483 93.3925 43.5285 93.4524 43.4836L93.6096 43.7306C93.2652 43.9552 92.6962 44.1424 91.9026 44.2921C91.109 44.4419 90.3903 44.5168 89.7465 44.5168C89.1026 44.5168 88.5186 44.4494 87.9946 44.3146C87.4705 44.1798 86.939 43.9403 86.3999 43.5959C85.8758 43.2515 85.4566 42.7125 85.1421 41.9788C84.8277 41.2301 84.6705 40.3242 84.6705 39.2611C84.6705 37.2996 85.1721 35.8172 86.1753 34.814C87.2983 33.661 88.7133 33.0846 90.4203 33.0846C90.9593 33.0846 91.5283 33.1594 92.1272 33.3092C92.7411 33.4439 93.2128 33.661 93.5422 33.9605V36.9028L93.1155 37.06L93.0032 34.7017C92.6738 34.3573 92.2695 34.0728 91.7903 33.8482C91.3262 33.6236 90.862 33.5113 90.3978 33.5113ZM100.059 44.5168C98.5017 44.5168 97.2365 44.0675 96.2632 43.1691C95.3049 42.2707 94.8258 40.9007 94.8258 39.059C94.8258 37.2023 95.3349 35.7498 96.3531 34.7017C97.3862 33.6386 98.6814 33.107 100.239 33.107C101.796 33.107 103.061 33.5562 104.034 34.4546C105.008 35.353 105.494 36.7306 105.494 38.5873C105.494 40.429 104.978 41.8814 103.945 42.9445C102.926 43.9927 101.631 44.5168 100.059 44.5168ZM100.216 33.5113C99.0932 33.5113 98.1574 33.9979 97.4087 34.9712C96.66 35.9445 96.2857 37.2696 96.2857 38.9467C96.2857 40.6087 96.6376 41.8889 97.3413 42.7873C98.06 43.6708 98.9809 44.1125 100.104 44.1125C101.227 44.1125 102.163 43.6258 102.911 42.6526C103.66 41.6793 104.034 40.3616 104.034 38.6996C104.034 37.0375 103.675 35.7573 102.956 34.8589C102.253 33.9605 101.339 33.5113 100.216 33.5113ZM116.689 28.5027V43.259C116.689 43.7232 116.809 43.9552 117.048 43.9552L118.396 44.0226L118.374 44.3595C117.655 44.4793 116.906 44.5392 116.128 44.5392C115.963 44.5242 115.783 44.4419 115.589 44.2921C115.409 44.1424 115.304 43.9478 115.274 43.7082C114.421 44.2472 113.432 44.5168 112.309 44.5168C111.216 44.5168 110.206 44.2098 109.277 43.5959C108.753 43.2515 108.326 42.7125 107.997 41.9788C107.683 41.2301 107.525 40.3242 107.525 39.2611C107.525 37.2996 108.027 35.8022 109.03 34.7691C110.093 33.661 111.306 33.107 112.669 33.107C113.507 33.107 114.361 33.3241 115.229 33.7584V28.3904C115.229 28.2257 115.184 28.1434 115.094 28.1434L113.724 28.0984L113.747 27.784C114.69 27.6492 115.334 27.5819 115.678 27.5819C116.038 27.5819 116.292 27.6792 116.442 27.8738C116.607 28.0685 116.689 28.2781 116.689 28.5027ZM112.601 44.1125C113.515 44.1125 114.391 43.9103 115.229 43.506V34.1177C114.57 33.7135 113.919 33.5113 113.275 33.5113C111.987 33.5113 110.947 34.0054 110.153 34.9937C109.375 35.9819 108.985 37.3969 108.985 39.2386C108.985 42.4879 110.191 44.1125 112.601 44.1125ZM121.992 39.2611C121.992 42.4953 123.25 44.1125 125.765 44.1125C126.424 44.1125 127.128 44.0451 127.876 43.9103C128.625 43.7606 129.104 43.6258 129.314 43.506L129.471 43.7306C129.127 43.9552 128.558 44.1424 127.764 44.2921C126.986 44.4419 126.267 44.5168 125.608 44.5168C124.964 44.5168 124.38 44.4494 123.856 44.3146C123.347 44.1798 122.823 43.9403 122.284 43.5959C121.745 43.2515 121.318 42.7125 121.004 41.9788C120.689 41.2451 120.532 40.3467 120.532 39.2836C120.532 37.3071 121.041 35.7948 122.059 34.7466C123.122 33.6536 124.358 33.107 125.765 33.107C127.173 33.107 128.243 33.4963 128.977 34.275C129.726 35.0536 130.1 36.1466 130.1 37.5541C130.1 37.8536 130.078 38.1755 130.033 38.5199H122.014C121.999 38.6846 121.992 38.9317 121.992 39.2611ZM128.775 37.3969C128.775 36.2739 128.528 35.3605 128.034 34.6568C127.54 33.9381 126.866 33.5787 126.012 33.5787C124.904 33.5787 123.968 34.0653 123.205 35.0386C122.591 35.8022 122.209 36.8204 122.059 38.0932H128.752C128.767 37.9285 128.775 37.6964 128.775 37.3969ZM143.614 44.0002L144.49 43.9552L144.557 44.1798C144.542 44.1798 144.438 44.2023 144.243 44.2472C143.794 44.352 143.292 44.4045 142.738 44.4045C142.229 44.3745 141.765 44.2921 141.345 44.1574C140.926 44.0077 140.537 43.7082 140.178 43.259C139.818 42.7948 139.639 42.2034 139.639 41.4846V33.6012H138.493L138.673 33.4215L139.661 33.2193L139.841 31.0632L141.098 30.9509V33.1969H143.816V33.6012H141.098V41.1028C141.098 42.2408 141.338 43.0119 141.817 43.4162C142.296 43.8055 142.895 44.0002 143.614 44.0002ZM150.66 44.5168C149.103 44.5168 147.837 44.0675 146.864 43.1691C145.906 42.2707 145.427 40.9007 145.427 39.059C145.427 37.2023 145.936 35.7498 146.954 34.7017C147.987 33.6386 149.282 33.107 150.84 33.107C152.397 33.107 153.662 33.5562 154.635 34.4546C155.609 35.353 156.095 36.7306 156.095 38.5873C156.095 40.429 155.579 41.8814 154.546 42.9445C153.527 43.9927 152.232 44.5168 150.66 44.5168ZM150.817 33.5113C149.694 33.5113 148.758 33.9979 148.01 34.9712C147.261 35.9445 146.887 37.2696 146.887 38.9467C146.887 40.6087 147.239 41.8889 147.942 42.7873C148.661 43.6708 149.582 44.1125 150.705 44.1125C151.828 44.1125 152.764 43.6258 153.512 42.6526C154.261 41.6793 154.635 40.3616 154.635 38.6996C154.635 37.0375 154.276 35.7573 153.557 34.8589C152.854 33.9605 151.94 33.5113 150.817 33.5113ZM169.847 44.0002L170.723 43.9552L170.79 44.1798C170.775 44.1798 170.67 44.2023 170.476 44.2472C170.026 44.352 169.525 44.4045 168.971 44.4045C168.462 44.3745 167.997 44.2921 167.578 44.1574C167.159 44.0077 166.77 43.7082 166.41 43.259C166.051 42.7948 165.871 42.2034 165.871 41.4846V33.6012H164.726L164.905 33.4215L165.894 33.2193L166.073 31.0632L167.331 30.9509V33.1969H170.049V33.6012H167.331V41.1028C167.331 42.2408 167.571 43.0119 168.05 43.4162C168.529 43.8055 169.128 44.0002 169.847 44.0002ZM174.851 28.5027V34.5894C176.812 33.2418 178.587 32.8225 180.174 33.3316C180.533 33.4364 180.84 33.5937 181.095 33.8033C181.364 33.9979 181.596 34.2974 181.791 34.7017C181.986 35.106 182.083 35.5926 182.083 36.1616V43.9777L183.767 44.09C183.767 44.105 183.76 44.2173 183.745 44.4269L179.253 44.4494C179.253 44.3146 179.261 44.2098 179.275 44.1349L180.443 43.9777C180.533 43.9777 180.593 43.9103 180.623 43.7756V36.7456C180.623 36.1616 180.541 35.66 180.376 35.2407C180.226 34.8065 180.047 34.4921 179.837 34.2974C179.627 34.1028 179.38 33.953 179.096 33.8482C178.706 33.6985 178.362 33.6386 178.063 33.6685C177.089 33.6985 176.019 34.0953 174.851 34.8589V43.9777L176.535 44.09C176.535 44.105 176.528 44.2173 176.513 44.4269L172.021 44.4494C172.021 44.3146 172.028 44.2098 172.043 44.1349L173.211 43.9777C173.331 43.9627 173.391 43.8579 173.391 43.6633V28.3904C173.391 28.2257 173.346 28.1434 173.256 28.1434L171.909 28.0984L171.931 27.784C172.74 27.6492 173.354 27.5819 173.773 27.5819C174.192 27.5819 174.477 27.6792 174.626 27.8738C174.776 28.0685 174.851 28.2781 174.851 28.5027ZM185.797 39.2611C185.797 42.4953 187.055 44.1125 189.57 44.1125C190.229 44.1125 190.933 44.0451 191.682 43.9103C192.43 43.7606 192.909 43.6258 193.119 43.506L193.276 43.7306C192.932 43.9552 192.363 44.1424 191.569 44.2921C190.791 44.4419 190.072 44.5168 189.413 44.5168C188.769 44.5168 188.185 44.4494 187.661 44.3146C187.152 44.1798 186.628 43.9403 186.089 43.5959C185.55 43.2515 185.123 42.7125 184.809 41.9788C184.494 41.2451 184.337 40.3467 184.337 39.2836C184.337 37.3071 184.846 35.7948 185.864 34.7466C186.927 33.6536 188.163 33.107 189.57 33.107C190.978 33.107 192.048 33.4963 192.782 34.275C193.531 35.0536 193.905 36.1466 193.905 37.5541C193.905 37.8536 193.883 38.1755 193.838 38.5199H185.819C185.804 38.6846 185.797 38.9317 185.797 39.2611ZM192.58 37.3969C192.58 36.2739 192.333 35.3605 191.839 34.6568C191.345 33.9381 190.671 33.5787 189.817 33.5787C188.709 33.5787 187.773 34.0653 187.01 35.0386C186.396 35.8022 186.014 36.8204 185.864 38.0932H192.557C192.572 37.9285 192.58 37.6964 192.58 37.3969ZM221.681 33.1969C221.681 33.2118 221.689 33.3241 221.704 33.5338L220.401 33.6685L219.592 33.8482L215.572 44.4269H214.224L211.597 35.5327L208.564 44.4269H207.217L203.713 33.9381C203.623 33.7733 203.511 33.6835 203.376 33.6685L202.208 33.5562C202.193 33.4664 202.186 33.3541 202.186 33.2193L206.902 33.1969C206.902 33.2118 206.91 33.3241 206.925 33.5338L205.308 33.6461L208.34 43.7082L211.619 33.3092L212.383 33.1969L215.235 44.0675L218.761 34.0054C218.806 33.9156 218.784 33.8407 218.694 33.7808C218.604 33.7209 218.499 33.6835 218.38 33.6685L217.212 33.5562C217.197 33.4664 217.189 33.3541 217.189 33.2193L221.681 33.1969ZM229.072 43.5734H229.005C227.657 44.2023 226.347 44.5168 225.074 44.5168C223.083 44.5168 222.027 43.7306 221.907 42.1584C221.892 42.0536 221.885 41.9563 221.885 41.8665C221.885 40.7135 222.641 39.9424 224.153 39.5531C225.052 39.3584 226.669 39.1263 229.005 38.8568V36.8803C229.005 36.2514 228.93 35.7124 228.78 35.2632C228.63 34.814 228.466 34.4846 228.286 34.275C228.106 34.0504 227.874 33.8782 227.59 33.7584C227.23 33.6086 226.826 33.5338 226.377 33.5338C225.943 33.5338 225.441 33.6461 224.872 33.8707C224.049 34.2151 223.315 34.6493 222.671 35.1734L222.581 36.9252L222.154 37.0375V34.3199L222.379 34.23C223.547 33.7209 224.438 33.414 225.052 33.3092C225.666 33.2044 226.115 33.152 226.399 33.152C226.684 33.137 226.953 33.137 227.208 33.152C227.477 33.1669 227.822 33.2343 228.241 33.3541C228.66 33.4739 229.02 33.6461 229.319 33.8707C229.634 34.0803 229.903 34.4022 230.128 34.8365C230.352 35.2707 230.465 35.7873 230.465 36.3862V43.259C230.465 43.7232 230.584 43.9552 230.824 43.9552L232.194 44.0226L232.172 44.3595C231.333 44.4793 230.584 44.5392 229.926 44.5392C229.746 44.5242 229.559 44.4344 229.364 44.2697C229.169 44.09 229.072 43.8579 229.072 43.5734ZM225.478 44.1574C226.587 44.1574 227.762 43.7681 229.005 42.9895V39.2836C226.759 39.3584 225.344 39.4932 224.76 39.6878C224.191 39.8675 223.794 40.1595 223.569 40.5638C223.36 40.9531 223.255 41.3424 223.255 41.7317C223.255 41.8066 223.255 41.8814 223.255 41.9563C223.3 42.7349 223.532 43.2964 223.951 43.6408C224.37 43.9852 224.88 44.1574 225.478 44.1574ZM236.046 34.1177V43.9777L237.73 44.09C237.73 44.105 237.723 44.2173 237.708 44.4269L233.216 44.4494C233.216 44.3146 233.223 44.2098 233.238 44.1349L234.406 43.9777C234.496 43.9777 234.556 43.9103 234.586 43.7756V33.9156C234.556 33.8108 234.511 33.7584 234.451 33.7584L233.104 33.7135L233.126 33.399C233.935 33.2643 234.548 33.1969 234.968 33.1969C235.387 33.1969 235.671 33.2942 235.821 33.4889C235.971 33.6835 236.046 33.8931 236.046 34.1177ZM235.282 30.1872C234.983 30.1872 234.751 30.0974 234.586 29.9177C234.421 29.723 234.339 29.476 234.339 29.1765C234.339 28.8621 234.421 28.615 234.586 28.4353C234.766 28.2407 235.005 28.1434 235.305 28.1434C235.604 28.1434 235.844 28.2407 236.023 28.4353C236.218 28.615 236.315 28.8696 236.315 29.199C236.315 29.5134 236.218 29.7605 236.023 29.9402C235.829 30.1049 235.582 30.1872 235.282 30.1872ZM243.544 44.0002L244.42 43.9552L244.487 44.1798C244.472 44.1798 244.367 44.2023 244.173 44.2472C243.723 44.352 243.222 44.4045 242.668 44.4045C242.159 44.3745 241.695 44.2921 241.275 44.1574C240.856 44.0077 240.467 43.7082 240.107 43.259C239.748 42.7948 239.568 42.2034 239.568 41.4846V33.6012H238.423L238.603 33.4215L239.591 33.2193L239.77 31.0632L241.028 30.9509V33.1969H243.746V33.6012H241.028V41.1028C241.028 42.2408 241.268 43.0119 241.747 43.4162C242.226 43.8055 242.825 44.0002 243.544 44.0002ZM246.86 39.2611C246.86 42.4953 248.118 44.1125 250.634 44.1125C251.292 44.1125 251.996 44.0451 252.745 43.9103C253.494 43.7606 253.973 43.6258 254.182 43.506L254.34 43.7306C253.995 43.9552 253.426 44.1424 252.633 44.2921C251.854 44.4419 251.135 44.5168 250.476 44.5168C249.833 44.5168 249.249 44.4494 248.725 44.3146C248.215 44.1798 247.691 43.9403 247.152 43.5959C246.613 43.2515 246.187 42.7125 245.872 41.9788C245.558 41.2451 245.4 40.3467 245.4 39.2836C245.4 37.3071 245.91 35.7948 246.928 34.7466C247.991 33.6536 249.226 33.107 250.634 33.107C252.041 33.107 253.112 33.4963 253.845 34.275C254.594 35.0536 254.968 36.1466 254.968 37.5541C254.968 37.8536 254.946 38.1755 254.901 38.5199H246.883C246.868 38.6846 246.86 38.9317 246.86 39.2611ZM253.643 37.3969C253.643 36.2739 253.396 35.3605 252.902 34.6568C252.408 33.9381 251.734 33.5787 250.881 33.5787C249.773 33.5787 248.837 34.0653 248.073 35.0386C247.459 35.8022 247.077 36.8204 246.928 38.0932H253.621C253.636 37.9285 253.643 37.6964 253.643 37.3969ZM259.378 34.1177V35.9145C260.561 34.1776 261.721 33.2942 262.859 33.2643C262.949 33.2643 263.039 33.2643 263.129 33.2643L264.387 33.4215L263.803 34.7691C263.518 34.4846 263.151 34.3423 262.702 34.3423C261.609 34.3573 260.501 35.0835 259.378 36.521V43.9777L261.287 44.09C261.287 44.105 261.28 44.2173 261.265 44.4269L256.548 44.4494C256.548 44.3146 256.555 44.2098 256.57 44.1349L257.738 43.9777C257.858 43.9627 257.918 43.8579 257.918 43.6633V33.9156C257.888 33.8108 257.843 33.7584 257.783 33.7584L256.436 33.7135L256.458 33.399C257.267 33.2643 257.881 33.1969 258.3 33.1969C258.719 33.1969 259.004 33.2942 259.153 33.4889C259.303 33.6835 259.378 33.8931 259.378 34.1177ZM20.2643 60.1969C20.2643 60.2118 20.2718 60.3241 20.2867 60.5338L18.984 60.6685L18.1755 60.8482L14.1551 71.4269H12.8075L10.1797 62.5327L7.14758 71.4269H5.79998L2.29621 60.9381C2.20637 60.7733 2.09407 60.6835 1.95931 60.6685L0.791381 60.5562C0.776408 60.4664 0.768921 60.3541 0.768921 60.2193L5.48554 60.1969C5.48554 60.2118 5.49302 60.3241 5.508 60.5338L3.89087 60.6461L6.92298 70.7082L10.2022 60.3092L10.9658 60.1969L13.8182 71.0675L17.3445 61.0054C17.3894 60.9156 17.3669 60.8407 17.2771 60.7808C17.1872 60.7209 17.0824 60.6835 16.9626 60.6685L15.7947 60.5562C15.7797 60.4664 15.7723 60.3541 15.7723 60.2193L20.2643 60.1969ZM23.1795 55.5027V61.5894C25.141 60.2418 26.9154 59.8225 28.5026 60.3316C28.8619 60.4364 29.1689 60.5937 29.4234 60.8033C29.6929 60.9979 29.925 61.2974 30.1197 61.7017C30.3143 62.106 30.4117 62.5926 30.4117 63.1616V70.9777L32.0962 71.09C32.0962 71.105 32.0887 71.2173 32.0737 71.4269L27.5817 71.4494C27.5817 71.3146 27.5892 71.2098 27.6042 71.1349L28.7721 70.9777C28.8619 70.9777 28.9218 70.9103 28.9518 70.7756V63.7456C28.9518 63.1616 28.8694 62.66 28.7047 62.2407C28.555 61.8065 28.3753 61.4921 28.1657 61.2974C27.956 61.1028 27.709 60.953 27.4245 60.8482C27.0352 60.6985 26.6908 60.6386 26.3913 60.6685C25.418 60.6985 24.3474 61.0953 23.1795 61.8589V70.9777L24.864 71.09C24.864 71.105 24.8565 71.2173 24.8416 71.4269L20.3495 71.4494C20.3495 71.3146 20.357 71.2098 20.372 71.1349L21.5399 70.9777C21.6597 70.9627 21.7196 70.8579 21.7196 70.6633V55.3904C21.7196 55.2257 21.6747 55.1434 21.5849 55.1434L20.2372 55.0984L20.2597 54.784C21.0683 54.6492 21.6822 54.5819 22.1014 54.5819C22.5207 54.5819 22.8052 54.6792 22.9549 54.8738C23.1046 55.0685 23.1795 55.2781 23.1795 55.5027ZM34.1256 66.2611C34.1256 69.4953 35.3834 71.1125 37.8989 71.1125C38.5578 71.1125 39.2615 71.0451 40.0102 70.9103C40.7589 70.7606 41.238 70.6258 41.4476 70.506L41.6049 70.7306C41.2605 70.9552 40.6915 71.1424 39.8979 71.2921C39.1193 71.4419 38.4005 71.5168 37.7417 71.5168C37.0979 71.5168 36.5139 71.4494 35.9898 71.3146C35.4807 71.1798 34.9567 70.9403 34.4176 70.5959C33.8786 70.2515 33.4518 69.7125 33.1374 68.9788C32.823 68.2451 32.6657 67.3467 32.6657 66.2836C32.6657 64.3071 33.1748 62.7948 34.193 61.7466C35.2561 60.6536 36.4914 60.107 37.8989 60.107C39.3064 60.107 40.377 60.4963 41.1107 61.275C41.8594 62.0536 42.2337 63.1466 42.2337 64.5541C42.2337 64.8536 42.2113 65.1755 42.1664 65.5199H34.1481C34.1331 65.6846 34.1256 65.9317 34.1256 66.2611ZM40.9086 64.3969C40.9086 63.2739 40.6615 62.3605 40.1674 61.6568C39.6733 60.9381 38.9995 60.5787 38.146 60.5787C37.038 60.5787 36.1021 61.0653 35.3385 62.0386C34.7246 62.8022 34.3428 63.8204 34.193 65.0932H40.8861C40.9011 64.9285 40.9086 64.6964 40.9086 64.3969ZM43.8133 71.4494L43.8358 71.1349L45.0037 70.9777C45.1385 70.9627 45.2058 70.8579 45.2058 70.6633V60.9381C45.1759 60.8183 45.131 60.7584 45.0711 60.7584L43.701 60.7135L43.7235 60.399C44.6668 60.2643 45.3032 60.1969 45.6326 60.1969C46.2315 60.1969 46.5684 60.4589 46.6433 60.983H46.6657V61.4546C47.8936 60.6161 49.069 60.1744 50.192 60.1295C51.285 60.1295 52.116 60.3466 52.685 60.7808C52.9396 60.9755 53.1642 61.2824 53.3588 61.7017C53.5685 62.106 53.6733 62.5926 53.6733 63.1616V70.9777L55.3578 71.09C55.3578 71.105 55.3503 71.2173 55.3353 71.4269L50.8433 71.4494C50.8433 71.3146 50.8508 71.2098 50.8658 71.1349L52.0337 70.9777C52.1535 70.9627 52.2134 70.8579 52.2134 70.6633V63.7231C52.2134 63.1242 52.131 62.6151 51.9663 62.1958C51.8166 61.7766 51.6444 61.4696 51.4497 61.275C51.2551 61.0803 51.0155 60.9306 50.731 60.8258C50.4016 60.706 50.0572 60.6461 49.6978 60.6461C48.7994 60.661 47.7887 61.0129 46.6657 61.7017V70.9777L48.3502 71.09C48.3502 71.105 48.3428 71.2173 48.3278 71.4269L43.8133 71.4494ZM64.8968 77.0419L64.9193 76.7275L66.0872 76.5703C66.222 76.5553 66.2894 76.4505 66.2894 76.2558V60.9381C66.2594 60.8183 66.2145 60.7584 66.1546 60.7584L64.7845 60.7135L64.807 60.399C65.7503 60.2643 66.3942 60.1969 66.7386 60.1969C67.0829 60.1969 67.33 60.2867 67.4797 60.4664C67.6295 60.6311 67.7193 60.8183 67.7493 61.0279C68.6926 60.3391 69.6958 59.9947 70.7589 59.9947C71.7771 59.9947 72.7354 60.3092 73.6338 60.9381C74.1129 61.2824 74.4948 61.8215 74.7793 62.5552C75.0787 63.2889 75.2285 64.1798 75.2285 65.2279C75.2285 67.2194 74.7343 68.7167 73.7461 69.7199C72.6231 70.8579 71.1707 71.4269 69.3888 71.4269C68.8648 71.4269 68.3182 71.3895 67.7493 71.3146V76.5703L69.6584 76.6826C69.6434 76.8922 69.6359 77.0045 69.6359 77.0195L64.8968 77.0419ZM67.7493 61.4771V70.8429C68.1835 70.9478 68.6551 71.0002 69.1642 71.0002C70.6316 71.0002 71.7621 70.506 72.5557 69.5178C73.3643 68.5146 73.7686 67.1221 73.7686 65.3402C73.7686 63.3038 73.3643 61.9338 72.5557 61.23C71.9268 60.676 71.2231 60.399 70.4445 60.399C69.6658 60.399 68.7674 60.7584 67.7493 61.4771ZM84.1125 70.5734H84.0451C82.6975 71.2023 81.3873 71.5168 80.1146 71.5168C78.1231 71.5168 77.0675 70.7306 76.9477 69.1584C76.9327 69.0536 76.9253 68.9563 76.9253 68.8665C76.9253 67.7135 77.6814 66.9424 79.1937 66.5531C80.0921 66.3584 81.7092 66.1263 84.0451 65.8568V63.8803C84.0451 63.2514 83.9702 62.7124 83.8205 62.2632C83.6708 61.814 83.5061 61.4846 83.3264 61.275C83.1467 61.0504 82.9146 60.8782 82.6301 60.7584C82.2707 60.6086 81.8665 60.5338 81.4173 60.5338C80.983 60.5338 80.4814 60.6461 79.9124 60.8707C79.0889 61.2151 78.3552 61.6493 77.7114 62.1734L77.6215 63.9252L77.1948 64.0375V61.3199L77.4194 61.23C78.5873 60.7209 79.4782 60.414 80.0921 60.3092C80.706 60.2044 81.1552 60.152 81.4397 60.152C81.7242 60.137 81.9937 60.137 82.2483 60.152C82.5178 60.1669 82.8622 60.2343 83.2815 60.3541C83.7007 60.4739 84.0601 60.6461 84.3595 60.8707C84.674 61.0803 84.9435 61.4022 85.1681 61.8365C85.3927 62.2707 85.505 62.7873 85.505 63.3862V70.259C85.505 70.7232 85.6248 70.9552 85.8644 70.9552L87.2344 71.0226L87.212 71.3595C86.3735 71.4793 85.6248 71.5392 84.966 71.5392C84.7863 71.5242 84.5991 71.4344 84.4045 71.2697C84.2098 71.09 84.1125 70.8579 84.1125 70.5734ZM80.5189 71.1574C81.6269 71.1574 82.8023 70.7681 84.0451 69.9895V66.2836C81.7991 66.3584 80.3841 66.4932 79.8001 66.6878C79.2312 66.8675 78.8344 67.1595 78.6098 67.5638C78.4001 67.9531 78.2953 68.3424 78.2953 68.7317C78.2953 68.8066 78.2953 68.8814 78.2953 68.9563C78.3402 69.7349 78.5723 70.2964 78.9916 70.6408C79.4108 70.9852 79.9199 71.1574 80.5189 71.1574ZM90.0881 77.0419L90.0432 76.7275L92.132 76.458C92.2368 76.443 92.3041 76.3382 92.3341 76.1435L93.0753 71.4269H92.3341L88.5833 60.983L88.5608 60.9605C88.4859 60.7808 88.3661 60.676 88.2014 60.6461L87.1907 60.5562C87.1758 60.4664 87.1683 60.3541 87.1683 60.2193L91.8849 60.1969C91.8849 60.2118 91.8924 60.3241 91.9074 60.5338L90.1555 60.6685L93.4796 70.8429L97.6571 60.9605C97.7021 60.8707 97.6721 60.7958 97.5673 60.7359C97.4775 60.676 97.3801 60.6386 97.2753 60.6236L96.2871 60.5562C96.2721 60.4664 96.2646 60.3541 96.2646 60.2193L100.375 60.1969C100.375 60.2118 100.382 60.3241 100.397 60.5338L98.3983 60.7359L93.6817 71.4269L92.8282 76.5703L94.7822 76.6826C94.8122 76.8922 94.8272 77.0045 94.8272 77.0195L90.0881 77.0419ZM103.983 61.1177V70.9777L105.668 71.09C105.668 71.105 105.66 71.2173 105.645 71.4269L101.153 71.4494C101.153 71.3146 101.161 71.2098 101.176 71.1349L102.344 70.9777C102.433 70.9777 102.493 70.9103 102.523 70.7756V60.9156C102.493 60.8108 102.448 60.7584 102.388 60.7584L101.041 60.7135L101.063 60.399C101.872 60.2643 102.486 60.1969 102.905 60.1969C103.324 60.1969 103.609 60.2942 103.759 60.4889C103.908 60.6835 103.983 60.8931 103.983 61.1177ZM103.22 57.1872C102.92 57.1872 102.688 57.0974 102.523 56.9177C102.359 56.723 102.276 56.476 102.276 56.1765C102.276 55.8621 102.359 55.615 102.523 55.4353C102.703 55.2407 102.943 55.1434 103.242 55.1434C103.541 55.1434 103.781 55.2407 103.961 55.4353C104.155 55.615 104.253 55.8696 104.253 56.199C104.253 56.5134 104.155 56.7605 103.961 56.9402C103.766 57.1049 103.519 57.1872 103.22 57.1872ZM107.136 71.4494L107.158 71.1349L108.326 70.9777C108.461 70.9627 108.528 70.8579 108.528 70.6633V60.9381C108.498 60.8183 108.453 60.7584 108.394 60.7584L107.024 60.7135L107.046 60.399C107.989 60.2643 108.626 60.1969 108.955 60.1969C109.554 60.1969 109.891 60.4589 109.966 60.983H109.988V61.4546C111.216 60.6161 112.391 60.1744 113.514 60.1295C114.608 60.1295 115.439 60.3466 116.008 60.7808C116.262 60.9755 116.487 61.2824 116.681 61.7017C116.891 62.106 116.996 62.5926 116.996 63.1616V70.9777L118.68 71.09C118.68 71.105 118.673 71.2173 118.658 71.4269L114.166 71.4494C114.166 71.3146 114.173 71.2098 114.188 71.1349L115.356 70.9777C115.476 70.9627 115.536 70.8579 115.536 70.6633V63.7231C115.536 63.1242 115.454 62.6151 115.289 62.1958C115.139 61.7766 114.967 61.4696 114.772 61.275C114.578 61.0803 114.338 60.9306 114.054 60.8258C113.724 60.706 113.38 60.6461 113.02 60.6461C112.122 60.661 111.111 61.0129 109.988 61.7017V70.9777L111.673 71.09C111.673 71.105 111.665 71.2173 111.65 71.4269L107.136 71.4494ZM119.302 73.7403C119.302 72.3328 120.155 71.1274 121.862 70.1242C121.128 69.7199 120.762 69.2108 120.762 68.5969C120.762 67.9681 121.061 67.4814 121.66 67.137C120.492 66.613 119.908 65.5049 119.908 63.8129C119.908 62.66 120.342 61.7541 121.211 61.0953C122.079 60.4364 123.187 60.107 124.535 60.107C125.164 60.107 125.763 60.1819 126.332 60.3316L130.082 60.107L130.038 60.9605L127.365 60.8033C128.338 61.4322 128.825 62.383 128.825 63.6557C128.825 64.9285 128.413 65.9017 127.589 66.5755C126.766 67.2493 125.703 67.5862 124.4 67.5862C123.532 67.5862 122.82 67.5114 122.266 67.3616C122.012 67.6461 121.885 67.9755 121.885 68.3499C121.885 69.0237 122.154 69.5103 122.693 69.8098C123.277 70.1542 124.31 70.4536 125.793 70.7082C126.137 70.7681 126.384 70.8205 126.534 70.8654C126.698 70.8954 126.931 70.9403 127.23 71.0002C127.53 71.0601 127.754 71.12 127.904 71.1798C128.054 71.2248 128.241 71.2996 128.465 71.4045C128.705 71.4943 128.885 71.5841 129.004 71.674C129.124 71.7638 129.259 71.8761 129.409 72.0109C129.558 72.1456 129.671 72.2954 129.746 72.4601C129.91 72.8494 129.993 73.2986 129.993 73.8077C129.993 74.3317 129.835 74.8259 129.521 75.29C129.207 75.7542 128.772 76.1061 128.218 76.3457C127.14 76.8098 125.905 77.0419 124.512 77.0419C122.671 77.0419 121.338 76.7125 120.514 76.0537C119.706 75.4098 119.302 74.6387 119.302 73.7403ZM122.221 70.3039C121.248 71.367 120.762 72.4077 120.762 73.4259C120.762 74.444 121.054 75.2302 121.637 75.7842C122.236 76.3532 123.142 76.6376 124.355 76.6376C125.568 76.6376 126.564 76.4056 127.342 75.9414C128.136 75.4772 128.533 74.736 128.533 73.7178C128.533 72.9093 128.278 72.3178 127.769 71.9435C127.275 71.5692 126.571 71.2921 125.658 71.1125C123.816 70.7681 122.671 70.4986 122.221 70.3039ZM124.467 60.399C123.539 60.399 122.79 60.691 122.221 61.275C121.652 61.8439 121.368 62.7049 121.368 63.8579C121.368 65.0108 121.585 65.8718 122.019 66.4408C122.454 67.0098 123.157 67.2943 124.131 67.2943C125.119 67.2943 125.89 66.9723 126.444 66.3285C127.013 65.6696 127.297 64.7862 127.297 63.6782C127.297 61.4921 126.354 60.399 124.467 60.399ZM138.581 71.4494L138.603 71.1349L139.771 70.9777C139.906 70.9627 139.973 70.8579 139.973 70.6633V60.6012H138.828L139.008 60.4215L139.973 60.2193V57.4792C139.973 56.446 140.31 55.7049 140.984 55.2557C141.658 54.7915 142.444 54.5594 143.342 54.5594C143.941 54.5594 144.45 54.6417 144.87 54.8065L144.802 54.9637C144.443 54.9188 144.128 54.8963 143.859 54.8963C143.604 54.8963 143.35 54.9337 143.095 55.0086C142.856 55.0835 142.601 55.2182 142.332 55.4129C141.733 55.8471 141.433 56.7081 141.433 57.9958V60.1969H144.151V60.6012H141.433V70.9777L143.342 71.09C143.342 71.105 143.335 71.2173 143.32 71.4269L138.581 71.4494ZM151.099 71.5168C149.541 71.5168 148.276 71.0675 147.303 70.1691C146.345 69.2707 145.865 67.9007 145.865 66.059C145.865 64.2023 146.375 62.7498 147.393 61.7017C148.426 60.6386 149.721 60.107 151.278 60.107C152.836 60.107 154.101 60.5562 155.074 61.4546C156.047 62.353 156.534 63.7306 156.534 65.5873C156.534 67.429 156.017 68.8814 154.984 69.9445C153.966 70.9927 152.671 71.5168 151.099 71.5168ZM151.256 60.5113C150.133 60.5113 149.197 60.9979 148.448 61.9712C147.7 62.9445 147.325 64.2696 147.325 65.9467C147.325 67.6087 147.677 68.8889 148.381 69.7873C149.1 70.6708 150.021 71.1125 151.144 71.1125C152.267 71.1125 153.202 70.6258 153.951 69.6526C154.7 68.6793 155.074 67.3616 155.074 65.6996C155.074 64.0375 154.715 62.7573 153.996 61.8589C153.292 60.9605 152.379 60.5113 151.256 60.5113ZM160.72 61.1177V62.9145C161.903 61.1776 163.064 60.2942 164.202 60.2643C164.291 60.2643 164.381 60.2643 164.471 60.2643L165.729 60.4215L165.145 61.7691C164.86 61.4846 164.494 61.3423 164.044 61.3423C162.951 61.3573 161.843 62.0835 160.72 63.521V70.9777L162.629 71.09C162.629 71.105 162.622 71.2173 162.607 71.4269L157.89 71.4494C157.89 71.3146 157.898 71.2098 157.913 71.1349L159.081 70.9777C159.2 70.9627 159.26 70.8579 159.26 70.6633V60.9156C159.23 60.8108 159.186 60.7584 159.126 60.7584L157.778 60.7135L157.8 60.399C158.609 60.2643 159.223 60.1969 159.642 60.1969C160.061 60.1969 160.346 60.2942 160.496 60.4889C160.645 60.6835 160.72 60.8931 160.72 61.1177ZM179.366 71.0002L180.242 70.9552L180.309 71.1798C180.294 71.1798 180.189 71.2023 179.995 71.2472C179.546 71.352 179.044 71.4045 178.49 71.4045C177.981 71.3745 177.517 71.2921 177.097 71.1574C176.678 71.0077 176.289 70.7082 175.929 70.259C175.57 69.7948 175.39 69.2034 175.39 68.4846V60.6012H174.245L174.425 60.4215L175.413 60.2193L175.593 58.0632L176.85 57.9509V60.1969H179.568V60.6012H176.85V68.1028C176.85 69.2408 177.09 70.0119 177.569 70.4162C178.048 70.8055 178.647 71.0002 179.366 71.0002ZM184.37 55.5027V61.5894C186.332 60.2418 188.106 59.8225 189.693 60.3316C190.052 60.4364 190.359 60.5937 190.614 60.8033C190.883 60.9979 191.116 61.2974 191.31 61.7017C191.505 62.106 191.602 62.5926 191.602 63.1616V70.9777L193.287 71.09C193.287 71.105 193.279 71.2173 193.264 71.4269L188.772 71.4494C188.772 71.3146 188.78 71.2098 188.795 71.1349L189.963 70.9777C190.052 70.9777 190.112 70.9103 190.142 70.7756V63.7456C190.142 63.1616 190.06 62.66 189.895 62.2407C189.745 61.8065 189.566 61.4921 189.356 61.2974C189.147 61.1028 188.899 60.953 188.615 60.8482C188.226 60.6985 187.881 60.6386 187.582 60.6685C186.609 60.6985 185.538 61.0953 184.37 61.8589V70.9777L186.055 71.09C186.055 71.105 186.047 71.2173 186.032 71.4269L181.54 71.4494C181.54 71.3146 181.548 71.2098 181.563 71.1349L182.73 70.9777C182.85 70.9627 182.91 70.8579 182.91 70.6633V55.3904C182.91 55.2257 182.865 55.1434 182.775 55.1434L181.428 55.0984L181.45 54.784C182.259 54.6492 182.873 54.5819 183.292 54.5819C183.711 54.5819 183.996 54.6792 184.145 54.8738C184.295 55.0685 184.37 55.2781 184.37 55.5027ZM195.316 66.2611C195.316 69.4953 196.574 71.1125 199.089 71.1125C199.748 71.1125 200.452 71.0451 201.201 70.9103C201.949 70.7606 202.429 70.6258 202.638 70.506L202.795 70.7306C202.451 70.9552 201.882 71.1424 201.088 71.2921C200.31 71.4419 199.591 71.5168 198.932 71.5168C198.288 71.5168 197.704 71.4494 197.18 71.3146C196.671 71.1798 196.147 70.9403 195.608 70.5959C195.069 70.2515 194.642 69.7125 194.328 68.9788C194.013 68.2451 193.856 67.3467 193.856 66.2836C193.856 64.3071 194.365 62.7948 195.384 61.7466C196.447 60.6536 197.682 60.107 199.089 60.107C200.497 60.107 201.568 60.4963 202.301 61.275C203.05 62.0536 203.424 63.1466 203.424 64.5541C203.424 64.8536 203.402 65.1755 203.357 65.5199H195.339C195.324 65.6846 195.316 65.9317 195.316 66.2611ZM202.099 64.3969C202.099 63.2739 201.852 62.3605 201.358 61.6568C200.864 60.9381 200.19 60.5787 199.337 60.5787C198.228 60.5787 197.293 61.0653 196.529 62.0386C195.915 62.8022 195.533 63.8204 195.384 65.0932H202.077C202.092 64.9285 202.099 64.6964 202.099 64.3969ZM217.163 71.5168C215.606 71.5168 214.34 71.0675 213.367 70.1691C212.409 69.2707 211.93 67.9007 211.93 66.059C211.93 64.2023 212.439 62.7498 213.457 61.7017C214.49 60.6386 215.785 60.107 217.342 60.107C218.9 60.107 220.165 60.5562 221.138 61.4546C222.112 62.353 222.598 63.7306 222.598 65.5873C222.598 67.429 222.082 68.8814 221.048 69.9445C220.03 70.9927 218.735 71.5168 217.163 71.5168ZM217.32 60.5113C216.197 60.5113 215.261 60.9979 214.513 61.9712C213.764 62.9445 213.39 64.2696 213.39 65.9467C213.39 67.6087 213.741 68.8889 214.445 69.7873C215.164 70.6708 216.085 71.1125 217.208 71.1125C218.331 71.1125 219.267 70.6258 220.015 69.6526C220.764 68.6793 221.138 67.3616 221.138 65.6996C221.138 64.0375 220.779 62.7573 220.06 61.8589C219.356 60.9605 218.443 60.5113 217.32 60.5113ZM226.784 61.1177V62.9145C227.967 61.1776 229.128 60.2942 230.266 60.2643C230.356 60.2643 230.445 60.2643 230.535 60.2643L231.793 60.4215L231.209 61.7691C230.925 61.4846 230.558 61.3423 230.109 61.3423C229.016 61.3573 227.908 62.0835 226.784 63.521V70.9777L228.694 71.09C228.694 71.105 228.686 71.2173 228.671 71.4269L223.955 71.4494C223.955 71.3146 223.962 71.2098 223.977 71.1349L225.145 70.9777C225.265 70.9627 225.325 70.8579 225.325 70.6633V60.9156C225.295 60.8108 225.25 60.7584 225.19 60.7584L223.842 60.7135L223.865 60.399C224.673 60.2643 225.287 60.1969 225.706 60.1969C226.126 60.1969 226.41 60.2942 226.56 60.4889C226.71 60.6835 226.784 60.8931 226.784 61.1177ZM241.667 55.5027V70.259C241.667 70.7232 241.787 70.9552 242.026 70.9552L243.374 71.0226L243.352 71.3595C242.633 71.4793 241.884 71.5392 241.106 71.5392C240.941 71.5242 240.761 71.4419 240.567 71.2921C240.387 71.1424 240.282 70.9478 240.252 70.7082C239.399 71.2472 238.41 71.5168 237.287 71.5168C236.194 71.5168 235.184 71.2098 234.255 70.5959C233.731 70.2515 233.304 69.7125 232.975 68.9788C232.661 68.2301 232.503 67.3242 232.503 66.2611C232.503 64.2996 233.005 62.8022 234.008 61.7691C235.071 60.661 236.284 60.107 237.647 60.107C238.485 60.107 239.339 60.3241 240.207 60.7584V55.3904C240.207 55.2257 240.162 55.1434 240.072 55.1434L238.702 55.0984L238.725 54.784C239.668 54.6492 240.312 54.5819 240.656 54.5819C241.016 54.5819 241.27 54.6792 241.42 54.8738C241.585 55.0685 241.667 55.2781 241.667 55.5027ZM237.579 71.1125C238.493 71.1125 239.369 70.9103 240.207 70.506V61.1177C239.548 60.7135 238.897 60.5113 238.253 60.5113C236.965 60.5113 235.925 61.0054 235.131 61.9937C234.353 62.9819 233.963 64.3969 233.963 66.2386C233.963 69.4879 235.169 71.1125 237.579 71.1125ZM246.97 66.2611C246.97 69.4953 248.228 71.1125 250.743 71.1125C251.402 71.1125 252.106 71.0451 252.855 70.9103C253.603 70.7606 254.082 70.6258 254.292 70.506L254.449 70.7306C254.105 70.9552 253.536 71.1424 252.742 71.2921C251.964 71.4419 251.245 71.5168 250.586 71.5168C249.942 71.5168 249.358 71.4494 248.834 71.3146C248.325 71.1798 247.801 70.9403 247.262 70.5959C246.723 70.2515 246.296 69.7125 245.982 68.9788C245.667 68.2451 245.51 67.3467 245.51 66.2836C245.51 64.3071 246.019 62.7948 247.037 61.7466C248.1 60.6536 249.336 60.107 250.743 60.107C252.151 60.107 253.221 60.4963 253.955 61.275C254.704 62.0536 255.078 63.1466 255.078 64.5541C255.078 64.8536 255.056 65.1755 255.011 65.5199H246.992C246.977 65.6846 246.97 65.9317 246.97 66.2611ZM253.753 64.3969C253.753 63.2739 253.506 62.3605 253.012 61.6568C252.518 60.9381 251.844 60.5787 250.99 60.5787C249.882 60.5787 248.946 61.0653 248.183 62.0386C247.569 62.8022 247.187 63.8204 247.037 65.0932H253.73C253.745 64.9285 253.753 64.6964 253.753 64.3969ZM259.488 61.1177V62.9145C260.671 61.1776 261.831 60.2942 262.969 60.2643C263.059 60.2643 263.149 60.2643 263.238 60.2643L264.496 60.4215L263.912 61.7691C263.628 61.4846 263.261 61.3423 262.812 61.3423C261.719 61.3573 260.611 62.0835 259.488 63.521V70.9777L261.397 71.09C261.397 71.105 261.389 71.2173 261.374 71.4269L256.658 71.4494C256.658 71.3146 256.665 71.2098 256.68 71.1349L257.848 70.9777C257.968 70.9627 258.028 70.8579 258.028 70.6633V60.9156C257.998 60.8108 257.953 60.7584 257.893 60.7584L256.545 60.7135L256.568 60.399C257.376 60.2643 257.99 60.1969 258.41 60.1969C258.829 60.1969 259.113 60.2942 259.263 60.4889C259.413 60.6835 259.488 60.8931 259.488 61.1177ZM267.177 70.7756C267.177 70.4911 267.244 70.2665 267.379 70.1018C267.528 69.9371 267.723 69.8547 267.963 69.8547C268.487 69.8547 268.749 70.1617 268.749 70.7756C268.749 71.0301 268.674 71.2323 268.524 71.382C268.374 71.5317 268.187 71.6066 267.963 71.6066C267.439 71.6066 267.177 71.3296 267.177 70.7756ZM267.177 61.7242C267.177 61.4397 267.244 61.2151 267.379 61.0504C267.528 60.8856 267.723 60.8033 267.963 60.8033C268.487 60.8033 268.749 61.1102 268.749 61.7242C268.749 61.9787 268.674 62.1808 268.524 62.3306C268.374 62.4803 268.187 62.5552 267.963 62.5552C267.439 62.5552 267.177 62.2782 267.177 61.7242Z" fill="white"/>
</svg>
