<svg width="23" height="21" viewBox="0 0 23 21" fill="none" xmlns="http://www.w3.org/2000/svg">
<path d="M7.37012 18.9555V19.2055H7.62012H19.8465H20.0965V18.9555V16.5102V16.2602H19.8465H7.62012H7.37012V16.5102V18.9555ZM7.37012 11.8697H7.62012H14.9559H15.2059V11.6197V9.17441V8.92441H14.9559H7.62012H7.37012V9.17441V11.6197V11.8697ZM7.62012 1.58861H7.37012V1.83861V4.28388V4.53388H7.62012H22.2917H22.5417V4.28388V1.83861V1.58861H22.2917H7.62012ZM1.25668 11.8722L1.4334 11.6953L1.25668 11.8722C1.45031 12.0657 1.68016 12.2191 1.93311 12.3238C2.18605 12.4285 2.45714 12.4823 2.73089 12.4822C3.28375 12.482 3.81389 12.2622 4.20469 11.8712C4.59549 11.4801 4.81494 10.9498 4.81476 10.397C4.81457 9.8441 4.59477 9.31396 4.20371 8.92316C3.81265 8.53236 3.28236 8.31291 2.7295 8.3131C2.45575 8.31319 2.1847 8.3672 1.93183 8.47204C1.67895 8.57688 1.4492 8.7305 1.2557 8.92414C1.06219 9.11777 0.90872 9.34762 0.804046 9.60057C0.699371 9.85352 0.645543 10.1246 0.645634 10.3984C0.645725 10.6721 0.699734 10.9431 0.804577 11.196C0.909421 11.4489 1.06304 11.6786 1.25668 11.8722ZM2.7295 0.977295C2.45575 0.977386 2.1847 1.0314 1.93183 1.13624C1.67895 1.24108 1.4492 1.39471 1.2557 1.58834C1.06219 1.78197 0.908721 2.01183 0.804046 2.26477C0.699371 2.51772 0.645543 2.7888 0.645634 3.06255C0.645725 3.3363 0.699734 3.60735 0.804577 3.86023C0.909421 4.1131 1.06305 4.34285 1.25668 4.53636C1.45031 4.72986 1.68016 4.88333 1.93311 4.98801C2.18606 5.09268 2.45714 5.14651 2.73089 5.14642C3.28375 5.14623 3.81389 4.92643 4.20469 4.53537C4.59549 4.14431 4.81494 3.61402 4.81476 3.06116C4.81457 2.5083 4.59477 1.97816 4.20371 1.58736C3.81265 1.19656 3.28236 0.977111 2.7295 0.977295ZM2.7295 15.6489C2.45575 15.649 2.1847 15.703 1.93183 15.8078C1.67895 15.9127 1.4492 16.0663 1.2557 16.2599C1.06219 16.4536 0.90872 16.6834 0.804046 16.9364C0.699371 17.1893 0.645543 17.4604 0.645634 17.7342C0.645725 18.0079 0.699734 18.2789 0.804578 18.5318C0.909421 18.7847 1.06305 19.0145 1.25668 19.208C1.45031 19.4015 1.68016 19.5549 1.93311 19.6596C2.18606 19.7643 2.45714 19.8181 2.73089 19.818C3.28375 19.8178 3.81389 19.598 4.20469 19.207C4.59549 18.8159 4.81494 18.2856 4.81476 17.7328C4.81457 17.1799 4.59477 16.6498 4.20371 16.259C3.81265 15.8682 3.28236 15.6487 2.7295 15.6489Z" fill="white" stroke="white" stroke-width="0.5"/>
</svg>
