<svg width="15" height="15" viewBox="0 0 15 15" fill="none" xmlns="http://www.w3.org/2000/svg">
<path d="M14.0312 0.671875H4.53125C4.45251 0.671875 4.377 0.703153 4.32133 0.758828C4.26565 0.814503 4.23438 0.890014 4.23438 0.96875V4.23438H0.96875C0.890014 4.23438 0.814503 4.26565 0.758828 4.32133C0.703153 4.377 0.671875 4.45251 0.671875 4.53125V14.0312C0.671875 14.11 0.703153 14.1855 0.758828 14.2412C0.814503 14.2968 0.890014 14.3281 0.96875 14.3281H10.4688C10.5475 14.3281 10.623 14.2968 10.6787 14.2412C10.7343 14.1855 10.7656 14.11 10.7656 14.0312V10.7656H14.0312C14.11 10.7656 14.1855 10.7343 14.2412 10.6787C14.2968 10.623 14.3281 10.5475 14.3281 10.4688V0.96875C14.3281 0.890014 14.2968 0.814503 14.2412 0.758828C14.1855 0.703153 14.11 0.671875 14.0312 0.671875ZM10.1719 13.7344H1.26562V4.82812H10.1719V13.7344ZM13.7344 10.1719H10.7656V4.53125C10.7656 4.45251 10.7343 4.377 10.6787 4.32133C10.623 4.26565 10.5475 4.23438 10.4688 4.23438H4.82812V1.26562H13.7344V10.1719Z" fill="white"/>
</svg>
