<svg width="100" height="31" viewBox="0 0 100 31" fill="none" xmlns="http://www.w3.org/2000/svg">
<rect x="0.845947" y="0.607117" width="98.402" height="29.4234" rx="14.7117" fill="white"/>
<path d="M22.7851 14.5461C22.725 14.2745 22.6231 14.0119 22.4794 13.7585C22.3357 13.5025 22.1516 13.2726 21.9269 13.0688C21.7048 12.8624 21.4436 12.6992 21.1432 12.579C20.8454 12.4588 20.511 12.3987 20.14 12.3987C19.5731 12.3987 19.0702 12.5477 18.6313 12.8455C18.1951 13.1407 17.8528 13.5626 17.6047 14.1112C17.3591 14.6572 17.2363 15.3037 17.2363 16.0509C17.2363 16.7902 17.3591 17.4342 17.6047 17.9828C17.8502 18.5314 18.1938 18.9559 18.6353 19.2563C19.0794 19.5541 19.5953 19.703 20.1831 19.703C20.7082 19.703 21.1732 19.5815 21.5781 19.3386C21.9857 19.0956 22.3031 18.7482 22.5304 18.2962C22.7576 17.8443 22.8687 17.3035 22.8634 16.6739L23.0359 16.7562H20.3085V16.3017H23.3415V16.7562C23.3415 17.4642 23.2057 18.0742 22.934 18.5862C22.6649 19.0956 22.2913 19.4875 21.8132 19.7618C21.3378 20.0361 20.7944 20.1733 20.1831 20.1733C19.4934 20.1733 18.8913 20.0021 18.3766 19.6599C17.862 19.3177 17.4623 18.8383 17.1775 18.2218C16.8954 17.6027 16.7543 16.879 16.7543 16.0509C16.7543 15.4291 16.8353 14.8649 16.9973 14.358C17.1592 13.8512 17.3904 13.4176 17.6909 13.0571C17.9913 12.6939 18.3492 12.4157 18.7646 12.2224C19.1799 12.0265 19.6384 11.9285 20.14 11.9285C20.5946 11.9285 21.0034 12.0043 21.3665 12.1558C21.7296 12.3047 22.0431 12.5059 22.307 12.7593C22.5735 13.01 22.789 13.2909 22.9536 13.6018C23.1181 13.91 23.2292 14.2248 23.2866 14.5461H22.7851ZM25.5624 20.0635V14.0446H26.0365V20.0635H25.5624ZM25.8014 12.9787C25.6969 12.9787 25.6055 12.9421 25.5271 12.869C25.4513 12.7958 25.4135 12.707 25.4135 12.6025C25.4135 12.498 25.4513 12.4092 25.5271 12.336C25.6029 12.2629 25.6943 12.2263 25.8014 12.2263C25.9059 12.2263 25.996 12.2629 26.0718 12.336C26.1502 12.4092 26.1893 12.498 26.1893 12.6025C26.1893 12.707 26.1515 12.7958 26.0757 12.869C25.9999 12.9421 25.9085 12.9787 25.8014 12.9787ZM32.4395 14.0446L30.2647 20.0635H29.7239L27.5491 14.0446H28.0624L29.9747 19.4483H30.0139L31.9262 14.0446H32.4395ZM36.0652 20.1889C35.5218 20.1889 35.049 20.0544 34.6467 19.7853C34.2444 19.5162 33.9335 19.1479 33.7141 18.6803C33.4946 18.2126 33.3849 17.6797 33.3849 17.0815C33.3849 16.4806 33.4946 15.9451 33.7141 15.4748C33.9361 15.0046 34.2405 14.6337 34.6271 14.362C35.0137 14.0903 35.4552 13.9544 35.9516 13.9544C36.2886 13.9544 36.6073 14.0224 36.9077 14.1582C37.2108 14.2914 37.4772 14.4847 37.7071 14.7382C37.9396 14.9916 38.1212 15.2972 38.2518 15.6551C38.385 16.013 38.4516 16.4153 38.4516 16.862V17.1599H33.6866V16.7249H37.9736C37.9736 16.2886 37.8848 15.8954 37.7071 15.5454C37.5295 15.1953 37.2878 14.9171 36.9822 14.7107C36.6765 14.5043 36.333 14.4012 35.9516 14.4012C35.5519 14.4012 35.1953 14.5135 34.8818 14.7382C34.5709 14.9602 34.324 15.2606 34.1412 15.6394C33.9609 16.0182 33.8669 16.4414 33.859 16.9091V17.105C33.859 17.6066 33.9466 18.0572 34.1216 18.4569C34.2992 18.854 34.5526 19.1688 34.8818 19.4013C35.211 19.6312 35.6054 19.7461 36.0652 19.7461C36.3944 19.7461 36.6752 19.6913 36.9077 19.5815C37.1428 19.4692 37.3348 19.3334 37.4838 19.174C37.6327 19.0147 37.745 18.8605 37.8208 18.7116L38.2557 18.888C38.1643 19.0891 38.0219 19.2903 37.8286 19.4914C37.6379 19.69 37.3949 19.8559 37.0997 19.9891C36.8071 20.1223 36.4623 20.1889 36.0652 20.1889ZM45.4738 14.0446V14.4717H42.8052V14.0446H45.4738ZM43.683 20.0635V13.108C43.683 12.805 43.7522 12.5463 43.8907 12.3321C44.0291 12.1179 44.2107 11.9546 44.4354 11.8423C44.6626 11.73 44.9069 11.6738 45.1681 11.6738C45.3066 11.6738 45.4242 11.6856 45.5208 11.7091C45.6201 11.73 45.7063 11.7548 45.7794 11.7835L45.6384 12.2067C45.5783 12.1858 45.513 12.1675 45.4424 12.1519C45.3745 12.1362 45.2935 12.1284 45.1995 12.1284C44.8964 12.1284 44.647 12.2211 44.451 12.4066C44.2551 12.5921 44.1571 12.8507 44.1571 13.1825L44.1532 20.0635H43.683ZM49.0613 20.1889C48.5179 20.1889 48.045 20.0544 47.6427 19.7853C47.2404 19.5162 46.9296 19.1479 46.7101 18.6803C46.4907 18.2126 46.3809 17.6797 46.3809 17.0815C46.3809 16.4806 46.4907 15.9451 46.7101 15.4748C46.9322 15.0046 47.2365 14.6337 47.6231 14.362C48.0098 14.0903 48.4513 13.9544 48.9476 13.9544C49.2846 13.9544 49.6033 14.0224 49.9038 14.1582C50.2068 14.2914 50.4733 14.4847 50.7032 14.7382C50.9357 14.9916 51.1172 15.2972 51.2479 15.6551C51.3811 16.013 51.4477 16.4153 51.4477 16.862V17.1599H46.6827V16.7249H50.9696C50.9696 16.2886 50.8808 15.8954 50.7032 15.5454C50.5255 15.1953 50.2839 14.9171 49.9782 14.7107C49.6726 14.5043 49.329 14.4012 48.9476 14.4012C48.5479 14.4012 48.1913 14.5135 47.8779 14.7382C47.567 14.9602 47.3201 15.2606 47.1372 15.6394C46.957 16.0182 46.8629 16.4414 46.8551 16.9091V17.105C46.8551 17.6066 46.9426 18.0572 47.1176 18.4569C47.2953 18.854 47.5487 19.1688 47.8779 19.4013C48.207 19.6312 48.6015 19.7461 49.0613 19.7461C49.3904 19.7461 49.6713 19.6913 49.9038 19.5815C50.1389 19.4692 50.3309 19.3334 50.4798 19.174C50.6287 19.0147 50.7411 18.8605 50.8168 18.7116L51.2518 18.888C51.1603 19.0891 51.018 19.2903 50.8246 19.4914C50.6339 19.69 50.391 19.8559 50.0958 19.9891C49.8032 20.1223 49.4584 20.1889 49.0613 20.1889ZM55.4408 20.1889C54.8974 20.1889 54.4245 20.0544 54.0222 19.7853C53.6199 19.5162 53.309 19.1479 53.0896 18.6803C52.8702 18.2126 52.7604 17.6797 52.7604 17.0815C52.7604 16.4806 52.8702 15.9451 53.0896 15.4748C53.3117 15.0046 53.616 14.6337 54.0026 14.362C54.3893 14.0903 54.8308 13.9544 55.3271 13.9544C55.6641 13.9544 55.9828 14.0224 56.2833 14.1582C56.5863 14.2914 56.8528 14.4847 57.0827 14.7382C57.3152 14.9916 57.4967 15.2972 57.6273 15.6551C57.7606 16.013 57.8272 16.4153 57.8272 16.862V17.1599H53.0622V16.7249H57.3491C57.3491 16.2886 57.2603 15.8954 57.0827 15.5454C56.905 15.1953 56.6634 14.9171 56.3577 14.7107C56.0521 14.5043 55.7085 14.4012 55.3271 14.4012C54.9274 14.4012 54.5708 14.5135 54.2573 14.7382C53.9465 14.9602 53.6996 15.2606 53.5167 15.6394C53.3365 16.0182 53.2424 16.4414 53.2346 16.9091V17.105C53.2346 17.6066 53.3221 18.0572 53.4971 18.4569C53.6748 18.854 53.9282 19.1688 54.2573 19.4013C54.5865 19.6312 54.981 19.7461 55.4408 19.7461C55.7699 19.7461 56.0508 19.6913 56.2833 19.5815C56.5184 19.4692 56.7104 19.3334 56.8593 19.174C57.0082 19.0147 57.1205 18.8605 57.1963 18.7116L57.6313 18.888C57.5398 19.0891 57.3975 19.2903 57.2041 19.4914C57.0134 19.69 56.7705 19.8559 56.4753 19.9891C56.1827 20.1223 55.8378 20.1889 55.4408 20.1889ZM61.5381 20.1889C61.0548 20.1889 60.6329 20.0557 60.2724 19.7892C59.9119 19.5228 59.6324 19.1557 59.4338 18.6881C59.2379 18.2179 59.1399 17.6784 59.1399 17.0697C59.1399 16.4663 59.2392 15.9307 59.4377 15.4631C59.6389 14.9929 59.9197 14.6245 60.2802 14.358C60.6408 14.089 61.0614 13.9544 61.542 13.9544C61.8869 13.9544 62.186 14.021 62.4394 14.1543C62.6954 14.2849 62.9096 14.4586 63.082 14.6755C63.2571 14.8923 63.3903 15.13 63.4817 15.3886H63.5288V12.0382H64.0029V20.0635H63.5405V18.7508H63.4817C63.3851 19.0094 63.2505 19.2485 63.0781 19.4679C62.9057 19.6847 62.6915 19.8598 62.4355 19.993C62.1795 20.1236 61.8803 20.1889 61.5381 20.1889ZM61.5812 19.7461C61.9888 19.7461 62.3375 19.6299 62.6275 19.3974C62.9201 19.1623 63.1434 18.8435 63.2976 18.4412C63.4543 18.0363 63.5327 17.5778 63.5327 17.0658C63.5327 16.5538 63.4543 16.0979 63.2976 15.6982C63.1434 15.2959 62.9201 14.9798 62.6275 14.7499C62.3375 14.5174 61.9888 14.4012 61.5812 14.4012C61.1685 14.4012 60.8145 14.5187 60.5193 14.7538C60.2267 14.9863 60.002 15.3037 59.8453 15.706C59.6911 16.1084 59.6141 16.5616 59.6141 17.0658C59.6141 17.57 59.6911 18.0246 59.8453 18.4295C60.002 18.8344 60.2267 19.1557 60.5193 19.3935C60.8145 19.6286 61.1685 19.7461 61.5812 19.7461ZM66.3227 20.0635V12.0382H66.7969V15.3886H66.8439C66.938 15.13 67.0712 14.8923 67.2436 14.6755C67.416 14.4586 67.6302 14.2849 67.8863 14.1543C68.1423 14.021 68.4414 13.9544 68.7836 13.9544C69.2669 13.9544 69.6888 14.089 70.0493 14.358C70.4098 14.6245 70.6894 14.9929 70.8879 15.4631C71.0865 15.9307 71.1857 16.4663 71.1857 17.0697C71.1857 17.6784 71.0865 18.2179 70.8879 18.6881C70.6894 19.1557 70.4111 19.5228 70.0532 19.7892C69.6953 20.0557 69.2734 20.1889 68.7875 20.1889C68.4453 20.1889 68.1462 20.1236 67.8902 19.993C67.6342 19.8598 67.4199 19.6847 67.2475 19.4679C67.0751 19.2485 66.9406 19.0094 66.8439 18.7508H66.789V20.0635H66.3227ZM66.793 17.0658C66.793 17.5778 66.87 18.0363 67.0242 18.4412C67.1809 18.8435 67.4056 19.1623 67.6982 19.3974C67.9908 19.6299 68.3408 19.7461 68.7484 19.7461C69.1611 19.7461 69.5138 19.6286 69.8064 19.3935C70.099 19.1557 70.3223 18.8344 70.4765 18.4295C70.6332 18.0246 70.7116 17.57 70.7116 17.0658C70.7116 16.5616 70.6332 16.1084 70.4765 15.706C70.3223 15.3037 70.099 14.9863 69.8064 14.7538C69.5138 14.5187 69.1611 14.4012 68.7484 14.4012C68.3408 14.4012 67.9908 14.5174 67.6982 14.7499C67.4056 14.9798 67.1809 15.2959 67.0242 15.6982C66.87 16.0979 66.793 16.5538 66.793 17.0658ZM74.4303 20.1929C74.0829 20.1929 73.7642 20.1236 73.4742 19.9852C73.1868 19.8467 72.9556 19.6442 72.7806 19.3778C72.6082 19.1113 72.522 18.7874 72.522 18.406C72.522 18.1552 72.5664 17.9344 72.6552 17.7437C72.744 17.553 72.8812 17.3884 73.0667 17.25C73.2521 17.1115 73.4899 16.9979 73.7798 16.9091C74.0698 16.8176 74.416 16.7471 74.8183 16.6975C75.1239 16.6609 75.3969 16.6256 75.6373 16.5917C75.8776 16.5551 76.0657 16.4989 76.2015 16.4232C76.34 16.3474 76.4092 16.2324 76.4092 16.0783V15.8275C76.4092 15.3886 76.2708 15.0399 75.9939 14.7813C75.7169 14.5226 75.3355 14.3933 74.8496 14.3933C74.4186 14.3933 74.0554 14.4887 73.7602 14.6794C73.4677 14.8675 73.2626 15.1104 73.145 15.4082L72.6944 15.2397C72.8093 14.9524 72.9752 14.7133 73.192 14.5226C73.4115 14.3319 73.6623 14.1895 73.9444 14.0955C74.2292 14.0015 74.527 13.9544 74.8379 13.9544C75.1069 13.9544 75.363 13.9923 75.6059 14.0681C75.8515 14.1438 76.0696 14.2588 76.2603 14.4129C76.4536 14.567 76.6065 14.7643 76.7188 15.0046C76.8311 15.2423 76.8873 15.5271 76.8873 15.8589V20.0635H76.4092V18.9781H76.374C76.2695 19.2028 76.1258 19.4078 75.9429 19.5933C75.7627 19.7762 75.5445 19.9225 75.2885 20.0322C75.0351 20.1393 74.749 20.1929 74.4303 20.1929ZM74.4774 19.75C74.8535 19.75 75.1866 19.6586 75.4766 19.4757C75.7692 19.2903 75.9978 19.0369 76.1624 18.7155C76.3269 18.3942 76.4092 18.0298 76.4092 17.6222V16.7366C76.3491 16.7889 76.2616 16.8359 76.1467 16.8777C76.0343 16.9169 75.9063 16.9522 75.7627 16.9835C75.6216 17.0122 75.4727 17.0384 75.3159 17.0619C75.1618 17.0828 75.0116 17.1024 74.8653 17.1207C74.4264 17.1729 74.0685 17.2539 73.7916 17.3636C73.5173 17.4707 73.3161 17.6118 73.1881 17.7868C73.0627 17.9619 73 18.1735 73 18.4216C73 18.8318 73.1411 19.1557 73.4232 19.3935C73.7054 19.6312 74.0568 19.75 74.4774 19.75ZM81.1488 20.1889C80.6367 20.1889 80.1861 20.0544 79.7969 19.7853C79.4076 19.5136 79.1033 19.1427 78.8838 18.6724C78.667 18.2022 78.5586 17.6693 78.5586 17.0736C78.5586 16.478 78.6683 15.9451 78.8877 15.4748C79.1072 15.0046 79.4115 14.6337 79.8008 14.362C80.19 14.0903 80.6381 13.9544 81.1449 13.9544C81.5263 13.9544 81.8737 14.0328 82.1872 14.1895C82.5033 14.3463 82.7645 14.5644 82.9709 14.844C83.1799 15.1235 83.3132 15.4474 83.3706 15.8158H82.8847C82.8063 15.4082 82.6104 15.0712 82.2969 14.8048C81.9861 14.5357 81.6033 14.4012 81.1488 14.4012C80.7412 14.4012 80.3781 14.5161 80.0594 14.746C79.7407 14.9733 79.4899 15.2881 79.307 15.6904C79.1242 16.0901 79.0327 16.5485 79.0327 17.0658C79.0327 17.5752 79.1216 18.0324 79.2992 18.4373C79.4768 18.8396 79.725 19.1583 80.0437 19.3935C80.3624 19.6286 80.7308 19.7461 81.1488 19.7461C81.444 19.7461 81.7131 19.6874 81.956 19.5698C82.2016 19.4522 82.4067 19.285 82.5712 19.0682C82.7358 18.8514 82.8442 18.598 82.8965 18.308H83.3824C83.3249 18.679 83.1943 19.0055 82.9905 19.2877C82.7868 19.5698 82.5268 19.7905 82.2107 19.9499C81.8946 20.1093 81.5406 20.1889 81.1488 20.1889ZM85.4279 17.7124L85.4201 17.0266H85.5455L88.5549 14.0446H89.178L86.4154 16.7876L86.3684 16.8072L85.4279 17.7124ZM85.0125 20.0635V12.0382H85.4906V20.0635H85.0125ZM88.6921 20.0635L86.1528 16.8542L86.4977 16.5368L89.3034 20.0635H88.6921Z" fill="#E73700"/>
</svg>
