<svg width="211" height="121" viewBox="0 0 211 121" fill="none" xmlns="http://www.w3.org/2000/svg">
<rect x="0.248047" y="0.136047" width="210.579" height="120.589" rx="60.2943" fill="#4C4C4C"/>
<path d="M77.4773 64.1833C77.0265 64.1833 76.633 64.059 76.2967 63.8104C75.9604 63.5619 75.6997 63.2195 75.5145 62.7833C75.3317 62.3446 75.2403 61.8414 75.2403 61.2736C75.2403 60.7107 75.3329 60.2112 75.5181 59.775C75.7057 59.3363 75.9677 58.9927 76.304 58.7442C76.6403 58.4932 77.0326 58.3677 77.481 58.3677C77.8027 58.3677 78.0817 58.4298 78.3181 58.5541C78.5569 58.676 78.7567 58.838 78.9175 59.0403C79.0808 59.2425 79.2051 59.4643 79.2904 59.7055H79.3342V56.5803H79.7765V64.0663H79.3452V62.8418H79.2904C79.2002 63.083 79.0747 63.306 78.9139 63.5107C78.753 63.7129 78.5532 63.8762 78.3144 64.0005C78.0756 64.1223 77.7966 64.1833 77.4773 64.1833ZM77.5176 63.7702C77.8977 63.7702 78.223 63.6618 78.4935 63.4449C78.7664 63.2256 78.9748 62.9283 79.1186 62.553C79.2648 62.1753 79.3379 61.7476 79.3379 61.27C79.3379 60.7924 79.2648 60.3671 79.1186 59.9943C78.9748 59.619 78.7664 59.3242 78.4935 59.1097C78.223 58.8928 77.8977 58.7844 77.5176 58.7844C77.1325 58.7844 76.8023 58.8941 76.527 59.1134C76.254 59.3302 76.0445 59.6263 75.8983 60.0016C75.7545 60.3769 75.6826 60.7997 75.6826 61.27C75.6826 61.7403 75.7545 62.1643 75.8983 62.542C76.0445 62.9197 76.254 63.2195 76.527 63.4412C76.8023 63.6605 77.1325 63.7702 77.5176 63.7702ZM83.271 64.1869C82.9469 64.1869 82.6496 64.1223 82.3791 63.9932C82.111 63.864 81.8954 63.6752 81.7321 63.4266C81.5713 63.178 81.4909 62.8759 81.4909 62.5201C81.4909 62.2862 81.5323 62.0802 81.6151 61.9024C81.698 61.7245 81.8259 61.5709 81.9989 61.4418C82.172 61.3126 82.3937 61.2066 82.6642 61.1238C82.9347 61.0385 83.2576 60.9727 83.6329 60.9264C83.918 60.8923 84.1726 60.8594 84.3968 60.8277C84.621 60.7936 84.7965 60.7412 84.9232 60.6705C85.0523 60.5999 85.1169 60.4926 85.1169 60.3489V60.1149C85.1169 59.7055 84.9877 59.3802 84.7294 59.139C84.4711 58.8977 84.1153 58.7771 83.6621 58.7771C83.26 58.7771 82.9213 58.866 82.6459 59.0439C82.373 59.2194 82.1817 59.446 82.072 59.7238L81.6517 59.5666C81.7589 59.2986 81.9136 59.0756 82.1159 58.8977C82.3206 58.7198 82.5545 58.587 82.8177 58.4993C83.0833 58.4116 83.3611 58.3677 83.6511 58.3677C83.9021 58.3677 84.1409 58.403 84.3676 58.4737C84.5966 58.5444 84.8001 58.6516 84.978 58.7954C85.1583 58.9391 85.3009 59.1231 85.4057 59.3473C85.5105 59.5691 85.5628 59.8347 85.5628 60.1442V64.0663H85.1169V63.0538H85.084C84.9865 63.2633 84.8525 63.4546 84.6819 63.6276C84.5138 63.7982 84.3103 63.9347 84.0715 64.037C83.8351 64.137 83.5683 64.1869 83.271 64.1869ZM83.3148 63.7739C83.6657 63.7739 83.9764 63.6886 84.2469 63.518C84.5199 63.345 84.7331 63.1086 84.8866 62.8089C85.0401 62.5091 85.1169 62.1692 85.1169 61.789V60.9629C85.0609 61.0117 84.9792 61.0555 84.872 61.0945C84.7672 61.1311 84.6478 61.164 84.5138 61.1932C84.3822 61.22 84.2433 61.2444 84.0971 61.2663C83.9533 61.2858 83.8132 61.3041 83.6767 61.3212C83.2673 61.3699 82.9335 61.4454 82.6752 61.5478C82.4193 61.6477 82.2317 61.7793 82.1123 61.9426C81.9953 62.1058 81.9368 62.3032 81.9368 62.5347C81.9368 62.9173 82.0684 63.2195 82.3316 63.4412C82.5947 63.663 82.9225 63.7739 83.3148 63.7739ZM87.8785 60.4256V64.0663H87.4325V58.4518H87.8675V59.34H87.9114C88.043 59.05 88.2537 58.8173 88.5437 58.6418C88.8337 58.4664 89.1785 58.3787 89.5782 58.3787C89.9559 58.3787 90.2873 58.4591 90.5724 58.6199C90.86 58.7807 91.0842 59.0098 91.245 59.3071C91.4083 59.602 91.4899 59.9541 91.4899 60.3635V64.0663H91.0439V60.3818C91.0439 59.9041 90.9014 59.5203 90.6163 59.2303C90.3336 58.9379 89.9595 58.7917 89.4941 58.7917C89.1822 58.7917 88.9044 58.8599 88.6607 58.9964C88.417 59.1329 88.2257 59.3242 88.0868 59.5703C87.9479 59.814 87.8785 60.0991 87.8785 60.4256ZM95.4486 64.1833C94.9709 64.1833 94.5506 64.0578 94.1875 63.8068C93.8244 63.5533 93.5405 63.2073 93.3358 62.7687C93.1336 62.33 93.0324 61.8329 93.0324 61.2773C93.0324 60.7217 93.1348 60.2246 93.3395 59.7859C93.5442 59.3473 93.8281 59.0013 94.1912 58.7478C94.5542 58.4944 94.9722 58.3677 95.4449 58.3677C95.8007 58.3677 96.1248 58.4408 96.4172 58.587C96.7121 58.7332 96.9558 58.9367 97.1483 59.1974C97.3432 59.4582 97.4675 59.7604 97.5211 60.104H97.0679C96.9948 59.7238 96.812 59.4094 96.5196 59.1609C96.2296 58.9099 95.8726 58.7844 95.4486 58.7844C95.0684 58.7844 94.7297 58.8916 94.4324 59.1061C94.1351 59.3181 93.9012 59.6117 93.7306 59.987C93.56 60.3598 93.4747 60.7875 93.4747 61.27C93.4747 61.7452 93.5576 62.1716 93.7233 62.5493C93.889 62.9246 94.1205 63.2219 94.4178 63.4412C94.7151 63.6605 95.0587 63.7702 95.4486 63.7702C95.7239 63.7702 95.9749 63.7154 96.2016 63.6057C96.4306 63.4961 96.6219 63.3401 96.7754 63.1378C96.929 62.9356 97.0301 62.6992 97.0788 62.4287H97.5321C97.4785 62.7747 97.3566 63.0794 97.1666 63.3425C96.9765 63.6057 96.734 63.8116 96.4392 63.9603C96.1443 64.1089 95.8141 64.1833 95.4486 64.1833ZM101.242 64.1833C100.735 64.1833 100.294 64.0578 99.919 63.8068C99.5437 63.5558 99.2537 63.2122 99.049 62.776C98.8443 62.3398 98.742 61.8427 98.742 61.2846C98.742 60.7241 98.8443 60.2246 99.049 59.7859C99.2562 59.3473 99.5401 59.0013 99.9007 58.7478C100.261 58.4944 100.673 58.3677 101.136 58.3677C101.451 58.3677 101.748 58.431 102.028 58.5578C102.311 58.682 102.559 58.8624 102.774 59.0987C102.991 59.3351 103.16 59.6202 103.282 59.9541C103.406 60.2879 103.468 60.6632 103.468 61.0799V61.3577H99.0234V60.952H103.022C103.022 60.545 102.939 60.1783 102.774 59.8517C102.608 59.5252 102.383 59.2657 102.098 59.0732C101.812 58.8806 101.492 58.7844 101.136 58.7844C100.763 58.7844 100.431 58.8892 100.138 59.0987C99.8483 59.3059 99.618 59.5861 99.4475 59.9395C99.2793 60.2928 99.1916 60.6876 99.1843 61.1238V61.3065C99.1843 61.7744 99.2659 62.1948 99.4292 62.5676C99.5949 62.938 99.8313 63.2317 100.138 63.4485C100.445 63.663 100.813 63.7702 101.242 63.7702C101.549 63.7702 101.811 63.719 102.028 63.6167C102.247 63.5119 102.427 63.3852 102.565 63.2365C102.704 63.0879 102.809 62.9441 102.88 62.8052L103.286 62.9697C103.2 63.1573 103.067 63.345 102.887 63.5326C102.709 63.7178 102.483 63.8726 102.207 63.9968C101.934 64.1211 101.613 64.1833 101.242 64.1833ZM111.466 59.6617L111.053 59.7713C110.987 59.5666 110.893 59.39 110.772 59.2413C110.65 59.0927 110.496 58.9781 110.311 58.8977C110.128 58.8149 109.909 58.7734 109.653 58.7734C109.241 58.7734 108.904 58.8758 108.641 59.0805C108.38 59.2852 108.249 59.552 108.249 59.881C108.249 60.149 108.338 60.3708 108.516 60.5462C108.694 60.7193 108.966 60.8508 109.331 60.941L110.194 61.1567C110.638 61.2663 110.971 61.4442 111.196 61.6903C111.42 61.934 111.532 62.2374 111.532 62.6005C111.532 62.91 111.448 63.1841 111.28 63.423C111.111 63.6618 110.879 63.8482 110.581 63.9822C110.287 64.1162 109.943 64.1833 109.551 64.1833C109.027 64.1833 108.597 64.0614 108.26 63.8177C107.924 63.5716 107.708 63.2195 107.613 62.7613L108.041 62.6517C108.121 63.0172 108.288 63.2962 108.542 63.4887C108.798 63.6788 109.133 63.7739 109.547 63.7739C110.005 63.7739 110.374 63.6654 110.655 63.4485C110.937 63.2317 111.079 62.9539 111.079 62.6151C111.079 62.3568 110.996 62.1387 110.83 61.9608C110.664 61.7829 110.413 61.6526 110.077 61.5697L109.181 61.3504C108.723 61.2383 108.38 61.0592 108.151 60.8131C107.922 60.5645 107.807 60.2587 107.807 59.8956C107.807 59.5934 107.886 59.3278 108.045 59.0987C108.203 58.8697 108.421 58.6906 108.699 58.5614C108.977 58.4323 109.295 58.3677 109.653 58.3677C110.128 58.3677 110.516 58.4798 110.815 58.704C111.115 58.9282 111.332 59.2474 111.466 59.6617ZM115.181 64.1833C114.703 64.1833 114.283 64.0578 113.92 63.8068C113.557 63.5533 113.273 63.2073 113.068 62.7687C112.866 62.33 112.765 61.8329 112.765 61.2773C112.765 60.7217 112.867 60.2246 113.072 59.7859C113.276 59.3473 113.56 59.0013 113.923 58.7478C114.286 58.4944 114.704 58.3677 115.177 58.3677C115.533 58.3677 115.857 58.4408 116.149 58.587C116.444 58.7332 116.688 58.9367 116.88 59.1974C117.075 59.4582 117.2 59.7604 117.253 60.104H116.8C116.727 59.7238 116.544 59.4094 116.252 59.1609C115.962 58.9099 115.605 58.7844 115.181 58.7844C114.801 58.7844 114.462 58.8916 114.165 59.1061C113.867 59.3181 113.633 59.6117 113.463 59.987C113.292 60.3598 113.207 60.7875 113.207 61.27C113.207 61.7452 113.29 62.1716 113.455 62.5493C113.621 62.9246 113.853 63.2219 114.15 63.4412C114.447 63.6605 114.791 63.7702 115.181 63.7702C115.456 63.7702 115.707 63.7154 115.934 63.6057C116.163 63.4961 116.354 63.3401 116.508 63.1378C116.661 62.9356 116.762 62.6992 116.811 62.4287H117.264C117.211 62.7747 117.089 63.0794 116.899 63.3425C116.709 63.6057 116.466 63.8116 116.171 63.9603C115.876 64.1089 115.546 64.1833 115.181 64.1833ZM120.974 64.1833C120.467 64.1833 120.026 64.0578 119.651 63.8068C119.276 63.5558 118.986 63.2122 118.781 62.776C118.576 62.3398 118.474 61.8427 118.474 61.2846C118.474 60.7241 118.576 60.2246 118.781 59.7859C118.988 59.3473 119.272 59.0013 119.633 58.7478C119.994 58.4944 120.405 58.3677 120.868 58.3677C121.183 58.3677 121.48 58.431 121.76 58.5578C122.043 58.682 122.291 58.8624 122.506 59.0987C122.723 59.3351 122.892 59.6202 123.014 59.9541C123.138 60.2879 123.2 60.6632 123.2 61.0799V61.3577H118.756V60.952H122.754C122.754 60.545 122.672 60.1783 122.506 59.8517C122.34 59.5252 122.115 59.2657 121.83 59.0732C121.545 58.8806 121.224 58.7844 120.868 58.7844C120.496 58.7844 120.163 58.8892 119.87 59.0987C119.58 59.3059 119.35 59.5861 119.18 59.9395C119.011 60.2928 118.924 60.6876 118.916 61.1238V61.3065C118.916 61.7744 118.998 62.1948 119.161 62.5676C119.327 62.938 119.563 63.2317 119.87 63.4485C120.178 63.663 120.545 63.7702 120.974 63.7702C121.281 63.7702 121.543 63.719 121.76 63.6167C121.98 63.5119 122.159 63.3852 122.298 63.2365C122.436 63.0879 122.541 62.9441 122.612 62.8052L123.018 62.9697C122.932 63.1573 122.8 63.345 122.619 63.5326C122.441 63.7178 122.215 63.8726 121.939 63.9968C121.666 64.1211 121.345 64.1833 120.974 64.1833ZM125.182 60.4256V64.0663H124.736V58.4518H125.171V59.34H125.214C125.346 59.05 125.557 58.8173 125.847 58.6418C126.137 58.4664 126.482 58.3787 126.881 58.3787C127.259 58.3787 127.59 58.4591 127.876 58.6199C128.163 58.7807 128.387 59.0098 128.548 59.3071C128.711 59.602 128.793 59.9541 128.793 60.3635V64.0663H128.347V60.3818C128.347 59.9041 128.205 59.5203 127.919 59.2303C127.637 58.9379 127.263 58.7917 126.797 58.7917C126.485 58.7917 126.208 58.8599 125.964 58.9964C125.72 59.1329 125.529 59.3242 125.39 59.5703C125.251 59.814 125.182 60.0991 125.182 60.4256ZM132.836 64.1833C132.329 64.1833 131.888 64.0578 131.513 63.8068C131.137 63.5558 130.847 63.2122 130.643 62.776C130.438 62.3398 130.336 61.8427 130.336 61.2846C130.336 60.7241 130.438 60.2246 130.643 59.7859C130.85 59.3473 131.134 59.0013 131.494 58.7478C131.855 58.4944 132.267 58.3677 132.73 58.3677C133.044 58.3677 133.341 58.431 133.622 58.5578C133.904 58.682 134.153 58.8624 134.367 59.0987C134.584 59.3351 134.754 59.6202 134.875 59.9541C135 60.2879 135.062 60.6632 135.062 61.0799V61.3577H130.617V60.952H134.616C134.616 60.545 134.533 60.1783 134.367 59.8517C134.202 59.5252 133.976 59.2657 133.691 59.0732C133.406 58.8806 133.086 58.7844 132.73 58.7844C132.357 58.7844 132.024 58.8892 131.732 59.0987C131.442 59.3059 131.212 59.5861 131.041 59.9395C130.873 60.2928 130.785 60.6876 130.778 61.1238V61.3065C130.778 61.7744 130.859 62.1948 131.023 62.5676C131.188 62.938 131.425 63.2317 131.732 63.4485C132.039 63.663 132.407 63.7702 132.836 63.7702C133.143 63.7702 133.405 63.719 133.622 63.6167C133.841 63.5119 134.02 63.3852 134.159 63.2365C134.298 63.0879 134.403 62.9441 134.473 62.8052L134.879 62.9697C134.794 63.1573 134.661 63.345 134.481 63.5326C134.303 63.7178 134.076 63.8726 133.801 63.9968C133.528 64.1211 133.206 64.1833 132.836 64.1833Z" fill="#797878"/>
</svg>
