<svg width="295" height="130" viewBox="0 0 295 130" fill="none" xmlns="http://www.w3.org/2000/svg">
<path d="M120.29 0.937968C120.29 0.983195 120.312 1.3224 120.357 1.95559L116.49 2.2948L101.972 32.4164V47.138L106.925 47.4093C106.925 47.4545 106.902 47.7938 106.857 48.4269L93.2886 48.4948C93.2886 48.0877 93.3113 47.7711 93.3565 47.545L96.8842 47.0701C97.3365 47.0249 97.6079 46.7309 97.6983 46.1882V32.4164L82.434 2.63401C82.2531 2.49832 82.0722 2.38525 81.8913 2.2948L79.0419 2.02343C78.9967 1.75207 78.9741 1.41286 78.9741 1.00581L92.6781 0.937968C92.6781 0.983195 92.7007 1.3224 92.7459 1.95559L87.1829 2.43048L101.226 31.2631L113.912 3.4481C113.912 2.90537 113.709 2.61139 113.302 2.56616L107.128 2.02343C107.083 1.75207 107.06 1.41286 107.06 1.00581L120.29 0.937968ZM132.717 48.6983C128.013 48.6983 124.191 47.3415 121.251 44.6278C118.357 41.9142 116.91 37.7758 116.91 32.2128C116.91 26.6046 118.447 22.2176 121.523 19.0516C124.644 15.8405 128.556 14.2349 133.259 14.2349C137.963 14.2349 141.785 15.5917 144.725 18.3054C147.664 21.019 149.134 25.18 149.134 30.7882C149.134 36.3512 147.574 40.7383 144.453 43.9494C141.378 47.1153 137.466 48.6983 132.717 48.6983ZM133.192 15.456C129.799 15.456 126.973 16.9259 124.711 19.8657C122.45 22.8055 121.319 26.8082 121.319 31.8736C121.319 36.8939 122.382 40.7609 124.508 43.4745C126.679 46.1429 129.46 47.4772 132.852 47.4772C136.244 47.4772 139.071 46.0073 141.333 43.0675C143.594 40.1277 144.725 36.1476 144.725 31.1274C144.725 26.1071 143.639 22.2402 141.468 19.5265C139.343 16.8129 136.584 15.456 133.192 15.456ZM154.036 15.5917L153.968 14.5741L163.127 14.5062V38.115C163.127 39.8789 163.375 41.4167 163.873 42.7283C164.37 43.9946 164.913 44.9218 165.501 45.5098C166.134 46.0977 166.858 46.55 167.672 46.8666C168.938 47.3189 170.001 47.4998 170.86 47.4093C173.619 47.3641 176.763 45.9394 180.29 43.1353V16.8807C180.11 16.338 179.725 16.0214 179.137 15.9309L175.609 15.5917C175.564 15.3203 175.542 14.9811 175.542 14.5741L184.7 14.5062V45.3062C184.791 46.4369 185.152 47.0023 185.786 47.0023L189.856 47.2058L189.788 48.2234C187.617 48.5852 185.356 48.7661 183.004 48.7661C182.461 48.7209 181.873 48.4269 181.24 47.8842C180.607 47.2963 180.29 46.5726 180.29 45.7133V44.4921C176.175 47.251 172.285 48.6305 168.622 48.6305C167.084 48.6305 165.275 48.246 163.194 47.4772C161.838 46.9797 160.752 46.0525 159.938 44.6957C159.124 43.2936 158.717 41.5523 158.717 39.4719V16.9485C158.717 16.7224 158.581 16.5189 158.31 16.338C158.084 16.1118 157.835 15.9761 157.564 15.9309L154.036 15.5917ZM203.518 17.2877V22.7151C207.091 17.4687 210.596 14.8002 214.033 14.7098C214.304 14.7098 214.576 14.7098 214.847 14.7098L218.646 15.1847L216.882 19.2551C216.023 18.3958 214.915 17.9662 213.558 17.9662C210.257 18.0114 206.91 20.2049 203.518 24.5468V47.0701L209.284 47.4093C209.284 47.4545 209.262 47.7938 209.216 48.4269L194.97 48.4948C194.97 48.0877 194.992 47.7711 195.037 47.545L198.565 47.0701C198.927 47.0249 199.108 46.7083 199.108 46.1203V16.6772C199.017 16.3606 198.882 16.2023 198.701 16.2023L194.63 16.0666L194.698 15.1168C197.141 14.7098 198.995 14.5062 200.261 14.5062C201.528 14.5062 202.387 14.8002 202.839 15.3882C203.291 15.9761 203.518 16.6093 203.518 17.2877ZM14.5251 81.938C14.5251 81.9832 14.5477 82.3224 14.5929 82.9556L9.30128 83.4305L20.5629 127.663L33.1814 81.938H34.1991L33.9955 82.4807L34.2669 81.938L46.207 127.799L58.1471 84.3124C58.1471 83.8601 57.9435 83.6114 57.5365 83.5662L51.1594 83.0234L51.0916 82.0058L64.3885 81.938C64.3885 81.9832 64.4111 82.3224 64.4563 82.9556L60.0466 83.3626L46.614 129.427H42.4757L32.2317 88.9256L21.0378 129.427H16.8317L5.16295 83.9054C5.02727 83.5888 4.80113 83.4079 4.48454 83.3626L0.956785 83.0234L0.888943 82.0058L14.5251 81.938ZM77.8274 129.698C73.1238 129.698 69.302 128.341 66.3622 125.628C63.4677 122.914 62.0204 118.776 62.0204 113.213C62.0204 107.605 63.5581 103.218 66.6336 100.052C69.7543 96.8405 73.6665 95.2349 78.3702 95.2349C83.0738 95.2349 86.8956 96.5917 89.8354 99.3054C92.7752 102.019 94.2451 106.18 94.2451 111.788C94.2451 117.351 92.6847 121.738 89.564 124.949C86.4885 128.115 82.5763 129.698 77.8274 129.698ZM78.3023 96.456C74.9103 96.456 72.0835 97.9259 69.8222 100.866C67.5608 103.806 66.4301 107.808 66.4301 112.874C66.4301 117.894 67.4929 121.761 69.6186 124.475C71.7896 127.143 74.571 128.477 77.9631 128.477C81.3552 128.477 84.1819 127.007 86.4433 124.067C88.7047 121.128 89.8354 117.148 89.8354 112.127C89.8354 107.107 88.7499 103.24 86.579 100.527C84.4533 97.8129 81.6944 96.456 78.3023 96.456ZM154.613 95.5062C154.613 95.5515 154.635 95.8907 154.681 96.5239L150.746 96.9309L148.304 97.4736L136.16 129.427H132.089L124.152 102.562L114.993 129.427H110.923L100.34 97.745C100.068 97.2475 99.7291 96.9761 99.322 96.9309L95.7943 96.5917C95.749 96.3203 95.7264 95.9811 95.7264 95.5741L109.973 95.5062C109.973 95.5515 109.996 95.8907 110.041 96.5239L105.156 96.8631L114.315 127.256L124.22 95.8455L126.526 95.5062L135.142 128.341L145.793 97.9485C145.929 97.6772 145.861 97.451 145.59 97.2701C145.318 97.0892 145.002 96.9761 144.64 96.9309L141.112 96.5917C141.067 96.3203 141.044 95.9811 141.044 95.5741L154.613 95.5062ZM189.429 81.938C189.429 81.9832 189.451 82.3224 189.496 82.9556L184.205 83.4305L195.467 127.663L208.085 81.938H209.103L208.899 82.4807L209.17 81.938L221.111 127.799L233.051 84.3124C233.051 83.8601 232.847 83.6114 232.44 83.5662L226.063 83.0234L225.995 82.0058L239.292 81.938C239.292 81.9832 239.315 82.3224 239.36 82.9556L234.95 83.3626L221.518 129.427H217.379L207.135 88.9256L195.941 129.427H191.735L180.067 83.9054C179.931 83.5888 179.705 83.4079 179.388 83.3626L175.86 83.0234L175.793 82.0058L189.429 81.938ZM250.605 98.2877V128.07L255.693 128.409C255.693 128.455 255.671 128.794 255.625 129.427L242.057 129.495C242.057 129.088 242.08 128.771 242.125 128.545L245.653 128.07C245.924 128.07 246.105 127.867 246.195 127.46V97.6772C246.105 97.3606 245.969 97.2023 245.788 97.2023L241.718 97.0666L241.786 96.1168C244.228 95.7098 246.082 95.5062 247.349 95.5062C248.615 95.5062 249.474 95.8002 249.927 96.3882C250.379 96.9761 250.605 97.6093 250.605 98.2877ZM248.299 86.4155C247.394 86.4155 246.693 86.1441 246.195 85.6014C245.698 85.0134 245.449 84.2672 245.449 83.3626C245.449 82.4129 245.698 81.6666 246.195 81.1239C246.738 80.5359 247.462 80.2419 248.366 80.2419C249.271 80.2419 249.995 80.5359 250.537 81.1239C251.125 81.6666 251.419 82.4355 251.419 83.4305C251.419 84.3803 251.125 85.1265 250.537 85.6692C249.949 86.1668 249.203 86.4155 248.299 86.4155ZM260.128 129.495L260.196 128.545L263.723 128.07C264.13 128.025 264.334 127.708 264.334 127.12V97.745C264.244 97.3832 264.108 97.2023 263.927 97.2023L259.789 97.0666L259.856 96.1168C262.706 95.7098 264.628 95.5062 265.623 95.5062C267.432 95.5062 268.45 96.2977 268.676 97.8807H268.744V99.3054C272.452 96.7726 276.003 95.4384 279.395 95.3027C282.696 95.3027 285.207 95.9585 286.925 97.2701C287.694 97.8581 288.372 98.7852 288.96 100.052C289.594 101.273 289.91 102.743 289.91 104.461V128.07L294.998 128.409C294.998 128.455 294.976 128.794 294.93 129.427L281.362 129.495C281.362 129.088 281.385 128.771 281.43 128.545L284.958 128.07C285.32 128.025 285.501 127.708 285.501 127.12V106.157C285.501 104.348 285.252 102.811 284.754 101.544C284.302 100.278 283.782 99.3506 283.194 98.7626C282.606 98.1747 281.882 97.7224 281.023 97.4058C280.028 97.044 278.988 96.8631 277.902 96.8631C275.189 96.9083 272.136 97.9712 268.744 100.052V128.07L273.832 128.409C273.832 128.455 273.809 128.794 273.764 129.427L260.128 129.495Z" fill="white"/>
<path d="M120.29 0.937968C120.29 0.983195 120.312 1.3224 120.357 1.95559L116.49 2.2948L101.972 32.4164V47.138L106.925 47.4093C106.925 47.4545 106.902 47.7938 106.857 48.4269L93.2886 48.4948C93.2886 48.0877 93.3113 47.7711 93.3565 47.545L96.8842 47.0701C97.3365 47.0249 97.6079 46.7309 97.6983 46.1882V32.4164L82.434 2.63401C82.2531 2.49832 82.0722 2.38525 81.8913 2.2948L79.0419 2.02343C78.9967 1.75207 78.9741 1.41286 78.9741 1.00581L92.6781 0.937968C92.6781 0.983195 92.7007 1.3224 92.7459 1.95559L87.1829 2.43048L101.226 31.2631L113.912 3.4481C113.912 2.90537 113.709 2.61139 113.302 2.56616L107.128 2.02343C107.083 1.75207 107.06 1.41286 107.06 1.00581L120.29 0.937968ZM132.717 48.6983C128.013 48.6983 124.191 47.3415 121.251 44.6278C118.357 41.9142 116.91 37.7758 116.91 32.2128C116.91 26.6046 118.447 22.2176 121.523 19.0516C124.644 15.8405 128.556 14.2349 133.259 14.2349C137.963 14.2349 141.785 15.5917 144.725 18.3054C147.664 21.019 149.134 25.18 149.134 30.7882C149.134 36.3512 147.574 40.7383 144.453 43.9494C141.378 47.1153 137.466 48.6983 132.717 48.6983ZM133.192 15.456C129.799 15.456 126.973 16.9259 124.711 19.8657C122.45 22.8055 121.319 26.8082 121.319 31.8736C121.319 36.8939 122.382 40.7609 124.508 43.4745C126.679 46.1429 129.46 47.4772 132.852 47.4772C136.244 47.4772 139.071 46.0073 141.333 43.0675C143.594 40.1277 144.725 36.1476 144.725 31.1274C144.725 26.1071 143.639 22.2402 141.468 19.5265C139.343 16.8129 136.584 15.456 133.192 15.456ZM154.036 15.5917L153.968 14.5741L163.127 14.5062V38.115C163.127 39.8789 163.375 41.4167 163.873 42.7283C164.37 43.9946 164.913 44.9218 165.501 45.5098C166.134 46.0977 166.858 46.55 167.672 46.8666C168.938 47.3189 170.001 47.4998 170.86 47.4093C173.619 47.3641 176.763 45.9394 180.29 43.1353V16.8807C180.11 16.338 179.725 16.0214 179.137 15.9309L175.609 15.5917C175.564 15.3203 175.542 14.9811 175.542 14.5741L184.7 14.5062V45.3062C184.791 46.4369 185.152 47.0023 185.786 47.0023L189.856 47.2058L189.788 48.2234C187.617 48.5852 185.356 48.7661 183.004 48.7661C182.461 48.7209 181.873 48.4269 181.24 47.8842C180.607 47.2963 180.29 46.5726 180.29 45.7133V44.4921C176.175 47.251 172.285 48.6305 168.622 48.6305C167.084 48.6305 165.275 48.246 163.194 47.4772C161.838 46.9797 160.752 46.0525 159.938 44.6957C159.124 43.2936 158.717 41.5523 158.717 39.4719V16.9485C158.717 16.7224 158.581 16.5189 158.31 16.338C158.084 16.1118 157.835 15.9761 157.564 15.9309L154.036 15.5917ZM203.518 17.2877V22.7151C207.091 17.4687 210.596 14.8002 214.033 14.7098C214.304 14.7098 214.576 14.7098 214.847 14.7098L218.646 15.1847L216.882 19.2551C216.023 18.3958 214.915 17.9662 213.558 17.9662C210.257 18.0114 206.91 20.2049 203.518 24.5468V47.0701L209.284 47.4093C209.284 47.4545 209.262 47.7938 209.216 48.4269L194.97 48.4948C194.97 48.0877 194.992 47.7711 195.037 47.545L198.565 47.0701C198.927 47.0249 199.108 46.7083 199.108 46.1203V16.6772C199.017 16.3606 198.882 16.2023 198.701 16.2023L194.63 16.0666L194.698 15.1168C197.141 14.7098 198.995 14.5062 200.261 14.5062C201.528 14.5062 202.387 14.8002 202.839 15.3882C203.291 15.9761 203.518 16.6093 203.518 17.2877ZM14.5251 81.938C14.5251 81.9832 14.5477 82.3224 14.5929 82.9556L9.30128 83.4305L20.5629 127.663L33.1814 81.938H34.1991L33.9955 82.4807L34.2669 81.938L46.207 127.799L58.1471 84.3124C58.1471 83.8601 57.9435 83.6114 57.5365 83.5662L51.1594 83.0234L51.0916 82.0058L64.3885 81.938C64.3885 81.9832 64.4111 82.3224 64.4563 82.9556L60.0466 83.3626L46.614 129.427H42.4757L32.2317 88.9256L21.0378 129.427H16.8317L5.16295 83.9054C5.02727 83.5888 4.80113 83.4079 4.48454 83.3626L0.956785 83.0234L0.888943 82.0058L14.5251 81.938ZM77.8274 129.698C73.1238 129.698 69.302 128.341 66.3622 125.628C63.4677 122.914 62.0204 118.776 62.0204 113.213C62.0204 107.605 63.5581 103.218 66.6336 100.052C69.7543 96.8405 73.6665 95.2349 78.3702 95.2349C83.0738 95.2349 86.8956 96.5917 89.8354 99.3054C92.7752 102.019 94.2451 106.18 94.2451 111.788C94.2451 117.351 92.6847 121.738 89.564 124.949C86.4885 128.115 82.5763 129.698 77.8274 129.698ZM78.3023 96.456C74.9103 96.456 72.0835 97.9259 69.8222 100.866C67.5608 103.806 66.4301 107.808 66.4301 112.874C66.4301 117.894 67.4929 121.761 69.6186 124.475C71.7896 127.143 74.571 128.477 77.9631 128.477C81.3552 128.477 84.1819 127.007 86.4433 124.067C88.7047 121.128 89.8354 117.148 89.8354 112.127C89.8354 107.107 88.7499 103.24 86.579 100.527C84.4533 97.8129 81.6944 96.456 78.3023 96.456ZM154.613 95.5062C154.613 95.5515 154.635 95.8907 154.681 96.5239L150.746 96.9309L148.304 97.4736L136.16 129.427H132.089L124.152 102.562L114.993 129.427H110.923L100.34 97.745C100.068 97.2475 99.7291 96.9761 99.322 96.9309L95.7943 96.5917C95.749 96.3203 95.7264 95.9811 95.7264 95.5741L109.973 95.5062C109.973 95.5515 109.996 95.8907 110.041 96.5239L105.156 96.8631L114.315 127.256L124.22 95.8455L126.526 95.5062L135.142 128.341L145.793 97.9485C145.929 97.6772 145.861 97.451 145.59 97.2701C145.318 97.0892 145.002 96.9761 144.64 96.9309L141.112 96.5917C141.067 96.3203 141.044 95.9811 141.044 95.5741L154.613 95.5062ZM189.429 81.938C189.429 81.9832 189.451 82.3224 189.496 82.9556L184.205 83.4305L195.467 127.663L208.085 81.938H209.103L208.899 82.4807L209.17 81.938L221.111 127.799L233.051 84.3124C233.051 83.8601 232.847 83.6114 232.44 83.5662L226.063 83.0234L225.995 82.0058L239.292 81.938C239.292 81.9832 239.315 82.3224 239.36 82.9556L234.95 83.3626L221.518 129.427H217.379L207.135 88.9256L195.941 129.427H191.735L180.067 83.9054C179.931 83.5888 179.705 83.4079 179.388 83.3626L175.86 83.0234L175.793 82.0058L189.429 81.938ZM250.605 98.2877V128.07L255.693 128.409C255.693 128.455 255.671 128.794 255.625 129.427L242.057 129.495C242.057 129.088 242.08 128.771 242.125 128.545L245.653 128.07C245.924 128.07 246.105 127.867 246.195 127.46V97.6772C246.105 97.3606 245.969 97.2023 245.788 97.2023L241.718 97.0666L241.786 96.1168C244.228 95.7098 246.082 95.5062 247.349 95.5062C248.615 95.5062 249.474 95.8002 249.927 96.3882C250.379 96.9761 250.605 97.6093 250.605 98.2877ZM248.299 86.4155C247.394 86.4155 246.693 86.1441 246.195 85.6014C245.698 85.0134 245.449 84.2672 245.449 83.3626C245.449 82.4129 245.698 81.6666 246.195 81.1239C246.738 80.5359 247.462 80.2419 248.366 80.2419C249.271 80.2419 249.995 80.5359 250.537 81.1239C251.125 81.6666 251.419 82.4355 251.419 83.4305C251.419 84.3803 251.125 85.1265 250.537 85.6692C249.949 86.1668 249.203 86.4155 248.299 86.4155ZM260.128 129.495L260.196 128.545L263.723 128.07C264.13 128.025 264.334 127.708 264.334 127.12V97.745C264.244 97.3832 264.108 97.2023 263.927 97.2023L259.789 97.0666L259.856 96.1168C262.706 95.7098 264.628 95.5062 265.623 95.5062C267.432 95.5062 268.45 96.2977 268.676 97.8807H268.744V99.3054C272.452 96.7726 276.003 95.4384 279.395 95.3027C282.696 95.3027 285.207 95.9585 286.925 97.2701C287.694 97.8581 288.372 98.7852 288.96 100.052C289.594 101.273 289.91 102.743 289.91 104.461V128.07L294.998 128.409C294.998 128.455 294.976 128.794 294.93 129.427L281.362 129.495C281.362 129.088 281.385 128.771 281.43 128.545L284.958 128.07C285.32 128.025 285.501 127.708 285.501 127.12V106.157C285.501 104.348 285.252 102.811 284.754 101.544C284.302 100.278 283.782 99.3506 283.194 98.7626C282.606 98.1747 281.882 97.7224 281.023 97.4058C280.028 97.044 278.988 96.8631 277.902 96.8631C275.189 96.9083 272.136 97.9712 268.744 100.052V128.07L273.832 128.409C273.832 128.455 273.809 128.794 273.764 129.427L260.128 129.495Z" fill="url(#paint0_linear_31_456)"/>
<defs>
<linearGradient id="paint0_linear_31_456" x1="82.7041" y1="-15.573" x2="306.262" y2="40.8176" gradientUnits="userSpaceOnUse">
<stop stop-color="#FFB905"/>
<stop offset="1" stop-color="#F4DC00"/>
</linearGradient>
</defs>
</svg>
