<svg width="136" height="12" viewBox="0 0 136 12" fill="none" xmlns="http://www.w3.org/2000/svg">
<path d="M9.11968 3.99461H8.45625C8.38714 3.63526 8.25757 3.28799 8.06753 2.95282C7.87748 2.6142 7.63215 2.31013 7.33154 2.04061C7.03438 1.76764 6.68884 1.55168 6.29493 1.39274C5.90102 1.23379 5.46565 1.15432 4.98881 1.15432C4.29083 1.15432 3.64814 1.34091 3.06073 1.71408C2.47678 2.08381 2.00858 2.62802 1.65613 3.34673C1.30714 4.06545 1.13265 4.94483 1.13265 5.98489C1.13265 7.03186 1.30714 7.9147 1.65613 8.63341C2.00858 9.35212 2.47678 9.89634 3.06073 10.2661C3.64814 10.6323 4.29083 10.8155 4.98881 10.8155C5.46565 10.8155 5.90102 10.7377 6.29493 10.5822C6.68884 10.4233 7.03438 10.209 7.33154 9.93953C7.63215 9.66656 7.87748 9.36076 8.06753 9.02214C8.25757 8.68351 8.38714 8.33452 8.45625 7.97517H9.11968C9.04366 8.40363 8.89681 8.82345 8.67912 9.23464C8.46489 9.64583 8.18155 10.019 7.82911 10.3542C7.48012 10.6859 7.0672 10.9502 6.59037 11.1472C6.11698 11.3407 5.58313 11.4374 4.98881 11.4374C4.10425 11.4374 3.32507 11.2128 2.65127 10.7636C1.97748 10.311 1.44881 9.6752 1.06527 8.85628C0.685183 8.03736 0.495139 7.08023 0.495139 5.98489C0.495139 4.88955 0.685183 3.93241 1.06527 3.1135C1.44881 2.29458 1.97748 1.66053 2.65127 1.21133C3.32507 0.758681 4.10425 0.532356 4.98881 0.532356C5.58313 0.532356 6.11698 0.630834 6.59037 0.827789C7.0672 1.02129 7.48012 1.28389 7.82911 1.61561C8.18155 1.94386 8.46489 2.31359 8.67912 2.72477C8.89681 3.13596 9.04366 3.55924 9.11968 3.99461ZM16.4873 8.46755V3.33119H17.1197V11.2923H16.4873V10.0017H16.4355C16.2489 10.4129 15.9466 10.7481 15.5285 11.0072C15.1138 11.2664 14.6232 11.396 14.0565 11.396C13.5347 11.396 13.0735 11.2819 12.6726 11.0539C12.2718 10.8258 11.9574 10.5028 11.7293 10.0847C11.5013 9.6631 11.3872 9.16208 11.3872 8.58158V3.33119H12.0196V8.55567C12.0196 9.21909 12.22 9.7564 12.6208 10.1676C13.0251 10.5753 13.5468 10.7792 14.1861 10.7792C14.6007 10.7792 14.9825 10.6859 15.3315 10.4993C15.6805 10.3127 15.9604 10.0466 16.1712 9.70111C16.3819 9.35212 16.4873 8.94094 16.4873 8.46755ZM19.7397 11.2923V3.33119H20.3565V4.57511H20.4135C20.5862 4.16738 20.8782 3.84085 21.2894 3.59552C21.7006 3.34673 22.1688 3.22234 22.694 3.22234C22.7493 3.22234 22.8046 3.22234 22.8599 3.22234C22.9151 3.22234 22.967 3.22407 23.0153 3.22753V3.86504C22.9739 3.86158 22.9238 3.8564 22.865 3.84949C22.8097 3.83912 22.7406 3.83394 22.6577 3.83394C22.2154 3.83394 21.8215 3.92896 21.476 4.119C21.1339 4.30905 20.8644 4.57165 20.6674 4.90682C20.4705 5.23854 20.372 5.61862 20.372 6.04709V11.2923H19.7397ZM24.7141 11.2923V3.33119H25.3309V4.57511H25.3879C25.5606 4.16738 25.8526 3.84085 26.2638 3.59552C26.675 3.34673 27.1432 3.22234 27.6684 3.22234C27.7237 3.22234 27.779 3.22234 27.8343 3.22234C27.8895 3.22234 27.9414 3.22407 27.9897 3.22753V3.86504C27.9483 3.86158 27.8982 3.8564 27.8394 3.84949C27.7841 3.83912 27.715 3.83394 27.6321 3.83394C27.1898 3.83394 26.7959 3.92896 26.4504 4.119C26.1083 4.30905 25.8388 4.57165 25.6418 4.90682C25.4449 5.23854 25.3464 5.61862 25.3464 6.04709V11.2923H24.7141ZM32.5508 11.4582C31.8321 11.4582 31.2067 11.2802 30.6745 10.9243C30.1424 10.5684 29.7312 10.0812 29.441 9.46269C29.1507 8.84419 29.0056 8.1393 29.0056 7.34802C29.0056 6.55329 29.1507 5.84495 29.441 5.22299C29.7347 4.60102 30.1372 4.11037 30.6486 3.75101C31.16 3.39165 31.744 3.21198 32.4005 3.21198C32.8462 3.21198 33.2678 3.30181 33.6651 3.48149C34.066 3.65771 34.4184 3.91341 34.7225 4.24858C35.03 4.58375 35.2702 4.98802 35.4429 5.4614C35.6191 5.93479 35.7073 6.46691 35.7073 7.05777V7.45168H29.4047V6.87637H35.0749C35.0749 6.29933 34.9574 5.7793 34.7225 5.31628C34.4875 4.85326 34.1679 4.48527 33.7636 4.2123C33.3593 3.93933 32.905 3.80284 32.4005 3.80284C31.8718 3.80284 31.4002 3.95142 30.9855 4.24858C30.5743 4.54228 30.2478 4.93965 30.0059 5.44067C29.7675 5.9417 29.6431 6.50146 29.6328 7.11997V7.37912C29.6328 8.04255 29.7485 8.63859 29.98 9.16726C30.215 9.69247 30.5502 10.1088 30.9855 10.4164C31.4209 10.7204 31.9427 10.8725 32.5508 10.8725C32.9862 10.8725 33.3576 10.7999 33.6651 10.6548C33.9761 10.5062 34.2301 10.3265 34.427 10.1158C34.624 9.90498 34.7726 9.70111 34.8728 9.50416L35.4481 9.73739C35.3272 10.0035 35.1388 10.2695 34.8832 10.5356C34.6309 10.7982 34.3096 11.0176 33.9191 11.1938C33.5321 11.37 33.076 11.4582 32.5508 11.4582ZM38.5164 6.13001V11.2923H37.8841V3.33119H38.5009V4.59066H38.5631C38.7497 4.17947 39.0486 3.84949 39.4598 3.6007C39.8709 3.35192 40.3599 3.22753 40.9265 3.22753C41.4621 3.22753 41.9321 3.34155 42.3363 3.5696C42.7441 3.79766 43.062 4.12246 43.29 4.54401C43.5215 4.96211 43.6373 5.4614 43.6373 6.0419V11.2923H43.0049V6.06782C43.0049 5.39057 42.8028 4.84635 42.3985 4.43517C41.9977 4.02053 41.4673 3.81321 40.8073 3.81321C40.3651 3.81321 39.9711 3.90996 39.6256 4.10345C39.2801 4.29695 39.0088 4.5682 38.8119 4.91719C38.6149 5.26272 38.5164 5.667 38.5164 6.13001ZM49.0794 3.33119V3.89613H45.6016V3.33119H49.0794ZM46.7782 1.42384H47.4053V9.41086C47.4053 9.73566 47.4675 10.0017 47.5919 10.209C47.7198 10.4129 47.8856 10.5649 48.0895 10.6652C48.2968 10.7619 48.5179 10.8103 48.7529 10.8103C48.8669 10.8103 48.9654 10.8016 49.0483 10.7844C49.1347 10.7671 49.2159 10.7446 49.2919 10.717L49.4474 11.2923C49.3507 11.3269 49.2436 11.3562 49.1261 11.3804C49.0086 11.4081 48.8704 11.4219 48.7114 11.4219C48.3797 11.4219 48.0653 11.3476 47.7681 11.199C47.4744 11.0504 47.236 10.8345 47.0529 10.5511C46.8697 10.2678 46.7782 9.92571 46.7782 9.52489V1.42384ZM55.5297 11.2923V3.33119H56.1465V4.57511H56.2035C56.3763 4.16738 56.6682 3.84085 57.0794 3.59552C57.4906 3.34673 57.9588 3.22234 58.484 3.22234C58.5393 3.22234 58.5946 3.22234 58.6499 3.22234C58.7052 3.22234 58.757 3.22407 58.8054 3.22753V3.86504C58.7639 3.86158 58.7138 3.8564 58.6551 3.84949C58.5998 3.83912 58.5307 3.83394 58.4477 3.83394C58.0054 3.83394 57.6115 3.92896 57.266 4.119C56.9239 4.30905 56.6544 4.57165 56.4575 4.90682C56.2605 5.23854 56.162 5.61862 56.162 6.04709V11.2923H55.5297ZM63.3664 11.4582C62.6477 11.4582 62.0223 11.2802 61.4902 10.9243C60.958 10.5684 60.5469 10.0812 60.2566 9.46269C59.9664 8.84419 59.8212 8.1393 59.8212 7.34802C59.8212 6.55329 59.9664 5.84495 60.2566 5.22299C60.5503 4.60102 60.9529 4.11037 61.4642 3.75101C61.9756 3.39165 62.5596 3.21198 63.2161 3.21198C63.6618 3.21198 64.0834 3.30181 64.4808 3.48149C64.8816 3.65771 65.234 3.91341 65.5381 4.24858C65.8456 4.58375 66.0858 4.98802 66.2585 5.4614C66.4348 5.93479 66.5229 6.46691 66.5229 7.05777V7.45168H60.2203V6.87637H65.8905C65.8905 6.29933 65.7731 5.7793 65.5381 5.31628C65.3031 4.85326 64.9835 4.48527 64.5792 4.2123C64.175 3.93933 63.7206 3.80284 63.2161 3.80284C62.6874 3.80284 62.2158 3.95142 61.8011 4.24858C61.39 4.54228 61.0634 4.93965 60.8216 5.44067C60.5831 5.9417 60.4587 6.50146 60.4484 7.11997V7.37912C60.4484 8.04255 60.5641 8.63859 60.7956 9.16726C61.0306 9.69247 61.3658 10.1088 61.8011 10.4164C62.2365 10.7204 62.7583 10.8725 63.3664 10.8725C63.8018 10.8725 64.1732 10.7999 64.4808 10.6548C64.7917 10.5062 65.0457 10.3265 65.2427 10.1158C65.4396 9.90498 65.5882 9.70111 65.6884 9.50416L66.2637 9.73739C66.1428 10.0035 65.9545 10.2695 65.6988 10.5356C65.4465 10.7982 65.1252 11.0176 64.7347 11.1938C64.3477 11.37 63.8916 11.4582 63.3664 11.4582ZM73.7584 5.04676L73.1727 5.20225C73.0794 4.912 72.9464 4.66149 72.7736 4.45072C72.6008 4.23994 72.3831 4.07754 72.1205 3.96351C71.8614 3.84603 71.5504 3.78729 71.1876 3.78729C70.6036 3.78729 70.1251 3.93241 69.7519 4.22266C69.3822 4.51291 69.1973 4.89127 69.1973 5.35774C69.1973 5.73783 69.3234 6.05227 69.5757 6.30105C69.8279 6.54638 70.2132 6.73297 70.7315 6.86082L71.9547 7.16662C72.5835 7.32211 73.0569 7.57435 73.3748 7.92334C73.6927 8.26887 73.8517 8.69906 73.8517 9.21391C73.8517 9.65274 73.7324 10.0415 73.494 10.3801C73.2556 10.7187 72.9256 10.983 72.5041 11.1731C72.086 11.3631 71.5988 11.4582 71.0425 11.4582C70.2996 11.4582 69.6897 11.2854 69.2129 10.9399C68.736 10.5909 68.4302 10.0916 68.2955 9.44196L68.9019 9.28647C69.0159 9.80477 69.2526 10.2004 69.6119 10.4734C69.9748 10.7429 70.4499 10.8777 71.0373 10.8777C71.6869 10.8777 72.2104 10.7239 72.6077 10.4164C73.0086 10.1088 73.209 9.71493 73.209 9.23464C73.209 8.86837 73.0915 8.55912 72.8565 8.30688C72.6216 8.05464 72.2657 7.86978 71.7888 7.7523L70.519 7.44132C69.8694 7.28237 69.3822 7.0284 69.0574 6.67941C68.7326 6.32697 68.5702 5.89332 68.5702 5.37848C68.5702 4.95001 68.6825 4.57338 68.9071 4.24858C69.1317 3.92378 69.4409 3.66981 69.8348 3.48668C70.2287 3.30354 70.6797 3.21198 71.1876 3.21198C71.8614 3.21198 72.4108 3.37092 72.8358 3.68881C73.2608 4.0067 73.5683 4.45935 73.7584 5.04676ZM79.1448 11.4582C78.4261 11.4582 77.8007 11.2802 77.2686 10.9243C76.7364 10.5684 76.3253 10.0812 76.035 9.46269C75.7448 8.84419 75.5996 8.1393 75.5996 7.34802C75.5996 6.55329 75.7448 5.84495 76.035 5.22299C76.3287 4.60102 76.7313 4.11037 77.2426 3.75101C77.754 3.39165 78.338 3.21198 78.9945 3.21198C79.4402 3.21198 79.8618 3.30181 80.2592 3.48149C80.66 3.65771 81.0124 3.91341 81.3165 4.24858C81.624 4.58375 81.8642 4.98802 82.0369 5.4614C82.2132 5.93479 82.3013 6.46691 82.3013 7.05777V7.45168H75.9987V6.87637H81.6689C81.6689 6.29933 81.5515 5.7793 81.3165 5.31628C81.0815 4.85326 80.7619 4.48527 80.3576 4.2123C79.9534 3.93933 79.499 3.80284 78.9945 3.80284C78.4658 3.80284 77.9942 3.95142 77.5795 4.24858C77.1684 4.54228 76.8418 4.93965 76.6 5.44067C76.3615 5.9417 76.2371 6.50146 76.2268 7.11997V7.37912C76.2268 8.04255 76.3425 8.63859 76.574 9.16726C76.809 9.69247 77.1442 10.1088 77.5795 10.4164C78.0149 10.7204 78.5367 10.8725 79.1448 10.8725C79.5802 10.8725 79.9516 10.7999 80.2592 10.6548C80.5701 10.5062 80.8241 10.3265 81.0211 10.1158C81.218 9.90498 81.3666 9.70111 81.4668 9.50416L82.0421 9.73739C81.9212 10.0035 81.7329 10.2695 81.4772 10.5356C81.2249 10.7982 80.9036 11.0176 80.5131 11.1938C80.1261 11.37 79.67 11.4582 79.1448 11.4582ZM84.4781 11.2923V3.33119H85.0949V4.57511H85.1519C85.3247 4.16738 85.6167 3.84085 86.0279 3.59552C86.439 3.34673 86.9072 3.22234 87.4325 3.22234C87.4877 3.22234 87.543 3.22234 87.5983 3.22234C87.6536 3.22234 87.7054 3.22407 87.7538 3.22753V3.86504C87.7123 3.86158 87.6622 3.8564 87.6035 3.84949C87.5482 3.83912 87.4791 3.83394 87.3962 3.83394C86.9539 3.83394 86.56 3.92896 86.2144 4.119C85.8724 4.30905 85.6028 4.57165 85.4059 4.90682C85.2089 5.23854 85.1105 5.61862 85.1105 6.04709V11.2923H84.4781ZM95.5154 3.33119L92.6388 11.2923H91.9235L89.047 3.33119H89.7259L92.2553 10.4786H92.3071L94.8364 3.33119H95.5154ZM99.3586 11.4633C98.899 11.4633 98.4775 11.3718 98.0939 11.1886C97.7138 11.0055 97.408 10.7377 97.1765 10.3853C96.9485 10.0328 96.8344 9.60436 96.8344 9.09988C96.8344 8.76817 96.8932 8.47619 97.0107 8.22395C97.1281 7.97171 97.3096 7.75403 97.5549 7.57089C97.8002 7.38776 98.1146 7.23745 98.4982 7.11997C98.8817 6.99903 99.3396 6.90574 99.8717 6.84009C100.276 6.79171 100.637 6.74506 100.955 6.70015C101.273 6.65177 101.522 6.57748 101.701 6.47728C101.884 6.37707 101.976 6.22504 101.976 6.02117V5.68946C101.976 5.10896 101.793 4.64767 101.427 4.30559C101.06 3.96351 100.556 3.79247 99.9132 3.79247C99.343 3.79247 98.8627 3.91859 98.4723 4.17083C98.0853 4.41962 97.814 4.74097 97.6585 5.13487L97.0625 4.912C97.2145 4.53192 97.4339 4.21575 97.7207 3.96351C98.011 3.71127 98.3427 3.52296 98.7159 3.39856C99.0925 3.27417 99.4864 3.21198 99.8976 3.21198C100.254 3.21198 100.592 3.26208 100.913 3.36228C101.238 3.46249 101.527 3.61452 101.779 3.81839C102.035 4.02225 102.237 4.28313 102.385 4.60102C102.534 4.91546 102.608 5.29209 102.608 5.73092V11.2923H101.976V9.8566H101.929C101.791 10.1538 101.601 10.425 101.359 10.6703C101.121 10.9122 100.832 11.1057 100.494 11.2508C100.158 11.3925 99.7801 11.4633 99.3586 11.4633ZM99.4208 10.8777C99.9183 10.8777 100.359 10.7567 100.742 10.5148C101.129 10.2695 101.432 9.93435 101.649 9.50934C101.867 9.08433 101.976 8.60231 101.976 8.06328V6.89192C101.897 6.96102 101.781 7.02322 101.629 7.07851C101.48 7.13034 101.311 7.17698 101.121 7.21845C100.934 7.25646 100.737 7.29101 100.53 7.32211C100.326 7.34975 100.127 7.37566 99.9339 7.39985C99.3534 7.46896 98.88 7.57608 98.5137 7.7212C98.1509 7.86287 97.8849 8.04946 97.7156 8.28097C97.5497 8.51247 97.4668 8.79236 97.4668 9.12061C97.4668 9.6631 97.6534 10.0916 98.0265 10.406C98.3997 10.7204 98.8645 10.8777 99.4208 10.8777ZM108.074 3.33119V3.89613H104.596V3.33119H108.074ZM105.773 1.42384H106.4V9.41086C106.4 9.73566 106.462 10.0017 106.586 10.209C106.714 10.4129 106.88 10.5649 107.084 10.6652C107.291 10.7619 107.512 10.8103 107.747 10.8103C107.861 10.8103 107.96 10.8016 108.043 10.7844C108.129 10.7671 108.21 10.7446 108.286 10.717L108.442 11.2923C108.345 11.3269 108.238 11.3562 108.12 11.3804C108.003 11.4081 107.865 11.4219 107.706 11.4219C107.374 11.4219 107.06 11.3476 106.763 11.199C106.469 11.0504 106.23 10.8345 106.047 10.5511C105.864 10.2678 105.773 9.92571 105.773 9.52489V1.42384ZM110.45 11.2923V3.33119H111.077V11.2923H110.45ZM110.766 1.9214C110.628 1.9214 110.507 1.87303 110.404 1.77628C110.303 1.67953 110.253 1.56205 110.253 1.42384C110.253 1.28562 110.303 1.16814 110.404 1.07139C110.504 0.97464 110.625 0.926265 110.766 0.926265C110.905 0.926265 111.024 0.97464 111.124 1.07139C111.228 1.16814 111.28 1.28562 111.28 1.42384C111.28 1.56205 111.229 1.67953 111.129 1.77628C111.029 1.87303 110.908 1.9214 110.766 1.9214ZM116.685 11.4582C116.029 11.4582 115.445 11.2819 114.934 10.9295C114.422 10.5736 114.02 10.0847 113.726 9.46269C113.432 8.84073 113.285 8.13239 113.285 7.33766C113.285 6.53947 113.432 5.83113 113.726 5.21262C114.02 4.59066 114.422 4.10173 114.934 3.74583C115.445 3.38993 116.029 3.21198 116.685 3.21198C117.342 3.21198 117.926 3.38993 118.437 3.74583C118.949 4.10173 119.351 4.59066 119.645 5.21262C119.939 5.83458 120.085 6.54293 120.085 7.33766C120.085 8.13239 119.939 8.84073 119.645 9.46269C119.351 10.0847 118.949 10.5736 118.437 10.9295C117.926 11.2819 117.342 11.4582 116.685 11.4582ZM116.685 10.8725C117.242 10.8725 117.727 10.7153 118.142 10.4008C118.56 10.0864 118.883 9.66138 119.111 9.1258C119.343 8.59022 119.458 7.99417 119.458 7.33766C119.458 6.68114 119.343 6.08682 119.111 5.5547C118.88 5.01912 118.556 4.59411 118.142 4.27968C117.727 3.96179 117.242 3.80284 116.685 3.80284C116.129 3.80284 115.644 3.96179 115.229 4.27968C114.814 4.59411 114.491 5.01912 114.26 5.5547C114.028 6.08682 113.912 6.68114 113.912 7.33766C113.912 7.99417 114.027 8.59022 114.255 9.1258C114.486 9.66138 114.809 10.0864 115.224 10.4008C115.642 10.7153 116.129 10.8725 116.685 10.8725ZM122.896 6.13001V11.2923H122.264V3.33119H122.88V4.59066H122.943C123.129 4.17947 123.428 3.84949 123.839 3.6007C124.25 3.35192 124.739 3.22753 125.306 3.22753C125.842 3.22753 126.312 3.34155 126.716 3.5696C127.124 3.79766 127.441 4.12246 127.669 4.54401C127.901 4.96211 128.017 5.4614 128.017 6.0419V11.2923H127.384V6.06782C127.384 5.39057 127.182 4.84635 126.778 4.43517C126.377 4.02053 125.847 3.81321 125.187 3.81321C124.745 3.81321 124.351 3.90996 124.005 4.10345C123.66 4.29695 123.388 4.5682 123.191 4.91719C122.994 5.26272 122.896 5.667 122.896 6.13001ZM135.703 5.04676L135.117 5.20225C135.024 4.912 134.891 4.66149 134.718 4.45072C134.546 4.23994 134.328 4.07754 134.065 3.96351C133.806 3.84603 133.495 3.78729 133.132 3.78729C132.548 3.78729 132.07 3.93241 131.697 4.22266C131.327 4.51291 131.142 4.89127 131.142 5.35774C131.142 5.73783 131.268 6.05227 131.52 6.30105C131.773 6.54638 132.158 6.73297 132.676 6.86082L133.899 7.16662C134.528 7.32211 135.002 7.57435 135.32 7.92334C135.638 8.26887 135.796 8.69906 135.796 9.21391C135.796 9.65274 135.677 10.0415 135.439 10.3801C135.2 10.7187 134.87 10.983 134.449 11.1731C134.031 11.3631 133.544 11.4582 132.987 11.4582C132.244 11.4582 131.635 11.2854 131.158 10.9399C130.681 10.5909 130.375 10.0916 130.24 9.44196L130.847 9.28647C130.961 9.80477 131.197 10.2004 131.557 10.4734C131.92 10.7429 132.395 10.8777 132.982 10.8777C133.632 10.8777 134.155 10.7239 134.553 10.4164C134.953 10.1088 135.154 9.71493 135.154 9.23464C135.154 8.86837 135.036 8.55912 134.801 8.30688C134.566 8.05464 134.21 7.86978 133.734 7.7523L132.464 7.44132C131.814 7.28237 131.327 7.0284 131.002 6.67941C130.677 6.32697 130.515 5.89332 130.515 5.37848C130.515 4.95001 130.627 4.57338 130.852 4.24858C131.076 3.92378 131.386 3.66981 131.78 3.48668C132.174 3.30354 132.624 3.21198 133.132 3.21198C133.806 3.21198 134.356 3.37092 134.781 3.68881C135.206 4.0067 135.513 4.45935 135.703 5.04676Z" fill="white"/>
</svg>
