<svg width="313" height="33" viewBox="0 0 313 33" fill="none" xmlns="http://www.w3.org/2000/svg">
<rect x="0.616943" y="0.125778" width="311.766" height="32.2338" rx="7" fill="#4C4C4C"/>
<path d="M14.1874 21.0138V13.5297H14.6442V17.8747H14.6953L18.642 13.5297H19.2486L15.9999 17.0708L19.2194 21.0138H18.6493L15.7076 17.3996L14.6442 18.5763V21.0138H14.1874ZM21.7272 16.5226V16.9063L19.5784 17.8309V17.4472L21.7272 16.5226ZM20.8684 13.5297V21.0138H20.4262V13.5297H20.8684ZM24.7493 21.1307C24.2864 21.1307 23.8747 21.0065 23.5141 20.758C23.1536 20.507 22.8697 20.1623 22.6627 19.7238C22.4556 19.2853 22.352 18.7859 22.352 18.2255C22.352 17.6628 22.4556 17.1633 22.6627 16.7273C22.8697 16.2887 23.1536 15.944 23.5141 15.6931C23.8747 15.4422 24.2864 15.3167 24.7493 15.3167C25.2121 15.3167 25.6239 15.4422 25.9844 15.6931C26.345 15.944 26.6288 16.2887 26.8359 16.7273C27.043 17.1658 27.1465 17.6652 27.1465 18.2255C27.1465 18.7859 27.043 19.2853 26.8359 19.7238C26.6288 20.1623 26.345 20.507 25.9844 20.758C25.6239 21.0065 25.2121 21.1307 24.7493 21.1307ZM24.7493 20.7178C25.1415 20.7178 25.4838 20.6069 25.7761 20.3852C26.0709 20.1635 26.2987 19.8639 26.4595 19.4863C26.6227 19.1086 26.7043 18.6884 26.7043 18.2255C26.7043 17.7626 26.6227 17.3436 26.4595 16.9684C26.2963 16.5908 26.0685 16.2912 25.7761 16.0695C25.4838 15.8453 25.1415 15.7333 24.7493 15.7333C24.357 15.7333 24.0148 15.8453 23.7224 16.0695C23.4301 16.2912 23.2023 16.5908 23.039 16.9684C22.8758 17.3436 22.7942 17.7626 22.7942 18.2255C22.7942 18.6884 22.8746 19.1086 23.0354 19.4863C23.1986 19.8639 23.4264 20.1635 23.7188 20.3852C24.0135 20.6069 24.357 20.7178 24.7493 20.7178ZM28.8394 21.0138V13.5297H29.2815V16.6542H29.3254C29.4131 16.413 29.5373 16.1913 29.6981 15.9891C29.8589 15.7869 30.0587 15.6249 30.2974 15.5031C30.5362 15.3788 30.8151 15.3167 31.1343 15.3167C31.585 15.3167 31.9784 15.4422 32.3146 15.6931C32.6508 15.9416 32.9115 16.2851 33.0966 16.7236C33.2818 17.1597 33.3744 17.6591 33.3744 18.2219C33.3744 18.7895 33.2818 19.2926 33.0966 19.7311C32.9115 20.1672 32.652 20.5095 32.3183 20.758C31.9845 21.0065 31.5911 21.1307 31.1379 21.1307C30.8188 21.1307 30.5398 21.0698 30.3011 20.948C30.0623 20.8237 29.8626 20.6605 29.7018 20.4583C29.541 20.2537 29.4155 20.0308 29.3254 19.7896H29.2742V21.0138H28.8394ZM29.2779 18.2182C29.2779 18.6957 29.3497 19.1233 29.4935 19.5009C29.6397 19.8761 29.8492 20.1733 30.122 20.3925C30.3949 20.6094 30.7213 20.7178 31.1014 20.7178C31.4863 20.7178 31.8152 20.6081 32.088 20.3889C32.3609 20.1672 32.5692 19.8675 32.7129 19.4899C32.8591 19.1123 32.9322 18.6884 32.9322 18.2182C32.9322 17.748 32.8591 17.3253 32.7129 16.9502C32.5692 16.575 32.3609 16.279 32.088 16.0622C31.8152 15.8429 31.4863 15.7333 31.1014 15.7333C30.7213 15.7333 30.3949 15.8417 30.122 16.0585C29.8492 16.2729 29.6397 16.5677 29.4935 16.9429C29.3497 17.3156 29.2779 17.7407 29.2779 18.2182ZM38.5087 19.0222V15.4007H38.9545V21.0138H38.5087V20.1038H38.4721C38.3406 20.3937 38.1274 20.6301 37.8326 20.8128C37.5403 20.9955 37.1943 21.0868 36.7948 21.0868C36.4269 21.0868 36.1017 21.0065 35.8191 20.8457C35.5365 20.6849 35.3148 20.4571 35.154 20.1623C34.9932 19.8651 34.9128 19.5118 34.9128 19.1026V15.4007H35.3587V19.0843C35.3587 19.552 35.5 19.9309 35.7826 20.2208C36.0676 20.5083 36.4355 20.652 36.8862 20.652C37.1785 20.652 37.4477 20.5862 37.6938 20.4547C37.9398 20.3231 38.1372 20.1355 38.2858 19.8919C38.4344 19.6458 38.5087 19.3559 38.5087 19.0222ZM42.9066 21.1307C42.4291 21.1307 42.0089 21.0052 41.6459 20.7543C41.2829 20.5009 40.9991 20.155 40.7944 19.7165C40.5922 19.278 40.4911 18.781 40.4911 18.2255C40.4911 17.6701 40.5935 17.1731 40.7981 16.7346C41.0027 16.296 41.2866 15.9501 41.6496 15.6967C42.0125 15.4434 42.4304 15.3167 42.903 15.3167C43.2587 15.3167 43.5827 15.3898 43.875 15.5359C44.1698 15.6821 44.4134 15.8855 44.6059 16.1462C44.8008 16.4069 44.925 16.709 44.9786 17.0525H44.5255C44.4524 16.6724 44.2697 16.3582 43.9774 16.1097C43.6874 15.8587 43.3305 15.7333 42.9066 15.7333C42.5266 15.7333 42.188 15.8405 41.8907 16.0549C41.5935 16.2668 41.3596 16.5604 41.1891 16.9355C41.0186 17.3083 40.9333 17.7358 40.9333 18.2182C40.9333 18.6933 41.0161 19.1196 41.1818 19.4972C41.3475 19.8724 41.5789 20.1696 41.8761 20.3889C42.1733 20.6081 42.5168 20.7178 42.9066 20.7178C43.1819 20.7178 43.4329 20.6629 43.6594 20.5533C43.8884 20.4437 44.0797 20.2878 44.2332 20.0856C44.3866 19.8834 44.4877 19.6471 44.5365 19.3766H44.9896C44.936 19.7226 44.8142 20.0271 44.6242 20.2902C44.4341 20.5533 44.1917 20.7592 43.897 20.9078C43.6022 21.0564 43.2721 21.1307 42.9066 21.1307ZM46.8971 18.8212L46.8898 18.1817H47.0068L49.8133 15.4007H50.3943L47.818 17.9588L47.7742 17.977L46.8971 18.8212ZM46.5098 21.0138V13.5297H46.9556V21.0138H46.5098ZM49.9412 21.0138L47.5732 18.0209L47.8948 17.7249L50.5113 21.0138H49.9412ZM53.2027 21.1344C52.8786 21.1344 52.5814 21.0698 52.311 20.9407C52.043 20.8116 51.8274 20.6228 51.6642 20.3743C51.5034 20.1258 51.423 19.8237 51.423 19.468C51.423 19.2341 51.4644 19.0283 51.5473 18.8504C51.6301 18.6726 51.758 18.5191 51.931 18.39C52.1039 18.2608 52.3256 18.1549 52.596 18.072C52.8665 17.9868 53.1893 17.921 53.5644 17.8747C53.8495 17.8406 54.1041 17.8077 54.3282 17.776C54.5523 17.7419 54.7277 17.6896 54.8544 17.6189C54.9835 17.5483 55.0481 17.4411 55.0481 17.2973V17.0635C55.0481 16.6542 54.919 16.3289 54.6607 16.0877C54.4025 15.8466 54.0468 15.726 53.5937 15.726C53.1917 15.726 52.8531 15.8149 52.5778 15.9927C52.3049 16.1681 52.1137 16.3947 52.004 16.6724L51.5838 16.5153C51.691 16.2473 51.8457 16.0244 52.0479 15.8466C52.2525 15.6687 52.4864 15.5359 52.7495 15.4482C53.0151 15.3605 53.2928 15.3167 53.5827 15.3167C53.8336 15.3167 54.0724 15.352 54.299 15.4227C54.528 15.4933 54.7314 15.6005 54.9092 15.7442C55.0895 15.888 55.232 16.0719 55.3368 16.296C55.4415 16.5177 55.4939 16.7833 55.4939 17.0927V21.0138H55.0481V20.0015H55.0152C54.9178 20.211 54.7838 20.4023 54.6132 20.5752C54.4451 20.7458 54.2417 20.8822 54.003 20.9845C53.7666 21.0844 53.4999 21.1344 53.2027 21.1344ZM53.2465 20.7214C53.5973 20.7214 53.9079 20.6362 54.1784 20.4656C54.4512 20.2926 54.6644 20.0563 54.8179 19.7567C54.9714 19.457 55.0481 19.1172 55.0481 18.7371V17.9113C54.9921 17.96 54.9104 18.0038 54.8033 18.0428C54.6985 18.0793 54.5791 18.1122 54.4451 18.1415C54.3136 18.1683 54.1747 18.1926 54.0285 18.2146C53.8848 18.234 53.7447 18.2523 53.6083 18.2694C53.199 18.3181 52.8652 18.3936 52.607 18.4959C52.3512 18.5958 52.1636 18.7274 52.0442 18.8906C51.9273 19.0538 51.8688 19.2512 51.8688 19.4826C51.8688 19.8651 52.0004 20.1672 52.2635 20.3889C52.5266 20.6106 52.8543 20.7214 53.2465 20.7214ZM60.2244 21.0138V20.6666L62.6472 17.8747C62.9932 17.4752 63.2673 17.1365 63.4695 16.8588C63.6717 16.5811 63.8166 16.3302 63.9043 16.106C63.992 15.8819 64.0359 15.648 64.0359 15.4044C64.0359 15.0999 63.964 14.8307 63.8203 14.5968C63.679 14.3605 63.4853 14.1765 63.2392 14.045C62.9956 13.9134 62.7179 13.8477 62.4061 13.8477C62.0796 13.8477 61.7933 13.9195 61.5473 14.0633C61.3012 14.207 61.1088 14.4019 60.9699 14.6479C60.8335 14.894 60.7653 15.1705 60.7653 15.4775H60.3231C60.3231 15.0901 60.4132 14.7417 60.5935 14.4323C60.7738 14.1229 61.0211 13.8781 61.3353 13.6978C61.652 13.5175 62.0126 13.4274 62.417 13.4274C62.8141 13.4274 63.1674 13.5139 63.4768 13.6869C63.7862 13.8598 64.0298 14.0961 64.2076 14.3958C64.3855 14.693 64.4744 15.0292 64.4744 15.4044C64.4744 15.6797 64.4269 15.9452 64.3319 16.201C64.2393 16.4544 64.0797 16.7382 63.8532 17.0525C63.6266 17.3643 63.3135 17.7492 62.914 18.2073L60.8822 20.5497V20.5899H64.8106V21.0138H60.2244ZM66.7492 21.0138L70.2245 13.9938V13.9536H66.2303V13.5297H70.7214V13.9682L67.2425 21.0138H66.7492ZM71.8872 19.9906L71.8214 20.3743C71.7775 20.6252 71.7215 20.9078 71.6533 21.2221C71.5875 21.5388 71.5193 21.8433 71.4487 22.1356C71.378 22.428 71.3134 22.6631 71.255 22.8409H70.9078C70.9419 22.6655 70.9833 22.4499 71.0321 22.1941C71.0832 21.9407 71.1356 21.6606 71.1892 21.3536C71.2452 21.0467 71.2976 20.7287 71.3463 20.3998L71.4121 19.9906H71.8872ZM78.0273 21.0138L75.97 13.5297H76.445L78.2722 20.3085H78.316L80.1139 13.5297H80.6694L82.4673 20.3085H82.5112L84.3383 13.5297H84.8097L82.7524 21.0138H82.2261L80.4099 14.2789H80.3697L78.5536 21.0138H78.0273ZM86.9685 21.1344C86.6445 21.1344 86.3473 21.0698 86.0769 20.9407C85.8089 20.8116 85.5933 20.6228 85.4301 20.3743C85.2693 20.1258 85.1889 19.8237 85.1889 19.468C85.1889 19.2341 85.2303 19.0283 85.3131 18.8504C85.3959 18.6726 85.5238 18.5191 85.6968 18.39C85.8698 18.2608 86.0915 18.1549 86.3619 18.072C86.6323 17.9868 86.9551 17.921 87.3303 17.8747C87.6153 17.8406 87.8699 17.8077 88.094 17.776C88.3182 17.7419 88.4936 17.6896 88.6203 17.6189C88.7494 17.5483 88.8139 17.4411 88.8139 17.2973V17.0635C88.8139 16.6542 88.6848 16.3289 88.4266 16.0877C88.1684 15.8466 87.8127 15.726 87.3595 15.726C86.9576 15.726 86.6189 15.8149 86.3436 15.9927C86.0708 16.1681 85.8795 16.3947 85.7699 16.6724L85.3497 16.5153C85.4569 16.2473 85.6115 16.0244 85.8138 15.8466C86.0184 15.6687 86.2523 15.5359 86.5154 15.4482C86.7809 15.3605 87.0587 15.3167 87.3486 15.3167C87.5995 15.3167 87.8382 15.352 88.0648 15.4227C88.2938 15.4933 88.4972 15.6005 88.6751 15.7442C88.8554 15.888 88.9979 16.0719 89.1026 16.296C89.2074 16.5177 89.2598 16.7833 89.2598 17.0927V21.0138H88.8139V20.0015H88.7811C88.6836 20.211 88.5496 20.4023 88.3791 20.5752C88.211 20.7458 88.0076 20.8822 87.7688 20.9845C87.5325 21.0844 87.2657 21.1344 86.9685 21.1344ZM87.0124 20.7214C87.3632 20.7214 87.6738 20.6362 87.9442 20.4656C88.2171 20.2926 88.4302 20.0563 88.5837 19.7567C88.7372 19.457 88.8139 19.1172 88.8139 18.7371V17.9113C88.7579 17.96 88.6763 18.0038 88.5691 18.0428C88.4644 18.0793 88.345 18.1122 88.211 18.1415C88.0794 18.1683 87.9406 18.1926 87.7944 18.2146C87.6507 18.234 87.5106 18.2523 87.3741 18.2694C86.9649 18.3181 86.6311 18.3936 86.3729 18.4959C86.1171 18.5958 85.9295 18.7274 85.8101 18.8906C85.6932 19.0538 85.6347 19.2512 85.6347 19.4826C85.6347 19.8651 85.7662 20.1672 86.0294 20.3889C86.2925 20.6106 86.6201 20.7214 87.0124 20.7214ZM91.129 21.0138V15.4007H91.5638V16.2778H91.604C91.7258 15.9903 91.9317 15.7601 92.2216 15.5871C92.5115 15.4117 92.8416 15.324 93.2119 15.324C93.2509 15.324 93.2899 15.324 93.3289 15.324C93.3678 15.324 93.4044 15.3252 93.4385 15.3277V15.7771C93.4092 15.7747 93.3739 15.771 93.3325 15.7662C93.2935 15.7589 93.2448 15.7552 93.1863 15.7552C92.8745 15.7552 92.5968 15.8222 92.3532 15.9562C92.112 16.0902 91.9219 16.2753 91.7831 16.5116C91.6442 16.7455 91.5748 17.0135 91.5748 17.3156V21.0138H91.129ZM98.2028 16.6103L97.7899 16.7199C97.7241 16.5153 97.6303 16.3387 97.5085 16.1901C97.3867 16.0415 97.2332 15.927 97.048 15.8466C96.8653 15.7637 96.6461 15.7223 96.3903 15.7223C95.9785 15.7223 95.6411 15.8246 95.378 16.0293C95.1173 16.2339 94.987 16.5007 94.987 16.8296C94.987 17.0976 95.0759 17.3193 95.2538 17.4947C95.4316 17.6676 95.7032 17.7992 96.0687 17.8893L96.9311 18.1049C97.3745 18.2146 97.7082 18.3924 97.9324 18.6385C98.1565 18.8821 98.2686 19.1854 98.2686 19.5484C98.2686 19.8578 98.1845 20.1319 98.0164 20.3706C97.8483 20.6094 97.6157 20.7957 97.3184 20.9297C97.0237 21.0637 96.6802 21.1307 96.2879 21.1307C95.7641 21.1307 95.3342 21.0089 94.998 20.7653C94.6618 20.5192 94.4462 20.1672 94.3511 19.7092L94.7787 19.5995C94.8591 19.965 95.026 20.2439 95.2793 20.4364C95.5351 20.6264 95.8701 20.7214 96.2843 20.7214C96.7423 20.7214 97.1114 20.613 97.3915 20.3962C97.6741 20.1794 97.8154 19.9016 97.8154 19.563C97.8154 19.3048 97.7326 19.0867 97.5669 18.9089C97.4013 18.731 97.1503 18.6007 96.8142 18.5179L95.9188 18.2986C95.4608 18.1865 95.1173 18.0075 94.8883 17.7614C94.6593 17.5129 94.5448 17.2072 94.5448 16.8442C94.5448 16.5421 94.624 16.2766 94.7824 16.0476C94.9407 15.8185 95.1587 15.6395 95.4365 15.5104C95.7142 15.3812 96.0321 15.3167 96.3903 15.3167C96.8653 15.3167 97.2527 15.4288 97.5523 15.6529C97.852 15.877 98.0688 16.1962 98.2028 16.6103ZM99.6216 21.0138V20.6374L102.925 15.8648V15.8246H99.8043V15.4007H103.491V15.7844L100.217 20.5497V20.5899H103.623V21.0138H99.6216ZM106.645 21.1344C106.321 21.1344 106.024 21.0698 105.754 20.9407C105.486 20.8116 105.27 20.6228 105.107 20.3743C104.946 20.1258 104.866 19.8237 104.866 19.468C104.866 19.2341 104.907 19.0283 104.99 18.8504C105.073 18.6726 105.2 18.5191 105.373 18.39C105.546 18.2608 105.768 18.1549 106.039 18.072C106.309 17.9868 106.632 17.921 107.007 17.8747C107.292 17.8406 107.547 17.8077 107.771 17.776C107.995 17.7419 108.17 17.6896 108.297 17.6189C108.426 17.5483 108.491 17.4411 108.491 17.2973V17.0635C108.491 16.6542 108.361 16.3289 108.103 16.0877C107.845 15.8466 107.489 15.726 107.036 15.726C106.634 15.726 106.296 15.8149 106.02 15.9927C105.747 16.1681 105.556 16.3947 105.447 16.6724L105.026 16.5153C105.134 16.2473 105.288 16.0244 105.49 15.8466C105.695 15.6687 105.929 15.5359 106.192 15.4482C106.458 15.3605 106.735 15.3167 107.025 15.3167C107.276 15.3167 107.515 15.352 107.741 15.4227C107.97 15.4933 108.174 15.6005 108.352 15.7442C108.532 15.888 108.675 16.0719 108.779 16.296C108.884 16.5177 108.936 16.7833 108.936 17.0927V21.0138H108.491V20.0015H108.458C108.36 20.211 108.226 20.4023 108.056 20.5752C107.888 20.7458 107.684 20.8822 107.445 20.9845C107.209 21.0844 106.942 21.1344 106.645 21.1344ZM106.689 20.7214C107.04 20.7214 107.35 20.6362 107.621 20.4656C107.894 20.2926 108.107 20.0563 108.26 19.7567C108.414 19.457 108.491 19.1172 108.491 18.7371V17.9113C108.435 17.96 108.353 18.0038 108.246 18.0428C108.141 18.0793 108.022 18.1122 107.888 18.1415C107.756 18.1683 107.617 18.1926 107.471 18.2146C107.327 18.234 107.187 18.2523 107.051 18.2694C106.642 18.3181 106.308 18.3936 106.05 18.4959C105.794 18.5958 105.606 18.7274 105.487 18.8906C105.37 19.0538 105.311 19.2512 105.311 19.4826C105.311 19.8651 105.443 20.1672 105.706 20.3889C105.969 20.6106 106.297 20.7214 106.689 20.7214ZM112.03 21.0138L110.349 15.4007H110.817L112.264 20.3596H112.304L113.755 15.4007H114.219L115.666 20.356H115.702L117.149 15.4007H117.617L115.936 21.0138H115.439L114.007 16.1279H113.959L112.527 21.0138H112.03ZM120.493 21.1344C120.169 21.1344 119.872 21.0698 119.602 20.9407C119.334 20.8116 119.118 20.6228 118.955 20.3743C118.794 20.1258 118.714 19.8237 118.714 19.468C118.714 19.2341 118.755 19.0283 118.838 18.8504C118.921 18.6726 119.049 18.5191 119.221 18.39C119.394 18.2608 119.616 18.1549 119.887 18.072C120.157 17.9868 120.48 17.921 120.855 17.8747C121.14 17.8406 121.395 17.8077 121.619 17.776C121.843 17.7419 122.018 17.6896 122.145 17.6189C122.274 17.5483 122.339 17.4411 122.339 17.2973V17.0635C122.339 16.6542 122.21 16.3289 121.951 16.0877C121.693 15.8466 121.337 15.726 120.884 15.726C120.482 15.726 120.144 15.8149 119.868 15.9927C119.595 16.1681 119.404 16.3947 119.295 16.6724L118.874 16.5153C118.982 16.2473 119.136 16.0244 119.338 15.8466C119.543 15.6687 119.777 15.5359 120.04 15.4482C120.306 15.3605 120.583 15.3167 120.873 15.3167C121.124 15.3167 121.363 15.352 121.589 15.4227C121.818 15.4933 122.022 15.6005 122.2 15.7442C122.38 15.888 122.523 16.0719 122.627 16.296C122.732 16.5177 122.784 16.7833 122.784 17.0927V21.0138H122.339V20.0015H122.306C122.208 20.211 122.074 20.4023 121.904 20.5752C121.736 20.7458 121.532 20.8822 121.293 20.9845C121.057 21.0844 120.79 21.1344 120.493 21.1344ZM120.537 20.7214C120.888 20.7214 121.198 20.6362 121.469 20.4656C121.742 20.2926 121.955 20.0563 122.108 19.7567C122.262 19.457 122.339 19.1172 122.339 18.7371V17.9113C122.283 17.96 122.201 18.0038 122.094 18.0428C121.989 18.0793 121.87 18.1122 121.736 18.1415C121.604 18.1683 121.465 18.1926 121.319 18.2146C121.175 18.234 121.035 18.2523 120.899 18.2694C120.49 18.3181 120.156 18.3936 119.898 18.4959C119.642 18.5958 119.454 18.7274 119.335 18.8906C119.218 19.0538 119.159 19.2512 119.159 19.4826C119.159 19.8651 119.291 20.1672 119.554 20.3889C119.817 20.6106 120.145 20.7214 120.537 20.7214ZM125.531 19.9906L125.465 20.3743C125.421 20.6252 125.365 20.9078 125.297 21.2221C125.231 21.5388 125.163 21.8433 125.092 22.1356C125.021 22.428 124.957 22.6631 124.898 22.8409H124.551C124.585 22.6655 124.627 22.4499 124.676 22.1941C124.727 21.9407 124.779 21.6606 124.833 21.3536C124.889 21.0467 124.941 20.7287 124.99 20.3998L125.056 19.9906H125.531ZM130.428 13.5297H130.925L133.809 20.356H133.86L136.743 13.5297H137.24V21.0138H136.801V14.6151H136.758L134.05 21.0138H133.619L130.911 14.6151H130.867V21.0138H130.428V13.5297ZM140.733 21.1344C140.409 21.1344 140.111 21.0698 139.841 20.9407C139.573 20.8116 139.357 20.6228 139.194 20.3743C139.033 20.1258 138.953 19.8237 138.953 19.468C138.953 19.2341 138.994 19.0283 139.077 18.8504C139.16 18.6726 139.288 18.5191 139.461 18.39C139.634 18.2608 139.856 18.1549 140.126 18.072C140.396 17.9868 140.719 17.921 141.094 17.8747C141.379 17.8406 141.634 17.8077 141.858 17.776C142.082 17.7419 142.258 17.6896 142.384 17.6189C142.513 17.5483 142.578 17.4411 142.578 17.2973V17.0635C142.578 16.6542 142.449 16.3289 142.191 16.0877C141.932 15.8466 141.577 15.726 141.124 15.726C140.722 15.726 140.383 15.8149 140.108 15.9927C139.835 16.1681 139.644 16.3947 139.534 16.6724L139.114 16.5153C139.221 16.2473 139.376 16.0244 139.578 15.8466C139.782 15.6687 140.016 15.5359 140.279 15.4482C140.545 15.3605 140.823 15.3167 141.113 15.3167C141.364 15.3167 141.602 15.352 141.829 15.4227C142.058 15.4933 142.261 15.6005 142.439 15.7442C142.619 15.888 142.762 16.0719 142.867 16.296C142.971 16.5177 143.024 16.7833 143.024 17.0927V21.0138H142.578V20.0015H142.545C142.448 20.211 142.314 20.4023 142.143 20.5752C141.975 20.7458 141.772 20.8822 141.533 20.9845C141.297 21.0844 141.03 21.1344 140.733 21.1344ZM140.776 20.7214C141.127 20.7214 141.438 20.6362 141.708 20.4656C141.981 20.2926 142.194 20.0563 142.348 19.7567C142.501 19.457 142.578 19.1172 142.578 18.7371V17.9113C142.522 17.96 142.44 18.0038 142.333 18.0428C142.228 18.0793 142.109 18.1122 141.975 18.1415C141.844 18.1683 141.705 18.1926 141.558 18.2146C141.415 18.234 141.275 18.2523 141.138 18.2694C140.729 18.3181 140.395 18.3936 140.137 18.4959C139.881 18.5958 139.694 18.7274 139.574 18.8906C139.457 19.0538 139.399 19.2512 139.399 19.4826C139.399 19.8651 139.53 20.1672 139.793 20.3889C140.057 20.6106 140.384 20.7214 140.776 20.7214ZM144.703 21.0138V20.6374L148.007 15.8648V15.8246H144.886V15.4007H148.573V15.7844L145.299 20.5497V20.5899H148.704V21.0138H144.703ZM152.165 21.1307C151.702 21.1307 151.291 21.0065 150.93 20.758C150.569 20.507 150.286 20.1623 150.079 19.7238C149.871 19.2853 149.768 18.7859 149.768 18.2255C149.768 17.6628 149.871 17.1633 150.079 16.7273C150.286 16.2887 150.569 15.944 150.93 15.6931C151.291 15.4422 151.702 15.3167 152.165 15.3167C152.628 15.3167 153.04 15.4422 153.4 15.6931C153.761 15.944 154.045 16.2887 154.252 16.7273C154.459 17.1658 154.562 17.6652 154.562 18.2255C154.562 18.7859 154.459 19.2853 154.252 19.7238C154.045 20.1623 153.761 20.507 153.4 20.758C153.04 21.0065 152.628 21.1307 152.165 21.1307ZM152.165 20.7178C152.557 20.7178 152.9 20.6069 153.192 20.3852C153.487 20.1635 153.715 19.8639 153.875 19.4863C154.039 19.1086 154.12 18.6884 154.12 18.2255C154.12 17.7626 154.039 17.3436 153.875 16.9684C153.712 16.5908 153.484 16.2912 153.192 16.0695C152.9 15.8453 152.557 15.7333 152.165 15.7333C151.773 15.7333 151.431 15.8453 151.138 16.0695C150.846 16.2912 150.618 16.5908 150.455 16.9684C150.292 17.3436 150.21 17.7626 150.21 18.2255C150.21 18.6884 150.29 19.1086 150.451 19.4863C150.614 19.8639 150.842 20.1635 151.135 20.3852C151.429 20.6069 151.773 20.7178 152.165 20.7178ZM157.131 21.0138L155.45 15.4007H155.918L157.365 20.3596H157.405L158.856 15.4007H159.32L160.767 20.356H160.804L162.251 15.4007H162.719L161.038 21.0138H160.541L159.108 16.1279H159.061L157.628 21.0138H157.131ZM164.129 21.0138V15.4007H164.572V21.0138H164.129ZM164.352 14.4068C164.255 14.4068 164.17 14.3727 164.096 14.3044C164.026 14.2362 163.99 14.1534 163.99 14.056C163.99 13.9585 164.026 13.8757 164.096 13.8075C164.167 13.7392 164.252 13.7051 164.352 13.7051C164.45 13.7051 164.534 13.7392 164.604 13.8075C164.677 13.8757 164.714 13.9585 164.714 14.056C164.714 14.1534 164.679 14.2362 164.608 14.3044C164.537 14.3727 164.452 14.4068 164.352 14.4068ZM168.628 21.1307C168.121 21.1307 167.68 21.0052 167.305 20.7543C166.93 20.5034 166.64 20.1599 166.435 19.7238C166.231 19.2877 166.128 18.7907 166.128 18.2328C166.128 17.6725 166.231 17.1731 166.435 16.7346C166.642 16.296 166.926 15.9501 167.287 15.6967C167.647 15.4434 168.059 15.3167 168.522 15.3167C168.836 15.3167 169.133 15.38 169.413 15.5067C169.696 15.631 169.945 15.8112 170.159 16.0476C170.376 16.2839 170.545 16.5689 170.667 16.9027C170.791 17.2364 170.853 17.6116 170.853 18.0282V18.3059H166.41V17.9003H170.407C170.407 17.4934 170.325 17.1268 170.159 16.8003C169.993 16.4739 169.768 16.2144 169.483 16.022C169.198 15.8295 168.878 15.7333 168.522 15.7333C168.149 15.7333 167.817 15.838 167.524 16.0476C167.234 16.2546 167.004 16.5348 166.834 16.888C166.665 17.2413 166.578 17.636 166.57 18.072V18.2548C166.57 18.7225 166.652 19.1428 166.815 19.5155C166.981 19.8858 167.217 20.1794 167.524 20.3962C167.831 20.6106 168.199 20.7178 168.628 20.7178C168.935 20.7178 169.197 20.6666 169.413 20.5643C169.633 20.4595 169.812 20.3328 169.951 20.1842C170.09 20.0356 170.194 19.8919 170.265 19.753L170.671 19.9175C170.585 20.1051 170.453 20.2926 170.272 20.4802C170.094 20.6654 169.868 20.8201 169.593 20.9443C169.32 21.0686 168.998 21.1307 168.628 21.1307ZM174.493 21.1307C174.015 21.1307 173.595 21.0052 173.232 20.7543C172.869 20.5009 172.585 20.155 172.381 19.7165C172.179 19.278 172.077 18.781 172.077 18.2255C172.077 17.6701 172.18 17.1731 172.384 16.7346C172.589 16.296 172.873 15.9501 173.236 15.6967C173.599 15.4434 174.017 15.3167 174.489 15.3167C174.845 15.3167 175.169 15.3898 175.461 15.5359C175.756 15.6821 176 15.8855 176.192 16.1462C176.387 16.4069 176.511 16.709 176.565 17.0525H176.112C176.039 16.6724 175.856 16.3582 175.564 16.1097C175.274 15.8587 174.917 15.7333 174.493 15.7333C174.113 15.7333 173.774 15.8405 173.477 16.0549C173.18 16.2668 172.946 16.5604 172.775 16.9355C172.605 17.3083 172.52 17.7358 172.52 18.2182C172.52 18.6933 172.602 19.1196 172.768 19.4972C172.934 19.8724 173.165 20.1696 173.462 20.3889C173.76 20.6081 174.103 20.7178 174.493 20.7178C174.768 20.7178 175.019 20.6629 175.246 20.5533C175.475 20.4437 175.666 20.2878 175.82 20.0856C175.973 19.8834 176.074 19.6471 176.123 19.3766H176.576C176.522 19.7226 176.401 20.0271 176.211 20.2902C176.02 20.5533 175.778 20.7592 175.483 20.9078C175.189 21.0564 174.858 21.1307 174.493 21.1307ZM178.483 18.8212L178.476 18.1817H178.593L181.4 15.4007H181.981L179.404 17.9588L179.361 17.977L178.483 18.8212ZM178.096 21.0138V13.5297H178.542V21.0138H178.096ZM181.528 21.0138L179.16 18.0209L179.481 17.7249L182.098 21.0138H181.528ZM183.324 21.0138V15.4007H183.766V21.0138H183.324ZM183.547 14.4068C183.449 14.4068 183.364 14.3727 183.291 14.3044C183.22 14.2362 183.185 14.1534 183.185 14.056C183.185 13.9585 183.22 13.8757 183.291 13.8075C183.361 13.7392 183.447 13.7051 183.547 13.7051C183.644 13.7051 183.728 13.7392 183.799 13.8075C183.872 13.8757 183.908 13.9585 183.908 14.056C183.908 14.1534 183.873 14.2362 183.802 14.3044C183.732 14.3727 183.646 14.4068 183.547 14.4068ZM187.822 21.1307C187.315 21.1307 186.874 21.0052 186.499 20.7543C186.124 20.5034 185.834 20.1599 185.63 19.7238C185.425 19.2877 185.323 18.7907 185.323 18.2328C185.323 17.6725 185.425 17.1731 185.63 16.7346C185.837 16.296 186.12 15.9501 186.481 15.6967C186.842 15.4434 187.253 15.3167 187.716 15.3167C188.03 15.3167 188.328 15.38 188.608 15.5067C188.89 15.631 189.139 15.8112 189.353 16.0476C189.57 16.2839 189.739 16.5689 189.861 16.9027C189.985 17.2364 190.048 17.6116 190.048 18.0282V18.3059H185.604V17.9003H189.602C189.602 17.4934 189.519 17.1268 189.353 16.8003C189.188 16.4739 188.962 16.2144 188.677 16.022C188.392 15.8295 188.072 15.7333 187.716 15.7333C187.343 15.7333 187.011 15.838 186.718 16.0476C186.429 16.2546 186.198 16.5348 186.028 16.888C185.86 17.2413 185.772 17.636 185.765 18.072V18.2548C185.765 18.7225 185.846 19.1428 186.01 19.5155C186.175 19.8858 186.412 20.1794 186.718 20.3962C187.025 20.6106 187.393 20.7178 187.822 20.7178C188.129 20.7178 188.391 20.6666 188.608 20.5643C188.827 20.4595 189.006 20.3328 189.145 20.1842C189.284 20.0356 189.389 19.8919 189.459 19.753L189.865 19.9175C189.78 20.1051 189.647 20.2926 189.467 20.4802C189.289 20.6654 189.062 20.8201 188.787 20.9443C188.514 21.0686 188.192 21.1307 187.822 21.1307ZM196.651 21.1161C196.151 21.1161 195.723 20.9626 195.365 20.6556C195.006 20.3487 194.731 19.9089 194.539 19.3364C194.349 18.7615 194.254 18.0733 194.254 17.2717C194.254 16.4727 194.35 15.7857 194.542 15.2107C194.735 14.6358 195.009 14.1948 195.365 13.8879C195.723 13.5809 196.151 13.4274 196.651 13.4274C197.15 13.4274 197.578 13.5809 197.934 13.8879C198.292 14.1948 198.567 14.6358 198.759 15.2107C198.952 15.7857 199.048 16.4727 199.048 17.2717C199.048 18.0733 198.952 18.7615 198.759 19.3364C198.569 19.9089 198.295 20.3487 197.937 20.6556C197.579 20.9626 197.15 21.1161 196.651 21.1161ZM196.651 20.6922C197.258 20.6922 197.734 20.3913 198.08 19.7896C198.426 19.1854 198.599 18.3461 198.599 17.2717C198.599 16.5555 198.519 15.9416 198.361 15.43C198.205 14.9184 197.982 14.5274 197.692 14.2569C197.402 13.9841 197.055 13.8477 196.651 13.8477C196.044 13.8477 195.568 14.1497 195.222 14.7539C194.876 15.3581 194.703 16.1974 194.703 17.2717C194.703 17.988 194.781 18.6019 194.937 19.1135C195.093 19.6227 195.316 20.0137 195.606 20.2866C195.898 20.557 196.246 20.6922 196.651 20.6922ZM200.644 21.0138V20.6666L203.067 17.8747C203.413 17.4752 203.687 17.1365 203.889 16.8588C204.091 16.5811 204.236 16.3302 204.324 16.106C204.412 15.8819 204.456 15.648 204.456 15.4044C204.456 15.0999 204.384 14.8307 204.24 14.5968C204.099 14.3605 203.905 14.1765 203.659 14.045C203.415 13.9134 203.138 13.8477 202.826 13.8477C202.499 13.8477 202.213 13.9195 201.967 14.0633C201.721 14.207 201.528 14.4019 201.39 14.6479C201.253 14.894 201.185 15.1705 201.185 15.4775H200.743C200.743 15.0901 200.833 14.7417 201.013 14.4323C201.194 14.1229 201.441 13.8781 201.755 13.6978C202.072 13.5175 202.432 13.4274 202.837 13.4274C203.234 13.4274 203.587 13.5139 203.896 13.6869C204.206 13.8598 204.45 14.0961 204.627 14.3958C204.805 14.693 204.894 15.0292 204.894 15.4044C204.894 15.6797 204.847 15.9452 204.752 16.201C204.659 16.4544 204.499 16.7382 204.273 17.0525C204.046 17.3643 203.733 17.7492 203.334 18.2073L201.302 20.5497V20.5899H205.23V21.0138H200.644ZM209.855 17.0598V17.4837H206.902V17.0598H209.855ZM213.801 21.1161C213.486 21.1136 213.188 21.0467 212.905 20.9151C212.623 20.7811 212.372 20.574 212.153 20.2939C211.936 20.0113 211.764 19.6483 211.637 19.2049C211.513 18.7591 211.451 18.2255 211.451 17.6043C211.451 17.0464 211.495 16.5165 211.582 16.0147C211.673 15.5128 211.814 15.0682 212.006 14.6808C212.199 14.291 212.45 13.9853 212.759 13.7636C213.071 13.5395 213.447 13.4274 213.888 13.4274C214.273 13.4274 214.612 13.5115 214.904 13.6796C215.199 13.8452 215.434 14.0767 215.609 14.3739C215.785 14.6687 215.891 15.0109 215.927 15.4007H215.474C215.423 14.9452 215.26 14.5736 214.985 14.2862C214.712 13.9963 214.346 13.8513 213.888 13.8513C213.24 13.8513 212.745 14.168 212.401 14.8014C212.06 15.4348 211.889 16.3411 211.889 17.5202H211.93C212.027 17.2864 212.171 17.0805 212.361 16.9027C212.553 16.7224 212.775 16.5823 213.026 16.4824C213.277 16.3825 213.541 16.3326 213.819 16.3326C214.223 16.3326 214.592 16.4361 214.926 16.6432C215.262 16.8503 215.532 17.1341 215.734 17.4947C215.936 17.8552 216.037 18.2633 216.037 18.7189C216.037 19.1501 215.943 19.5484 215.756 19.9138C215.568 20.2768 215.306 20.5692 214.97 20.7909C214.636 21.0101 214.246 21.1185 213.801 21.1161ZM213.801 20.6922C214.142 20.6922 214.446 20.6033 214.714 20.4254C214.985 20.2476 215.198 20.01 215.354 19.7128C215.51 19.4132 215.588 19.0818 215.588 18.7189C215.588 18.3534 215.507 18.0221 215.346 17.7249C215.186 17.4277 214.968 17.1926 214.692 17.0196C214.419 16.8442 214.112 16.7565 213.771 16.7565C213.503 16.7565 213.255 16.8113 213.026 16.9209C212.797 17.0281 212.6 17.1767 212.434 17.3668C212.271 17.5568 212.15 17.7748 212.072 18.0209C211.997 18.2645 211.976 18.5215 212.01 18.7919C212.066 19.1842 212.176 19.5228 212.339 19.8078C212.505 20.0904 212.712 20.3085 212.96 20.462C213.211 20.6154 213.491 20.6922 213.801 20.6922ZM219.827 13.4274C220.142 13.4274 220.44 13.4944 220.723 13.6284C221.005 13.7624 221.255 13.9695 221.472 14.2496C221.691 14.5274 221.863 14.8879 221.987 15.3313C222.114 15.7723 222.177 16.3034 222.177 16.9246C222.177 17.4825 222.132 18.0136 222.042 18.5179C221.954 19.0197 221.814 19.4668 221.622 19.859C221.429 20.2488 221.178 20.5558 220.869 20.7799C220.56 21.004 220.183 21.1161 219.74 21.1161C219.352 21.1161 219.013 21.032 218.72 20.8639C218.428 20.6958 218.193 20.4632 218.015 20.166C217.84 19.8663 217.734 19.5204 217.697 19.1281H218.15C218.201 19.5837 218.365 19.9589 218.64 20.2537C218.915 20.546 219.282 20.6922 219.74 20.6922C220.385 20.6922 220.88 20.3743 221.223 19.7384C221.567 19.1026 221.739 18.1926 221.739 17.0086H221.698C221.601 17.2425 221.456 17.4496 221.264 17.6299C221.074 17.8077 220.853 17.9466 220.602 18.0465C220.351 18.1463 220.087 18.1963 219.809 18.1963C219.402 18.1963 219.031 18.0927 218.695 17.8857C218.358 17.6786 218.09 17.3948 217.891 17.0342C217.691 16.6737 217.591 16.2656 217.591 15.81C217.591 15.3812 217.684 14.9854 217.869 14.6224C218.056 14.2594 218.317 13.9695 218.651 13.7526C218.987 13.5334 219.379 13.425 219.827 13.4274ZM219.827 13.8513C219.484 13.8513 219.177 13.939 218.907 14.1144C218.639 14.2898 218.427 14.5261 218.271 14.8234C218.117 15.1206 218.041 15.4495 218.041 15.81C218.041 16.1779 218.12 16.5104 218.278 16.8076C218.439 17.1024 218.656 17.3375 218.929 17.5129C219.204 17.6859 219.513 17.7724 219.857 17.7724C220.125 17.7724 220.373 17.7188 220.602 17.6116C220.831 17.502 221.027 17.3521 221.191 17.1621C221.356 16.9697 221.478 16.7516 221.556 16.508C221.634 16.2619 221.653 16.0049 221.614 15.7369C221.561 15.3471 221.451 15.0122 221.286 14.732C221.122 14.4494 220.915 14.2326 220.664 14.0815C220.416 13.928 220.137 13.8513 219.827 13.8513ZM225.968 13.4274C226.282 13.4274 226.58 13.4944 226.863 13.6284C227.146 13.7624 227.395 13.9695 227.612 14.2496C227.831 14.5274 228.003 14.8879 228.127 15.3313C228.254 15.7723 228.317 16.3034 228.317 16.9246C228.317 17.4825 228.272 18.0136 228.182 18.5179C228.094 19.0197 227.954 19.4668 227.762 19.859C227.569 20.2488 227.319 20.5558 227.009 20.7799C226.7 21.004 226.323 21.1161 225.88 21.1161C225.493 21.1161 225.153 21.032 224.86 20.8639C224.568 20.6958 224.333 20.4632 224.155 20.166C223.98 19.8663 223.874 19.5204 223.837 19.1281H224.29C224.341 19.5837 224.505 19.9589 224.78 20.2537C225.055 20.546 225.422 20.6922 225.88 20.6922C226.526 20.6922 227.02 20.3743 227.364 19.7384C227.707 19.1026 227.879 18.1926 227.879 17.0086H227.839C227.741 17.2425 227.596 17.4496 227.404 17.6299C227.214 17.8077 226.993 17.9466 226.742 18.0465C226.491 18.1463 226.227 18.1963 225.949 18.1963C225.543 18.1963 225.171 18.0927 224.835 17.8857C224.499 17.6786 224.231 17.3948 224.031 17.0342C223.831 16.6737 223.731 16.2656 223.731 15.81C223.731 15.3812 223.824 14.9854 224.009 14.6224C224.197 14.2594 224.457 13.9695 224.791 13.7526C225.127 13.5334 225.519 13.425 225.968 13.4274ZM225.968 13.8513C225.624 13.8513 225.317 13.939 225.047 14.1144C224.779 14.2898 224.567 14.5261 224.411 14.8234C224.257 15.1206 224.181 15.4495 224.181 15.81C224.181 16.1779 224.26 16.5104 224.418 16.8076C224.579 17.1024 224.796 17.3375 225.069 17.5129C225.344 17.6859 225.653 17.7724 225.997 17.7724C226.265 17.7724 226.513 17.7188 226.742 17.6116C226.971 17.502 227.167 17.3521 227.331 17.1621C227.496 16.9697 227.618 16.7516 227.696 16.508C227.774 16.2619 227.794 16.0049 227.755 15.7369C227.701 15.3471 227.591 15.0122 227.426 14.732C227.262 14.4494 227.055 14.2326 226.804 14.0815C226.556 13.928 226.277 13.8513 225.968 13.8513ZM230.536 19.9906L230.471 20.3743C230.427 20.6252 230.371 20.9078 230.303 21.2221C230.237 21.5388 230.169 21.8433 230.098 22.1356C230.027 22.428 229.963 22.6631 229.904 22.8409H229.557C229.591 22.6655 229.633 22.4499 229.681 22.1941C229.732 21.9407 229.785 21.6606 229.838 21.3536C229.894 21.0467 229.947 20.7287 229.996 20.3998L230.061 19.9906H230.536ZM235.434 21.0138V13.5297H237.74C238.215 13.5297 238.622 13.6272 238.961 13.8221C239.302 14.017 239.564 14.2837 239.746 14.6224C239.929 14.961 240.02 15.3471 240.02 15.7808C240.02 16.2096 239.929 16.5933 239.746 16.9319C239.564 17.2705 239.302 17.5385 238.961 17.7358C238.622 17.9307 238.216 18.0282 237.744 18.0282H235.756V17.6043H237.733C238.118 17.6043 238.447 17.5263 238.719 17.3704C238.992 17.2121 239.202 16.9965 239.348 16.7236C239.494 16.4483 239.567 16.134 239.567 15.7808C239.567 15.4251 239.494 15.1096 239.348 14.8343C239.202 14.559 238.991 14.3434 238.716 14.1875C238.443 14.0316 238.114 13.9536 237.729 13.9536H235.891V21.0138H235.434ZM243.644 21.1307C243.182 21.1307 242.77 21.0065 242.409 20.758C242.049 20.507 241.765 20.1623 241.558 19.7238C241.351 19.2853 241.247 18.7859 241.247 18.2255C241.247 17.6628 241.351 17.1633 241.558 16.7273C241.765 16.2887 242.049 15.944 242.409 15.6931C242.77 15.4422 243.182 15.3167 243.644 15.3167C244.107 15.3167 244.519 15.4422 244.88 15.6931C245.24 15.944 245.524 16.2887 245.731 16.7273C245.938 17.1658 246.042 17.6652 246.042 18.2255C246.042 18.7859 245.938 19.2853 245.731 19.7238C245.524 20.1623 245.24 20.507 244.88 20.758C244.519 21.0065 244.107 21.1307 243.644 21.1307ZM243.644 20.7178C244.037 20.7178 244.379 20.6069 244.671 20.3852C244.966 20.1635 245.194 19.8639 245.355 19.4863C245.518 19.1086 245.6 18.6884 245.6 18.2255C245.6 17.7626 245.518 17.3436 245.355 16.9684C245.191 16.5908 244.964 16.2912 244.671 16.0695C244.379 15.8453 244.037 15.7333 243.644 15.7333C243.252 15.7333 242.91 15.8453 242.618 16.0695C242.325 16.2912 242.097 16.5908 241.934 16.9684C241.771 17.3436 241.689 17.7626 241.689 18.2255C241.689 18.6884 241.77 19.1086 241.931 19.4863C242.094 19.8639 242.322 20.1635 242.614 20.3852C242.909 20.6069 243.252 20.7178 243.644 20.7178ZM248.023 13.5297V21.0138H247.577V13.5297H248.023ZM251.356 21.1344C251.032 21.1344 250.735 21.0698 250.464 20.9407C250.196 20.8116 249.981 20.6228 249.818 20.3743C249.657 20.1258 249.576 19.8237 249.576 19.468C249.576 19.2341 249.618 19.0283 249.701 18.8504C249.783 18.6726 249.911 18.5191 250.084 18.39C250.257 18.2608 250.479 18.1549 250.749 18.072C251.02 17.9868 251.343 17.921 251.718 17.8747C252.003 17.8406 252.257 17.8077 252.482 17.776C252.706 17.7419 252.881 17.6896 253.008 17.6189C253.137 17.5483 253.201 17.4411 253.201 17.2973V17.0635C253.201 16.6542 253.072 16.3289 252.814 16.0877C252.556 15.8466 252.2 15.726 251.747 15.726C251.345 15.726 251.006 15.8149 250.731 15.9927C250.458 16.1681 250.267 16.3947 250.157 16.6724L249.737 16.5153C249.844 16.2473 249.999 16.0244 250.201 15.8466C250.406 15.6687 250.64 15.5359 250.903 15.4482C251.168 15.3605 251.446 15.3167 251.736 15.3167C251.987 15.3167 252.226 15.352 252.452 15.4227C252.681 15.4933 252.885 15.6005 253.063 15.7442C253.243 15.888 253.385 16.0719 253.49 16.296C253.595 16.5177 253.647 16.7833 253.647 17.0927V21.0138H253.201V20.0015H253.169C253.071 20.211 252.937 20.4023 252.767 20.5752C252.598 20.7458 252.395 20.8822 252.156 20.9845C251.92 21.0844 251.653 21.1344 251.356 21.1344ZM251.4 20.7214C251.751 20.7214 252.061 20.6362 252.332 20.4656C252.605 20.2926 252.818 20.0563 252.971 19.7567C253.125 19.457 253.201 19.1172 253.201 18.7371V17.9113C253.145 17.96 253.064 18.0038 252.957 18.0428C252.852 18.0793 252.732 18.1122 252.598 18.1415C252.467 18.1683 252.328 18.1926 252.182 18.2146C252.038 18.234 251.898 18.2523 251.762 18.2694C251.352 18.3181 251.019 18.3936 250.76 18.4959C250.505 18.5958 250.317 18.7274 250.198 18.8906C250.081 19.0538 250.022 19.2512 250.022 19.4826C250.022 19.8651 250.154 20.1672 250.417 20.3889C250.68 20.6106 251.008 20.7214 251.4 20.7214ZM255.962 17.3741V21.0138H255.516V15.4007H255.951V16.2887H255.995C256.127 15.9988 256.337 15.7662 256.627 15.5908C256.917 15.4154 257.262 15.3277 257.661 15.3277C258.039 15.3277 258.37 15.408 258.655 15.5688C258.943 15.7296 259.167 15.9586 259.328 16.2558C259.491 16.5506 259.573 16.9027 259.573 17.3119V21.0138H259.127V17.3302C259.127 16.8527 258.984 16.469 258.699 16.1791C258.417 15.8868 258.043 15.7406 257.577 15.7406C257.266 15.7406 256.988 15.8088 256.744 15.9452C256.501 16.0817 256.309 16.2729 256.171 16.519C256.032 16.7626 255.962 17.0476 255.962 17.3741ZM263.351 21.1307C262.901 21.1307 262.507 21.0065 262.171 20.758C261.835 20.5095 261.574 20.1672 261.389 19.7311C261.206 19.2926 261.115 18.7895 261.115 18.2219C261.115 17.6591 261.207 17.1597 261.393 16.7236C261.58 16.2851 261.842 15.9416 262.178 15.6931C262.514 15.4422 262.907 15.3167 263.355 15.3167C263.676 15.3167 263.955 15.3788 264.192 15.5031C264.431 15.6249 264.63 15.7869 264.791 15.9891C264.954 16.1913 265.079 16.413 265.164 16.6542H265.208V13.5297H265.65V21.0138H265.219V19.7896H265.164C265.074 20.0308 264.948 20.2537 264.787 20.4583C264.627 20.6605 264.427 20.8237 264.188 20.948C263.949 21.0698 263.67 21.1307 263.351 21.1307ZM263.391 20.7178C263.772 20.7178 264.097 20.6094 264.367 20.3925C264.64 20.1733 264.848 19.8761 264.992 19.5009C265.138 19.1233 265.211 18.6957 265.211 18.2182C265.211 17.7407 265.138 17.3156 264.992 16.9429C264.848 16.5677 264.64 16.2729 264.367 16.0585C264.097 15.8417 263.772 15.7333 263.391 15.7333C263.007 15.7333 262.676 15.8429 262.401 16.0622C262.128 16.279 261.919 16.575 261.773 16.9502C261.629 17.3253 261.557 17.748 261.557 18.2182C261.557 18.6884 261.629 19.1123 261.773 19.4899C261.919 19.8675 262.128 20.1672 262.401 20.3889C262.676 20.6081 263.007 20.7178 263.391 20.7178Z" fill="white"/>
</svg>
