<svg width="159" height="30" viewBox="0 0 159 30" fill="none" xmlns="http://www.w3.org/2000/svg">
<rect x="0.534515" y="0.452271" width="158.27" height="29.4234" rx="14.7117" fill="#E73700"/>
<path d="M21.8301 13.5911H20.3646C20.3228 13.3508 20.2457 13.1379 20.1334 12.9524C20.0211 12.7643 19.8813 12.605 19.7141 12.4743C19.5469 12.3437 19.3562 12.2458 19.142 12.1804C18.9304 12.1125 18.7018 12.0786 18.4562 12.0786C18.0199 12.0786 17.6333 12.1883 17.2963 12.4077C16.9593 12.6246 16.6955 12.9433 16.5048 13.3639C16.314 13.7818 16.2187 14.2926 16.2187 14.896C16.2187 15.51 16.314 16.0272 16.5048 16.4478C16.6981 16.8658 16.9619 17.1819 17.2963 17.3961C17.6333 17.6077 18.0186 17.7135 18.4523 17.7135C18.6926 17.7135 18.9173 17.6822 19.1263 17.6195C19.3379 17.5542 19.5273 17.4588 19.6945 17.3334C19.8643 17.208 20.0067 17.0539 20.1216 16.871C20.2392 16.6881 20.3202 16.4792 20.3646 16.244L21.8301 16.2519C21.7753 16.6333 21.6564 16.9912 21.4735 17.3256C21.2933 17.66 21.0569 17.9552 20.7643 18.2112C20.4717 18.4646 20.1295 18.6631 19.7376 18.8068C19.3457 18.9479 18.9108 19.0184 18.4327 19.0184C17.7274 19.0184 17.0978 18.8551 16.5439 18.5286C15.9901 18.202 15.5538 17.7305 15.2351 17.114C14.9164 16.4974 14.7571 15.7581 14.7571 14.896C14.7571 14.0313 14.9177 13.292 15.239 12.6781C15.5604 12.0616 15.9979 11.59 16.5518 11.2635C17.1056 10.9369 17.7326 10.7737 18.4327 10.7737C18.8794 10.7737 19.2948 10.8364 19.6788 10.9618C20.0628 11.0872 20.4051 11.2713 20.7055 11.5143C21.0059 11.7546 21.2528 12.0498 21.4461 12.3999C21.642 12.7473 21.7701 13.1444 21.8301 13.5911ZM24.8308 19.0302C24.4494 19.0302 24.1059 18.9622 23.8002 18.8264C23.4972 18.6879 23.2568 18.4842 23.0792 18.2151C22.9042 17.946 22.8166 17.6142 22.8166 17.2198C22.8166 16.8802 22.8793 16.5993 23.0047 16.3773C23.1301 16.1552 23.3013 15.9776 23.5181 15.8443C23.7349 15.7111 23.9792 15.6105 24.2509 15.5426C24.5252 15.4721 24.8086 15.4211 25.1012 15.3898C25.4539 15.3532 25.7399 15.3206 25.9594 15.2918C26.1788 15.2605 26.3382 15.2134 26.4374 15.1507C26.5393 15.0854 26.5903 14.9849 26.5903 14.849V14.8255C26.5903 14.5303 26.5028 14.3017 26.3277 14.1397C26.1527 13.9778 25.9006 13.8968 25.5714 13.8968C25.224 13.8968 24.9484 13.9726 24.7446 14.1241C24.5434 14.2756 24.4076 14.4545 24.3371 14.6609L23.0126 14.4728C23.1171 14.1071 23.2895 13.8014 23.5298 13.5559C23.7702 13.3077 24.0641 13.1222 24.4115 12.9994C24.759 12.874 25.143 12.8113 25.5636 12.8113C25.8536 12.8113 26.1422 12.8453 26.4296 12.9132C26.717 12.9811 26.9795 13.0935 27.2172 13.2502C27.455 13.4044 27.6457 13.6147 27.7894 13.8811C27.9357 14.1476 28.0088 14.4807 28.0088 14.8804V18.9087H26.6451V18.0819H26.5981C26.5119 18.2491 26.3904 18.4058 26.2337 18.5521C26.0795 18.6958 25.8849 18.812 25.6498 18.9009C25.4173 18.9871 25.1443 19.0302 24.8308 19.0302ZM25.1992 17.9878C25.4839 17.9878 25.7308 17.9317 25.9398 17.8193C26.1488 17.7044 26.3094 17.5529 26.4218 17.3648C26.5367 17.1767 26.5942 16.9716 26.5942 16.7495V16.0403C26.5498 16.0768 26.474 16.1108 26.3669 16.1422C26.2624 16.1735 26.1449 16.2009 26.0142 16.2244C25.8836 16.248 25.7543 16.2689 25.6263 16.2871C25.4983 16.3054 25.3873 16.3211 25.2932 16.3342C25.0816 16.3629 24.8922 16.4099 24.725 16.4752C24.5578 16.5405 24.4259 16.632 24.3292 16.7495C24.2326 16.8645 24.1842 17.0134 24.1842 17.1963C24.1842 17.4575 24.2796 17.6547 24.4703 17.788C24.661 17.9212 24.904 17.9878 25.1992 17.9878ZM30.8537 15.3819V18.9087H29.4352V12.8897H30.791V13.9125H30.8615C31 13.5755 31.2208 13.3077 31.5238 13.1092C31.8294 12.9106 32.2069 12.8113 32.6563 12.8113C33.0716 12.8113 33.4335 12.9002 33.7417 13.0778C34.0526 13.2554 34.2929 13.5128 34.4627 13.8498C34.6352 14.1868 34.7201 14.5956 34.7175 15.0763V18.9087H33.2989V15.2957C33.2989 14.8934 33.1944 14.5786 32.9854 14.3514C32.7791 14.1241 32.493 14.0104 32.1273 14.0104C31.8791 14.0104 31.6583 14.0653 31.465 14.175C31.2743 14.2821 31.1241 14.4376 31.0144 14.6413C30.9073 14.8451 30.8537 15.092 30.8537 15.3819ZM38.785 19.0262C38.1841 19.0262 37.6682 18.8943 37.2371 18.6305C36.8087 18.3666 36.4782 18.0022 36.2457 17.5372C36.0158 17.0696 35.9009 16.5314 35.9009 15.9227C35.9009 15.3114 36.0184 14.7719 36.2536 14.3043C36.4887 13.8341 36.8204 13.4684 37.2489 13.2071C37.6799 12.9433 38.1893 12.8113 38.7771 12.8113C39.2657 12.8113 39.698 12.9015 40.0742 13.0817C40.453 13.2594 40.7547 13.5115 40.9794 13.838C41.2041 14.162 41.3321 14.5408 41.3634 14.9744H40.0076C39.9527 14.6844 39.8221 14.4428 39.6157 14.2495C39.4119 14.0535 39.139 13.9556 38.7967 13.9556C38.5067 13.9556 38.252 14.0339 38.0326 14.1907C37.8132 14.3448 37.642 14.5669 37.5193 14.8569C37.3991 15.1468 37.339 15.4943 37.339 15.8992C37.339 16.3093 37.3991 16.662 37.5193 16.9572C37.6394 17.2498 37.8079 17.4758 38.0248 17.6351C38.2442 17.7919 38.5015 17.8703 38.7967 17.8703C39.0057 17.8703 39.1925 17.8311 39.3571 17.7527C39.5243 17.6717 39.664 17.5555 39.7764 17.4039C39.8887 17.2524 39.9658 17.0683 40.0076 16.8514H41.3634C41.3295 17.2772 41.2041 17.6547 40.9872 17.9839C40.7704 18.3105 40.4752 18.5665 40.1016 18.7519C39.728 18.9348 39.2892 19.0262 38.785 19.0262ZM45.1929 19.0262C44.5894 19.0262 44.0682 18.9009 43.6293 18.6501C43.1931 18.3967 42.8574 18.0388 42.6223 17.5764C42.3871 17.1114 42.2696 16.5641 42.2696 15.9345C42.2696 15.3153 42.3871 14.7719 42.6223 14.3043C42.86 13.8341 43.1918 13.4684 43.6176 13.2071C44.0434 12.9433 44.5437 12.8113 45.1184 12.8113C45.4894 12.8113 45.8394 12.8714 46.1686 12.9916C46.5004 13.1092 46.793 13.292 47.0464 13.5402C47.3024 13.7884 47.5035 14.1045 47.6498 14.4885C47.7961 14.8699 47.8693 15.3245 47.8693 15.8522V16.2871H42.9358V15.331H46.5095C46.5069 15.0593 46.4481 14.8177 46.3332 14.6061C46.2182 14.3918 46.0576 14.2233 45.8512 14.1006C45.6474 13.9778 45.4097 13.9164 45.138 13.9164C44.848 13.9164 44.5933 13.9869 44.3739 14.128C44.1544 14.2664 43.9833 14.4493 43.8605 14.6766C43.7404 14.9013 43.679 15.1481 43.6764 15.4172V16.2519C43.6764 16.6019 43.7404 16.9024 43.8684 17.1532C43.9964 17.4013 44.1753 17.592 44.4052 17.7253C44.6351 17.8559 44.9042 17.9212 45.2125 17.9212C45.4188 17.9212 45.6056 17.8925 45.7728 17.835C45.94 17.7749 46.085 17.6874 46.2078 17.5724C46.3306 17.4575 46.4233 17.3151 46.486 17.1453L47.8105 17.2942C47.7269 17.6443 47.5675 17.9499 47.3324 18.2112C47.0999 18.4698 46.8021 18.671 46.439 18.8146C46.0759 18.9557 45.6605 19.0262 45.1929 19.0262ZM50.4879 10.8834V18.9087H49.0694V10.8834H50.4879ZM57.6893 12.8897V13.9869H54.2292V12.8897H57.6893ZM55.0834 11.4477H56.502V17.0983C56.502 17.289 56.5307 17.4353 56.5882 17.5372C56.6483 17.6365 56.7266 17.7044 56.8233 17.7409C56.92 17.7775 57.0271 17.7958 57.1446 17.7958C57.2334 17.7958 57.3144 17.7893 57.3876 17.7762C57.4633 17.7632 57.5208 17.7514 57.56 17.7409L57.799 18.8499C57.7233 18.876 57.6149 18.9048 57.4738 18.9361C57.3353 18.9675 57.1655 18.9858 56.9644 18.991C56.6091 19.0014 56.2891 18.9479 56.0043 18.8303C55.7196 18.7101 55.4936 18.5247 55.3264 18.2739C55.1618 18.0231 55.0808 17.7096 55.0834 17.3334V11.4477ZM60.6077 19.0302C60.2263 19.0302 59.8827 18.9622 59.5771 18.8264C59.2741 18.6879 59.0337 18.4842 58.8561 18.2151C58.681 17.946 58.5935 17.6142 58.5935 17.2198C58.5935 16.8802 58.6562 16.5993 58.7816 16.3773C58.907 16.1552 59.0781 15.9776 59.295 15.8443C59.5118 15.7111 59.756 15.6105 60.0277 15.5426C60.302 15.4721 60.5855 15.4211 60.8781 15.3898C61.2307 15.3532 61.5168 15.3206 61.7362 15.2918C61.9557 15.2605 62.115 15.2134 62.2143 15.1507C62.3162 15.0854 62.3671 14.9849 62.3671 14.849V14.8255C62.3671 14.5303 62.2796 14.3017 62.1046 14.1397C61.9296 13.9778 61.6775 13.8968 61.3483 13.8968C61.0009 13.8968 60.7252 13.9726 60.5215 14.1241C60.3203 14.2756 60.1845 14.4545 60.1139 14.6609L58.7895 14.4728C58.8939 14.1071 59.0664 13.8014 59.3067 13.5559C59.547 13.3077 59.8409 13.1222 60.1884 12.9994C60.5358 12.874 60.9199 12.8113 61.3405 12.8113C61.6304 12.8113 61.9191 12.8453 62.2065 12.9132C62.4938 12.9811 62.7564 13.0935 62.9941 13.2502C63.2318 13.4044 63.4226 13.6147 63.5662 13.8811C63.7125 14.1476 63.7857 14.4807 63.7857 14.8804V18.9087H62.422V18.0819H62.375C62.2888 18.2491 62.1673 18.4058 62.0105 18.5521C61.8564 18.6958 61.6618 18.812 61.4267 18.9009C61.1942 18.9871 60.9212 19.0302 60.6077 19.0302ZM60.976 17.9878C61.2608 17.9878 61.5077 17.9317 61.7167 17.8193C61.9256 17.7044 62.0863 17.5529 62.1986 17.3648C62.3136 17.1767 62.3711 16.9716 62.3711 16.7495V16.0403C62.3266 16.0768 62.2509 16.1108 62.1438 16.1422C62.0393 16.1735 61.9217 16.2009 61.7911 16.2244C61.6605 16.248 61.5312 16.2689 61.4032 16.2871C61.2752 16.3054 61.1641 16.3211 61.0701 16.3342C60.8585 16.3629 60.6691 16.4099 60.5019 16.4752C60.3347 16.5405 60.2028 16.632 60.1061 16.7495C60.0094 16.8645 59.9611 17.0134 59.9611 17.1963C59.9611 17.4575 60.0565 17.6547 60.2472 17.788C60.4379 17.9212 60.6808 17.9878 60.976 17.9878ZM65.2747 18.9087V10.8834H66.6933V13.885H66.7521C66.8252 13.7387 66.9284 13.5833 67.0616 13.4187C67.1949 13.2515 67.3751 13.1092 67.6024 12.9916C67.8297 12.8714 68.1197 12.8113 68.4723 12.8113C68.9373 12.8113 69.3566 12.9302 69.7302 13.1679C70.1064 13.403 70.4042 13.7518 70.6236 14.2142C70.8457 14.674 70.9567 15.2383 70.9567 15.907C70.9567 16.568 70.8483 17.1296 70.6315 17.592C70.4147 18.0544 70.1195 18.4071 69.7459 18.6501C69.3723 18.893 68.9491 19.0145 68.4762 19.0145C68.1314 19.0145 67.8454 18.957 67.6181 18.8421C67.3908 18.7271 67.2079 18.5887 67.0695 18.4267C66.9336 18.2621 66.8278 18.1067 66.7521 17.9604H66.6698V18.9087H65.2747ZM66.6659 15.8992C66.6659 16.2885 66.7207 16.6294 66.8304 16.922C66.9428 17.2145 67.1034 17.4431 67.3124 17.6077C67.524 17.7697 67.78 17.8507 68.0805 17.8507C68.394 17.8507 68.6565 17.7671 68.8681 17.5999C69.0797 17.4301 69.2391 17.1989 69.3462 16.9063C69.4559 16.6111 69.5108 16.2754 69.5108 15.8992C69.5108 15.5256 69.4572 15.1939 69.3501 14.9039C69.243 14.6139 69.0836 14.3866 68.872 14.222C68.6604 14.0575 68.3966 13.9752 68.0805 13.9752C67.7774 13.9752 67.5201 14.0548 67.3085 14.2142C67.0969 14.3736 66.9362 14.5969 66.8265 14.8843C66.7194 15.1716 66.6659 15.51 66.6659 15.8992ZM73.5812 10.8834V18.9087H72.1627V10.8834H73.5812ZM77.7046 19.0262C77.1011 19.0262 76.5799 18.9009 76.141 18.6501C75.7048 18.3967 75.3691 18.0388 75.134 17.5764C74.8988 17.1114 74.7813 16.5641 74.7813 15.9345C74.7813 15.3153 74.8988 14.7719 75.134 14.3043C75.3717 13.8341 75.7035 13.4684 76.1293 13.2071C76.5551 12.9433 77.0554 12.8113 77.6301 12.8113C78.0011 12.8113 78.3511 12.8714 78.6803 12.9916C79.0121 13.1092 79.3047 13.292 79.5581 13.5402C79.8141 13.7884 80.0152 14.1045 80.1615 14.4885C80.3078 14.8699 80.381 15.3245 80.381 15.8522V16.2871H75.4475V15.331H79.0212C79.0186 15.0593 78.9598 14.8177 78.8449 14.6061C78.7299 14.3918 78.5693 14.2233 78.3629 14.1006C78.1591 13.9778 77.9214 13.9164 77.6497 13.9164C77.3597 13.9164 77.105 13.9869 76.8856 14.128C76.6661 14.2664 76.495 14.4493 76.3722 14.6766C76.2521 14.9013 76.1907 15.1481 76.1881 15.4172V16.2519C76.1881 16.6019 76.2521 16.9024 76.3801 17.1532C76.5081 17.4013 76.687 17.592 76.9169 17.7253C77.1468 17.8559 77.4159 17.9212 77.7242 17.9212C77.9305 17.9212 78.1173 17.8925 78.2845 17.835C78.4517 17.7749 78.5967 17.6874 78.7195 17.5724C78.8423 17.4575 78.935 17.3151 78.9977 17.1453L80.3222 17.2942C80.2386 17.6443 80.0792 17.9499 79.8441 18.2112C79.6116 18.4698 79.3138 18.671 78.9507 18.8146C78.5876 18.9557 78.1722 19.0262 77.7046 19.0262ZM84.3182 18.9087V12.8897H85.6936V13.8929H85.7563C85.866 13.5454 86.0541 13.2777 86.3206 13.0896C86.5897 12.8989 86.8966 12.8035 87.2415 12.8035C87.3198 12.8035 87.4074 12.8074 87.504 12.8153C87.6033 12.8205 87.6856 12.8296 87.7509 12.8427V14.1476C87.6908 14.1267 87.5955 14.1084 87.4648 14.0927C87.3368 14.0744 87.2127 14.0653 87.0926 14.0653C86.8339 14.0653 86.6014 14.1215 86.3951 14.2338C86.1913 14.3435 86.0306 14.4963 85.9131 14.6923C85.7955 14.8882 85.7367 15.1142 85.7367 15.3702V18.9087H84.3182ZM91.1101 19.0262C90.5067 19.0262 89.9855 18.9009 89.5466 18.6501C89.1103 18.3967 88.7746 18.0388 88.5395 17.5764C88.3044 17.1114 88.1868 16.5641 88.1868 15.9345C88.1868 15.3153 88.3044 14.7719 88.5395 14.3043C88.7772 13.8341 89.109 13.4684 89.5348 13.2071C89.9607 12.9433 90.4609 12.8113 91.0357 12.8113C91.4066 12.8113 91.7567 12.8714 92.0859 12.9916C92.4176 13.1092 92.7102 13.292 92.9636 13.5402C93.2196 13.7884 93.4208 14.1045 93.5671 14.4885C93.7134 14.8699 93.7865 15.3245 93.7865 15.8522V16.2871H88.853V15.331H92.4268C92.4242 15.0593 92.3654 14.8177 92.2504 14.6061C92.1355 14.3918 91.9748 14.2233 91.7684 14.1006C91.5647 13.9778 91.3269 13.9164 91.0553 13.9164C90.7653 13.9164 90.5106 13.9869 90.2911 14.128C90.0717 14.2664 89.9006 14.4493 89.7778 14.6766C89.6576 14.9013 89.5962 15.1481 89.5936 15.4172V16.2519C89.5936 16.6019 89.6576 16.9024 89.7856 17.1532C89.9136 17.4013 90.0926 17.592 90.3225 17.7253C90.5524 17.8559 90.8214 17.9212 91.1297 17.9212C91.3361 17.9212 91.5229 17.8925 91.6901 17.835C91.8573 17.7749 92.0023 17.6874 92.125 17.5724C92.2478 17.4575 92.3406 17.3151 92.4033 17.1453L93.7277 17.2942C93.6442 17.6443 93.4848 17.9499 93.2497 18.2112C93.0172 18.4698 92.7194 18.671 92.3562 18.8146C91.9931 18.9557 91.5777 19.0262 91.1101 19.0262ZM99.7438 14.4807L98.4506 14.6217C98.4141 14.4911 98.3501 14.3683 98.2586 14.2534C98.1698 14.1384 98.0496 14.0457 97.8981 13.9752C97.7466 13.9046 97.5611 13.8694 97.3417 13.8694C97.0465 13.8694 96.7983 13.9334 96.5971 14.0614C96.3986 14.1894 96.3006 14.3553 96.3032 14.559C96.3006 14.7341 96.3646 14.8764 96.4953 14.9862C96.6285 15.0959 96.8479 15.186 97.1536 15.2566L98.1803 15.476C98.7498 15.5988 99.173 15.7934 99.4499 16.0599C99.7294 16.3263 99.8705 16.6751 99.8731 17.1061C99.8705 17.4849 99.7595 17.8193 99.54 18.1093C99.3232 18.3967 99.0215 18.6213 98.6348 18.7833C98.2482 18.9453 97.8041 19.0262 97.3025 19.0262C96.5658 19.0262 95.9728 18.8721 95.5234 18.5639C95.0741 18.253 94.8063 17.8206 94.7201 17.2668L96.1034 17.1336C96.1661 17.4053 96.2993 17.6103 96.5031 17.7488C96.7069 17.8872 96.972 17.9565 97.2986 17.9565C97.6356 17.9565 97.906 17.8872 98.1097 17.7488C98.3161 17.6103 98.4193 17.4392 98.4193 17.2354C98.4193 17.063 98.3527 16.9207 98.2194 16.8083C98.0888 16.696 97.8851 16.6098 97.6081 16.5497L96.5815 16.3342C96.0041 16.214 95.577 16.0115 95.3001 15.7268C95.0232 15.4394 94.886 15.0763 94.8886 14.6374C94.886 14.2664 94.9866 13.9451 95.1904 13.6734C95.3967 13.3991 95.6828 13.1875 96.0485 13.0386C96.4169 12.8871 96.8414 12.8113 97.3221 12.8113C98.0274 12.8113 98.5826 12.9616 98.9875 13.262C99.395 13.5624 99.6471 13.9686 99.7438 14.4807ZM103.707 19.0262C103.104 19.0262 102.583 18.9009 102.144 18.6501C101.708 18.3967 101.372 18.0388 101.137 17.5764C100.902 17.1114 100.784 16.5641 100.784 15.9345C100.784 15.3153 100.902 14.7719 101.137 14.3043C101.375 13.8341 101.706 13.4684 102.132 13.2071C102.558 12.9433 103.058 12.8113 103.633 12.8113C104.004 12.8113 104.354 12.8714 104.683 12.9916C105.015 13.1092 105.308 13.292 105.561 13.5402C105.817 13.7884 106.018 14.1045 106.164 14.4885C106.311 14.8699 106.384 15.3245 106.384 15.8522V16.2871H101.45V15.331H105.024C105.021 15.0593 104.963 14.8177 104.848 14.6061C104.733 14.3918 104.572 14.2233 104.366 14.1006C104.162 13.9778 103.924 13.9164 103.653 13.9164C103.363 13.9164 103.108 13.9869 102.888 14.128C102.669 14.2664 102.498 14.4493 102.375 14.6766C102.255 14.9013 102.194 15.1481 102.191 15.4172V16.2519C102.191 16.6019 102.255 16.9024 102.383 17.1532C102.511 17.4013 102.69 17.592 102.92 17.7253C103.15 17.8559 103.419 17.9212 103.727 17.9212C103.933 17.9212 104.12 17.8925 104.287 17.835C104.455 17.7749 104.6 17.6874 104.722 17.5724C104.845 17.4575 104.938 17.3151 105.001 17.1453L106.325 17.2942C106.241 17.6443 106.082 17.9499 105.847 18.2112C105.615 18.4698 105.317 18.671 104.954 18.8146C104.59 18.9557 104.175 19.0262 103.707 19.0262ZM107.584 18.9087V12.8897H108.959V13.8929H109.022C109.132 13.5454 109.32 13.2777 109.586 13.0896C109.855 12.8989 110.162 12.8035 110.507 12.8035C110.586 12.8035 110.673 12.8074 110.77 12.8153C110.869 12.8205 110.951 12.8296 111.017 12.8427V14.1476C110.957 14.1267 110.861 14.1084 110.731 14.0927C110.603 14.0744 110.478 14.0653 110.358 14.0653C110.1 14.0653 109.867 14.1215 109.661 14.2338C109.457 14.3435 109.296 14.4963 109.179 14.6923C109.061 14.8882 109.002 15.1142 109.002 15.3702V18.9087H107.584ZM117.519 12.8897L115.375 18.9087H113.808L111.664 12.8897H113.177L114.56 17.3608H114.623L116.01 12.8897H117.519ZM120.06 19.0302C119.678 19.0302 119.335 18.9622 119.029 18.8264C118.726 18.6879 118.486 18.4842 118.308 18.2151C118.133 17.946 118.046 17.6142 118.046 17.2198C118.046 16.8802 118.108 16.5993 118.234 16.3773C118.359 16.1552 118.53 15.9776 118.747 15.8443C118.964 15.7111 119.208 15.6105 119.48 15.5426C119.754 15.4721 120.038 15.4211 120.33 15.3898C120.683 15.3532 120.969 15.3206 121.188 15.2918C121.408 15.2605 121.567 15.2134 121.666 15.1507C121.768 15.0854 121.819 14.9849 121.819 14.849V14.8255C121.819 14.5303 121.732 14.3017 121.557 14.1397C121.382 13.9778 121.13 13.8968 120.8 13.8968C120.453 13.8968 120.177 13.9726 119.974 14.1241C119.772 14.2756 119.637 14.4545 119.566 14.6609L118.242 14.4728C118.346 14.1071 118.518 13.8014 118.759 13.5559C118.999 13.3077 119.293 13.1222 119.641 12.9994C119.988 12.874 120.372 12.8113 120.793 12.8113C121.083 12.8113 121.371 12.8453 121.659 12.9132C121.946 12.9811 122.209 13.0935 122.446 13.2502C122.684 13.4044 122.875 13.6147 123.018 13.8811C123.165 14.1476 123.238 14.4807 123.238 14.8804V18.9087H121.874V18.0819H121.827C121.741 18.2491 121.619 18.4058 121.463 18.5521C121.309 18.6958 121.114 18.812 120.879 18.9009C120.646 18.9871 120.373 19.0302 120.06 19.0302ZM120.428 17.9878C120.713 17.9878 120.96 17.9317 121.169 17.8193C121.378 17.7044 121.538 17.5529 121.651 17.3648C121.766 17.1767 121.823 16.9716 121.823 16.7495V16.0403C121.779 16.0768 121.703 16.1108 121.596 16.1422C121.491 16.1735 121.374 16.2009 121.243 16.2244C121.113 16.248 120.983 16.2689 120.855 16.2871C120.727 16.3054 120.616 16.3211 120.522 16.3342C120.311 16.3629 120.121 16.4099 119.954 16.4752C119.787 16.5405 119.655 16.632 119.558 16.7495C119.462 16.8645 119.413 17.0134 119.413 17.1963C119.413 17.4575 119.509 17.6547 119.699 17.788C119.89 17.9212 120.133 17.9878 120.428 17.9878ZM127.67 12.8897V13.9869H124.21V12.8897H127.67ZM125.064 11.4477H126.482V17.0983C126.482 17.289 126.511 17.4353 126.569 17.5372C126.629 17.6365 126.707 17.7044 126.804 17.7409C126.9 17.7775 127.007 17.7958 127.125 17.7958C127.214 17.7958 127.295 17.7893 127.368 17.7762C127.444 17.7632 127.501 17.7514 127.54 17.7409L127.779 18.8499C127.704 18.876 127.595 18.9048 127.454 18.9361C127.316 18.9675 127.146 18.9858 126.945 18.991C126.59 19.0014 126.269 18.9479 125.985 18.8303C125.7 18.7101 125.474 18.5247 125.307 18.2739C125.142 18.0231 125.061 17.7096 125.064 17.3334V11.4477ZM128.856 18.9087V12.8897H130.275V18.9087H128.856ZM129.569 12.0355C129.345 12.0355 129.151 11.961 128.989 11.8121C128.827 11.6606 128.746 11.479 128.746 11.2674C128.746 11.0532 128.827 10.8716 128.989 10.7227C129.151 10.5712 129.345 10.4954 129.569 10.4954C129.797 10.4954 129.99 10.5712 130.149 10.7227C130.311 10.8716 130.392 11.0532 130.392 11.2674C130.392 11.479 130.311 11.6606 130.149 11.8121C129.99 11.961 129.797 12.0355 129.569 12.0355ZM134.359 19.0262C133.771 19.0262 133.262 18.8969 132.831 18.6383C132.399 18.3797 132.065 18.0179 131.827 17.5529C131.592 17.0878 131.475 16.5445 131.475 15.9227C131.475 15.301 131.592 14.7563 131.827 14.2887C132.065 13.821 132.399 13.4579 132.831 13.1993C133.262 12.9407 133.771 12.8113 134.359 12.8113C134.947 12.8113 135.456 12.9407 135.887 13.1993C136.318 13.4579 136.651 13.821 136.886 14.2887C137.124 14.7563 137.243 15.301 137.243 15.9227C137.243 16.5445 137.124 17.0878 136.886 17.5529C136.651 18.0179 136.318 18.3797 135.887 18.6383C135.456 18.8969 134.947 19.0262 134.359 19.0262ZM134.367 17.8899C134.685 17.8899 134.952 17.8023 135.166 17.6273C135.38 17.4497 135.54 17.2119 135.644 16.9141C135.751 16.6163 135.805 16.2845 135.805 15.9188C135.805 15.5504 135.751 15.2174 135.644 14.9196C135.54 14.6191 135.38 14.3801 135.166 14.2024C134.952 14.0248 134.685 13.936 134.367 13.936C134.04 13.936 133.768 14.0248 133.552 14.2024C133.337 14.3801 133.177 14.6191 133.07 14.9196C132.965 15.2174 132.913 15.5504 132.913 15.9188C132.913 16.2845 132.965 16.6163 133.07 16.9141C133.177 17.2119 133.337 17.4497 133.552 17.6273C133.768 17.8023 134.04 17.8899 134.367 17.8899ZM139.865 15.3819V18.9087H138.447V12.8897H139.803V13.9125H139.873C140.012 13.5755 140.232 13.3077 140.535 13.1092C140.841 12.9106 141.219 12.8113 141.668 12.8113C142.083 12.8113 142.445 12.9002 142.753 13.0778C143.064 13.2554 143.305 13.5128 143.474 13.8498C143.647 14.1868 143.732 14.5956 143.729 15.0763V18.9087H142.311V15.2957C142.311 14.8934 142.206 14.5786 141.997 14.3514C141.791 14.1241 141.505 14.0104 141.139 14.0104C140.891 14.0104 140.67 14.0653 140.477 14.175C140.286 14.2821 140.136 14.4376 140.026 14.6413C139.919 14.8451 139.865 15.092 139.865 15.3819Z" fill="white"/>
</svg>
