<svg width="289" height="29" viewBox="0 0 289 29" fill="none" xmlns="http://www.w3.org/2000/svg">
<path d="M7.7825 2.30118C7.7825 2.32635 7.79508 2.51511 7.82025 2.86747L4.87555 3.13174L11.1425 27.7465L18.1645 2.30118H18.7308L18.6175 2.6032L18.7685 2.30118L25.413 27.822L32.0574 3.62252C32.0574 3.37084 31.9442 3.23241 31.7177 3.20724L28.1689 2.90522L28.1312 2.33893L35.5307 2.30118C35.5307 2.32635 35.5433 2.51511 35.5684 2.86747L33.1145 3.09398L25.6395 28.728H23.3366L17.6359 6.1897L11.4068 28.728H9.06609L2.57264 3.39601C2.49713 3.21983 2.37129 3.11915 2.19511 3.09398L0.231972 2.90522L0.194219 2.33893L7.7825 2.30118ZM41.8262 1.9614V12.1924C45.1233 9.92721 48.1058 9.2225 50.7736 10.0782C51.3777 10.2544 51.8936 10.5187 52.3215 10.871C52.7745 11.1982 53.1646 11.7016 53.4918 12.3811C53.819 13.0607 53.9826 13.8787 53.9826 14.8351V27.973L56.814 28.1617C56.814 28.1869 56.8015 28.3757 56.7763 28.728L49.2258 28.7658C49.2258 28.5393 49.2383 28.3631 49.2635 28.2372L51.2266 27.973C51.3777 27.973 51.4783 27.8597 51.5287 27.6332V15.8166C51.5287 14.8351 51.3902 13.9919 51.1134 13.2872C50.8617 12.5573 50.5597 12.0288 50.2073 11.7016C49.855 11.3744 49.4397 11.1227 48.9615 10.9465C48.3071 10.6948 47.7282 10.5942 47.2249 10.6445C45.5889 10.6948 43.7894 11.3618 41.8262 12.6454V27.973L44.6577 28.1617C44.6577 28.1869 44.6451 28.3757 44.6199 28.728L37.0694 28.7658C37.0694 28.5393 37.082 28.3631 37.1072 28.2372L39.0703 27.973C39.2716 27.9478 39.3723 27.7716 39.3723 27.4444V1.77264C39.3723 1.49579 39.2968 1.35736 39.1458 1.35736L36.8806 1.28186L36.9184 0.753319C38.2775 0.526803 39.3094 0.413545 40.0141 0.413545C40.7188 0.413545 41.197 0.57714 41.4487 0.90433C41.7004 1.23152 41.8262 1.58388 41.8262 1.9614ZM60.2253 20.0449C60.2253 25.4813 62.3395 28.1995 66.5678 28.1995C67.6752 28.1995 68.8581 28.0862 70.1165 27.8597C71.375 27.608 72.1803 27.3815 72.5327 27.1802L72.797 27.5577C72.2181 27.9352 71.2617 28.2498 69.9278 28.5015C68.619 28.7532 67.4109 28.879 66.3035 28.879C65.2213 28.879 64.2397 28.7658 63.3588 28.5393C62.5031 28.3127 61.6222 27.9101 60.7161 27.3312C59.8101 26.7523 59.0928 25.8462 58.5642 24.613C58.0357 23.3797 57.7714 21.8696 57.7714 20.0827C57.7714 16.7604 58.6271 14.2184 60.3386 12.4566C62.1256 10.6193 64.202 9.7007 66.5678 9.7007C68.9336 9.7007 70.7332 10.3551 71.9664 11.6638C73.2248 12.9726 73.854 14.8099 73.854 17.1757C73.854 17.6791 73.8163 18.2202 73.7408 18.7991H60.2631C60.2379 19.0759 60.2253 19.4912 60.2253 20.0449ZM71.6266 16.9115C71.6266 15.0238 71.2114 13.4885 70.3808 12.3056C69.5502 11.0975 68.4177 10.4935 66.9831 10.4935C65.1206 10.4935 63.5476 11.3115 62.264 12.9474C61.2321 14.231 60.5903 15.9425 60.3386 18.0818H71.5889C71.6141 17.8049 71.6266 17.4148 71.6266 16.9115ZM79.3229 20.0449C79.3229 25.4813 81.437 28.1995 85.6653 28.1995C86.7727 28.1995 87.9556 28.0862 89.2141 27.8597C90.4725 27.608 91.2779 27.3815 91.6302 27.1802L91.8945 27.5577C91.3156 27.9352 90.3592 28.2498 89.0253 28.5015C87.7165 28.7532 86.5085 28.879 85.401 28.879C84.3188 28.879 83.3372 28.7658 82.4563 28.5393C81.6006 28.3127 80.7197 27.9101 79.8136 27.3312C78.9076 26.7523 78.1903 25.8462 77.6617 24.613C77.1332 23.3797 76.8689 21.8696 76.8689 20.0827C76.8689 16.7604 77.7247 14.2184 79.4361 12.4566C81.2231 10.6193 83.2995 9.7007 85.6653 9.7007C88.0311 9.7007 89.8307 10.3551 91.0639 11.6638C92.3224 12.9726 92.9516 14.8099 92.9516 17.1757C92.9516 17.6791 92.9138 18.2202 92.8383 18.7991H79.3606C79.3354 19.0759 79.3229 19.4912 79.3229 20.0449ZM90.7242 16.9115C90.7242 15.0238 90.3089 13.4885 89.4783 12.3056C88.6478 11.0975 87.5152 10.4935 86.0806 10.4935C84.2181 10.4935 82.6451 11.3115 81.3615 12.9474C80.3296 14.231 79.6878 15.9425 79.4361 18.0818H90.6864C90.7116 17.8049 90.7242 17.4148 90.7242 16.9115ZM95.9842 28.7658L96.0219 28.2372L97.9851 27.973C98.1612 27.9478 98.2745 27.822 98.3248 27.5954V1.77264C98.3248 1.49579 98.2493 1.35736 98.0983 1.35736L95.7954 1.28186L95.8332 0.753319C97.4188 0.526803 98.501 0.413545 99.0799 0.413545C99.6839 0.413545 100.112 0.57714 100.363 0.90433C100.64 1.23152 100.779 1.58388 100.779 1.9614V27.973L103.61 28.1617C103.61 28.1869 103.598 28.3757 103.572 28.728L95.9842 28.7658ZM126.884 28.879C124.266 28.879 122.139 28.124 120.503 26.6139C118.893 25.1038 118.087 22.8009 118.087 19.7051C118.087 16.5843 118.943 14.1429 120.654 12.3811C122.391 10.5942 124.568 9.7007 127.186 9.7007C129.803 9.7007 131.93 10.4557 133.566 11.9659C135.202 13.476 136.02 15.7915 136.02 18.9123C136.02 22.0081 135.151 24.4494 133.415 26.2364C131.703 27.9981 129.526 28.879 126.884 28.879ZM127.148 10.3802C125.26 10.3802 123.687 11.1982 122.429 12.8342C121.17 14.4701 120.541 16.6975 120.541 19.5164C120.541 22.3101 121.133 24.462 122.315 25.9721C123.524 27.457 125.071 28.1995 126.959 28.1995C128.847 28.1995 130.42 27.3815 131.678 25.7456C132.937 24.1096 133.566 21.8948 133.566 19.1011C133.566 16.3074 132.962 14.1555 131.754 12.6454C130.571 11.1353 129.035 10.3802 127.148 10.3802ZM137.733 28.7658L137.771 28.2372L139.734 27.973C139.961 27.9478 140.074 27.7716 140.074 27.4444V10.5313H138.149L138.451 10.2292L140.074 9.88946V5.28364C140.074 3.54701 140.64 2.30118 141.773 1.54613C142.905 0.765904 144.227 0.375793 145.737 0.375793C146.744 0.375793 147.599 0.51422 148.304 0.791074L148.191 1.05534C147.587 0.979835 147.058 0.942082 146.605 0.942082C146.177 0.942082 145.749 1.005 145.322 1.13085C144.919 1.25669 144.491 1.4832 144.038 1.81039C143.031 2.54028 142.528 3.98746 142.528 6.15195V9.85171H147.096V10.5313H142.528V27.973L145.737 28.1617C145.737 28.1869 145.724 28.3757 145.699 28.728L137.733 28.7658ZM162.846 2.86747L162.883 2.30118H179.041L179.004 2.41444L179.494 7.73756L178.739 8.03958L178.135 3.05623H167.867V15.2503H176.89C177.015 15.2755 177.129 15.2503 177.229 15.1748C177.33 15.0742 177.38 14.9483 177.38 14.7973L177.531 12.1924L178.135 12.1169V18.5726C178.11 18.5726 177.921 18.5852 177.569 18.6103L177.418 16.0054H167.867V28.0107L170.472 28.1617C170.472 28.1869 170.459 28.3757 170.434 28.728L162.846 28.7658L162.883 28.2372L164.846 27.973C165.098 27.9478 165.249 27.7842 165.299 27.4822V3.58477C165.249 3.28275 165.098 3.11915 164.846 3.09398L162.846 2.86747ZM188.969 28.879C186.351 28.879 184.225 28.124 182.589 26.6139C180.978 25.1038 180.173 22.8009 180.173 19.7051C180.173 16.5843 181.028 14.1429 182.74 12.3811C184.476 10.5942 186.653 9.7007 189.271 9.7007C191.888 9.7007 194.015 10.4557 195.651 11.9659C197.287 13.476 198.105 15.7915 198.105 18.9123C198.105 22.0081 197.237 24.4494 195.5 26.2364C193.789 27.9981 191.612 28.879 188.969 28.879ZM189.233 10.3802C187.346 10.3802 185.773 11.1982 184.514 12.8342C183.256 14.4701 182.626 16.6975 182.626 19.5164C182.626 22.3101 183.218 24.462 184.401 25.9721C185.609 27.457 187.157 28.1995 189.044 28.1995C190.932 28.1995 192.505 27.3815 193.764 25.7456C195.022 24.1096 195.651 21.8948 195.651 19.1011C195.651 16.3074 195.047 14.1555 193.839 12.6454C192.656 11.1353 191.121 10.3802 189.233 10.3802ZM205.142 11.3996V14.4198C207.13 11.5002 209.081 10.0153 210.993 9.96497C211.144 9.96497 211.295 9.96497 211.446 9.96497L213.561 10.2292L212.579 12.4944C212.101 12.0162 211.484 11.7771 210.729 11.7771C208.892 11.8023 207.029 13.0229 205.142 15.4391V27.973L208.351 28.1617C208.351 28.1869 208.338 28.3757 208.313 28.728L200.385 28.7658C200.385 28.5393 200.398 28.3631 200.423 28.2372L202.386 27.973C202.587 27.9478 202.688 27.7716 202.688 27.4444V11.0598C202.638 10.8836 202.562 10.7955 202.461 10.7955L200.196 10.72L200.234 10.1915C201.593 9.96497 202.625 9.85171 203.33 9.85171C204.034 9.85171 204.513 10.0153 204.764 10.3425C205.016 10.6697 205.142 11.022 205.142 11.3996ZM223.8 28.0107L225.273 27.9352L225.386 28.3127C225.361 28.3127 225.184 28.3505 224.857 28.426C224.102 28.6022 223.259 28.6903 222.328 28.6903C221.472 28.6399 220.692 28.5015 219.987 28.275C219.282 28.0233 218.628 27.5199 218.024 26.7649C217.42 25.9847 217.118 24.9905 217.118 23.7824V10.5313H215.193L215.495 10.2292L217.156 9.88946L217.458 6.26521L219.572 6.07644V9.85171H224.14V10.5313H219.572V23.1406C219.572 25.0534 219.975 26.3496 220.78 27.0292C221.585 27.6835 222.592 28.0107 223.8 28.0107ZM228.041 10.4557L228.003 9.88946L233.1 9.85171V22.9896C233.1 23.9712 233.238 24.8269 233.515 25.5568C233.792 26.2615 234.094 26.7775 234.421 27.1047C234.774 27.4319 235.176 27.6835 235.629 27.8597C236.334 28.1114 236.926 28.2121 237.404 28.1617C238.939 28.1366 240.688 27.3438 242.651 25.7833V11.173C242.551 10.871 242.337 10.6948 242.01 10.6445L240.046 10.4557C240.021 10.3047 240.009 10.116 240.009 9.88946L245.105 9.85171V26.9914C245.156 27.6206 245.357 27.9352 245.709 27.9352L247.975 28.0485L247.937 28.6148C246.729 28.8161 245.47 28.9168 244.162 28.9168C243.859 28.8916 243.532 28.728 243.18 28.426C242.828 28.0988 242.651 27.6961 242.651 27.2179V26.5384C240.361 28.0736 238.197 28.8413 236.158 28.8413C235.302 28.8413 234.295 28.6274 233.138 28.1995C232.383 27.9226 231.779 27.4067 231.326 26.6516C230.873 25.8714 230.646 24.9024 230.646 23.7447V11.2108C230.646 11.085 230.571 10.9717 230.42 10.871C230.294 10.7452 230.155 10.6697 230.004 10.6445L228.041 10.4557ZM250.82 28.7658L250.858 28.2372L252.821 27.973C253.048 27.9478 253.161 27.7716 253.161 27.4444V11.0975C253.11 10.8962 253.035 10.7955 252.934 10.7955L250.631 10.72L250.669 10.1915C252.255 9.96497 253.324 9.85171 253.878 9.85171C254.885 9.85171 255.451 10.2922 255.577 11.173H255.615V11.9659C257.679 10.5564 259.654 9.81395 261.542 9.73845C263.379 9.73845 264.776 10.1034 265.732 10.8333C266.16 11.1605 266.538 11.6764 266.865 12.3811C267.217 13.0607 267.394 13.8787 267.394 14.8351V27.973L270.225 28.1617C270.225 28.1869 270.212 28.3757 270.187 28.728L262.637 28.7658C262.637 28.5393 262.649 28.3631 262.674 28.2372L264.638 27.973C264.839 27.9478 264.94 27.7716 264.94 27.4444V15.7789C264.94 14.7721 264.801 13.9164 264.524 13.2117C264.273 12.507 263.983 11.991 263.656 11.6638C263.329 11.3366 262.926 11.085 262.448 10.9088C261.894 10.7074 261.315 10.6068 260.711 10.6068C259.201 10.6319 257.502 11.2234 255.615 12.3811V27.973L258.446 28.1617C258.446 28.1869 258.434 28.3757 258.408 28.728L250.82 28.7658ZM274.427 20.0449C274.427 25.4813 276.541 28.1995 280.77 28.1995C281.877 28.1995 283.06 28.0862 284.319 27.8597C285.577 27.608 286.382 27.3815 286.735 27.1802L286.999 27.5577C286.42 27.9352 285.464 28.2498 284.13 28.5015C282.821 28.7532 281.613 28.879 280.506 28.879C279.423 28.879 278.442 28.7658 277.561 28.5393C276.705 28.3127 275.824 27.9101 274.918 27.3312C274.012 26.7523 273.295 25.8462 272.766 24.613C272.238 23.3797 271.973 21.8696 271.973 20.0827C271.973 16.7604 272.829 14.2184 274.541 12.4566C276.328 10.6193 278.404 9.7007 280.77 9.7007C283.136 9.7007 284.935 10.3551 286.168 11.6638C287.427 12.9726 288.056 14.8099 288.056 17.1757C288.056 17.6791 288.018 18.2202 287.943 18.7991H274.465C274.44 19.0759 274.427 19.4912 274.427 20.0449ZM285.829 16.9115C285.829 15.0238 285.413 13.4885 284.583 12.3056C283.752 11.0975 282.62 10.4935 281.185 10.4935C279.323 10.4935 277.75 11.3115 276.466 12.9474C275.434 14.231 274.792 15.9425 274.541 18.0818H285.791C285.816 17.8049 285.829 17.4148 285.829 16.9115Z" fill="white"/>
<path d="M7.7825 2.30118C7.7825 2.32635 7.79508 2.51511 7.82025 2.86747L4.87555 3.13174L11.1425 27.7465L18.1645 2.30118H18.7308L18.6175 2.6032L18.7685 2.30118L25.413 27.822L32.0574 3.62252C32.0574 3.37084 31.9442 3.23241 31.7177 3.20724L28.1689 2.90522L28.1312 2.33893L35.5307 2.30118C35.5307 2.32635 35.5433 2.51511 35.5684 2.86747L33.1145 3.09398L25.6395 28.728H23.3366L17.6359 6.1897L11.4068 28.728H9.06609L2.57264 3.39601C2.49713 3.21983 2.37129 3.11915 2.19511 3.09398L0.231972 2.90522L0.194219 2.33893L7.7825 2.30118ZM41.8262 1.9614V12.1924C45.1233 9.92721 48.1058 9.2225 50.7736 10.0782C51.3777 10.2544 51.8936 10.5187 52.3215 10.871C52.7745 11.1982 53.1646 11.7016 53.4918 12.3811C53.819 13.0607 53.9826 13.8787 53.9826 14.8351V27.973L56.814 28.1617C56.814 28.1869 56.8015 28.3757 56.7763 28.728L49.2258 28.7658C49.2258 28.5393 49.2383 28.3631 49.2635 28.2372L51.2266 27.973C51.3777 27.973 51.4783 27.8597 51.5287 27.6332V15.8166C51.5287 14.8351 51.3902 13.9919 51.1134 13.2872C50.8617 12.5573 50.5597 12.0288 50.2073 11.7016C49.855 11.3744 49.4397 11.1227 48.9615 10.9465C48.3071 10.6948 47.7282 10.5942 47.2249 10.6445C45.5889 10.6948 43.7894 11.3618 41.8262 12.6454V27.973L44.6577 28.1617C44.6577 28.1869 44.6451 28.3757 44.6199 28.728L37.0694 28.7658C37.0694 28.5393 37.082 28.3631 37.1072 28.2372L39.0703 27.973C39.2716 27.9478 39.3723 27.7716 39.3723 27.4444V1.77264C39.3723 1.49579 39.2968 1.35736 39.1458 1.35736L36.8806 1.28186L36.9184 0.753319C38.2775 0.526803 39.3094 0.413545 40.0141 0.413545C40.7188 0.413545 41.197 0.57714 41.4487 0.90433C41.7004 1.23152 41.8262 1.58388 41.8262 1.9614ZM60.2253 20.0449C60.2253 25.4813 62.3395 28.1995 66.5678 28.1995C67.6752 28.1995 68.8581 28.0862 70.1165 27.8597C71.375 27.608 72.1803 27.3815 72.5327 27.1802L72.797 27.5577C72.2181 27.9352 71.2617 28.2498 69.9278 28.5015C68.619 28.7532 67.4109 28.879 66.3035 28.879C65.2213 28.879 64.2397 28.7658 63.3588 28.5393C62.5031 28.3127 61.6222 27.9101 60.7161 27.3312C59.8101 26.7523 59.0928 25.8462 58.5642 24.613C58.0357 23.3797 57.7714 21.8696 57.7714 20.0827C57.7714 16.7604 58.6271 14.2184 60.3386 12.4566C62.1256 10.6193 64.202 9.7007 66.5678 9.7007C68.9336 9.7007 70.7332 10.3551 71.9664 11.6638C73.2248 12.9726 73.854 14.8099 73.854 17.1757C73.854 17.6791 73.8163 18.2202 73.7408 18.7991H60.2631C60.2379 19.0759 60.2253 19.4912 60.2253 20.0449ZM71.6266 16.9115C71.6266 15.0238 71.2114 13.4885 70.3808 12.3056C69.5502 11.0975 68.4177 10.4935 66.9831 10.4935C65.1206 10.4935 63.5476 11.3115 62.264 12.9474C61.2321 14.231 60.5903 15.9425 60.3386 18.0818H71.5889C71.6141 17.8049 71.6266 17.4148 71.6266 16.9115ZM79.3229 20.0449C79.3229 25.4813 81.437 28.1995 85.6653 28.1995C86.7727 28.1995 87.9556 28.0862 89.2141 27.8597C90.4725 27.608 91.2779 27.3815 91.6302 27.1802L91.8945 27.5577C91.3156 27.9352 90.3592 28.2498 89.0253 28.5015C87.7165 28.7532 86.5085 28.879 85.401 28.879C84.3188 28.879 83.3372 28.7658 82.4563 28.5393C81.6006 28.3127 80.7197 27.9101 79.8136 27.3312C78.9076 26.7523 78.1903 25.8462 77.6617 24.613C77.1332 23.3797 76.8689 21.8696 76.8689 20.0827C76.8689 16.7604 77.7247 14.2184 79.4361 12.4566C81.2231 10.6193 83.2995 9.7007 85.6653 9.7007C88.0311 9.7007 89.8307 10.3551 91.0639 11.6638C92.3224 12.9726 92.9516 14.8099 92.9516 17.1757C92.9516 17.6791 92.9138 18.2202 92.8383 18.7991H79.3606C79.3354 19.0759 79.3229 19.4912 79.3229 20.0449ZM90.7242 16.9115C90.7242 15.0238 90.3089 13.4885 89.4783 12.3056C88.6478 11.0975 87.5152 10.4935 86.0806 10.4935C84.2181 10.4935 82.6451 11.3115 81.3615 12.9474C80.3296 14.231 79.6878 15.9425 79.4361 18.0818H90.6864C90.7116 17.8049 90.7242 17.4148 90.7242 16.9115ZM95.9842 28.7658L96.0219 28.2372L97.9851 27.973C98.1612 27.9478 98.2745 27.822 98.3248 27.5954V1.77264C98.3248 1.49579 98.2493 1.35736 98.0983 1.35736L95.7954 1.28186L95.8332 0.753319C97.4188 0.526803 98.501 0.413545 99.0799 0.413545C99.6839 0.413545 100.112 0.57714 100.363 0.90433C100.64 1.23152 100.779 1.58388 100.779 1.9614V27.973L103.61 28.1617C103.61 28.1869 103.598 28.3757 103.572 28.728L95.9842 28.7658ZM126.884 28.879C124.266 28.879 122.139 28.124 120.503 26.6139C118.893 25.1038 118.087 22.8009 118.087 19.7051C118.087 16.5843 118.943 14.1429 120.654 12.3811C122.391 10.5942 124.568 9.7007 127.186 9.7007C129.803 9.7007 131.93 10.4557 133.566 11.9659C135.202 13.476 136.02 15.7915 136.02 18.9123C136.02 22.0081 135.151 24.4494 133.415 26.2364C131.703 27.9981 129.526 28.879 126.884 28.879ZM127.148 10.3802C125.26 10.3802 123.687 11.1982 122.429 12.8342C121.17 14.4701 120.541 16.6975 120.541 19.5164C120.541 22.3101 121.133 24.462 122.315 25.9721C123.524 27.457 125.071 28.1995 126.959 28.1995C128.847 28.1995 130.42 27.3815 131.678 25.7456C132.937 24.1096 133.566 21.8948 133.566 19.1011C133.566 16.3074 132.962 14.1555 131.754 12.6454C130.571 11.1353 129.035 10.3802 127.148 10.3802ZM137.733 28.7658L137.771 28.2372L139.734 27.973C139.961 27.9478 140.074 27.7716 140.074 27.4444V10.5313H138.149L138.451 10.2292L140.074 9.88946V5.28364C140.074 3.54701 140.64 2.30118 141.773 1.54613C142.905 0.765904 144.227 0.375793 145.737 0.375793C146.744 0.375793 147.599 0.51422 148.304 0.791074L148.191 1.05534C147.587 0.979835 147.058 0.942082 146.605 0.942082C146.177 0.942082 145.749 1.005 145.322 1.13085C144.919 1.25669 144.491 1.4832 144.038 1.81039C143.031 2.54028 142.528 3.98746 142.528 6.15195V9.85171H147.096V10.5313H142.528V27.973L145.737 28.1617C145.737 28.1869 145.724 28.3757 145.699 28.728L137.733 28.7658ZM162.846 2.86747L162.883 2.30118H179.041L179.004 2.41444L179.494 7.73756L178.739 8.03958L178.135 3.05623H167.867V15.2503H176.89C177.015 15.2755 177.129 15.2503 177.229 15.1748C177.33 15.0742 177.38 14.9483 177.38 14.7973L177.531 12.1924L178.135 12.1169V18.5726C178.11 18.5726 177.921 18.5852 177.569 18.6103L177.418 16.0054H167.867V28.0107L170.472 28.1617C170.472 28.1869 170.459 28.3757 170.434 28.728L162.846 28.7658L162.883 28.2372L164.846 27.973C165.098 27.9478 165.249 27.7842 165.299 27.4822V3.58477C165.249 3.28275 165.098 3.11915 164.846 3.09398L162.846 2.86747ZM188.969 28.879C186.351 28.879 184.225 28.124 182.589 26.6139C180.978 25.1038 180.173 22.8009 180.173 19.7051C180.173 16.5843 181.028 14.1429 182.74 12.3811C184.476 10.5942 186.653 9.7007 189.271 9.7007C191.888 9.7007 194.015 10.4557 195.651 11.9659C197.287 13.476 198.105 15.7915 198.105 18.9123C198.105 22.0081 197.237 24.4494 195.5 26.2364C193.789 27.9981 191.612 28.879 188.969 28.879ZM189.233 10.3802C187.346 10.3802 185.773 11.1982 184.514 12.8342C183.256 14.4701 182.626 16.6975 182.626 19.5164C182.626 22.3101 183.218 24.462 184.401 25.9721C185.609 27.457 187.157 28.1995 189.044 28.1995C190.932 28.1995 192.505 27.3815 193.764 25.7456C195.022 24.1096 195.651 21.8948 195.651 19.1011C195.651 16.3074 195.047 14.1555 193.839 12.6454C192.656 11.1353 191.121 10.3802 189.233 10.3802ZM205.142 11.3996V14.4198C207.13 11.5002 209.081 10.0153 210.993 9.96497C211.144 9.96497 211.295 9.96497 211.446 9.96497L213.561 10.2292L212.579 12.4944C212.101 12.0162 211.484 11.7771 210.729 11.7771C208.892 11.8023 207.029 13.0229 205.142 15.4391V27.973L208.351 28.1617C208.351 28.1869 208.338 28.3757 208.313 28.728L200.385 28.7658C200.385 28.5393 200.398 28.3631 200.423 28.2372L202.386 27.973C202.587 27.9478 202.688 27.7716 202.688 27.4444V11.0598C202.638 10.8836 202.562 10.7955 202.461 10.7955L200.196 10.72L200.234 10.1915C201.593 9.96497 202.625 9.85171 203.33 9.85171C204.034 9.85171 204.513 10.0153 204.764 10.3425C205.016 10.6697 205.142 11.022 205.142 11.3996ZM223.8 28.0107L225.273 27.9352L225.386 28.3127C225.361 28.3127 225.184 28.3505 224.857 28.426C224.102 28.6022 223.259 28.6903 222.328 28.6903C221.472 28.6399 220.692 28.5015 219.987 28.275C219.282 28.0233 218.628 27.5199 218.024 26.7649C217.42 25.9847 217.118 24.9905 217.118 23.7824V10.5313H215.193L215.495 10.2292L217.156 9.88946L217.458 6.26521L219.572 6.07644V9.85171H224.14V10.5313H219.572V23.1406C219.572 25.0534 219.975 26.3496 220.78 27.0292C221.585 27.6835 222.592 28.0107 223.8 28.0107ZM228.041 10.4557L228.003 9.88946L233.1 9.85171V22.9896C233.1 23.9712 233.238 24.8269 233.515 25.5568C233.792 26.2615 234.094 26.7775 234.421 27.1047C234.774 27.4319 235.176 27.6835 235.629 27.8597C236.334 28.1114 236.926 28.2121 237.404 28.1617C238.939 28.1366 240.688 27.3438 242.651 25.7833V11.173C242.551 10.871 242.337 10.6948 242.01 10.6445L240.046 10.4557C240.021 10.3047 240.009 10.116 240.009 9.88946L245.105 9.85171V26.9914C245.156 27.6206 245.357 27.9352 245.709 27.9352L247.975 28.0485L247.937 28.6148C246.729 28.8161 245.47 28.9168 244.162 28.9168C243.859 28.8916 243.532 28.728 243.18 28.426C242.828 28.0988 242.651 27.6961 242.651 27.2179V26.5384C240.361 28.0736 238.197 28.8413 236.158 28.8413C235.302 28.8413 234.295 28.6274 233.138 28.1995C232.383 27.9226 231.779 27.4067 231.326 26.6516C230.873 25.8714 230.646 24.9024 230.646 23.7447V11.2108C230.646 11.085 230.571 10.9717 230.42 10.871C230.294 10.7452 230.155 10.6697 230.004 10.6445L228.041 10.4557ZM250.82 28.7658L250.858 28.2372L252.821 27.973C253.048 27.9478 253.161 27.7716 253.161 27.4444V11.0975C253.11 10.8962 253.035 10.7955 252.934 10.7955L250.631 10.72L250.669 10.1915C252.255 9.96497 253.324 9.85171 253.878 9.85171C254.885 9.85171 255.451 10.2922 255.577 11.173H255.615V11.9659C257.679 10.5564 259.654 9.81395 261.542 9.73845C263.379 9.73845 264.776 10.1034 265.732 10.8333C266.16 11.1605 266.538 11.6764 266.865 12.3811C267.217 13.0607 267.394 13.8787 267.394 14.8351V27.973L270.225 28.1617C270.225 28.1869 270.212 28.3757 270.187 28.728L262.637 28.7658C262.637 28.5393 262.649 28.3631 262.674 28.2372L264.638 27.973C264.839 27.9478 264.94 27.7716 264.94 27.4444V15.7789C264.94 14.7721 264.801 13.9164 264.524 13.2117C264.273 12.507 263.983 11.991 263.656 11.6638C263.329 11.3366 262.926 11.085 262.448 10.9088C261.894 10.7074 261.315 10.6068 260.711 10.6068C259.201 10.6319 257.502 11.2234 255.615 12.3811V27.973L258.446 28.1617C258.446 28.1869 258.434 28.3757 258.408 28.728L250.82 28.7658ZM274.427 20.0449C274.427 25.4813 276.541 28.1995 280.77 28.1995C281.877 28.1995 283.06 28.0862 284.319 27.8597C285.577 27.608 286.382 27.3815 286.735 27.1802L286.999 27.5577C286.42 27.9352 285.464 28.2498 284.13 28.5015C282.821 28.7532 281.613 28.879 280.506 28.879C279.423 28.879 278.442 28.7658 277.561 28.5393C276.705 28.3127 275.824 27.9101 274.918 27.3312C274.012 26.7523 273.295 25.8462 272.766 24.613C272.238 23.3797 271.973 21.8696 271.973 20.0827C271.973 16.7604 272.829 14.2184 274.541 12.4566C276.328 10.6193 278.404 9.7007 280.77 9.7007C283.136 9.7007 284.935 10.3551 286.168 11.6638C287.427 12.9726 288.056 14.8099 288.056 17.1757C288.056 17.6791 288.018 18.2202 287.943 18.7991H274.465C274.44 19.0759 274.427 19.4912 274.427 20.0449ZM285.829 16.9115C285.829 15.0238 285.413 13.4885 284.583 12.3056C283.752 11.0975 282.62 10.4935 281.185 10.4935C279.323 10.4935 277.75 11.3115 276.466 12.9474C275.434 14.231 274.792 15.9425 274.541 18.0818H285.791C285.816 17.8049 285.829 17.4148 285.829 16.9115Z" fill="url(#paint0_linear_26_43)"/>
<defs>
<linearGradient id="paint0_linear_26_43" x1="79.9307" y1="-7.27197" x2="209.753" y2="106.687" gradientUnits="userSpaceOnUse">
<stop stop-color="#FFB905"/>
<stop offset="1" stop-color="#F4DC00"/>
</linearGradient>
</defs>
</svg>
