<svg width="172" height="30" viewBox="0 0 172 30" fill="none" xmlns="http://www.w3.org/2000/svg">
<path d="M7.63532 2.54648C7.63532 2.57165 7.64791 2.76041 7.67307 3.11277L5.06814 3.33928V28.2183H15.4879L16.2429 22.1779L16.9602 22.3666L16.3939 28.9733H7.63532L0.0470406 29.0111L0.0847933 28.4825L2.04793 28.2183C2.29961 28.1931 2.45063 28.0295 2.50096 27.7275V3.83007C2.45063 3.52805 2.29961 3.36445 2.04793 3.33928L0.0847933 3.15052L0.0470406 2.58423L7.63532 2.54648ZM19.228 10.701L19.1903 10.1348L24.2869 10.097V23.2349C24.2869 24.2165 24.4253 25.0722 24.7022 25.8021C24.979 26.5068 25.281 27.0228 25.6082 27.35C25.9606 27.6772 26.3633 27.9288 26.8163 28.105C27.521 28.3567 28.1125 28.4574 28.5907 28.407C30.126 28.3819 31.8752 27.5891 33.8383 26.0286V11.4183C33.7376 11.1163 33.5237 10.9401 33.1965 10.8898L31.2334 10.701C31.2082 10.55 31.1956 10.3613 31.1956 10.1348L36.2922 10.097V27.2367C36.3426 27.8659 36.5439 28.1805 36.8963 28.1805L39.1614 28.2938L39.1237 28.8601C37.9156 29.0614 36.6572 29.1621 35.3484 29.1621C35.0464 29.1369 34.7192 28.9733 34.3668 28.6713C34.0145 28.3441 33.8383 27.9414 33.8383 27.4632V26.7837C31.548 28.3189 29.3835 29.0866 27.3449 29.0866C26.4891 29.0866 25.4824 28.8727 24.3246 28.4448C23.5696 28.1679 22.9655 27.652 22.5125 26.8969C22.0595 26.1167 21.833 25.1477 21.833 23.99V11.4561C21.833 11.3303 21.7575 11.217 21.6065 11.1163C21.4806 10.9905 21.3422 10.915 21.1912 10.8898L19.228 10.701ZM42.007 29.0111L42.0448 28.4825L44.0079 28.2183C44.2344 28.1931 44.3477 28.0169 44.3477 27.6897V11.3428C44.2974 11.1415 44.2219 11.0408 44.1212 11.0408L41.8183 10.9653L41.856 10.4368C43.4416 10.2103 44.5113 10.097 45.065 10.097C46.0717 10.097 46.638 10.5375 46.7639 11.4183H46.8016V12.2112C48.8654 10.8017 50.8412 10.0593 52.7288 9.98375C54.5661 9.98375 55.9629 10.3487 56.9193 11.0786C57.3472 11.4058 57.7247 11.9217 58.0519 12.6264C58.4043 13.306 58.5804 14.124 58.5804 15.0804V28.2183L61.4119 28.407C61.4119 28.4322 61.3993 28.621 61.3741 28.9733L53.8236 29.0111C53.8236 28.7846 53.8362 28.6084 53.8614 28.4825L55.8245 28.2183C56.0259 28.1931 56.1265 28.0169 56.1265 27.6897V16.0242C56.1265 15.0174 55.9881 14.1617 55.7112 13.457C55.4596 12.7523 55.1701 12.2363 54.8429 11.9091C54.5157 11.5819 54.1131 11.3303 53.6348 11.1541C53.0811 10.9527 52.5023 10.8521 51.8982 10.8521C50.3881 10.8772 48.6893 11.4687 46.8016 12.6264V28.2183L49.6331 28.407C49.6331 28.4322 49.6205 28.621 49.5953 28.9733L42.007 29.0111ZM72.7872 10.6255C70.6479 10.6255 68.9113 11.4687 67.5774 13.155C66.2686 14.8161 65.6142 17.1819 65.6142 20.2525C65.6142 25.714 67.6906 28.4448 71.8434 28.4448C73.4794 28.4448 74.8762 28.2938 76.034 27.9918C77.1917 27.6646 77.8209 27.4632 77.9216 27.3877L78.1859 27.803C77.607 28.1805 76.6506 28.4951 75.3167 28.7468C73.9827 28.9985 72.7746 29.1243 71.6924 29.1243C70.6102 29.1243 69.6286 29.0111 68.7477 28.7846C67.8668 28.558 66.9733 28.1554 66.0673 27.5765C65.1864 26.9976 64.4817 26.0915 63.9531 24.8583C63.4246 23.5999 63.1603 22.0772 63.1603 20.2902C63.1603 16.9932 64.0035 14.5015 65.6897 12.8152C67.5774 10.8772 69.9558 9.90824 72.825 9.90824C73.731 9.90824 74.6874 10.0341 75.6942 10.2858C76.7261 10.5123 77.5189 10.8772 78.0726 11.3806V16.3262L77.3553 16.5905L77.1665 12.6264C76.6128 12.0476 75.9333 11.5694 75.1279 11.1918C74.3477 10.8143 73.5675 10.6255 72.7872 10.6255ZM85.9632 2.2067V12.4377C89.2603 10.1725 92.2427 9.4678 94.9106 10.3235C95.5146 10.4997 96.0306 10.764 96.4584 11.1163C96.9115 11.4435 97.3016 11.9469 97.6288 12.6264C97.956 13.306 98.1195 14.124 98.1195 15.0804V28.2183L100.951 28.407C100.951 28.4322 100.938 28.621 100.913 28.9733L93.3627 29.0111C93.3627 28.7846 93.3753 28.6084 93.4005 28.4825L95.3636 28.2183C95.5146 28.2183 95.6153 28.105 95.6656 27.8785V16.0619C95.6656 15.0804 95.5272 14.2372 95.2503 13.5325C94.9987 12.8026 94.6966 12.2741 94.3443 11.9469C93.9919 11.6197 93.5766 11.368 93.0984 11.1918C92.4441 10.9401 91.8652 10.8395 91.3618 10.8898C89.7259 10.9401 87.9263 11.6071 85.9632 12.8907V28.2183L88.7946 28.407C88.7946 28.4322 88.7821 28.621 88.7569 28.9733L81.2064 29.0111C81.2064 28.7846 81.2189 28.6084 81.2441 28.4825L83.2073 28.2183C83.4086 28.1931 83.5093 28.0169 83.5093 27.6897V2.01794C83.5093 1.74109 83.4338 1.60266 83.2828 1.60266L81.0176 1.52716L81.0554 0.998619C82.4144 0.772104 83.4464 0.658846 84.1511 0.658846C84.8558 0.658846 85.334 0.82244 85.5857 1.14963C85.8374 1.47682 85.9632 1.82918 85.9632 2.2067ZM110.327 28.256L111.8 28.1805L111.913 28.558C111.888 28.558 111.711 28.5958 111.384 28.6713C110.629 28.8475 109.786 28.9356 108.855 28.9356C107.999 28.8852 107.219 28.7468 106.514 28.5203C105.809 28.2686 105.155 27.7652 104.551 27.0102C103.947 26.23 103.645 25.2358 103.645 24.0277V10.7766H101.72L102.022 10.4745L103.683 10.1348L103.985 6.51051L106.099 6.32174V10.097H110.667V10.7766H106.099V23.3859C106.099 25.2987 106.502 26.5949 107.307 27.2745C108.112 27.9288 109.119 28.256 110.327 28.256ZM118.739 11.6449V28.2183L121.57 28.407C121.57 28.4322 121.558 28.621 121.532 28.9733L113.982 29.0111C113.982 28.7846 113.994 28.6084 114.02 28.4825L115.983 28.2183C116.134 28.2183 116.234 28.105 116.285 27.8785V11.3051C116.234 11.1289 116.159 11.0408 116.058 11.0408L113.793 10.9653L113.831 10.4368C115.19 10.2103 116.222 10.097 116.927 10.097C117.631 10.097 118.109 10.2606 118.361 10.5878C118.613 10.915 118.739 11.2673 118.739 11.6449ZM117.455 5.03815C116.952 5.03815 116.562 4.88714 116.285 4.58512C116.008 4.25793 115.869 3.84265 115.869 3.33928C115.869 2.81075 116.008 2.39547 116.285 2.09345C116.587 1.76626 116.989 1.60266 117.493 1.60266C117.996 1.60266 118.399 1.76626 118.701 2.09345C119.028 2.39547 119.192 2.82333 119.192 3.37704C119.192 3.90557 119.028 4.32085 118.701 4.62287C118.374 4.89973 117.958 5.03815 117.455 5.03815ZM133.703 10.8143C132.192 10.8395 130.557 11.3932 128.795 12.4754V28.2183L131.626 28.407C131.626 28.4322 131.614 28.621 131.588 28.9733L124.038 29.0111C124.038 28.7846 124.051 28.6084 124.076 28.4825L126.039 28.2183C126.19 28.2183 126.29 28.105 126.341 27.8785V11.3051C126.29 11.1289 126.215 11.0408 126.114 11.0408L123.849 10.9653L123.887 10.4368C125.246 10.2103 126.278 10.097 126.983 10.097C127.687 10.097 128.166 10.2606 128.417 10.5878C128.669 10.915 128.795 11.2673 128.795 11.6449V12.0979C130.884 10.7891 132.797 10.0844 134.533 9.98375C136.924 9.98375 138.548 10.6633 139.403 12.0224C141.593 10.764 143.657 10.0844 145.595 9.98375C147.356 9.98375 148.69 10.3487 149.596 11.0786C150.024 11.4058 150.389 11.9217 150.691 12.6264C151.018 13.306 151.182 14.124 151.182 15.0804V28.2183L154.014 28.407C154.014 28.4322 154.001 28.621 153.976 28.9733L146.425 29.0111C146.425 28.7846 146.438 28.6084 146.463 28.4825L148.426 28.2183C148.577 28.2183 148.678 28.105 148.728 27.8785V16.0242C148.728 15.0174 148.602 14.1617 148.351 13.457C148.099 12.7271 147.822 12.1986 147.52 11.8714C147.218 11.5442 146.841 11.2925 146.387 11.1163C145.884 10.915 145.343 10.8143 144.764 10.8143C143.204 10.8395 141.505 11.4309 139.668 12.5887C139.995 13.2934 140.158 14.124 140.158 15.0804V28.2183L142.99 28.407C142.99 28.4322 142.977 28.621 142.952 28.9733L135.364 29.0111L135.401 28.4825L137.365 28.2183C137.541 28.1931 137.654 28.0673 137.704 27.8407V15.9864C137.704 14.7532 137.541 13.7464 137.214 12.9662C136.886 12.1608 136.446 11.6323 135.892 11.3806C135.137 11.0031 134.407 10.8143 133.703 10.8143ZM158.189 20.2902C158.189 25.7266 160.303 28.4448 164.532 28.4448C165.639 28.4448 166.822 28.3315 168.08 28.105C169.339 27.8533 170.144 27.6268 170.497 27.4255L170.761 27.803C170.182 28.1805 169.226 28.4951 167.892 28.7468C166.583 28.9985 165.375 29.1243 164.267 29.1243C163.185 29.1243 162.204 29.0111 161.323 28.7846C160.467 28.558 159.586 28.1554 158.68 27.5765C157.774 26.9976 157.057 26.0915 156.528 24.8583C156 23.625 155.735 22.1149 155.735 20.328C155.735 17.0057 156.591 14.4637 158.303 12.7019C160.09 10.8646 162.166 9.946 164.532 9.946C166.898 9.946 168.697 10.6004 169.93 11.9091C171.189 13.2179 171.818 15.0552 171.818 17.421C171.818 17.9244 171.78 18.4655 171.705 19.0444H158.227C158.202 19.3212 158.189 19.7365 158.189 20.2902ZM169.591 17.1568C169.591 15.2691 169.175 13.7338 168.345 12.5509C167.514 11.3428 166.382 10.7388 164.947 10.7388C163.085 10.7388 161.512 11.5568 160.228 13.1927C159.196 14.4763 158.554 16.1878 158.303 18.3271H169.553C169.578 18.0502 169.591 17.6601 169.591 17.1568Z" fill="white"/>
<path d="M7.63532 2.54648C7.63532 2.57165 7.64791 2.76041 7.67307 3.11277L5.06814 3.33928V28.2183H15.4879L16.2429 22.1779L16.9602 22.3666L16.3939 28.9733H7.63532L0.0470406 29.0111L0.0847933 28.4825L2.04793 28.2183C2.29961 28.1931 2.45063 28.0295 2.50096 27.7275V3.83007C2.45063 3.52805 2.29961 3.36445 2.04793 3.33928L0.0847933 3.15052L0.0470406 2.58423L7.63532 2.54648ZM19.228 10.701L19.1903 10.1348L24.2869 10.097V23.2349C24.2869 24.2165 24.4253 25.0722 24.7022 25.8021C24.979 26.5068 25.281 27.0228 25.6082 27.35C25.9606 27.6772 26.3633 27.9288 26.8163 28.105C27.521 28.3567 28.1125 28.4574 28.5907 28.407C30.126 28.3819 31.8752 27.5891 33.8383 26.0286V11.4183C33.7376 11.1163 33.5237 10.9401 33.1965 10.8898L31.2334 10.701C31.2082 10.55 31.1956 10.3613 31.1956 10.1348L36.2922 10.097V27.2367C36.3426 27.8659 36.5439 28.1805 36.8963 28.1805L39.1614 28.2938L39.1237 28.8601C37.9156 29.0614 36.6572 29.1621 35.3484 29.1621C35.0464 29.1369 34.7192 28.9733 34.3668 28.6713C34.0145 28.3441 33.8383 27.9414 33.8383 27.4632V26.7837C31.548 28.3189 29.3835 29.0866 27.3449 29.0866C26.4891 29.0866 25.4824 28.8727 24.3246 28.4448C23.5696 28.1679 22.9655 27.652 22.5125 26.8969C22.0595 26.1167 21.833 25.1477 21.833 23.99V11.4561C21.833 11.3303 21.7575 11.217 21.6065 11.1163C21.4806 10.9905 21.3422 10.915 21.1912 10.8898L19.228 10.701ZM42.007 29.0111L42.0448 28.4825L44.0079 28.2183C44.2344 28.1931 44.3477 28.0169 44.3477 27.6897V11.3428C44.2974 11.1415 44.2219 11.0408 44.1212 11.0408L41.8183 10.9653L41.856 10.4368C43.4416 10.2103 44.5113 10.097 45.065 10.097C46.0717 10.097 46.638 10.5375 46.7639 11.4183H46.8016V12.2112C48.8654 10.8017 50.8412 10.0593 52.7288 9.98375C54.5661 9.98375 55.9629 10.3487 56.9193 11.0786C57.3472 11.4058 57.7247 11.9217 58.0519 12.6264C58.4043 13.306 58.5804 14.124 58.5804 15.0804V28.2183L61.4119 28.407C61.4119 28.4322 61.3993 28.621 61.3741 28.9733L53.8236 29.0111C53.8236 28.7846 53.8362 28.6084 53.8614 28.4825L55.8245 28.2183C56.0259 28.1931 56.1265 28.0169 56.1265 27.6897V16.0242C56.1265 15.0174 55.9881 14.1617 55.7112 13.457C55.4596 12.7523 55.1701 12.2363 54.8429 11.9091C54.5157 11.5819 54.1131 11.3303 53.6348 11.1541C53.0811 10.9527 52.5023 10.8521 51.8982 10.8521C50.3881 10.8772 48.6893 11.4687 46.8016 12.6264V28.2183L49.6331 28.407C49.6331 28.4322 49.6205 28.621 49.5953 28.9733L42.007 29.0111ZM72.7872 10.6255C70.6479 10.6255 68.9113 11.4687 67.5774 13.155C66.2686 14.8161 65.6142 17.1819 65.6142 20.2525C65.6142 25.714 67.6906 28.4448 71.8434 28.4448C73.4794 28.4448 74.8762 28.2938 76.034 27.9918C77.1917 27.6646 77.8209 27.4632 77.9216 27.3877L78.1859 27.803C77.607 28.1805 76.6506 28.4951 75.3167 28.7468C73.9827 28.9985 72.7746 29.1243 71.6924 29.1243C70.6102 29.1243 69.6286 29.0111 68.7477 28.7846C67.8668 28.558 66.9733 28.1554 66.0673 27.5765C65.1864 26.9976 64.4817 26.0915 63.9531 24.8583C63.4246 23.5999 63.1603 22.0772 63.1603 20.2902C63.1603 16.9932 64.0035 14.5015 65.6897 12.8152C67.5774 10.8772 69.9558 9.90824 72.825 9.90824C73.731 9.90824 74.6874 10.0341 75.6942 10.2858C76.7261 10.5123 77.5189 10.8772 78.0726 11.3806V16.3262L77.3553 16.5905L77.1665 12.6264C76.6128 12.0476 75.9333 11.5694 75.1279 11.1918C74.3477 10.8143 73.5675 10.6255 72.7872 10.6255ZM85.9632 2.2067V12.4377C89.2603 10.1725 92.2427 9.4678 94.9106 10.3235C95.5146 10.4997 96.0306 10.764 96.4584 11.1163C96.9115 11.4435 97.3016 11.9469 97.6288 12.6264C97.956 13.306 98.1195 14.124 98.1195 15.0804V28.2183L100.951 28.407C100.951 28.4322 100.938 28.621 100.913 28.9733L93.3627 29.0111C93.3627 28.7846 93.3753 28.6084 93.4005 28.4825L95.3636 28.2183C95.5146 28.2183 95.6153 28.105 95.6656 27.8785V16.0619C95.6656 15.0804 95.5272 14.2372 95.2503 13.5325C94.9987 12.8026 94.6966 12.2741 94.3443 11.9469C93.9919 11.6197 93.5766 11.368 93.0984 11.1918C92.4441 10.9401 91.8652 10.8395 91.3618 10.8898C89.7259 10.9401 87.9263 11.6071 85.9632 12.8907V28.2183L88.7946 28.407C88.7946 28.4322 88.7821 28.621 88.7569 28.9733L81.2064 29.0111C81.2064 28.7846 81.2189 28.6084 81.2441 28.4825L83.2073 28.2183C83.4086 28.1931 83.5093 28.0169 83.5093 27.6897V2.01794C83.5093 1.74109 83.4338 1.60266 83.2828 1.60266L81.0176 1.52716L81.0554 0.998619C82.4144 0.772104 83.4464 0.658846 84.1511 0.658846C84.8558 0.658846 85.334 0.82244 85.5857 1.14963C85.8374 1.47682 85.9632 1.82918 85.9632 2.2067ZM110.327 28.256L111.8 28.1805L111.913 28.558C111.888 28.558 111.711 28.5958 111.384 28.6713C110.629 28.8475 109.786 28.9356 108.855 28.9356C107.999 28.8852 107.219 28.7468 106.514 28.5203C105.809 28.2686 105.155 27.7652 104.551 27.0102C103.947 26.23 103.645 25.2358 103.645 24.0277V10.7766H101.72L102.022 10.4745L103.683 10.1348L103.985 6.51051L106.099 6.32174V10.097H110.667V10.7766H106.099V23.3859C106.099 25.2987 106.502 26.5949 107.307 27.2745C108.112 27.9288 109.119 28.256 110.327 28.256ZM118.739 11.6449V28.2183L121.57 28.407C121.57 28.4322 121.558 28.621 121.532 28.9733L113.982 29.0111C113.982 28.7846 113.994 28.6084 114.02 28.4825L115.983 28.2183C116.134 28.2183 116.234 28.105 116.285 27.8785V11.3051C116.234 11.1289 116.159 11.0408 116.058 11.0408L113.793 10.9653L113.831 10.4368C115.19 10.2103 116.222 10.097 116.927 10.097C117.631 10.097 118.109 10.2606 118.361 10.5878C118.613 10.915 118.739 11.2673 118.739 11.6449ZM117.455 5.03815C116.952 5.03815 116.562 4.88714 116.285 4.58512C116.008 4.25793 115.869 3.84265 115.869 3.33928C115.869 2.81075 116.008 2.39547 116.285 2.09345C116.587 1.76626 116.989 1.60266 117.493 1.60266C117.996 1.60266 118.399 1.76626 118.701 2.09345C119.028 2.39547 119.192 2.82333 119.192 3.37704C119.192 3.90557 119.028 4.32085 118.701 4.62287C118.374 4.89973 117.958 5.03815 117.455 5.03815ZM133.703 10.8143C132.192 10.8395 130.557 11.3932 128.795 12.4754V28.2183L131.626 28.407C131.626 28.4322 131.614 28.621 131.588 28.9733L124.038 29.0111C124.038 28.7846 124.051 28.6084 124.076 28.4825L126.039 28.2183C126.19 28.2183 126.29 28.105 126.341 27.8785V11.3051C126.29 11.1289 126.215 11.0408 126.114 11.0408L123.849 10.9653L123.887 10.4368C125.246 10.2103 126.278 10.097 126.983 10.097C127.687 10.097 128.166 10.2606 128.417 10.5878C128.669 10.915 128.795 11.2673 128.795 11.6449V12.0979C130.884 10.7891 132.797 10.0844 134.533 9.98375C136.924 9.98375 138.548 10.6633 139.403 12.0224C141.593 10.764 143.657 10.0844 145.595 9.98375C147.356 9.98375 148.69 10.3487 149.596 11.0786C150.024 11.4058 150.389 11.9217 150.691 12.6264C151.018 13.306 151.182 14.124 151.182 15.0804V28.2183L154.014 28.407C154.014 28.4322 154.001 28.621 153.976 28.9733L146.425 29.0111C146.425 28.7846 146.438 28.6084 146.463 28.4825L148.426 28.2183C148.577 28.2183 148.678 28.105 148.728 27.8785V16.0242C148.728 15.0174 148.602 14.1617 148.351 13.457C148.099 12.7271 147.822 12.1986 147.52 11.8714C147.218 11.5442 146.841 11.2925 146.387 11.1163C145.884 10.915 145.343 10.8143 144.764 10.8143C143.204 10.8395 141.505 11.4309 139.668 12.5887C139.995 13.2934 140.158 14.124 140.158 15.0804V28.2183L142.99 28.407C142.99 28.4322 142.977 28.621 142.952 28.9733L135.364 29.0111L135.401 28.4825L137.365 28.2183C137.541 28.1931 137.654 28.0673 137.704 27.8407V15.9864C137.704 14.7532 137.541 13.7464 137.214 12.9662C136.886 12.1608 136.446 11.6323 135.892 11.3806C135.137 11.0031 134.407 10.8143 133.703 10.8143ZM158.189 20.2902C158.189 25.7266 160.303 28.4448 164.532 28.4448C165.639 28.4448 166.822 28.3315 168.08 28.105C169.339 27.8533 170.144 27.6268 170.497 27.4255L170.761 27.803C170.182 28.1805 169.226 28.4951 167.892 28.7468C166.583 28.9985 165.375 29.1243 164.267 29.1243C163.185 29.1243 162.204 29.0111 161.323 28.7846C160.467 28.558 159.586 28.1554 158.68 27.5765C157.774 26.9976 157.057 26.0915 156.528 24.8583C156 23.625 155.735 22.1149 155.735 20.328C155.735 17.0057 156.591 14.4637 158.303 12.7019C160.09 10.8646 162.166 9.946 164.532 9.946C166.898 9.946 168.697 10.6004 169.93 11.9091C171.189 13.2179 171.818 15.0552 171.818 17.421C171.818 17.9244 171.78 18.4655 171.705 19.0444H158.227C158.202 19.3212 158.189 19.7365 158.189 20.2902ZM169.591 17.1568C169.591 15.2691 169.175 13.7338 168.345 12.5509C167.514 11.3428 166.382 10.7388 164.947 10.7388C163.085 10.7388 161.512 11.5568 160.228 13.1927C159.196 14.4763 158.554 16.1878 158.303 18.3271H169.553C169.578 18.0502 169.591 17.6601 169.591 17.1568Z" fill="url(#paint0_linear_14_2592)"/>
<defs>
<linearGradient id="paint0_linear_14_2592" x1="46.6825" y1="-7.02667" x2="154.996" y2="50.3482" gradientUnits="userSpaceOnUse">
<stop stop-color="#FFB905"/>
<stop offset="1" stop-color="#F4DC00"/>
</linearGradient>
</defs>
</svg>
