<svg width="296" height="36" viewBox="0 0 296 36" fill="none" xmlns="http://www.w3.org/2000/svg">
<path d="M1.81619 4.75175C1.81619 4.11244 1.76824 3.60898 1.67234 3.24138C1.57645 2.87377 1.39264 2.50617 1.12094 2.13857L0.929143 1.87485L1.12094 1.61114H6.41923C7.29828 1.61114 7.88964 1.50725 8.19331 1.29947L8.481 1.0837L8.72075 1.29947V4.29624L8.24126 4.46406C7.95357 3.60099 7.66588 3.00963 7.37819 2.68997C7.10648 2.37032 6.71491 2.21049 6.20346 2.21049H5.12462C4.70907 2.21049 4.43736 2.2904 4.3095 2.45023C4.18164 2.59408 4.11771 2.91373 4.11771 3.4092V6.81353H5.84385C6.32333 6.81353 6.67495 6.76558 6.89871 6.66968C7.13845 6.57379 7.31426 6.38199 7.42614 6.0943L7.54601 5.75867L7.85768 5.95046V8.63556L7.33024 8.82736L7.23435 8.29993C7.17042 7.96429 6.99461 7.73254 6.70692 7.60468C6.41923 7.47681 5.95572 7.41288 5.31641 7.41288H4.11771V11.033C4.11771 11.5125 4.18963 11.8321 4.33347 11.9919C4.47732 12.1358 4.79697 12.2077 5.29244 12.2077H6.46717C6.94666 12.2077 7.32225 12.0399 7.59396 11.7043C7.88165 11.3686 8.15336 10.7852 8.40908 9.95414L8.91254 10.122V12.9989L8.64882 13.2146C8.42506 13.0548 8.16934 12.9429 7.88165 12.879C7.59396 12.831 7.19439 12.8071 6.68294 12.8071H0.665427L0.497608 12.3755C0.897178 12.2637 1.18487 12.1598 1.36068 12.0639C1.53649 11.952 1.65636 11.8081 1.72029 11.6323C1.78422 11.4565 1.81619 11.1848 1.81619 10.8172V4.75175ZM14.7163 12.2557C15.2278 12.2557 15.6274 11.928 15.9151 11.2727C16.2187 10.6014 16.3706 9.76235 16.3706 8.75543C16.3706 7.3969 16.0829 6.32605 15.5075 5.5429L15.2917 5.27918L15.4835 5.08739L17.4973 4.84765C17.5453 5.53491 17.5693 6.08631 17.5693 6.50186C17.5693 8.54766 17.2576 10.1459 16.6343 11.2967C16.0109 12.4475 15.1719 13.0228 14.117 13.0228C13.2859 13.0228 12.6546 12.7751 12.223 12.2796C11.8075 11.7842 11.5118 10.969 11.336 9.83427L10.8325 6.38199C10.8165 6.25413 10.7846 6.16623 10.7366 6.11828C10.6887 6.07033 10.6168 6.04636 10.5209 6.04636H9.87356L9.80164 5.78264C10.1213 5.49495 10.5049 5.27119 10.9524 5.11136C11.3999 4.93555 11.8394 4.84765 12.271 4.84765C12.5107 4.84765 12.6785 4.91957 12.7744 5.06341C12.8863 5.20726 12.9742 5.49495 13.0382 5.92648L13.6615 10.2179C13.7734 11.001 13.9012 11.5364 14.0451 11.8241C14.1889 12.1118 14.4127 12.2557 14.7163 12.2557ZM23.6649 12.2317C24.1284 12.2317 24.5359 12.1518 24.8876 11.9919C25.2392 11.8161 25.5828 11.5284 25.9185 11.1289L26.2061 11.3446C25.8385 11.8721 25.3671 12.2876 24.7917 12.5913C24.2323 12.879 23.6169 13.0228 22.9457 13.0228C22.2105 13.0228 21.5472 12.847 20.9558 12.4954C20.3804 12.1438 19.9249 11.6643 19.5893 11.057C19.2536 10.4336 19.0858 9.73038 19.0858 8.94723C19.0858 7.70057 19.4614 6.70964 20.2126 5.97443C20.9798 5.22324 21.9947 4.84765 23.2573 4.84765C24.1524 4.84765 24.8796 5.06341 25.439 5.49495C26.0144 5.9105 26.302 6.45392 26.302 7.12519C26.302 7.89237 25.9744 8.5077 25.3191 8.9712C24.6798 9.41872 23.8007 9.64248 22.6819 9.64248C22.2344 9.64248 21.8269 9.61051 21.4593 9.54658C21.5392 10.3777 21.7789 11.033 22.1785 11.5125C22.5781 11.9919 23.0735 12.2317 23.6649 12.2317ZM22.9936 5.42303C22.4981 5.42303 22.1066 5.7267 21.8189 6.33405C21.5472 6.92541 21.4113 7.75651 21.4113 8.82736V9.21094C21.5871 9.21094 21.8029 9.19496 22.0586 9.163C22.7299 9.08308 23.2413 8.86731 23.593 8.51569C23.9606 8.14809 24.1444 7.66861 24.1444 7.07724C24.1444 6.59776 24.0325 6.20618 23.8087 5.90251C23.601 5.58285 23.3292 5.42303 22.9936 5.42303ZM32.5767 4.84765C33.0882 4.84765 33.5037 4.99948 33.8234 5.30316C34.143 5.59085 34.3029 5.96644 34.3029 6.42994C34.3029 6.86148 34.175 7.2131 33.9193 7.4848C33.6635 7.74053 33.3279 7.86839 32.9124 7.86839C32.5927 7.86839 32.297 7.80446 32.0253 7.6766C32.313 7.43686 32.4568 7.07724 32.4568 6.59776C32.4568 6.374 32.4089 6.19819 32.313 6.07033C32.2171 5.94247 32.0892 5.87854 31.9294 5.87854C31.5458 5.87854 31.2262 6.27011 30.9704 7.05327C30.7147 7.82044 30.5869 8.77941 30.5869 9.93017C30.5869 10.5215 30.6188 10.993 30.6828 11.3446C30.7627 11.6963 30.8905 12.0239 31.0663 12.3276L31.2581 12.5673L31.0663 12.8071H27.5901L27.4462 12.3995L27.7819 12.3276C28.0376 12.2637 28.2054 12.1678 28.2853 12.0399C28.3653 11.896 28.4052 11.6243 28.4052 11.2248V6.54981C28.4052 6.24614 28.3013 6.0943 28.0935 6.0943H27.3503L27.2545 5.83059C27.5581 5.55888 27.9337 5.33512 28.3812 5.15931C28.8447 4.9835 29.3002 4.8956 29.7478 4.8956C29.9555 4.8956 30.1234 4.94354 30.2512 5.03944C30.3791 5.13534 30.443 5.2632 30.443 5.42303V7.17314H30.5149C30.8506 5.62281 31.5378 4.84765 32.5767 4.84765ZM42.7989 4.8956V12.8071C42.7989 14.0697 42.4313 15.0447 41.6961 15.7319C40.9768 16.4352 39.9699 16.7868 38.6753 16.7868C37.8762 16.7868 37.2289 16.6349 36.7334 16.3313C36.238 16.0276 35.9902 15.628 35.9902 15.1326C35.9902 14.701 36.1181 14.3494 36.3738 14.0777C36.6295 13.822 36.9652 13.6941 37.3807 13.6941C37.6844 13.6941 37.9801 13.758 38.2678 13.8859C37.9801 14.1736 37.8362 14.5652 37.8362 15.0606C37.8362 15.4123 37.9401 15.6999 38.1479 15.9237C38.3717 16.1475 38.6514 16.2593 38.987 16.2593C40.1058 16.2593 40.6652 15.3483 40.6652 13.5263V10.4816C40.4574 11.0889 40.0898 11.5924 39.5624 11.9919C39.0509 12.3755 38.4995 12.5673 37.9082 12.5673C37.2049 12.5673 36.6855 12.3516 36.3498 11.92C36.0142 11.4885 35.8464 10.8332 35.8464 9.95414V6.38199C35.8464 6.15823 35.7425 6.04636 35.5347 6.04636H34.7915L34.7196 5.78264C35.0233 5.51093 35.4228 5.28717 35.9183 5.11136C36.4138 4.93555 36.8853 4.84765 37.3328 4.84765C37.5406 4.84765 37.7004 4.8956 37.8123 4.99149C37.9401 5.08739 38.0041 5.21525 38.0041 5.37508V10.2179C38.0041 11.1129 38.2838 11.5604 38.8431 11.5604C39.3866 11.5604 39.8261 11.2328 40.1617 10.5775C40.4974 9.92218 40.6652 9.05112 40.6652 7.96429C40.6652 7.38891 40.6172 6.91742 40.5213 6.54981C40.4254 6.18221 40.2736 5.86255 40.0658 5.59085L39.874 5.32713L40.0419 5.11136L42.7989 4.8956ZM51.0992 6.47789C51.0992 6.87746 51.251 7.20511 51.5547 7.46083C51.8744 7.70057 52.3538 7.97228 52.9931 8.27595C53.5206 8.53168 53.9281 8.75544 54.2158 8.94723C54.5035 9.12304 54.7513 9.36278 54.959 9.66645C55.1828 9.97013 55.2947 10.3297 55.2947 10.7453C55.2947 11.4325 54.967 11.984 54.3117 12.3995C53.6724 12.8151 52.8093 13.0228 51.7225 13.0228C50.9074 13.0228 50.2361 12.879 49.7087 12.5913C49.1813 12.2876 48.9175 11.896 48.9175 11.4166C48.9175 11.0969 49.0374 10.8332 49.2772 10.6254C49.5169 10.4017 49.8126 10.2898 50.1642 10.2898C50.4359 10.2898 50.7076 10.3457 50.9793 10.4576C50.7076 10.6654 50.5718 11.001 50.5718 11.4645C50.5718 11.7842 50.6836 12.0319 50.9074 12.2077C51.1312 12.3835 51.4029 12.4714 51.7225 12.4714C52.0901 12.4714 52.4018 12.3755 52.6575 12.1837C52.9292 11.9919 53.0651 11.7202 53.0651 11.3686C53.0651 11.033 52.9292 10.7693 52.6575 10.5775C52.4018 10.3697 51.9942 10.13 51.4348 9.85825C50.9234 9.6185 50.5078 9.40274 50.1882 9.21094C49.8845 9.00317 49.6208 8.73146 49.397 8.39582C49.1733 8.06018 49.0614 7.65262 49.0614 7.17314C49.0614 6.45392 49.3651 5.88653 49.9724 5.47098C50.5797 5.05542 51.3469 4.84765 52.2739 4.84765C53.089 4.84765 53.7523 4.99948 54.2638 5.30316C54.7912 5.60683 55.0549 5.99841 55.0549 6.47789C55.0549 6.84549 54.943 7.1172 54.7193 7.29301C54.4955 7.46882 54.2078 7.55673 53.8562 7.55673C53.5206 7.55673 53.2249 7.4848 52.9692 7.34096C53.2569 7.06925 53.4007 6.72562 53.4007 6.31007C53.4007 6.03836 53.2968 5.8226 53.089 5.66277C52.8813 5.48696 52.6096 5.39905 52.2739 5.39905C51.9063 5.39905 51.6186 5.50294 51.4109 5.71072C51.2031 5.91849 51.0992 6.17422 51.0992 6.47789ZM61.1479 12.2317C61.6114 12.2317 62.019 12.1518 62.3706 11.9919C62.7222 11.8161 63.0659 11.5284 63.4015 11.1289L63.6892 11.3446C63.3216 11.8721 62.8501 12.2876 62.2747 12.5913C61.7153 12.879 61.1 13.0228 60.4287 13.0228C59.6935 13.0228 59.0302 12.847 58.4388 12.4954C57.8635 12.1438 57.4079 11.6643 57.0723 11.057C56.7367 10.4336 56.5689 9.73038 56.5689 8.94723C56.5689 7.70057 56.9444 6.70964 57.6956 5.97443C58.4628 5.22324 59.4777 4.84765 60.7404 4.84765C61.6354 4.84765 62.3626 5.06341 62.922 5.49495C63.4974 5.9105 63.7851 6.45392 63.7851 7.12519C63.7851 7.89237 63.4574 8.5077 62.8021 8.9712C62.1628 9.41872 61.2838 9.64248 60.165 9.64248C59.7175 9.64248 59.3099 9.61051 58.9423 9.54658C59.0222 10.3777 59.262 11.033 59.6615 11.5125C60.0611 11.9919 60.5566 12.2317 61.1479 12.2317ZM60.4766 5.42303C59.9812 5.42303 59.5896 5.7267 59.3019 6.33405C59.0302 6.92541 58.8943 7.75651 58.8943 8.82736V9.21094C59.0702 9.21094 59.2859 9.19496 59.5416 9.163C60.2129 9.08308 60.7244 8.86731 61.076 8.51569C61.4436 8.14809 61.6274 7.66861 61.6274 7.07724C61.6274 6.59776 61.5155 6.20618 61.2918 5.90251C61.084 5.58285 60.8123 5.42303 60.4766 5.42303ZM71.9058 6.95737C71.9058 7.4848 71.7459 7.90036 71.4263 8.20403C71.1066 8.5077 70.715 8.65954 70.2515 8.65954C69.8839 8.65954 69.5483 8.56364 69.2446 8.37185C69.5962 8.05219 69.7721 7.60468 69.7721 7.0293C69.7721 6.5658 69.6762 6.1902 69.4844 5.90251C69.2926 5.59884 69.0129 5.447 68.6453 5.447C68.2297 5.447 67.8861 5.77465 67.6144 6.42994C67.3587 7.06925 67.2308 7.90835 67.2308 8.94723C67.2308 9.93816 67.4146 10.7373 67.7822 11.3446C68.1658 11.936 68.7012 12.2317 69.3885 12.2317C69.868 12.2317 70.2755 12.1438 70.6112 11.968C70.9628 11.7922 71.2904 11.5364 71.5941 11.2008L71.8818 11.3926C71.5461 11.8721 71.1066 12.2637 70.5632 12.5673C70.0198 12.871 69.3885 13.0228 68.6692 13.0228C67.5505 13.0228 66.6314 12.6472 65.9122 11.896C65.193 11.1449 64.8334 10.1779 64.8334 8.99518C64.8334 7.73254 65.209 6.72562 65.9602 5.97443C66.7114 5.22324 67.7103 4.84765 68.9569 4.84765C69.836 4.84765 70.5472 5.04743 71.0906 5.447C71.6341 5.83059 71.9058 6.33404 71.9058 6.95737ZM72.8872 8.94723C72.8872 7.68459 73.2468 6.68567 73.966 5.95046C74.7013 5.21525 75.6922 4.84765 76.9388 4.84765C78.1855 4.84765 79.1764 5.22324 79.9116 5.97443C80.6468 6.70964 81.0144 7.70057 81.0144 8.94723C81.0144 10.1939 80.6468 11.1848 79.9116 11.92C79.1764 12.6552 78.1855 13.0228 76.9388 13.0228C75.6922 13.0228 74.7013 12.6552 73.966 11.92C73.2468 11.1848 72.8872 10.1939 72.8872 8.94723ZM78.5931 8.99518C78.5931 7.92433 78.4412 7.05327 78.1375 6.38199C77.8339 5.69473 77.4503 5.3511 76.9868 5.3511C76.4753 5.3511 76.0598 5.68674 75.7401 6.35802C75.4205 7.01331 75.2606 7.87638 75.2606 8.94723C75.2606 10.0341 75.4045 10.8971 75.6922 11.5364C75.9959 12.1757 76.3954 12.4954 76.8909 12.4954C77.3864 12.4954 77.7939 12.1757 78.1136 11.5364C78.4332 10.8811 78.5931 10.0341 78.5931 8.99518ZM90.4546 11.4405C90.4546 11.92 90.6065 12.1598 90.9101 12.1598C91.2138 12.1598 91.5095 12.0399 91.7972 11.8002L91.989 12.0399C91.3976 12.6952 90.7024 13.0228 89.9032 13.0228C89.3279 13.0228 88.9123 12.879 88.6566 12.5913C88.4168 12.2876 88.297 11.8002 88.297 11.1289V7.46083C88.297 6.53383 88.0013 6.07033 87.4099 6.07033C86.8345 6.07033 86.363 6.46191 85.9954 7.24506C85.6438 8.02822 85.468 9.05112 85.468 10.3138C85.468 10.7932 85.508 11.1848 85.5879 11.4885C85.6678 11.7762 85.7957 12.0559 85.9715 12.3276L86.1633 12.5673L85.9715 12.8071H82.4952L82.3514 12.3995L82.687 12.3276C82.9427 12.2637 83.1106 12.1678 83.1905 12.0399C83.2704 11.896 83.3103 11.6243 83.3103 11.2248V6.54981C83.3103 6.24614 83.2065 6.0943 82.9987 6.0943H82.2315L82.1596 5.83059C82.4792 5.55888 82.8788 5.33512 83.3583 5.15931C83.8378 4.9835 84.3173 4.8956 84.7967 4.8956C85.0045 4.8956 85.1643 4.94354 85.2762 5.03944C85.4041 5.13534 85.468 5.2632 85.468 5.42303V7.4848C85.6918 6.73361 86.0913 6.11029 86.6667 5.61482C87.2421 5.10337 87.8494 4.84765 88.4888 4.84765C89.176 4.84765 89.6715 5.07141 89.9752 5.51892C90.2948 5.96644 90.4546 6.67767 90.4546 7.65262V11.4405ZM101.852 12.0399C101.261 12.6952 100.565 13.0228 99.7664 13.0228C99.2709 13.0228 98.9033 12.9189 98.6635 12.7112C98.4238 12.4874 98.264 12.1278 98.1841 11.6323C97.7685 12.1118 97.337 12.4634 96.8895 12.6872C96.4419 12.911 95.9465 13.0228 95.4031 13.0228C94.6039 13.0228 93.9486 12.6712 93.4372 11.968C92.9417 11.2647 92.694 10.3537 92.694 9.23492C92.694 7.89237 93.0456 6.82951 93.7488 6.04636C94.4521 5.24722 95.411 4.84765 96.6257 4.84765C97.1851 4.84765 97.6966 4.97551 98.1601 5.23123V2.5701C98.1601 2.34634 98.0562 2.23446 97.8484 2.23446H97.0333L96.9374 1.99472C97.2571 1.70703 97.6646 1.48327 98.1601 1.32345C98.6556 1.14764 99.143 1.05973 99.6225 1.05973C99.8303 1.05973 99.9981 1.10768 100.126 1.20358C100.254 1.28349 100.318 1.40336 100.318 1.56319V11.4405C100.318 11.92 100.47 12.1598 100.773 12.1598C101.077 12.1598 101.373 12.0399 101.66 11.8002L101.852 12.0399ZM96.6497 11.8721C97.2571 11.8721 97.7605 11.5364 98.1601 10.8652V5.71072C97.8404 5.55089 97.4888 5.47098 97.1052 5.47098C95.7627 5.47098 95.0914 6.62973 95.0914 8.94723C95.0914 9.89021 95.2193 10.6174 95.475 11.1289C95.7467 11.6243 96.1383 11.8721 96.6497 11.8721ZM106.435 12.3755C106.835 12.2637 107.123 12.1598 107.298 12.0639C107.474 11.952 107.594 11.8081 107.658 11.6323C107.722 11.4565 107.754 11.1848 107.754 10.8172V4.75175C107.754 4.11244 107.706 3.60898 107.61 3.24138C107.514 2.87377 107.33 2.50617 107.059 2.13857L106.867 1.87485L107.059 1.61114H112.093C112.972 1.61114 113.564 1.50725 113.867 1.29947L114.155 1.0837L114.395 1.29947V4.29624L113.915 4.46406C113.628 3.60099 113.34 3.00963 113.052 2.68997C112.78 2.37032 112.381 2.21049 111.853 2.21049H111.062C110.647 2.21049 110.375 2.2904 110.247 2.45023C110.119 2.59408 110.055 2.91373 110.055 3.4092V7.00532H111.758C112.381 7.00532 112.788 6.76558 112.98 6.2861L113.1 5.95046L113.412 6.11828V8.80338L112.884 8.99518L112.788 8.49172C112.725 8.1401 112.581 7.90835 112.357 7.79647C112.133 7.66861 111.71 7.60468 111.086 7.60468H110.055V9.66645C110.055 10.2898 110.103 10.7932 110.199 11.1768C110.311 11.5444 110.503 11.912 110.775 12.2796L110.966 12.5673L110.775 12.8071H106.603L106.435 12.3755ZM120.63 4.84765C121.142 4.84765 121.557 4.99948 121.877 5.30316C122.197 5.59085 122.356 5.96644 122.356 6.42994C122.356 6.86148 122.229 7.2131 121.973 7.4848C121.717 7.74053 121.381 7.86839 120.966 7.86839C120.646 7.86839 120.351 7.80446 120.079 7.6766C120.367 7.43686 120.51 7.07724 120.51 6.59776C120.51 6.374 120.462 6.19819 120.367 6.07033C120.271 5.94247 120.143 5.87854 119.983 5.87854C119.599 5.87854 119.28 6.27011 119.024 7.05327C118.768 7.82044 118.64 8.77941 118.64 9.93017C118.64 10.5215 118.672 10.993 118.736 11.3446C118.816 11.6963 118.944 12.0239 119.12 12.3276L119.312 12.5673L119.12 12.8071H115.644L115.5 12.3995L115.835 12.3276C116.091 12.2637 116.259 12.1678 116.339 12.0399C116.419 11.896 116.459 11.6243 116.459 11.2248V6.54981C116.459 6.24614 116.355 6.0943 116.147 6.0943H115.404L115.308 5.83059C115.612 5.55888 115.987 5.33512 116.435 5.15931C116.898 4.9835 117.354 4.8956 117.801 4.8956C118.009 4.8956 118.177 4.94354 118.305 5.03944C118.433 5.13534 118.497 5.2632 118.497 5.42303V7.17314H118.568C118.904 5.62281 119.591 4.84765 120.63 4.84765ZM126.034 11.4405C126.034 11.92 126.185 12.1598 126.489 12.1598C126.793 12.1598 127.088 12.0399 127.376 11.8002L127.568 12.0399C126.977 12.6952 126.281 13.0228 125.482 13.0228C124.907 13.0228 124.491 12.879 124.236 12.5913C123.98 12.2876 123.852 11.8002 123.852 11.1289V6.38199C123.852 6.15823 123.748 6.04636 123.54 6.04636H122.797L122.725 5.78264C123.045 5.51093 123.444 5.28717 123.924 5.11136C124.403 4.93555 124.883 4.84765 125.362 4.84765C125.554 4.84765 125.714 4.8956 125.842 4.99149C125.97 5.08739 126.034 5.21525 126.034 5.37508V11.4405ZM123.612 2.54613C123.612 2.25844 123.772 1.93878 124.092 1.58716C124.411 1.23554 124.707 1.05973 124.979 1.05973C125.266 1.05973 125.57 1.23554 125.89 1.58716C126.225 1.93878 126.393 2.25844 126.393 2.54613C126.393 2.8498 126.225 3.17745 125.89 3.52907C125.57 3.86471 125.266 4.03253 124.979 4.03253C124.707 4.03253 124.411 3.86471 124.092 3.52907C123.772 3.17745 123.612 2.8498 123.612 2.54613ZM137.251 12.0399C136.66 12.6952 135.965 13.0228 135.166 13.0228C134.67 13.0228 134.303 12.9189 134.063 12.7112C133.823 12.4874 133.663 12.1278 133.583 11.6323C133.168 12.1118 132.736 12.4634 132.289 12.6872C131.841 12.911 131.346 13.0228 130.802 13.0228C130.003 13.0228 129.348 12.6712 128.837 11.968C128.341 11.2647 128.093 10.3537 128.093 9.23492C128.093 7.89237 128.445 6.82951 129.148 6.04636C129.851 5.24722 130.81 4.84765 132.025 4.84765C132.584 4.84765 133.096 4.97551 133.559 5.23123V2.5701C133.559 2.34634 133.456 2.23446 133.248 2.23446H132.433L132.337 1.99472C132.656 1.70703 133.064 1.48327 133.559 1.32345C134.055 1.14764 134.542 1.05973 135.022 1.05973C135.23 1.05973 135.397 1.10768 135.525 1.20358C135.653 1.28349 135.717 1.40336 135.717 1.56319V11.4405C135.717 11.92 135.869 12.1598 136.173 12.1598C136.476 12.1598 136.772 12.0399 137.06 11.8002L137.251 12.0399ZM132.049 11.8721C132.656 11.8721 133.16 11.5364 133.559 10.8652V5.71072C133.24 5.55089 132.888 5.47098 132.505 5.47098C131.162 5.47098 130.491 6.62973 130.491 8.94723C130.491 9.89021 130.619 10.6174 130.874 11.1289C131.146 11.6243 131.538 11.8721 132.049 11.8721ZM140.637 7.50878C140.301 7.70057 139.901 7.79647 139.438 7.79647C139.102 7.79647 138.839 7.70057 138.647 7.50878C138.455 7.301 138.359 7.01331 138.359 6.64571C138.359 6.1023 138.623 5.67076 139.15 5.3511C139.694 5.01547 140.397 4.84765 141.26 4.84765C142.283 4.84765 143.082 5.07141 143.657 5.51892C144.249 5.96644 144.544 6.57379 144.544 7.34096V11.4885C144.544 11.936 144.704 12.1598 145.024 12.1598C145.328 12.1598 145.623 12.0399 145.911 11.8002L146.103 12.0399C145.511 12.6952 144.808 13.0228 143.993 13.0228C143.514 13.0228 143.146 12.903 142.89 12.6632C142.651 12.4235 142.507 12.0479 142.459 11.5364H142.363C142.107 11.9999 141.763 12.3675 141.332 12.6392C140.916 12.895 140.437 13.0228 139.893 13.0228C139.286 13.0228 138.799 12.839 138.431 12.4714C138.063 12.0878 137.88 11.5924 137.88 10.985C137.88 10.2978 138.207 9.75436 138.863 9.35479C139.518 8.95522 140.405 8.75543 141.524 8.75543C141.732 8.75543 142.027 8.77142 142.411 8.80338V7.60468C142.411 6.82152 142.315 6.26212 142.123 5.92648C141.931 5.57486 141.62 5.39905 141.188 5.39905C140.884 5.39905 140.645 5.49495 140.469 5.68674C140.293 5.87854 140.205 6.12627 140.205 6.42994C140.205 6.90942 140.349 7.26904 140.637 7.50878ZM140.996 11.8241C141.939 11.8241 142.411 10.969 142.411 9.25889C141.612 9.25889 141.012 9.39475 140.613 9.66645C140.213 9.92218 140.013 10.2898 140.013 10.7693C140.013 11.0889 140.101 11.3446 140.277 11.5364C140.453 11.7282 140.693 11.8241 140.996 11.8241ZM154.475 4.8956V12.8071C154.475 14.0697 154.108 15.0447 153.373 15.7319C152.653 16.4352 151.646 16.7868 150.352 16.7868C149.553 16.7868 148.905 16.6349 148.41 16.3313C147.914 16.0276 147.667 15.628 147.667 15.1326C147.667 14.701 147.795 14.3494 148.05 14.0777C148.306 13.822 148.642 13.6941 149.057 13.6941C149.361 13.6941 149.657 13.758 149.944 13.8859C149.657 14.1736 149.513 14.5652 149.513 15.0606C149.513 15.4123 149.617 15.6999 149.824 15.9237C150.048 16.1475 150.328 16.2593 150.663 16.2593C151.782 16.2593 152.342 15.3483 152.342 13.5263V10.4816C152.134 11.0889 151.766 11.5924 151.239 11.9919C150.727 12.3755 150.176 12.5673 149.585 12.5673C148.881 12.5673 148.362 12.3516 148.026 11.92C147.691 11.4885 147.523 10.8332 147.523 9.95414V6.38199C147.523 6.15823 147.419 6.04636 147.211 6.04636H146.468L146.396 5.78264C146.7 5.51093 147.099 5.28717 147.595 5.11136C148.09 4.93555 148.562 4.84765 149.009 4.84765C149.217 4.84765 149.377 4.8956 149.489 4.99149C149.617 5.08739 149.681 5.21525 149.681 5.37508V10.2179C149.681 11.1129 149.96 11.5604 150.52 11.5604C151.063 11.5604 151.503 11.2328 151.838 10.5775C152.174 9.92218 152.342 9.05112 152.342 7.96429C152.342 7.38891 152.294 6.91742 152.198 6.54981C152.102 6.18221 151.95 5.86255 151.742 5.59085L151.551 5.32713L151.718 5.11136L154.475 4.8956ZM160.402 8.94723C160.402 7.68459 160.762 6.68567 161.481 5.95046C162.216 5.21525 163.207 4.84765 164.454 4.84765C165.701 4.84765 166.691 5.22324 167.427 5.97443C168.162 6.70964 168.529 7.70057 168.529 8.94723C168.529 10.1939 168.162 11.1848 167.427 11.92C166.691 12.6552 165.701 13.0228 164.454 13.0228C163.207 13.0228 162.216 12.6552 161.481 11.92C160.762 11.1848 160.402 10.1939 160.402 8.94723ZM166.108 8.99518C166.108 7.92433 165.956 7.05327 165.653 6.38199C165.349 5.69473 164.965 5.3511 164.502 5.3511C163.99 5.3511 163.575 5.68674 163.255 6.35802C162.936 7.01331 162.776 7.87638 162.776 8.94723C162.776 10.0341 162.92 10.8971 163.207 11.5364C163.511 12.1757 163.91 12.4954 164.406 12.4954C164.901 12.4954 165.309 12.1757 165.629 11.5364C165.948 10.8811 166.108 10.0341 166.108 8.99518ZM172.695 11.2248C172.695 11.6084 172.743 11.8721 172.839 12.0159C172.951 12.1438 173.199 12.2477 173.582 12.3276L173.894 12.3995L173.75 12.8071H170.01L169.818 12.5673L170.01 12.3276C170.202 12.0719 170.33 11.8002 170.394 11.5125C170.474 11.2088 170.514 10.8012 170.514 10.2898V6.04636H169.291C169.291 5.77465 169.307 5.59884 169.339 5.51892C169.371 5.43901 169.467 5.37508 169.627 5.32713L170.514 5.11136C170.514 3.73684 170.809 2.68198 171.401 1.94677C172.008 1.21157 172.871 0.843963 173.99 0.843963C174.693 0.843963 175.261 0.995799 175.692 1.29947C176.14 1.60314 176.363 2.00271 176.363 2.49818C176.363 2.92971 176.236 3.28134 175.98 3.55304C175.724 3.80877 175.388 3.93663 174.973 3.93663C174.653 3.93663 174.358 3.8727 174.086 3.74484C174.374 3.50509 174.517 3.14548 174.517 2.666C174.517 2.28241 174.445 1.97874 174.302 1.75498C174.158 1.53122 173.958 1.41934 173.702 1.41934C173.383 1.41934 173.135 1.58716 172.959 1.9228C172.783 2.25844 172.695 2.72993 172.695 3.33728V5.11136H174.445C174.445 5.55888 174.326 5.87054 174.086 6.04636H172.695V11.2248ZM181.723 13.0228C181.068 13.0228 180.596 12.879 180.308 12.5913C180.021 12.2876 179.877 11.8002 179.877 11.1289V6.04636H178.678C178.678 5.77465 178.694 5.59884 178.726 5.51892C178.758 5.43901 178.854 5.37508 179.014 5.32713C179.541 5.18329 179.957 4.95953 180.261 4.65585C180.564 4.35218 180.812 3.91265 181.004 3.33728C181.052 3.16146 181.132 3.05758 181.243 3.02561C181.355 2.97766 181.627 2.95369 182.059 2.95369V5.11136H184.024C184.024 5.31914 183.992 5.51093 183.929 5.68674C183.865 5.84657 183.777 5.96644 183.665 6.04636H182.059V11.4405C182.059 11.92 182.258 12.1598 182.658 12.1598C182.834 12.1598 183.026 12.1038 183.233 11.9919C183.457 11.8801 183.657 11.7282 183.833 11.5364L184.024 11.7762C183.337 12.6073 182.57 13.0228 181.723 13.0228ZM192.926 11.4405C192.926 11.92 193.078 12.1598 193.382 12.1598C193.685 12.1598 193.981 12.0399 194.269 11.8002L194.461 12.0399C193.869 12.6952 193.174 13.0228 192.375 13.0228C191.799 13.0228 191.384 12.879 191.128 12.5913C190.888 12.2876 190.769 11.8002 190.769 11.1289V7.46083C190.769 6.53383 190.473 6.07033 189.881 6.07033C189.306 6.07033 188.843 6.46191 188.491 7.24506C188.139 8.02822 187.964 9.05112 187.964 10.3138C187.964 10.8092 187.995 11.2088 188.059 11.5125C188.139 11.8002 188.267 12.0719 188.443 12.3276L188.635 12.5673L188.443 12.8071H184.967L184.823 12.3995L185.159 12.3276C185.414 12.2637 185.582 12.1678 185.662 12.0399C185.742 11.896 185.782 11.6243 185.782 11.2248V2.666C185.782 2.53814 185.75 2.43425 185.686 2.35433C185.638 2.27442 185.566 2.23446 185.47 2.23446H184.727L184.631 1.99472C184.935 1.70703 185.326 1.48327 185.806 1.32345C186.301 1.14764 186.789 1.05973 187.268 1.05973C187.476 1.05973 187.644 1.10768 187.772 1.20358C187.9 1.28349 187.964 1.40336 187.964 1.56319V7.4848C188.187 6.73361 188.579 6.11029 189.138 5.61482C189.714 5.10337 190.321 4.84765 190.96 4.84765C191.648 4.84765 192.143 5.07141 192.447 5.51892C192.766 5.96644 192.926 6.67767 192.926 7.65262V11.4405ZM199.749 12.2317C200.212 12.2317 200.62 12.1518 200.971 11.9919C201.323 11.8161 201.666 11.5284 202.002 11.1289L202.29 11.3446C201.922 11.8721 201.451 12.2876 200.875 12.5913C200.316 12.879 199.701 13.0228 199.029 13.0228C198.294 13.0228 197.631 12.847 197.039 12.4954C196.464 12.1438 196.009 11.6643 195.673 11.057C195.337 10.4336 195.169 9.73038 195.169 8.94723C195.169 7.70057 195.545 6.70964 196.296 5.97443C197.063 5.22324 198.078 4.84765 199.341 4.84765C200.236 4.84765 200.963 5.06341 201.523 5.49495C202.098 5.9105 202.386 6.45392 202.386 7.12519C202.386 7.89237 202.058 8.5077 201.403 8.9712C200.763 9.41872 199.884 9.64248 198.766 9.64248C198.318 9.64248 197.91 9.61051 197.543 9.54658C197.623 10.3777 197.863 11.033 198.262 11.5125C198.662 11.9919 199.157 12.2317 199.749 12.2317ZM199.077 5.42303C198.582 5.42303 198.19 5.7267 197.903 6.33405C197.631 6.92541 197.495 7.75651 197.495 8.82736V9.21094C197.671 9.21094 197.887 9.19496 198.142 9.163C198.814 9.08308 199.325 8.86731 199.677 8.51569C200.044 8.14809 200.228 7.66861 200.228 7.07724C200.228 6.59776 200.116 6.20618 199.892 5.90251C199.685 5.58285 199.413 5.42303 199.077 5.42303ZM214.989 5.49495C215.292 5.9105 215.452 6.57379 215.468 7.4848H215.516C215.74 6.71763 216.108 6.08631 216.619 5.59085C217.13 5.09538 217.674 4.84765 218.249 4.84765C218.937 4.84765 219.432 5.0794 219.736 5.5429C220.055 5.99042 220.215 6.69366 220.215 7.65262V11.4405C220.215 11.92 220.367 12.1598 220.671 12.1598C220.974 12.1598 221.27 12.0399 221.558 11.8002L221.749 12.0399C221.158 12.6952 220.463 13.0228 219.664 13.0228C219.072 13.0228 218.657 12.871 218.417 12.5673C218.177 12.2477 218.057 11.6963 218.057 10.9131V7.46083C218.057 6.53383 217.754 6.07033 217.146 6.07033C216.635 6.07033 216.235 6.50186 215.948 7.36493C215.66 8.21202 215.516 9.19496 215.516 10.3138C215.532 10.8092 215.572 11.2008 215.636 11.4885C215.716 11.7762 215.844 12.0559 216.02 12.3276L216.211 12.5673L216.02 12.8071H213.359V7.46083C213.359 6.53383 213.055 6.07033 212.448 6.07033C211.936 6.07033 211.536 6.50186 211.249 7.36493C210.961 8.21202 210.817 9.19496 210.817 10.3138C210.817 10.8092 210.849 11.2008 210.913 11.4885C210.993 11.7762 211.129 12.0559 211.321 12.3276L211.513 12.5673L211.321 12.8071H207.844L207.701 12.3995L208.036 12.3276C208.292 12.2637 208.46 12.1678 208.54 12.0399C208.62 11.896 208.66 11.6243 208.66 11.2248V6.54981C208.66 6.31007 208.556 6.1902 208.348 6.1902H207.581L207.509 5.95046C207.828 5.67875 208.228 5.45499 208.708 5.27918C209.187 5.10337 209.667 5.01547 210.146 5.01547C210.354 5.01547 210.514 5.06341 210.625 5.15931C210.753 5.23923 210.817 5.3591 210.817 5.51892V7.4848C211.025 6.7496 211.377 6.12627 211.872 5.61482C212.368 5.10337 212.927 4.84765 213.55 4.84765C214.206 4.84765 214.685 5.06341 214.989 5.49495ZM222.445 8.94723C222.445 7.68459 222.804 6.68567 223.524 5.95046C224.259 5.21525 225.25 4.84765 226.496 4.84765C227.743 4.84765 228.734 5.22324 229.469 5.97443C230.204 6.70964 230.572 7.70057 230.572 8.94723C230.572 10.1939 230.204 11.1848 229.469 11.92C228.734 12.6552 227.743 13.0228 226.496 13.0228C225.25 13.0228 224.259 12.6552 223.524 11.92C222.804 11.1848 222.445 10.1939 222.445 8.94723ZM228.151 8.99518C228.151 7.92433 227.999 7.05327 227.695 6.38199C227.391 5.69473 227.008 5.3511 226.544 5.3511C226.033 5.3511 225.617 5.68674 225.298 6.35802C224.978 7.01331 224.818 7.87638 224.818 8.94723C224.818 10.0341 224.962 10.8971 225.25 11.5364C225.553 12.1757 225.953 12.4954 226.448 12.4954C226.944 12.4954 227.351 12.1757 227.671 11.5364C227.991 10.8811 228.151 10.0341 228.151 8.99518ZM240.012 11.4405C240.012 11.92 240.164 12.1598 240.468 12.1598C240.771 12.1598 241.067 12.0399 241.355 11.8002L241.547 12.0399C240.955 12.6952 240.26 13.0228 239.461 13.0228C238.885 13.0228 238.47 12.879 238.214 12.5913C237.974 12.2876 237.855 11.8002 237.855 11.1289V7.46083C237.855 6.53383 237.559 6.07033 236.967 6.07033C236.392 6.07033 235.921 6.46191 235.553 7.24506C235.201 8.02822 235.026 9.05112 235.026 10.3138C235.026 10.7932 235.066 11.1848 235.145 11.4885C235.225 11.7762 235.353 12.0559 235.529 12.3276L235.721 12.5673L235.529 12.8071H232.053L231.909 12.3995L232.245 12.3276C232.5 12.2637 232.668 12.1678 232.748 12.0399C232.828 11.896 232.868 11.6243 232.868 11.2248V6.54981C232.868 6.24614 232.764 6.0943 232.556 6.0943H231.789L231.717 5.83059C232.037 5.55888 232.436 5.33512 232.916 5.15931C233.395 4.9835 233.875 4.8956 234.354 4.8956C234.562 4.8956 234.722 4.94354 234.834 5.03944C234.962 5.13534 235.026 5.2632 235.026 5.42303V7.4848C235.249 6.73361 235.649 6.11029 236.224 5.61482C236.8 5.10337 237.407 4.84765 238.046 4.84765C238.734 4.84765 239.229 5.07141 239.533 5.51892C239.852 5.96644 240.012 6.67767 240.012 7.65262V11.4405ZM244.913 13.0228C244.257 13.0228 243.786 12.879 243.498 12.5913C243.21 12.2876 243.067 11.8002 243.067 11.1289V6.04636H241.868C241.868 5.77465 241.884 5.59884 241.916 5.51892C241.948 5.43901 242.044 5.37508 242.204 5.32713C242.731 5.18329 243.147 4.95953 243.45 4.65585C243.754 4.35218 244.002 3.91265 244.193 3.33728C244.241 3.16146 244.321 3.05758 244.433 3.02561C244.545 2.97766 244.817 2.95369 245.248 2.95369V5.11136H247.214C247.214 5.31914 247.182 5.51093 247.118 5.68674C247.054 5.84657 246.966 5.96644 246.855 6.04636H245.248V11.4405C245.248 11.92 245.448 12.1598 245.848 12.1598C246.023 12.1598 246.215 12.1038 246.423 11.9919C246.647 11.8801 246.847 11.7282 247.022 11.5364L247.214 11.7762C246.527 12.6073 245.76 13.0228 244.913 13.0228ZM256.116 11.4405C256.116 11.92 256.268 12.1598 256.571 12.1598C256.875 12.1598 257.171 12.0399 257.458 11.8002L257.65 12.0399C257.059 12.6952 256.364 13.0228 255.564 13.0228C254.989 13.0228 254.574 12.879 254.318 12.5913C254.078 12.2876 253.958 11.8002 253.958 11.1289V7.46083C253.958 6.53383 253.663 6.07033 253.071 6.07033C252.496 6.07033 252.032 6.46191 251.681 7.24506C251.329 8.02822 251.153 9.05112 251.153 10.3138C251.153 10.8092 251.185 11.2088 251.249 11.5125C251.329 11.8002 251.457 12.0719 251.633 12.3276L251.825 12.5673L251.633 12.8071H248.156L248.013 12.3995L248.348 12.3276C248.604 12.2637 248.772 12.1678 248.852 12.0399C248.932 11.896 248.972 11.6243 248.972 11.2248V2.666C248.972 2.53814 248.94 2.43425 248.876 2.35433C248.828 2.27442 248.756 2.23446 248.66 2.23446H247.917L247.821 1.99472C248.124 1.70703 248.516 1.48327 248.996 1.32345C249.491 1.14764 249.978 1.05973 250.458 1.05973C250.666 1.05973 250.834 1.10768 250.961 1.20358C251.089 1.28349 251.153 1.40336 251.153 1.56319V7.4848C251.377 6.73361 251.769 6.11029 252.328 5.61482C252.903 5.10337 253.511 4.84765 254.15 4.84765C254.837 4.84765 255.333 5.07141 255.636 5.51892C255.956 5.96644 256.116 6.67767 256.116 7.65262V11.4405ZM268.332 12.5673L268.116 12.8071H263.561L263.417 12.3755L264.112 12.2077C264.528 12.1118 264.799 11.976 264.927 11.8002C265.055 11.6243 265.119 11.2967 265.119 10.8172V3.28933L262.866 4.72778C262.738 4.64786 262.594 4.48004 262.434 4.22432C262.29 3.96859 262.162 3.6889 262.05 3.38522L267.205 1.37139L267.612 1.70703L267.421 1.99472V9.66645C267.421 10.3058 267.469 10.8172 267.564 11.2008C267.676 11.5684 267.86 11.928 268.116 12.2796L268.332 12.5673ZM273.665 6.33405C275.039 6.33405 276.134 6.6537 276.949 7.29301C277.764 7.91634 278.172 8.75544 278.172 9.8103C278.172 10.7852 277.788 11.5684 277.021 12.1598C276.27 12.7351 275.255 13.0228 273.976 13.0228C272.842 13.0228 271.907 12.7991 271.171 12.3516C270.452 11.8881 270.093 11.2967 270.093 10.5775C270.093 10.0021 270.364 9.5306 270.908 9.163C271.451 8.77941 272.162 8.57163 273.041 8.53967L273.089 8.73146C272.834 8.89129 272.634 9.13103 272.49 9.45069C272.346 9.77034 272.274 10.13 272.274 10.5295C272.274 11.041 272.442 11.4725 272.778 11.8241C273.113 12.1757 273.505 12.3516 273.952 12.3516C274.48 12.3516 274.903 12.1198 275.223 11.6563C275.543 11.1928 275.703 10.5775 275.703 9.8103C275.703 8.93125 275.423 8.25198 274.863 7.77249C274.32 7.27703 273.561 7.0293 272.586 7.0293C272.17 7.0293 271.683 7.09323 271.124 7.22109L270.836 6.66968L271.124 1.61114H277.597C277.597 1.99472 277.541 2.34634 277.429 2.666C277.333 2.98565 277.197 3.2254 277.021 3.38522H271.723L271.555 6.54981C272.274 6.40597 272.978 6.33405 273.665 6.33405ZM279.43 4.94354C279.43 3.90466 279.718 3.05758 280.293 2.40228C280.885 1.74699 281.644 1.41934 282.571 1.41934C283.466 1.41934 284.169 1.72302 284.681 2.33036C285.208 2.92172 285.472 3.72885 285.472 4.75175C285.472 5.85456 285.176 6.7496 284.585 7.43686C284.009 8.12412 283.258 8.46775 282.331 8.46775C281.436 8.46775 280.725 8.14809 280.197 7.50878C279.686 6.86947 279.43 6.01439 279.43 4.94354ZM281.3 4.96752C281.3 5.87854 281.396 6.59776 281.588 7.12519C281.796 7.65262 282.075 7.91634 282.427 7.91634C282.795 7.91634 283.074 7.66062 283.266 7.14917C283.474 6.62173 283.578 5.89452 283.578 4.96752C283.578 4.02453 283.474 3.28933 283.266 2.7619C283.058 2.21848 282.779 1.94677 282.427 1.94677C282.075 1.94677 281.796 2.21848 281.588 2.7619C281.396 3.30531 281.3 4.04052 281.3 4.96752ZM289.499 1.15563H290.314L285.639 13.2866H284.848L289.499 1.15563ZM289.667 9.49863C289.667 8.45975 289.955 7.61267 290.53 6.95737C291.122 6.30208 291.881 5.97443 292.808 5.97443C293.703 5.97443 294.406 6.27811 294.917 6.88545C295.445 7.47681 295.709 8.28394 295.709 9.30684C295.709 10.4097 295.413 11.3047 294.822 11.9919C294.246 12.6792 293.495 13.0228 292.568 13.0228C291.673 13.0228 290.962 12.7032 290.434 12.0639C289.923 11.4246 289.667 10.5695 289.667 9.49863ZM291.537 9.52261C291.537 10.4336 291.633 11.1529 291.825 11.6803C292.033 12.2077 292.312 12.4714 292.664 12.4714C293.032 12.4714 293.311 12.2157 293.503 11.7043C293.711 11.1768 293.815 10.4496 293.815 9.52261C293.815 8.57962 293.711 7.84442 293.503 7.31699C293.295 6.77357 293.016 6.50186 292.664 6.50186C292.312 6.50186 292.033 6.77357 291.825 7.31699C291.633 7.8604 291.537 8.59561 291.537 9.52261ZM41.8231 34.0399C41.2317 34.6952 40.5365 35.0228 39.7373 35.0228C39.2418 35.0228 38.8742 34.9189 38.6345 34.7112C38.3948 34.4874 38.2349 34.1278 38.155 33.6323C37.7395 34.1118 37.3079 34.4634 36.8604 34.6872C36.4129 34.911 35.9174 35.0228 35.374 35.0228C34.5749 35.0228 33.9196 34.6712 33.4081 33.968C32.9127 33.2647 32.6649 32.3537 32.6649 31.2349C32.6649 29.8924 33.0166 28.8295 33.7198 28.0464C34.423 27.2472 35.382 26.8476 36.5967 26.8476C37.1561 26.8476 37.6675 26.9755 38.131 27.2312V24.5701C38.131 24.3463 38.0272 24.2345 37.8194 24.2345H37.0043L36.9084 23.9947C37.228 23.707 37.6356 23.4833 38.131 23.3234C38.6265 23.1476 39.114 23.0597 39.5935 23.0597C39.8012 23.0597 39.9691 23.1077 40.0969 23.2036C40.2248 23.2835 40.2887 23.4034 40.2887 23.5632V33.4405C40.2887 33.92 40.4406 34.1598 40.7442 34.1598C41.0479 34.1598 41.3436 34.0399 41.6313 33.8002L41.8231 34.0399ZM36.6207 33.8721C37.228 33.8721 37.7315 33.5364 38.131 32.8652V27.7107C37.8114 27.5509 37.4598 27.471 37.0762 27.471C35.7336 27.471 35.0624 28.6297 35.0624 30.9472C35.0624 31.8902 35.1902 32.6174 35.4459 33.1289C35.7176 33.6243 36.1092 33.8721 36.6207 33.8721ZM45.472 33.4405C45.472 33.92 45.6238 34.1598 45.9275 34.1598C46.2312 34.1598 46.5269 34.0399 46.8146 33.8002L47.0064 34.0399C46.415 34.6952 45.7197 35.0228 44.9206 35.0228C44.3452 35.0228 43.9297 34.879 43.6739 34.5913C43.4182 34.2876 43.2904 33.8002 43.2904 33.1289V28.382C43.2904 28.1582 43.1865 28.0464 42.9787 28.0464H42.2355L42.1636 27.7826C42.4832 27.5109 42.8828 27.2872 43.3623 27.1114C43.8418 26.9356 44.3213 26.8476 44.8007 26.8476C44.9925 26.8476 45.1524 26.8956 45.2802 26.9915C45.4081 27.0874 45.472 27.2153 45.472 27.3751V33.4405ZM43.0506 24.5461C43.0506 24.2584 43.2104 23.9388 43.5301 23.5872C43.8498 23.2355 44.1454 23.0597 44.4171 23.0597C44.7048 23.0597 45.0085 23.2355 45.3282 23.5872C45.6638 23.9388 45.8316 24.2584 45.8316 24.5461C45.8316 24.8498 45.6638 25.1774 45.3282 25.5291C45.0085 25.8647 44.7048 26.0325 44.4171 26.0325C44.1454 26.0325 43.8498 25.8647 43.5301 25.5291C43.2104 25.1774 43.0506 24.8498 43.0506 24.5461ZM49.9052 28.4779C49.9052 28.8775 50.057 29.2051 50.3607 29.4608C50.6803 29.7006 51.1598 29.9723 51.7991 30.276C52.3266 30.5317 52.7341 30.7554 53.0218 30.9472C53.3095 31.123 53.5572 31.3628 53.765 31.6665C53.9888 31.9701 54.1006 32.3297 54.1006 32.7453C54.1006 33.4325 53.773 33.984 53.1177 34.3995C52.4784 34.8151 51.6153 35.0228 50.5285 35.0228C49.7134 35.0228 49.0421 34.879 48.5147 34.5913C47.9872 34.2876 47.7235 33.896 47.7235 33.4166C47.7235 33.0969 47.8434 32.8332 48.0831 32.6254C48.3229 32.4017 48.6186 32.2898 48.9702 32.2898C49.2419 32.2898 49.5136 32.3457 49.7853 32.4576C49.5136 32.6654 49.3777 33.001 49.3777 33.4645C49.3777 33.7842 49.4896 34.0319 49.7134 34.2077C49.9371 34.3835 50.2088 34.4714 50.5285 34.4714C50.8961 34.4714 51.2078 34.3755 51.4635 34.1837C51.7352 33.9919 51.871 33.7202 51.871 33.3686C51.871 33.033 51.7352 32.7693 51.4635 32.5775C51.2078 32.3697 50.8002 32.13 50.2408 31.8582C49.7294 31.6185 49.3138 31.4027 48.9941 31.2109C48.6905 31.0032 48.4268 30.7315 48.203 30.3958C47.9792 30.0602 47.8674 29.6526 47.8674 29.1731C47.8674 28.4539 48.171 27.8865 48.7784 27.471C49.3857 27.0554 50.1529 26.8476 51.0799 26.8476C51.895 26.8476 52.5583 26.9995 53.0698 27.3032C53.5972 27.6068 53.8609 27.9984 53.8609 28.4779C53.8609 28.8455 53.749 29.1172 53.5253 29.293C53.3015 29.4688 53.0138 29.5567 52.6622 29.5567C52.3266 29.5567 52.0309 29.4848 51.7752 29.341C52.0628 29.0693 52.2067 28.7256 52.2067 28.3101C52.2067 28.0384 52.1028 27.8226 51.895 27.6628C51.6872 27.487 51.4155 27.3991 51.0799 27.3991C50.7123 27.3991 50.4246 27.5029 50.2168 27.7107C50.0091 27.9185 49.9052 28.1742 49.9052 28.4779ZM62.4472 28.9574C62.4472 29.4848 62.2874 29.9004 61.9677 30.204C61.6481 30.5077 61.2565 30.6595 60.793 30.6595C60.4254 30.6595 60.0898 30.5636 59.7861 30.3718C60.1377 30.0522 60.3135 29.6047 60.3135 29.0293C60.3135 28.5658 60.2176 28.1902 60.0258 27.9025C59.834 27.5988 59.5543 27.447 59.1867 27.447C58.7712 27.447 58.4275 27.7746 58.1558 28.4299C57.9001 29.0693 57.7723 29.9083 57.7723 30.9472C57.7723 31.9382 57.9561 32.7373 58.3237 33.3446C58.7072 33.936 59.2427 34.2317 59.9299 34.2317C60.4094 34.2317 60.817 34.1438 61.1526 33.968C61.5042 33.7922 61.8319 33.5364 62.1355 33.2008L62.4232 33.3926C62.0876 33.8721 61.6481 34.2637 61.1047 34.5673C60.5612 34.871 59.9299 35.0228 59.2107 35.0228C58.0919 35.0228 57.1729 34.6472 56.4537 33.896C55.7344 33.1449 55.3748 32.1779 55.3748 30.9952C55.3748 29.7325 55.7504 28.7256 56.5016 27.9744C57.2528 27.2232 58.2517 26.8476 59.4984 26.8476C60.3774 26.8476 61.0887 27.0474 61.6321 27.447C62.1755 27.8306 62.4472 28.334 62.4472 28.9574ZM63.4286 30.9472C63.4286 29.6846 63.7883 28.6857 64.5075 27.9505C65.2427 27.2153 66.2336 26.8476 67.4803 26.8476C68.7269 26.8476 69.7179 27.2232 70.4531 27.9744C71.1883 28.7096 71.5559 29.7006 71.5559 30.9472C71.5559 32.1939 71.1883 33.1848 70.4531 33.92C69.7179 34.6552 68.7269 35.0228 67.4803 35.0228C66.2336 35.0228 65.2427 34.6552 64.5075 33.92C63.7883 33.1848 63.4286 32.1939 63.4286 30.9472ZM69.1345 30.9952C69.1345 29.9243 68.9827 29.0533 68.679 28.382C68.3753 27.6947 67.9917 27.3511 67.5282 27.3511C67.0168 27.3511 66.6012 27.6867 66.2816 28.358C65.9619 29.0133 65.8021 29.8764 65.8021 30.9472C65.8021 32.0341 65.9459 32.8971 66.2336 33.5364C66.5373 34.1757 66.9369 34.4954 67.4323 34.4954C67.9278 34.4954 68.3354 34.1757 68.655 33.5364C68.9747 32.8811 69.1345 32.0341 69.1345 30.9952ZM78.5268 32.6254C78.303 33.3287 77.9114 33.904 77.352 34.3516C76.8086 34.7991 76.2252 35.0228 75.6019 35.0228C74.8987 35.0228 74.3792 34.7991 74.0436 34.3516C73.708 33.904 73.5401 33.2168 73.5401 32.2898V28.382C73.5401 28.1582 73.4362 28.0464 73.2285 28.0464H72.4853L72.4133 27.7826C72.733 27.5109 73.1326 27.2872 73.6121 27.1114C74.0915 26.9356 74.563 26.8476 75.0265 26.8476C75.2343 26.8476 75.3941 26.8956 75.506 26.9915C75.6339 27.0874 75.6978 27.2153 75.6978 27.3751V32.1699C75.6978 32.7133 75.7777 33.1369 75.9376 33.4405C76.0974 33.7282 76.3211 33.8721 76.6088 33.8721C77.2002 33.8721 77.6717 33.5125 78.0233 32.7932C78.3909 32.058 78.5747 31.1071 78.5747 29.9403C78.5747 29.317 78.5268 28.8375 78.4309 28.5019C78.3509 28.1502 78.1991 27.8466 77.9754 27.5908L77.7596 27.3271L77.9514 27.1114L80.7084 26.8956V33.4405C80.7084 33.92 80.8523 34.1598 81.1399 34.1598C81.4436 34.1598 81.7393 34.0399 82.027 33.8002L82.2188 34.0399C81.6594 34.6952 80.9641 35.0228 80.133 35.0228C79.5257 35.0228 79.1021 34.847 78.8624 34.4954C78.6386 34.1438 78.5268 33.5205 78.5268 32.6254ZM91.2741 33.4405C91.2741 33.92 91.4259 34.1598 91.7296 34.1598C92.0333 34.1598 92.3289 34.0399 92.6166 33.8002L92.8084 34.0399C92.2171 34.6952 91.5218 35.0228 90.7227 35.0228C90.1473 35.0228 89.7317 34.879 89.476 34.5913C89.2363 34.2876 89.1164 33.8002 89.1164 33.1289V29.4608C89.1164 28.5338 88.8207 28.0703 88.2294 28.0703C87.654 28.0703 87.1825 28.4619 86.8149 29.2451C86.4633 30.0282 86.2874 31.0511 86.2874 32.3138C86.2874 32.7932 86.3274 33.1848 86.4073 33.4885C86.4872 33.7762 86.6151 34.0559 86.7909 34.3276L86.9827 34.5673L86.7909 34.8071H83.3147L83.1708 34.3995L83.5064 34.3276C83.7622 34.2637 83.93 34.1678 84.0099 34.0399C84.0898 33.896 84.1298 33.6243 84.1298 33.2248V28.5498C84.1298 28.2461 84.0259 28.0943 83.8181 28.0943H83.0509L82.979 27.8306C83.2987 27.5589 83.6982 27.3351 84.1777 27.1593C84.6572 26.9835 85.1367 26.8956 85.6162 26.8956C85.8239 26.8956 85.9838 26.9435 86.0957 27.0394C86.2235 27.1353 86.2874 27.2632 86.2874 27.423V29.4848C86.5112 28.7336 86.9108 28.1103 87.4862 27.6148C88.0615 27.1034 88.6689 26.8476 89.3082 26.8476C89.9955 26.8476 90.4909 27.0714 90.7946 27.5189C91.1142 27.9664 91.2741 28.6777 91.2741 29.6526V33.4405ZM96.1745 35.0228C95.5192 35.0228 95.0478 34.879 94.7601 34.5913C94.4724 34.2876 94.3285 33.8002 94.3285 33.1289V28.0464H93.1298C93.1298 27.7746 93.1458 27.5988 93.1778 27.5189C93.2097 27.439 93.3056 27.3751 93.4655 27.3271C93.9929 27.1833 94.4084 26.9595 94.7121 26.6559C95.0158 26.3522 95.2635 25.9127 95.4553 25.3373C95.5033 25.1615 95.5832 25.0576 95.6951 25.0256C95.8069 24.9777 96.0786 24.9537 96.5102 24.9537V27.1114H98.4761C98.4761 27.3191 98.4441 27.5109 98.3802 27.6867C98.3162 27.8466 98.2283 27.9664 98.1164 28.0464H96.5102V33.4405C96.5102 33.92 96.71 34.1598 97.1095 34.1598C97.2853 34.1598 97.4771 34.1038 97.6849 33.9919C97.9087 33.8801 98.1085 33.7282 98.2843 33.5364L98.4761 33.7762C97.7888 34.6073 97.0216 35.0228 96.1745 35.0228ZM103.229 30.9472C103.229 29.6846 103.589 28.6857 104.308 27.9505C105.044 27.2153 106.034 26.8476 107.281 26.8476C108.528 26.8476 109.519 27.2232 110.254 27.9744C110.989 28.7096 111.357 29.7006 111.357 30.9472C111.357 32.1939 110.989 33.1848 110.254 33.92C109.519 34.6552 108.528 35.0228 107.281 35.0228C106.034 35.0228 105.044 34.6552 104.308 33.92C103.589 33.1848 103.229 32.1939 103.229 30.9472ZM108.935 30.9952C108.935 29.9243 108.784 29.0533 108.48 28.382C108.176 27.6947 107.793 27.3511 107.329 27.3511C106.818 27.3511 106.402 27.6867 106.082 28.358C105.763 29.0133 105.603 29.8764 105.603 30.9472C105.603 32.0341 105.747 32.8971 106.034 33.5364C106.338 34.1757 106.738 34.4954 107.233 34.4954C107.729 34.4954 108.136 34.1757 108.456 33.5364C108.776 32.8811 108.935 32.0341 108.935 30.9952ZM120.797 33.4405C120.797 33.92 120.949 34.1598 121.252 34.1598C121.556 34.1598 121.852 34.0399 122.139 33.8002L122.331 34.0399C121.74 34.6952 121.045 35.0228 120.246 35.0228C119.67 35.0228 119.255 34.879 118.999 34.5913C118.759 34.2876 118.639 33.8002 118.639 33.1289V29.4608C118.639 28.5338 118.344 28.0703 117.752 28.0703C117.177 28.0703 116.705 28.4619 116.338 29.2451C115.986 30.0282 115.81 31.0511 115.81 32.3138C115.81 32.7932 115.85 33.1848 115.93 33.4885C116.01 33.7762 116.138 34.0559 116.314 34.3276L116.506 34.5673L116.314 34.8071H112.838L112.694 34.3995L113.029 34.3276C113.285 34.2637 113.453 34.1678 113.533 34.0399C113.613 33.896 113.653 33.6243 113.653 33.2248V28.5498C113.653 28.2461 113.549 28.0943 113.341 28.0943H112.574L112.502 27.8306C112.822 27.5589 113.221 27.3351 113.701 27.1593C114.18 26.9835 114.66 26.8956 115.139 26.8956C115.347 26.8956 115.507 26.9435 115.619 27.0394C115.746 27.1353 115.81 27.2632 115.81 27.423V29.4848C116.034 28.7336 116.434 28.1103 117.009 27.6148C117.584 27.1034 118.192 26.8476 118.831 26.8476C119.518 26.8476 120.014 27.0714 120.317 27.5189C120.637 27.9664 120.797 28.6777 120.797 29.6526V33.4405ZM132.002 26.8476C132.641 26.8476 133.217 27.0155 133.728 27.3511C134.255 27.6708 134.663 28.1183 134.951 28.6937C135.254 29.269 135.406 29.9163 135.406 30.6356C135.406 31.4667 135.206 32.2179 134.807 32.8891C134.423 33.5444 133.888 34.0639 133.201 34.4475C132.513 34.831 131.746 35.0228 130.899 35.0228C130.324 35.0228 129.748 34.9349 129.173 34.7591C128.598 34.5833 128.126 34.3436 127.758 34.0399V24.5701C127.758 24.4422 127.734 24.3543 127.687 24.3064C127.639 24.2584 127.559 24.2345 127.447 24.2345H126.704L126.632 23.9947C126.935 23.707 127.327 23.4833 127.806 23.3234C128.302 23.1476 128.789 23.0597 129.269 23.0597C129.477 23.0597 129.636 23.1077 129.748 23.2036C129.876 23.2835 129.94 23.4034 129.94 23.5632V27.5908C130.18 27.3511 130.476 27.1673 130.827 27.0394C131.195 26.9116 131.586 26.8476 132.002 26.8476ZM131.019 34.4714C132.345 34.4714 133.009 33.3287 133.009 31.0431C133.009 29.9083 132.841 29.0453 132.505 28.4539C132.186 27.8466 131.706 27.5429 131.067 27.5429C130.667 27.5429 130.292 27.6628 129.94 27.9025V34.2317C130.292 34.3915 130.651 34.4714 131.019 34.4714ZM141.101 34.2317C141.564 34.2317 141.972 34.1518 142.323 33.9919C142.675 33.8161 143.019 33.5284 143.354 33.1289L143.642 33.3446C143.274 33.8721 142.803 34.2876 142.228 34.5913C141.668 34.879 141.053 35.0228 140.382 35.0228C139.646 35.0228 138.983 34.847 138.392 34.4954C137.816 34.1438 137.361 33.6643 137.025 33.057C136.69 32.4336 136.522 31.7304 136.522 30.9472C136.522 29.7006 136.897 28.7096 137.649 27.9744C138.416 27.2232 139.431 26.8476 140.693 26.8476C141.588 26.8476 142.315 27.0634 142.875 27.4949C143.45 27.9105 143.738 28.4539 143.738 29.1252C143.738 29.8924 143.41 30.5077 142.755 30.9712C142.116 31.4187 141.237 31.6425 140.118 31.6425C139.67 31.6425 139.263 31.6105 138.895 31.5466C138.975 32.3777 139.215 33.033 139.614 33.5125C140.014 33.9919 140.509 34.2317 141.101 34.2317ZM140.43 27.423C139.934 27.423 139.542 27.7267 139.255 28.334C138.983 28.9254 138.847 29.7565 138.847 30.8274V31.2109C139.023 31.2109 139.239 31.195 139.495 31.163C140.166 31.0831 140.677 30.8673 141.029 30.5157C141.396 30.1481 141.58 29.6686 141.58 29.0772C141.58 28.5978 141.468 28.2062 141.245 27.9025C141.037 27.5829 140.765 27.423 140.43 27.423ZM149.365 34.2317C149.829 34.2317 150.236 34.1518 150.588 33.9919C150.94 33.8161 151.283 33.5284 151.619 33.1289L151.907 33.3446C151.539 33.8721 151.067 34.2876 150.492 34.5913C149.933 34.879 149.317 35.0228 148.646 35.0228C147.911 35.0228 147.248 34.847 146.656 34.4954C146.081 34.1438 145.625 33.6643 145.29 33.057C144.954 32.4336 144.786 31.7304 144.786 30.9472C144.786 29.7006 145.162 28.7096 145.913 27.9744C146.68 27.2232 147.695 26.8476 148.958 26.8476C149.853 26.8476 150.58 27.0634 151.139 27.4949C151.715 27.9105 152.002 28.4539 152.002 29.1252C152.002 29.8924 151.675 30.5077 151.02 30.9712C150.38 31.4187 149.501 31.6425 148.382 31.6425C147.935 31.6425 147.527 31.6105 147.16 31.5466C147.24 32.3777 147.479 33.033 147.879 33.5125C148.279 33.9919 148.774 34.2317 149.365 34.2317ZM148.694 27.423C148.199 27.423 147.807 27.7267 147.519 28.334C147.248 28.9254 147.112 29.7565 147.112 30.8274V31.2109C147.288 31.2109 147.503 31.195 147.759 31.163C148.43 31.0831 148.942 30.8673 149.293 30.5157C149.661 30.1481 149.845 29.6686 149.845 29.0772C149.845 28.5978 149.733 28.2062 149.509 27.9025C149.301 27.5829 149.03 27.423 148.694 27.423ZM158.277 26.8476C158.789 26.8476 159.204 26.9995 159.524 27.3032C159.843 27.5908 160.003 27.9664 160.003 28.4299C160.003 28.8615 159.875 29.2131 159.62 29.4848C159.364 29.7405 159.028 29.8684 158.613 29.8684C158.293 29.8684 157.997 29.8045 157.726 29.6766C158.013 29.4369 158.157 29.0772 158.157 28.5978C158.157 28.374 158.109 28.1982 158.013 28.0703C157.918 27.9425 157.79 27.8785 157.63 27.8785C157.246 27.8785 156.927 28.2701 156.671 29.0533C156.415 29.8204 156.287 30.7794 156.287 31.9302C156.287 32.5215 156.319 32.993 156.383 33.3446C156.463 33.6963 156.591 34.0239 156.767 34.3276L156.959 34.5673L156.767 34.8071H153.291L153.147 34.3995L153.482 34.3276C153.738 34.2637 153.906 34.1678 153.986 34.0399C154.066 33.896 154.106 33.6243 154.106 33.2248V28.5498C154.106 28.2461 154.002 28.0943 153.794 28.0943H153.051L152.955 27.8306C153.259 27.5589 153.634 27.3351 154.082 27.1593C154.545 26.9835 155.001 26.8956 155.448 26.8956C155.656 26.8956 155.824 26.9435 155.952 27.0394C156.08 27.1353 156.143 27.2632 156.143 27.423V29.1731H156.215C156.551 27.6228 157.238 26.8476 158.277 26.8476ZM167.444 29.5088C167.108 29.7006 166.709 29.7965 166.245 29.7965C165.909 29.7965 165.646 29.7006 165.454 29.5088C165.262 29.301 165.166 29.0133 165.166 28.6457C165.166 28.1023 165.43 27.6708 165.957 27.3511C166.501 27.0155 167.204 26.8476 168.067 26.8476C169.09 26.8476 169.889 27.0714 170.464 27.5189C171.056 27.9664 171.352 28.5738 171.352 29.341V33.4885C171.352 33.936 171.511 34.1598 171.831 34.1598C172.135 34.1598 172.43 34.0399 172.718 33.8002L172.91 34.0399C172.318 34.6952 171.615 35.0228 170.8 35.0228C170.321 35.0228 169.953 34.903 169.697 34.6632C169.458 34.4235 169.314 34.0479 169.266 33.5364H169.17C168.914 33.9999 168.571 34.3675 168.139 34.6392C167.723 34.895 167.244 35.0228 166.701 35.0228C166.093 35.0228 165.606 34.839 165.238 34.4714C164.87 34.0878 164.687 33.5924 164.687 32.985C164.687 32.2978 165.014 31.7544 165.67 31.3548C166.325 30.9552 167.212 30.7554 168.331 30.7554C168.539 30.7554 168.834 30.7714 169.218 30.8034V29.6047C169.218 28.8215 169.122 28.2621 168.93 27.9265C168.738 27.5749 168.427 27.3991 167.995 27.3991C167.691 27.3991 167.452 27.4949 167.276 27.6867C167.1 27.8785 167.012 28.1263 167.012 28.4299C167.012 28.9094 167.156 29.269 167.444 29.5088ZM167.803 33.8241C168.746 33.8241 169.218 32.969 169.218 31.2589C168.419 31.2589 167.819 31.3947 167.42 31.6665C167.02 31.9222 166.82 32.2898 166.82 32.7693C166.82 33.0889 166.908 33.3446 167.084 33.5364C167.26 33.7282 167.5 33.8241 167.803 33.8241ZM181.786 33.4405C181.786 33.92 181.938 34.1598 182.241 34.1598C182.545 34.1598 182.841 34.0399 183.128 33.8002L183.32 34.0399C182.729 34.6952 182.034 35.0228 181.234 35.0228C180.659 35.0228 180.244 34.879 179.988 34.5913C179.748 34.2876 179.628 33.8002 179.628 33.1289V29.4608C179.628 28.5338 179.333 28.0703 178.741 28.0703C178.166 28.0703 177.694 28.4619 177.327 29.2451C176.975 30.0282 176.799 31.0511 176.799 32.3138C176.799 32.7932 176.839 33.1848 176.919 33.4885C176.999 33.7762 177.127 34.0559 177.303 34.3276L177.495 34.5673L177.303 34.8071H173.826L173.683 34.3995L174.018 34.3276C174.274 34.2637 174.442 34.1678 174.522 34.0399C174.602 33.896 174.642 33.6243 174.642 33.2248V28.5498C174.642 28.2461 174.538 28.0943 174.33 28.0943H173.563L173.491 27.8306C173.81 27.5589 174.21 27.3351 174.69 27.1593C175.169 26.9835 175.649 26.8956 176.128 26.8956C176.336 26.8956 176.496 26.9435 176.607 27.0394C176.735 27.1353 176.799 27.2632 176.799 27.423V29.4848C177.023 28.7336 177.423 28.1103 177.998 27.6148C178.573 27.1034 179.181 26.8476 179.82 26.8476C180.507 26.8476 181.003 27.0714 181.306 27.5189C181.626 27.9664 181.786 28.6777 181.786 29.6526V33.4405ZM193.183 34.0399C192.592 34.6952 191.897 35.0228 191.098 35.0228C190.602 35.0228 190.235 34.9189 189.995 34.7112C189.755 34.4874 189.595 34.1278 189.515 33.6323C189.1 34.1118 188.668 34.4634 188.221 34.6872C187.773 34.911 187.278 35.0228 186.734 35.0228C185.935 35.0228 185.28 34.6712 184.768 33.968C184.273 33.2647 184.025 32.3537 184.025 31.2349C184.025 29.8924 184.377 28.8295 185.08 28.0464C185.783 27.2472 186.742 26.8476 187.957 26.8476C188.516 26.8476 189.028 26.9755 189.491 27.2312V24.5701C189.491 24.3463 189.387 24.2345 189.18 24.2345H188.365L188.269 23.9947C188.588 23.707 188.996 23.4833 189.491 23.3234C189.987 23.1476 190.474 23.0597 190.954 23.0597C191.162 23.0597 191.329 23.1077 191.457 23.2036C191.585 23.2835 191.649 23.4034 191.649 23.5632V33.4405C191.649 33.92 191.801 34.1598 192.105 34.1598C192.408 34.1598 192.704 34.0399 192.992 33.8002L193.183 34.0399ZM187.981 33.8721C188.588 33.8721 189.092 33.5364 189.491 32.8652V27.7107C189.172 27.5509 188.82 27.471 188.436 27.471C187.094 27.471 186.423 28.6297 186.423 30.9472C186.423 31.8902 186.55 32.6174 186.806 33.1289C187.078 33.6243 187.47 33.8721 187.981 33.8721ZM204.911 28.9574C204.911 29.4848 204.751 29.9004 204.431 30.204C204.112 30.5077 203.72 30.6595 203.257 30.6595C202.889 30.6595 202.553 30.5636 202.25 30.3718C202.601 30.0522 202.777 29.6047 202.777 29.0293C202.777 28.5658 202.681 28.1902 202.489 27.9025C202.298 27.5988 202.018 27.447 201.65 27.447C201.235 27.447 200.891 27.7746 200.619 28.4299C200.364 29.0693 200.236 29.9083 200.236 30.9472C200.236 31.9382 200.42 32.7373 200.787 33.3446C201.171 33.936 201.706 34.2317 202.394 34.2317C202.873 34.2317 203.281 34.1438 203.616 33.968C203.968 33.7922 204.295 33.5364 204.599 33.2008L204.887 33.3926C204.551 33.8721 204.112 34.2637 203.568 34.5673C203.025 34.871 202.394 35.0228 201.674 35.0228C200.556 35.0228 199.637 34.6472 198.917 33.896C198.198 33.1449 197.838 32.1779 197.838 30.9952C197.838 29.7325 198.214 28.7256 198.965 27.9744C199.716 27.2232 200.715 26.8476 201.962 26.8476C202.841 26.8476 203.552 27.0474 204.096 27.447C204.639 27.8306 204.911 28.334 204.911 28.9574ZM205.892 30.9472C205.892 29.6846 206.252 28.6857 206.971 27.9505C207.706 27.2153 208.697 26.8476 209.944 26.8476C211.191 26.8476 212.182 27.2232 212.917 27.9744C213.652 28.7096 214.02 29.7006 214.02 30.9472C214.02 32.1939 213.652 33.1848 212.917 33.92C212.182 34.6552 211.191 35.0228 209.944 35.0228C208.697 35.0228 207.706 34.6552 206.971 33.92C206.252 33.1848 205.892 32.1939 205.892 30.9472ZM211.598 30.9952C211.598 29.9243 211.446 29.0533 211.143 28.382C210.839 27.6947 210.455 27.3511 209.992 27.3511C209.48 27.3511 209.065 27.6867 208.745 28.358C208.426 29.0133 208.266 29.8764 208.266 30.9472C208.266 32.0341 208.41 32.8971 208.697 33.5364C209.001 34.1757 209.401 34.4954 209.896 34.4954C210.391 34.4954 210.799 34.1757 211.119 33.5364C211.438 32.8811 211.598 32.0341 211.598 30.9952ZM222.189 28.9574C222.189 29.4848 222.029 29.9004 221.71 30.204C221.39 30.5077 220.998 30.6595 220.535 30.6595C220.167 30.6595 219.832 30.5636 219.528 30.3718C219.88 30.0522 220.055 29.6047 220.055 29.0293C220.055 28.5658 219.959 28.1902 219.768 27.9025C219.576 27.5988 219.296 27.447 218.929 27.447C218.513 27.447 218.169 27.7746 217.898 28.4299C217.642 29.0693 217.514 29.9083 217.514 30.9472C217.514 31.9382 217.698 32.7373 218.066 33.3446C218.449 33.936 218.985 34.2317 219.672 34.2317C220.151 34.2317 220.559 34.1438 220.894 33.968C221.246 33.7922 221.574 33.5364 221.877 33.2008L222.165 33.3926C221.829 33.8721 221.39 34.2637 220.847 34.5673C220.303 34.871 219.672 35.0228 218.953 35.0228C217.834 35.0228 216.915 34.6472 216.196 33.896C215.476 33.1449 215.117 32.1779 215.117 30.9952C215.117 29.7325 215.492 28.7256 216.243 27.9744C216.995 27.2232 217.994 26.8476 219.24 26.8476C220.119 26.8476 220.831 27.0474 221.374 27.447C221.917 27.8306 222.189 28.334 222.189 28.9574ZM232.089 34.0878C231.53 34.7112 230.834 35.0228 230.003 35.0228C229.492 35.0228 229.084 34.911 228.78 34.6872C228.493 34.4634 228.269 34.0878 228.109 33.5604L227.366 31.4507C227.27 31.179 227.142 30.9712 226.982 30.8274C226.839 30.6835 226.639 30.5796 226.383 30.5157V32.3138C226.383 32.8092 226.415 33.2008 226.479 33.4885C226.559 33.7762 226.687 34.0559 226.863 34.3276L227.054 34.5673L226.863 34.8071H223.386L223.242 34.3995L223.578 34.3276C223.834 34.2637 224.002 34.1678 224.082 34.0399C224.161 33.896 224.201 33.6243 224.201 33.2248V24.5701C224.201 24.3463 224.098 24.2345 223.89 24.2345H223.147L223.051 23.9947C223.354 23.707 223.746 23.4833 224.225 23.3234C224.721 23.1476 225.208 23.0597 225.688 23.0597C225.896 23.0597 226.063 23.1077 226.191 23.2036C226.319 23.2835 226.383 23.4034 226.383 23.5632V30.0602L227.822 29.0053C228.157 28.7656 228.389 28.5738 228.517 28.4299C228.645 28.2861 228.709 28.1343 228.709 27.9744C228.709 27.7507 228.613 27.5589 228.421 27.3991L228.229 27.2552L228.421 27.0155H231.322L231.466 27.423C231.066 27.5189 230.618 27.7427 230.123 28.0943L227.294 30.1561C227.997 30.236 228.541 30.4038 228.924 30.6595C229.308 30.9153 229.588 31.2829 229.763 31.7623L230.435 33.6803C230.547 34.0319 230.77 34.2077 231.106 34.2077C231.346 34.2077 231.609 34.0878 231.897 33.8481L232.089 34.0878ZM234.986 35.0228C234.331 35.0228 233.859 34.879 233.571 34.5913C233.284 34.2876 233.14 33.8002 233.14 33.1289V28.0464H231.941C231.941 27.7746 231.957 27.5988 231.989 27.5189C232.021 27.439 232.117 27.3751 232.277 27.3271C232.804 27.1833 233.22 26.9595 233.523 26.6559C233.827 26.3522 234.075 25.9127 234.267 25.3373C234.315 25.1615 234.394 25.0576 234.506 25.0256C234.618 24.9777 234.89 24.9537 235.321 24.9537V27.1114H237.287C237.287 27.3191 237.255 27.5109 237.191 27.6867C237.128 27.8466 237.04 27.9664 236.928 28.0464H235.321V33.4405C235.321 33.92 235.521 34.1598 235.921 34.1598C236.097 34.1598 236.288 34.1038 236.496 33.9919C236.72 33.8801 236.92 33.7282 237.096 33.5364L237.287 33.7762C236.6 34.6073 235.833 35.0228 234.986 35.0228ZM240.771 29.5088C240.435 29.7006 240.036 29.7965 239.572 29.7965C239.237 29.7965 238.973 29.7006 238.781 29.5088C238.589 29.301 238.493 29.0133 238.493 28.6457C238.493 28.1023 238.757 27.6708 239.285 27.3511C239.828 27.0155 240.531 26.8476 241.394 26.8476C242.417 26.8476 243.216 27.0714 243.792 27.5189C244.383 27.9664 244.679 28.5738 244.679 29.341V33.4885C244.679 33.936 244.839 34.1598 245.158 34.1598C245.462 34.1598 245.758 34.0399 246.045 33.8002L246.237 34.0399C245.646 34.6952 244.942 35.0228 244.127 35.0228C243.648 35.0228 243.28 34.903 243.024 34.6632C242.785 34.4235 242.641 34.0479 242.593 33.5364H242.497C242.241 33.9999 241.898 34.3675 241.466 34.6392C241.051 34.895 240.571 35.0228 240.028 35.0228C239.42 35.0228 238.933 34.839 238.565 34.4714C238.198 34.0878 238.014 33.5924 238.014 32.985C238.014 32.2978 238.342 31.7544 238.997 31.3548C239.652 30.9552 240.539 30.7554 241.658 30.7554C241.866 30.7554 242.161 30.7714 242.545 30.8034V29.6047C242.545 28.8215 242.449 28.2621 242.257 27.9265C242.066 27.5749 241.754 27.3991 241.322 27.3991C241.019 27.3991 240.779 27.4949 240.603 27.6867C240.427 27.8785 240.339 28.1263 240.339 28.4299C240.339 28.9094 240.483 29.269 240.771 29.5088ZM241.131 33.8241C242.074 33.8241 242.545 32.969 242.545 31.2589C241.746 31.2589 241.147 31.3947 240.747 31.6665C240.347 31.9222 240.148 32.2898 240.148 32.7693C240.148 33.0889 240.236 33.3446 240.411 33.5364C240.587 33.7282 240.827 33.8241 241.131 33.8241ZM249.791 33.4405C249.791 33.92 249.943 34.1598 250.246 34.1598C250.55 34.1598 250.846 34.0399 251.133 33.8002L251.325 34.0399C250.734 34.6952 250.039 35.0228 249.239 35.0228C248.664 35.0228 248.249 34.879 247.993 34.5913C247.737 34.2876 247.609 33.8002 247.609 33.1289V28.382C247.609 28.1582 247.505 28.0464 247.298 28.0464H246.554L246.482 27.7826C246.802 27.5109 247.202 27.2872 247.681 27.1114C248.161 26.9356 248.64 26.8476 249.12 26.8476C249.311 26.8476 249.471 26.8956 249.599 26.9915C249.727 27.0874 249.791 27.2153 249.791 27.3751V33.4405ZM247.369 24.5461C247.369 24.2584 247.529 23.9388 247.849 23.5872C248.169 23.2355 248.464 23.0597 248.736 23.0597C249.024 23.0597 249.327 23.2355 249.647 23.5872C249.983 23.9388 250.15 24.2584 250.15 24.5461C250.15 24.8498 249.983 25.1774 249.647 25.5291C249.327 25.8647 249.024 26.0325 248.736 26.0325C248.464 26.0325 248.169 25.8647 247.849 25.5291C247.529 25.1774 247.369 24.8498 247.369 24.5461ZM254.703 33.4405C254.703 33.92 254.855 34.1598 255.159 34.1598C255.463 34.1598 255.758 34.0399 256.046 33.8002L256.238 34.0399C255.678 34.6952 254.983 35.0228 254.152 35.0228C253.593 35.0228 253.185 34.895 252.929 34.6392C252.674 34.3675 252.546 33.944 252.546 33.3686V24.5701C252.546 24.3463 252.442 24.2345 252.234 24.2345H251.467L251.395 23.9947C251.699 23.707 252.09 23.4833 252.57 23.3234C253.065 23.1476 253.553 23.0597 254.032 23.0597C254.24 23.0597 254.4 23.1077 254.512 23.2036C254.64 23.2835 254.703 23.4034 254.703 23.5632V33.4405ZM259.141 28.4779C259.141 28.8775 259.292 29.2051 259.596 29.4608C259.916 29.7006 260.395 29.9723 261.035 30.276C261.562 30.5317 261.97 30.7554 262.257 30.9472C262.545 31.123 262.793 31.3628 263 31.6665C263.224 31.9701 263.336 32.3297 263.336 32.7453C263.336 33.4325 263.008 33.984 262.353 34.3995C261.714 34.8151 260.851 35.0228 259.764 35.0228C258.949 35.0228 258.278 34.879 257.75 34.5913C257.223 34.2876 256.959 33.896 256.959 33.4166C256.959 33.0969 257.079 32.8332 257.319 32.6254C257.558 32.4017 257.854 32.2898 258.206 32.2898C258.477 32.2898 258.749 32.3457 259.021 32.4576C258.749 32.6654 258.613 33.001 258.613 33.4645C258.613 33.7842 258.725 34.0319 258.949 34.2077C259.173 34.3835 259.444 34.4714 259.764 34.4714C260.132 34.4714 260.443 34.3755 260.699 34.1837C260.971 33.9919 261.106 33.7202 261.106 33.3686C261.106 33.033 260.971 32.7693 260.699 32.5775C260.443 32.3697 260.036 32.13 259.476 31.8582C258.965 31.6185 258.549 31.4027 258.23 31.2109C257.926 31.0032 257.662 30.7315 257.438 30.3958C257.215 30.0602 257.103 29.6526 257.103 29.1731C257.103 28.4539 257.406 27.8865 258.014 27.471C258.621 27.0554 259.388 26.8476 260.315 26.8476C261.13 26.8476 261.794 26.9995 262.305 27.3032C262.833 27.6068 263.096 27.9984 263.096 28.4779C263.096 28.8455 262.984 29.1172 262.761 29.293C262.537 29.4688 262.249 29.5567 261.898 29.5567C261.562 29.5567 261.266 29.4848 261.011 29.341C261.298 29.0693 261.442 28.7256 261.442 28.3101C261.442 28.0384 261.338 27.8226 261.13 27.6628C260.923 27.487 260.651 27.3991 260.315 27.3991C259.948 27.3991 259.66 27.5029 259.452 27.7107C259.244 27.9185 259.141 28.1742 259.141 28.4779Z" fill="white"/>
</svg>
