<svg width="325" height="90" viewBox="0 0 325 90" fill="none" xmlns="http://www.w3.org/2000/svg">
<path d="M48.2312 8.35747C49.2597 8.58835 50.0783 9.03963 50.687 9.7113C51.3166 10.383 51.6315 11.1701 51.6315 12.0726C51.6315 13.29 51.1172 14.2661 50.0887 15.0007C49.0603 15.7143 47.6749 16.0712 45.9328 16.0712H39.3525L39.1321 15.5044C39.6569 15.3575 40.0347 15.2211 40.2656 15.0951C40.4965 14.9482 40.6539 14.7593 40.7379 14.5284C40.8218 14.2975 40.8638 13.9407 40.8638 13.458V4.92566C40.8638 4.19102 40.8008 3.65578 40.6749 3.31995C40.5699 2.98411 40.3076 2.69026 39.8878 2.43838L39.51 2.21799L39.6359 1.80869C40.3076 1.59879 41.1681 1.43088 42.2176 1.30494C43.2881 1.15801 44.2536 1.08455 45.1142 1.08455C46.9613 1.08455 48.3991 1.43088 49.4276 2.12354C50.4771 2.81619 51.0018 3.78172 51.0018 5.02011C51.0018 5.79673 50.7499 6.47889 50.2462 7.0666C49.7634 7.63332 49.0917 8.06361 48.2312 8.35747ZM45.9013 15.3785C46.6569 15.3785 47.2761 15.0742 47.7589 14.4655C48.2626 13.8568 48.5145 13.0801 48.5145 12.1356C48.5145 11.1701 48.1892 10.383 47.5385 9.77427C46.8878 9.16557 45.9643 8.75627 44.7679 8.54637V8.16856C45.7334 8.16856 46.489 7.8852 47.0348 7.31848C47.6015 6.75176 47.8848 5.98563 47.8848 5.02011C47.8848 4.05458 47.6539 3.28846 47.1922 2.72174C46.7304 2.13403 46.1112 1.84017 45.3346 1.84017C44.8728 1.84017 44.516 1.9976 44.2641 2.31244C44.0122 2.6063 43.8863 3.02609 43.8863 3.57182V12.5764C43.8863 13.437 44.0647 14.1191 44.4215 14.6229C44.7994 15.1266 45.2926 15.3785 45.9013 15.3785ZM53.1811 11.0022C53.1811 9.34398 53.6534 8.03213 54.5979 7.0666C55.5634 6.10108 56.8648 5.61831 58.502 5.61831C60.1392 5.61831 61.4405 6.11157 62.4061 7.09809C63.3716 8.06361 63.8544 9.36497 63.8544 11.0022C63.8544 12.6394 63.3716 13.9407 62.4061 14.9062C61.4405 15.8718 60.1392 16.3545 58.502 16.3545C56.8648 16.3545 55.5634 15.8718 54.5979 14.9062C53.6534 13.9407 53.1811 12.6394 53.1811 11.0022ZM60.6744 11.0651C60.6744 9.65882 60.475 8.51489 60.0762 7.63332C59.6774 6.73077 59.1737 6.27949 58.565 6.27949C57.8933 6.27949 57.3476 6.72027 56.9278 7.60184C56.508 8.46241 56.2981 9.59586 56.2981 11.0022C56.2981 12.4295 56.487 13.5629 56.8648 14.4025C57.2636 15.2421 57.7883 15.6619 58.439 15.6619C59.0897 15.6619 59.6249 15.2421 60.0447 14.4025C60.4645 13.5419 60.6744 12.4295 60.6744 11.0651ZM65.2953 11.0022C65.2953 9.34398 65.7675 8.03213 66.7121 7.0666C67.6776 6.10108 68.979 5.61831 70.6161 5.61831C72.2533 5.61831 73.5547 6.11157 74.5202 7.09809C75.4857 8.06361 75.9685 9.36497 75.9685 11.0022C75.9685 12.6394 75.4857 13.9407 74.5202 14.9062C73.5547 15.8718 72.2533 16.3545 70.6161 16.3545C68.979 16.3545 67.6776 15.8718 66.7121 14.9062C65.7675 13.9407 65.2953 12.6394 65.2953 11.0022ZM72.7886 11.0651C72.7886 9.65882 72.5892 8.51489 72.1904 7.63332C71.7916 6.73077 71.2878 6.27949 70.6791 6.27949C70.0074 6.27949 69.4617 6.72027 69.0419 7.60184C68.6221 8.46241 68.4122 9.59586 68.4122 11.0022C68.4122 12.4295 68.6011 13.5629 68.979 14.4025C69.3778 15.2421 69.9025 15.6619 70.5532 15.6619C71.2039 15.6619 71.7391 15.2421 72.1589 14.4025C72.5787 13.5419 72.7886 12.4295 72.7886 11.0651ZM89.1216 15.1266C88.387 15.9452 87.474 16.3545 86.3825 16.3545C85.7108 16.3545 85.1756 16.2076 84.7768 15.9137C84.399 15.6199 84.1051 15.1266 83.8952 14.434L82.9192 11.6633C82.7933 11.3065 82.6253 11.0336 82.4155 10.8447C82.2265 10.6558 81.9642 10.5194 81.6283 10.4354V12.7968C81.6283 13.4475 81.6703 13.9617 81.7543 14.3395C81.8592 14.7173 82.0271 15.0847 82.258 15.4415L82.5099 15.7563L82.258 16.0712H77.6928L77.5039 15.5359L77.9447 15.4415C78.2805 15.3575 78.5009 15.2316 78.6058 15.0637C78.7108 14.8748 78.7632 14.5179 78.7632 13.9932V2.62729C78.7632 2.33343 78.6268 2.1865 78.354 2.1865H77.3779L77.252 1.87166C77.6508 1.49385 78.165 1.19999 78.7947 0.990093C79.4454 0.759207 80.0856 0.643764 80.7153 0.643764C80.9882 0.643764 81.2085 0.706733 81.3765 0.83267C81.5444 0.937619 81.6283 1.09504 81.6283 1.30494V9.83724L83.5174 8.45192C83.9582 8.13707 84.2625 7.8852 84.4305 7.69629C84.5984 7.50738 84.6823 7.30798 84.6823 7.09809C84.6823 6.80423 84.5564 6.55235 84.3045 6.34246L84.0526 6.15355L84.3045 5.83871H88.1141L88.3031 6.37394C87.7783 6.49988 87.1906 6.79374 86.5399 7.25551L82.8247 9.96317C83.7483 10.0681 84.4619 10.2885 84.9657 10.6243C85.4694 10.9602 85.8368 11.4429 86.0677 12.0726L86.9492 14.5914C87.0961 15.0532 87.39 15.2841 87.8308 15.2841C88.1456 15.2841 88.492 15.1266 88.8698 14.8118L89.1216 15.1266ZM105.015 5.68128V16.0712C105.015 17.7294 104.532 19.0097 103.567 19.9123C102.622 20.8358 101.3 21.2976 99.5998 21.2976C98.5504 21.2976 97.7003 21.0982 97.0496 20.6994C96.3989 20.3006 96.0736 19.7758 96.0736 19.1252C96.0736 18.5584 96.2415 18.0967 96.5773 17.7398C96.9132 17.404 97.3539 17.2361 97.8997 17.2361C98.2985 17.2361 98.6868 17.3201 99.0646 17.488C98.6868 17.8658 98.4979 18.38 98.4979 19.0307C98.4979 19.4925 98.6343 19.8703 98.9072 20.1642C99.201 20.458 99.5684 20.6049 100.009 20.6049C101.478 20.6049 102.213 19.4085 102.213 17.0157V13.0172C101.94 13.8148 101.457 14.476 100.765 15.0007C100.093 15.5044 99.369 15.7563 98.5923 15.7563C97.6688 15.7563 96.9866 15.473 96.5458 14.9062C96.1051 14.3395 95.8847 13.4789 95.8847 12.3245V7.63332C95.8847 7.33947 95.7482 7.19254 95.4754 7.19254H94.4993L94.4049 6.84621C94.8037 6.48939 95.3284 6.19553 95.9791 5.96464C96.6298 5.73376 97.249 5.61831 97.8367 5.61831C98.1096 5.61831 98.3195 5.68128 98.4664 5.80722C98.6343 5.93316 98.7183 6.10108 98.7183 6.31097V12.6708C98.7183 13.8463 99.0856 14.434 99.8202 14.434C100.534 14.434 101.111 14.0037 101.552 13.1431C101.993 12.2825 102.213 11.1386 102.213 9.7113C102.213 8.95567 102.15 8.33648 102.024 7.85371C101.898 7.37095 101.699 6.95116 101.426 6.59433L101.174 6.248L101.394 5.96464L105.015 5.68128ZM107.51 11.0022C107.51 9.34398 107.983 8.03213 108.927 7.0666C109.893 6.10108 111.194 5.61831 112.831 5.61831C114.468 5.61831 115.77 6.11157 116.735 7.09809C117.701 8.06361 118.184 9.36497 118.184 11.0022C118.184 12.6394 117.701 13.9407 116.735 14.9062C115.77 15.8718 114.468 16.3545 112.831 16.3545C111.194 16.3545 109.893 15.8718 108.927 14.9062C107.983 13.9407 107.51 12.6394 107.51 11.0022ZM115.004 11.0651C115.004 9.65882 114.804 8.51489 114.405 7.63332C114.007 6.73077 113.503 6.27949 112.894 6.27949C112.222 6.27949 111.677 6.72027 111.257 7.60184C110.837 8.46241 110.627 9.59586 110.627 11.0022C110.627 12.4295 110.816 13.5629 111.194 14.4025C111.593 15.2421 112.118 15.6619 112.768 15.6619C113.419 15.6619 113.954 15.2421 114.374 14.4025C114.794 13.5419 115.004 12.4295 115.004 11.0651ZM127.338 13.2061C127.044 14.1296 126.53 14.8853 125.795 15.473C125.082 16.0607 124.316 16.3545 123.497 16.3545C122.574 16.3545 121.891 16.0607 121.451 15.473C121.01 14.8853 120.789 13.9827 120.789 12.7653V7.63332C120.789 7.33947 120.653 7.19254 120.38 7.19254H119.404L119.31 6.84621C119.729 6.48939 120.254 6.19553 120.884 5.96464C121.514 5.73376 122.133 5.61831 122.741 5.61831C123.014 5.61831 123.224 5.68128 123.371 5.80722C123.539 5.93316 123.623 6.10108 123.623 6.31097V12.6079C123.623 13.3215 123.728 13.8777 123.938 14.2766C124.148 14.6544 124.442 14.8433 124.819 14.8433C125.596 14.8433 126.215 14.371 126.677 13.4265C127.16 12.4609 127.401 11.2121 127.401 9.67981C127.401 8.86122 127.338 8.23153 127.212 7.79074C127.107 7.32897 126.908 6.93017 126.614 6.59433L126.331 6.248L126.583 5.96464L130.203 5.68128V14.2766C130.203 14.9062 130.392 15.2211 130.77 15.2211C131.169 15.2211 131.557 15.0637 131.935 14.7488L132.187 15.0637C131.452 15.9242 130.539 16.3545 129.448 16.3545C128.65 16.3545 128.094 16.1236 127.779 15.6619C127.485 15.2001 127.338 14.3815 127.338 13.2061ZM139.986 5.61831C140.658 5.61831 141.203 5.81772 141.623 6.21652C142.043 6.59433 142.253 7.08759 142.253 7.69629C142.253 8.26301 142.085 8.72478 141.749 9.08161C141.413 9.41744 140.972 9.58536 140.427 9.58536C140.007 9.58536 139.619 9.5014 139.262 9.33348C139.64 9.01864 139.828 8.54637 139.828 7.91668C139.828 7.62283 139.765 7.39194 139.64 7.22402C139.514 7.05611 139.346 6.97215 139.136 6.97215C138.632 6.97215 138.212 7.48639 137.876 8.51489C137.541 9.52239 137.373 10.7818 137.373 12.293C137.373 13.0696 137.415 13.6888 137.499 14.1506C137.604 14.6124 137.771 15.0427 138.002 15.4415L138.254 15.7563L138.002 16.0712H133.437L133.248 15.5359L133.689 15.4415C134.025 15.3575 134.245 15.2316 134.35 15.0637C134.455 14.8748 134.508 14.5179 134.508 13.9932V7.85371C134.508 7.45491 134.371 7.25551 134.098 7.25551H133.122L132.996 6.90918C133.395 6.55235 133.888 6.2585 134.476 6.02761C135.085 5.79673 135.683 5.68128 136.271 5.68128C136.544 5.68128 136.764 5.74425 136.932 5.87019C137.1 5.99613 137.184 6.16405 137.184 6.37394V8.67231H137.278C137.719 6.63631 138.622 5.61831 139.986 5.61831ZM160.997 15.0637C160.199 15.9242 159.276 16.3545 158.226 16.3545C157.471 16.3545 156.925 16.1551 156.589 15.7563C156.274 15.3575 156.117 14.6334 156.117 13.5839V7.63332C156.117 7.33947 155.981 7.19254 155.708 7.19254H152.433V13.9932C152.433 14.4969 152.496 14.8433 152.622 15.0322C152.769 15.2001 153.094 15.3365 153.598 15.4415L154.007 15.5359L153.819 16.0712H148.907L148.655 15.7563L148.907 15.4415C149.159 15.1056 149.327 14.7488 149.411 14.371C149.516 13.9722 149.568 13.437 149.568 12.7653V7.19254H147.962C147.962 6.83571 147.983 6.60483 148.025 6.49988C148.067 6.39493 148.193 6.31097 148.403 6.248L149.6 5.96464C149.768 4.20151 150.334 2.82669 151.3 1.84017C152.265 0.85366 153.588 0.360404 155.267 0.360404C156.358 0.360404 157.271 0.559805 158.006 0.958609C158.741 1.35741 159.108 1.91364 159.108 2.62729C159.108 3.19401 158.94 3.65578 158.604 4.0126C158.268 4.34844 157.828 4.51636 157.282 4.51636C156.862 4.51636 156.474 4.4324 156.117 4.26448C156.495 3.94964 156.684 3.47737 156.684 2.84768C156.684 2.34393 156.537 1.93463 156.243 1.61978C155.949 1.28395 155.519 1.11603 154.952 1.11603C154.112 1.11603 153.483 1.54632 153.063 2.4069C152.643 3.24648 152.433 4.4324 152.433 5.96464H155.708C156.19 5.96464 156.747 5.89118 157.376 5.74425C157.754 5.66029 158.027 5.61831 158.195 5.61831C158.447 5.61831 158.636 5.69178 158.762 5.83871C158.909 5.98563 158.982 6.17454 158.982 6.40543V14.2766C158.982 14.9062 159.181 15.2211 159.58 15.2211C159.895 15.2211 160.283 15.0637 160.745 14.7488L160.997 15.0637ZM168.519 5.61831C169.19 5.61831 169.736 5.81772 170.156 6.21652C170.576 6.59433 170.786 7.08759 170.786 7.69629C170.786 8.26301 170.618 8.72478 170.282 9.08161C169.946 9.41744 169.505 9.58536 168.959 9.58536C168.54 9.58536 168.151 9.5014 167.795 9.33348C168.172 9.01864 168.361 8.54637 168.361 7.91668C168.361 7.62283 168.298 7.39194 168.172 7.22402C168.046 7.05611 167.878 6.97215 167.669 6.97215C167.165 6.97215 166.745 7.48639 166.409 8.51489C166.073 9.52239 165.905 10.7818 165.905 12.293C165.905 13.0696 165.947 13.6888 166.031 14.1506C166.136 14.6124 166.304 15.0427 166.535 15.4415L166.787 15.7563L166.535 16.0712H161.97L161.781 15.5359L162.222 15.4415C162.558 15.3575 162.778 15.2316 162.883 15.0637C162.988 14.8748 163.04 14.5179 163.04 13.9932V7.85371C163.04 7.45491 162.904 7.25551 162.631 7.25551H161.655L161.529 6.90918C161.928 6.55235 162.421 6.2585 163.009 6.02761C163.618 5.79673 164.216 5.68128 164.803 5.68128C165.076 5.68128 165.297 5.74425 165.465 5.87019C165.633 5.99613 165.717 6.16405 165.717 6.37394V8.67231H165.811C166.252 6.63631 167.154 5.61831 168.519 5.61831ZM174.765 7.75926C174.765 8.284 174.964 8.71429 175.363 9.05012C175.783 9.36497 176.412 9.72179 177.252 10.1206C177.945 10.4564 178.48 10.7503 178.858 11.0022C179.235 11.233 179.561 11.5479 179.834 11.9467C180.127 12.3455 180.274 12.8178 180.274 13.3635C180.274 14.2661 179.844 14.9902 178.984 15.5359C178.144 16.0817 177.011 16.3545 175.583 16.3545C174.513 16.3545 173.631 16.1656 172.939 15.7878C172.246 15.389 171.9 14.8748 171.9 14.2451C171.9 13.8253 172.057 13.4789 172.372 13.2061C172.687 12.9122 173.075 12.7653 173.537 12.7653C173.894 12.7653 174.25 12.8388 174.607 12.9857C174.25 13.2586 174.072 13.6993 174.072 14.308C174.072 14.7278 174.219 15.0532 174.513 15.2841C174.807 15.5149 175.163 15.6304 175.583 15.6304C176.066 15.6304 176.475 15.5044 176.811 15.2526C177.168 15.0007 177.346 14.6439 177.346 14.1821C177.346 13.7413 177.168 13.395 176.811 13.1431C176.475 12.8702 175.94 12.5554 175.205 12.1986C174.534 11.8837 173.988 11.6004 173.568 11.3485C173.169 11.0756 172.823 10.7188 172.529 10.278C172.235 9.83724 172.088 9.302 172.088 8.67231C172.088 7.72778 172.487 6.98264 173.285 6.43691C174.082 5.89118 175.09 5.61831 176.307 5.61831C177.378 5.61831 178.249 5.81772 178.921 6.21652C179.613 6.61532 179.96 7.12957 179.96 7.75926C179.96 8.24202 179.813 8.59885 179.519 8.82973C179.225 9.06062 178.847 9.17606 178.385 9.17606C177.945 9.17606 177.556 9.08161 177.22 8.8927C177.598 8.53588 177.787 8.0846 177.787 7.53887C177.787 7.18204 177.651 6.89868 177.378 6.68879C177.105 6.4579 176.748 6.34246 176.307 6.34246C175.825 6.34246 175.447 6.47889 175.174 6.75176C174.901 7.02462 174.765 7.36046 174.765 7.75926ZM185.443 16.3545C184.582 16.3545 183.963 16.1656 183.585 15.7878C183.207 15.389 183.018 14.7488 183.018 13.8673V7.19254H181.444C181.444 6.83571 181.465 6.60483 181.507 6.49988C181.549 6.39493 181.675 6.31097 181.885 6.248C182.577 6.0591 183.123 5.76524 183.522 5.36644C183.921 4.96763 184.246 4.39042 184.498 3.63479C184.561 3.4039 184.666 3.26747 184.813 3.22549C184.96 3.16252 185.317 3.13104 185.883 3.13104V5.96464H188.465C188.465 6.23751 188.423 6.48938 188.339 6.72027C188.255 6.93017 188.14 7.08759 187.993 7.19254H185.883V14.2766C185.883 14.9062 186.146 15.2211 186.67 15.2211C186.901 15.2211 187.153 15.1476 187.426 15.0007C187.72 14.8538 187.982 14.6544 188.213 14.4025L188.465 14.7173C187.563 15.8088 186.555 16.3545 185.443 16.3545ZM198.202 16.3545C197.342 16.3545 196.723 16.1656 196.345 15.7878C195.967 15.389 195.778 14.7488 195.778 13.8673V7.19254H194.204C194.204 6.83571 194.225 6.60483 194.267 6.49988C194.309 6.39493 194.435 6.31097 194.645 6.248C195.337 6.0591 195.883 5.76524 196.282 5.36644C196.681 4.96763 197.006 4.39042 197.258 3.63479C197.321 3.4039 197.426 3.26747 197.573 3.22549C197.72 3.16252 198.076 3.13104 198.643 3.13104V5.96464H201.225C201.225 6.23751 201.183 6.48938 201.099 6.72027C201.015 6.93017 200.9 7.08759 200.753 7.19254H198.643V14.2766C198.643 14.9062 198.906 15.2211 199.43 15.2211C199.661 15.2211 199.913 15.1476 200.186 15.0007C200.48 14.8538 200.742 14.6544 200.973 14.4025L201.225 14.7173C200.322 15.8088 199.315 16.3545 198.202 16.3545ZM205.8 9.11309C205.359 9.36497 204.834 9.49091 204.226 9.49091C203.785 9.49091 203.438 9.36497 203.187 9.11309C202.935 8.84023 202.809 8.46241 202.809 7.97965C202.809 7.266 203.155 6.69928 203.848 6.27949C204.561 5.83871 205.485 5.61831 206.618 5.61831C207.962 5.61831 209.011 5.91217 209.767 6.49988C210.543 7.08759 210.932 7.8852 210.932 8.8927V14.3395C210.932 14.9272 211.142 15.2211 211.561 15.2211C211.96 15.2211 212.349 15.0637 212.726 14.7488L212.978 15.0637C212.202 15.9242 211.278 16.3545 210.208 16.3545C209.578 16.3545 209.095 16.1971 208.759 15.8823C208.444 15.5674 208.256 15.0742 208.193 14.4025H208.067C207.731 15.0112 207.28 15.494 206.713 15.8508C206.167 16.1866 205.537 16.3545 204.824 16.3545C204.026 16.3545 203.386 16.1131 202.903 15.6304C202.42 15.1266 202.179 14.476 202.179 13.6783C202.179 12.7758 202.609 12.0621 203.47 11.5374C204.33 11.0127 205.495 10.7503 206.965 10.7503C207.238 10.7503 207.626 10.7713 208.13 10.8133V9.23903C208.13 8.21054 208.004 7.4759 207.752 7.03512C207.5 6.57334 207.091 6.34246 206.524 6.34246C206.125 6.34246 205.81 6.4684 205.579 6.72027C205.348 6.97215 205.233 7.29749 205.233 7.69629C205.233 8.32598 205.422 8.79825 205.8 9.11309ZM206.272 14.7803C207.51 14.7803 208.13 13.6574 208.13 11.4115C207.08 11.4115 206.293 11.5899 205.768 11.9467C205.244 12.2825 204.981 12.7653 204.981 13.395C204.981 13.8148 205.097 14.1506 205.327 14.4025C205.558 14.6544 205.873 14.7803 206.272 14.7803ZM220.164 5.61831C221.004 5.61831 221.759 5.83871 222.431 6.27949C223.124 6.69928 223.659 7.28699 224.037 8.04262C224.435 8.79825 224.635 9.64833 224.635 10.5929C224.635 11.6843 224.372 12.6708 223.848 13.5524C223.344 14.413 222.641 15.0951 221.738 15.5989C220.836 16.1027 219.828 16.3545 218.716 16.3545C217.96 16.3545 217.205 16.2391 216.449 16.0082C215.693 15.7773 215.074 15.4625 214.591 15.0637V2.62729C214.591 2.45937 214.56 2.34393 214.497 2.28096C214.434 2.21799 214.329 2.1865 214.182 2.1865H213.206L213.112 1.87166C213.51 1.49385 214.025 1.19999 214.654 0.990093C215.305 0.759207 215.945 0.643764 216.575 0.643764C216.848 0.643764 217.058 0.706733 217.205 0.83267C217.372 0.937619 217.456 1.09504 217.456 1.30494V6.59433C217.771 6.27949 218.16 6.03811 218.621 5.87019C219.104 5.70227 219.618 5.61831 220.164 5.61831ZM218.873 15.6304C220.615 15.6304 221.486 14.1296 221.486 11.1281C221.486 9.63783 221.266 8.50439 220.825 7.72778C220.405 6.93017 219.776 6.53136 218.936 6.53136C218.411 6.53136 217.918 6.68879 217.456 7.00363V15.3155C217.918 15.5254 218.39 15.6304 218.873 15.6304ZM229.847 14.2766C229.847 14.9062 230.046 15.2211 230.445 15.2211C230.844 15.2211 231.232 15.0637 231.61 14.7488L231.862 15.0637C231.127 15.9242 230.214 16.3545 229.122 16.3545C228.388 16.3545 227.853 16.1866 227.517 15.8508C227.181 15.494 227.013 14.9377 227.013 14.1821V2.62729C227.013 2.33343 226.876 2.1865 226.604 2.1865H225.596L225.502 1.87166C225.9 1.49385 226.415 1.19999 227.044 0.990093C227.695 0.759207 228.335 0.643764 228.965 0.643764C229.238 0.643764 229.448 0.706733 229.595 0.83267C229.763 0.937619 229.847 1.09504 229.847 1.30494V14.2766ZM238.57 15.3155C239.179 15.3155 239.714 15.2106 240.176 15.0007C240.638 14.7698 241.089 14.392 241.53 13.8673L241.908 14.1506C241.425 14.8433 240.806 15.389 240.05 15.7878C239.315 16.1656 238.507 16.3545 237.626 16.3545C236.66 16.3545 235.789 16.1236 235.012 15.6619C234.257 15.2001 233.659 14.5704 233.218 13.7728C232.777 12.9542 232.557 12.0307 232.557 11.0022C232.557 9.36497 233.05 8.06361 234.036 7.09809C235.044 6.11157 236.377 5.61831 238.035 5.61831C239.21 5.61831 240.165 5.90167 240.9 6.4684C241.656 7.01413 242.033 7.72778 242.033 8.60934C242.033 9.61685 241.603 10.4249 240.743 11.0336C239.903 11.6214 238.749 11.9152 237.279 11.9152C236.692 11.9152 236.156 11.8732 235.674 11.7893C235.779 12.8807 236.093 13.7413 236.618 14.371C237.143 15.0007 237.794 15.3155 238.57 15.3155ZM237.689 6.37394C237.038 6.37394 236.524 6.77275 236.146 7.57035C235.789 8.34697 235.611 9.43843 235.611 10.8447V11.3485C235.842 11.3485 236.125 11.3275 236.461 11.2855C237.342 11.1806 238.014 10.8972 238.476 10.4354C238.958 9.95268 239.2 9.32299 239.2 8.54637C239.2 7.91668 239.053 7.40244 238.759 7.00363C238.486 6.58384 238.129 6.37394 237.689 6.37394ZM252.319 9.11309C251.879 9.36497 251.354 9.49091 250.745 9.49091C250.304 9.49091 249.958 9.36497 249.706 9.11309C249.454 8.84023 249.328 8.46241 249.328 7.97965C249.328 7.266 249.675 6.69928 250.367 6.27949C251.081 5.83871 252.004 5.61831 253.138 5.61831C254.481 5.61831 255.531 5.91217 256.286 6.49988C257.063 7.08759 257.451 7.8852 257.451 8.8927V14.3395C257.451 14.9272 257.661 15.2211 258.081 15.2211C258.48 15.2211 258.868 15.0637 259.246 14.7488L259.498 15.0637C258.721 15.9242 257.798 16.3545 256.727 16.3545C256.097 16.3545 255.615 16.1971 255.279 15.8823C254.964 15.5674 254.775 15.0742 254.712 14.4025H254.586C254.25 15.0112 253.799 15.494 253.232 15.8508C252.687 16.1866 252.057 16.3545 251.343 16.3545C250.546 16.3545 249.906 16.1131 249.423 15.6304C248.94 15.1266 248.699 14.476 248.699 13.6783C248.699 12.7758 249.129 12.0621 249.989 11.5374C250.85 11.0127 252.015 10.7503 253.484 10.7503C253.757 10.7503 254.145 10.7713 254.649 10.8133V9.23903C254.649 8.21054 254.523 7.4759 254.271 7.03512C254.019 6.57334 253.61 6.34246 253.043 6.34246C252.645 6.34246 252.33 6.4684 252.099 6.72027C251.868 6.97215 251.753 7.29749 251.753 7.69629C251.753 8.32598 251.942 8.79825 252.319 9.11309ZM252.792 14.7803C254.03 14.7803 254.649 13.6574 254.649 11.4115C253.6 11.4115 252.813 11.5899 252.288 11.9467C251.763 12.2825 251.501 12.7653 251.501 13.395C251.501 13.8148 251.616 14.1506 251.847 14.4025C252.078 14.6544 252.393 14.7803 252.792 14.7803ZM271.154 14.2766C271.154 14.9062 271.354 15.2211 271.753 15.2211C272.151 15.2211 272.54 15.0637 272.918 14.7488L273.169 15.0637C272.393 15.9242 271.48 16.3545 270.43 16.3545C269.675 16.3545 269.129 16.1656 268.793 15.7878C268.478 15.389 268.321 14.7488 268.321 13.8673V9.05012C268.321 7.83272 267.932 7.22402 267.156 7.22402C266.4 7.22402 265.781 7.73827 265.298 8.76676C264.837 9.79526 264.606 11.1386 264.606 12.7968C264.606 13.4265 264.658 13.9407 264.763 14.3395C264.868 14.7173 265.036 15.0847 265.267 15.4415L265.519 15.7563L265.267 16.0712H260.702L260.513 15.5359L260.953 15.4415C261.289 15.3575 261.51 15.2316 261.615 15.0637C261.72 14.8748 261.772 14.5179 261.772 13.9932V7.85371C261.772 7.45491 261.636 7.25551 261.363 7.25551H260.355L260.261 6.90918C260.681 6.55235 261.205 6.2585 261.835 6.02761C262.465 5.79673 263.094 5.68128 263.724 5.68128C263.997 5.68128 264.207 5.74425 264.354 5.87019C264.522 5.99613 264.606 6.16405 264.606 6.37394V9.08161C264.899 8.09509 265.424 7.2765 266.18 6.62582C266.935 5.95415 267.733 5.61831 268.573 5.61831C269.475 5.61831 270.126 5.91217 270.525 6.49988C270.945 7.08759 271.154 8.02163 271.154 9.302V14.2766ZM286.122 15.0637C285.346 15.9242 284.433 16.3545 283.383 16.3545C282.733 16.3545 282.25 16.2181 281.935 15.9452C281.62 15.6514 281.41 15.1791 281.305 14.5284C280.759 15.1581 280.193 15.6199 279.605 15.9137C279.017 16.2076 278.367 16.3545 277.653 16.3545C276.604 16.3545 275.743 15.8928 275.071 14.9692C274.421 14.0457 274.095 12.8493 274.095 11.38C274.095 9.61685 274.557 8.22103 275.481 7.19254C276.404 6.14306 277.664 5.61831 279.259 5.61831C279.993 5.61831 280.665 5.78623 281.274 6.12207V2.62729C281.274 2.33343 281.137 2.1865 280.864 2.1865H279.794L279.668 1.87166C280.088 1.49385 280.623 1.19999 281.274 0.990093C281.924 0.759207 282.565 0.643764 283.194 0.643764C283.467 0.643764 283.688 0.706733 283.855 0.83267C284.023 0.937619 284.107 1.09504 284.107 1.30494V14.2766C284.107 14.9062 284.307 15.2211 284.706 15.2211C285.104 15.2211 285.493 15.0637 285.87 14.7488L286.122 15.0637ZM279.29 14.8433C280.088 14.8433 280.749 14.4025 281.274 13.5209V6.75176C280.854 6.54186 280.392 6.43691 279.888 6.43691C278.125 6.43691 277.244 7.95866 277.244 11.0022C277.244 12.2406 277.412 13.1956 277.747 13.8673C278.104 14.5179 278.619 14.8433 279.29 14.8433ZM17.8912 34.6183C18.5629 34.6183 19.1086 34.8177 19.5284 35.2165C19.9482 35.5943 20.1581 36.0876 20.1581 36.6963C20.1581 37.263 19.9902 37.7248 19.6543 38.0816C19.3185 38.4174 18.8777 38.5854 18.332 38.5854C17.9122 38.5854 17.5239 38.5014 17.167 38.3335C17.5449 38.0186 17.7338 37.5464 17.7338 36.9167C17.7338 36.6228 17.6708 36.3919 17.5449 36.224C17.4189 36.0561 17.251 35.9721 17.0411 35.9721C16.5374 35.9721 16.1176 36.4864 15.7817 37.5149C15.4459 38.5224 15.278 39.7818 15.278 41.293C15.278 42.0696 15.32 42.6888 15.4039 43.1506C15.5089 43.6124 15.6768 44.0427 15.9077 44.4415L16.1595 44.7563L15.9077 45.0712H11.3424L11.1535 44.5359L11.5943 44.4415C11.9301 44.3575 12.1505 44.2316 12.2555 44.0637C12.3604 43.8748 12.4129 43.5179 12.4129 42.9932V36.8537C12.4129 36.4549 12.2764 36.2555 12.0036 36.2555H11.0276L10.9016 35.9092C11.3004 35.5524 11.7937 35.2585 12.3814 35.0276C12.9901 34.7967 13.5883 34.6813 14.176 34.6813C14.4489 34.6813 14.6693 34.7443 14.8372 34.8702C15.0051 34.9961 15.0891 35.164 15.0891 35.3739V37.6723H15.1835C15.6243 35.6363 16.5269 34.6183 17.8912 34.6183ZM27.0337 44.3155C27.6424 44.3155 28.1777 44.2106 28.6395 44.0007C29.1012 43.7698 29.5525 43.392 29.9933 42.8673L30.3711 43.1506C29.8883 43.8433 29.2691 44.389 28.5135 44.7878C27.7789 45.1656 26.9708 45.3545 26.0892 45.3545C25.1237 45.3545 24.2526 45.1236 23.476 44.6619C22.7204 44.2001 22.1222 43.5704 21.6814 42.7728C21.2406 41.9542 21.0202 41.0307 21.0202 40.0022C21.0202 38.365 21.5135 37.0636 22.5 36.0981C23.5075 35.1116 24.8403 34.6183 26.4985 34.6183C27.6739 34.6183 28.629 34.9017 29.3636 35.4684C30.1192 36.0141 30.497 36.7278 30.497 37.6093C30.497 38.6168 30.0667 39.4249 29.2062 40.0336C28.3666 40.6214 27.2122 40.9152 25.7429 40.9152C25.1552 40.9152 24.6199 40.8732 24.1372 40.7893C24.2421 41.8807 24.557 42.7413 25.0817 43.371C25.6064 44.0007 26.2571 44.3155 27.0337 44.3155ZM26.1522 35.3739C25.5015 35.3739 24.9872 35.7727 24.6094 36.5704C24.2526 37.347 24.0742 38.4384 24.0742 39.8447V40.3485C24.3051 40.3485 24.5884 40.3275 24.9243 40.2855C25.8058 40.1806 26.4775 39.8972 26.9393 39.4354C27.422 38.9527 27.6634 38.323 27.6634 37.5464C27.6634 36.9167 27.5165 36.4024 27.2226 36.0036C26.9498 35.5838 26.593 35.3739 26.1522 35.3739ZM41.1617 37.3889C41.1617 38.0816 40.9518 38.6273 40.532 39.0261C40.1122 39.4249 39.5979 39.6243 38.9892 39.6243C38.5065 39.6243 38.0657 39.4984 37.6669 39.2465C38.1287 38.8267 38.3596 38.239 38.3596 37.4834C38.3596 36.8747 38.2336 36.3814 37.9817 36.0036C37.7299 35.6048 37.3625 35.4054 36.8798 35.4054C36.334 35.4054 35.8828 35.8357 35.5259 36.6963C35.1901 37.5359 35.0222 38.6378 35.0222 40.0022C35.0222 41.3035 35.2636 42.353 35.7463 43.1506C36.2501 43.9272 36.9532 44.3155 37.8558 44.3155C38.4855 44.3155 39.0207 44.2001 39.4615 43.9692C39.9233 43.7383 40.3536 43.4025 40.7524 42.9617L41.1302 43.2136C40.6894 43.8433 40.1122 44.3575 39.3985 44.7563C38.6849 45.1551 37.8558 45.3545 36.9113 45.3545C35.442 45.3545 34.2351 44.8613 33.2905 43.8748C32.346 42.8882 31.8737 41.6184 31.8737 40.0651C31.8737 38.4069 32.367 37.0846 33.3535 36.0981C34.34 35.1116 35.6519 34.6183 37.2891 34.6183C38.4435 34.6183 39.3775 34.8807 40.0912 35.4054C40.8048 35.9092 41.1617 36.5704 41.1617 37.3889ZM48.4641 44.3155C49.0728 44.3155 49.608 44.2106 50.0698 44.0007C50.5316 43.7698 50.9829 43.392 51.4236 42.8673L51.8015 43.1506C51.3187 43.8433 50.6995 44.389 49.9439 44.7878C49.2092 45.1656 48.4011 45.3545 47.5196 45.3545C46.554 45.3545 45.683 45.1236 44.9064 44.6619C44.1507 44.2001 43.5525 43.5704 43.1117 42.7728C42.671 41.9542 42.4506 41.0307 42.4506 40.0022C42.4506 38.365 42.9438 37.0636 43.9303 36.0981C44.9378 35.1116 46.2707 34.6183 47.9289 34.6183C49.1043 34.6183 50.0593 34.9017 50.794 35.4684C51.5496 36.0141 51.9274 36.7278 51.9274 37.6093C51.9274 38.6168 51.4971 39.4249 50.6365 40.0336C49.7969 40.6214 48.6425 40.9152 47.1732 40.9152C46.5855 40.9152 46.0503 40.8732 45.5675 40.7893C45.6725 41.8807 45.9873 42.7413 46.5121 43.371C47.0368 44.0007 47.6875 44.3155 48.4641 44.3155ZM47.5825 35.3739C46.9319 35.3739 46.4176 35.7727 46.0398 36.5704C45.683 37.347 45.5046 38.4384 45.5046 39.8447V40.3485C45.7354 40.3485 46.0188 40.3275 46.3546 40.2855C47.2362 40.1806 47.9079 39.8972 48.3697 39.4354C48.8524 38.9527 49.0938 38.323 49.0938 37.5464C49.0938 36.9167 48.9469 36.4024 48.653 36.0036C48.3801 35.5838 48.0233 35.3739 47.5825 35.3739ZM57.2712 43.2766C57.2712 43.9062 57.4706 44.2211 57.8694 44.2211C58.2682 44.2211 58.6565 44.0637 59.0343 43.7488L59.2862 44.0637C58.5095 44.9242 57.5965 45.3545 56.547 45.3545C55.7914 45.3545 55.2457 45.1656 54.9098 44.7878C54.574 44.389 54.4061 43.7488 54.4061 42.8673V36.6333C54.4061 36.3395 54.2696 36.1925 53.9968 36.1925H53.0207L52.9263 35.8462C53.3461 35.4894 53.8708 35.1955 54.5005 34.9646C55.1302 34.7338 55.7599 34.6183 56.3896 34.6183C56.6415 34.6183 56.8514 34.6813 57.0193 34.8072C57.1872 34.9332 57.2712 35.1011 57.2712 35.311V43.2766ZM54.0912 31.5958C54.0912 31.218 54.3011 30.7982 54.7209 30.3364C55.1407 29.8747 55.529 29.6438 55.8858 29.6438C56.2636 29.6438 56.6625 29.8747 57.0822 30.3364C57.523 30.7982 57.7434 31.218 57.7434 31.5958C57.7434 31.9946 57.523 32.4249 57.0822 32.8867C56.6625 33.3274 56.2636 33.5478 55.8858 33.5478C55.529 33.5478 55.1407 33.3274 54.7209 32.8867C54.3011 32.4249 54.0912 31.9946 54.0912 31.5958ZM65.7063 44.347C66.378 44.347 66.9027 43.9167 67.2805 43.0562C67.6793 42.1746 67.8787 41.0726 67.8787 39.7503C67.8787 37.9662 67.5009 36.5599 66.7453 35.5314L66.4619 35.185L66.7138 34.9332L69.3585 34.6183C69.4215 35.5209 69.4529 36.245 69.4529 36.7907C69.4529 39.4774 69.0437 41.5764 68.2251 43.0876C67.4065 44.5989 66.3045 45.3545 64.9192 45.3545C63.8277 45.3545 62.9986 45.0292 62.4319 44.3785C61.8862 43.7278 61.4979 42.6574 61.267 41.1671L60.6058 36.6333C60.5848 36.4654 60.5428 36.35 60.4799 36.287C60.4169 36.224 60.3224 36.1925 60.1965 36.1925H59.3464L59.252 35.8462C59.6718 35.4684 60.1755 35.1745 60.7632 34.9646C61.3509 34.7338 61.9282 34.6183 62.4949 34.6183C62.8097 34.6183 63.0301 34.7128 63.156 34.9017C63.303 35.0906 63.4184 35.4684 63.5024 36.0351L64.321 41.6708C64.4679 42.6993 64.6358 43.4025 64.8247 43.7803C65.0136 44.1581 65.3075 44.347 65.7063 44.347ZM77.4581 44.3155C78.0668 44.3155 78.6021 44.2106 79.0638 44.0007C79.5256 43.7698 79.9769 43.392 80.4177 42.8673L80.7955 43.1506C80.3127 43.8433 79.6935 44.389 78.9379 44.7878C78.2033 45.1656 77.3952 45.3545 76.5136 45.3545C75.5481 45.3545 74.677 45.1236 73.9004 44.6619C73.1447 44.2001 72.5465 43.5704 72.1058 42.7728C71.665 41.9542 71.4446 41.0307 71.4446 40.0022C71.4446 38.365 71.9378 37.0636 72.9244 36.0981C73.9319 35.1116 75.2647 34.6183 76.9229 34.6183C78.0983 34.6183 79.0533 34.9017 79.788 35.4684C80.5436 36.0141 80.9214 36.7278 80.9214 37.6093C80.9214 38.6168 80.4911 39.4249 79.6306 40.0336C78.791 40.6214 77.6365 40.9152 76.1673 40.9152C75.5796 40.9152 75.0443 40.8732 74.5616 40.7893C74.6665 41.8807 74.9813 42.7413 75.5061 43.371C76.0308 44.0007 76.6815 44.3155 77.4581 44.3155ZM76.5766 35.3739C75.9259 35.3739 75.4116 35.7727 75.0338 36.5704C74.677 37.347 74.4986 38.4384 74.4986 39.8447V40.3485C74.7295 40.3485 75.0128 40.3275 75.3487 40.2855C76.2302 40.1806 76.9019 39.8972 77.3637 39.4354C77.8464 38.9527 78.0878 38.323 78.0878 37.5464C78.0878 36.9167 77.9409 36.4024 77.647 36.0036C77.3742 35.5838 77.0173 35.3739 76.5766 35.3739ZM97.882 34.6813V45.0712C97.882 46.7294 97.3992 48.0097 96.4337 48.9123C95.4891 49.8358 94.1668 50.2976 92.4666 50.2976C91.4172 50.2976 90.5671 50.0982 89.9164 49.6994C89.2657 49.3006 88.9404 48.7758 88.9404 48.1252C88.9404 47.5584 89.1083 47.0967 89.4441 46.7398C89.78 46.404 90.2207 46.2361 90.7665 46.2361C91.1653 46.2361 91.5536 46.3201 91.9314 46.488C91.5536 46.8658 91.3647 47.38 91.3647 48.0307C91.3647 48.4925 91.5011 48.8703 91.774 49.1642C92.0678 49.458 92.4352 49.6049 92.8759 49.6049C94.3452 49.6049 95.0798 48.4085 95.0798 46.0157V42.0172C94.807 42.8148 94.3242 43.476 93.6316 44.0007C92.9599 44.5044 92.2358 44.7563 91.4591 44.7563C90.5356 44.7563 89.8534 44.473 89.4126 43.9062C88.9719 43.3395 88.7515 42.4789 88.7515 41.3245V36.6333C88.7515 36.3395 88.615 36.1925 88.3422 36.1925H87.3661L87.2717 35.8462C87.6705 35.4894 88.1952 35.1955 88.8459 34.9646C89.4966 34.7338 90.1158 34.6183 90.7035 34.6183C90.9764 34.6183 91.1863 34.6813 91.3332 34.8072C91.5011 34.9332 91.5851 35.1011 91.5851 35.311V41.6708C91.5851 42.8463 91.9524 43.434 92.687 43.434C93.4007 43.434 93.9779 43.0037 94.4187 42.1431C94.8595 41.2825 95.0798 40.1386 95.0798 38.7113C95.0798 37.9557 95.0169 37.3365 94.8909 36.8537C94.765 36.371 94.5656 35.9512 94.2927 35.5943L94.0409 35.248L94.2613 34.9646L97.882 34.6813ZM100.377 40.0022C100.377 38.344 100.849 37.0321 101.794 36.0666C102.759 35.1011 104.061 34.6183 105.698 34.6183C107.335 34.6183 108.637 35.1116 109.602 36.0981C110.568 37.0636 111.05 38.365 111.05 40.0022C111.05 41.6394 110.568 42.9407 109.602 43.9062C108.637 44.8718 107.335 45.3545 105.698 45.3545C104.061 45.3545 102.759 44.8718 101.794 43.9062C100.849 42.9407 100.377 41.6394 100.377 40.0022ZM107.87 40.0651C107.87 38.6588 107.671 37.5149 107.272 36.6333C106.873 35.7308 106.37 35.2795 105.761 35.2795C105.089 35.2795 104.544 35.7203 104.124 36.6018C103.704 37.4624 103.494 38.5959 103.494 40.0022C103.494 41.4295 103.683 42.5629 104.061 43.4025C104.46 44.2421 104.984 44.6619 105.635 44.6619C106.286 44.6619 106.821 44.2421 107.241 43.4025C107.661 42.5419 107.87 41.4295 107.87 40.0651ZM120.205 42.2061C119.911 43.1296 119.397 43.8853 118.662 44.473C117.949 45.0607 117.182 45.3545 116.364 45.3545C115.44 45.3545 114.758 45.0607 114.317 44.473C113.877 43.8853 113.656 42.9827 113.656 41.7653V36.6333C113.656 36.3395 113.52 36.1925 113.247 36.1925H112.271L112.176 35.8462C112.596 35.4894 113.121 35.1955 113.751 34.9646C114.38 34.7338 115 34.6183 115.608 34.6183C115.881 34.6183 116.091 34.6813 116.238 34.8072C116.406 34.9332 116.49 35.1011 116.49 35.311V41.6079C116.49 42.3215 116.595 42.8777 116.805 43.2766C117.015 43.6544 117.308 43.8433 117.686 43.8433C118.463 43.8433 119.082 43.371 119.544 42.4265C120.027 41.4609 120.268 40.2121 120.268 38.6798C120.268 37.8612 120.205 37.2315 120.079 36.7907C119.974 36.329 119.775 35.9302 119.481 35.5943L119.197 35.248L119.449 34.9646L123.07 34.6813V43.2766C123.07 43.9062 123.259 44.2211 123.637 44.2211C124.036 44.2211 124.424 44.0637 124.802 43.7488L125.054 44.0637C124.319 44.9242 123.406 45.3545 122.314 45.3545C121.517 45.3545 120.961 45.1236 120.646 44.6619C120.352 44.2001 120.205 43.3815 120.205 42.2061ZM132.853 34.6183C133.524 34.6183 134.07 34.8177 134.49 35.2165C134.91 35.5943 135.12 36.0876 135.12 36.6963C135.12 37.263 134.952 37.7248 134.616 38.0816C134.28 38.4174 133.839 38.5854 133.293 38.5854C132.874 38.5854 132.485 38.5014 132.128 38.3335C132.506 38.0186 132.695 37.5464 132.695 36.9167C132.695 36.6228 132.632 36.3919 132.506 36.224C132.38 36.0561 132.212 35.9721 132.003 35.9721C131.499 35.9721 131.079 36.4864 130.743 37.5149C130.407 38.5224 130.239 39.7818 130.239 41.293C130.239 42.0696 130.281 42.6888 130.365 43.1506C130.47 43.6124 130.638 44.0427 130.869 44.4415L131.121 44.7563L130.869 45.0712H126.304L126.115 44.5359L126.556 44.4415C126.892 44.3575 127.112 44.2316 127.217 44.0637C127.322 43.8748 127.374 43.5179 127.374 42.9932V36.8537C127.374 36.4549 127.238 36.2555 126.965 36.2555H125.989L125.863 35.9092C126.262 35.5524 126.755 35.2585 127.343 35.0276C127.952 34.7967 128.55 34.6813 129.137 34.6813C129.41 34.6813 129.631 34.7443 129.799 34.8702C129.967 34.9961 130.051 35.164 130.051 35.3739V37.6723H130.145C130.586 35.6363 131.488 34.6183 132.853 34.6183ZM220.093 45.3545C219.086 45.3545 218.299 45.0292 217.732 44.3785C217.186 43.7068 216.809 42.6364 216.599 41.1671L215.938 36.6333C215.917 36.4654 215.875 36.35 215.812 36.287C215.749 36.224 215.654 36.1925 215.528 36.1925H214.678L214.584 35.8462C215.003 35.4684 215.507 35.1745 216.095 34.9646C216.683 34.7338 217.26 34.6183 217.827 34.6183C218.141 34.6183 218.362 34.7128 218.488 34.9017C218.635 35.0906 218.75 35.4579 218.834 36.0036L219.653 41.6708C219.8 42.6993 219.968 43.4025 220.156 43.7803C220.345 44.1581 220.629 44.347 221.007 44.347C221.594 44.347 222.056 43.9902 222.392 43.2766C222.749 42.5419 222.927 41.5764 222.927 40.38C222.927 39.1626 222.77 37.9137 222.455 36.6333C222.413 36.4654 222.371 36.35 222.329 36.287C222.287 36.224 222.192 36.1925 222.046 36.1925H221.227L221.132 35.8462C221.531 35.4684 222.025 35.1745 222.612 34.9646C223.2 34.7338 223.788 34.6183 224.375 34.6183C224.669 34.6183 224.89 34.7233 225.037 34.9332C225.183 35.1221 225.288 35.4789 225.351 36.0036L226.138 41.5134C226.306 42.6469 226.485 43.4025 226.674 43.7803C226.884 44.1581 227.135 44.347 227.429 44.347C227.996 44.347 228.447 43.9272 228.783 43.0876C229.14 42.2271 229.318 41.1146 229.318 39.7503C229.318 38.8267 229.224 38.0291 229.035 37.3575C228.867 36.6648 228.584 36.0561 228.185 35.5314L227.933 35.185L228.153 34.9332L230.798 34.6183C230.861 35.4369 230.893 36.1611 230.893 36.7907C230.893 39.4774 230.504 41.5764 229.728 43.0876C228.972 44.5989 227.881 45.3545 226.453 45.3545C225.593 45.3545 224.942 45.1341 224.501 44.6934C224.061 44.2526 223.693 43.4445 223.399 42.269C222.98 44.326 221.878 45.3545 220.093 45.3545ZM243.57 43.2766C243.57 43.9062 243.769 44.2211 244.168 44.2211C244.567 44.2211 244.955 44.0637 245.333 43.7488L245.585 44.0637C244.808 44.9242 243.895 45.3545 242.845 45.3545C242.09 45.3545 241.544 45.1656 241.208 44.7878C240.893 44.389 240.736 43.7488 240.736 42.8673V38.0501C240.736 36.8327 240.348 36.224 239.571 36.224C238.815 36.224 238.207 36.7383 237.745 37.7668C237.283 38.7953 237.052 40.1386 237.052 41.7968C237.052 42.4475 237.094 42.9722 237.178 43.371C237.283 43.7488 237.451 44.1056 237.682 44.4415L237.934 44.7563L237.682 45.0712H233.117L232.928 44.5359L233.369 44.4415C233.704 44.3575 233.925 44.2316 234.03 44.0637C234.135 43.8748 234.187 43.5179 234.187 42.9932V31.7532C234.187 31.5853 234.145 31.4489 234.061 31.3439C233.998 31.239 233.904 31.1865 233.778 31.1865H232.802L232.676 30.8717C233.075 30.4938 233.589 30.2 234.219 29.9901C234.869 29.7592 235.51 29.6438 236.139 29.6438C236.412 29.6438 236.632 29.7067 236.8 29.8327C236.968 29.9376 237.052 30.095 237.052 30.3049V38.0816C237.346 37.0951 237.86 36.2765 238.595 35.6258C239.351 34.9541 240.148 34.6183 240.988 34.6183C241.89 34.6183 242.541 34.9122 242.94 35.4999C243.36 36.0876 243.57 37.0216 243.57 38.302V43.2766ZM252.529 44.3155C253.138 44.3155 253.673 44.2106 254.135 44.0007C254.597 43.7698 255.048 43.392 255.489 42.8673L255.866 43.1506C255.384 43.8433 254.765 44.389 254.009 44.7878C253.274 45.1656 252.466 45.3545 251.585 45.3545C250.619 45.3545 249.748 45.1236 248.971 44.6619C248.216 44.2001 247.618 43.5704 247.177 42.7728C246.736 41.9542 246.516 41.0307 246.516 40.0022C246.516 38.365 247.009 37.0636 247.995 36.0981C249.003 35.1116 250.336 34.6183 251.994 34.6183C253.169 34.6183 254.124 34.9017 254.859 35.4684C255.615 36.0141 255.992 36.7278 255.992 37.6093C255.992 38.6168 255.562 39.4249 254.702 40.0336C253.862 40.6214 252.708 40.9152 251.238 40.9152C250.651 40.9152 250.115 40.8732 249.633 40.7893C249.738 41.8807 250.052 42.7413 250.577 43.371C251.102 44.0007 251.753 44.3155 252.529 44.3155ZM251.648 35.3739C250.997 35.3739 250.483 35.7727 250.105 36.5704C249.748 37.347 249.57 38.4384 249.57 39.8447V40.3485C249.8 40.3485 250.084 40.3275 250.42 40.2855C251.301 40.1806 251.973 39.8972 252.435 39.4354C252.917 38.9527 253.159 38.323 253.159 37.5464C253.159 36.9167 253.012 36.4024 252.718 36.0036C252.445 35.5838 252.088 35.3739 251.648 35.3739ZM268.326 43.2766C268.326 43.9062 268.525 44.2211 268.924 44.2211C269.323 44.2211 269.711 44.0637 270.089 43.7488L270.341 44.0637C269.564 44.9242 268.651 45.3545 267.602 45.3545C266.846 45.3545 266.3 45.1656 265.964 44.7878C265.65 44.389 265.492 43.7488 265.492 42.8673V38.0501C265.492 36.8327 265.104 36.224 264.327 36.224C263.572 36.224 262.952 36.7383 262.47 37.7668C262.008 38.7953 261.777 40.1386 261.777 41.7968C261.777 42.4265 261.829 42.9407 261.934 43.3395C262.039 43.7173 262.207 44.0847 262.438 44.4415L262.69 44.7563L262.438 45.0712H257.873L257.684 44.5359L258.125 44.4415C258.461 44.3575 258.681 44.2316 258.786 44.0637C258.891 43.8748 258.943 43.5179 258.943 42.9932V36.8537C258.943 36.4549 258.807 36.2555 258.534 36.2555H257.527L257.432 35.9092C257.852 35.5524 258.377 35.2585 259.006 35.0276C259.636 34.7967 260.266 34.6813 260.895 34.6813C261.168 34.6813 261.378 34.7443 261.525 34.8702C261.693 34.9961 261.777 35.164 261.777 35.3739V38.0816C262.071 37.0951 262.596 36.2765 263.351 35.6258C264.107 34.9541 264.904 34.6183 265.744 34.6183C266.647 34.6183 267.297 34.9122 267.696 35.4999C268.116 36.0876 268.326 37.0216 268.326 38.302V43.2766ZM286.85 34.6813V45.0712C286.85 46.7294 286.368 48.0097 285.402 48.9123C284.458 49.8358 283.135 50.2976 281.435 50.2976C280.386 50.2976 279.536 50.0982 278.885 49.6994C278.234 49.3006 277.909 48.7758 277.909 48.1252C277.909 47.5584 278.077 47.0967 278.413 46.7398C278.748 46.404 279.189 46.2361 279.735 46.2361C280.134 46.2361 280.522 46.3201 280.9 46.488C280.522 46.8658 280.333 47.38 280.333 48.0307C280.333 48.4925 280.47 48.8703 280.742 49.1642C281.036 49.458 281.404 49.6049 281.844 49.6049C283.314 49.6049 284.048 48.4085 284.048 46.0157V42.0172C283.775 42.8148 283.293 43.476 282.6 44.0007C281.928 44.5044 281.204 44.7563 280.428 44.7563C279.504 44.7563 278.822 44.473 278.381 43.9062C277.94 43.3395 277.72 42.4789 277.72 41.3245V36.6333C277.72 36.3395 277.584 36.1925 277.311 36.1925H276.335L276.24 35.8462C276.639 35.4894 277.164 35.1955 277.814 34.9646C278.465 34.7338 279.084 34.6183 279.672 34.6183C279.945 34.6183 280.155 34.6813 280.302 34.8072C280.47 34.9332 280.554 35.1011 280.554 35.311V41.6708C280.554 42.8463 280.921 43.434 281.656 43.434C282.369 43.434 282.946 43.0037 283.387 42.1431C283.828 41.2825 284.048 40.1386 284.048 38.7113C284.048 37.9557 283.985 37.3365 283.859 36.8537C283.733 36.371 283.534 35.9512 283.261 35.5943L283.009 35.248L283.23 34.9646L286.85 34.6813ZM289.346 40.0022C289.346 38.344 289.818 37.0321 290.762 36.0666C291.728 35.1011 293.029 34.6183 294.666 34.6183C296.304 34.6183 297.605 35.1116 298.571 36.0981C299.536 37.0636 300.019 38.365 300.019 40.0022C300.019 41.6394 299.536 42.9407 298.571 43.9062C297.605 44.8718 296.304 45.3545 294.666 45.3545C293.029 45.3545 291.728 44.8718 290.762 43.9062C289.818 42.9407 289.346 41.6394 289.346 40.0022ZM296.839 40.0651C296.839 38.6588 296.64 37.5149 296.241 36.6333C295.842 35.7308 295.338 35.2795 294.729 35.2795C294.058 35.2795 293.512 35.7203 293.092 36.6018C292.672 37.4624 292.463 38.5959 292.463 40.0022C292.463 41.4295 292.651 42.5629 293.029 43.4025C293.428 44.2421 293.953 44.6619 294.604 44.6619C295.254 44.6619 295.789 44.2421 296.209 43.4025C296.629 42.5419 296.839 41.4295 296.839 40.0651ZM309.173 42.2061C308.88 43.1296 308.365 43.8853 307.631 44.473C306.917 45.0607 306.151 45.3545 305.332 45.3545C304.409 45.3545 303.727 45.0607 303.286 44.473C302.845 43.8853 302.625 42.9827 302.625 41.7653V36.6333C302.625 36.3395 302.488 36.1925 302.215 36.1925H301.239L301.145 35.8462C301.565 35.4894 302.089 35.1955 302.719 34.9646C303.349 34.7338 303.968 34.6183 304.577 34.6183C304.85 34.6183 305.059 34.6813 305.206 34.8072C305.374 34.9332 305.458 35.1011 305.458 35.311V41.6079C305.458 42.3215 305.563 42.8777 305.773 43.2766C305.983 43.6544 306.277 43.8433 306.655 43.8433C307.431 43.8433 308.05 43.371 308.512 42.4265C308.995 41.4609 309.236 40.2121 309.236 38.6798C309.236 37.8612 309.173 37.2315 309.048 36.7907C308.943 36.329 308.743 35.9302 308.449 35.5943L308.166 35.248L308.418 34.9646L312.039 34.6813V43.2766C312.039 43.9062 312.227 44.2211 312.605 44.2211C313.004 44.2211 313.392 44.0637 313.77 43.7488L314.022 44.0637C313.287 44.9242 312.374 45.3545 311.283 45.3545C310.485 45.3545 309.929 45.1236 309.614 44.6619C309.32 44.2001 309.173 43.3815 309.173 42.2061ZM66.0445 73.347C66.7162 73.347 67.2409 72.9167 67.6187 72.0562C68.0175 71.1746 68.2169 70.0726 68.2169 68.7503C68.2169 66.9662 67.8391 65.5599 67.0835 64.5314L66.8001 64.185L67.052 63.9332L69.6967 63.6183C69.7597 64.5209 69.7912 65.245 69.7912 65.7907C69.7912 68.4774 69.3819 70.5764 68.5633 72.0876C67.7447 73.5989 66.6427 74.3545 65.2574 74.3545C64.1659 74.3545 63.3368 74.0292 62.7701 73.3785C62.2244 72.7278 61.8361 71.6574 61.6052 70.1671L60.944 65.6333C60.923 65.4654 60.881 65.35 60.8181 65.287C60.7551 65.224 60.6607 65.1925 60.5347 65.1925H59.6846L59.5902 64.8462C60.01 64.4684 60.5137 64.1745 61.1014 63.9646C61.6891 63.7338 62.2664 63.6183 62.8331 63.6183C63.1479 63.6183 63.3683 63.7128 63.4943 63.9017C63.6412 64.0906 63.7566 64.4684 63.8406 65.0351L64.6592 70.6708C64.8061 71.6993 64.974 72.4025 65.1629 72.7803C65.3518 73.1581 65.6457 73.347 66.0445 73.347ZM75.7498 72.2766C75.7498 72.9062 75.9492 73.2211 76.3481 73.2211C76.7469 73.2211 77.1352 73.0637 77.513 72.7488L77.7649 73.0637C76.9882 73.9242 76.0752 74.3545 75.0257 74.3545C74.2701 74.3545 73.7243 74.1656 73.3885 73.7878C73.0527 73.389 72.8848 72.7488 72.8848 71.8673V65.6333C72.8848 65.3395 72.7483 65.1925 72.4755 65.1925H71.4994L71.405 64.8462C71.8248 64.4894 72.3495 64.1955 72.9792 63.9646C73.6089 63.7338 74.2386 63.6183 74.8683 63.6183C75.1202 63.6183 75.3301 63.6813 75.498 63.8072C75.6659 63.9332 75.7498 64.1011 75.7498 64.311V72.2766ZM72.5699 60.5958C72.5699 60.218 72.7798 59.7982 73.1996 59.3364C73.6194 58.8747 74.0077 58.6438 74.3645 58.6438C74.7423 58.6438 75.1411 58.8747 75.5609 59.3364C76.0017 59.7982 76.2221 60.218 76.2221 60.5958C76.2221 60.9946 76.0017 61.4249 75.5609 61.8867C75.1411 62.3274 74.7423 62.5478 74.3645 62.5478C74.0077 62.5478 73.6194 62.3274 73.1996 61.8867C72.7798 61.4249 72.5699 60.9946 72.5699 60.5958ZM81.5718 65.7593C81.5718 66.284 81.7712 66.7143 82.17 67.0501C82.5898 67.365 83.2195 67.7218 84.059 68.1206C84.7517 68.4564 85.2869 68.7503 85.6648 69.0022C86.0426 69.233 86.3679 69.5479 86.6408 69.9467C86.9346 70.3455 87.0816 70.8178 87.0816 71.3635C87.0816 72.2661 86.6513 72.9902 85.7907 73.5359C84.9511 74.0817 83.8177 74.3545 82.3904 74.3545C81.3199 74.3545 80.4383 74.1656 79.7457 73.7878C79.053 73.389 78.7067 72.8748 78.7067 72.2451C78.7067 71.8253 78.8641 71.4789 79.1789 71.2061C79.4938 70.9122 79.8821 70.7653 80.3439 70.7653C80.7007 70.7653 81.0575 70.8388 81.4143 70.9857C81.0575 71.2586 80.8791 71.6993 80.8791 72.308C80.8791 72.7278 81.026 73.0532 81.3199 73.2841C81.6137 73.5149 81.9706 73.6304 82.3904 73.6304C82.8731 73.6304 83.2824 73.5044 83.6183 73.2526C83.9751 73.0007 84.1535 72.6439 84.1535 72.1821C84.1535 71.7413 83.9751 71.395 83.6183 71.1431C83.2824 70.8702 82.7472 70.5554 82.0126 70.1986C81.3409 69.8837 80.7952 69.6004 80.3754 69.3485C79.9766 69.0756 79.6302 68.7188 79.3364 68.278C79.0425 67.8372 78.8956 67.302 78.8956 66.6723C78.8956 65.7278 79.2944 64.9826 80.092 64.4369C80.8896 63.8912 81.8971 63.6183 83.1145 63.6183C84.185 63.6183 85.0561 63.8177 85.7277 64.2165C86.4204 64.6153 86.7667 65.1296 86.7667 65.7593C86.7667 66.242 86.6198 66.5988 86.3259 66.8297C86.0321 67.0606 85.6543 67.1761 85.1925 67.1761C84.7517 67.1761 84.3634 67.0816 84.0276 66.8927C84.4054 66.5359 84.5943 66.0846 84.5943 65.5389C84.5943 65.182 84.4578 64.8987 84.185 64.6888C83.9121 64.4579 83.5553 64.3425 83.1145 64.3425C82.6317 64.3425 82.2539 64.4789 81.9811 64.7518C81.7082 65.0246 81.5718 65.3605 81.5718 65.7593ZM92.722 72.2766C92.722 72.9062 92.9214 73.2211 93.3202 73.2211C93.719 73.2211 94.1073 73.0637 94.4851 72.7488L94.737 73.0637C93.9603 73.9242 93.0473 74.3545 91.9978 74.3545C91.2422 74.3545 90.6964 74.1656 90.3606 73.7878C90.0248 73.389 89.8569 72.7488 89.8569 71.8673V65.6333C89.8569 65.3395 89.7204 65.1925 89.4476 65.1925H88.4715L88.3771 64.8462C88.7969 64.4894 89.3216 64.1955 89.9513 63.9646C90.581 63.7338 91.2107 63.6183 91.8404 63.6183C92.0923 63.6183 92.3022 63.6813 92.4701 63.8072C92.638 63.9332 92.722 64.1011 92.722 64.311V72.2766ZM89.542 60.5958C89.542 60.218 89.7519 59.7982 90.1717 59.3364C90.5915 58.8747 90.9798 58.6438 91.3366 58.6438C91.7144 58.6438 92.1133 58.8747 92.533 59.3364C92.9738 59.7982 93.1942 60.218 93.1942 60.5958C93.1942 60.9946 92.9738 61.4249 92.533 61.8867C92.1133 62.3274 91.7144 62.5478 91.3366 62.5478C90.9798 62.5478 90.5915 62.3274 90.1717 61.8867C89.7519 61.4249 89.542 60.9946 89.542 60.5958ZM98.9217 74.3545C98.0611 74.3545 97.4419 74.1656 97.0641 73.7878C96.6863 73.389 96.4974 72.7488 96.4974 71.8673V65.1925H94.9232C94.9232 64.8357 94.9442 64.6048 94.9861 64.4999C95.0281 64.3949 95.1541 64.311 95.3639 64.248C96.0566 64.0591 96.6023 63.7652 97.0011 63.3664C97.3999 62.9676 97.7253 62.3904 97.9772 61.6348C98.0401 61.4039 98.1451 61.2675 98.292 61.2255C98.4389 61.1625 98.7958 61.131 99.3625 61.131V63.9646H101.944C101.944 64.2375 101.902 64.4894 101.818 64.7203C101.734 64.9302 101.619 65.0876 101.472 65.1925H99.3625V72.2766C99.3625 72.9062 99.6249 73.2211 100.15 73.2211C100.38 73.2211 100.632 73.1476 100.905 73.0007C101.199 72.8538 101.461 72.6544 101.692 72.4025L101.944 72.7173C101.042 73.8088 100.034 74.3545 98.9217 74.3545ZM108.187 69.0022C108.187 67.344 108.659 66.0321 109.604 65.0666C110.569 64.1011 111.87 63.6183 113.508 63.6183C115.145 63.6183 116.446 64.1116 117.412 65.0981C118.377 66.0636 118.86 67.365 118.86 69.0022C118.86 70.6394 118.377 71.9407 117.412 72.9062C116.446 73.8718 115.145 74.3545 113.508 74.3545C111.87 74.3545 110.569 73.8718 109.604 72.9062C108.659 71.9407 108.187 70.6394 108.187 69.0022ZM115.68 69.0651C115.68 67.6588 115.481 66.5149 115.082 65.6333C114.683 64.7308 114.179 64.2795 113.571 64.2795C112.899 64.2795 112.353 64.7203 111.933 65.6018C111.514 66.4624 111.304 67.5959 111.304 69.0022C111.304 70.4295 111.493 71.5629 111.87 72.4025C112.269 73.2421 112.794 73.6619 113.445 73.6619C114.095 73.6619 114.631 73.2421 115.05 72.4025C115.47 71.5419 115.68 70.4295 115.68 69.0651ZM128.015 71.2061C127.721 72.1296 127.206 72.8853 126.472 73.473C125.758 74.0607 124.992 74.3545 124.173 74.3545C123.25 74.3545 122.568 74.0607 122.127 73.473C121.686 72.8853 121.466 71.9827 121.466 70.7653V65.6333C121.466 65.3395 121.329 65.1925 121.057 65.1925H120.081L119.986 64.8462C120.406 64.4894 120.931 64.1955 121.56 63.9646C122.19 63.7338 122.809 63.6183 123.418 63.6183C123.691 63.6183 123.901 63.6813 124.048 63.8072C124.215 63.9332 124.299 64.1011 124.299 64.311V70.6079C124.299 71.3215 124.404 71.8777 124.614 72.2766C124.824 72.6544 125.118 72.8433 125.496 72.8433C126.272 72.8433 126.892 72.371 127.353 71.4265C127.836 70.4609 128.078 69.2121 128.078 67.6798C128.078 66.8612 128.015 66.2315 127.889 65.7907C127.784 65.329 127.584 64.9302 127.29 64.5943L127.007 64.248L127.259 63.9646L130.88 63.6813V72.2766C130.88 72.9062 131.069 73.2211 131.446 73.2211C131.845 73.2211 132.234 73.0637 132.611 72.7488L132.863 73.0637C132.129 73.9242 131.216 74.3545 130.124 74.3545C129.326 74.3545 128.77 74.1236 128.455 73.6619C128.162 73.2001 128.015 72.3815 128.015 71.2061ZM140.662 63.6183C141.334 63.6183 141.88 63.8177 142.299 64.2165C142.719 64.5943 142.929 65.0876 142.929 65.6963C142.929 66.263 142.761 66.7248 142.425 67.0816C142.09 67.4174 141.649 67.5854 141.103 67.5854C140.683 67.5854 140.295 67.5014 139.938 67.3335C140.316 67.0186 140.505 66.5464 140.505 65.9167C140.505 65.6228 140.442 65.3919 140.316 65.224C140.19 65.0561 140.022 64.9721 139.812 64.9721C139.308 64.9721 138.889 65.4864 138.553 66.5149C138.217 67.5224 138.049 68.7818 138.049 70.293C138.049 71.0696 138.091 71.6888 138.175 72.1506C138.28 72.6124 138.448 73.0427 138.679 73.4415L138.931 73.7563L138.679 74.0712H134.113L133.925 73.5359L134.365 73.4415C134.701 73.3575 134.922 73.2316 135.027 73.0637C135.131 72.8748 135.184 72.5179 135.184 71.9932V65.8537C135.184 65.4549 135.048 65.2555 134.775 65.2555H133.799L133.673 64.9092C134.072 64.5524 134.565 64.2585 135.152 64.0276C135.761 63.7967 136.359 63.6813 136.947 63.6813C137.22 63.6813 137.44 63.7443 137.608 63.8702C137.776 63.9961 137.86 64.164 137.86 64.3739V66.6723H137.955C138.395 64.6363 139.298 63.6183 140.662 63.6183ZM158.368 66.3889C158.368 67.0816 158.158 67.6273 157.738 68.0261C157.318 68.4249 156.804 68.6243 156.195 68.6243C155.712 68.6243 155.272 68.4984 154.873 68.2465C155.335 67.8267 155.565 67.239 155.565 66.4834C155.565 65.8747 155.44 65.3814 155.188 65.0036C154.936 64.6048 154.568 64.4054 154.086 64.4054C153.54 64.4054 153.089 64.8357 152.732 65.6963C152.396 66.5359 152.228 67.6378 152.228 69.0022C152.228 70.3035 152.47 71.353 152.952 72.1506C153.456 72.9272 154.159 73.3155 155.062 73.3155C155.691 73.3155 156.227 73.2001 156.667 72.9692C157.129 72.7383 157.56 72.4025 157.958 71.9617L158.336 72.2136C157.895 72.8433 157.318 73.3575 156.604 73.7563C155.891 74.1551 155.062 74.3545 154.117 74.3545C152.648 74.3545 151.441 73.8613 150.496 72.8748C149.552 71.8882 149.08 70.6184 149.08 69.0651C149.08 67.4069 149.573 66.0846 150.559 65.0981C151.546 64.1116 152.858 63.6183 154.495 63.6183C155.649 63.6183 156.583 63.8807 157.297 64.4054C158.011 64.9092 158.368 65.5704 158.368 66.3889ZM159.657 69.0022C159.657 67.344 160.129 66.0321 161.073 65.0666C162.039 64.1011 163.34 63.6183 164.977 63.6183C166.615 63.6183 167.916 64.1116 168.881 65.0981C169.847 66.0636 170.33 67.365 170.33 69.0022C170.33 70.6394 169.847 71.9407 168.881 72.9062C167.916 73.8718 166.615 74.3545 164.977 74.3545C163.34 74.3545 162.039 73.8718 161.073 72.9062C160.129 71.9407 159.657 70.6394 159.657 69.0022ZM167.15 69.0651C167.15 67.6588 166.95 66.5149 166.552 65.6333C166.153 64.7308 165.649 64.2795 165.04 64.2795C164.369 64.2795 163.823 64.7203 163.403 65.6018C162.983 66.4624 162.773 67.5959 162.773 69.0022C162.773 70.4295 162.962 71.5629 163.34 72.4025C163.739 73.2421 164.264 73.6619 164.914 73.6619C165.565 73.6619 166.1 73.2421 166.52 72.4025C166.94 71.5419 167.15 70.4295 167.15 69.0651ZM181.059 66.3889C181.059 67.0816 180.849 67.6273 180.429 68.0261C180.009 68.4249 179.495 68.6243 178.886 68.6243C178.403 68.6243 177.963 68.4984 177.564 68.2465C178.026 67.8267 178.256 67.239 178.256 66.4834C178.256 65.8747 178.131 65.3814 177.879 65.0036C177.627 64.6048 177.259 64.4054 176.777 64.4054C176.231 64.4054 175.78 64.8357 175.423 65.6963C175.087 66.5359 174.919 67.6378 174.919 69.0022C174.919 70.3035 175.16 71.353 175.643 72.1506C176.147 72.9272 176.85 73.3155 177.753 73.3155C178.382 73.3155 178.918 73.2001 179.358 72.9692C179.82 72.7383 180.25 72.4025 180.649 71.9617L181.027 72.2136C180.586 72.8433 180.009 73.3575 179.295 73.7563C178.582 74.1551 177.753 74.3545 176.808 74.3545C175.339 74.3545 174.132 73.8613 173.187 72.8748C172.243 71.8882 171.771 70.6184 171.771 69.0651C171.771 67.4069 172.264 66.0846 173.25 65.0981C174.237 64.1116 175.549 63.6183 177.186 63.6183C178.34 63.6183 179.274 63.8807 179.988 64.4054C180.702 64.9092 181.059 65.5704 181.059 66.3889ZM194.06 73.1266C193.325 73.9452 192.412 74.3545 191.321 74.3545C190.649 74.3545 190.114 74.2076 189.715 73.9137C189.337 73.6199 189.043 73.1266 188.833 72.434L187.857 69.6633C187.731 69.3065 187.563 69.0336 187.354 68.8447C187.165 68.6558 186.902 68.5194 186.566 68.4354V70.7968C186.566 71.4475 186.608 71.9617 186.692 72.3395C186.797 72.7173 186.965 73.0847 187.196 73.4415L187.448 73.7563L187.196 74.0712H182.631L182.442 73.5359L182.883 73.4415C183.219 73.3575 183.439 73.2316 183.544 73.0637C183.649 72.8748 183.701 72.5179 183.701 71.9932V60.6273C183.701 60.3334 183.565 60.1865 183.292 60.1865H182.316L182.19 59.8717C182.589 59.4938 183.103 59.2 183.733 58.9901C184.383 58.7592 185.024 58.6438 185.653 58.6438C185.926 58.6438 186.147 58.7067 186.315 58.8327C186.482 58.9376 186.566 59.095 186.566 59.3049V67.8372L188.455 66.4519C188.896 66.1371 189.201 65.8852 189.369 65.6963C189.536 65.5074 189.62 65.308 189.62 65.0981C189.62 64.8042 189.494 64.5524 189.243 64.3425L188.991 64.1536L189.243 63.8387H193.052L193.241 64.3739C192.716 64.4999 192.129 64.7937 191.478 65.2555L187.763 67.9632C188.686 68.0681 189.4 68.2885 189.904 68.6243C190.408 68.9602 190.775 69.4429 191.006 70.0726L191.887 72.5914C192.034 73.0532 192.328 73.2841 192.769 73.2841C193.084 73.2841 193.43 73.1266 193.808 72.8118L194.06 73.1266ZM197.864 74.3545C197.004 74.3545 196.384 74.1656 196.007 73.7878C195.629 73.389 195.44 72.7488 195.44 71.8673V65.1925H193.866C193.866 64.8357 193.887 64.6048 193.929 64.4999C193.971 64.3949 194.097 64.311 194.306 64.248C194.999 64.0591 195.545 63.7652 195.944 63.3664C196.342 62.9676 196.668 62.3904 196.92 61.6348C196.983 61.4039 197.088 61.2675 197.234 61.2255C197.381 61.1625 197.738 61.131 198.305 61.131V63.9646H200.887C200.887 64.2375 200.845 64.4894 200.761 64.7203C200.677 64.9302 200.561 65.0876 200.414 65.1925H198.305V72.2766C198.305 72.9062 198.567 73.2211 199.092 73.2211C199.323 73.2211 199.575 73.1476 199.848 73.0007C200.142 72.8538 200.404 72.6544 200.635 72.4025L200.887 72.7173C199.984 73.8088 198.977 74.3545 197.864 74.3545ZM205.462 67.1131C205.021 67.365 204.496 67.4909 203.887 67.4909C203.447 67.4909 203.1 67.365 202.848 67.1131C202.596 66.8402 202.471 66.4624 202.471 65.9797C202.471 65.266 202.817 64.6993 203.509 64.2795C204.223 63.8387 205.147 63.6183 206.28 63.6183C207.623 63.6183 208.673 63.9122 209.429 64.4999C210.205 65.0876 210.594 65.8852 210.594 66.8927V72.3395C210.594 72.9272 210.803 73.2211 211.223 73.2211C211.622 73.2211 212.01 73.0637 212.388 72.7488L212.64 73.0637C211.863 73.9242 210.94 74.3545 209.869 74.3545C209.24 74.3545 208.757 74.1971 208.421 73.8823C208.106 73.5674 207.917 73.0742 207.854 72.4025H207.728C207.393 73.0112 206.941 73.494 206.375 73.8508C205.829 74.1866 205.199 74.3545 204.486 74.3545C203.688 74.3545 203.048 74.1131 202.565 73.6304C202.082 73.1266 201.841 72.476 201.841 71.6783C201.841 70.7758 202.271 70.0621 203.132 69.5374C203.992 69.0127 205.157 68.7503 206.626 68.7503C206.899 68.7503 207.288 68.7713 207.791 68.8133V67.239C207.791 66.2105 207.665 65.4759 207.414 65.0351C207.162 64.5733 206.752 64.3425 206.186 64.3425C205.787 64.3425 205.472 64.4684 205.241 64.7203C205.01 64.9721 204.895 65.2975 204.895 65.6963C204.895 66.326 205.084 66.7982 205.462 67.1131ZM205.934 72.7803C207.172 72.7803 207.791 71.6574 207.791 69.4115C206.742 69.4115 205.955 69.5899 205.43 69.9467C204.905 70.2825 204.643 70.7653 204.643 71.395C204.643 71.8148 204.758 72.1506 204.989 72.4025C205.22 72.6544 205.535 72.7803 205.934 72.7803ZM217.307 72.2766C217.307 72.9062 217.506 73.2211 217.905 73.2211C218.304 73.2211 218.692 73.0637 219.07 72.7488L219.322 73.0637C218.545 73.9242 217.632 74.3545 216.583 74.3545C215.827 74.3545 215.282 74.1656 214.946 73.7878C214.61 73.389 214.442 72.7488 214.442 71.8673V65.6333C214.442 65.3395 214.306 65.1925 214.033 65.1925H213.057L212.962 64.8462C213.382 64.4894 213.907 64.1955 214.536 63.9646C215.166 63.7338 215.796 63.6183 216.426 63.6183C216.677 63.6183 216.887 63.6813 217.055 63.8072C217.223 63.9332 217.307 64.1011 217.307 64.311V72.2766ZM214.127 60.5958C214.127 60.218 214.337 59.7982 214.757 59.3364C215.177 58.8747 215.565 58.6438 215.922 58.6438C216.3 58.6438 216.698 58.8747 217.118 59.3364C217.559 59.7982 217.779 60.218 217.779 60.5958C217.779 60.9946 217.559 61.4249 217.118 61.8867C216.698 62.3274 216.3 62.5478 215.922 62.5478C215.565 62.5478 215.177 62.3274 214.757 61.8867C214.337 61.4249 214.127 60.9946 214.127 60.5958ZM223.759 72.2766C223.759 72.9062 223.958 73.2211 224.357 73.2211C224.756 73.2211 225.144 73.0637 225.522 72.7488L225.774 73.0637C225.039 73.9242 224.126 74.3545 223.035 74.3545C222.3 74.3545 221.765 74.1866 221.429 73.8508C221.093 73.494 220.925 72.9377 220.925 72.1821V60.6273C220.925 60.3334 220.789 60.1865 220.516 60.1865H219.508L219.414 59.8717C219.813 59.4938 220.327 59.2 220.957 58.9901C221.607 58.7592 222.247 58.6438 222.877 58.6438C223.15 58.6438 223.36 58.7067 223.507 58.8327C223.675 58.9376 223.759 59.095 223.759 59.3049V72.2766ZM238.243 63.6183C239.083 63.6183 239.838 63.8387 240.51 64.2795C241.203 64.6993 241.738 65.287 242.116 66.0426C242.514 66.7982 242.714 67.6483 242.714 68.5929C242.714 69.6843 242.451 70.6708 241.927 71.5524C241.423 72.413 240.72 73.0951 239.817 73.5989C238.915 74.1027 237.907 74.3545 236.795 74.3545C236.039 74.3545 235.284 74.2391 234.528 74.0082C233.772 73.7773 233.153 73.4625 232.67 73.0637V60.6273C232.67 60.4594 232.639 60.3439 232.576 60.281C232.513 60.218 232.408 60.1865 232.261 60.1865H231.285L231.191 59.8717C231.589 59.4938 232.104 59.2 232.733 58.9901C233.384 58.7592 234.024 58.6438 234.654 58.6438C234.927 58.6438 235.137 58.7067 235.284 58.8327C235.451 58.9376 235.535 59.095 235.535 59.3049V64.5943C235.85 64.2795 236.239 64.0381 236.7 63.8702C237.183 63.7023 237.697 63.6183 238.243 63.6183ZM236.952 73.6304C238.694 73.6304 239.565 72.1296 239.565 69.1281C239.565 67.6378 239.345 66.5044 238.904 65.7278C238.484 64.9302 237.855 64.5314 237.015 64.5314C236.49 64.5314 235.997 64.6888 235.535 65.0036V73.3155C235.997 73.5254 236.469 73.6304 236.952 73.6304ZM247.8 67.1131C247.359 67.365 246.834 67.4909 246.225 67.4909C245.785 67.4909 245.438 67.365 245.186 67.1131C244.934 66.8402 244.809 66.4624 244.809 65.9797C244.809 65.266 245.155 64.6993 245.848 64.2795C246.561 63.8387 247.485 63.6183 248.618 63.6183C249.962 63.6183 251.011 63.9122 251.767 64.4999C252.543 65.0876 252.932 65.8852 252.932 66.8927V72.3395C252.932 72.9272 253.141 73.2211 253.561 73.2211C253.96 73.2211 254.348 73.0637 254.726 72.7488L254.978 73.0637C254.201 73.9242 253.278 74.3545 252.207 74.3545C251.578 74.3545 251.095 74.1971 250.759 73.8823C250.444 73.5674 250.255 73.0742 250.192 72.4025H250.066C249.731 73.0112 249.279 73.494 248.713 73.8508C248.167 74.1866 247.537 74.3545 246.824 74.3545C246.026 74.3545 245.386 74.1131 244.903 73.6304C244.42 73.1266 244.179 72.476 244.179 71.6783C244.179 70.7758 244.609 70.0621 245.47 69.5374C246.33 69.0127 247.495 68.7503 248.964 68.7503C249.237 68.7503 249.626 68.7713 250.129 68.8133V67.239C250.129 66.2105 250.003 65.4759 249.752 65.0351C249.5 64.5733 249.09 64.3425 248.524 64.3425C248.125 64.3425 247.81 64.4684 247.579 64.7203C247.348 64.9721 247.233 65.2975 247.233 65.6963C247.233 66.326 247.422 66.7982 247.8 67.1131ZM248.272 72.7803C249.51 72.7803 250.129 71.6574 250.129 69.4115C249.08 69.4115 248.293 69.5899 247.768 69.9467C247.243 70.2825 246.981 70.7653 246.981 71.395C246.981 71.8148 247.096 72.1506 247.327 72.4025C247.558 72.6544 247.873 72.7803 248.272 72.7803ZM262.542 63.6183C263.213 63.6183 263.759 63.8177 264.179 64.2165C264.599 64.5943 264.809 65.0876 264.809 65.6963C264.809 66.263 264.641 66.7248 264.305 67.0816C263.969 67.4174 263.528 67.5854 262.982 67.5854C262.563 67.5854 262.174 67.5014 261.818 67.3335C262.195 67.0186 262.384 66.5464 262.384 65.9167C262.384 65.6228 262.321 65.3919 262.195 65.224C262.069 65.0561 261.902 64.9721 261.692 64.9721C261.188 64.9721 260.768 65.4864 260.432 66.5149C260.096 67.5224 259.928 68.7818 259.928 70.293C259.928 71.0696 259.97 71.6888 260.054 72.1506C260.159 72.6124 260.327 73.0427 260.558 73.4415L260.81 73.7563L260.558 74.0712H255.993L255.804 73.5359L256.245 73.4415C256.581 73.3575 256.801 73.2316 256.906 73.0637C257.011 72.8748 257.063 72.5179 257.063 71.9932V65.8537C257.063 65.4549 256.927 65.2555 256.654 65.2555H255.678L255.552 64.9092C255.951 64.5524 256.444 64.2585 257.032 64.0276C257.641 63.7967 258.239 63.6813 258.827 63.6813C259.099 63.6813 259.32 63.7443 259.488 63.8702C259.656 63.9961 259.74 64.164 259.74 64.3739V66.6723H259.834C260.275 64.6363 261.177 63.6183 262.542 63.6183Z" fill="white"/>
<path d="M142.839 26.8117V33.5394C143.92 32.6568 145.127 32.2155 146.46 32.2155C147.685 32.2155 148.838 32.5938 149.918 33.3503C150.495 33.7646 150.954 34.4131 151.296 35.2957C151.657 36.1783 151.837 37.2501 151.837 38.5109C151.837 40.9066 151.242 42.7079 150.054 43.9148C148.703 45.2837 146.991 45.9682 144.92 45.9682C144.145 45.9682 143.371 45.9052 142.596 45.7791C141.84 45.653 141.335 45.5089 141.083 45.3468V26.5955C141.047 26.4514 140.993 26.3794 140.921 26.3794L139.273 26.3254L139.3 25.9471C140.435 25.785 141.209 25.7039 141.624 25.7039C142.056 25.7039 142.362 25.821 142.542 26.0552C142.74 26.2893 142.839 26.5415 142.839 26.8117ZM142.839 34.0528V45.4819C143.326 45.644 143.893 45.725 144.542 45.725C146.307 45.725 147.667 45.1036 148.622 43.8607C149.594 42.6178 150.081 40.8796 150.081 38.646C150.081 36.1963 149.594 34.5482 148.622 33.7016C147.865 33.0351 146.991 32.7018 146.001 32.7018C145.01 32.7018 143.956 33.1522 142.839 34.0528ZM160.289 46.0763C158.415 46.0763 156.893 45.5359 155.722 44.4551C154.569 43.3744 153.993 41.7262 153.993 39.5106C153.993 37.2771 154.605 35.5298 155.83 34.269C157.073 32.9901 158.631 32.3506 160.505 32.3506C162.378 32.3506 163.9 32.891 165.071 33.9717C166.242 35.0525 166.827 36.7097 166.827 38.9432C166.827 41.1588 166.206 42.906 164.963 44.1849C163.738 45.4458 162.18 46.0763 160.289 46.0763ZM160.478 32.8369C159.127 32.8369 158.001 33.4224 157.1 34.5932C156.2 35.764 155.749 37.3581 155.749 39.3756C155.749 41.375 156.173 42.915 157.019 43.9958C157.884 45.0586 158.992 45.5899 160.343 45.5899C161.693 45.5899 162.819 45.0045 163.72 43.8337C164.621 42.6629 165.071 41.0778 165.071 39.0783C165.071 37.0789 164.639 35.5388 163.774 34.4581C162.927 33.3773 161.829 32.8369 160.478 32.8369ZM168.459 45.9952L168.486 45.617L169.891 45.4278C170.053 45.4098 170.134 45.2837 170.134 45.0496V33.3503C170.098 33.2062 170.044 33.1342 169.972 33.1342L168.324 33.0801L168.351 32.7018C169.486 32.5397 170.251 32.4587 170.647 32.4587C171.368 32.4587 171.773 32.7739 171.863 33.4043H171.89V33.9717C173.367 32.963 174.781 32.4317 176.132 32.3776C177.447 32.3776 178.447 32.6388 179.131 33.1612C179.438 33.3953 179.708 33.7646 179.942 34.269C180.194 34.7553 180.32 35.3407 180.32 36.0252V45.4278L182.347 45.5629C182.347 45.5809 182.338 45.716 182.32 45.9682L176.916 45.9952C176.916 45.8331 176.925 45.707 176.943 45.617L178.348 45.4278C178.492 45.4098 178.564 45.2837 178.564 45.0496V36.7007C178.564 35.9802 178.465 35.3677 178.267 34.8634C178.087 34.359 177.879 33.9898 177.645 33.7556C177.411 33.5214 177.123 33.3413 176.781 33.2152C176.384 33.0711 175.97 32.9991 175.538 32.9991C174.457 33.0171 173.241 33.4404 171.89 34.269V45.4278L173.917 45.5629C173.917 45.5809 173.908 45.716 173.89 45.9682L168.459 45.9952ZM184.03 32.891L184.003 32.4857L187.651 32.4587V41.8613C187.651 42.5638 187.75 43.1762 187.948 43.6986C188.146 44.203 188.362 44.5722 188.596 44.8064C188.849 45.0405 189.137 45.2207 189.461 45.3468C189.965 45.5269 190.389 45.5989 190.731 45.5629C191.83 45.5449 193.082 44.9775 194.487 43.8607V33.4043C194.415 33.1882 194.261 33.0621 194.027 33.0261L192.622 32.891C192.604 32.7829 192.595 32.6478 192.595 32.4857L196.243 32.4587V44.7253C196.279 45.1756 196.423 45.4008 196.675 45.4008L198.296 45.4819L198.269 45.8871C197.405 46.0312 196.504 46.1033 195.567 46.1033C195.351 46.0853 195.117 45.9682 194.865 45.752C194.613 45.5179 194.487 45.2297 194.487 44.8874V44.4011C192.847 45.4999 191.298 46.0493 189.839 46.0493C189.227 46.0493 188.506 45.8961 187.678 45.5899C187.137 45.3918 186.705 45.0225 186.381 44.4822C186.057 43.9238 185.895 43.2303 185.895 42.4017V33.4314C185.895 33.3413 185.84 33.2602 185.732 33.1882C185.642 33.0981 185.543 33.0441 185.435 33.0261L184.03 32.891ZM204.16 45.644C204.268 45.644 204.376 45.635 204.484 45.617C205.421 45.5989 206.204 45.3107 206.835 44.7523C207.465 44.1759 207.781 43.3383 207.781 42.2396C207.781 41.1588 206.934 40.3753 205.241 39.8889C204.538 39.6908 203.836 39.4746 203.133 39.2405C202.431 39.0063 201.827 38.637 201.323 38.1327C200.837 37.6283 200.594 36.9709 200.594 36.1603C200.594 35.0075 201.035 34.0888 201.917 33.4043C202.8 32.7018 203.917 32.3506 205.268 32.3506C206.277 32.3506 207.294 32.5307 208.321 32.891L208.807 33.0801V36.1873L208.294 36.3764L208.186 34.0798C207.141 33.2512 206.268 32.8369 205.565 32.8369C204.574 32.8369 203.791 33.1342 203.214 33.7286C202.638 34.305 202.35 35.0795 202.35 36.0522C202.35 36.6106 202.593 37.0609 203.079 37.4032C203.584 37.7454 204.187 38.0156 204.89 38.2137C205.592 38.4119 206.295 38.637 206.997 38.8892C207.7 39.1234 208.294 39.5197 208.78 40.078C209.285 40.6184 209.537 41.3299 209.537 42.2126C209.537 43.4014 209.087 44.3471 208.186 45.0496C207.303 45.734 206.042 46.0763 204.403 46.0763C202.764 46.0763 201.404 45.689 200.323 44.9145V41.8073L200.81 41.6181L200.945 43.9148C201.197 44.3831 201.647 44.7884 202.296 45.1306C202.962 45.4729 203.584 45.644 204.16 45.644Z" fill="white"/>
<path d="M142.839 26.8117V33.5394C143.92 32.6568 145.127 32.2155 146.46 32.2155C147.685 32.2155 148.838 32.5938 149.918 33.3503C150.495 33.7646 150.954 34.4131 151.296 35.2957C151.657 36.1783 151.837 37.2501 151.837 38.5109C151.837 40.9066 151.242 42.7079 150.054 43.9148C148.703 45.2837 146.991 45.9682 144.92 45.9682C144.145 45.9682 143.371 45.9052 142.596 45.7791C141.84 45.653 141.335 45.5089 141.083 45.3468V26.5955C141.047 26.4514 140.993 26.3794 140.921 26.3794L139.273 26.3254L139.3 25.9471C140.435 25.785 141.209 25.7039 141.624 25.7039C142.056 25.7039 142.362 25.821 142.542 26.0552C142.74 26.2893 142.839 26.5415 142.839 26.8117ZM142.839 34.0528V45.4819C143.326 45.644 143.893 45.725 144.542 45.725C146.307 45.725 147.667 45.1036 148.622 43.8607C149.594 42.6178 150.081 40.8796 150.081 38.646C150.081 36.1963 149.594 34.5482 148.622 33.7016C147.865 33.0351 146.991 32.7018 146.001 32.7018C145.01 32.7018 143.956 33.1522 142.839 34.0528ZM160.289 46.0763C158.415 46.0763 156.893 45.5359 155.722 44.4551C154.569 43.3744 153.993 41.7262 153.993 39.5106C153.993 37.2771 154.605 35.5298 155.83 34.269C157.073 32.9901 158.631 32.3506 160.505 32.3506C162.378 32.3506 163.9 32.891 165.071 33.9717C166.242 35.0525 166.827 36.7097 166.827 38.9432C166.827 41.1588 166.206 42.906 164.963 44.1849C163.738 45.4458 162.18 46.0763 160.289 46.0763ZM160.478 32.8369C159.127 32.8369 158.001 33.4224 157.1 34.5932C156.2 35.764 155.749 37.3581 155.749 39.3756C155.749 41.375 156.173 42.915 157.019 43.9958C157.884 45.0586 158.992 45.5899 160.343 45.5899C161.693 45.5899 162.819 45.0045 163.72 43.8337C164.621 42.6629 165.071 41.0778 165.071 39.0783C165.071 37.0789 164.639 35.5388 163.774 34.4581C162.927 33.3773 161.829 32.8369 160.478 32.8369ZM168.459 45.9952L168.486 45.617L169.891 45.4278C170.053 45.4098 170.134 45.2837 170.134 45.0496V33.3503C170.098 33.2062 170.044 33.1342 169.972 33.1342L168.324 33.0801L168.351 32.7018C169.486 32.5397 170.251 32.4587 170.647 32.4587C171.368 32.4587 171.773 32.7739 171.863 33.4043H171.89V33.9717C173.367 32.963 174.781 32.4317 176.132 32.3776C177.447 32.3776 178.447 32.6388 179.131 33.1612C179.438 33.3953 179.708 33.7646 179.942 34.269C180.194 34.7553 180.32 35.3407 180.32 36.0252V45.4278L182.347 45.5629C182.347 45.5809 182.338 45.716 182.32 45.9682L176.916 45.9952C176.916 45.8331 176.925 45.707 176.943 45.617L178.348 45.4278C178.492 45.4098 178.564 45.2837 178.564 45.0496V36.7007C178.564 35.9802 178.465 35.3677 178.267 34.8634C178.087 34.359 177.879 33.9898 177.645 33.7556C177.411 33.5214 177.123 33.3413 176.781 33.2152C176.384 33.0711 175.97 32.9991 175.538 32.9991C174.457 33.0171 173.241 33.4404 171.89 34.269V45.4278L173.917 45.5629C173.917 45.5809 173.908 45.716 173.89 45.9682L168.459 45.9952ZM184.03 32.891L184.003 32.4857L187.651 32.4587V41.8613C187.651 42.5638 187.75 43.1762 187.948 43.6986C188.146 44.203 188.362 44.5722 188.596 44.8064C188.849 45.0405 189.137 45.2207 189.461 45.3468C189.965 45.5269 190.389 45.5989 190.731 45.5629C191.83 45.5449 193.082 44.9775 194.487 43.8607V33.4043C194.415 33.1882 194.261 33.0621 194.027 33.0261L192.622 32.891C192.604 32.7829 192.595 32.6478 192.595 32.4857L196.243 32.4587V44.7253C196.279 45.1756 196.423 45.4008 196.675 45.4008L198.296 45.4819L198.269 45.8871C197.405 46.0312 196.504 46.1033 195.567 46.1033C195.351 46.0853 195.117 45.9682 194.865 45.752C194.613 45.5179 194.487 45.2297 194.487 44.8874V44.4011C192.847 45.4999 191.298 46.0493 189.839 46.0493C189.227 46.0493 188.506 45.8961 187.678 45.5899C187.137 45.3918 186.705 45.0225 186.381 44.4822C186.057 43.9238 185.895 43.2303 185.895 42.4017V33.4314C185.895 33.3413 185.84 33.2602 185.732 33.1882C185.642 33.0981 185.543 33.0441 185.435 33.0261L184.03 32.891ZM204.16 45.644C204.268 45.644 204.376 45.635 204.484 45.617C205.421 45.5989 206.204 45.3107 206.835 44.7523C207.465 44.1759 207.781 43.3383 207.781 42.2396C207.781 41.1588 206.934 40.3753 205.241 39.8889C204.538 39.6908 203.836 39.4746 203.133 39.2405C202.431 39.0063 201.827 38.637 201.323 38.1327C200.837 37.6283 200.594 36.9709 200.594 36.1603C200.594 35.0075 201.035 34.0888 201.917 33.4043C202.8 32.7018 203.917 32.3506 205.268 32.3506C206.277 32.3506 207.294 32.5307 208.321 32.891L208.807 33.0801V36.1873L208.294 36.3764L208.186 34.0798C207.141 33.2512 206.268 32.8369 205.565 32.8369C204.574 32.8369 203.791 33.1342 203.214 33.7286C202.638 34.305 202.35 35.0795 202.35 36.0522C202.35 36.6106 202.593 37.0609 203.079 37.4032C203.584 37.7454 204.187 38.0156 204.89 38.2137C205.592 38.4119 206.295 38.637 206.997 38.8892C207.7 39.1234 208.294 39.5197 208.78 40.078C209.285 40.6184 209.537 41.3299 209.537 42.2126C209.537 43.4014 209.087 44.3471 208.186 45.0496C207.303 45.734 206.042 46.0763 204.403 46.0763C202.764 46.0763 201.404 45.689 200.323 44.9145V41.8073L200.81 41.6181L200.945 43.9148C201.197 44.3831 201.647 44.7884 202.296 45.1306C202.962 45.4729 203.584 45.644 204.16 45.644Z" fill="url(#paint0_linear_232_12)"/>
<defs>
<linearGradient id="paint0_linear_232_12" x1="158.015" y1="20.9682" x2="210.78" y2="37.3641" gradientUnits="userSpaceOnUse">
<stop stop-color="#FFB905"/>
<stop offset="1" stop-color="#F4DC00"/>
</linearGradient>
</defs>
</svg>
