<svg width="299" height="58" viewBox="0 0 299 58" fill="none" xmlns="http://www.w3.org/2000/svg">
<path d="M3.38519 3.45715C3.38519 4.09646 3.60895 4.62389 4.05646 5.03944C4.50398 5.43901 5.17526 5.89452 6.07029 6.40597C6.72559 6.77357 7.24503 7.09323 7.62861 7.36493C8.0122 7.63664 8.33985 7.98027 8.61155 8.39582C8.88326 8.81137 9.01911 9.29086 9.01911 9.83427C9.01911 10.8252 8.61955 11.6084 7.82041 12.1837C7.03725 12.7431 5.98239 13.0228 4.65582 13.0228C3.52104 13.0228 2.60203 12.8071 1.89879 12.3755C1.21153 11.944 0.867901 11.3606 0.867901 10.6254C0.867901 10.1459 1.02773 9.77034 1.34738 9.49863C1.68302 9.21094 2.09857 9.0671 2.59404 9.0671C2.97763 9.0671 3.34523 9.163 3.69685 9.35479C3.20139 9.61051 2.95365 10.114 2.95365 10.8652C2.95365 11.3127 3.11348 11.6963 3.43314 12.0159C3.76877 12.3196 4.21629 12.4714 4.77569 12.4714C5.35107 12.4714 5.79859 12.3116 6.11824 11.9919C6.45388 11.6723 6.6217 11.2727 6.6217 10.7932C6.6217 10.2338 6.41392 9.77833 5.99837 9.42671C5.5988 9.05911 4.98346 8.63556 4.15236 8.15608C3.49707 7.80446 2.95365 7.47681 2.52212 7.17314C2.10657 6.86947 1.75494 6.49387 1.46725 6.04636C1.17956 5.59884 1.03572 5.07141 1.03572 4.46406C1.03572 3.55304 1.41931 2.81783 2.18648 2.25844C2.96964 1.68306 3.98454 1.39537 5.2312 1.39537C6.30204 1.39537 7.1731 1.60314 7.84438 2.0187C8.51566 2.41827 8.8513 2.95369 8.8513 3.62497C8.8513 4.0565 8.70745 4.40013 8.41976 4.65585C8.13207 4.8956 7.74049 5.01547 7.24503 5.01547C6.89341 5.01547 6.5258 4.92756 6.14222 4.75175C6.34999 4.59192 6.50982 4.39214 6.6217 4.1524C6.73358 3.91265 6.78952 3.66492 6.78952 3.4092C6.78952 3.00963 6.64567 2.67399 6.35798 2.40228C6.07029 2.11459 5.64675 1.97075 5.08735 1.97075C4.54394 1.97075 4.12039 2.11459 3.81672 2.40228C3.52903 2.68997 3.38519 3.04159 3.38519 3.45715ZM15.9164 4.84765C16.7315 4.84765 17.3868 5.20726 17.8822 5.92648C18.3937 6.62973 18.6494 7.55673 18.6494 8.70749C18.6494 9.52261 18.4976 10.2578 18.1939 10.9131C17.9062 11.5524 17.4907 12.0559 16.9473 12.4235C16.4198 12.7751 15.8205 12.9509 15.1492 12.9509C14.7656 12.9509 14.398 12.895 14.0464 12.7831C13.7107 12.6552 13.4231 12.4794 13.1833 12.2557V14.9887C13.1833 15.3723 13.2313 15.628 13.3272 15.7559C13.439 15.8997 13.6868 16.0116 14.0704 16.0915L14.382 16.1634L14.2382 16.571H10.5222L10.3304 16.3313L10.5222 16.0915C10.714 15.8358 10.8418 15.5561 10.9058 15.2524C10.9857 14.9647 11.0256 14.5732 11.0256 14.0777V6.54981C11.0256 6.26212 10.9218 6.11828 10.714 6.11828H9.97078L9.89885 5.85456C10.2025 5.58285 10.5941 5.3591 11.0736 5.18329C11.5691 5.00747 12.0485 4.91957 12.512 4.91957C12.7198 4.91957 12.8796 4.96752 12.9915 5.06341C13.1194 5.15931 13.1833 5.28717 13.1833 5.447V6.50186C13.5829 5.92648 13.9984 5.51093 14.43 5.25521C14.8775 4.9835 15.373 4.84765 15.9164 4.84765ZM14.2382 12.2557C14.8935 12.2557 15.3889 11.976 15.7246 11.4166C16.0762 10.8572 16.252 10.0341 16.252 8.94723C16.252 8.00424 16.1241 7.28502 15.8684 6.78955C15.6127 6.27811 15.2451 6.02238 14.7656 6.02238C14.1263 6.02238 13.5989 6.44592 13.1833 7.29301V11.944C13.487 12.1518 13.8386 12.2557 14.2382 12.2557ZM22.7829 11.4405C22.7829 11.92 22.9347 12.1598 23.2384 12.1598C23.5421 12.1598 23.8378 12.0399 24.1255 11.8002L24.3173 12.0399C23.7259 12.6952 23.0306 13.0228 22.2315 13.0228C21.6561 13.0228 21.2406 12.879 20.9848 12.5913C20.7291 12.2876 20.6013 11.8002 20.6013 11.1289V6.38199C20.6013 6.15823 20.4974 6.04636 20.2896 6.04636H19.5464L19.4745 5.78264C19.7941 5.51093 20.1937 5.28717 20.6732 5.11136C21.1527 4.93555 21.6321 4.84765 22.1116 4.84765C22.3034 4.84765 22.4632 4.8956 22.5911 4.99149C22.719 5.08739 22.7829 5.21525 22.7829 5.37508V11.4405ZM20.3615 2.54613C20.3615 2.25844 20.5213 1.93878 20.841 1.58716C21.1607 1.23554 21.4563 1.05973 21.728 1.05973C22.0157 1.05973 22.3194 1.23554 22.6391 1.58716C22.9747 1.93878 23.1425 2.25844 23.1425 2.54613C23.1425 2.8498 22.9747 3.17745 22.6391 3.52907C22.3194 3.86471 22.0157 4.03253 21.728 4.03253C21.4563 4.03253 21.1607 3.86471 20.841 3.52907C20.5213 3.17745 20.3615 2.8498 20.3615 2.54613ZM33.1856 11.4405C33.1856 11.92 33.3375 12.1598 33.6411 12.1598C33.9448 12.1598 34.2405 12.0399 34.5282 11.8002L34.72 12.0399C34.1286 12.6952 33.4334 13.0228 32.6342 13.0228C32.0588 13.0228 31.6433 12.879 31.3876 12.5913C31.1478 12.2876 31.028 11.8002 31.028 11.1289V7.46083C31.028 6.53383 30.7323 6.07033 30.1409 6.07033C29.5655 6.07033 29.094 6.46191 28.7264 7.24506C28.3748 8.02822 28.199 9.05112 28.199 10.3138C28.199 10.7932 28.239 11.1848 28.3189 11.4885C28.3988 11.7762 28.5266 12.0559 28.7025 12.3276L28.8943 12.5673L28.7025 12.8071H25.2262L25.0824 12.3995L25.418 12.3276C25.6737 12.2637 25.8415 12.1678 25.9215 12.0399C26.0014 11.896 26.0413 11.6243 26.0413 11.2248V6.54981C26.0413 6.24614 25.9374 6.0943 25.7297 6.0943H24.9625L24.8906 5.83059C25.2102 5.55888 25.6098 5.33512 26.0893 5.15931C26.5688 4.9835 27.0482 4.8956 27.5277 4.8956C27.7355 4.8956 27.8953 4.94354 28.0072 5.03944C28.1351 5.13534 28.199 5.2632 28.199 5.42303V7.4848C28.4228 6.73361 28.8223 6.11029 29.3977 5.61482C29.9731 5.10337 30.5804 4.84765 31.2197 4.84765C31.907 4.84765 32.4025 5.07141 32.7061 5.51892C33.0258 5.96644 33.1856 6.67767 33.1856 7.65262V11.4405ZM42.113 13.0228C41.4577 13.0228 40.9862 12.879 40.6985 12.5913C40.4108 12.2876 40.267 11.8002 40.267 11.1289V6.04636H39.0683C39.0683 5.77465 39.0843 5.59884 39.1162 5.51892C39.1482 5.43901 39.2441 5.37508 39.4039 5.32713C39.9314 5.18329 40.3469 4.95953 40.6506 4.65585C40.9543 4.35218 41.202 3.91265 41.3938 3.33728C41.4417 3.16146 41.5216 3.05758 41.6335 3.02561C41.7454 2.97766 42.0171 2.95369 42.4486 2.95369V5.11136H44.4145C44.4145 5.31914 44.3826 5.51093 44.3186 5.68674C44.2547 5.84657 44.1668 5.96644 44.0549 6.04636H42.4486V11.4405C42.4486 11.92 42.6484 12.1598 43.048 12.1598C43.2238 12.1598 43.4156 12.1038 43.6234 11.9919C43.8471 11.8801 44.0469 11.7282 44.2227 11.5364L44.4145 11.7762C43.7273 12.6073 42.9601 13.0228 42.113 13.0228ZM53.3162 11.4405C53.3162 11.92 53.4681 12.1598 53.7717 12.1598C54.0754 12.1598 54.3711 12.0399 54.6588 11.8002L54.8506 12.0399C54.2592 12.6952 53.564 13.0228 52.7648 13.0228C52.1895 13.0228 51.7739 12.879 51.5182 12.5913C51.2784 12.2876 51.1586 11.8002 51.1586 11.1289V7.46083C51.1586 6.53383 50.8629 6.07033 50.2715 6.07033C49.6961 6.07033 49.2326 6.46191 48.881 7.24506C48.5294 8.02822 48.3536 9.05112 48.3536 10.3138C48.3536 10.8092 48.3856 11.2088 48.4495 11.5125C48.5294 11.8002 48.6573 12.0719 48.8331 12.3276L49.0249 12.5673L48.8331 12.8071H45.3568L45.213 12.3995L45.5486 12.3276C45.8043 12.2637 45.9722 12.1678 46.0521 12.0399C46.132 11.896 46.1719 11.6243 46.1719 11.2248V2.666C46.1719 2.53814 46.14 2.43425 46.076 2.35433C46.0281 2.27442 45.9562 2.23446 45.8603 2.23446H45.1171L45.0212 1.99472C45.3249 1.70703 45.7164 1.48327 46.1959 1.32345C46.6914 1.14764 47.1789 1.05973 47.6583 1.05973C47.8661 1.05973 48.0339 1.10768 48.1618 1.20358C48.2897 1.28349 48.3536 1.40336 48.3536 1.56319V7.4848C48.5773 6.73361 48.9689 6.11029 49.5283 5.61482C50.1037 5.10337 50.711 4.84765 51.3504 4.84765C52.0376 4.84765 52.5331 5.07141 52.8368 5.51892C53.1564 5.96644 53.3162 6.67767 53.3162 7.65262V11.4405ZM60.1386 12.2317C60.6021 12.2317 61.0096 12.1518 61.3613 11.9919C61.7129 11.8161 62.0565 11.5284 62.3921 11.1289L62.6798 11.3446C62.3122 11.8721 61.8407 12.2876 61.2654 12.5913C60.706 12.879 60.0906 13.0228 59.4193 13.0228C58.6841 13.0228 58.0209 12.847 57.4295 12.4954C56.8541 12.1438 56.3986 11.6643 56.063 11.057C55.7273 10.4336 55.5595 9.73038 55.5595 8.94723C55.5595 7.70057 55.9351 6.70964 56.6863 5.97443C57.4535 5.22324 58.4684 4.84765 59.731 4.84765C60.626 4.84765 61.3533 5.06341 61.9127 5.49495C62.488 5.9105 62.7757 6.45392 62.7757 7.12519C62.7757 7.89237 62.4481 8.5077 61.7928 8.9712C61.1535 9.41872 60.2744 9.64248 59.1556 9.64248C58.7081 9.64248 58.3006 9.61051 57.9329 9.54658C58.0129 10.3777 58.2526 11.033 58.6522 11.5125C59.0517 11.9919 59.5472 12.2317 60.1386 12.2317ZM59.4673 5.42303C58.9718 5.42303 58.5803 5.7267 58.2926 6.33405C58.0209 6.92541 57.885 7.75651 57.885 8.82736V9.21094C58.0608 9.21094 58.2766 9.19496 58.5323 9.163C59.2036 9.08308 59.715 8.86731 60.0666 8.51569C60.4343 8.14809 60.6181 7.66861 60.6181 7.07724C60.6181 6.59776 60.5062 6.20618 60.2824 5.90251C60.0746 5.58285 59.8029 5.42303 59.4673 5.42303ZM71.495 13.0228C70.7278 13.0228 70.1285 12.7751 69.697 12.2796C69.2814 11.7682 68.9937 10.9531 68.8339 9.83427L68.3304 6.38199C68.3145 6.25413 68.2825 6.16623 68.2345 6.11828C68.1866 6.07033 68.1147 6.04636 68.0188 6.04636H67.3715L67.2995 5.78264C67.6192 5.49495 68.0028 5.27119 68.4503 5.11136C68.8978 4.93555 69.3373 4.84765 69.7689 4.84765C70.0086 4.84765 70.1764 4.91957 70.2723 5.06341C70.3842 5.20726 70.4721 5.48696 70.5361 5.90251L71.1594 10.2179C71.2713 11.001 71.3991 11.5364 71.543 11.8241C71.6868 12.1118 71.9026 12.2557 72.1903 12.2557C72.6378 12.2557 72.9894 11.984 73.2451 11.4405C73.5168 10.8811 73.6527 10.1459 73.6527 9.23492C73.6527 8.30792 73.5328 7.35694 73.2931 6.38199C73.2611 6.25413 73.2292 6.16623 73.1972 6.11828C73.1652 6.07033 73.0933 6.04636 72.9814 6.04636H72.3581L72.2862 5.78264C72.5898 5.49495 72.9654 5.27119 73.413 5.11136C73.8605 4.93555 74.308 4.84765 74.7555 4.84765C74.9793 4.84765 75.1471 4.92756 75.259 5.08739C75.3708 5.23123 75.4508 5.50294 75.4987 5.90251L76.0981 10.098C76.2259 10.9611 76.3618 11.5364 76.5056 11.8241C76.6654 12.1118 76.8572 12.2557 77.081 12.2557C77.5125 12.2557 77.8562 11.936 78.1119 11.2967C78.3836 10.6414 78.5195 9.79432 78.5195 8.75543C78.5195 8.05219 78.4475 7.44485 78.3037 6.9334C78.1758 6.40597 77.9601 5.94247 77.6564 5.5429L77.4646 5.27918L77.6324 5.08739L79.6462 4.84765C79.6942 5.47098 79.7182 6.02238 79.7182 6.50186C79.7182 8.54766 79.4225 10.1459 78.8311 11.2967C78.2557 12.4475 77.4246 13.0228 76.3378 13.0228C75.6825 13.0228 75.187 12.855 74.8514 12.5194C74.5158 12.1837 74.2361 11.5684 74.0123 10.6734C73.6927 12.2397 72.8536 13.0228 71.495 13.0228ZM89.3711 11.4405C89.3711 11.92 89.523 12.1598 89.8266 12.1598C90.1303 12.1598 90.426 12.0399 90.7137 11.8002L90.9055 12.0399C90.3141 12.6952 89.6189 13.0228 88.8197 13.0228C88.2443 13.0228 87.8288 12.879 87.5731 12.5913C87.3333 12.2876 87.2135 11.8002 87.2135 11.1289V7.46083C87.2135 6.53383 86.9178 6.07033 86.3264 6.07033C85.751 6.07033 85.2875 6.46191 84.9359 7.24506C84.5843 8.02822 84.4085 9.05112 84.4085 10.3138C84.4085 10.8092 84.4404 11.2088 84.5044 11.5125C84.5843 11.8002 84.7121 12.0719 84.888 12.3276L85.0798 12.5673L84.888 12.8071H81.4117L81.2679 12.3995L81.6035 12.3276C81.8592 12.2637 82.027 12.1678 82.107 12.0399C82.1869 11.896 82.2268 11.6243 82.2268 11.2248V2.666C82.2268 2.53814 82.1949 2.43425 82.1309 2.35433C82.083 2.27442 82.0111 2.23446 81.9152 2.23446H81.172L81.0761 1.99472C81.3797 1.70703 81.7713 1.48327 82.2508 1.32345C82.7463 1.14764 83.2337 1.05973 83.7132 1.05973C83.921 1.05973 84.0888 1.10768 84.2167 1.20358C84.3445 1.28349 84.4085 1.40336 84.4085 1.56319V7.4848C84.6322 6.73361 85.0238 6.11029 85.5832 5.61482C86.1586 5.10337 86.7659 4.84765 87.4052 4.84765C88.0925 4.84765 88.588 5.07141 88.8916 5.51892C89.2113 5.96644 89.3711 6.67767 89.3711 7.65262V11.4405ZM96.1935 12.2317C96.657 12.2317 97.0645 12.1518 97.4161 11.9919C97.7678 11.8161 98.1114 11.5284 98.447 11.1289L98.7347 11.3446C98.3671 11.8721 97.8956 12.2876 97.3202 12.5913C96.7608 12.879 96.1455 13.0228 95.4742 13.0228C94.739 13.0228 94.0757 12.847 93.4844 12.4954C92.909 12.1438 92.4535 11.6643 92.1179 11.057C91.7822 10.4336 91.6144 9.73038 91.6144 8.94723C91.6144 7.70057 91.99 6.70964 92.7412 5.97443C93.5084 5.22324 94.5233 4.84765 95.7859 4.84765C96.6809 4.84765 97.4081 5.06341 97.9675 5.49495C98.5429 5.9105 98.8306 6.45392 98.8306 7.12519C98.8306 7.89237 98.503 8.5077 97.8477 8.9712C97.2084 9.41872 96.3293 9.64248 95.2105 9.64248C94.763 9.64248 94.3554 9.61051 93.9878 9.54658C94.0677 10.3777 94.3075 11.033 94.7071 11.5125C95.1066 11.9919 95.6021 12.2317 96.1935 12.2317ZM95.5222 5.42303C95.0267 5.42303 94.6351 5.7267 94.3474 6.33405C94.0757 6.92541 93.9399 7.75651 93.9399 8.82736V9.21094C94.1157 9.21094 94.3315 9.19496 94.5872 9.163C95.2585 9.08308 95.7699 8.86731 96.1215 8.51569C96.4891 8.14809 96.6729 7.66861 96.6729 7.07724C96.6729 6.59776 96.5611 6.20618 96.3373 5.90251C96.1295 5.58285 95.8578 5.42303 95.5222 5.42303ZM104.458 12.2317C104.921 12.2317 105.329 12.1518 105.681 11.9919C106.032 11.8161 106.376 11.5284 106.712 11.1289L106.999 11.3446C106.632 11.8721 106.16 12.2876 105.585 12.5913C105.025 12.879 104.41 13.0228 103.739 13.0228C103.004 13.0228 102.34 12.847 101.749 12.4954C101.174 12.1438 100.718 11.6643 100.382 11.057C100.047 10.4336 99.8789 9.73038 99.8789 8.94723C99.8789 7.70057 100.255 6.70964 101.006 5.97443C101.773 5.22324 102.788 4.84765 104.05 4.84765C104.945 4.84765 105.673 5.06341 106.232 5.49495C106.807 5.9105 107.095 6.45392 107.095 7.12519C107.095 7.89237 106.767 8.5077 106.112 8.9712C105.473 9.41872 104.594 9.64248 103.475 9.64248C103.028 9.64248 102.62 9.61051 102.252 9.54658C102.332 10.3777 102.572 11.033 102.972 11.5125C103.371 11.9919 103.867 12.2317 104.458 12.2317ZM103.787 5.42303C103.291 5.42303 102.9 5.7267 102.612 6.33405C102.34 6.92541 102.204 7.75651 102.204 8.82736V9.21094C102.38 9.21094 102.596 9.19496 102.852 9.163C103.523 9.08308 104.034 8.86731 104.386 8.51569C104.754 8.14809 104.937 7.66861 104.937 7.07724C104.937 6.59776 104.826 6.20618 104.602 5.90251C104.394 5.58285 104.122 5.42303 103.787 5.42303ZM110.996 11.4405C110.996 11.92 111.148 12.1598 111.452 12.1598C111.756 12.1598 112.051 12.0399 112.339 11.8002L112.531 12.0399C111.971 12.6952 111.276 13.0228 110.445 13.0228C109.886 13.0228 109.478 12.895 109.222 12.6392C108.967 12.3675 108.839 11.944 108.839 11.3686V2.5701C108.839 2.34634 108.735 2.23446 108.527 2.23446H107.76L107.688 1.99472C107.992 1.70703 108.383 1.48327 108.863 1.32345C109.358 1.14764 109.846 1.05973 110.325 1.05973C110.533 1.05973 110.693 1.10768 110.805 1.20358C110.932 1.28349 110.996 1.40336 110.996 1.56319V11.4405ZM117.087 8.94723C117.087 7.68459 117.447 6.68567 118.166 5.95046C118.901 5.21525 119.892 4.84765 121.139 4.84765C122.385 4.84765 123.376 5.22324 124.111 5.97443C124.847 6.70964 125.214 7.70057 125.214 8.94723C125.214 10.1939 124.847 11.1848 124.111 11.92C123.376 12.6552 122.385 13.0228 121.139 13.0228C119.892 13.0228 118.901 12.6552 118.166 11.92C117.447 11.1848 117.087 10.1939 117.087 8.94723ZM122.793 8.99518C122.793 7.92433 122.641 7.05327 122.337 6.38199C122.034 5.69473 121.65 5.3511 121.187 5.3511C120.675 5.3511 120.26 5.68674 119.94 6.35802C119.62 7.01331 119.46 7.87638 119.46 8.94723C119.46 10.0341 119.604 10.8971 119.892 11.5364C120.196 12.1757 120.595 12.4954 121.091 12.4954C121.586 12.4954 121.994 12.1757 122.313 11.5364C122.633 10.8811 122.793 10.0341 122.793 8.99518ZM129.38 11.2248C129.38 11.6084 129.428 11.8721 129.524 12.0159C129.636 12.1438 129.884 12.2477 130.267 12.3276L130.579 12.3995L130.435 12.8071H126.695L126.503 12.5673L126.695 12.3276C126.887 12.0719 127.015 11.8002 127.079 11.5125C127.158 11.2088 127.198 10.8012 127.198 10.2898V6.04636H125.976C125.976 5.77465 125.992 5.59884 126.024 5.51892C126.056 5.43901 126.152 5.37508 126.311 5.32713L127.198 5.11136C127.198 3.73684 127.494 2.68198 128.085 1.94677C128.693 1.21157 129.556 0.843963 130.675 0.843963C131.378 0.843963 131.945 0.995799 132.377 1.29947C132.824 1.60314 133.048 2.00271 133.048 2.49818C133.048 2.92971 132.92 3.28134 132.665 3.55304C132.409 3.80877 132.073 3.93663 131.658 3.93663C131.338 3.93663 131.042 3.8727 130.771 3.74484C131.058 3.50509 131.202 3.14548 131.202 2.666C131.202 2.28241 131.13 1.97874 130.986 1.75498C130.842 1.53122 130.643 1.41934 130.387 1.41934C130.067 1.41934 129.82 1.58716 129.644 1.9228C129.468 2.25844 129.38 2.72993 129.38 3.33728V5.11136H131.13C131.13 5.55888 131.01 5.87054 130.771 6.04636H129.38V11.2248ZM138.815 11.2248C138.815 11.6084 138.863 11.8721 138.959 12.0159C139.071 12.1438 139.319 12.2477 139.702 12.3276L140.014 12.3995L139.87 12.8071H136.13L135.938 12.5673L136.13 12.3276C136.322 12.0719 136.45 11.8002 136.514 11.5125C136.594 11.2088 136.634 10.8012 136.634 10.2898V6.04636H135.411C135.411 5.77465 135.427 5.59884 135.459 5.51892C135.491 5.43901 135.587 5.37508 135.747 5.32713L136.634 5.11136C136.634 3.73684 136.929 2.68198 137.521 1.94677C138.128 1.21157 138.991 0.843963 140.11 0.843963C140.813 0.843963 141.38 0.995799 141.812 1.29947C142.259 1.60314 142.483 2.00271 142.483 2.49818C142.483 2.92971 142.355 3.28134 142.1 3.55304C141.844 3.80877 141.508 3.93663 141.093 3.93663C140.773 3.93663 140.477 3.8727 140.206 3.74484C140.493 3.50509 140.637 3.14548 140.637 2.666C140.637 2.28241 140.565 1.97874 140.421 1.75498C140.278 1.53122 140.078 1.41934 139.822 1.41934C139.502 1.41934 139.255 1.58716 139.079 1.9228C138.903 2.25844 138.815 2.72993 138.815 3.33728V5.11136H140.565C140.565 5.55888 140.445 5.87054 140.206 6.04636H138.815V11.2248ZM141.155 8.94723C141.155 7.68459 141.514 6.68567 142.234 5.95046C142.969 5.21525 143.96 4.84765 145.206 4.84765C146.453 4.84765 147.444 5.22324 148.179 5.97443C148.914 6.70964 149.282 7.70057 149.282 8.94723C149.282 10.1939 148.914 11.1848 148.179 11.92C147.444 12.6552 146.453 13.0228 145.206 13.0228C143.96 13.0228 142.969 12.6552 142.234 11.92C141.514 11.1848 141.155 10.1939 141.155 8.94723ZM146.861 8.99518C146.861 7.92433 146.709 7.05327 146.405 6.38199C146.101 5.69473 145.718 5.3511 145.254 5.3511C144.743 5.3511 144.327 5.68674 144.008 6.35802C143.688 7.01331 143.528 7.87638 143.528 8.94723C143.528 10.0341 143.672 10.8971 143.96 11.5364C144.263 12.1757 144.663 12.4954 145.158 12.4954C145.654 12.4954 146.061 12.1757 146.381 11.5364C146.701 10.8811 146.861 10.0341 146.861 8.99518ZM155.606 4.84765C156.117 4.84765 156.533 4.99948 156.852 5.30316C157.172 5.59085 157.332 5.96644 157.332 6.42994C157.332 6.86148 157.204 7.2131 156.948 7.4848C156.692 7.74053 156.357 7.86839 155.941 7.86839C155.622 7.86839 155.326 7.80446 155.054 7.6766C155.342 7.43686 155.486 7.07724 155.486 6.59776C155.486 6.374 155.438 6.19819 155.342 6.07033C155.246 5.94247 155.118 5.87854 154.958 5.87854C154.575 5.87854 154.255 6.27011 153.999 7.05327C153.744 7.82044 153.616 8.77941 153.616 9.93017C153.616 10.5215 153.648 10.993 153.712 11.3446C153.792 11.6963 153.919 12.0239 154.095 12.3276L154.287 12.5673L154.095 12.8071H150.619L150.475 12.3995L150.811 12.3276C151.066 12.2637 151.234 12.1678 151.314 12.0399C151.394 11.896 151.434 11.6243 151.434 11.2248V6.54981C151.434 6.24614 151.33 6.0943 151.122 6.0943H150.379L150.283 5.83059C150.587 5.55888 150.963 5.33512 151.41 5.15931C151.874 4.9835 152.329 4.8956 152.777 4.8956C152.984 4.8956 153.152 4.94354 153.28 5.03944C153.408 5.13534 153.472 5.2632 153.472 5.42303V7.17314H153.544C153.879 5.62281 154.567 4.84765 155.606 4.84765ZM160.649 13.0228C159.994 13.0228 159.523 12.879 159.235 12.5913C158.947 12.2876 158.803 11.8002 158.803 11.1289V6.04636H157.605C157.605 5.77465 157.621 5.59884 157.653 5.51892C157.684 5.43901 157.78 5.37508 157.94 5.32713C158.468 5.18329 158.883 4.95953 159.187 4.65585C159.491 4.35218 159.738 3.91265 159.93 3.33728C159.978 3.16146 160.058 3.05758 160.17 3.02561C160.282 2.97766 160.553 2.95369 160.985 2.95369V5.11136H162.951C162.951 5.31914 162.919 5.51093 162.855 5.68674C162.791 5.84657 162.703 5.96644 162.591 6.04636H160.985V11.4405C160.985 11.92 161.185 12.1598 161.584 12.1598C161.76 12.1598 161.952 12.1038 162.16 11.9919C162.383 11.8801 162.583 11.7282 162.759 11.5364L162.951 11.7762C162.264 12.6073 161.496 13.0228 160.649 13.0228ZM169.551 10.6254C169.327 11.3287 168.936 11.904 168.376 12.3516C167.833 12.7991 167.249 13.0228 166.626 13.0228C165.923 13.0228 165.403 12.7991 165.068 12.3516C164.732 11.904 164.564 11.2168 164.564 10.2898V6.38199C164.564 6.15823 164.46 6.04636 164.253 6.04636H163.51L163.438 5.78264C163.757 5.51093 164.157 5.28717 164.636 5.11136C165.116 4.93555 165.587 4.84765 166.051 4.84765C166.259 4.84765 166.418 4.8956 166.53 4.99149C166.658 5.08739 166.722 5.21525 166.722 5.37508V10.1699C166.722 10.7133 166.802 11.1369 166.962 11.4405C167.122 11.7282 167.345 11.8721 167.633 11.8721C168.224 11.8721 168.696 11.5125 169.048 10.7932C169.415 10.058 169.599 9.10706 169.599 7.94031C169.599 7.31699 169.551 6.8375 169.455 6.50186C169.375 6.15024 169.223 5.84657 169 5.59085L168.784 5.32713L168.976 5.11136L171.733 4.8956V11.4405C171.733 11.92 171.876 12.1598 172.164 12.1598C172.468 12.1598 172.764 12.0399 173.051 11.8002L173.243 12.0399C172.684 12.6952 171.988 13.0228 171.157 13.0228C170.55 13.0228 170.126 12.847 169.887 12.4954C169.663 12.1438 169.551 11.5205 169.551 10.6254ZM182.298 11.4405C182.298 11.92 182.45 12.1598 182.754 12.1598C183.058 12.1598 183.353 12.0399 183.641 11.8002L183.833 12.0399C183.241 12.6952 182.546 13.0228 181.747 13.0228C181.172 13.0228 180.756 12.879 180.5 12.5913C180.261 12.2876 180.141 11.8002 180.141 11.1289V7.46083C180.141 6.53383 179.845 6.07033 179.254 6.07033C178.678 6.07033 178.207 6.46191 177.839 7.24506C177.488 8.02822 177.312 9.05112 177.312 10.3138C177.312 10.7932 177.352 11.1848 177.432 11.4885C177.511 11.7762 177.639 12.0559 177.815 12.3276L178.007 12.5673L177.815 12.8071H174.339L174.195 12.3995L174.531 12.3276C174.786 12.2637 174.954 12.1678 175.034 12.0399C175.114 11.896 175.154 11.6243 175.154 11.2248V6.54981C175.154 6.24614 175.05 6.0943 174.842 6.0943H174.075L174.003 5.83059C174.323 5.55888 174.722 5.33512 175.202 5.15931C175.681 4.9835 176.161 4.8956 176.64 4.8956C176.848 4.8956 177.008 4.94354 177.12 5.03944C177.248 5.13534 177.312 5.2632 177.312 5.42303V7.4848C177.535 6.73361 177.935 6.11029 178.51 5.61482C179.086 5.10337 179.693 4.84765 180.332 4.84765C181.02 4.84765 181.515 5.07141 181.819 5.51892C182.139 5.96644 182.298 6.67767 182.298 7.65262V11.4405ZM189.117 12.2317C189.58 12.2317 189.988 12.1518 190.339 11.9919C190.691 11.8161 191.035 11.5284 191.37 11.1289L191.658 11.3446C191.29 11.8721 190.819 12.2876 190.244 12.5913C189.684 12.879 189.069 13.0228 188.398 13.0228C187.662 13.0228 186.999 12.847 186.408 12.4954C185.832 12.1438 185.377 11.6643 185.041 11.057C184.705 10.4336 184.538 9.73038 184.538 8.94723C184.538 7.70057 184.913 6.70964 185.664 5.97443C186.432 5.22324 187.447 4.84765 188.709 4.84765C189.604 4.84765 190.331 5.06341 190.891 5.49495C191.466 5.9105 191.754 6.45392 191.754 7.12519C191.754 7.89237 191.426 8.5077 190.771 8.9712C190.132 9.41872 189.253 9.64248 188.134 9.64248C187.686 9.64248 187.279 9.61051 186.911 9.54658C186.991 10.3777 187.231 11.033 187.63 11.5125C188.03 11.9919 188.525 12.2317 189.117 12.2317ZM188.445 5.42303C187.95 5.42303 187.558 5.7267 187.271 6.33405C186.999 6.92541 186.863 7.75651 186.863 8.82736V9.21094C187.039 9.21094 187.255 9.19496 187.51 9.163C188.182 9.08308 188.693 8.86731 189.045 8.51569C189.412 8.14809 189.596 7.66861 189.596 7.07724C189.596 6.59776 189.484 6.20618 189.261 5.90251C189.053 5.58285 188.781 5.42303 188.445 5.42303ZM199.586 7.50878C199.25 7.70057 198.851 7.79647 198.387 7.79647C198.052 7.79647 197.788 7.70057 197.596 7.50878C197.404 7.301 197.309 7.01331 197.309 6.64571C197.309 6.1023 197.572 5.67076 198.1 5.3511C198.643 5.01547 199.346 4.84765 200.209 4.84765C201.232 4.84765 202.031 5.07141 202.607 5.51892C203.198 5.96644 203.494 6.57379 203.494 7.34096V11.4885C203.494 11.936 203.654 12.1598 203.973 12.1598C204.277 12.1598 204.573 12.0399 204.86 11.8002L205.052 12.0399C204.461 12.6952 203.758 13.0228 202.943 13.0228C202.463 13.0228 202.095 12.903 201.84 12.6632C201.6 12.4235 201.456 12.0479 201.408 11.5364H201.312C201.057 11.9999 200.713 12.3675 200.281 12.6392C199.866 12.895 199.386 13.0228 198.843 13.0228C198.236 13.0228 197.748 12.839 197.381 12.4714C197.013 12.0878 196.829 11.5924 196.829 10.985C196.829 10.2978 197.157 9.75436 197.812 9.35479C198.467 8.95522 199.354 8.75543 200.473 8.75543C200.681 8.75543 200.977 8.77142 201.36 8.80338V7.60468C201.36 6.82152 201.264 6.26212 201.073 5.92648C200.881 5.57486 200.569 5.39905 200.138 5.39905C199.834 5.39905 199.594 5.49495 199.418 5.68674C199.242 5.87854 199.155 6.12627 199.155 6.42994C199.155 6.90942 199.298 7.26904 199.586 7.50878ZM199.946 11.8241C200.889 11.8241 201.36 10.969 201.36 9.25889C200.561 9.25889 199.962 9.39475 199.562 9.66645C199.163 9.92218 198.963 10.2898 198.963 10.7693C198.963 11.0889 199.051 11.3446 199.227 11.5364C199.402 11.7282 199.642 11.8241 199.946 11.8241ZM213.928 11.4405C213.928 11.92 214.08 12.1598 214.384 12.1598C214.687 12.1598 214.983 12.0399 215.271 11.8002L215.463 12.0399C214.871 12.6952 214.176 13.0228 213.377 13.0228C212.802 13.0228 212.386 12.879 212.13 12.5913C211.89 12.2876 211.771 11.8002 211.771 11.1289V7.46083C211.771 6.53383 211.475 6.07033 210.884 6.07033C210.308 6.07033 209.837 6.46191 209.469 7.24506C209.117 8.02822 208.942 9.05112 208.942 10.3138C208.942 10.7932 208.982 11.1848 209.062 11.4885C209.141 11.7762 209.269 12.0559 209.445 12.3276L209.637 12.5673L209.445 12.8071H205.969L205.825 12.3995L206.161 12.3276C206.416 12.2637 206.584 12.1678 206.664 12.0399C206.744 11.896 206.784 11.6243 206.784 11.2248V6.54981C206.784 6.24614 206.68 6.0943 206.472 6.0943H205.705L205.633 5.83059C205.953 5.55888 206.352 5.33512 206.832 5.15931C207.311 4.9835 207.791 4.8956 208.27 4.8956C208.478 4.8956 208.638 4.94354 208.75 5.03944C208.878 5.13534 208.942 5.2632 208.942 5.42303V7.4848C209.165 6.73361 209.565 6.11029 210.14 5.61482C210.716 5.10337 211.323 4.84765 211.962 4.84765C212.65 4.84765 213.145 5.07141 213.449 5.51892C213.768 5.96644 213.928 6.67767 213.928 7.65262V11.4405ZM225.326 12.0399C224.734 12.6952 224.039 13.0228 223.24 13.0228C222.745 13.0228 222.377 12.9189 222.137 12.7112C221.897 12.4874 221.738 12.1278 221.658 11.6323C221.242 12.1118 220.811 12.4634 220.363 12.6872C219.916 12.911 219.42 13.0228 218.877 13.0228C218.078 13.0228 217.422 12.6712 216.911 11.968C216.415 11.2647 216.168 10.3537 216.168 9.23492C216.168 7.89237 216.519 6.82951 217.222 6.04636C217.926 5.24722 218.885 4.84765 220.099 4.84765C220.659 4.84765 221.17 4.97551 221.634 5.23123V2.5701C221.634 2.34634 221.53 2.23446 221.322 2.23446H220.507L220.411 1.99472C220.731 1.70703 221.138 1.48327 221.634 1.32345C222.129 1.14764 222.617 1.05973 223.096 1.05973C223.304 1.05973 223.472 1.10768 223.6 1.20358C223.727 1.28349 223.791 1.40336 223.791 1.56319V11.4405C223.791 11.92 223.943 12.1598 224.247 12.1598C224.551 12.1598 224.846 12.0399 225.134 11.8002L225.326 12.0399ZM220.123 11.8721C220.731 11.8721 221.234 11.5364 221.634 10.8652V5.71072C221.314 5.55089 220.962 5.47098 220.579 5.47098C219.236 5.47098 218.565 6.62973 218.565 8.94723C218.565 9.89021 218.693 10.6174 218.949 11.1289C219.22 11.6243 219.612 11.8721 220.123 11.8721ZM232.354 6.47789C232.354 6.87746 232.506 7.20511 232.81 7.46083C233.129 7.70057 233.609 7.97228 234.248 8.27595C234.776 8.53168 235.183 8.75544 235.471 8.94723C235.759 9.12304 236.006 9.36278 236.214 9.66645C236.438 9.97013 236.55 10.3297 236.55 10.7453C236.55 11.4325 236.222 11.984 235.567 12.3995C234.928 12.8151 234.064 13.0228 232.978 13.0228C232.163 13.0228 231.491 12.879 230.964 12.5913C230.436 12.2876 230.173 11.896 230.173 11.4166C230.173 11.0969 230.293 10.8332 230.532 10.6254C230.772 10.4017 231.068 10.2898 231.419 10.2898C231.691 10.2898 231.963 10.3457 232.234 10.4576C231.963 10.6654 231.827 11.001 231.827 11.4645C231.827 11.7842 231.939 12.0319 232.163 12.2077C232.386 12.3835 232.658 12.4714 232.978 12.4714C233.345 12.4714 233.657 12.3755 233.913 12.1837C234.184 11.9919 234.32 11.7202 234.32 11.3686C234.32 11.033 234.184 10.7693 233.913 10.5775C233.657 10.3697 233.249 10.13 232.69 9.85825C232.179 9.6185 231.763 9.40274 231.443 9.21094C231.14 9.00317 230.876 8.73146 230.652 8.39582C230.428 8.06018 230.317 7.65262 230.317 7.17314C230.317 6.45392 230.62 5.88653 231.228 5.47098C231.835 5.05542 232.602 4.84765 233.529 4.84765C234.344 4.84765 235.007 4.99948 235.519 5.30316C236.046 5.60683 236.31 5.99841 236.31 6.47789C236.31 6.84549 236.198 7.1172 235.974 7.29301C235.751 7.46882 235.463 7.55673 235.111 7.55673C234.776 7.55673 234.48 7.4848 234.224 7.34096C234.512 7.06925 234.656 6.72562 234.656 6.31007C234.656 6.03836 234.552 5.8226 234.344 5.66277C234.136 5.48696 233.865 5.39905 233.529 5.39905C233.161 5.39905 232.874 5.50294 232.666 5.71072C232.458 5.91849 232.354 6.17422 232.354 6.47789ZM245.999 11.4405C245.999 11.92 246.151 12.1598 246.455 12.1598C246.758 12.1598 247.054 12.0399 247.342 11.8002L247.534 12.0399C246.942 12.6952 246.247 13.0228 245.448 13.0228C244.872 13.0228 244.457 12.879 244.201 12.5913C243.961 12.2876 243.841 11.8002 243.841 11.1289V7.46083C243.841 6.53383 243.546 6.07033 242.954 6.07033C242.379 6.07033 241.916 6.46191 241.564 7.24506C241.212 8.02822 241.037 9.05112 241.037 10.3138C241.037 10.8092 241.068 11.2088 241.132 11.5125C241.212 11.8002 241.34 12.0719 241.516 12.3276L241.708 12.5673L241.516 12.8071H238.04L237.896 12.3995L238.232 12.3276C238.487 12.2637 238.655 12.1678 238.735 12.0399C238.815 11.896 238.855 11.6243 238.855 11.2248V2.666C238.855 2.53814 238.823 2.43425 238.759 2.35433C238.711 2.27442 238.639 2.23446 238.543 2.23446H237.8L237.704 1.99472C238.008 1.70703 238.399 1.48327 238.879 1.32345C239.374 1.14764 239.862 1.05973 240.341 1.05973C240.549 1.05973 240.717 1.10768 240.845 1.20358C240.973 1.28349 241.037 1.40336 241.037 1.56319V7.4848C241.26 6.73361 241.652 6.11029 242.211 5.61482C242.787 5.10337 243.394 4.84765 244.033 4.84765C244.721 4.84765 245.216 5.07141 245.52 5.51892C245.839 5.96644 245.999 6.67767 245.999 7.65262V11.4405ZM248.242 8.94723C248.242 7.68459 248.602 6.68567 249.321 5.95046C250.056 5.21525 251.047 4.84765 252.294 4.84765C253.541 4.84765 254.532 5.22324 255.267 5.97443C256.002 6.70964 256.37 7.70057 256.37 8.94723C256.37 10.1939 256.002 11.1848 255.267 11.92C254.532 12.6552 253.541 13.0228 252.294 13.0228C251.047 13.0228 250.056 12.6552 249.321 11.92C248.602 11.1848 248.242 10.1939 248.242 8.94723ZM253.948 8.99518C253.948 7.92433 253.796 7.05327 253.493 6.38199C253.189 5.69473 252.806 5.3511 252.342 5.3511C251.831 5.3511 251.415 5.68674 251.095 6.35802C250.776 7.01331 250.616 7.87638 250.616 8.94723C250.616 10.0341 250.76 10.8971 251.047 11.5364C251.351 12.1757 251.751 12.4954 252.246 12.4954C252.742 12.4954 253.149 12.1757 253.469 11.5364C253.788 10.8811 253.948 10.0341 253.948 8.99518ZM261.111 13.0228C260.344 13.0228 259.744 12.7751 259.313 12.2796C258.897 11.7682 258.61 10.9531 258.45 9.83427L257.946 6.38199C257.93 6.25413 257.898 6.16623 257.85 6.11828C257.803 6.07033 257.731 6.04636 257.635 6.04636H256.987L256.915 5.78264C257.235 5.49495 257.619 5.27119 258.066 5.11136C258.514 4.93555 258.953 4.84765 259.385 4.84765C259.625 4.84765 259.792 4.91957 259.888 5.06341C260 5.20726 260.088 5.48696 260.152 5.90251L260.775 10.2179C260.887 11.001 261.015 11.5364 261.159 11.8241C261.303 12.1118 261.519 12.2557 261.806 12.2557C262.254 12.2557 262.605 11.984 262.861 11.4405C263.133 10.8811 263.269 10.1459 263.269 9.23492C263.269 8.30792 263.149 7.35694 262.909 6.38199C262.877 6.25413 262.845 6.16623 262.813 6.11828C262.781 6.07033 262.709 6.04636 262.597 6.04636H261.974L261.902 5.78264C262.206 5.49495 262.581 5.27119 263.029 5.11136C263.476 4.93555 263.924 4.84765 264.371 4.84765C264.595 4.84765 264.763 4.92756 264.875 5.08739C264.987 5.23123 265.067 5.50294 265.115 5.90251L265.714 10.098C265.842 10.9611 265.978 11.5364 266.122 11.8241C266.281 12.1118 266.473 12.2557 266.697 12.2557C267.128 12.2557 267.472 11.936 267.728 11.2967C268 10.6414 268.135 9.79432 268.135 8.75543C268.135 8.05219 268.063 7.44485 267.92 6.9334C267.792 6.40597 267.576 5.94247 267.272 5.5429L267.081 5.27918L267.248 5.08739L269.262 4.84765C269.31 5.47098 269.334 6.02238 269.334 6.50186C269.334 8.54766 269.038 10.1459 268.447 11.2967C267.872 12.4475 267.041 13.0228 265.954 13.0228C265.298 13.0228 264.803 12.855 264.467 12.5194C264.132 12.1837 263.852 11.5684 263.628 10.6734C263.309 12.2397 262.469 13.0228 261.111 13.0228ZM277.5 13.0228C276.845 13.0228 276.373 12.879 276.085 12.5913C275.798 12.2876 275.654 11.8002 275.654 11.1289V6.04636H274.455C274.455 5.77465 274.471 5.59884 274.503 5.51892C274.535 5.43901 274.631 5.37508 274.791 5.32713C275.318 5.18329 275.734 4.95953 276.037 4.65585C276.341 4.35218 276.589 3.91265 276.781 3.33728C276.829 3.16146 276.909 3.05758 277.02 3.02561C277.132 2.97766 277.404 2.95369 277.836 2.95369V5.11136H279.801C279.801 5.31914 279.769 5.51093 279.706 5.68674C279.642 5.84657 279.554 5.96644 279.442 6.04636H277.836V11.4405C277.836 11.92 278.035 12.1598 278.435 12.1598C278.611 12.1598 278.802 12.1038 279.01 11.9919C279.234 11.8801 279.434 11.7282 279.61 11.5364L279.801 11.7762C279.114 12.6073 278.347 13.0228 277.5 13.0228ZM288.703 11.4405C288.703 11.92 288.855 12.1598 289.159 12.1598C289.462 12.1598 289.758 12.0399 290.046 11.8002L290.238 12.0399C289.646 12.6952 288.951 13.0228 288.152 13.0228C287.576 13.0228 287.161 12.879 286.905 12.5913C286.665 12.2876 286.545 11.8002 286.545 11.1289V7.46083C286.545 6.53383 286.25 6.07033 285.658 6.07033C285.083 6.07033 284.62 6.46191 284.268 7.24506C283.916 8.02822 283.741 9.05112 283.741 10.3138C283.741 10.8092 283.772 11.2088 283.836 11.5125C283.916 11.8002 284.044 12.0719 284.22 12.3276L284.412 12.5673L284.22 12.8071H280.744L280.6 12.3995L280.936 12.3276C281.191 12.2637 281.359 12.1678 281.439 12.0399C281.519 11.896 281.559 11.6243 281.559 11.2248V2.666C281.559 2.53814 281.527 2.43425 281.463 2.35433C281.415 2.27442 281.343 2.23446 281.247 2.23446H280.504L280.408 1.99472C280.712 1.70703 281.103 1.48327 281.583 1.32345C282.078 1.14764 282.566 1.05973 283.045 1.05973C283.253 1.05973 283.421 1.10768 283.549 1.20358C283.677 1.28349 283.741 1.40336 283.741 1.56319V7.4848C283.964 6.73361 284.356 6.11029 284.915 5.61482C285.491 5.10337 286.098 4.84765 286.737 4.84765C287.425 4.84765 287.92 5.07141 288.224 5.51892C288.543 5.96644 288.703 6.67767 288.703 7.65262V11.4405ZM295.525 12.2317C295.989 12.2317 296.397 12.1518 296.748 11.9919C297.1 11.8161 297.443 11.5284 297.779 11.1289L298.067 11.3446C297.699 11.8721 297.228 12.2876 296.652 12.5913C296.093 12.879 295.478 13.0228 294.806 13.0228C294.071 13.0228 293.408 12.847 292.816 12.4954C292.241 12.1438 291.786 11.6643 291.45 11.057C291.114 10.4336 290.946 9.73038 290.946 8.94723C290.946 7.70057 291.322 6.70964 292.073 5.97443C292.84 5.22324 293.855 4.84765 295.118 4.84765C296.013 4.84765 296.74 5.06341 297.3 5.49495C297.875 5.9105 298.163 6.45392 298.163 7.12519C298.163 7.89237 297.835 8.5077 297.18 8.9712C296.54 9.41872 295.661 9.64248 294.543 9.64248C294.095 9.64248 293.687 9.61051 293.32 9.54658C293.4 10.3777 293.64 11.033 294.039 11.5125C294.439 11.9919 294.934 12.2317 295.525 12.2317ZM294.854 5.42303C294.359 5.42303 293.967 5.7267 293.679 6.33405C293.408 6.92541 293.272 7.75651 293.272 8.82736V9.21094C293.448 9.21094 293.663 9.19496 293.919 9.163C294.59 9.08308 295.102 8.86731 295.454 8.51569C295.821 8.14809 296.005 7.66861 296.005 7.07724C296.005 6.59776 295.893 6.20618 295.669 5.90251C295.462 5.58285 295.19 5.42303 294.854 5.42303ZM11.2629 33.6323C10.8633 34.1118 10.4397 34.4634 9.99223 34.6872C9.54471 34.911 9.04925 35.0228 8.50583 35.0228C7.70669 35.0228 7.0514 34.6712 6.53995 33.968C6.04448 33.2647 5.79675 32.3537 5.79675 31.2349C5.79675 29.8924 6.19632 28.8295 6.99546 28.0464C7.81058 27.2472 8.9054 26.8476 10.2799 26.8476C10.7754 26.8476 11.4227 26.9196 12.2218 27.0634C12.8931 27.1593 13.3646 27.2232 13.6363 27.2552L13.8041 27.447L13.6123 27.7347C13.5324 27.8306 13.4765 27.9265 13.4445 28.0224C13.4285 28.1023 13.4205 28.2062 13.4205 28.334V36.0777C13.4205 36.5732 13.4525 36.9647 13.5164 37.2524C13.5963 37.5561 13.7242 37.8358 13.9 38.0915L14.0918 38.3313L13.9 38.571H10.16L9.99223 38.1634L10.3279 38.0915C10.7274 38.0116 10.9832 37.8997 11.095 37.7559C11.2069 37.628 11.2629 37.3723 11.2629 36.9887V33.6323ZM8.19417 30.9472C8.19417 31.8902 8.32203 32.6174 8.57775 33.1289C8.84946 33.6243 9.24104 33.8721 9.75249 33.8721C10.3758 33.8721 10.8713 33.5364 11.2389 32.8652V27.6148C10.8713 27.471 10.5197 27.3991 10.184 27.3991C9.52873 27.3991 9.03326 27.7027 8.69762 28.3101C8.36199 28.9014 8.19417 29.7805 8.19417 30.9472ZM20.7392 26.8476C21.2507 26.8476 21.6662 26.9995 21.9859 27.3032C22.3055 27.5908 22.4653 27.9664 22.4653 28.4299C22.4653 28.8615 22.3375 29.2131 22.0818 29.4848C21.826 29.7405 21.4904 29.8684 21.0748 29.8684C20.7552 29.8684 20.4595 29.8045 20.1878 29.6766C20.4755 29.4369 20.6193 29.0772 20.6193 28.5978C20.6193 28.374 20.5714 28.1982 20.4755 28.0703C20.3796 27.9425 20.2517 27.8785 20.0919 27.8785C19.7083 27.8785 19.3887 28.2701 19.1329 29.0533C18.8772 29.8204 18.7494 30.7794 18.7494 31.9302C18.7494 32.5215 18.7813 32.993 18.8452 33.3446C18.9252 33.6963 19.053 34.0239 19.2288 34.3276L19.4206 34.5673L19.2288 34.8071H15.7526L15.6087 34.3995L15.9444 34.3276C16.2001 34.2637 16.3679 34.1678 16.4478 34.0399C16.5277 33.896 16.5677 33.6243 16.5677 33.2248V28.5498C16.5677 28.2461 16.4638 28.0943 16.256 28.0943H15.5128L15.4169 27.8306C15.7206 27.5589 16.0962 27.3351 16.5437 27.1593C17.0072 26.9835 17.4627 26.8956 17.9103 26.8956C18.118 26.8956 18.2859 26.9435 18.4137 27.0394C18.5416 27.1353 18.6055 27.2632 18.6055 27.423V29.1731H18.6774C19.0131 27.6228 19.7003 26.8476 20.7392 26.8476ZM23.0739 30.8753C23.0739 30.6675 23.1058 30.4598 23.1698 30.252C23.2497 30.0442 23.3536 29.8924 23.4814 29.7965L27.581 29.6286C27.581 30.1561 27.4452 30.5237 27.1735 30.7315L23.0739 30.8753ZM35.7429 28.9574C35.7429 29.4848 35.5831 29.9004 35.2634 30.204C34.9438 30.5077 34.5522 30.6595 34.0887 30.6595C33.7211 30.6595 33.3854 30.5636 33.0818 30.3718C33.4334 30.0522 33.6092 29.6047 33.6092 29.0293C33.6092 28.5658 33.5133 28.1902 33.3215 27.9025C33.1297 27.5988 32.85 27.447 32.4824 27.447C32.0669 27.447 31.7232 27.7746 31.4515 28.4299C31.1958 29.0693 31.0679 29.9083 31.0679 30.9472C31.0679 31.9382 31.2517 32.7373 31.6194 33.3446C32.0029 33.936 32.5384 34.2317 33.2256 34.2317C33.7051 34.2317 34.1127 34.1438 34.4483 33.968C34.7999 33.7922 35.1276 33.5364 35.4312 33.2008L35.7189 33.3926C35.3833 33.8721 34.9438 34.2637 34.4004 34.5673C33.8569 34.871 33.2256 35.0228 32.5064 35.0228C31.3876 35.0228 30.4686 34.6472 29.7494 33.896C29.0301 33.1449 28.6705 32.1779 28.6705 30.9952C28.6705 29.7325 29.0461 28.7256 29.7973 27.9744C30.5485 27.2232 31.5474 26.8476 32.7941 26.8476C33.6731 26.8476 34.3844 27.0474 34.9278 27.447C35.4712 27.8306 35.7429 28.334 35.7429 28.9574ZM36.7244 30.9472C36.7244 29.6846 37.084 28.6857 37.8032 27.9505C38.5384 27.2153 39.5293 26.8476 40.776 26.8476C42.0226 26.8476 43.0136 27.2232 43.7488 27.9744C44.484 28.7096 44.8516 29.7006 44.8516 30.9472C44.8516 32.1939 44.484 33.1848 43.7488 33.92C43.0136 34.6552 42.0226 35.0228 40.776 35.0228C39.5293 35.0228 38.5384 34.6552 37.8032 33.92C37.084 33.1848 36.7244 32.1939 36.7244 30.9472ZM42.4302 30.9952C42.4302 29.9243 42.2784 29.0533 41.9747 28.382C41.671 27.6947 41.2874 27.3511 40.8239 27.3511C40.3125 27.3511 39.8969 27.6867 39.5773 28.358C39.2576 29.0133 39.0978 29.8764 39.0978 30.9472C39.0978 32.0341 39.2416 32.8971 39.5293 33.5364C39.833 34.1757 40.2326 34.4954 40.728 34.4954C41.2235 34.4954 41.6311 34.1757 41.9507 33.5364C42.2704 32.8811 42.4302 32.0341 42.4302 30.9952ZM55.1069 34.0399C54.5155 34.6952 53.8203 35.0228 53.0212 35.0228C52.5257 35.0228 52.1581 34.9189 51.9183 34.7112C51.6786 34.4874 51.5188 34.1278 51.4389 33.6323C51.0233 34.1118 50.5918 34.4634 50.1443 34.6872C49.6967 34.911 49.2013 35.0228 48.6579 35.0228C47.8587 35.0228 47.2034 34.6712 46.692 33.968C46.1965 33.2647 45.9488 32.3537 45.9488 31.2349C45.9488 29.8924 46.3004 28.8295 47.0036 28.0464C47.7069 27.2472 48.6659 26.8476 49.8805 26.8476C50.4399 26.8476 50.9514 26.9755 51.4149 27.2312V24.5701C51.4149 24.3463 51.311 24.2345 51.1032 24.2345H50.2881L50.1922 23.9947C50.5119 23.707 50.9194 23.4833 51.4149 23.3234C51.9104 23.1476 52.3978 23.0597 52.8773 23.0597C53.0851 23.0597 53.2529 23.1077 53.3808 23.2036C53.5086 23.2835 53.5726 23.4034 53.5726 23.5632V33.4405C53.5726 33.92 53.7244 34.1598 54.0281 34.1598C54.3317 34.1598 54.6274 34.0399 54.9151 33.8002L55.1069 34.0399ZM49.9045 33.8721C50.5119 33.8721 51.0153 33.5364 51.4149 32.8652V27.7107C51.0952 27.5509 50.7436 27.471 50.36 27.471C49.0175 27.471 48.3462 28.6297 48.3462 30.9472C48.3462 31.8902 48.4741 32.6174 48.7298 33.1289C49.0015 33.6243 49.3931 33.8721 49.9045 33.8721ZM60.3142 34.2317C60.7777 34.2317 61.1852 34.1518 61.5369 33.9919C61.8885 33.8161 62.2321 33.5284 62.5677 33.1289L62.8554 33.3446C62.4878 33.8721 62.0163 34.2876 61.441 34.5913C60.8816 34.879 60.2662 35.0228 59.5949 35.0228C58.8597 35.0228 58.1965 34.847 57.6051 34.4954C57.0297 34.1438 56.5742 33.6643 56.2386 33.057C55.9029 32.4336 55.7351 31.7304 55.7351 30.9472C55.7351 29.7006 56.1107 28.7096 56.8619 27.9744C57.6291 27.2232 58.644 26.8476 59.9066 26.8476C60.8016 26.8476 61.5289 27.0634 62.0883 27.4949C62.6636 27.9105 62.9513 28.4539 62.9513 29.1252C62.9513 29.8924 62.6237 30.5077 61.9684 30.9712C61.3291 31.4187 60.45 31.6425 59.3312 31.6425C58.8837 31.6425 58.4762 31.6105 58.1086 31.5466C58.1885 32.3777 58.4282 33.033 58.8278 33.5125C59.2273 33.9919 59.7228 34.2317 60.3142 34.2317ZM59.6429 27.423C59.1474 27.423 58.7559 27.7267 58.4682 28.334C58.1965 28.9254 58.0606 29.7565 58.0606 30.8274V31.2109C58.2364 31.2109 58.4522 31.195 58.7079 31.163C59.3792 31.0831 59.8906 30.8673 60.2423 30.5157C60.6099 30.1481 60.7937 29.6686 60.7937 29.0772C60.7937 28.5978 60.6818 28.2062 60.458 27.9025C60.2502 27.5829 59.9785 27.423 59.6429 27.423ZM70.6877 35.0228C70.0324 35.0228 69.5609 34.879 69.2732 34.5913C68.9855 34.2876 68.8417 33.8002 68.8417 33.1289V28.0464H67.643C67.643 27.7746 67.6589 27.5988 67.6909 27.5189C67.7229 27.439 67.8188 27.3751 67.9786 27.3271C68.506 27.1833 68.9216 26.9595 69.2253 26.6559C69.5289 26.3522 69.7767 25.9127 69.9685 25.3373C70.0164 25.1615 70.0963 25.0576 70.2082 25.0256C70.3201 24.9777 70.5918 24.9537 71.0233 24.9537V27.1114H72.9892C72.9892 27.3191 72.9572 27.5109 72.8933 27.6867C72.8294 27.8466 72.7415 27.9664 72.6296 28.0464H71.0233V33.4405C71.0233 33.92 71.2231 34.1598 71.6227 34.1598C71.7985 34.1598 71.9903 34.1038 72.1981 33.9919C72.4218 33.8801 72.6216 33.7282 72.7974 33.5364L72.9892 33.7762C72.3019 34.6073 71.5348 35.0228 70.6877 35.0228ZM73.7157 30.9472C73.7157 29.6846 74.0753 28.6857 74.7946 27.9505C75.5298 27.2153 76.5207 26.8476 77.7674 26.8476C79.014 26.8476 80.0049 27.2232 80.7402 27.9744C81.4754 28.7096 81.843 29.7006 81.843 30.9472C81.843 32.1939 81.4754 33.1848 80.7402 33.92C80.0049 34.6552 79.014 35.0228 77.7674 35.0228C76.5207 35.0228 75.5298 34.6552 74.7946 33.92C74.0753 33.1848 73.7157 32.1939 73.7157 30.9472ZM79.4216 30.9952C79.4216 29.9243 79.2697 29.0533 78.9661 28.382C78.6624 27.6947 78.2788 27.3511 77.8153 27.3511C77.3039 27.3511 76.8883 27.6867 76.5687 28.358C76.249 29.0133 76.0892 29.8764 76.0892 30.9472C76.0892 32.0341 76.233 32.8971 76.5207 33.5364C76.8244 34.1757 77.2239 34.4954 77.7194 34.4954C78.2149 34.4954 78.6224 34.1757 78.9421 33.5364C79.2617 32.8811 79.4216 32.0341 79.4216 30.9952ZM89.6282 35.0228C88.9729 35.0228 88.5014 34.879 88.2137 34.5913C87.926 34.2876 87.7822 33.8002 87.7822 33.1289V28.0464H86.5835C86.5835 27.7746 86.5995 27.5988 86.6314 27.5189C86.6634 27.439 86.7593 27.3751 86.9191 27.3271C87.4466 27.1833 87.8621 26.9595 88.1658 26.6559C88.4695 26.3522 88.7172 25.9127 88.909 25.3373C88.9569 25.1615 89.0368 25.0576 89.1487 25.0256C89.2606 24.9777 89.5323 24.9537 89.9638 24.9537V27.1114H91.9297C91.9297 27.3191 91.8978 27.5109 91.8338 27.6867C91.7699 27.8466 91.682 27.9664 91.5701 28.0464H89.9638V33.4405C89.9638 33.92 90.1636 34.1598 90.5632 34.1598C90.739 34.1598 90.9308 34.1038 91.1386 33.9919C91.3623 33.8801 91.5621 33.7282 91.7379 33.5364L91.9297 33.7762C91.2425 34.6073 90.4753 35.0228 89.6282 35.0228ZM100.831 33.4405C100.831 33.92 100.983 34.1598 101.287 34.1598C101.591 34.1598 101.886 34.0399 102.174 33.8002L102.366 34.0399C101.774 34.6952 101.079 35.0228 100.28 35.0228C99.7047 35.0228 99.2891 34.879 99.0334 34.5913C98.7936 34.2876 98.6738 33.8002 98.6738 33.1289V29.4608C98.6738 28.5338 98.3781 28.0703 97.7867 28.0703C97.2113 28.0703 96.7478 28.4619 96.3962 29.2451C96.0446 30.0282 95.8688 31.0511 95.8688 32.3138C95.8688 32.8092 95.9008 33.2088 95.9647 33.5125C96.0446 33.8002 96.1725 34.0719 96.3483 34.3276L96.5401 34.5673L96.3483 34.8071H92.872L92.7282 34.3995L93.0638 34.3276C93.3195 34.2637 93.4874 34.1678 93.5673 34.0399C93.6472 33.896 93.6871 33.6243 93.6871 33.2248V24.666C93.6871 24.5381 93.6552 24.4342 93.5912 24.3543C93.5433 24.2744 93.4714 24.2345 93.3755 24.2345H92.6323L92.5364 23.9947C92.8401 23.707 93.2316 23.4833 93.7111 23.3234C94.2066 23.1476 94.6941 23.0597 95.1735 23.0597C95.3813 23.0597 95.5491 23.1077 95.677 23.2036C95.8049 23.2835 95.8688 23.4034 95.8688 23.5632V29.4848C96.0925 28.7336 96.4841 28.1103 97.0435 27.6148C97.6189 27.1034 98.2262 26.8476 98.8656 26.8476C99.5528 26.8476 100.048 27.0714 100.352 27.5189C100.672 27.9664 100.831 28.6777 100.831 29.6526V33.4405ZM107.654 34.2317C108.117 34.2317 108.525 34.1518 108.876 33.9919C109.228 33.8161 109.572 33.5284 109.907 33.1289L110.195 33.3446C109.827 33.8721 109.356 34.2876 108.781 34.5913C108.221 34.879 107.606 35.0228 106.935 35.0228C106.199 35.0228 105.536 34.847 104.945 34.4954C104.369 34.1438 103.914 33.6643 103.578 33.057C103.243 32.4336 103.075 31.7304 103.075 30.9472C103.075 29.7006 103.45 28.7096 104.201 27.9744C104.969 27.2232 105.984 26.8476 107.246 26.8476C108.141 26.8476 108.868 27.0634 109.428 27.4949C110.003 27.9105 110.291 28.4539 110.291 29.1252C110.291 29.8924 109.963 30.5077 109.308 30.9712C108.669 31.4187 107.79 31.6425 106.671 31.6425C106.223 31.6425 105.816 31.6105 105.448 31.5466C105.528 32.3777 105.768 33.033 106.167 33.5125C106.567 33.9919 107.062 34.2317 107.654 34.2317ZM106.982 27.423C106.487 27.423 106.095 27.7267 105.808 28.334C105.536 28.9254 105.4 29.7565 105.4 30.8274V31.2109C105.576 31.2109 105.792 31.195 106.048 31.163C106.719 31.0831 107.23 30.8673 107.582 30.5157C107.949 30.1481 108.133 29.6686 108.133 29.0772C108.133 28.5978 108.021 28.2062 107.798 27.9025C107.59 27.5829 107.318 27.423 106.982 27.423ZM119.01 35.0228C118.243 35.0228 117.644 34.7751 117.212 34.2796C116.797 33.7682 116.509 32.9531 116.349 31.8343L115.846 28.382C115.83 28.2541 115.798 28.1662 115.75 28.1183C115.702 28.0703 115.63 28.0464 115.534 28.0464H114.887L114.815 27.7826C115.134 27.4949 115.518 27.2712 115.966 27.1114C116.413 26.9356 116.853 26.8476 117.284 26.8476C117.524 26.8476 117.692 26.9196 117.788 27.0634C117.899 27.2073 117.987 27.487 118.051 27.9025L118.675 32.2179C118.786 33.001 118.914 33.5364 119.058 33.8241C119.202 34.1118 119.418 34.2557 119.705 34.2557C120.153 34.2557 120.505 33.984 120.76 33.4405C121.032 32.8811 121.168 32.1459 121.168 31.2349C121.168 30.3079 121.048 29.3569 120.808 28.382C120.776 28.2541 120.744 28.1662 120.712 28.1183C120.68 28.0703 120.608 28.0464 120.497 28.0464H119.873L119.801 27.7826C120.105 27.4949 120.481 27.2712 120.928 27.1114C121.376 26.9356 121.823 26.8476 122.271 26.8476C122.494 26.8476 122.662 26.9276 122.774 27.0874C122.886 27.2312 122.966 27.5029 123.014 27.9025L123.613 32.098C123.741 32.9611 123.877 33.5364 124.021 33.8241C124.181 34.1118 124.372 34.2557 124.596 34.2557C125.028 34.2557 125.371 33.936 125.627 33.2967C125.899 32.6414 126.035 31.7943 126.035 30.7554C126.035 30.0522 125.963 29.4448 125.819 28.9334C125.691 28.406 125.475 27.9425 125.172 27.5429L124.98 27.2792L125.148 27.0874L127.161 26.8476C127.209 27.471 127.233 28.0224 127.233 28.5019C127.233 30.5477 126.938 32.1459 126.346 33.2967C125.771 34.4475 124.94 35.0228 123.853 35.0228C123.198 35.0228 122.702 34.855 122.367 34.5194C122.031 34.1837 121.751 33.5684 121.528 32.6734C121.208 34.2397 120.369 35.0228 119.01 35.0228ZM131.468 29.5088C131.133 29.7006 130.733 29.7965 130.269 29.7965C129.934 29.7965 129.67 29.7006 129.478 29.5088C129.287 29.301 129.191 29.0133 129.191 28.6457C129.191 28.1023 129.454 27.6708 129.982 27.3511C130.525 27.0155 131.228 26.8476 132.091 26.8476C133.114 26.8476 133.914 27.0714 134.489 27.5189C135.08 27.9664 135.376 28.5738 135.376 29.341V33.4885C135.376 33.936 135.536 34.1598 135.855 34.1598C136.159 34.1598 136.455 34.0399 136.742 33.8002L136.934 34.0399C136.343 34.6952 135.64 35.0228 134.825 35.0228C134.345 35.0228 133.977 34.903 133.722 34.6632C133.482 34.4235 133.338 34.0479 133.29 33.5364H133.194C132.939 33.9999 132.595 34.3675 132.163 34.6392C131.748 34.895 131.268 35.0228 130.725 35.0228C130.118 35.0228 129.63 34.839 129.263 34.4714C128.895 34.0878 128.711 33.5924 128.711 32.985C128.711 32.2978 129.039 31.7544 129.694 31.3548C130.349 30.9552 131.236 30.7554 132.355 30.7554C132.563 30.7554 132.859 30.7714 133.242 30.8034V29.6047C133.242 28.8215 133.146 28.2621 132.955 27.9265C132.763 27.5749 132.451 27.3991 132.02 27.3991C131.716 27.3991 131.476 27.4949 131.3 27.6867C131.125 27.8785 131.037 28.1263 131.037 28.4299C131.037 28.9094 131.18 29.269 131.468 29.5088ZM131.828 33.8241C132.771 33.8241 133.242 32.969 133.242 31.2589C132.443 31.2589 131.844 31.3947 131.444 31.6665C131.045 31.9222 130.845 32.2898 130.845 32.7693C130.845 33.0889 130.933 33.3446 131.109 33.5364C131.284 33.7282 131.524 33.8241 131.828 33.8241ZM140.488 33.4405C140.488 33.92 140.64 34.1598 140.944 34.1598C141.247 34.1598 141.543 34.0399 141.831 33.8002L142.022 34.0399C141.431 34.6952 140.736 35.0228 139.937 35.0228C139.361 35.0228 138.946 34.879 138.69 34.5913C138.434 34.2876 138.306 33.8002 138.306 33.1289V28.382C138.306 28.1582 138.203 28.0464 137.995 28.0464H137.252L137.18 27.7826C137.499 27.5109 137.899 27.2872 138.378 27.1114C138.858 26.9356 139.337 26.8476 139.817 26.8476C140.009 26.8476 140.168 26.8956 140.296 26.9915C140.424 27.0874 140.488 27.2153 140.488 27.3751V33.4405ZM138.067 24.5461C138.067 24.2584 138.226 23.9388 138.546 23.5872C138.866 23.2355 139.161 23.0597 139.433 23.0597C139.721 23.0597 140.025 23.2355 140.344 23.5872C140.68 23.9388 140.848 24.2584 140.848 24.5461C140.848 24.8498 140.68 25.1774 140.344 25.5291C140.025 25.8647 139.721 26.0325 139.433 26.0325C139.161 26.0325 138.866 25.8647 138.546 25.5291C138.226 25.1774 138.067 24.8498 138.067 24.5461ZM145.209 35.0228C144.554 35.0228 144.082 34.879 143.794 34.5913C143.507 34.2876 143.363 33.8002 143.363 33.1289V28.0464H142.164C142.164 27.7746 142.18 27.5988 142.212 27.5189C142.244 27.439 142.34 27.3751 142.5 27.3271C143.027 27.1833 143.443 26.9595 143.746 26.6559C144.05 26.3522 144.298 25.9127 144.49 25.3373C144.538 25.1615 144.618 25.0576 144.729 25.0256C144.841 24.9777 145.113 24.9537 145.545 24.9537V27.1114H147.51C147.51 27.3191 147.478 27.5109 147.415 27.6867C147.351 27.8466 147.263 27.9664 147.151 28.0464H145.545V33.4405C145.545 33.92 145.744 34.1598 146.144 34.1598C146.32 34.1598 146.512 34.1038 146.719 33.9919C146.943 33.8801 147.143 33.7282 147.319 33.5364L147.51 33.7762C146.823 34.6073 146.056 35.0228 145.209 35.0228ZM152.816 34.2317C153.28 34.2317 153.687 34.1518 154.039 33.9919C154.39 33.8161 154.734 33.5284 155.07 33.1289L155.357 33.3446C154.99 33.8721 154.518 34.2876 153.943 34.5913C153.383 34.879 152.768 35.0228 152.097 35.0228C151.362 35.0228 150.698 34.847 150.107 34.4954C149.532 34.1438 149.076 33.6643 148.74 33.057C148.405 32.4336 148.237 31.7304 148.237 30.9472C148.237 29.7006 148.613 28.7096 149.364 27.9744C150.131 27.2232 151.146 26.8476 152.408 26.8476C153.304 26.8476 154.031 27.0634 154.59 27.4949C155.165 27.9105 155.453 28.4539 155.453 29.1252C155.453 29.8924 155.126 30.5077 154.47 30.9712C153.831 31.4187 152.952 31.6425 151.833 31.6425C151.386 31.6425 150.978 31.6105 150.61 31.5466C150.69 32.3777 150.93 33.033 151.33 33.5125C151.729 33.9919 152.225 34.2317 152.816 34.2317ZM152.145 27.423C151.649 27.423 151.258 27.7267 150.97 28.334C150.698 28.9254 150.562 29.7565 150.562 30.8274V31.2109C150.738 31.2109 150.954 31.195 151.21 31.163C151.881 31.0831 152.392 30.8673 152.744 30.5157C153.112 30.1481 153.296 29.6686 153.296 29.0772C153.296 28.5978 153.184 28.2062 152.96 27.9025C152.752 27.5829 152.48 27.423 152.145 27.423ZM161.728 26.8476C162.239 26.8476 162.655 26.9995 162.975 27.3032C163.294 27.5908 163.454 27.9664 163.454 28.4299C163.454 28.8615 163.326 29.2131 163.07 29.4848C162.815 29.7405 162.479 29.8684 162.063 29.8684C161.744 29.8684 161.448 29.8045 161.176 29.6766C161.464 29.4369 161.608 29.0772 161.608 28.5978C161.608 28.374 161.56 28.1982 161.464 28.0703C161.368 27.9425 161.24 27.8785 161.081 27.8785C160.697 27.8785 160.377 28.2701 160.122 29.0533C159.866 29.8204 159.738 30.7794 159.738 31.9302C159.738 32.5215 159.77 32.993 159.834 33.3446C159.914 33.6963 160.042 34.0239 160.217 34.3276L160.409 34.5673L160.217 34.8071H156.741L156.597 34.3995L156.933 34.3276C157.189 34.2637 157.357 34.1678 157.436 34.0399C157.516 33.896 157.556 33.6243 157.556 33.2248V28.5498C157.556 28.2461 157.452 28.0943 157.245 28.0943H156.501L156.406 27.8306C156.709 27.5589 157.085 27.3351 157.532 27.1593C157.996 26.9835 158.451 26.8956 158.899 26.8956C159.107 26.8956 159.275 26.9435 159.402 27.0394C159.53 27.1353 159.594 27.2632 159.594 27.423V29.1731H159.666C160.002 27.6228 160.689 26.8476 161.728 26.8476ZM171.781 35.0228C171.014 35.0228 170.415 34.7751 169.983 34.2796C169.568 33.7682 169.28 32.9531 169.12 31.8343L168.617 28.382C168.601 28.2541 168.569 28.1662 168.521 28.1183C168.473 28.0703 168.401 28.0464 168.305 28.0464H167.658L167.586 27.7826C167.906 27.4949 168.289 27.2712 168.737 27.1114C169.184 26.9356 169.624 26.8476 170.055 26.8476C170.295 26.8476 170.463 26.9196 170.559 27.0634C170.671 27.2073 170.759 27.487 170.822 27.9025L171.446 32.2179C171.558 33.001 171.686 33.5364 171.829 33.8241C171.973 34.1118 172.189 34.2557 172.477 34.2557C172.924 34.2557 173.276 33.984 173.532 33.4405C173.803 32.8811 173.939 32.1459 173.939 31.2349C173.939 30.3079 173.819 29.3569 173.58 28.382C173.548 28.2541 173.516 28.1662 173.484 28.1183C173.452 28.0703 173.38 28.0464 173.268 28.0464H172.645L172.573 27.7826C172.876 27.4949 173.252 27.2712 173.699 27.1114C174.147 26.9356 174.594 26.8476 175.042 26.8476C175.266 26.8476 175.434 26.9276 175.545 27.0874C175.657 27.2312 175.737 27.5029 175.785 27.9025L176.384 32.098C176.512 32.9611 176.648 33.5364 176.792 33.8241C176.952 34.1118 177.144 34.2557 177.367 34.2557C177.799 34.2557 178.143 33.936 178.398 33.2967C178.67 32.6414 178.806 31.7943 178.806 30.7554C178.806 30.0522 178.734 29.4448 178.59 28.9334C178.462 28.406 178.246 27.9425 177.943 27.5429L177.751 27.2792L177.919 27.0874L179.933 26.8476C179.981 27.471 180.005 28.0224 180.005 28.5019C180.005 30.5477 179.709 32.1459 179.118 33.2967C178.542 34.4475 177.711 35.0228 176.624 35.0228C175.969 35.0228 175.473 34.855 175.138 34.5194C174.802 34.1837 174.523 33.5684 174.299 32.6734C173.979 34.2397 173.14 35.0228 171.781 35.0228ZM189.658 33.4405C189.658 33.92 189.809 34.1598 190.113 34.1598C190.417 34.1598 190.712 34.0399 191 33.8002L191.192 34.0399C190.601 34.6952 189.905 35.0228 189.106 35.0228C188.531 35.0228 188.115 34.879 187.86 34.5913C187.62 34.2876 187.5 33.8002 187.5 33.1289V29.4608C187.5 28.5338 187.204 28.0703 186.613 28.0703C186.037 28.0703 185.574 28.4619 185.222 29.2451C184.871 30.0282 184.695 31.0511 184.695 32.3138C184.695 32.8092 184.727 33.2088 184.791 33.5125C184.871 33.8002 184.999 34.0719 185.174 34.3276L185.366 34.5673L185.174 34.8071H181.698L181.554 34.3995L181.89 34.3276C182.146 34.2637 182.313 34.1678 182.393 34.0399C182.473 33.896 182.513 33.6243 182.513 33.2248V24.666C182.513 24.5381 182.481 24.4342 182.417 24.3543C182.369 24.2744 182.297 24.2345 182.202 24.2345H181.458L181.363 23.9947C181.666 23.707 182.058 23.4833 182.537 23.3234C183.033 23.1476 183.52 23.0597 184 23.0597C184.207 23.0597 184.375 23.1077 184.503 23.2036C184.631 23.2835 184.695 23.4034 184.695 23.5632V29.4848C184.919 28.7336 185.31 28.1103 185.87 27.6148C186.445 27.1034 187.052 26.8476 187.692 26.8476C188.379 26.8476 188.874 27.0714 189.178 27.5189C189.498 27.9664 189.658 28.6777 189.658 29.6526V33.4405ZM196.48 34.2317C196.943 34.2317 197.351 34.1518 197.703 33.9919C198.054 33.8161 198.398 33.5284 198.733 33.1289L199.021 33.3446C198.654 33.8721 198.182 34.2876 197.607 34.5913C197.047 34.879 196.432 35.0228 195.761 35.0228C195.025 35.0228 194.362 34.847 193.771 34.4954C193.195 34.1438 192.74 33.6643 192.404 33.057C192.069 32.4336 191.901 31.7304 191.901 30.9472C191.901 29.7006 192.276 28.7096 193.028 27.9744C193.795 27.2232 194.81 26.8476 196.072 26.8476C196.967 26.8476 197.695 27.0634 198.254 27.4949C198.829 27.9105 199.117 28.4539 199.117 29.1252C199.117 29.8924 198.789 30.5077 198.134 30.9712C197.495 31.4187 196.616 31.6425 195.497 31.6425C195.049 31.6425 194.642 31.6105 194.274 31.5466C194.354 32.3777 194.594 33.033 194.993 33.5125C195.393 33.9919 195.889 34.2317 196.48 34.2317ZM195.809 27.423C195.313 27.423 194.922 27.7267 194.634 28.334C194.362 28.9254 194.226 29.7565 194.226 30.8274V31.2109C194.402 31.2109 194.618 31.195 194.874 31.163C195.545 31.0831 196.056 30.8673 196.408 30.5157C196.776 30.1481 196.959 29.6686 196.959 29.0772C196.959 28.5978 196.847 28.2062 196.624 27.9025C196.416 27.5829 196.144 27.423 195.809 27.423ZM208.508 33.4405C208.508 33.92 208.66 34.1598 208.964 34.1598C209.268 34.1598 209.563 34.0399 209.851 33.8002L210.043 34.0399C209.451 34.6952 208.756 35.0228 207.957 35.0228C207.382 35.0228 206.966 34.879 206.71 34.5913C206.471 34.2876 206.351 33.8002 206.351 33.1289V29.4608C206.351 28.5338 206.055 28.0703 205.464 28.0703C204.888 28.0703 204.417 28.4619 204.049 29.2451C203.698 30.0282 203.522 31.0511 203.522 32.3138C203.522 32.7932 203.562 33.1848 203.642 33.4885C203.722 33.7762 203.849 34.0559 204.025 34.3276L204.217 34.5673L204.025 34.8071H200.549L200.405 34.3995L200.741 34.3276C200.996 34.2637 201.164 34.1678 201.244 34.0399C201.324 33.896 201.364 33.6243 201.364 33.2248V28.5498C201.364 28.2461 201.26 28.0943 201.052 28.0943H200.285L200.213 27.8306C200.533 27.5589 200.933 27.3351 201.412 27.1593C201.891 26.9835 202.371 26.8956 202.85 26.8956C203.058 26.8956 203.218 26.9435 203.33 27.0394C203.458 27.1353 203.522 27.2632 203.522 27.423V29.4848C203.745 28.7336 204.145 28.1103 204.72 27.6148C205.296 27.1034 205.903 26.8476 206.542 26.8476C207.23 26.8476 207.725 27.0714 208.029 27.5189C208.349 27.9664 208.508 28.6777 208.508 29.6526V33.4405ZM220.504 26.8476C221.32 26.8476 221.975 27.2073 222.47 27.9265C222.982 28.6297 223.237 29.5567 223.237 30.7075C223.237 31.5226 223.086 32.2578 222.782 32.9131C222.494 33.5524 222.079 34.0559 221.535 34.4235C221.008 34.7751 220.409 34.9509 219.737 34.9509C219.354 34.9509 218.986 34.895 218.634 34.7831C218.299 34.6552 218.011 34.4794 217.771 34.2557V36.9887C217.771 37.3723 217.819 37.628 217.915 37.7559C218.027 37.8997 218.275 38.0116 218.658 38.0915L218.97 38.1634L218.826 38.571H215.11L214.918 38.3313L215.11 38.0915C215.302 37.8358 215.43 37.5561 215.494 37.2524C215.574 36.9647 215.614 36.5732 215.614 36.0777V28.5498C215.614 28.2621 215.51 28.1183 215.302 28.1183H214.559L214.487 27.8546C214.791 27.5829 215.182 27.3591 215.662 27.1833C216.157 27.0075 216.637 26.9196 217.1 26.9196C217.308 26.9196 217.468 26.9675 217.58 27.0634C217.707 27.1593 217.771 27.2872 217.771 27.447V28.5019C218.171 27.9265 218.587 27.5109 219.018 27.2552C219.466 26.9835 219.961 26.8476 220.504 26.8476ZM218.826 34.2557C219.482 34.2557 219.977 33.976 220.313 33.4166C220.664 32.8572 220.84 32.0341 220.84 30.9472C220.84 30.0042 220.712 29.285 220.456 28.7896C220.201 28.2781 219.833 28.0224 219.354 28.0224C218.714 28.0224 218.187 28.4459 217.771 29.293V33.944C218.075 34.1518 218.427 34.2557 218.826 34.2557ZM227.107 29.5088C226.772 29.7006 226.372 29.7965 225.909 29.7965C225.573 29.7965 225.309 29.7006 225.117 29.5088C224.926 29.301 224.83 29.0133 224.83 28.6457C224.83 28.1023 225.093 27.6708 225.621 27.3511C226.164 27.0155 226.868 26.8476 227.731 26.8476C228.753 26.8476 229.553 27.0714 230.128 27.5189C230.719 27.9664 231.015 28.5738 231.015 29.341V33.4885C231.015 33.936 231.175 34.1598 231.495 34.1598C231.798 34.1598 232.094 34.0399 232.382 33.8002L232.573 34.0399C231.982 34.6952 231.279 35.0228 230.464 35.0228C229.984 35.0228 229.617 34.903 229.361 34.6632C229.121 34.4235 228.977 34.0479 228.929 33.5364H228.833C228.578 33.9999 228.234 34.3675 227.803 34.6392C227.387 34.895 226.907 35.0228 226.364 35.0228C225.757 35.0228 225.269 34.839 224.902 34.4714C224.534 34.0878 224.35 33.5924 224.35 32.985C224.35 32.2978 224.678 31.7544 225.333 31.3548C225.988 30.9552 226.876 30.7554 227.994 30.7554C228.202 30.7554 228.498 30.7714 228.881 30.8034V29.6047C228.881 28.8215 228.785 28.2621 228.594 27.9265C228.402 27.5749 228.09 27.3991 227.659 27.3991C227.355 27.3991 227.115 27.4949 226.939 27.6867C226.764 27.8785 226.676 28.1263 226.676 28.4299C226.676 28.9094 226.82 29.269 227.107 29.5088ZM227.467 33.8241C228.41 33.8241 228.881 32.969 228.881 31.2589C228.082 31.2589 227.483 31.3947 227.083 31.6665C226.684 31.9222 226.484 32.2898 226.484 32.7693C226.484 33.0889 226.572 33.3446 226.748 33.5364C226.923 33.7282 227.163 33.8241 227.467 33.8241ZM240.946 26.8956V34.8071C240.946 36.0697 240.578 37.0447 239.843 37.7319C239.124 38.4352 238.117 38.7868 236.822 38.7868C236.023 38.7868 235.376 38.6349 234.881 38.3313C234.385 38.0276 234.137 37.628 234.137 37.1326C234.137 36.701 234.265 36.3494 234.521 36.0777C234.777 35.822 235.112 35.6941 235.528 35.6941C235.831 35.6941 236.127 35.758 236.415 35.8859C236.127 36.1736 235.983 36.5652 235.983 37.0606C235.983 37.4123 236.087 37.6999 236.295 37.9237C236.519 38.1475 236.798 38.2593 237.134 38.2593C238.253 38.2593 238.812 37.3483 238.812 35.5263V32.4816C238.604 33.0889 238.237 33.5924 237.709 33.9919C237.198 34.3755 236.647 34.5673 236.055 34.5673C235.352 34.5673 234.833 34.3516 234.497 33.92C234.161 33.4885 233.993 32.8332 233.993 31.9541V28.382C233.993 28.1582 233.89 28.0464 233.682 28.0464H232.939L232.867 27.7826C233.17 27.5109 233.57 27.2872 234.065 27.1114C234.561 26.9356 235.032 26.8476 235.48 26.8476C235.688 26.8476 235.847 26.8956 235.959 26.9915C236.087 27.0874 236.151 27.2153 236.151 27.3751V32.2179C236.151 33.1129 236.431 33.5604 236.99 33.5604C237.534 33.5604 237.973 33.2328 238.309 32.5775C238.644 31.9222 238.812 31.0511 238.812 29.9643C238.812 29.3889 238.764 28.9174 238.668 28.5498C238.573 28.1822 238.421 27.8626 238.213 27.5908L238.021 27.3271L238.189 27.1114L240.946 26.8956ZM245.867 33.4405C245.867 33.92 246.018 34.1598 246.322 34.1598C246.626 34.1598 246.922 34.0399 247.209 33.8002L247.401 34.0399C246.81 34.6952 246.114 35.0228 245.315 35.0228C244.74 35.0228 244.324 34.879 244.069 34.5913C243.813 34.2876 243.685 33.8002 243.685 33.1289V28.382C243.685 28.1582 243.581 28.0464 243.373 28.0464H242.63L242.558 27.7826C242.878 27.5109 243.277 27.2872 243.757 27.1114C244.236 26.9356 244.716 26.8476 245.195 26.8476C245.387 26.8476 245.547 26.8956 245.675 26.9915C245.803 27.0874 245.867 27.2153 245.867 27.3751V33.4405ZM243.445 24.5461C243.445 24.2584 243.605 23.9388 243.925 23.5872C244.244 23.2355 244.54 23.0597 244.812 23.0597C245.099 23.0597 245.403 23.2355 245.723 23.5872C246.058 23.9388 246.226 24.2584 246.226 24.5461C246.226 24.8498 246.058 25.1774 245.723 25.5291C245.403 25.8647 245.099 26.0325 244.812 26.0325C244.54 26.0325 244.244 25.8647 243.925 25.5291C243.605 25.1774 243.445 24.8498 243.445 24.5461ZM256.269 33.4405C256.269 33.92 256.421 34.1598 256.725 34.1598C257.029 34.1598 257.324 34.0399 257.612 33.8002L257.804 34.0399C257.212 34.6952 256.517 35.0228 255.718 35.0228C255.143 35.0228 254.727 34.879 254.471 34.5913C254.232 34.2876 254.112 33.8002 254.112 33.1289V29.4608C254.112 28.5338 253.816 28.0703 253.225 28.0703C252.649 28.0703 252.178 28.4619 251.81 29.2451C251.459 30.0282 251.283 31.0511 251.283 32.3138C251.283 32.7932 251.323 33.1848 251.403 33.4885C251.483 33.7762 251.61 34.0559 251.786 34.3276L251.978 34.5673L251.786 34.8071H248.31L248.166 34.3995L248.502 34.3276C248.757 34.2637 248.925 34.1678 249.005 34.0399C249.085 33.896 249.125 33.6243 249.125 33.2248V28.5498C249.125 28.2461 249.021 28.0943 248.813 28.0943H248.046L247.974 27.8306C248.294 27.5589 248.694 27.3351 249.173 27.1593C249.653 26.9835 250.132 26.8956 250.611 26.8956C250.819 26.8956 250.979 26.9435 251.091 27.0394C251.219 27.1353 251.283 27.2632 251.283 27.423V29.4848C251.507 28.7336 251.906 28.1103 252.481 27.6148C253.057 27.1034 253.664 26.8476 254.304 26.8476C254.991 26.8476 255.486 27.0714 255.79 27.5189C256.11 27.9664 256.269 28.6777 256.269 29.6526V33.4405ZM261.17 37.0606C261.17 37.4123 261.274 37.6999 261.482 37.9237C261.705 38.1475 261.985 38.2593 262.321 38.2593C263.439 38.2593 263.999 37.3483 263.999 35.5263V33.2008C263.599 33.6643 263.184 34.0079 262.752 34.2317C262.321 34.4554 261.841 34.5673 261.314 34.5673C260.531 34.5673 259.891 34.2397 259.396 33.5844C258.916 32.9291 258.677 32.066 258.677 30.9952C258.677 29.7166 259.068 28.7096 259.851 27.9744C260.634 27.2232 261.689 26.8476 263.016 26.8476C263.368 26.8476 263.751 26.8796 264.167 26.9435C264.598 27.0075 264.862 27.0474 264.958 27.0634C265.629 27.1593 266.093 27.2232 266.348 27.2552L266.54 27.447L266.348 27.7347C266.204 27.9265 266.133 28.1263 266.133 28.334V34.8071C266.133 36.0697 265.765 37.0447 265.03 37.7319C264.31 38.4352 263.304 38.7868 262.009 38.7868C261.21 38.7868 260.563 38.6349 260.067 38.3313C259.572 38.0276 259.324 37.628 259.324 37.1326C259.324 36.701 259.452 36.3494 259.707 36.0777C259.963 35.822 260.299 35.6941 260.714 35.6941C261.018 35.6941 261.314 35.758 261.601 35.8859C261.314 36.1736 261.17 36.5652 261.17 37.0606ZM262.464 33.4166C263.104 33.4166 263.607 33.0809 263.975 32.4097V27.6388C263.607 27.479 263.256 27.3991 262.92 27.3991C262.313 27.3991 261.849 27.6708 261.529 28.2142C261.226 28.7416 261.074 29.5168 261.074 30.5397C261.074 31.4667 261.194 32.1779 261.434 32.6734C261.673 33.1688 262.017 33.4166 262.464 33.4166ZM275.133 33.2248C275.133 33.6084 275.181 33.8721 275.277 34.0159C275.389 34.1438 275.637 34.2477 276.02 34.3276L276.332 34.3995L276.188 34.8071H272.448L272.256 34.5673L272.448 34.3276C272.64 34.0719 272.768 33.8002 272.832 33.5125C272.911 33.2088 272.951 32.8012 272.951 32.2898V28.0464H271.729C271.729 27.7746 271.745 27.5988 271.777 27.5189C271.809 27.439 271.905 27.3751 272.064 27.3271L272.951 27.1114C272.951 25.7368 273.247 24.682 273.838 23.9468C274.446 23.2116 275.309 22.844 276.428 22.844C277.131 22.844 277.698 22.9958 278.13 23.2995C278.577 23.6031 278.801 24.0027 278.801 24.4982C278.801 24.9297 278.673 25.2813 278.418 25.553C278.162 25.8088 277.826 25.9366 277.411 25.9366C277.091 25.9366 276.795 25.8727 276.524 25.7448C276.811 25.5051 276.955 25.1455 276.955 24.666C276.955 24.2824 276.883 23.9787 276.739 23.755C276.596 23.5312 276.396 23.4193 276.14 23.4193C275.82 23.4193 275.573 23.5872 275.397 23.9228C275.221 24.2584 275.133 24.7299 275.133 25.3373V27.1114H276.883C276.883 27.5589 276.763 27.8705 276.524 28.0464H275.133V33.2248ZM277.473 30.9472C277.473 29.6846 277.832 28.6857 278.552 27.9505C279.287 27.2153 280.278 26.8476 281.524 26.8476C282.771 26.8476 283.762 27.2232 284.497 27.9744C285.232 28.7096 285.6 29.7006 285.6 30.9472C285.6 32.1939 285.232 33.1848 284.497 33.92C283.762 34.6552 282.771 35.0228 281.524 35.0228C280.278 35.0228 279.287 34.6552 278.552 33.92C277.832 33.1848 277.473 32.1939 277.473 30.9472ZM283.179 30.9952C283.179 29.9243 283.027 29.0533 282.723 28.382C282.419 27.6947 282.036 27.3511 281.572 27.3511C281.061 27.3511 280.645 27.6867 280.326 28.358C280.006 29.0133 279.846 29.8764 279.846 30.9472C279.846 32.0341 279.99 32.8971 280.278 33.5364C280.581 34.1757 280.981 34.4954 281.476 34.4954C281.972 34.4954 282.379 34.1757 282.699 33.5364C283.019 32.8811 283.179 32.0341 283.179 30.9952ZM291.923 26.8476C292.435 26.8476 292.85 26.9995 293.17 27.3032C293.49 27.5908 293.65 27.9664 293.65 28.4299C293.65 28.8615 293.522 29.2131 293.266 29.4848C293.01 29.7405 292.675 29.8684 292.259 29.8684C291.939 29.8684 291.644 29.8045 291.372 29.6766C291.66 29.4369 291.804 29.0772 291.804 28.5978C291.804 28.374 291.756 28.1982 291.66 28.0703C291.564 27.9425 291.436 27.8785 291.276 27.8785C290.893 27.8785 290.573 28.2701 290.317 29.0533C290.061 29.8204 289.934 30.7794 289.934 31.9302C289.934 32.5215 289.966 32.993 290.03 33.3446C290.109 33.6963 290.237 34.0239 290.413 34.3276L290.605 34.5673L290.413 34.8071H286.937L286.793 34.3995L287.129 34.3276C287.384 34.2637 287.552 34.1678 287.632 34.0399C287.712 33.896 287.752 33.6243 287.752 33.2248V28.5498C287.752 28.2461 287.648 28.0943 287.44 28.0943H286.697L286.601 27.8306C286.905 27.5589 287.28 27.3351 287.728 27.1593C288.191 26.9835 288.647 26.8956 289.095 26.8956C289.302 26.8956 289.47 26.9435 289.598 27.0394C289.726 27.1353 289.79 27.2632 289.79 27.423V29.1731H289.862C290.197 27.6228 290.885 26.8476 291.923 26.8476ZM115.417 57.0228C114.762 57.0228 114.29 56.879 114.002 56.5913C113.715 56.2876 113.571 55.8002 113.571 55.1289V50.0464H112.372C112.372 49.7746 112.388 49.5988 112.42 49.5189C112.452 49.439 112.548 49.3751 112.708 49.3271C113.235 49.1833 113.651 48.9595 113.954 48.6559C114.258 48.3522 114.506 47.9127 114.698 47.3373C114.746 47.1615 114.825 47.0576 114.937 47.0256C115.049 46.9777 115.321 46.9537 115.752 46.9537V49.1114H117.718C117.718 49.3191 117.686 49.5109 117.622 49.6867C117.558 49.8466 117.471 49.9664 117.359 50.0464H115.752V55.4405C115.752 55.92 115.952 56.1598 116.352 56.1598C116.528 56.1598 116.719 56.1038 116.927 55.9919C117.151 55.8801 117.351 55.7282 117.527 55.5364L117.718 55.7762C117.031 56.6073 116.264 57.0228 115.417 57.0228ZM126.62 55.4405C126.62 55.92 126.772 56.1598 127.076 56.1598C127.379 56.1598 127.675 56.0399 127.963 55.8002L128.154 56.0399C127.563 56.6952 126.868 57.0228 126.069 57.0228C125.493 57.0228 125.078 56.879 124.822 56.5913C124.582 56.2876 124.462 55.8002 124.462 55.1289V51.4608C124.462 50.5338 124.167 50.0703 123.575 50.0703C123 50.0703 122.536 50.4619 122.185 51.2451C121.833 52.0282 121.657 53.0511 121.657 54.3138C121.657 54.8092 121.689 55.2088 121.753 55.5125C121.833 55.8002 121.961 56.0719 122.137 56.3276L122.329 56.5673L122.137 56.8071H118.661L118.517 56.3995L118.852 56.3276C119.108 56.2637 119.276 56.1678 119.356 56.0399C119.436 55.896 119.476 55.6243 119.476 55.2248V46.666C119.476 46.5381 119.444 46.4342 119.38 46.3543C119.332 46.2744 119.26 46.2345 119.164 46.2345H118.421L118.325 45.9947C118.629 45.707 119.02 45.4833 119.5 45.3234C119.995 45.1476 120.483 45.0597 120.962 45.0597C121.17 45.0597 121.338 45.1077 121.466 45.2036C121.593 45.2835 121.657 45.4034 121.657 45.5632V51.4848C121.881 50.7336 122.273 50.1103 122.832 49.6148C123.408 49.1034 124.015 48.8476 124.654 48.8476C125.341 48.8476 125.837 49.0714 126.141 49.5189C126.46 49.9664 126.62 50.6777 126.62 51.6526V55.4405ZM133.442 56.2317C133.906 56.2317 134.313 56.1518 134.665 55.9919C135.017 55.8161 135.36 55.5284 135.696 55.1289L135.984 55.3446C135.616 55.8721 135.145 56.2876 134.569 56.5913C134.01 56.879 133.394 57.0228 132.723 57.0228C131.988 57.0228 131.325 56.847 130.733 56.4954C130.158 56.1438 129.702 55.6643 129.367 55.057C129.031 54.4336 128.863 53.7304 128.863 52.9472C128.863 51.7006 129.239 50.7096 129.99 49.9744C130.757 49.2232 131.772 48.8476 133.035 48.8476C133.93 48.8476 134.657 49.0634 135.216 49.4949C135.792 49.9105 136.08 50.4539 136.08 51.1252C136.08 51.8924 135.752 52.5077 135.097 52.9712C134.457 53.4187 133.578 53.6425 132.459 53.6425C132.012 53.6425 131.604 53.6105 131.237 53.5466C131.317 54.3777 131.556 55.033 131.956 55.5125C132.356 55.9919 132.851 56.2317 133.442 56.2317ZM132.771 49.423C132.276 49.423 131.884 49.7267 131.596 50.334C131.325 50.9254 131.189 51.7565 131.189 52.8274V53.2109C131.365 53.2109 131.58 53.195 131.836 53.163C132.507 53.0831 133.019 52.8673 133.37 52.5157C133.738 52.1481 133.922 51.6686 133.922 51.0772C133.922 50.5978 133.81 50.2062 133.586 49.9025C133.378 49.5829 133.107 49.423 132.771 49.423ZM141.155 52.9472C141.155 51.6846 141.514 50.6857 142.234 49.9505C142.969 49.2153 143.96 48.8476 145.206 48.8476C146.453 48.8476 147.444 49.2232 148.179 49.9744C148.914 50.7096 149.282 51.7006 149.282 52.9472C149.282 54.1939 148.914 55.1848 148.179 55.92C147.444 56.6552 146.453 57.0228 145.206 57.0228C143.96 57.0228 142.969 56.6552 142.234 55.92C141.514 55.1848 141.155 54.1939 141.155 52.9472ZM146.861 52.9952C146.861 51.9243 146.709 51.0533 146.405 50.382C146.101 49.6947 145.718 49.3511 145.254 49.3511C144.743 49.3511 144.327 49.6867 144.008 50.358C143.688 51.0133 143.528 51.8764 143.528 52.9472C143.528 54.0341 143.672 54.8971 143.96 55.5364C144.263 56.1757 144.663 56.4954 145.158 56.4954C145.654 56.4954 146.061 56.1757 146.381 55.5364C146.701 54.8811 146.861 54.0341 146.861 52.9952ZM155.606 48.8476C156.117 48.8476 156.533 48.9995 156.852 49.3032C157.172 49.5908 157.332 49.9664 157.332 50.4299C157.332 50.8615 157.204 51.2131 156.948 51.4848C156.692 51.7405 156.357 51.8684 155.941 51.8684C155.622 51.8684 155.326 51.8045 155.054 51.6766C155.342 51.4369 155.486 51.0772 155.486 50.5978C155.486 50.374 155.438 50.1982 155.342 50.0703C155.246 49.9425 155.118 49.8785 154.958 49.8785C154.575 49.8785 154.255 50.2701 153.999 51.0533C153.744 51.8204 153.616 52.7794 153.616 53.9302C153.616 54.5215 153.648 54.993 153.712 55.3446C153.792 55.6963 153.919 56.0239 154.095 56.3276L154.287 56.5673L154.095 56.8071H150.619L150.475 56.3995L150.811 56.3276C151.066 56.2637 151.234 56.1678 151.314 56.0399C151.394 55.896 151.434 55.6243 151.434 55.2248V50.5498C151.434 50.2461 151.33 50.0943 151.122 50.0943H150.379L150.283 49.8306C150.587 49.5589 150.963 49.3351 151.41 49.1593C151.874 48.9835 152.329 48.8956 152.777 48.8956C152.984 48.8956 153.152 48.9435 153.28 49.0394C153.408 49.1353 153.472 49.2632 153.472 49.423V51.1731H153.544C153.879 49.6228 154.567 48.8476 155.606 48.8476ZM167.146 56.0399C166.555 56.6952 165.86 57.0228 165.061 57.0228C164.565 57.0228 164.197 56.9189 163.958 56.7112C163.718 56.4874 163.558 56.1278 163.478 55.6323C163.063 56.1118 162.631 56.4634 162.184 56.6872C161.736 56.911 161.241 57.0228 160.697 57.0228C159.898 57.0228 159.243 56.6712 158.731 55.968C158.236 55.2647 157.988 54.3537 157.988 53.2349C157.988 51.8924 158.34 50.8295 159.043 50.0464C159.746 49.2472 160.705 48.8476 161.92 48.8476C162.479 48.8476 162.991 48.9755 163.454 49.2312V46.5701C163.454 46.3463 163.35 46.2345 163.143 46.2345H162.327L162.232 45.9947C162.551 45.707 162.959 45.4833 163.454 45.3234C163.95 45.1476 164.437 45.0597 164.917 45.0597C165.124 45.0597 165.292 45.1077 165.42 45.2036C165.548 45.2835 165.612 45.4034 165.612 45.5632V55.4405C165.612 55.92 165.764 56.1598 166.067 56.1598C166.371 56.1598 166.667 56.0399 166.955 55.8002L167.146 56.0399ZM161.944 55.8721C162.551 55.8721 163.055 55.5364 163.454 54.8652V49.7107C163.135 49.5509 162.783 49.471 162.399 49.471C161.057 49.471 160.386 50.6297 160.386 52.9472C160.386 53.8902 160.513 54.6174 160.769 55.1289C161.041 55.6243 161.432 55.8721 161.944 55.8721ZM172.354 56.2317C172.817 56.2317 173.225 56.1518 173.576 55.9919C173.928 55.8161 174.271 55.5284 174.607 55.1289L174.895 55.3446C174.527 55.8721 174.056 56.2876 173.48 56.5913C172.921 56.879 172.306 57.0228 171.634 57.0228C170.899 57.0228 170.236 56.847 169.644 56.4954C169.069 56.1438 168.614 55.6643 168.278 55.057C167.942 54.4336 167.774 53.7304 167.774 52.9472C167.774 51.7006 168.15 50.7096 168.901 49.9744C169.668 49.2232 170.683 48.8476 171.946 48.8476C172.841 48.8476 173.568 49.0634 174.128 49.4949C174.703 49.9105 174.991 50.4539 174.991 51.1252C174.991 51.8924 174.663 52.5077 174.008 52.9712C173.368 53.4187 172.489 53.6425 171.371 53.6425C170.923 53.6425 170.516 53.6105 170.148 53.5466C170.228 54.3777 170.468 55.033 170.867 55.5125C171.267 55.9919 171.762 56.2317 172.354 56.2317ZM171.682 49.423C171.187 49.423 170.795 49.7267 170.508 50.334C170.236 50.9254 170.1 51.7565 170.1 52.8274V53.2109C170.276 53.2109 170.492 53.195 170.747 53.163C171.419 53.0831 171.93 52.8673 172.282 52.5157C172.649 52.1481 172.833 51.6686 172.833 51.0772C172.833 50.5978 172.721 50.2062 172.497 49.9025C172.29 49.5829 172.018 49.423 171.682 49.423ZM181.265 48.8476C181.777 48.8476 182.192 48.9995 182.512 49.3032C182.832 49.5908 182.992 49.9664 182.992 50.4299C182.992 50.8615 182.864 51.2131 182.608 51.4848C182.352 51.7405 182.017 51.8684 181.601 51.8684C181.281 51.8684 180.986 51.8045 180.714 51.6766C181.002 51.4369 181.146 51.0772 181.146 50.5978C181.146 50.374 181.098 50.1982 181.002 50.0703C180.906 49.9425 180.778 49.8785 180.618 49.8785C180.234 49.8785 179.915 50.2701 179.659 51.0533C179.403 51.8204 179.276 52.7794 179.276 53.9302C179.276 54.5215 179.307 54.993 179.371 55.3446C179.451 55.6963 179.579 56.0239 179.755 56.3276L179.947 56.5673L179.755 56.8071H176.279L176.135 56.3995L176.471 56.3276C176.726 56.2637 176.894 56.1678 176.974 56.0399C177.054 55.896 177.094 55.6243 177.094 55.2248V50.5498C177.094 50.2461 176.99 50.0943 176.782 50.0943H176.039L175.943 49.8306C176.247 49.5589 176.622 49.3351 177.07 49.1593C177.533 48.9835 177.989 48.8956 178.436 48.8956C178.644 48.8956 178.812 48.9435 178.94 49.0394C179.068 49.1353 179.132 49.2632 179.132 49.423V51.1731H179.204C179.539 49.6228 180.227 48.8476 181.265 48.8476ZM183.624 55.6563C183.624 55.3846 183.776 55.0889 184.08 54.7693C184.383 54.4336 184.663 54.2658 184.919 54.2658C185.174 54.2658 185.454 54.4336 185.758 54.7693C186.077 55.0889 186.237 55.3846 186.237 55.6563C186.237 55.928 186.077 56.2237 185.758 56.5434C185.454 56.863 185.174 57.0228 184.919 57.0228C184.663 57.0228 184.383 56.863 184.08 56.5434C183.776 56.2237 183.624 55.928 183.624 55.6563Z" fill="white"/>
</svg>
