<svg width="234" height="39" viewBox="0 0 234 39" fill="none" xmlns="http://www.w3.org/2000/svg">
<path d="M1.71565 4.75175C1.71565 4.11244 1.66771 3.60898 1.57181 3.24138C1.47591 2.87377 1.29211 2.50617 1.0204 2.13857L0.828611 1.87485L1.0204 1.61114H6.31869C7.19775 1.61114 7.78911 1.50725 8.09278 1.29947L8.38047 1.0837L8.62021 1.29947V4.29624L8.14073 4.46406C7.85304 3.60099 7.56535 3.00963 7.27766 2.68997C7.00595 2.37032 6.61437 2.21049 6.10293 2.21049H5.02409C4.60854 2.21049 4.33683 2.2904 4.20897 2.45023C4.0811 2.59408 4.01717 2.91373 4.01717 3.4092V6.81353H5.74331C6.2228 6.81353 6.57442 6.76558 6.79818 6.66968C7.03792 6.57379 7.21373 6.38199 7.32561 6.0943L7.44548 5.75867L7.75714 5.95046V8.63556L7.22971 8.82736L7.13381 8.29993C7.06988 7.96429 6.89407 7.73254 6.60638 7.60468C6.31869 7.47681 5.85519 7.41288 5.21588 7.41288H4.01717V11.033C4.01717 11.5125 4.0891 11.8321 4.23294 11.9919C4.37679 12.1358 4.69644 12.2077 5.19191 12.2077H6.36664C6.84612 12.2077 7.22172 12.0399 7.49343 11.7043C7.78112 11.3686 8.05282 10.7852 8.30855 9.95414L8.81201 10.122V12.9989L8.54829 13.2146C8.32453 13.0548 8.06881 12.9429 7.78112 12.879C7.49343 12.831 7.09386 12.8071 6.58241 12.8071H0.564895L0.397076 12.3755C0.796645 12.2637 1.08434 12.1598 1.26015 12.0639C1.43596 11.952 1.55583 11.8081 1.61976 11.6323C1.68369 11.4565 1.71565 11.1848 1.71565 10.8172V4.75175ZM14.6158 12.2557C15.1273 12.2557 15.5268 11.928 15.8145 11.2727C16.1182 10.6014 16.27 9.76235 16.27 8.75543C16.27 7.3969 15.9823 6.32605 15.407 5.5429L15.1912 5.27918L15.383 5.08739L17.3968 4.84765C17.4448 5.53491 17.4687 6.08631 17.4687 6.50186C17.4687 8.54766 17.1571 10.1459 16.5337 11.2967C15.9104 12.4475 15.0713 13.0228 14.0165 13.0228C13.1854 13.0228 12.554 12.7751 12.1225 12.2796C11.7069 11.7842 11.4113 10.969 11.2355 9.83427L10.732 6.38199C10.716 6.25413 10.684 6.16623 10.6361 6.11828C10.5882 6.07033 10.5162 6.04636 10.4203 6.04636H9.77303L9.70111 5.78264C10.0208 5.49495 10.4044 5.27119 10.8519 5.11136C11.2994 4.93555 11.7389 4.84765 12.1704 4.84765C12.4102 4.84765 12.578 4.91957 12.6739 5.06341C12.7858 5.20726 12.8737 5.49495 12.9376 5.92648L13.5609 10.2179C13.6728 11.001 13.8007 11.5364 13.9445 11.8241C14.0884 12.1118 14.3121 12.2557 14.6158 12.2557ZM23.5644 12.2317C24.0279 12.2317 24.4354 12.1518 24.787 11.9919C25.1387 11.8161 25.4823 11.5284 25.8179 11.1289L26.1056 11.3446C25.738 11.8721 25.2665 12.2876 24.6911 12.5913C24.1317 12.879 23.5164 13.0228 22.8451 13.0228C22.1099 13.0228 21.4466 12.847 20.8553 12.4954C20.2799 12.1438 19.8244 11.6643 19.4887 11.057C19.1531 10.4336 18.9853 9.73038 18.9853 8.94723C18.9853 7.70057 19.3609 6.70964 20.1121 5.97443C20.8792 5.22324 21.8942 4.84765 23.1568 4.84765C24.0518 4.84765 24.779 5.06341 25.3384 5.49495C25.9138 5.9105 26.2015 6.45392 26.2015 7.12519C26.2015 7.89237 25.8739 8.5077 25.2186 8.9712C24.5793 9.41872 23.7002 9.64248 22.5814 9.64248C22.1339 9.64248 21.7263 9.61051 21.3587 9.54658C21.4386 10.3777 21.6784 11.033 22.078 11.5125C22.4775 11.9919 22.973 12.2317 23.5644 12.2317ZM22.8931 5.42303C22.3976 5.42303 22.006 5.7267 21.7183 6.33405C21.4466 6.92541 21.3108 7.75651 21.3108 8.82736V9.21094C21.4866 9.21094 21.7024 9.19496 21.9581 9.163C22.6294 9.08308 23.1408 8.86731 23.4924 8.51569C23.86 8.14809 24.0438 7.66861 24.0438 7.07724C24.0438 6.59776 23.932 6.20618 23.7082 5.90251C23.5004 5.58285 23.2287 5.42303 22.8931 5.42303ZM32.4762 4.84765C32.9876 4.84765 33.4032 4.99948 33.7228 5.30316C34.0425 5.59085 34.2023 5.96644 34.2023 6.42994C34.2023 6.86148 34.0745 7.2131 33.8187 7.4848C33.563 7.74053 33.2274 7.86839 32.8118 7.86839C32.4922 7.86839 32.1965 7.80446 31.9248 7.6766C32.2125 7.43686 32.3563 7.07724 32.3563 6.59776C32.3563 6.374 32.3084 6.19819 32.2125 6.07033C32.1166 5.94247 31.9887 5.87854 31.8289 5.87854C31.4453 5.87854 31.1256 6.27011 30.8699 7.05327C30.6142 7.82044 30.4863 8.77941 30.4863 9.93017C30.4863 10.5215 30.5183 10.993 30.5822 11.3446C30.6621 11.6963 30.79 12.0239 30.9658 12.3276L31.1576 12.5673L30.9658 12.8071H27.4896L27.3457 12.3995L27.6814 12.3276C27.9371 12.2637 28.1049 12.1678 28.1848 12.0399C28.2647 11.896 28.3047 11.6243 28.3047 11.2248V6.54981C28.3047 6.24614 28.2008 6.0943 27.993 6.0943H27.2498L27.1539 5.83059C27.4576 5.55888 27.8332 5.33512 28.2807 5.15931C28.7442 4.9835 29.1997 4.8956 29.6472 4.8956C29.855 4.8956 30.0228 4.94354 30.1507 5.03944C30.2786 5.13534 30.3425 5.2632 30.3425 5.42303V7.17314H30.4144C30.75 5.62281 31.4373 4.84765 32.4762 4.84765ZM42.6984 4.8956V12.8071C42.6984 14.0697 42.3307 15.0447 41.5955 15.7319C40.8763 16.4352 39.8694 16.7868 38.5748 16.7868C37.7757 16.7868 37.1284 16.6349 36.6329 16.3313C36.1374 16.0276 35.8897 15.628 35.8897 15.1326C35.8897 14.701 36.0176 14.3494 36.2733 14.0777C36.529 13.822 36.8646 13.6941 37.2802 13.6941C37.5839 13.6941 37.8795 13.758 38.1672 13.8859C37.8795 14.1736 37.7357 14.5652 37.7357 15.0606C37.7357 15.4123 37.8396 15.6999 38.0474 15.9237C38.2711 16.1475 38.5508 16.2593 38.8865 16.2593C40.0053 16.2593 40.5647 15.3483 40.5647 13.5263V10.4816C40.3569 11.0889 39.9893 11.5924 39.4618 11.9919C38.9504 12.3755 38.399 12.5673 37.8076 12.5673C37.1044 12.5673 36.5849 12.3516 36.2493 11.92C35.9137 11.4885 35.7458 10.8332 35.7458 9.95414V6.38199C35.7458 6.15823 35.642 6.04636 35.4342 6.04636H34.691L34.6191 5.78264C34.9227 5.51093 35.3223 5.28717 35.8178 5.11136C36.3132 4.93555 36.7847 4.84765 37.2322 4.84765C37.44 4.84765 37.5998 4.8956 37.7117 4.99149C37.8396 5.08739 37.9035 5.21525 37.9035 5.37508V10.2179C37.9035 11.1129 38.1832 11.5604 38.7426 11.5604C39.286 11.5604 39.7256 11.2328 40.0612 10.5775C40.3968 9.92218 40.5647 9.05112 40.5647 7.96429C40.5647 7.38891 40.5167 6.91742 40.4208 6.54981C40.3249 6.18221 40.1731 5.86255 39.9653 5.59085L39.7735 5.32713L39.9413 5.11136L42.6984 4.8956ZM57.7833 12.0399C57.192 12.6952 56.4967 13.0228 55.6976 13.0228C55.2021 13.0228 54.8345 12.9189 54.5948 12.7112C54.355 12.4874 54.1952 12.1278 54.1153 11.6323C53.6997 12.1118 53.2682 12.4634 52.8207 12.6872C52.3732 12.911 51.8777 13.0228 51.3343 13.0228C50.5352 13.0228 49.8799 12.6712 49.3684 11.968C48.8729 11.2647 48.6252 10.3537 48.6252 9.23492C48.6252 7.89237 48.9768 6.82951 49.6801 6.04636C50.3833 5.24722 51.3423 4.84765 52.557 4.84765C53.1164 4.84765 53.6278 4.97551 54.0913 5.23123V2.5701C54.0913 2.34634 53.9874 2.23446 53.7797 2.23446H52.9645L52.8686 1.99472C53.1883 1.70703 53.5959 1.48327 54.0913 1.32345C54.5868 1.14764 55.0743 1.05973 55.5537 1.05973C55.7615 1.05973 55.9293 1.10768 56.0572 1.20358C56.1851 1.28349 56.249 1.40336 56.249 1.56319V11.4405C56.249 11.92 56.4008 12.1598 56.7045 12.1598C57.0082 12.1598 57.3039 12.0399 57.5915 11.8002L57.7833 12.0399ZM52.5809 11.8721C53.1883 11.8721 53.6918 11.5364 54.0913 10.8652V5.71072C53.7717 5.55089 53.42 5.47098 53.0365 5.47098C51.6939 5.47098 51.0226 6.62973 51.0226 8.94723C51.0226 9.89021 51.1505 10.6174 51.4062 11.1289C51.6779 11.6243 52.0695 11.8721 52.5809 11.8721ZM61.1686 7.50878C60.8329 7.70057 60.4334 7.79647 59.9699 7.79647C59.6342 7.79647 59.3705 7.70057 59.1787 7.50878C58.9869 7.301 58.891 7.01331 58.891 6.64571C58.891 6.1023 59.1547 5.67076 59.6822 5.3511C60.2256 5.01547 60.9288 4.84765 61.7919 4.84765C62.8148 4.84765 63.6139 5.07141 64.1893 5.51892C64.7807 5.96644 65.0764 6.57379 65.0764 7.34096V11.4885C65.0764 11.936 65.2362 12.1598 65.5558 12.1598C65.8595 12.1598 66.1552 12.0399 66.4429 11.8002L66.6347 12.0399C66.0433 12.6952 65.3401 13.0228 64.525 13.0228C64.0455 13.0228 63.6779 12.903 63.4221 12.6632C63.1824 12.4235 63.0386 12.0479 62.9906 11.5364H62.8947C62.639 11.9999 62.2954 12.3675 61.8638 12.6392C61.4483 12.895 60.9688 13.0228 60.4254 13.0228C59.818 13.0228 59.3306 12.839 58.9629 12.4714C58.5953 12.0878 58.4115 11.5924 58.4115 10.985C58.4115 10.2978 58.7392 9.75436 59.3945 9.35479C60.0498 8.95522 60.9368 8.75543 62.0556 8.75543C62.2634 8.75543 62.5591 8.77142 62.9427 8.80338V7.60468C62.9427 6.82152 62.8468 6.26212 62.655 5.92648C62.4632 5.57486 62.1515 5.39905 61.72 5.39905C61.4163 5.39905 61.1766 5.49495 61.0008 5.68674C60.8249 5.87854 60.737 6.12627 60.737 6.42994C60.737 6.90942 60.8809 7.26904 61.1686 7.50878ZM61.5282 11.8241C62.4712 11.8241 62.9427 10.969 62.9427 9.25889C62.1435 9.25889 61.5442 9.39475 61.1446 9.66645C60.745 9.92218 60.5452 10.2898 60.5452 10.7693C60.5452 11.0889 60.6331 11.3446 60.809 11.5364C60.9848 11.7282 61.2245 11.8241 61.5282 11.8241ZM75.0073 4.8956V12.8071C75.0073 14.0697 74.6397 15.0447 73.9045 15.7319C73.1852 16.4352 72.1783 16.7868 70.8837 16.7868C70.0846 16.7868 69.4373 16.6349 68.9418 16.3313C68.4463 16.0276 68.1986 15.628 68.1986 15.1326C68.1986 14.701 68.3265 14.3494 68.5822 14.0777C68.8379 13.822 69.1736 13.6941 69.5891 13.6941C69.8928 13.6941 70.1885 13.758 70.4762 13.8859C70.1885 14.1736 70.0446 14.5652 70.0446 15.0606C70.0446 15.4123 70.1485 15.6999 70.3563 15.9237C70.58 16.1475 70.8597 16.2593 71.1954 16.2593C72.3142 16.2593 72.8736 15.3483 72.8736 13.5263V10.4816C72.6658 11.0889 72.2982 11.5924 71.7708 11.9919C71.2593 12.3755 70.7079 12.5673 70.1165 12.5673C69.4133 12.5673 68.8939 12.3516 68.5582 11.92C68.2226 11.4885 68.0548 10.8332 68.0548 9.95414V6.38199C68.0548 6.15823 67.9509 6.04636 67.7431 6.04636H66.9999L66.928 5.78264C67.2317 5.51093 67.6312 5.28717 68.1267 5.11136C68.6222 4.93555 69.0936 4.84765 69.5412 4.84765C69.7489 4.84765 69.9088 4.8956 70.0206 4.99149C70.1485 5.08739 70.2124 5.21525 70.2124 5.37508V10.2179C70.2124 11.1129 70.4921 11.5604 71.0515 11.5604C71.595 11.5604 72.0345 11.2328 72.3701 10.5775C72.7058 9.92218 72.8736 9.05112 72.8736 7.96429C72.8736 7.38891 72.8256 6.91742 72.7297 6.54981C72.6338 6.18221 72.482 5.86255 72.2742 5.59085L72.0824 5.32713L72.2502 5.11136L75.0073 4.8956ZM84.0028 11.2248C84.0028 11.6084 84.0508 11.8721 84.1467 12.0159C84.2586 12.1438 84.5063 12.2477 84.8899 12.3276L85.2015 12.3995L85.0577 12.8071H81.3177L81.1259 12.5673L81.3177 12.3276C81.5095 12.0719 81.6374 11.8002 81.7013 11.5125C81.7812 11.2088 81.8212 10.8012 81.8212 10.2898V6.04636H80.5985C80.5985 5.77465 80.6145 5.59884 80.6464 5.51892C80.6784 5.43901 80.7743 5.37508 80.9341 5.32713L81.8212 5.11136C81.8212 3.73684 82.1169 2.68198 82.7082 1.94677C83.3156 1.21157 84.1786 0.843963 85.2974 0.843963C86.0007 0.843963 86.5681 0.995799 86.9996 1.29947C87.4471 1.60314 87.6709 2.00271 87.6709 2.49818C87.6709 2.92971 87.543 3.28134 87.2873 3.55304C87.0316 3.80877 86.6959 3.93663 86.2804 3.93663C85.9607 3.93663 85.665 3.8727 85.3933 3.74484C85.681 3.50509 85.8249 3.14548 85.8249 2.666C85.8249 2.28241 85.7529 1.97874 85.6091 1.75498C85.4653 1.53122 85.2655 1.41934 85.0097 1.41934C84.6901 1.41934 84.4424 1.58716 84.2665 1.9228C84.0907 2.25844 84.0028 2.72993 84.0028 3.33728V5.11136H85.7529C85.7529 5.55888 85.6331 5.87054 85.3933 6.04636H84.0028V11.2248ZM91.5687 4.84765C92.0802 4.84765 92.4957 4.99948 92.8154 5.30316C93.135 5.59085 93.2949 5.96644 93.2949 6.42994C93.2949 6.86148 93.167 7.2131 92.9113 7.4848C92.6556 7.74053 92.3199 7.86839 91.9044 7.86839C91.5847 7.86839 91.289 7.80446 91.0173 7.6766C91.305 7.43686 91.4489 7.07724 91.4489 6.59776C91.4489 6.374 91.4009 6.19819 91.305 6.07033C91.2091 5.94247 91.0813 5.87854 90.9214 5.87854C90.5378 5.87854 90.2182 6.27011 89.9625 7.05327C89.7067 7.82044 89.5789 8.77941 89.5789 9.93017C89.5789 10.5215 89.6108 10.993 89.6748 11.3446C89.7547 11.6963 89.8826 12.0239 90.0584 12.3276L90.2502 12.5673L90.0584 12.8071H86.5821L86.4383 12.3995L86.7739 12.3276C87.0296 12.2637 87.1974 12.1678 87.2774 12.0399C87.3573 11.896 87.3972 11.6243 87.3972 11.2248V6.54981C87.3972 6.24614 87.2933 6.0943 87.0856 6.0943H86.3424L86.2465 5.83059C86.5501 5.55888 86.9257 5.33512 87.3733 5.15931C87.8368 4.9835 88.2923 4.8956 88.7398 4.8956C88.9476 4.8956 89.1154 4.94354 89.2432 5.03944C89.3711 5.13534 89.435 5.2632 89.435 5.42303V7.17314H89.507C89.8426 5.62281 90.5299 4.84765 91.5687 4.84765ZM93.9514 8.94723C93.9514 7.68459 94.311 6.68567 95.0302 5.95046C95.7654 5.21525 96.7563 4.84765 98.003 4.84765C99.2496 4.84765 100.241 5.22324 100.976 5.97443C101.711 6.70964 102.079 7.70057 102.079 8.94723C102.079 10.1939 101.711 11.1848 100.976 11.92C100.241 12.6552 99.2496 13.0228 98.003 13.0228C96.7563 13.0228 95.7654 12.6552 95.0302 11.92C94.311 11.1848 93.9514 10.1939 93.9514 8.94723ZM99.6572 8.99518C99.6572 7.92433 99.5054 7.05327 99.2017 6.38199C98.898 5.69473 98.5144 5.3511 98.0509 5.3511C97.5395 5.3511 97.1239 5.68674 96.8043 6.35802C96.4846 7.01331 96.3248 7.87638 96.3248 8.94723C96.3248 10.0341 96.4686 10.8971 96.7563 11.5364C97.06 12.1757 97.4596 12.4954 97.955 12.4954C98.4505 12.4954 98.8581 12.1757 99.1777 11.5364C99.4974 10.8811 99.6572 10.0341 99.6572 8.99518ZM110.704 5.49495C111.007 5.9105 111.167 6.57379 111.183 7.4848H111.231C111.455 6.71763 111.822 6.08631 112.334 5.59085C112.845 5.09538 113.389 4.84765 113.964 4.84765C114.651 4.84765 115.147 5.0794 115.451 5.5429C115.77 5.99042 115.93 6.69366 115.93 7.65262V11.4405C115.93 11.92 116.082 12.1598 116.386 12.1598C116.689 12.1598 116.985 12.0399 117.273 11.8002L117.464 12.0399C116.873 12.6952 116.178 13.0228 115.379 13.0228C114.787 13.0228 114.372 12.871 114.132 12.5673C113.892 12.2477 113.772 11.6963 113.772 10.9131V7.46083C113.772 6.53383 113.469 6.07033 112.861 6.07033C112.35 6.07033 111.95 6.50186 111.663 7.36493C111.375 8.21202 111.231 9.19496 111.231 10.3138C111.247 10.8092 111.287 11.2008 111.351 11.4885C111.431 11.7762 111.559 12.0559 111.735 12.3276L111.926 12.5673L111.735 12.8071H109.073V7.46083C109.073 6.53383 108.77 6.07033 108.162 6.07033C107.651 6.07033 107.251 6.50186 106.964 7.36493C106.676 8.21202 106.532 9.19496 106.532 10.3138C106.532 10.8092 106.564 11.2008 106.628 11.4885C106.708 11.7762 106.844 12.0559 107.036 12.3276L107.227 12.5673L107.036 12.8071H103.559L103.416 12.3995L103.751 12.3276C104.007 12.2637 104.175 12.1678 104.255 12.0399C104.335 11.896 104.374 11.6243 104.374 11.2248V6.54981C104.374 6.31007 104.271 6.1902 104.063 6.1902H103.296L103.224 5.95046C103.543 5.67875 103.943 5.45499 104.422 5.27918C104.902 5.10337 105.381 5.01547 105.861 5.01547C106.069 5.01547 106.228 5.06341 106.34 5.15931C106.468 5.23923 106.532 5.3591 106.532 5.51892V7.4848C106.74 6.7496 107.092 6.12627 107.587 5.61482C108.082 5.10337 108.642 4.84765 109.265 4.84765C109.921 4.84765 110.4 5.06341 110.704 5.49495ZM128.132 12.5673L127.916 12.8071H123.361L123.217 12.3755L123.913 12.2077C124.328 12.1118 124.6 11.976 124.728 11.8002C124.856 11.6243 124.92 11.2967 124.92 10.8172V3.28933L122.666 4.72778C122.538 4.64786 122.394 4.48004 122.234 4.22432C122.091 3.96859 121.963 3.6889 121.851 3.38522L127.005 1.37139L127.413 1.70703L127.221 1.99472V9.66645C127.221 10.3058 127.269 10.8172 127.365 11.2008C127.477 11.5684 127.661 11.928 127.916 12.2796L128.132 12.5673ZM132.075 10.5295C132.075 11.057 132.235 11.4965 132.554 11.8481C132.874 12.1837 133.257 12.3516 133.705 12.3516C134.264 12.3516 134.72 12.1438 135.072 11.7282C135.423 11.3127 135.599 10.7613 135.599 10.074C135.599 9.24291 135.367 8.58762 134.904 8.10813C134.456 7.62865 133.841 7.38891 133.058 7.38891C132.706 7.38891 132.315 7.43686 131.883 7.53275L131.811 7.07724C133.042 6.77357 133.929 6.39798 134.472 5.95046C135.016 5.48696 135.287 4.82367 135.287 3.9606C135.287 3.36924 135.151 2.88976 134.88 2.52215C134.624 2.13857 134.264 1.94677 133.801 1.94677C133.401 1.94677 133.058 2.12258 132.77 2.47421C132.498 2.82583 132.362 3.28134 132.362 3.84073C132.362 4.54397 132.506 5.14333 132.794 5.63879C131.947 5.63879 131.3 5.46298 130.852 5.11136C130.421 4.75974 130.205 4.30423 130.205 3.74484C130.205 3.04159 130.532 2.47421 131.188 2.04267C131.843 1.61114 132.698 1.39537 133.753 1.39537C134.904 1.39537 135.855 1.65109 136.606 2.16254C137.357 2.67399 137.733 3.32129 137.733 4.10445C137.733 5.43102 136.718 6.38199 134.688 6.95737C135.743 7.13318 136.566 7.4848 137.157 8.01224C137.765 8.53967 138.068 9.17898 138.068 9.93017C138.068 10.9051 137.685 11.6643 136.918 12.2077C136.166 12.7511 135.119 13.0228 133.777 13.0228C132.642 13.0228 131.707 12.7991 130.972 12.3516C130.253 11.8881 129.893 11.2967 129.893 10.5775C129.893 9.97013 130.141 9.48265 130.636 9.11505C131.132 8.73146 131.867 8.53967 132.842 8.53967C132.602 8.79539 132.41 9.07509 132.267 9.37876C132.139 9.68244 132.075 10.066 132.075 10.5295ZM139.183 8.87531C139.183 8.66753 139.215 8.45975 139.279 8.25198C139.359 8.0442 139.462 7.89237 139.59 7.79647L143.69 7.62865C143.69 8.15608 143.554 8.52368 143.282 8.73146L139.183 8.87531ZM150.725 12.5673L150.509 12.8071H145.954L145.81 12.3755L146.506 12.2077C146.921 12.1118 147.193 11.976 147.321 11.8002C147.448 11.6243 147.512 11.2967 147.512 10.8172V3.28933L145.259 4.72778C145.131 4.64786 144.987 4.48004 144.827 4.22432C144.683 3.96859 144.556 3.6889 144.444 3.38522L149.598 1.37139L150.006 1.70703L149.814 1.99472V9.66645C149.814 10.3058 149.862 10.8172 149.958 11.2008C150.07 11.5684 150.253 11.928 150.509 12.2796L150.725 12.5673ZM156.058 6.33405C157.433 6.33405 158.527 6.6537 159.343 7.29301C160.158 7.91634 160.565 8.75544 160.565 9.8103C160.565 10.7852 160.182 11.5684 159.414 12.1598C158.663 12.7351 157.648 13.0228 156.37 13.0228C155.235 13.0228 154.3 12.7991 153.565 12.3516C152.846 11.8881 152.486 11.2967 152.486 10.5775C152.486 10.0021 152.758 9.5306 153.301 9.163C153.844 8.77941 154.556 8.57163 155.435 8.53967L155.483 8.73146C155.227 8.89129 155.027 9.13103 154.883 9.45069C154.74 9.77034 154.668 10.13 154.668 10.5295C154.668 11.041 154.835 11.4725 155.171 11.8241C155.507 12.1757 155.898 12.3516 156.346 12.3516C156.873 12.3516 157.297 12.1198 157.616 11.6563C157.936 11.1928 158.096 10.5775 158.096 9.8103C158.096 8.93125 157.816 8.25198 157.257 7.77249C156.713 7.27703 155.954 7.0293 154.979 7.0293C154.564 7.0293 154.076 7.09323 153.517 7.22109L153.229 6.66968L153.517 1.61114H159.99C159.99 1.99472 159.934 2.34634 159.822 2.666C159.726 2.98565 159.59 3.2254 159.414 3.38522H154.116L153.948 6.54981C154.668 6.40597 155.371 6.33405 156.058 6.33405ZM174.026 11.4405C174.026 11.92 174.177 12.1598 174.481 12.1598C174.785 12.1598 175.08 12.0399 175.368 11.8002L175.56 12.0399C174.969 12.6952 174.273 13.0228 173.474 13.0228C172.899 13.0228 172.483 12.879 172.228 12.5913C171.988 12.2876 171.868 11.8002 171.868 11.1289V7.46083C171.868 6.53383 171.572 6.07033 170.981 6.07033C170.406 6.07033 169.942 6.46191 169.59 7.24506C169.239 8.02822 169.063 9.05112 169.063 10.3138C169.063 10.8092 169.095 11.2088 169.159 11.5125C169.239 11.8002 169.367 12.0719 169.542 12.3276L169.734 12.5673L169.542 12.8071H166.066L165.922 12.3995L166.258 12.3276C166.514 12.2637 166.682 12.1678 166.761 12.0399C166.841 11.896 166.881 11.6243 166.881 11.2248V2.666C166.881 2.53814 166.849 2.43425 166.785 2.35433C166.737 2.27442 166.666 2.23446 166.57 2.23446H165.826L165.731 1.99472C166.034 1.70703 166.426 1.48327 166.905 1.32345C167.401 1.14764 167.888 1.05973 168.368 1.05973C168.575 1.05973 168.743 1.10768 168.871 1.20358C168.999 1.28349 169.063 1.40336 169.063 1.56319V7.4848C169.287 6.73361 169.678 6.11029 170.238 5.61482C170.813 5.10337 171.42 4.84765 172.06 4.84765C172.747 4.84765 173.242 5.07141 173.546 5.51892C173.866 5.96644 174.026 6.67767 174.026 7.65262V11.4405ZM176.269 8.94723C176.269 7.68459 176.628 6.68567 177.348 5.95046C178.083 5.21525 179.074 4.84765 180.321 4.84765C181.567 4.84765 182.558 5.22324 183.293 5.97443C184.029 6.70964 184.396 7.70057 184.396 8.94723C184.396 10.1939 184.029 11.1848 183.293 11.92C182.558 12.6552 181.567 13.0228 180.321 13.0228C179.074 13.0228 178.083 12.6552 177.348 11.92C176.628 11.1848 176.269 10.1939 176.269 8.94723ZM181.975 8.99518C181.975 7.92433 181.823 7.05327 181.519 6.38199C181.216 5.69473 180.832 5.3511 180.368 5.3511C179.857 5.3511 179.441 5.68674 179.122 6.35802C178.802 7.01331 178.642 7.87638 178.642 8.94723C178.642 10.0341 178.786 10.8971 179.074 11.5364C179.378 12.1757 179.777 12.4954 180.273 12.4954C180.768 12.4954 181.176 12.1757 181.495 11.5364C181.815 10.8811 181.975 10.0341 181.975 8.99518ZM191.367 10.6254C191.143 11.3287 190.752 11.904 190.192 12.3516C189.649 12.7991 189.065 13.0228 188.442 13.0228C187.739 13.0228 187.219 12.7991 186.884 12.3516C186.548 11.904 186.38 11.2168 186.38 10.2898V6.38199C186.38 6.15823 186.276 6.04636 186.069 6.04636H185.325L185.254 5.78264C185.573 5.51093 185.973 5.28717 186.452 5.11136C186.932 4.93555 187.403 4.84765 187.867 4.84765C188.075 4.84765 188.234 4.8956 188.346 4.99149C188.474 5.08739 188.538 5.21525 188.538 5.37508V10.1699C188.538 10.7133 188.618 11.1369 188.778 11.4405C188.938 11.7282 189.161 11.8721 189.449 11.8721C190.04 11.8721 190.512 11.5125 190.864 10.7932C191.231 10.058 191.415 9.10706 191.415 7.94031C191.415 7.31699 191.367 6.8375 191.271 6.50186C191.191 6.15024 191.039 5.84657 190.816 5.59085L190.6 5.32713L190.792 5.11136L193.549 4.8956V11.4405C193.549 11.92 193.692 12.1598 193.98 12.1598C194.284 12.1598 194.58 12.0399 194.867 11.8002L195.059 12.0399C194.5 12.6952 193.804 13.0228 192.973 13.0228C192.366 13.0228 191.942 12.847 191.703 12.4954C191.479 12.1438 191.367 11.5205 191.367 10.6254ZM200.998 4.84765C201.509 4.84765 201.925 4.99948 202.244 5.30316C202.564 5.59085 202.724 5.96644 202.724 6.42994C202.724 6.86148 202.596 7.2131 202.34 7.4848C202.084 7.74053 201.749 7.86839 201.333 7.86839C201.014 7.86839 200.718 7.80446 200.446 7.6766C200.734 7.43686 200.878 7.07724 200.878 6.59776C200.878 6.374 200.83 6.19819 200.734 6.07033C200.638 5.94247 200.51 5.87854 200.35 5.87854C199.967 5.87854 199.647 6.27011 199.391 7.05327C199.136 7.82044 199.008 8.77941 199.008 9.93017C199.008 10.5215 199.04 10.993 199.104 11.3446C199.184 11.6963 199.311 12.0239 199.487 12.3276L199.679 12.5673L199.487 12.8071H196.011L195.867 12.3995L196.203 12.3276C196.459 12.2637 196.626 12.1678 196.706 12.0399C196.786 11.896 196.826 11.6243 196.826 11.2248V6.54981C196.826 6.24614 196.722 6.0943 196.514 6.0943H195.771L195.675 5.83059C195.979 5.55888 196.355 5.33512 196.802 5.15931C197.266 4.9835 197.721 4.8956 198.169 4.8956C198.376 4.8956 198.544 4.94354 198.672 5.03944C198.8 5.13534 198.864 5.2632 198.864 5.42303V7.17314H198.936C199.272 5.62281 199.959 4.84765 200.998 4.84765ZM205.754 6.47789C205.754 6.87746 205.906 7.20511 206.209 7.46083C206.529 7.70057 207.008 7.97228 207.648 8.27595C208.175 8.53168 208.583 8.75544 208.87 8.94723C209.158 9.12304 209.406 9.36278 209.614 9.66645C209.837 9.97013 209.949 10.3297 209.949 10.7453C209.949 11.4325 209.622 11.984 208.966 12.3995C208.327 12.8151 207.464 13.0228 206.377 13.0228C205.562 13.0228 204.891 12.879 204.363 12.5913C203.836 12.2876 203.572 11.896 203.572 11.4166C203.572 11.0969 203.692 10.8332 203.932 10.6254C204.171 10.4017 204.467 10.2898 204.819 10.2898C205.09 10.2898 205.362 10.3457 205.634 10.4576C205.362 10.6654 205.226 11.001 205.226 11.4645C205.226 11.7842 205.338 12.0319 205.562 12.2077C205.786 12.3835 206.057 12.4714 206.377 12.4714C206.745 12.4714 207.056 12.3755 207.312 12.1837C207.584 11.9919 207.72 11.7202 207.72 11.3686C207.72 11.033 207.584 10.7693 207.312 10.5775C207.056 10.3697 206.649 10.13 206.089 9.85825C205.578 9.6185 205.162 9.40274 204.843 9.21094C204.539 9.00317 204.275 8.73146 204.052 8.39582C203.828 8.06018 203.716 7.65262 203.716 7.17314C203.716 6.45392 204.02 5.88653 204.627 5.47098C205.234 5.05542 206.001 4.84765 206.928 4.84765C207.744 4.84765 208.407 4.99948 208.918 5.30316C209.446 5.60683 209.709 5.99841 209.709 6.47789C209.709 6.84549 209.598 7.1172 209.374 7.29301C209.15 7.46882 208.862 7.55673 208.511 7.55673C208.175 7.55673 207.879 7.4848 207.624 7.34096C207.911 7.06925 208.055 6.72562 208.055 6.31007C208.055 6.03836 207.951 5.8226 207.744 5.66277C207.536 5.48696 207.264 5.39905 206.928 5.39905C206.561 5.39905 206.273 5.50294 206.065 5.71072C205.858 5.91849 205.754 6.17422 205.754 6.47789ZM218.007 7.50878C217.672 7.70057 217.272 7.79647 216.809 7.79647C216.473 7.79647 216.209 7.70057 216.017 7.50878C215.826 7.301 215.73 7.01331 215.73 6.64571C215.73 6.1023 215.993 5.67076 216.521 5.3511C217.064 5.01547 217.768 4.84765 218.631 4.84765C219.654 4.84765 220.453 5.07141 221.028 5.51892C221.619 5.96644 221.915 6.57379 221.915 7.34096V11.4885C221.915 11.936 222.075 12.1598 222.395 12.1598C222.698 12.1598 222.994 12.0399 223.282 11.8002L223.473 12.0399C222.882 12.6952 222.179 13.0228 221.364 13.0228C220.884 13.0228 220.517 12.903 220.261 12.6632C220.021 12.4235 219.877 12.0479 219.829 11.5364H219.733C219.478 11.9999 219.134 12.3675 218.703 12.6392C218.287 12.895 217.808 13.0228 217.264 13.0228C216.657 13.0228 216.169 12.839 215.802 12.4714C215.434 12.0878 215.25 11.5924 215.25 10.985C215.25 10.2978 215.578 9.75436 216.233 9.35479C216.889 8.95522 217.776 8.75543 218.894 8.75543C219.102 8.75543 219.398 8.77142 219.781 8.80338V7.60468C219.781 6.82152 219.686 6.26212 219.494 5.92648C219.302 5.57486 218.99 5.39905 218.559 5.39905C218.255 5.39905 218.015 5.49495 217.839 5.68674C217.664 5.87854 217.576 6.12627 217.576 6.42994C217.576 6.90942 217.72 7.26904 218.007 7.50878ZM218.367 11.8241C219.31 11.8241 219.781 10.969 219.781 9.25889C218.982 9.25889 218.383 9.39475 217.983 9.66645C217.584 9.92218 217.384 10.2898 217.384 10.7693C217.384 11.0889 217.472 11.3446 217.648 11.5364C217.824 11.7282 218.063 11.8241 218.367 11.8241ZM226.859 11.4405C226.859 11.92 227.011 12.1598 227.315 12.1598C227.619 12.1598 227.914 12.0399 228.202 11.8002L228.394 12.0399C227.834 12.6952 227.139 13.0228 226.308 13.0228C225.749 13.0228 225.341 12.895 225.085 12.6392C224.83 12.3675 224.702 11.944 224.702 11.3686V2.5701C224.702 2.34634 224.598 2.23446 224.39 2.23446H223.623L223.551 1.99472C223.855 1.70703 224.246 1.48327 224.726 1.32345C225.221 1.14764 225.709 1.05973 226.188 1.05973C226.396 1.05973 226.556 1.10768 226.668 1.20358C226.795 1.28349 226.859 1.40336 226.859 1.56319V11.4405ZM231.776 11.4405C231.776 11.92 231.928 12.1598 232.231 12.1598C232.535 12.1598 232.831 12.0399 233.119 11.8002L233.31 12.0399C232.751 12.6952 232.056 13.0228 231.225 13.0228C230.665 13.0228 230.258 12.895 230.002 12.6392C229.746 12.3675 229.618 11.944 229.618 11.3686V2.5701C229.618 2.34634 229.514 2.23446 229.307 2.23446H228.539L228.468 1.99472C228.771 1.70703 229.163 1.48327 229.642 1.32345C230.138 1.14764 230.625 1.05973 231.105 1.05973C231.312 1.05973 231.472 1.10768 231.584 1.20358C231.712 1.28349 231.776 1.40336 231.776 1.56319V11.4405ZM61.2649 28.4779C61.2649 28.8775 61.4168 29.2051 61.7204 29.4608C62.0401 29.7006 62.5196 29.9723 63.1589 30.276C63.6863 30.5317 64.0939 30.7554 64.3816 30.9472C64.6693 31.123 64.917 31.3628 65.1248 31.6665C65.3485 31.9701 65.4604 32.3297 65.4604 32.7453C65.4604 33.4325 65.1328 33.984 64.4775 34.3995C63.8382 34.8151 62.9751 35.0228 61.8883 35.0228C61.0731 35.0228 60.4019 34.879 59.8744 34.5913C59.347 34.2876 59.0833 33.896 59.0833 33.4166C59.0833 33.0969 59.2031 32.8332 59.4429 32.6254C59.6826 32.4017 59.9783 32.2898 60.3299 32.2898C60.6016 32.2898 60.8733 32.3457 61.1451 32.4576C60.8733 32.6654 60.7375 33.001 60.7375 33.4645C60.7375 33.7842 60.8494 34.0319 61.0731 34.2077C61.2969 34.3835 61.5686 34.4714 61.8883 34.4714C62.2559 34.4714 62.5675 34.3755 62.8232 34.1837C63.095 33.9919 63.2308 33.7202 63.2308 33.3686C63.2308 33.033 63.095 32.7693 62.8232 32.5775C62.5675 32.3697 62.16 32.13 61.6006 31.8582C61.0891 31.6185 60.6736 31.4027 60.3539 31.2109C60.0502 31.0032 59.7865 30.7315 59.5628 30.3958C59.339 30.0602 59.2271 29.6526 59.2271 29.1731C59.2271 28.4539 59.5308 27.8865 60.1381 27.471C60.7455 27.0554 61.5127 26.8476 62.4397 26.8476C63.2548 26.8476 63.9181 26.9995 64.4295 27.3032C64.9569 27.6068 65.2207 27.9984 65.2207 28.4779C65.2207 28.8455 65.1088 29.1172 64.885 29.293C64.6613 29.4688 64.3736 29.5567 64.022 29.5567C63.6863 29.5567 63.3906 29.4848 63.1349 29.341C63.4226 29.0693 63.5664 28.7256 63.5664 28.3101C63.5664 28.0384 63.4626 27.8226 63.2548 27.6628C63.047 27.487 62.7753 27.3991 62.4397 27.3991C62.0721 27.3991 61.7844 27.5029 61.5766 27.7107C61.3688 27.9185 61.2649 28.1742 61.2649 28.4779ZM66.7346 30.9472C66.7346 29.6846 67.0942 28.6857 67.8134 27.9505C68.5486 27.2153 69.5396 26.8476 70.7862 26.8476C72.0329 26.8476 73.0238 27.2232 73.759 27.9744C74.4942 28.7096 74.8618 29.7006 74.8618 30.9472C74.8618 32.1939 74.4942 33.1848 73.759 33.92C73.0238 34.6552 72.0329 35.0228 70.7862 35.0228C69.5396 35.0228 68.5486 34.6552 67.8134 33.92C67.0942 33.1848 66.7346 32.1939 66.7346 30.9472ZM72.4404 30.9952C72.4404 29.9243 72.2886 29.0533 71.9849 28.382C71.6813 27.6947 71.2977 27.3511 70.8342 27.3511C70.3227 27.3511 69.9072 27.6867 69.5875 28.358C69.2679 29.0133 69.108 29.8764 69.108 30.9472C69.108 32.0341 69.2519 32.8971 69.5396 33.5364C69.8432 34.1757 70.2428 34.4954 70.7383 34.4954C71.2337 34.4954 71.6413 34.1757 71.961 33.5364C72.2806 32.8811 72.4404 32.0341 72.4404 30.9952ZM81.8327 32.6254C81.6089 33.3287 81.2174 33.904 80.658 34.3516C80.1145 34.7991 79.5312 35.0228 78.9079 35.0228C78.2046 35.0228 77.6852 34.7991 77.3495 34.3516C77.0139 33.904 76.8461 33.2168 76.8461 32.2898V28.382C76.8461 28.1582 76.7422 28.0464 76.5344 28.0464H75.7912L75.7193 27.7826C76.0389 27.5109 76.4385 27.2872 76.918 27.1114C77.3975 26.9356 77.869 26.8476 78.3325 26.8476C78.5402 26.8476 78.7001 26.8956 78.812 26.9915C78.9398 27.0874 79.0037 27.2153 79.0037 27.3751V32.1699C79.0037 32.7133 79.0837 33.1369 79.2435 33.4405C79.4033 33.7282 79.6271 33.8721 79.9148 33.8721C80.5061 33.8721 80.9776 33.5125 81.3292 32.7932C81.6968 32.058 81.8806 31.1071 81.8806 29.9403C81.8806 29.317 81.8327 28.8375 81.7368 28.5019C81.6569 28.1502 81.5051 27.8466 81.2813 27.5908L81.0655 27.3271L81.2573 27.1114L84.0143 26.8956V33.4405C84.0143 33.92 84.1582 34.1598 84.4459 34.1598C84.7496 34.1598 85.0452 34.0399 85.3329 33.8002L85.5247 34.0399C84.9653 34.6952 84.2701 35.0228 83.439 35.0228C82.8316 35.0228 82.4081 34.847 82.1683 34.4954C81.9446 34.1438 81.8327 33.5205 81.8327 32.6254ZM91.9668 26.8476C92.782 26.8476 93.4373 27.2073 93.9327 27.9265C94.4442 28.6297 94.6999 29.5567 94.6999 30.7075C94.6999 31.5226 94.5481 32.2578 94.2444 32.9131C93.9567 33.5524 93.5411 34.0559 92.9977 34.4235C92.4703 34.7751 91.8709 34.9509 91.1997 34.9509C90.8161 34.9509 90.4485 34.895 90.0969 34.7831C89.7612 34.6552 89.4735 34.4794 89.2338 34.2557V36.9887C89.2338 37.3723 89.2817 37.628 89.3776 37.7559C89.4895 37.8997 89.7372 38.0116 90.1208 38.0915L90.4325 38.1634L90.2886 38.571H86.5727L86.3809 38.3313L86.5727 38.0915C86.7644 37.8358 86.8923 37.5561 86.9562 37.2524C87.0362 36.9647 87.0761 36.5732 87.0761 36.0777V28.5498C87.0761 28.2621 86.9722 28.1183 86.7644 28.1183H86.0212L85.9493 27.8546C86.253 27.5829 86.6446 27.3591 87.1241 27.1833C87.6195 27.0075 88.099 26.9196 88.5625 26.9196C88.7703 26.9196 88.9301 26.9675 89.042 27.0634C89.1699 27.1593 89.2338 27.2872 89.2338 27.447V28.5019C89.6334 27.9265 90.0489 27.5109 90.4804 27.2552C90.928 26.9835 91.4234 26.8476 91.9668 26.8476ZM90.2886 34.2557C90.9439 34.2557 91.4394 33.976 91.775 33.4166C92.1267 32.8572 92.3025 32.0341 92.3025 30.9472C92.3025 30.0042 92.1746 29.285 91.9189 28.7896C91.6632 28.2781 91.2956 28.0224 90.8161 28.0224C90.1768 28.0224 89.6493 28.4459 89.2338 29.293V33.944C89.5375 34.1518 89.8891 34.2557 90.2886 34.2557ZM102.86 33.4405C102.86 33.92 103.012 34.1598 103.316 34.1598C103.619 34.1598 103.915 34.0399 104.203 33.8002L104.395 34.0399C103.803 34.6952 103.108 35.0228 102.309 35.0228C101.733 35.0228 101.318 34.879 101.062 34.5913C100.806 34.2876 100.679 33.8002 100.679 33.1289V28.382C100.679 28.1582 100.575 28.0464 100.367 28.0464H99.6238L99.5518 27.7826C99.8715 27.5109 100.271 27.2872 100.751 27.1114C101.23 26.9356 101.71 26.8476 102.189 26.8476C102.381 26.8476 102.541 26.8956 102.668 26.9915C102.796 27.0874 102.86 27.2153 102.86 27.3751V33.4405ZM100.439 24.5461C100.439 24.2584 100.599 23.9388 100.918 23.5872C101.238 23.2355 101.534 23.0597 101.805 23.0597C102.093 23.0597 102.397 23.2355 102.716 23.5872C103.052 23.9388 103.22 24.2584 103.22 24.5461C103.22 24.8498 103.052 25.1774 102.716 25.5291C102.397 25.8647 102.093 26.0325 101.805 26.0325C101.534 26.0325 101.238 25.8647 100.918 25.5291C100.599 25.1774 100.439 24.8498 100.439 24.5461ZM107.293 28.4779C107.293 28.8775 107.445 29.2051 107.749 29.4608C108.069 29.7006 108.548 29.9723 109.187 30.276C109.715 30.5317 110.122 30.7554 110.41 30.9472C110.698 31.123 110.946 31.3628 111.153 31.6665C111.377 31.9701 111.489 32.3297 111.489 32.7453C111.489 33.4325 111.161 33.984 110.506 34.3995C109.867 34.8151 109.004 35.0228 107.917 35.0228C107.102 35.0228 106.43 34.879 105.903 34.5913C105.376 34.2876 105.112 33.896 105.112 33.4166C105.112 33.0969 105.232 32.8332 105.471 32.6254C105.711 32.4017 106.007 32.2898 106.358 32.2898C106.63 32.2898 106.902 32.3457 107.174 32.4576C106.902 32.6654 106.766 33.001 106.766 33.4645C106.766 33.7842 106.878 34.0319 107.102 34.2077C107.325 34.3835 107.597 34.4714 107.917 34.4714C108.284 34.4714 108.596 34.3755 108.852 34.1837C109.123 33.9919 109.259 33.7202 109.259 33.3686C109.259 33.033 109.123 32.7693 108.852 32.5775C108.596 32.3697 108.188 32.13 107.629 31.8582C107.118 31.6185 106.702 31.4027 106.382 31.2109C106.079 31.0032 105.815 30.7315 105.591 30.3958C105.368 30.0602 105.256 29.6526 105.256 29.1731C105.256 28.4539 105.559 27.8865 106.167 27.471C106.774 27.0554 107.541 26.8476 108.468 26.8476C109.283 26.8476 109.947 26.9995 110.458 27.3032C110.985 27.6068 111.249 27.9984 111.249 28.4779C111.249 28.8455 111.137 29.1172 110.914 29.293C110.69 29.4688 110.402 29.5567 110.05 29.5567C109.715 29.5567 109.419 29.4848 109.163 29.341C109.451 29.0693 109.595 28.7256 109.595 28.3101C109.595 28.0384 109.491 27.8226 109.283 27.6628C109.076 27.487 108.804 27.3991 108.468 27.3991C108.101 27.3991 107.813 27.5029 107.605 27.7107C107.397 27.9185 107.293 28.1742 107.293 28.4779ZM122.736 34.5673L122.52 34.8071H117.965L117.821 34.3755L118.516 34.2077C118.932 34.1118 119.203 33.976 119.331 33.8002C119.459 33.6243 119.523 33.2967 119.523 32.8172V25.2893L117.27 26.7278C117.142 26.6479 116.998 26.48 116.838 26.2243C116.694 25.9686 116.566 25.6889 116.454 25.3852L121.609 23.3714L122.016 23.707L121.825 23.9947V31.6665C121.825 32.3058 121.873 32.8172 121.968 33.2008C122.08 33.5684 122.264 33.928 122.52 34.2796L122.736 34.5673ZM128.069 28.334C129.443 28.334 130.538 28.6537 131.353 29.293C132.168 29.9163 132.576 30.7554 132.576 31.8103C132.576 32.7852 132.192 33.5684 131.425 34.1598C130.674 34.7351 129.659 35.0228 128.38 35.0228C127.246 35.0228 126.311 34.7991 125.575 34.3516C124.856 33.8881 124.497 33.2967 124.497 32.5775C124.497 32.0021 124.768 31.5306 125.312 31.163C125.855 30.7794 126.566 30.5716 127.445 30.5397L127.493 30.7315C127.238 30.8913 127.038 31.131 126.894 31.4507C126.75 31.7703 126.678 32.13 126.678 32.5295C126.678 33.041 126.846 33.4725 127.182 33.8241C127.517 34.1757 127.909 34.3516 128.356 34.3516C128.884 34.3516 129.307 34.1198 129.627 33.6563C129.947 33.1928 130.107 32.5775 130.107 31.8103C130.107 30.9312 129.827 30.252 129.267 29.7725C128.724 29.277 127.965 29.0293 126.99 29.0293C126.574 29.0293 126.087 29.0932 125.527 29.2211L125.24 28.6697L125.527 23.6111H132C132 23.9947 131.945 24.3463 131.833 24.666C131.737 24.9857 131.601 25.2254 131.425 25.3852H126.127L125.959 28.5498C126.678 28.406 127.381 28.334 128.069 28.334ZM133.834 26.9435C133.834 25.9047 134.122 25.0576 134.697 24.4023C135.289 23.747 136.048 23.4193 136.975 23.4193C137.87 23.4193 138.573 23.723 139.084 24.3304C139.612 24.9217 139.876 25.7289 139.876 26.7518C139.876 27.8546 139.58 28.7496 138.989 29.4369C138.413 30.1241 137.662 30.4677 136.735 30.4677C135.84 30.4677 135.129 30.1481 134.601 29.5088C134.09 28.8695 133.834 28.0144 133.834 26.9435ZM135.704 26.9675C135.704 27.8785 135.8 28.5978 135.992 29.1252C136.2 29.6526 136.479 29.9163 136.831 29.9163C137.199 29.9163 137.478 29.6606 137.67 29.1492C137.878 28.6217 137.982 27.8945 137.982 26.9675C137.982 26.0245 137.878 25.2893 137.67 24.7619C137.462 24.2185 137.183 23.9468 136.831 23.9468C136.479 23.9468 136.2 24.2185 135.992 24.7619C135.8 25.3053 135.704 26.0405 135.704 26.9675ZM143.903 23.1556H144.718L140.043 35.2866H139.252L143.903 23.1556ZM144.071 31.4986C144.071 30.4598 144.359 29.6127 144.934 28.9574C145.526 28.3021 146.285 27.9744 147.212 27.9744C148.107 27.9744 148.81 28.2781 149.321 28.8855C149.849 29.4768 150.113 30.2839 150.113 31.3068C150.113 32.4097 149.817 33.3047 149.226 33.9919C148.65 34.6792 147.899 35.0228 146.972 35.0228C146.077 35.0228 145.366 34.7032 144.838 34.0639C144.327 33.4246 144.071 32.5695 144.071 31.4986ZM145.941 31.5226C145.941 32.4336 146.037 33.1529 146.229 33.6803C146.437 34.2077 146.716 34.4714 147.068 34.4714C147.435 34.4714 147.715 34.2157 147.907 33.7043C148.115 33.1768 148.219 32.4496 148.219 31.5226C148.219 30.5796 148.115 29.8444 147.907 29.317C147.699 28.7736 147.42 28.5019 147.068 28.5019C146.716 28.5019 146.437 28.7736 146.229 29.317C146.037 29.8604 145.941 30.5956 145.941 31.5226ZM155.256 30.9472C155.256 29.6846 155.616 28.6857 156.335 27.9505C157.07 27.2153 158.061 26.8476 159.308 26.8476C160.555 26.8476 161.546 27.2232 162.281 27.9744C163.016 28.7096 163.384 29.7006 163.384 30.9472C163.384 32.1939 163.016 33.1848 162.281 33.92C161.546 34.6552 160.555 35.0228 159.308 35.0228C158.061 35.0228 157.07 34.6552 156.335 33.92C155.616 33.1848 155.256 32.1939 155.256 30.9472ZM160.962 30.9952C160.962 29.9243 160.81 29.0533 160.507 28.382C160.203 27.6947 159.819 27.3511 159.356 27.3511C158.844 27.3511 158.429 27.6867 158.109 28.358C157.79 29.0133 157.63 29.8764 157.63 30.9472C157.63 32.0341 157.774 32.8971 158.061 33.5364C158.365 34.1757 158.765 34.4954 159.26 34.4954C159.756 34.4954 160.163 34.1757 160.483 33.5364C160.802 32.8811 160.962 32.0341 160.962 30.9952ZM167.549 33.2248C167.549 33.6084 167.597 33.8721 167.693 34.0159C167.805 34.1438 168.053 34.2477 168.437 34.3276L168.748 34.3995L168.604 34.8071H164.864L164.673 34.5673L164.864 34.3276C165.056 34.0719 165.184 33.8002 165.248 33.5125C165.328 33.2088 165.368 32.8012 165.368 32.2898V28.0464H164.145C164.145 27.7746 164.161 27.5988 164.193 27.5189C164.225 27.439 164.321 27.3751 164.481 27.3271L165.368 27.1114C165.368 25.7368 165.664 24.682 166.255 23.9468C166.862 23.2116 167.725 22.844 168.844 22.844C169.547 22.844 170.115 22.9958 170.546 23.2995C170.994 23.6031 171.218 24.0027 171.218 24.4982C171.218 24.9297 171.09 25.2813 170.834 25.553C170.578 25.8088 170.243 25.9366 169.827 25.9366C169.507 25.9366 169.212 25.8727 168.94 25.7448C169.228 25.5051 169.372 25.1455 169.372 24.666C169.372 24.2824 169.3 23.9787 169.156 23.755C169.012 23.5312 168.812 23.4193 168.556 23.4193C168.237 23.4193 167.989 23.5872 167.813 23.9228C167.637 24.2584 167.549 24.7299 167.549 25.3373V27.1114H169.3C169.3 27.5589 169.18 27.8705 168.94 28.0464H167.549V33.2248ZM172.958 33.2248C172.958 33.6084 173.006 33.8721 173.102 34.0159C173.213 34.1438 173.461 34.2477 173.845 34.3276L174.156 34.3995L174.013 34.8071H170.273L170.081 34.5673L170.273 34.3276C170.464 34.0719 170.592 33.8002 170.656 33.5125C170.736 33.2088 170.776 32.8012 170.776 32.2898V28.0464H169.553C169.553 27.7746 169.569 27.5988 169.601 27.5189C169.633 27.439 169.729 27.3751 169.889 27.3271L170.776 27.1114C170.776 25.7368 171.072 24.682 171.663 23.9468C172.27 23.2116 173.134 22.844 174.252 22.844C174.956 22.844 175.523 22.9958 175.954 23.2995C176.402 23.6031 176.626 24.0027 176.626 24.4982C176.626 24.9297 176.498 25.2813 176.242 25.553C175.986 25.8088 175.651 25.9366 175.235 25.9366C174.916 25.9366 174.62 25.8727 174.348 25.7448C174.636 25.5051 174.78 25.1455 174.78 24.666C174.78 24.2824 174.708 23.9787 174.564 23.755C174.42 23.5312 174.22 23.4193 173.965 23.4193C173.645 23.4193 173.397 23.5872 173.221 23.9228C173.046 24.2584 172.958 24.7299 172.958 25.3373V27.1114H174.708C174.708 27.5589 174.588 27.8705 174.348 28.0464H172.958V33.2248Z" fill="white"/>
</svg>
