<svg width="100" height="30" viewBox="0 0 100 30" fill="none" xmlns="http://www.w3.org/2000/svg">
<rect x="0.845947" y="0.452271" width="98.402" height="29.4234" rx="14.7117" fill="url(#paint0_linear_237_17)"/>
<path d="M21.9646 14.896C21.9646 15.7607 21.8026 16.5014 21.4787 17.1179C21.1573 17.7318 20.7184 18.202 20.162 18.5286C19.6082 18.8551 18.9799 19.0184 18.2772 19.0184C17.5744 19.0184 16.9448 18.8551 16.3884 18.5286C15.8346 18.1994 15.3957 17.7279 15.0717 17.114C14.7504 16.4974 14.5897 15.7581 14.5897 14.896C14.5897 14.0313 14.7504 13.292 15.0717 12.6781C15.3957 12.0616 15.8346 11.59 16.3884 11.2635C16.9448 10.9369 17.5744 10.7737 18.2772 10.7737C18.9799 10.7737 19.6082 10.9369 20.162 11.2635C20.7184 11.59 21.1573 12.0616 21.4787 12.6781C21.8026 13.292 21.9646 14.0313 21.9646 14.896ZM20.5029 14.896C20.5029 14.2873 20.4076 13.774 20.2169 13.356C20.0288 12.9354 19.7675 12.618 19.4331 12.4038C19.0988 12.187 18.7134 12.0786 18.2772 12.0786C17.8409 12.0786 17.4556 12.187 17.1212 12.4038C16.7868 12.618 16.5242 12.9354 16.3335 13.356C16.1454 13.774 16.0514 14.2873 16.0514 14.896C16.0514 15.5047 16.1454 16.0194 16.3335 16.44C16.5242 16.858 16.7868 17.1754 17.1212 17.3922C17.4556 17.6064 17.8409 17.7135 18.2772 17.7135C18.7134 17.7135 19.0988 17.6064 19.4331 17.3922C19.7675 17.1754 20.0288 16.858 20.2169 16.44C20.4076 16.0194 20.5029 15.5047 20.5029 14.896ZM23.2763 21.1658V12.8897H24.6713V13.885H24.7536C24.8268 13.7387 24.93 13.5833 25.0632 13.4187C25.1964 13.2515 25.3767 13.1092 25.604 12.9916C25.8312 12.8714 26.1212 12.8113 26.4739 12.8113C26.9389 12.8113 27.3582 12.9302 27.7318 13.1679C28.108 13.403 28.4058 13.7518 28.6252 14.2142C28.8473 14.674 28.9583 15.2383 28.9583 15.907C28.9583 16.568 28.8499 17.1296 28.633 17.592C28.4162 18.0544 28.121 18.4071 27.7474 18.6501C27.3739 18.893 26.9507 19.0145 26.4778 19.0145C26.133 19.0145 25.8469 18.957 25.6196 18.8421C25.3924 18.7271 25.2095 18.5887 25.071 18.4267C24.9352 18.2621 24.8294 18.1067 24.7536 17.9604H24.6948V21.1658H23.2763ZM24.6674 15.8992C24.6674 16.2885 24.7223 16.6294 24.832 16.922C24.9443 17.2145 25.105 17.4431 25.314 17.6077C25.5256 17.7697 25.7816 17.8507 26.082 17.8507C26.3955 17.8507 26.6581 17.7671 26.8697 17.5999C27.0813 17.4301 27.2406 17.1989 27.3477 16.9063C27.4575 16.6111 27.5123 16.2754 27.5123 15.8992C27.5123 15.5256 27.4588 15.1939 27.3517 14.9039C27.2446 14.6139 27.0852 14.3866 26.8736 14.222C26.662 14.0575 26.3981 13.9752 26.082 13.9752C25.779 13.9752 25.5217 14.0548 25.3101 14.2142C25.0985 14.3736 24.9378 14.5969 24.8281 14.8843C24.721 15.1716 24.6674 15.51 24.6674 15.8992ZM32.8377 19.0262C32.2342 19.0262 31.7131 18.9009 31.2742 18.6501C30.8379 18.3967 30.5022 18.0388 30.2671 17.5764C30.032 17.1114 29.9144 16.5641 29.9144 15.9345C29.9144 15.3153 30.032 14.7719 30.2671 14.3043C30.5048 13.8341 30.8366 13.4684 31.2624 13.2071C31.6883 12.9433 32.1885 12.8113 32.7633 12.8113C33.1342 12.8113 33.4843 12.8714 33.8134 12.9916C34.1452 13.1092 34.4378 13.292 34.6912 13.5402C34.9472 13.7884 35.1484 14.1045 35.2947 14.4885C35.441 14.8699 35.5141 15.3245 35.5141 15.8522V16.2871H30.5806V15.331H34.1544C34.1518 15.0593 34.093 14.8177 33.978 14.6061C33.8631 14.3918 33.7024 14.2233 33.496 14.1006C33.2923 13.9778 33.0545 13.9164 32.7829 13.9164C32.4929 13.9164 32.2382 13.9869 32.0187 14.128C31.7993 14.2664 31.6282 14.4493 31.5054 14.6766C31.3852 14.9013 31.3238 15.1481 31.3212 15.4172V16.2519C31.3212 16.6019 31.3852 16.9024 31.5132 17.1532C31.6412 17.4013 31.8202 17.592 32.0501 17.7253C32.28 17.8559 32.549 17.9212 32.8573 17.9212C33.0637 17.9212 33.2505 17.8925 33.4177 17.835C33.5849 17.7749 33.7298 17.6874 33.8526 17.5724C33.9754 17.4575 34.0682 17.3151 34.1309 17.1453L35.4553 17.2942C35.3717 17.6443 35.2124 17.9499 34.9773 18.2112C34.7448 18.4698 34.447 18.671 34.0838 18.8146C33.7207 18.9557 33.3053 19.0262 32.8377 19.0262ZM38.1327 15.3819V18.9087H36.7142V12.8897H38.07V13.9125H38.1406C38.279 13.5755 38.4998 13.3077 38.8028 13.1092C39.1085 12.9106 39.486 12.8113 39.9353 12.8113C40.3507 12.8113 40.7125 12.9002 41.0207 13.0778C41.3316 13.2554 41.572 13.5128 41.7418 13.8498C41.9142 14.1868 41.9991 14.5956 41.9965 15.0763V18.9087H40.5779V15.2957C40.5779 14.8934 40.4734 14.5786 40.2645 14.3514C40.0581 14.1241 39.772 14.0104 39.4063 14.0104C39.1581 14.0104 38.9373 14.0653 38.744 14.175C38.5533 14.2821 38.4031 14.4376 38.2934 14.6413C38.1863 14.8451 38.1327 15.092 38.1327 15.3819ZM50.1922 21.1658V17.9604H50.1335C50.0603 18.1067 49.9545 18.2621 49.8161 18.4267C49.6776 18.5887 49.4947 18.7271 49.2674 18.8421C49.0402 18.957 48.7541 19.0145 48.4093 19.0145C47.9364 19.0145 47.5132 18.893 47.1396 18.6501C46.7661 18.4071 46.4709 18.0544 46.254 17.592C46.0372 17.1296 45.9288 16.568 45.9288 15.907C45.9288 15.2383 46.0385 14.674 46.258 14.2142C46.48 13.7518 46.7791 13.403 47.1553 13.1679C47.5315 12.9302 47.9508 12.8113 48.4132 12.8113C48.7659 12.8113 49.0558 12.8714 49.2831 12.9916C49.5104 13.1092 49.6907 13.2515 49.8239 13.4187C49.9571 13.5833 50.0603 13.7387 50.1335 13.885H50.2197V12.8897H51.6147V21.1658H50.1922ZM48.8051 17.8507C49.1055 17.8507 49.3615 17.7697 49.5731 17.6077C49.7847 17.4431 49.9454 17.2145 50.0551 16.922C50.1648 16.6294 50.2197 16.2885 50.2197 15.8992C50.2197 15.51 50.1648 15.1716 50.0551 14.8843C49.948 14.5969 49.7886 14.3736 49.577 14.2142C49.368 14.0548 49.1107 13.9752 48.8051 13.9752C48.489 13.9752 48.2251 14.0575 48.0135 14.222C47.8019 14.3866 47.6425 14.6139 47.5354 14.9039C47.4283 15.1939 47.3748 15.5256 47.3748 15.8992C47.3748 16.2754 47.4283 16.6111 47.5354 16.9063C47.6451 17.1989 47.8058 17.4301 48.0174 17.5999C48.2316 17.7671 48.4942 17.8507 48.8051 17.8507ZM53.0724 18.9087V12.8897H54.4478V13.8929H54.5105C54.6203 13.5454 54.8084 13.2777 55.0748 13.0896C55.3439 12.8989 55.6509 12.8035 55.9957 12.8035C56.0741 12.8035 56.1616 12.8074 56.2582 12.8153C56.3575 12.8205 56.4398 12.8296 56.5051 12.8427V14.1476C56.445 14.1267 56.3497 14.1084 56.2191 14.0927C56.091 14.0744 55.967 14.0653 55.8468 14.0653C55.5882 14.0653 55.3557 14.1215 55.1493 14.2338C54.9455 14.3435 54.7848 14.4963 54.6673 14.6923C54.5497 14.8882 54.491 15.1142 54.491 15.3702V18.9087H53.0724ZM60.8264 14.9822V16.15H57.2134V14.9822H60.8264ZM64.9438 19.0262C64.343 19.0262 63.827 18.8943 63.396 18.6305C62.9675 18.3666 62.6371 18.0022 62.4046 17.5372C62.1747 17.0696 62.0597 16.5314 62.0597 15.9227C62.0597 15.3114 62.1773 14.7719 62.4124 14.3043C62.6475 13.8341 62.9793 13.4684 63.4077 13.2071C63.8388 12.9433 64.3482 12.8113 64.936 12.8113C65.4245 12.8113 65.8569 12.9015 66.2331 13.0817C66.6119 13.2594 66.9136 13.5115 67.1383 13.838C67.3629 14.162 67.4909 14.5408 67.5223 14.9744H66.1664C66.1116 14.6844 65.981 14.4428 65.7746 14.2495C65.5708 14.0535 65.2978 13.9556 64.9556 13.9556C64.6656 13.9556 64.4109 14.0339 64.1915 14.1907C63.972 14.3448 63.8009 14.5669 63.6781 14.8569C63.558 15.1468 63.4979 15.4943 63.4979 15.8992C63.4979 16.3093 63.558 16.662 63.6781 16.9572C63.7983 17.2498 63.9668 17.4758 64.1836 17.6351C64.4031 17.7919 64.6604 17.8703 64.9556 17.8703C65.1646 17.8703 65.3514 17.8311 65.5159 17.7527C65.6831 17.6717 65.8229 17.5555 65.9352 17.4039C66.0476 17.2524 66.1246 17.0683 66.1664 16.8514H67.5223C67.4883 17.2772 67.3629 17.6547 67.1461 17.9839C66.9293 18.3105 66.6341 18.5665 66.2605 18.7519C65.8869 18.9348 65.448 19.0262 64.9438 19.0262ZM71.3125 19.0262C70.7248 19.0262 70.2153 18.8969 69.7843 18.6383C69.3532 18.3797 69.0189 18.0179 68.7811 17.5529C68.546 17.0878 68.4285 16.5445 68.4285 15.9227C68.4285 15.301 68.546 14.7563 68.7811 14.2887C69.0189 13.821 69.3532 13.4579 69.7843 13.1993C70.2153 12.9407 70.7248 12.8113 71.3125 12.8113C71.9003 12.8113 72.4098 12.9407 72.8408 13.1993C73.2719 13.4579 73.6049 13.821 73.84 14.2887C74.0778 14.7563 74.1966 15.301 74.1966 15.9227C74.1966 16.5445 74.0778 17.0878 73.84 17.5529C73.6049 18.0179 73.2719 18.3797 72.8408 18.6383C72.4098 18.8969 71.9003 19.0262 71.3125 19.0262ZM71.3204 17.8899C71.6391 17.8899 71.9056 17.8023 72.1198 17.6273C72.334 17.4497 72.4934 17.2119 72.5979 16.9141C72.705 16.6163 72.7585 16.2845 72.7585 15.9188C72.7585 15.5504 72.705 15.2174 72.5979 14.9196C72.4934 14.6191 72.334 14.3801 72.1198 14.2024C71.9056 14.0248 71.6391 13.936 71.3204 13.936C70.9938 13.936 70.7221 14.0248 70.5053 14.2024C70.2911 14.3801 70.1304 14.6191 70.0233 14.9196C69.9188 15.2174 69.8666 15.5504 69.8666 15.9188C69.8666 16.2845 69.9188 16.6163 70.0233 16.9141C70.1304 17.2119 70.2911 17.4497 70.5053 17.6273C70.7221 17.8023 70.9938 17.8899 71.3204 17.8899ZM77.6342 19.0145C77.1614 19.0145 76.7382 18.893 76.3646 18.6501C75.991 18.4071 75.6958 18.0544 75.479 17.592C75.2622 17.1296 75.1538 16.568 75.1538 15.907C75.1538 15.2383 75.2635 14.674 75.4829 14.2142C75.705 13.7518 76.0041 13.403 76.3803 13.1679C76.7565 12.9302 77.1758 12.8113 77.6382 12.8113C77.9908 12.8113 78.2808 12.8714 78.5081 12.9916C78.7354 13.1092 78.9156 13.2515 79.0489 13.4187C79.1821 13.5833 79.2853 13.7387 79.3584 13.885H79.4172V10.8834H80.8397V18.9087H79.4446V17.9604H79.3584C79.2853 18.1067 79.1795 18.2621 79.041 18.4267C78.9026 18.5887 78.7197 18.7271 78.4924 18.8421C78.2651 18.957 77.9791 19.0145 77.6342 19.0145ZM78.03 17.8507C78.3304 17.8507 78.5865 17.7697 78.7981 17.6077C79.0097 17.4431 79.1703 17.2145 79.2801 16.922C79.3898 16.6294 79.4446 16.2885 79.4446 15.8992C79.4446 15.51 79.3898 15.1716 79.2801 14.8843C79.1729 14.5969 79.0136 14.3736 78.802 14.2142C78.593 14.0548 78.3357 13.9752 78.03 13.9752C77.7139 13.9752 77.4501 14.0575 77.2385 14.222C77.0269 14.3866 76.8675 14.6139 76.7604 14.9039C76.6533 15.1939 76.5997 15.5256 76.5997 15.8992C76.5997 16.2754 76.6533 16.6111 76.7604 16.9063C76.8701 17.1989 77.0308 17.4301 77.2424 17.5999C77.4566 17.7671 77.7191 17.8507 78.03 17.8507ZM85.0159 19.0262C84.4124 19.0262 83.8913 18.9009 83.4524 18.6501C83.0161 18.3967 82.6804 18.0388 82.4453 17.5764C82.2102 17.1114 82.0926 16.5641 82.0926 15.9345C82.0926 15.3153 82.2102 14.7719 82.4453 14.3043C82.683 13.8341 83.0148 13.4684 83.4406 13.2071C83.8665 12.9433 84.3667 12.8113 84.9415 12.8113C85.3124 12.8113 85.6625 12.8714 85.9916 12.9916C86.3234 13.1092 86.616 13.292 86.8694 13.5402C87.1254 13.7884 87.3266 14.1045 87.4729 14.4885C87.6192 14.8699 87.6923 15.3245 87.6923 15.8522V16.2871H82.7588V15.331H86.3326C86.33 15.0593 86.2712 14.8177 86.1562 14.6061C86.0413 14.3918 85.8806 14.2233 85.6742 14.1006C85.4705 13.9778 85.2327 13.9164 84.9611 13.9164C84.6711 13.9164 84.4164 13.9869 84.1969 14.128C83.9775 14.2664 83.8064 14.4493 83.6836 14.6766C83.5634 14.9013 83.502 15.1481 83.4994 15.4172V16.2519C83.4994 16.6019 83.5634 16.9024 83.6914 17.1532C83.8194 17.4013 83.9984 17.592 84.2283 17.7253C84.4582 17.8559 84.7272 17.9212 85.0355 17.9212C85.2419 17.9212 85.4287 17.8925 85.5959 17.835C85.7631 17.7749 85.908 17.6874 86.0308 17.5724C86.1536 17.4575 86.2464 17.3151 86.3091 17.1453L87.6335 17.2942C87.5499 17.6443 87.3906 17.9499 87.1555 18.2112C86.923 18.4698 86.6252 18.671 86.262 18.8146C85.8989 18.9557 85.4835 19.0262 85.0159 19.0262Z" fill="white"/>
<defs>
<linearGradient id="paint0_linear_237_17" x1="28.1375" y1="0.452273" x2="92.728" y2="29.8756" gradientUnits="userSpaceOnUse">
<stop stop-color="#FFB905"/>
<stop offset="1" stop-color="#F4DC00"/>
</linearGradient>
</defs>
</svg>
