<svg width="245" height="79" viewBox="0 0 245 79" fill="none" xmlns="http://www.w3.org/2000/svg">
<g filter="url(#filter0_d_162_25)">
<rect x="11.2354" y="11.1429" width="222.066" height="56.6977" rx="28.3489" fill="url(#paint0_linear_162_25)"/>
</g>
<path d="M39.8789 46.8815V30.5522H46.0024C47.2569 30.5522 48.3093 30.7701 49.1598 31.206C50.0156 31.6419 50.6615 32.2531 51.0973 33.0398C51.5385 33.8212 51.7591 34.7328 51.7591 35.7747C51.7591 36.8218 51.5359 37.7308 51.0894 38.5015C50.6482 39.267 49.997 39.8597 49.1359 40.2796C48.2748 40.6942 47.217 40.9015 45.9625 40.9015H41.6011V38.4457H45.5639C46.2974 38.4457 46.8981 38.3447 47.3658 38.1427C47.8336 37.9354 48.1791 37.6351 48.4024 37.2418C48.6309 36.8431 48.7452 36.3541 48.7452 35.7747C48.7452 35.1953 48.6309 34.7009 48.4024 34.2916C48.1738 33.877 47.8256 33.5634 47.3579 33.3508C46.8901 33.1329 46.2868 33.0239 45.5479 33.0239H42.837V46.8815H39.8789ZM48.3147 39.4823L52.3571 46.8815H49.0562L45.0855 39.4823H48.3147ZM59.6008 47.1207C58.373 47.1207 57.3125 46.8655 56.4195 46.3552C55.5318 45.8396 54.8488 45.1114 54.3704 44.1706C53.892 43.2244 53.6528 42.1108 53.6528 40.8297C53.6528 39.57 53.892 38.4643 54.3704 37.5129C54.8541 36.5561 55.5291 35.8119 56.3956 35.2803C57.262 34.7435 58.2799 34.475 59.4493 34.475C60.2042 34.475 60.9164 34.5973 61.5862 34.8418C62.2613 35.081 62.8566 35.4531 63.3722 35.9581C63.8931 36.463 64.3024 37.1062 64.6001 37.8876C64.8978 38.6637 65.0466 39.5886 65.0466 40.6623V41.5473H55.0082V39.6019H62.2799C62.2746 39.049 62.155 38.5574 61.9211 38.1268C61.6872 37.6909 61.3603 37.3481 60.9404 37.0982C60.5257 36.8484 60.042 36.7235 59.4892 36.7235C58.8992 36.7235 58.3809 36.867 57.9344 37.1541C57.4879 37.4358 57.1398 37.8079 56.8899 38.2703C56.6454 38.7275 56.5205 39.2298 56.5152 39.7773V41.4756C56.5152 42.1879 56.6454 42.7991 56.9059 43.3094C57.1663 43.8144 57.5304 44.2024 57.9982 44.4735C58.466 44.7393 59.0135 44.8722 59.6407 44.8722C60.0606 44.8722 60.4407 44.8137 60.7809 44.6968C61.1211 44.5745 61.4161 44.3965 61.6659 44.1626C61.9158 43.9287 62.1045 43.639 62.232 43.2935L64.927 43.5965C64.7569 44.3088 64.4327 44.9307 63.9543 45.4622C63.4812 45.9885 62.8752 46.3978 62.1363 46.6901C61.3975 46.9771 60.5523 47.1207 59.6008 47.1207ZM77.168 37.8717L74.5368 38.1587C74.4624 37.8929 74.3322 37.6431 74.1461 37.4092C73.9654 37.1753 73.7209 36.9866 73.4126 36.8431C73.1043 36.6996 72.7269 36.6278 72.2804 36.6278C71.6797 36.6278 71.1747 36.7581 70.7654 37.0185C70.3615 37.279 70.1621 37.6165 70.1674 38.0311C70.1621 38.3873 70.2924 38.677 70.5581 38.9002C70.8292 39.1235 71.2757 39.3068 71.8976 39.4504L73.9866 39.8969C75.1454 40.1467 76.0065 40.5427 76.57 41.0849C77.1388 41.6271 77.4258 42.3367 77.4311 43.2138C77.4258 43.9845 77.1999 44.6649 76.7534 45.2549C76.3122 45.8396 75.6982 46.2968 74.9115 46.6263C74.1248 46.9559 73.2212 47.1207 72.2006 47.1207C70.7017 47.1207 69.495 46.8071 68.5808 46.1798C67.6665 45.5473 67.1216 44.6676 66.9462 43.5407L69.7608 43.2696C69.8884 43.8224 70.1595 44.2397 70.5741 44.5214C70.9887 44.8031 71.5282 44.944 72.1927 44.944C72.8784 44.944 73.4285 44.8031 73.8431 44.5214C74.2631 44.2397 74.473 43.8915 74.473 43.4769C74.473 43.1261 74.3375 42.8364 74.0664 42.6078C73.8006 42.3792 73.386 42.2038 72.8225 42.0816L70.7335 41.643C69.5588 41.3985 68.6897 40.9866 68.1263 40.4072C67.5628 39.8225 67.2838 39.0836 67.2891 38.1906C67.2838 37.4358 67.4884 36.782 67.903 36.2292C68.323 35.671 68.905 35.2405 69.6492 34.9375C70.3987 34.6292 71.2624 34.475 72.2405 34.475C73.6757 34.475 74.8052 34.7807 75.6291 35.392C76.4584 36.0032 76.9713 36.8298 77.168 37.8717ZM85.233 47.1207C84.0051 47.1207 82.9446 46.8655 82.0516 46.3552C81.1639 45.8396 80.4809 45.1114 80.0025 44.1706C79.5241 43.2244 79.2849 42.1108 79.2849 40.8297C79.2849 39.57 79.5241 38.4643 80.0025 37.5129C80.4862 36.5561 81.1613 35.8119 82.0277 35.2803C82.8941 34.7435 83.9121 34.475 85.0815 34.475C85.8363 34.475 86.5486 34.5973 87.2183 34.8418C87.8934 35.081 88.4887 35.4531 89.0043 35.9581C89.5253 36.463 89.9346 37.1062 90.2322 37.8876C90.5299 38.6637 90.6787 39.5886 90.6787 40.6623V41.5473H80.6404V39.6019H87.912C87.9067 39.049 87.7871 38.5574 87.5532 38.1268C87.3193 37.6909 86.9924 37.3481 86.5725 37.0982C86.1579 36.8484 85.6742 36.7235 85.1213 36.7235C84.5313 36.7235 84.0131 36.867 83.5666 37.1541C83.12 37.4358 82.7719 37.8079 82.5221 38.2703C82.2775 38.7275 82.1526 39.2298 82.1473 39.7773V41.4756C82.1473 42.1879 82.2775 42.7991 82.538 43.3094C82.7985 43.8144 83.1626 44.2024 83.6303 44.4735C84.0981 44.7393 84.6456 44.8722 85.2728 44.8722C85.6928 44.8722 86.0728 44.8137 86.413 44.6968C86.7532 44.5745 87.0482 44.3965 87.2981 44.1626C87.5479 43.9287 87.7366 43.639 87.8642 43.2935L90.5591 43.5965C90.389 44.3088 90.0648 44.9307 89.5864 45.4622C89.1133 45.9885 88.5073 46.3978 87.7685 46.6901C87.0296 46.9771 86.1844 47.1207 85.233 47.1207ZM93.1205 46.8815V34.6345H95.9192V36.6757H96.0467C96.27 35.9687 96.6527 35.4239 97.1949 35.0411C97.7424 34.6531 98.367 34.4591 99.0686 34.4591C99.2281 34.4591 99.4062 34.4671 99.6028 34.483C99.8048 34.4936 99.9723 34.5122 100.105 34.5388V37.1939C99.9829 37.1514 99.7889 37.1142 99.5231 37.0823C99.2626 37.0451 99.0101 37.0265 98.7656 37.0265C98.2394 37.0265 97.7663 37.1408 97.3464 37.3693C96.9318 37.5926 96.6049 37.9035 96.3657 38.3022C96.1265 38.7009 96.0069 39.1607 96.0069 39.6816V46.8815H93.1205ZM113.335 34.6345L108.973 46.8815H105.784L101.423 34.6345H104.5L107.315 43.732H107.443L110.265 34.6345H113.335ZM120.337 47.1207C119.109 47.1207 118.049 46.8655 117.156 46.3552C116.268 45.8396 115.585 45.1114 115.107 44.1706C114.628 43.2244 114.389 42.1108 114.389 40.8297C114.389 39.57 114.628 38.4643 115.107 37.5129C115.591 36.5561 116.266 35.8119 117.132 35.2803C117.999 34.7435 119.016 34.475 120.186 34.475C120.941 34.475 121.653 34.5973 122.323 34.8418C122.998 35.081 123.593 35.4531 124.109 35.9581C124.63 36.463 125.039 37.1062 125.337 37.8876C125.634 38.6637 125.783 39.5886 125.783 40.6623V41.5473H115.745V39.6019H123.016C123.011 39.049 122.891 38.5574 122.658 38.1268C122.424 37.6909 122.097 37.3481 121.677 37.0982C121.262 36.8484 120.779 36.7235 120.226 36.7235C119.636 36.7235 119.117 36.867 118.671 37.1541C118.224 37.4358 117.876 37.8079 117.626 38.2703C117.382 38.7275 117.257 39.2298 117.252 39.7773V41.4756C117.252 42.1879 117.382 42.7991 117.642 43.3094C117.903 43.8144 118.267 44.2024 118.735 44.4735C119.202 44.7393 119.75 44.8722 120.377 44.8722C120.797 44.8722 121.177 44.8137 121.517 44.6968C121.858 44.5745 122.153 44.3965 122.402 44.1626C122.652 43.9287 122.841 43.639 122.969 43.2935L125.664 43.5965C125.493 44.3088 125.169 44.9307 124.691 45.4622C124.218 45.9885 123.612 46.3978 122.873 46.6901C122.134 46.9771 121.289 47.1207 120.337 47.1207ZM137.318 47.1286C136.542 47.1286 135.843 46.9904 135.221 46.714C134.605 46.4323 134.116 46.0177 133.754 45.4702C133.398 44.9227 133.22 44.2476 133.22 43.445C133.22 42.754 133.348 42.1825 133.603 41.7307C133.858 41.2789 134.206 40.9175 134.647 40.6464C135.089 40.3753 135.586 40.1706 136.138 40.0324C136.697 39.8889 137.273 39.7852 137.869 39.7215C138.586 39.647 139.168 39.5806 139.615 39.5221C140.061 39.4583 140.386 39.3627 140.588 39.2351C140.795 39.1022 140.898 38.8976 140.898 38.6211V38.5733C140.898 37.9726 140.72 37.5075 140.364 37.178C140.008 36.8484 139.495 36.6836 138.825 36.6836C138.118 36.6836 137.558 36.8378 137.143 37.1461C136.734 37.4544 136.457 37.8185 136.314 38.2384L133.619 37.8557C133.831 37.1115 134.182 36.4896 134.671 35.99C135.16 35.485 135.758 35.1076 136.465 34.8578C137.172 34.6026 137.954 34.475 138.809 34.475C139.399 34.475 139.987 34.5441 140.572 34.6823C141.156 34.8205 141.69 35.0491 142.174 35.368C142.658 35.6817 143.046 36.1096 143.338 36.6517C143.636 37.1939 143.785 37.8717 143.785 38.6849V46.8815H141.01V45.1991H140.914C140.739 45.5393 140.492 45.8582 140.173 46.1559C139.859 46.4483 139.463 46.6848 138.985 46.8655C138.512 47.0409 137.956 47.1286 137.318 47.1286ZM138.068 45.0077C138.647 45.0077 139.15 44.8935 139.575 44.6649C140 44.431 140.327 44.1227 140.556 43.74C140.79 43.3573 140.906 42.94 140.906 42.4882V41.045C140.816 41.1194 140.662 41.1885 140.444 41.2523C140.231 41.3161 139.992 41.3719 139.726 41.4198C139.461 41.4676 139.198 41.5101 138.937 41.5473C138.677 41.5845 138.451 41.6164 138.259 41.643C137.829 41.7015 137.443 41.7972 137.103 41.9301C136.763 42.0629 136.495 42.249 136.298 42.4882C136.101 42.7221 136.003 43.0251 136.003 43.3971C136.003 43.9287 136.197 44.33 136.585 44.6011C136.973 44.8722 137.467 45.0077 138.068 45.0077ZM158.372 34.6345V36.867H151.332V34.6345H158.372ZM153.07 31.7003H155.956V43.1978C155.956 43.5858 156.014 43.8835 156.131 44.0908C156.254 44.2928 156.413 44.431 156.61 44.5054C156.807 44.5798 157.024 44.6171 157.264 44.6171C157.444 44.6171 157.609 44.6038 157.758 44.5772C157.912 44.5506 158.029 44.5267 158.109 44.5054L158.595 46.7619C158.441 46.815 158.22 46.8735 157.933 46.9373C157.652 47.0011 157.306 47.0383 156.897 47.0489C156.174 47.0702 155.523 46.9612 154.943 46.722C154.364 46.4775 153.904 46.1001 153.564 45.5898C153.229 45.0795 153.064 44.4416 153.07 43.6762V31.7003ZM164.31 47.1286C163.534 47.1286 162.835 46.9904 162.213 46.714C161.596 46.4323 161.107 46.0177 160.746 45.4702C160.39 44.9227 160.212 44.2476 160.212 43.445C160.212 42.754 160.339 42.1825 160.594 41.7307C160.85 41.2789 161.198 40.9175 161.639 40.6464C162.08 40.3753 162.577 40.1706 163.13 40.0324C163.688 39.8889 164.265 39.7852 164.86 39.7215C165.578 39.647 166.16 39.5806 166.606 39.5221C167.053 39.4583 167.377 39.3627 167.579 39.2351C167.786 39.1022 167.89 38.8976 167.89 38.6211V38.5733C167.89 37.9726 167.712 37.5075 167.356 37.178C167 36.8484 166.487 36.6836 165.817 36.6836C165.11 36.6836 164.549 36.8378 164.135 37.1461C163.725 37.4544 163.449 37.8185 163.305 38.2384L160.61 37.8557C160.823 37.1115 161.174 36.4896 161.663 35.99C162.152 35.485 162.75 35.1076 163.457 34.8578C164.164 34.6026 164.945 34.475 165.801 34.475C166.391 34.475 166.978 34.5441 167.563 34.6823C168.148 34.8205 168.682 35.0491 169.166 35.368C169.649 35.6817 170.038 36.1096 170.33 36.6517C170.628 37.1939 170.776 37.8717 170.776 38.6849V46.8815H168.002V45.1991H167.906C167.731 45.5393 167.483 45.8582 167.164 46.1559C166.851 46.4483 166.455 46.6848 165.976 46.8655C165.503 47.0409 164.948 47.1286 164.31 47.1286ZM165.06 45.0077C165.639 45.0077 166.141 44.8935 166.566 44.6649C166.992 44.431 167.319 44.1227 167.547 43.74C167.781 43.3573 167.898 42.94 167.898 42.4882V41.045C167.808 41.1194 167.654 41.1885 167.436 41.2523C167.223 41.3161 166.984 41.3719 166.718 41.4198C166.452 41.4676 166.189 41.5101 165.929 41.5473C165.668 41.5845 165.442 41.6164 165.251 41.643C164.82 41.7015 164.435 41.7972 164.095 41.9301C163.755 42.0629 163.486 42.249 163.289 42.4882C163.093 42.7221 162.994 43.0251 162.994 43.3971C162.994 43.9287 163.188 44.33 163.577 44.6011C163.965 44.8722 164.459 45.0077 165.06 45.0077ZM173.806 46.8815V30.5522H176.693V36.6597H176.812C176.961 36.362 177.171 36.0458 177.442 35.7109C177.713 35.3707 178.08 35.081 178.542 34.8418C179.005 34.5973 179.595 34.475 180.312 34.475C181.259 34.475 182.112 34.7169 182.872 35.2006C183.637 35.679 184.243 36.3886 184.69 37.3295C185.142 38.265 185.367 39.4132 185.367 40.7739C185.367 42.1188 185.147 43.2616 184.706 44.2024C184.265 45.1433 183.664 45.8609 182.904 46.3552C182.144 46.8496 181.283 47.0967 180.32 47.0967C179.619 47.0967 179.037 46.9798 178.574 46.7459C178.112 46.512 177.74 46.2303 177.458 45.9008C177.182 45.5659 176.966 45.2496 176.812 44.9519H176.645V46.8815H173.806ZM176.637 40.758C176.637 41.55 176.748 42.2437 176.972 42.839C177.2 43.4344 177.527 43.8995 177.952 44.2343C178.383 44.5639 178.904 44.7287 179.515 44.7287C180.153 44.7287 180.687 44.5586 181.118 44.2184C181.548 43.8729 181.873 43.4025 182.09 42.8071C182.314 42.2065 182.425 41.5234 182.425 40.758C182.425 39.9979 182.316 39.3228 182.098 38.7328C181.881 38.1427 181.556 37.6803 181.126 37.3454C180.695 37.0105 180.158 36.8431 179.515 36.8431C178.898 36.8431 178.375 37.0052 177.944 37.3295C177.514 37.6537 177.187 38.1082 176.964 38.6929C176.746 39.2776 176.637 39.966 176.637 40.758ZM190.708 30.5522V46.8815H187.821V30.5522H190.708ZM199.097 47.1207C197.87 47.1207 196.809 46.8655 195.916 46.3552C195.028 45.8396 194.345 45.1114 193.867 44.1706C193.389 43.2244 193.149 42.1108 193.149 40.8297C193.149 39.57 193.389 38.4643 193.867 37.5129C194.351 36.5561 195.026 35.8119 195.892 35.2803C196.759 34.7435 197.777 34.475 198.946 34.475C199.701 34.475 200.413 34.5973 201.083 34.8418C201.758 35.081 202.353 35.4531 202.869 35.9581C203.39 36.463 203.799 37.1062 204.097 37.8876C204.394 38.6637 204.543 39.5886 204.543 40.6623V41.5473H194.505V39.6019H201.777C201.771 39.049 201.652 38.5574 201.418 38.1268C201.184 37.6909 200.857 37.3481 200.437 37.0982C200.022 36.8484 199.539 36.7235 198.986 36.7235C198.396 36.7235 197.878 36.867 197.431 37.1541C196.985 37.4358 196.636 37.8079 196.387 38.2703C196.142 38.7275 196.017 39.2298 196.012 39.7773V41.4756C196.012 42.1879 196.142 42.7991 196.403 43.3094C196.663 43.8144 197.027 44.2024 197.495 44.4735C197.963 44.7393 198.51 44.8722 199.137 44.8722C199.557 44.8722 199.937 44.8137 200.278 44.6968C200.618 44.5745 200.913 44.3965 201.163 44.1626C201.412 43.9287 201.601 43.639 201.729 43.2935L204.424 43.5965C204.254 44.3088 203.929 44.9307 203.451 45.4622C202.978 45.9885 202.372 46.3978 201.633 46.6901C200.894 46.9771 200.049 47.1207 199.097 47.1207Z" fill="white"/>
<defs>
<filter id="filter0_d_162_25" x="0.235352" y="0.142944" width="244.066" height="78.6977" filterUnits="userSpaceOnUse" color-interpolation-filters="sRGB">
<feFlood flood-opacity="0" result="BackgroundImageFix"/>
<feColorMatrix in="SourceAlpha" type="matrix" values="0 0 0 0 0 0 0 0 0 0 0 0 0 0 0 0 0 0 127 0" result="hardAlpha"/>
<feOffset/>
<feGaussianBlur stdDeviation="5.5"/>
<feComposite in2="hardAlpha" operator="out"/>
<feColorMatrix type="matrix" values="0 0 0 0 0.807843 0 0 0 0 0.203922 0 0 0 0 0.0705882 0 0 0 1 0"/>
<feBlend mode="normal" in2="BackgroundImageFix" result="effect1_dropShadow_162_25"/>
<feBlend mode="normal" in="SourceGraphic" in2="effect1_dropShadow_162_25" result="shape"/>
</filter>
<linearGradient id="paint0_linear_162_25" x1="72.8247" y1="11.1429" x2="209.839" y2="84.2391" gradientUnits="userSpaceOnUse">
<stop stop-color="#FFB905"/>
<stop offset="1" stop-color="#F4DC00"/>
</linearGradient>
</defs>
</svg>
