<svg width="287" height="44" viewBox="0 0 287 44" fill="none" xmlns="http://www.w3.org/2000/svg">
<path d="M0.506008 3.55779L0.548436 2.92138H18.7075L18.665 3.04866L19.2166 9.03096L18.368 9.37038L17.6892 3.76993H6.14888V17.4741H16.2891C16.4305 17.5023 16.5578 17.4741 16.6709 17.3892C16.7841 17.2761 16.8406 17.1346 16.8406 16.9649L17.0104 14.0374L17.6892 13.9526V21.2077C17.6609 21.2077 17.4488 21.2218 17.0528 21.2501L16.8831 18.3226H6.14888V31.7722H18.8347L19.6409 24.9838L20.447 25.1959L19.8106 32.6207H9.03396L0.506008 32.6632L0.548436 32.0692L2.75467 31.7722C3.03752 31.7439 3.20723 31.56 3.2638 31.2206V4.36392C3.20723 4.0245 3.03752 3.84064 2.75467 3.81236L0.506008 3.55779ZM22.1431 32.6632L22.1855 32.0692L24.3918 31.7722C24.6463 31.7439 24.7736 31.5459 24.7736 31.1782V12.807C24.717 12.5807 24.6322 12.4676 24.5191 12.4676L21.931 12.3827L21.9734 11.7888C23.7554 11.5342 24.9575 11.4069 25.5797 11.4069C26.7111 11.4069 27.3476 11.9019 27.489 12.8919H27.5314V13.7829C29.8508 12.1989 32.0712 11.3645 34.1926 11.2796C36.2574 11.2796 37.8272 11.6898 38.902 12.51C39.3829 12.8777 39.8071 13.4576 40.1749 14.2496C40.5708 15.0133 40.7688 15.9325 40.7688 17.0074V31.7722L43.9509 31.9843C43.9509 32.0126 43.9368 32.2247 43.9085 32.6207L35.423 32.6632C35.423 32.4086 35.4371 32.2106 35.4654 32.0692L37.6716 31.7722C37.8979 31.7439 38.011 31.5459 38.011 31.1782V18.068C38.011 16.9366 37.8555 15.9749 37.5443 15.183C37.2615 14.391 36.9362 13.8111 36.5685 13.4434C36.2008 13.0757 35.7482 12.7929 35.2108 12.5949C34.5885 12.3686 33.938 12.2555 33.2591 12.2555C31.562 12.2837 29.6528 12.9484 27.5314 14.2496V31.7722L30.7135 31.9843C30.7135 32.0126 30.6993 32.2247 30.6711 32.6207L22.1431 32.6632ZM50.7526 32.6207V12.807C50.696 12.5807 50.6112 12.4676 50.498 12.4676L47.9099 12.3827L47.9524 11.7888C49.7343 11.5342 50.9364 11.4069 51.5587 11.4069C52.6901 11.4069 53.3265 11.9019 53.468 12.8919H53.5104V32.6207C53.5104 32.7056 53.5104 32.7763 53.5104 32.8329C53.5104 33.936 53.2983 35.0532 52.874 36.1846C52.4497 37.3161 51.9264 38.2777 51.3042 39.0697C50.003 40.7385 48.8151 41.9407 47.7402 42.6761L47.1038 43.1428L46.8068 42.8034C47.9665 41.474 48.9141 39.8051 49.6495 37.7969C50.3849 35.7887 50.7526 34.0633 50.7526 32.6207ZM52.0679 5.7216C51.5021 5.7216 51.0496 5.55189 50.7102 5.21247C50.399 4.84477 50.2435 4.37806 50.2435 3.81236C50.2435 3.21837 50.4132 2.75167 50.7526 2.41225C51.092 2.04454 51.5446 1.86069 52.1103 1.86069C52.676 1.86069 53.1285 2.04454 53.468 2.41225C53.8074 2.75167 53.9771 3.23251 53.9771 3.85479C53.9771 4.44877 53.7932 4.91548 53.4255 5.2549C53.0861 5.56604 52.6336 5.7216 52.0679 5.7216ZM67.9 32.7904C64.9583 32.7904 62.5682 31.9419 60.7297 30.2448C58.9195 28.5477 58.0143 25.9596 58.0143 22.4805C58.0143 18.9732 58.976 16.2295 60.8994 14.2496C62.8511 12.2413 65.2978 11.2372 68.2394 11.2372C71.1811 11.2372 73.5711 12.0857 75.4097 13.7829C77.2482 15.48 78.1675 18.0822 78.1675 21.5895C78.1675 25.0686 77.1916 27.8123 75.24 29.8205C73.3166 31.8005 70.8699 32.7904 67.9 32.7904ZM68.197 12.0009C66.0756 12.0009 64.3078 12.9202 62.8935 14.7587C61.4793 16.5972 60.7721 19.1005 60.7721 22.2684C60.7721 25.408 61.4368 27.8264 62.7662 29.5235C64.1239 31.1923 65.8635 32.0267 67.9848 32.0267C70.1062 32.0267 71.874 31.1075 73.2883 29.2689C74.7026 27.4304 75.4097 24.9413 75.4097 21.8017C75.4097 18.662 74.7308 16.2437 73.3732 14.5466C72.0438 12.8494 70.3184 12.0009 68.197 12.0009ZM85.4432 43.2276L85.3583 42.6337L89.3041 42.1245C89.5021 42.0962 89.6294 41.8982 89.6859 41.5305L91.086 32.6207H89.6859L82.6005 12.8919L82.5581 12.8494C82.4167 12.51 82.1904 12.312 81.8792 12.2555L79.97 12.0857C79.9417 11.916 79.9276 11.7039 79.9276 11.4493L88.8374 11.4069C88.8374 11.4352 88.8515 11.6473 88.8798 12.0433L85.5705 12.2979L91.8497 31.5176L99.7413 12.8494C99.8261 12.6797 99.7696 12.5383 99.5716 12.4252C99.4019 12.312 99.218 12.2413 99.02 12.213L97.1532 12.0857C97.1249 11.916 97.1108 11.7039 97.1108 11.4493L104.875 11.4069C104.875 11.4352 104.889 11.6473 104.917 12.0433L101.141 12.4252L92.2316 32.6207L90.6193 42.3367L94.3105 42.5488C94.3671 42.9448 94.3954 43.1569 94.3954 43.1852L85.4432 43.2276ZM129.998 31.8146L131.653 31.7297L131.78 32.154C131.752 32.154 131.554 32.1965 131.186 32.2813C130.338 32.4793 129.39 32.5783 128.344 32.5783C127.382 32.5217 126.505 32.3662 125.713 32.1116C124.921 31.8287 124.186 31.263 123.507 30.4145C122.828 29.5377 122.489 28.4204 122.489 27.0627V12.1706H120.325L120.664 11.8312L122.531 11.4493L122.871 7.37628L125.247 7.16414V11.4069H130.38V12.1706H125.247V26.3414C125.247 28.4911 125.699 29.9478 126.604 30.7115C127.509 31.4469 128.641 31.8146 129.998 31.8146ZM139.452 2.53953V14.0374C143.157 11.4918 146.509 10.6998 149.507 11.6615C150.186 11.8595 150.766 12.1565 151.246 12.5525C151.756 12.9202 152.194 13.4859 152.562 14.2496C152.929 15.0133 153.113 15.9325 153.113 17.0074V31.7722L156.295 31.9843C156.295 32.0126 156.281 32.2247 156.253 32.6207L147.767 32.6632C147.767 32.4086 147.782 32.2106 147.81 32.0692L150.016 31.7722C150.186 31.7722 150.299 31.6449 150.355 31.3903V18.1105C150.355 17.0074 150.2 16.0598 149.889 15.2678C149.606 14.4476 149.266 13.8536 148.87 13.4859C148.474 13.1182 148.008 12.8353 147.47 12.6373C146.735 12.3545 146.084 12.2413 145.519 12.2979C143.68 12.3545 141.658 13.104 139.452 14.5466V31.7722L142.634 31.9843C142.634 32.0126 142.619 32.2247 142.591 32.6207L134.106 32.6632C134.106 32.4086 134.12 32.2106 134.148 32.0692L136.354 31.7722C136.581 31.7439 136.694 31.5459 136.694 31.1782V2.32739C136.694 2.01626 136.609 1.86069 136.439 1.86069L133.894 1.77583L133.936 1.18184C135.463 0.927279 136.623 0.799996 137.415 0.799996C138.207 0.799996 138.744 0.983849 139.027 1.35156C139.31 1.71926 139.452 2.11525 139.452 2.53953ZM163.566 13.1464V31.7722L166.748 31.9843C166.748 32.0126 166.734 32.2247 166.705 32.6207L158.22 32.6632C158.22 32.4086 158.234 32.2106 158.262 32.0692L160.468 31.7722C160.638 31.7722 160.751 31.6449 160.808 31.3903V12.7646C160.751 12.5666 160.666 12.4676 160.553 12.4676L158.008 12.3827L158.05 11.7888C159.578 11.5342 160.737 11.4069 161.529 11.4069C162.321 11.4069 162.859 11.5908 163.141 11.9585C163.424 12.3262 163.566 12.7222 163.566 13.1464ZM162.123 5.7216C161.557 5.7216 161.119 5.55189 160.808 5.21247C160.497 4.84477 160.341 4.37806 160.341 3.81236C160.341 3.21837 160.497 2.75167 160.808 2.41225C161.147 2.04454 161.6 1.86069 162.166 1.86069C162.731 1.86069 163.184 2.04454 163.523 2.41225C163.891 2.75167 164.075 3.23251 164.075 3.85479C164.075 4.44877 163.891 4.91548 163.523 5.2549C163.156 5.56604 162.689 5.7216 162.123 5.7216ZM175.531 32.1116C175.701 32.1116 175.87 32.0975 176.04 32.0692C177.511 32.0409 178.741 31.5883 179.731 30.7115C180.721 29.8064 181.216 28.4911 181.216 26.7657C181.216 25.0686 179.887 23.8382 177.228 23.0745C176.125 22.7634 175.022 22.424 173.919 22.0562C172.816 21.6885 171.868 21.1087 171.076 20.3167C170.312 19.5247 169.931 18.4923 169.931 17.2195C169.931 15.4092 170.623 13.9667 172.009 12.8919C173.395 11.7888 175.149 11.2372 177.27 11.2372C178.854 11.2372 180.453 11.52 182.065 12.0857L182.829 12.3827V17.2619L182.022 17.5589L181.853 13.9526C180.212 12.6515 178.84 12.0009 177.737 12.0009C176.182 12.0009 174.951 12.4676 174.046 13.401C173.141 14.3061 172.688 15.5224 172.688 17.0498C172.688 17.9266 173.07 18.6337 173.834 19.1712C174.626 19.7086 175.573 20.1329 176.677 20.444C177.78 20.7551 178.883 21.1087 179.986 21.5047C181.089 21.8724 182.022 22.4947 182.786 23.3715C183.578 24.2201 183.974 25.3373 183.974 26.7233C183.974 28.5901 183.267 30.0751 181.853 31.1782C180.467 32.253 178.487 32.7904 175.913 32.7904C173.339 32.7904 171.203 32.1823 169.506 30.966V26.0869L170.27 25.7899L170.482 29.3962C170.878 30.1316 171.585 30.7681 172.603 31.3055C173.65 31.8429 174.626 32.1116 175.531 32.1116ZM209.716 31.8146L211.371 31.7297L211.498 32.154C211.47 32.154 211.272 32.1965 210.904 32.2813C210.055 32.4793 209.108 32.5783 208.061 32.5783C207.1 32.5217 206.223 32.3662 205.431 32.1116C204.639 31.8287 203.903 31.263 203.225 30.4145C202.546 29.5377 202.206 28.4204 202.206 27.0627V12.1706H200.043L200.382 11.8312L202.249 11.4493L202.588 7.37628L204.964 7.16414V11.4069H210.098V12.1706H204.964V26.3414C204.964 28.4911 205.417 29.9478 206.322 30.7115C207.227 31.4469 208.358 31.8146 209.716 31.8146ZM219.169 13.1464V31.7722L222.351 31.9843C222.351 32.0126 222.337 32.2247 222.309 32.6207L213.823 32.6632C213.823 32.4086 213.837 32.2106 213.866 32.0692L216.072 31.7722C216.242 31.7722 216.355 31.6449 216.411 31.3903V12.7646C216.355 12.5666 216.27 12.4676 216.157 12.4676L213.611 12.3827L213.654 11.7888C215.181 11.5342 216.341 11.4069 217.133 11.4069C217.925 11.4069 218.462 11.5908 218.745 11.9585C219.028 12.3262 219.169 12.7222 219.169 13.1464ZM217.727 5.7216C217.161 5.7216 216.722 5.55189 216.411 5.21247C216.1 4.84477 215.945 4.37806 215.945 3.81236C215.945 3.21837 216.1 2.75167 216.411 2.41225C216.751 2.04454 217.203 1.86069 217.769 1.86069C218.335 1.86069 218.787 2.04454 219.127 2.41225C219.494 2.75167 219.678 3.23251 219.678 3.85479C219.678 4.44877 219.494 4.91548 219.127 5.2549C218.759 5.56604 218.292 5.7216 217.727 5.7216ZM235.986 12.213C234.289 12.2413 232.45 12.8636 230.47 14.0798V31.7722L233.652 31.9843C233.652 32.0126 233.638 32.2247 233.61 32.6207L225.125 32.6632C225.125 32.4086 225.139 32.2106 225.167 32.0692L227.373 31.7722C227.543 31.7722 227.656 31.6449 227.713 31.3903V12.7646C227.656 12.5666 227.571 12.4676 227.458 12.4676L224.912 12.3827L224.955 11.7888C226.482 11.5342 227.642 11.4069 228.434 11.4069C229.226 11.4069 229.763 11.5908 230.046 11.9585C230.329 12.3262 230.47 12.7222 230.47 13.1464V13.6556C232.818 12.1847 234.968 11.3928 236.919 11.2796C239.607 11.2796 241.431 12.0433 242.393 13.5707C244.853 12.1565 247.173 11.3928 249.351 11.2796C251.331 11.2796 252.83 11.6898 253.848 12.51C254.329 12.8777 254.739 13.4576 255.078 14.2496C255.446 15.0133 255.63 15.9325 255.63 17.0074V31.7722L258.812 31.9843C258.812 32.0126 258.798 32.2247 258.77 32.6207L250.284 32.6632C250.284 32.4086 250.298 32.2106 250.327 32.0692L252.533 31.7722C252.703 31.7722 252.816 31.6449 252.872 31.3903V18.068C252.872 16.9366 252.731 15.9749 252.448 15.183C252.165 14.3627 251.854 13.7687 251.515 13.401C251.175 13.0333 250.751 12.7504 250.242 12.5525C249.676 12.3262 249.068 12.213 248.417 12.213C246.664 12.2413 244.754 12.906 242.69 14.2071C243.057 14.9991 243.241 15.9325 243.241 17.0074V31.7722L246.423 31.9843C246.423 32.0126 246.409 32.2247 246.381 32.6207L237.853 32.6632L237.895 32.0692L240.101 31.7722C240.299 31.7439 240.427 31.6025 240.483 31.3479V18.0256C240.483 16.6396 240.299 15.5082 239.932 14.6314C239.564 13.7263 239.069 13.1323 238.447 12.8494C237.598 12.4252 236.778 12.213 235.986 12.213ZM263.505 22.8624C263.505 28.972 265.881 32.0267 270.633 32.0267C271.877 32.0267 273.207 31.8995 274.621 31.6449C276.035 31.362 276.94 31.1075 277.336 30.8812L277.633 31.3055C276.983 31.7297 275.908 32.0833 274.409 32.3662C272.938 32.649 271.58 32.7904 270.336 32.7904C269.12 32.7904 268.016 32.6632 267.026 32.4086C266.065 32.154 265.075 31.7015 264.057 31.0509C263.038 30.4003 262.232 29.3821 261.638 27.9961C261.044 26.6101 260.747 24.913 260.747 22.9048C260.747 19.1712 261.709 16.3144 263.632 14.3344C265.641 12.2696 267.974 11.2372 270.633 11.2372C273.292 11.2372 275.314 11.9726 276.7 13.4434C278.114 14.9143 278.821 16.9791 278.821 19.6379C278.821 20.2036 278.779 20.8117 278.694 21.4623H263.547C263.519 21.7734 263.505 22.2401 263.505 22.8624ZM276.318 19.3409C276.318 17.2195 275.851 15.4941 274.918 14.1647C273.985 12.807 272.712 12.1282 271.1 12.1282C269.006 12.1282 267.239 13.0474 265.796 14.886C264.636 16.3285 263.915 18.2519 263.632 20.6561H276.276C276.304 20.345 276.318 19.9066 276.318 19.3409ZM286.769 2.92138L285.921 27.1476H285.072L284.224 3.13352L286.769 2.92138ZM284.393 32.1965C284.11 31.8853 283.969 31.5318 283.969 31.1358C283.969 30.7398 284.11 30.4003 284.393 30.1175C284.704 29.8064 285.058 29.6508 285.454 29.6508C285.85 29.6508 286.189 29.8064 286.472 30.1175C286.783 30.4003 286.939 30.7398 286.939 31.1358C286.939 31.5318 286.783 31.8853 286.472 32.1965C286.189 32.4793 285.85 32.6207 285.454 32.6207C285.058 32.6207 284.704 32.4793 284.393 32.1965Z" fill="white"/>
<path d="M0.506008 3.55779L0.548436 2.92138H18.7075L18.665 3.04866L19.2166 9.03096L18.368 9.37038L17.6892 3.76993H6.14888V17.4741H16.2891C16.4305 17.5023 16.5578 17.4741 16.6709 17.3892C16.7841 17.2761 16.8406 17.1346 16.8406 16.9649L17.0104 14.0374L17.6892 13.9526V21.2077C17.6609 21.2077 17.4488 21.2218 17.0528 21.2501L16.8831 18.3226H6.14888V31.7722H18.8347L19.6409 24.9838L20.447 25.1959L19.8106 32.6207H9.03396L0.506008 32.6632L0.548436 32.0692L2.75467 31.7722C3.03752 31.7439 3.20723 31.56 3.2638 31.2206V4.36392C3.20723 4.0245 3.03752 3.84064 2.75467 3.81236L0.506008 3.55779ZM22.1431 32.6632L22.1855 32.0692L24.3918 31.7722C24.6463 31.7439 24.7736 31.5459 24.7736 31.1782V12.807C24.717 12.5807 24.6322 12.4676 24.5191 12.4676L21.931 12.3827L21.9734 11.7888C23.7554 11.5342 24.9575 11.4069 25.5797 11.4069C26.7111 11.4069 27.3476 11.9019 27.489 12.8919H27.5314V13.7829C29.8508 12.1989 32.0712 11.3645 34.1926 11.2796C36.2574 11.2796 37.8272 11.6898 38.902 12.51C39.3829 12.8777 39.8071 13.4576 40.1749 14.2496C40.5708 15.0133 40.7688 15.9325 40.7688 17.0074V31.7722L43.9509 31.9843C43.9509 32.0126 43.9368 32.2247 43.9085 32.6207L35.423 32.6632C35.423 32.4086 35.4371 32.2106 35.4654 32.0692L37.6716 31.7722C37.8979 31.7439 38.011 31.5459 38.011 31.1782V18.068C38.011 16.9366 37.8555 15.9749 37.5443 15.183C37.2615 14.391 36.9362 13.8111 36.5685 13.4434C36.2008 13.0757 35.7482 12.7929 35.2108 12.5949C34.5885 12.3686 33.938 12.2555 33.2591 12.2555C31.562 12.2837 29.6528 12.9484 27.5314 14.2496V31.7722L30.7135 31.9843C30.7135 32.0126 30.6993 32.2247 30.6711 32.6207L22.1431 32.6632ZM50.7526 32.6207V12.807C50.696 12.5807 50.6112 12.4676 50.498 12.4676L47.9099 12.3827L47.9524 11.7888C49.7343 11.5342 50.9364 11.4069 51.5587 11.4069C52.6901 11.4069 53.3265 11.9019 53.468 12.8919H53.5104V32.6207C53.5104 32.7056 53.5104 32.7763 53.5104 32.8329C53.5104 33.936 53.2983 35.0532 52.874 36.1846C52.4497 37.3161 51.9264 38.2777 51.3042 39.0697C50.003 40.7385 48.8151 41.9407 47.7402 42.6761L47.1038 43.1428L46.8068 42.8034C47.9665 41.474 48.9141 39.8051 49.6495 37.7969C50.3849 35.7887 50.7526 34.0633 50.7526 32.6207ZM52.0679 5.7216C51.5021 5.7216 51.0496 5.55189 50.7102 5.21247C50.399 4.84477 50.2435 4.37806 50.2435 3.81236C50.2435 3.21837 50.4132 2.75167 50.7526 2.41225C51.092 2.04454 51.5446 1.86069 52.1103 1.86069C52.676 1.86069 53.1285 2.04454 53.468 2.41225C53.8074 2.75167 53.9771 3.23251 53.9771 3.85479C53.9771 4.44877 53.7932 4.91548 53.4255 5.2549C53.0861 5.56604 52.6336 5.7216 52.0679 5.7216ZM67.9 32.7904C64.9583 32.7904 62.5682 31.9419 60.7297 30.2448C58.9195 28.5477 58.0143 25.9596 58.0143 22.4805C58.0143 18.9732 58.976 16.2295 60.8994 14.2496C62.8511 12.2413 65.2978 11.2372 68.2394 11.2372C71.1811 11.2372 73.5711 12.0857 75.4097 13.7829C77.2482 15.48 78.1675 18.0822 78.1675 21.5895C78.1675 25.0686 77.1916 27.8123 75.24 29.8205C73.3166 31.8005 70.8699 32.7904 67.9 32.7904ZM68.197 12.0009C66.0756 12.0009 64.3078 12.9202 62.8935 14.7587C61.4793 16.5972 60.7721 19.1005 60.7721 22.2684C60.7721 25.408 61.4368 27.8264 62.7662 29.5235C64.1239 31.1923 65.8635 32.0267 67.9848 32.0267C70.1062 32.0267 71.874 31.1075 73.2883 29.2689C74.7026 27.4304 75.4097 24.9413 75.4097 21.8017C75.4097 18.662 74.7308 16.2437 73.3732 14.5466C72.0438 12.8494 70.3184 12.0009 68.197 12.0009ZM85.4432 43.2276L85.3583 42.6337L89.3041 42.1245C89.5021 42.0962 89.6294 41.8982 89.6859 41.5305L91.086 32.6207H89.6859L82.6005 12.8919L82.5581 12.8494C82.4167 12.51 82.1904 12.312 81.8792 12.2555L79.97 12.0857C79.9417 11.916 79.9276 11.7039 79.9276 11.4493L88.8374 11.4069C88.8374 11.4352 88.8515 11.6473 88.8798 12.0433L85.5705 12.2979L91.8497 31.5176L99.7413 12.8494C99.8261 12.6797 99.7696 12.5383 99.5716 12.4252C99.4019 12.312 99.218 12.2413 99.02 12.213L97.1532 12.0857C97.1249 11.916 97.1108 11.7039 97.1108 11.4493L104.875 11.4069C104.875 11.4352 104.889 11.6473 104.917 12.0433L101.141 12.4252L92.2316 32.6207L90.6193 42.3367L94.3105 42.5488C94.3671 42.9448 94.3954 43.1569 94.3954 43.1852L85.4432 43.2276ZM129.998 31.8146L131.653 31.7297L131.78 32.154C131.752 32.154 131.554 32.1965 131.186 32.2813C130.338 32.4793 129.39 32.5783 128.344 32.5783C127.382 32.5217 126.505 32.3662 125.713 32.1116C124.921 31.8287 124.186 31.263 123.507 30.4145C122.828 29.5377 122.489 28.4204 122.489 27.0627V12.1706H120.325L120.664 11.8312L122.531 11.4493L122.871 7.37628L125.247 7.16414V11.4069H130.38V12.1706H125.247V26.3414C125.247 28.4911 125.699 29.9478 126.604 30.7115C127.509 31.4469 128.641 31.8146 129.998 31.8146ZM139.452 2.53953V14.0374C143.157 11.4918 146.509 10.6998 149.507 11.6615C150.186 11.8595 150.766 12.1565 151.246 12.5525C151.756 12.9202 152.194 13.4859 152.562 14.2496C152.929 15.0133 153.113 15.9325 153.113 17.0074V31.7722L156.295 31.9843C156.295 32.0126 156.281 32.2247 156.253 32.6207L147.767 32.6632C147.767 32.4086 147.782 32.2106 147.81 32.0692L150.016 31.7722C150.186 31.7722 150.299 31.6449 150.355 31.3903V18.1105C150.355 17.0074 150.2 16.0598 149.889 15.2678C149.606 14.4476 149.266 13.8536 148.87 13.4859C148.474 13.1182 148.008 12.8353 147.47 12.6373C146.735 12.3545 146.084 12.2413 145.519 12.2979C143.68 12.3545 141.658 13.104 139.452 14.5466V31.7722L142.634 31.9843C142.634 32.0126 142.619 32.2247 142.591 32.6207L134.106 32.6632C134.106 32.4086 134.12 32.2106 134.148 32.0692L136.354 31.7722C136.581 31.7439 136.694 31.5459 136.694 31.1782V2.32739C136.694 2.01626 136.609 1.86069 136.439 1.86069L133.894 1.77583L133.936 1.18184C135.463 0.927279 136.623 0.799996 137.415 0.799996C138.207 0.799996 138.744 0.983849 139.027 1.35156C139.31 1.71926 139.452 2.11525 139.452 2.53953ZM163.566 13.1464V31.7722L166.748 31.9843C166.748 32.0126 166.734 32.2247 166.705 32.6207L158.22 32.6632C158.22 32.4086 158.234 32.2106 158.262 32.0692L160.468 31.7722C160.638 31.7722 160.751 31.6449 160.808 31.3903V12.7646C160.751 12.5666 160.666 12.4676 160.553 12.4676L158.008 12.3827L158.05 11.7888C159.578 11.5342 160.737 11.4069 161.529 11.4069C162.321 11.4069 162.859 11.5908 163.141 11.9585C163.424 12.3262 163.566 12.7222 163.566 13.1464ZM162.123 5.7216C161.557 5.7216 161.119 5.55189 160.808 5.21247C160.497 4.84477 160.341 4.37806 160.341 3.81236C160.341 3.21837 160.497 2.75167 160.808 2.41225C161.147 2.04454 161.6 1.86069 162.166 1.86069C162.731 1.86069 163.184 2.04454 163.523 2.41225C163.891 2.75167 164.075 3.23251 164.075 3.85479C164.075 4.44877 163.891 4.91548 163.523 5.2549C163.156 5.56604 162.689 5.7216 162.123 5.7216ZM175.531 32.1116C175.701 32.1116 175.87 32.0975 176.04 32.0692C177.511 32.0409 178.741 31.5883 179.731 30.7115C180.721 29.8064 181.216 28.4911 181.216 26.7657C181.216 25.0686 179.887 23.8382 177.228 23.0745C176.125 22.7634 175.022 22.424 173.919 22.0562C172.816 21.6885 171.868 21.1087 171.076 20.3167C170.312 19.5247 169.931 18.4923 169.931 17.2195C169.931 15.4092 170.623 13.9667 172.009 12.8919C173.395 11.7888 175.149 11.2372 177.27 11.2372C178.854 11.2372 180.453 11.52 182.065 12.0857L182.829 12.3827V17.2619L182.022 17.5589L181.853 13.9526C180.212 12.6515 178.84 12.0009 177.737 12.0009C176.182 12.0009 174.951 12.4676 174.046 13.401C173.141 14.3061 172.688 15.5224 172.688 17.0498C172.688 17.9266 173.07 18.6337 173.834 19.1712C174.626 19.7086 175.573 20.1329 176.677 20.444C177.78 20.7551 178.883 21.1087 179.986 21.5047C181.089 21.8724 182.022 22.4947 182.786 23.3715C183.578 24.2201 183.974 25.3373 183.974 26.7233C183.974 28.5901 183.267 30.0751 181.853 31.1782C180.467 32.253 178.487 32.7904 175.913 32.7904C173.339 32.7904 171.203 32.1823 169.506 30.966V26.0869L170.27 25.7899L170.482 29.3962C170.878 30.1316 171.585 30.7681 172.603 31.3055C173.65 31.8429 174.626 32.1116 175.531 32.1116ZM209.716 31.8146L211.371 31.7297L211.498 32.154C211.47 32.154 211.272 32.1965 210.904 32.2813C210.055 32.4793 209.108 32.5783 208.061 32.5783C207.1 32.5217 206.223 32.3662 205.431 32.1116C204.639 31.8287 203.903 31.263 203.225 30.4145C202.546 29.5377 202.206 28.4204 202.206 27.0627V12.1706H200.043L200.382 11.8312L202.249 11.4493L202.588 7.37628L204.964 7.16414V11.4069H210.098V12.1706H204.964V26.3414C204.964 28.4911 205.417 29.9478 206.322 30.7115C207.227 31.4469 208.358 31.8146 209.716 31.8146ZM219.169 13.1464V31.7722L222.351 31.9843C222.351 32.0126 222.337 32.2247 222.309 32.6207L213.823 32.6632C213.823 32.4086 213.837 32.2106 213.866 32.0692L216.072 31.7722C216.242 31.7722 216.355 31.6449 216.411 31.3903V12.7646C216.355 12.5666 216.27 12.4676 216.157 12.4676L213.611 12.3827L213.654 11.7888C215.181 11.5342 216.341 11.4069 217.133 11.4069C217.925 11.4069 218.462 11.5908 218.745 11.9585C219.028 12.3262 219.169 12.7222 219.169 13.1464ZM217.727 5.7216C217.161 5.7216 216.722 5.55189 216.411 5.21247C216.1 4.84477 215.945 4.37806 215.945 3.81236C215.945 3.21837 216.1 2.75167 216.411 2.41225C216.751 2.04454 217.203 1.86069 217.769 1.86069C218.335 1.86069 218.787 2.04454 219.127 2.41225C219.494 2.75167 219.678 3.23251 219.678 3.85479C219.678 4.44877 219.494 4.91548 219.127 5.2549C218.759 5.56604 218.292 5.7216 217.727 5.7216ZM235.986 12.213C234.289 12.2413 232.45 12.8636 230.47 14.0798V31.7722L233.652 31.9843C233.652 32.0126 233.638 32.2247 233.61 32.6207L225.125 32.6632C225.125 32.4086 225.139 32.2106 225.167 32.0692L227.373 31.7722C227.543 31.7722 227.656 31.6449 227.713 31.3903V12.7646C227.656 12.5666 227.571 12.4676 227.458 12.4676L224.912 12.3827L224.955 11.7888C226.482 11.5342 227.642 11.4069 228.434 11.4069C229.226 11.4069 229.763 11.5908 230.046 11.9585C230.329 12.3262 230.47 12.7222 230.47 13.1464V13.6556C232.818 12.1847 234.968 11.3928 236.919 11.2796C239.607 11.2796 241.431 12.0433 242.393 13.5707C244.853 12.1565 247.173 11.3928 249.351 11.2796C251.331 11.2796 252.83 11.6898 253.848 12.51C254.329 12.8777 254.739 13.4576 255.078 14.2496C255.446 15.0133 255.63 15.9325 255.63 17.0074V31.7722L258.812 31.9843C258.812 32.0126 258.798 32.2247 258.77 32.6207L250.284 32.6632C250.284 32.4086 250.298 32.2106 250.327 32.0692L252.533 31.7722C252.703 31.7722 252.816 31.6449 252.872 31.3903V18.068C252.872 16.9366 252.731 15.9749 252.448 15.183C252.165 14.3627 251.854 13.7687 251.515 13.401C251.175 13.0333 250.751 12.7504 250.242 12.5525C249.676 12.3262 249.068 12.213 248.417 12.213C246.664 12.2413 244.754 12.906 242.69 14.2071C243.057 14.9991 243.241 15.9325 243.241 17.0074V31.7722L246.423 31.9843C246.423 32.0126 246.409 32.2247 246.381 32.6207L237.853 32.6632L237.895 32.0692L240.101 31.7722C240.299 31.7439 240.427 31.6025 240.483 31.3479V18.0256C240.483 16.6396 240.299 15.5082 239.932 14.6314C239.564 13.7263 239.069 13.1323 238.447 12.8494C237.598 12.4252 236.778 12.213 235.986 12.213ZM263.505 22.8624C263.505 28.972 265.881 32.0267 270.633 32.0267C271.877 32.0267 273.207 31.8995 274.621 31.6449C276.035 31.362 276.94 31.1075 277.336 30.8812L277.633 31.3055C276.983 31.7297 275.908 32.0833 274.409 32.3662C272.938 32.649 271.58 32.7904 270.336 32.7904C269.12 32.7904 268.016 32.6632 267.026 32.4086C266.065 32.154 265.075 31.7015 264.057 31.0509C263.038 30.4003 262.232 29.3821 261.638 27.9961C261.044 26.6101 260.747 24.913 260.747 22.9048C260.747 19.1712 261.709 16.3144 263.632 14.3344C265.641 12.2696 267.974 11.2372 270.633 11.2372C273.292 11.2372 275.314 11.9726 276.7 13.4434C278.114 14.9143 278.821 16.9791 278.821 19.6379C278.821 20.2036 278.779 20.8117 278.694 21.4623H263.547C263.519 21.7734 263.505 22.2401 263.505 22.8624ZM276.318 19.3409C276.318 17.2195 275.851 15.4941 274.918 14.1647C273.985 12.807 272.712 12.1282 271.1 12.1282C269.006 12.1282 267.239 13.0474 265.796 14.886C264.636 16.3285 263.915 18.2519 263.632 20.6561H276.276C276.304 20.345 276.318 19.9066 276.318 19.3409ZM286.769 2.92138L285.921 27.1476H285.072L284.224 3.13352L286.769 2.92138ZM284.393 32.1965C284.11 31.8853 283.969 31.5318 283.969 31.1358C283.969 30.7398 284.11 30.4003 284.393 30.1175C284.704 29.8064 285.058 29.6508 285.454 29.6508C285.85 29.6508 286.189 29.8064 286.472 30.1175C286.783 30.4003 286.939 30.7398 286.939 31.1358C286.939 31.5318 286.783 31.8853 286.472 32.1965C286.189 32.4793 285.85 32.6207 285.454 32.6207C285.058 32.6207 284.704 32.4793 284.393 32.1965Z" fill="url(#paint0_linear_14_2579)"/>
<defs>
<linearGradient id="paint0_linear_14_2579" x1="43.6626" y1="-7.37927" x2="185.837" y2="168.902" gradientUnits="userSpaceOnUse">
<stop stop-color="#FFB905"/>
<stop offset="1" stop-color="#F4DC00"/>
</linearGradient>
</defs>
</svg>
