<svg width="189" height="15" viewBox="0 0 189 15" fill="none" xmlns="http://www.w3.org/2000/svg">
<path d="M0.534173 11.3271V0.712332H1.18205V5.71394H7.57789V0.712332H8.22577V11.3271H7.57789V6.31517H1.18205V11.3271H0.534173ZM11.1036 11.3271V3.36604H11.7308V11.3271H11.1036ZM11.4198 1.95626C11.2816 1.95626 11.1607 1.90788 11.057 1.81113C10.9568 1.71438 10.9067 1.5969 10.9067 1.45869C10.9067 1.32047 10.9568 1.20299 11.057 1.10624C11.1572 1.00949 11.2781 0.961116 11.4198 0.961116C11.558 0.961116 11.6772 1.00949 11.7774 1.10624C11.8811 1.20299 11.9329 1.32047 11.9329 1.45869C11.9329 1.5969 11.8828 1.71438 11.7826 1.81113C11.6824 1.90788 11.5615 1.95626 11.4198 1.95626ZM19.4379 5.08161L18.8522 5.2371C18.759 4.94686 18.6259 4.69634 18.4532 4.48557C18.2804 4.27479 18.0627 4.11239 17.8001 3.99836C17.5409 3.88088 17.23 3.82214 16.8672 3.82214C16.2832 3.82214 15.8046 3.96727 15.4315 4.25752C15.0617 4.54776 14.8769 4.92612 14.8769 5.3926C14.8769 5.77268 15.003 6.08712 15.2552 6.3359C15.5075 6.58123 15.8927 6.76782 16.411 6.89567L17.6342 7.20147C18.2631 7.35696 18.7365 7.6092 19.0544 7.95819C19.3723 8.30372 19.5312 8.73391 19.5312 9.24876C19.5312 9.68759 19.412 10.0763 19.1736 10.4149C18.9352 10.7536 18.6052 11.0179 18.1836 11.2079C17.7655 11.398 17.2783 11.493 16.722 11.493C15.9791 11.493 15.3693 11.3202 14.8924 10.9747C14.4156 10.6257 14.1098 10.1264 13.975 9.47681L14.5814 9.32132C14.6955 9.83962 14.9322 10.2353 15.2915 10.5082C15.6543 10.7777 16.1294 10.9125 16.7168 10.9125C17.3664 10.9125 17.8899 10.7587 18.2873 10.4512C18.6881 10.1437 18.8885 9.74978 18.8885 9.26949C18.8885 8.90322 18.771 8.59397 18.5361 8.34173C18.3011 8.08949 17.9452 7.90463 17.4684 7.78715L16.1985 7.47617C15.5489 7.31722 15.0617 7.06325 14.7369 6.71426C14.4121 6.36182 14.2497 5.92817 14.2497 5.41333C14.2497 4.98486 14.362 4.60823 14.5866 4.28343C14.8112 3.95863 15.1205 3.70466 15.5144 3.52153C15.9083 3.33839 16.3592 3.24683 16.8672 3.24683C17.5409 3.24683 18.0903 3.40577 18.5154 3.72366C18.9404 4.04156 19.2479 4.49421 19.4379 5.08161ZM24.5341 3.36604V3.93098H21.0563V3.36604H24.5341ZM22.2329 1.45869H22.86V9.44571C22.86 9.77052 22.9222 10.0366 23.0466 10.2439C23.1745 10.4478 23.3403 10.5998 23.5442 10.7C23.7515 10.7968 23.9726 10.8451 24.2076 10.8451C24.3216 10.8451 24.4201 10.8365 24.503 10.8192C24.5894 10.8019 24.6706 10.7795 24.7466 10.7518L24.9021 11.3271C24.8054 11.3617 24.6983 11.3911 24.5808 11.4153C24.4633 11.4429 24.3251 11.4567 24.1661 11.4567C23.8344 11.4567 23.52 11.3824 23.2228 11.2339C22.9291 11.0853 22.6907 10.8693 22.5076 10.586C22.3244 10.3026 22.2329 9.96056 22.2329 9.55974V1.45869ZM29.7534 11.493C29.0969 11.493 28.513 11.3168 28.0016 10.9643C27.4902 10.6084 27.0876 10.1195 26.7939 9.49754C26.5002 8.87558 26.3534 8.16724 26.3534 7.37251C26.3534 6.57432 26.5002 5.86598 26.7939 5.24747C27.0876 4.62551 27.4902 4.13658 28.0016 3.78068C28.513 3.42478 29.0969 3.24683 29.7534 3.24683C30.4099 3.24683 30.9939 3.42478 31.5053 3.78068C32.0167 4.13658 32.4192 4.62551 32.7129 5.24747C33.0066 5.86943 33.1535 6.57778 33.1535 7.37251C33.1535 8.16724 33.0066 8.87558 32.7129 9.49754C32.4192 10.1195 32.0167 10.6084 31.5053 10.9643C30.9939 11.3168 30.4099 11.493 29.7534 11.493ZM29.7534 10.9073C30.3097 10.9073 30.7952 10.7501 31.2099 10.4357C31.6279 10.1212 31.951 9.69623 32.1791 9.16065C32.4106 8.62507 32.5263 8.02902 32.5263 7.37251C32.5263 6.71599 32.4106 6.12167 32.1791 5.58955C31.9476 5.05397 31.6245 4.62896 31.2099 4.31453C30.7952 3.99664 30.3097 3.83769 29.7534 3.83769C29.1971 3.83769 28.7116 3.99664 28.297 4.31453C27.8824 4.62896 27.5593 5.05397 27.3278 5.58955C27.0963 6.12167 26.9805 6.71599 26.9805 7.37251C26.9805 8.02902 27.0945 8.62507 27.3226 9.16065C27.5541 9.69623 27.8772 10.1212 28.2918 10.4357C28.7099 10.7501 29.1971 10.9073 29.7534 10.9073ZM35.3316 11.3271V3.36604H35.9484V4.60996H36.0054C36.1782 4.20223 36.4702 3.8757 36.8814 3.63037C37.2926 3.38159 37.7607 3.25719 38.286 3.25719C38.3412 3.25719 38.3965 3.25719 38.4518 3.25719C38.5071 3.25719 38.5589 3.25892 38.6073 3.26238V3.89989C38.5658 3.89643 38.5157 3.89125 38.457 3.88434C38.4017 3.87397 38.3326 3.86879 38.2497 3.86879C37.8074 3.86879 37.4135 3.96381 37.068 4.15385C36.7259 4.3439 36.4564 4.6065 36.2594 4.94167C36.0624 5.27339 35.964 5.65347 35.964 6.08194V11.3271H35.3316ZM41.0563 14.3126C40.8973 14.3126 40.7401 14.2953 40.5846 14.2607C40.4291 14.2262 40.2892 14.1813 40.1648 14.126L40.3514 13.5714C40.6762 13.6958 40.9699 13.7407 41.2325 13.7062C41.4986 13.6716 41.7335 13.5507 41.9374 13.3433C42.1413 13.136 42.314 12.832 42.4557 12.4311L42.8185 11.436L39.9005 3.36604H40.5794L43.1088 10.5134H43.1606L45.6899 3.36604H46.3689L43.0103 12.6799C42.8824 13.0393 42.7218 13.3399 42.5283 13.5818C42.3348 13.8236 42.1136 14.005 41.8648 14.126C41.6195 14.2504 41.35 14.3126 41.0563 14.3126ZM55.4094 11.493C54.7528 11.493 54.1689 11.3168 53.6575 10.9643C53.1461 10.6084 52.7436 10.1195 52.4498 9.49754C52.1561 8.87558 52.0093 8.16724 52.0093 7.37251C52.0093 6.57432 52.1561 5.86598 52.4498 5.24747C52.7436 4.62551 53.1461 4.13658 53.6575 3.78068C54.1689 3.42478 54.7528 3.24683 55.4094 3.24683C56.0659 3.24683 56.6498 3.42478 57.1612 3.78068C57.6726 4.13658 58.0751 4.62551 58.3689 5.24747C58.6626 5.86943 58.8094 6.57778 58.8094 7.37251C58.8094 8.16724 58.6626 8.87558 58.3689 9.49754C58.0751 10.1195 57.6726 10.6084 57.1612 10.9643C56.6498 11.3168 56.0659 11.493 55.4094 11.493ZM55.4094 10.9073C55.9657 10.9073 56.4511 10.7501 56.8658 10.4357C57.2839 10.1212 57.6069 9.69623 57.835 9.16065C58.0665 8.62507 58.1823 8.02902 58.1823 7.37251C58.1823 6.71599 58.0665 6.12167 57.835 5.58955C57.6035 5.05397 57.2804 4.62896 56.8658 4.31453C56.4511 3.99664 55.9657 3.83769 55.4094 3.83769C54.853 3.83769 54.3676 3.99664 53.9529 4.31453C53.5383 4.62896 53.2152 5.05397 52.9837 5.58955C52.7522 6.12167 52.6364 6.71599 52.6364 7.37251C52.6364 8.02902 52.7505 8.62507 52.9785 9.16065C53.21 9.69623 53.5331 10.1212 53.9477 10.4357C54.3658 10.7501 54.853 10.9073 55.4094 10.9073ZM63.9937 3.36604V3.93098H60.4641V3.36604H63.9937ZM61.6251 11.3271V2.12729C61.6251 1.72648 61.7167 1.3844 61.8998 1.10106C62.0829 0.81772 62.3231 0.601761 62.6202 0.453181C62.9208 0.304601 63.2439 0.230312 63.5894 0.230312C63.7726 0.230312 63.9281 0.245861 64.0559 0.276958C64.1872 0.304601 64.3012 0.337427 64.398 0.375436L64.2114 0.935201C64.1319 0.907559 64.0456 0.883372 63.9523 0.86264C63.8624 0.841908 63.7553 0.831541 63.6309 0.831541C63.2301 0.831541 62.9001 0.954206 62.641 1.19954C62.3818 1.44486 62.2522 1.78694 62.2522 2.22577L62.247 11.3271H61.6251ZM72.8813 3.36604V3.93098H69.4035V3.36604H72.8813ZM70.58 1.45869H71.2072V9.44571C71.2072 9.77052 71.2694 10.0366 71.3938 10.2439C71.5216 10.4478 71.6875 10.5998 71.8913 10.7C72.0987 10.7968 72.3198 10.8451 72.5548 10.8451C72.6688 10.8451 72.7673 10.8365 72.8502 10.8192C72.9366 10.8019 73.0178 10.7795 73.0938 10.7518L73.2493 11.3271C73.1525 11.3617 73.0454 11.3911 72.9279 11.4153C72.8105 11.4429 72.6722 11.4567 72.5133 11.4567C72.1816 11.4567 71.8672 11.3824 71.57 11.2339C71.2763 11.0853 71.0379 10.8693 70.8547 10.586C70.6716 10.3026 70.58 9.96056 70.58 9.55974V1.45869ZM77.3361 11.4982C76.8765 11.4982 76.455 11.4066 76.0714 11.2235C75.6914 11.0404 75.3856 10.7726 75.154 10.4201C74.926 10.0677 74.812 9.63921 74.812 9.13473C74.812 8.80302 74.8707 8.51104 74.9882 8.2588C75.1057 8.00656 75.2871 7.78888 75.5324 7.60574C75.7777 7.42261 76.0922 7.2723 76.4757 7.15482C76.8593 7.03388 77.3171 6.94059 77.8492 6.87494C78.2535 6.82656 78.6146 6.77992 78.9325 6.735C79.2504 6.68662 79.4991 6.61233 79.6788 6.51213C79.862 6.41192 79.9535 6.25989 79.9535 6.05602V5.72431C79.9535 5.14381 79.7704 4.68252 79.4041 4.34044C79.0379 3.99836 78.5334 3.82732 77.8907 3.82732C77.3205 3.82732 76.8403 3.95344 76.4498 4.20568C76.0628 4.45447 75.7916 4.77582 75.6361 5.16973L75.04 4.94686C75.1921 4.56677 75.4115 4.2506 75.6983 3.99836C75.9885 3.74612 76.3202 3.55781 76.6934 3.43342C77.07 3.30902 77.4639 3.24683 77.8751 3.24683C78.231 3.24683 78.5697 3.29693 78.891 3.39713C79.2158 3.49734 79.5043 3.64937 79.7566 3.85324C80.0123 4.0571 80.2144 4.31798 80.363 4.63587C80.5116 4.95031 80.5858 5.32694 80.5858 5.76577V11.3271H79.9535V9.89145H79.9069C79.7687 10.1886 79.5786 10.4599 79.3367 10.7052C79.0983 10.9471 78.8098 11.1406 78.4712 11.2857C78.136 11.4274 77.7576 11.4982 77.3361 11.4982ZM77.3983 10.9125C77.8959 10.9125 78.3364 10.7916 78.72 10.5497C79.107 10.3044 79.4093 9.9692 79.627 9.54419C79.8447 9.11918 79.9535 8.63716 79.9535 8.09813V6.92677C79.874 6.99587 79.7583 7.05807 79.6063 7.11336C79.4577 7.16519 79.2884 7.21183 79.0983 7.2533C78.9117 7.29131 78.7148 7.32586 78.5075 7.35696C78.3036 7.3846 78.1049 7.41052 77.9114 7.4347C77.3309 7.50381 76.8575 7.61093 76.4913 7.75605C76.1285 7.89772 75.8624 8.08431 75.6931 8.31582C75.5272 8.54732 75.4443 8.82721 75.4443 9.15546C75.4443 9.69795 75.6309 10.1264 76.0041 10.4409C76.3772 10.7553 76.842 10.9125 77.3983 10.9125ZM83.4598 11.3271V0.712332H84.087V5.14381H84.1492C84.2736 4.80173 84.4498 4.4873 84.6778 4.2005C84.9059 3.91371 85.1892 3.68393 85.5279 3.51116C85.8665 3.33494 86.2621 3.24683 86.7148 3.24683C87.354 3.24683 87.912 3.42478 88.3889 3.78068C88.8657 4.13312 89.2354 4.62033 89.498 5.24229C89.7607 5.86079 89.892 6.56914 89.892 7.36732C89.892 8.17242 89.7607 8.88595 89.498 9.50791C89.2354 10.1264 88.8674 10.6119 88.3941 10.9643C87.9207 11.3168 87.3626 11.493 86.7199 11.493C86.2673 11.493 85.8717 11.4066 85.533 11.2339C85.1944 11.0576 84.9111 10.8261 84.683 10.5393C84.455 10.2491 84.277 9.93292 84.1492 9.59084H84.0766V11.3271H83.4598ZM84.0818 7.36214C84.0818 8.03939 84.1837 8.6458 84.3876 9.18138C84.5949 9.7135 84.8921 10.1351 85.2791 10.446C85.6661 10.7536 86.1291 10.9073 86.6681 10.9073C87.2141 10.9073 87.6805 10.7518 88.0675 10.4409C88.4545 10.1264 88.75 9.70141 88.9538 9.16583C89.1611 8.63025 89.2648 8.02902 89.2648 7.36214C89.2648 6.69526 89.1611 6.09576 88.9538 5.56363C88.75 5.03151 88.4545 4.61169 88.0675 4.30416C87.6805 3.99318 87.2141 3.83769 86.6681 3.83769C86.1291 3.83769 85.6661 3.99145 85.2791 4.29898C84.8921 4.60305 84.5949 5.02115 84.3876 5.55327C84.1837 6.08194 84.0818 6.68489 84.0818 7.36214ZM92.7063 0.712332V11.3271H92.074V0.712332H92.7063ZM98.4284 11.493C97.7097 11.493 97.0843 11.3151 96.5521 10.9592C96.02 10.6033 95.6088 10.1161 95.3186 9.49754C95.0283 8.87904 94.8832 8.17415 94.8832 7.38287C94.8832 6.58814 95.0283 5.8798 95.3186 5.25784C95.6123 4.63587 96.0148 4.14522 96.5262 3.78586C97.0376 3.4265 97.6216 3.24683 98.2781 3.24683C98.7238 3.24683 99.1454 3.33667 99.5427 3.51634C99.9435 3.69257 100.296 3.94826 100.6 4.28343C100.908 4.6186 101.148 5.02287 101.321 5.49626C101.497 5.96964 101.585 6.50176 101.585 7.09262V7.48653H95.2823V6.91122H100.953C100.953 6.33418 100.835 5.81415 100.6 5.35113C100.365 4.88812 100.045 4.52012 99.6412 4.24715C99.2369 3.97418 98.7826 3.83769 98.2781 3.83769C97.7494 3.83769 97.2778 3.98627 96.8631 4.28343C96.4519 4.57713 96.1254 4.9745 95.8835 5.47552C95.6451 5.97655 95.5207 6.53631 95.5103 7.15482V7.41397C95.5103 8.0774 95.6261 8.67344 95.8576 9.20211C96.0926 9.72732 96.4277 10.1437 96.8631 10.4512C97.2985 10.7553 97.8202 10.9073 98.4284 10.9073C98.8638 10.9073 99.2352 10.8348 99.5427 10.6896C99.8537 10.5411 100.108 10.3614 100.305 10.1506C100.502 9.93983 100.65 9.73596 100.75 9.53901L101.326 9.77224C101.205 10.0383 101.016 10.3044 100.761 10.5704C100.508 10.833 100.187 11.0524 99.7967 11.2287C99.4097 11.4049 98.9536 11.493 98.4284 11.493ZM107.867 11.3271V3.36604H108.483V4.60996H108.54C108.713 4.20223 109.005 3.8757 109.416 3.63037C109.828 3.38159 110.296 3.25719 110.821 3.25719C110.876 3.25719 110.932 3.25719 110.987 3.25719C111.042 3.25719 111.094 3.25892 111.142 3.26238V3.89989C111.101 3.89643 111.051 3.89125 110.992 3.88434C110.937 3.87397 110.868 3.86879 110.785 3.86879C110.342 3.86879 109.948 3.96381 109.603 4.15385C109.261 4.3439 108.991 4.6065 108.794 4.94167C108.597 5.27339 108.499 5.65347 108.499 6.08194V11.3271H107.867ZM115.703 11.493C114.985 11.493 114.359 11.3151 113.827 10.9592C113.295 10.6033 112.884 10.1161 112.594 9.49754C112.303 8.87904 112.158 8.17415 112.158 7.38287C112.158 6.58814 112.303 5.8798 112.594 5.25784C112.887 4.63587 113.29 4.14522 113.801 3.78586C114.313 3.4265 114.897 3.24683 115.553 3.24683C115.999 3.24683 116.42 3.33667 116.818 3.51634C117.219 3.69257 117.571 3.94826 117.875 4.28343C118.183 4.6186 118.423 5.02287 118.595 5.49626C118.772 5.96964 118.86 6.50176 118.86 7.09262V7.48653H112.557V6.91122H118.228C118.228 6.33418 118.11 5.81415 117.875 5.35113C117.64 4.88812 117.32 4.52012 116.916 4.24715C116.512 3.97418 116.058 3.83769 115.553 3.83769C115.024 3.83769 114.553 3.98627 114.138 4.28343C113.727 4.57713 113.4 4.9745 113.159 5.47552C112.92 5.97655 112.796 6.53631 112.785 7.15482V7.41397C112.785 8.0774 112.901 8.67344 113.133 9.20211C113.368 9.72732 113.703 10.1437 114.138 10.4512C114.573 10.7553 115.095 10.9073 115.703 10.9073C116.139 10.9073 116.51 10.8348 116.818 10.6896C117.129 10.5411 117.383 10.3614 117.58 10.1506C117.777 9.93983 117.925 9.73596 118.025 9.53901L118.601 9.77224C118.48 10.0383 118.291 10.3044 118.036 10.5704C117.783 10.833 117.462 11.0524 117.072 11.2287C116.685 11.4049 116.229 11.493 115.703 11.493ZM126.095 5.08161L125.51 5.2371C125.416 4.94686 125.283 4.69634 125.111 4.48557C124.938 4.27479 124.72 4.11239 124.457 3.99836C124.198 3.88088 123.887 3.82214 123.525 3.82214C122.941 3.82214 122.462 3.96727 122.089 4.25752C121.719 4.54776 121.534 4.92612 121.534 5.3926C121.534 5.77268 121.66 6.08712 121.913 6.3359C122.165 6.58123 122.55 6.76782 123.068 6.89567L124.292 7.20147C124.921 7.35696 125.394 7.6092 125.712 7.95819C126.03 8.30372 126.189 8.73391 126.189 9.24876C126.189 9.68759 126.069 10.0763 125.831 10.4149C125.593 10.7536 125.263 11.0179 124.841 11.2079C124.423 11.398 123.936 11.493 123.379 11.493C122.637 11.493 122.027 11.3202 121.55 10.9747C121.073 10.6257 120.767 10.1264 120.632 9.47681L121.239 9.32132C121.353 9.83962 121.59 10.2353 121.949 10.5082C122.312 10.7777 122.787 10.9125 123.374 10.9125C124.024 10.9125 124.547 10.7587 124.945 10.4512C125.346 10.1437 125.546 9.74978 125.546 9.26949C125.546 8.90322 125.428 8.59397 125.193 8.34173C124.959 8.08949 124.603 7.90463 124.126 7.78715L122.856 7.47617C122.206 7.31722 121.719 7.06325 121.394 6.71426C121.07 6.36182 120.907 5.92817 120.907 5.41333C120.907 4.98486 121.019 4.60823 121.244 4.28343C121.469 3.95863 121.778 3.70466 122.172 3.52153C122.566 3.33839 123.017 3.24683 123.525 3.24683C124.198 3.24683 124.748 3.40577 125.173 3.72366C125.598 4.04156 125.905 4.49421 126.095 5.08161ZM131.482 11.493C130.763 11.493 130.138 11.3151 129.606 10.9592C129.073 10.6033 128.662 10.1161 128.372 9.49754C128.082 8.87904 127.937 8.17415 127.937 7.38287C127.937 6.58814 128.082 5.8798 128.372 5.25784C128.666 4.63587 129.068 4.14522 129.58 3.78586C130.091 3.4265 130.675 3.24683 131.331 3.24683C131.777 3.24683 132.199 3.33667 132.596 3.51634C132.997 3.69257 133.349 3.94826 133.653 4.28343C133.961 4.6186 134.201 5.02287 134.374 5.49626C134.55 5.96964 134.638 6.50176 134.638 7.09262V7.48653H128.336V6.91122H134.006C134.006 6.33418 133.888 5.81415 133.653 5.35113C133.418 4.88812 133.099 4.52012 132.695 4.24715C132.29 3.97418 131.836 3.83769 131.331 3.83769C130.803 3.83769 130.331 3.98627 129.917 4.28343C129.505 4.57713 129.179 4.9745 128.937 5.47552C128.698 5.97655 128.574 6.53631 128.564 7.15482V7.41397C128.564 8.0774 128.679 8.67344 128.911 9.20211C129.146 9.72732 129.481 10.1437 129.917 10.4512C130.352 10.7553 130.874 10.9073 131.482 10.9073C131.917 10.9073 132.289 10.8348 132.596 10.6896C132.907 10.5411 133.161 10.3614 133.358 10.1506C133.555 9.93983 133.704 9.73596 133.804 9.53901L134.379 9.77224C134.258 10.0383 134.07 10.3044 133.814 10.5704C133.562 10.833 133.241 11.0524 132.85 11.2287C132.463 11.4049 132.007 11.493 131.482 11.493ZM136.815 11.3271V3.36604H137.432V4.60996H137.489C137.662 4.20223 137.954 3.8757 138.365 3.63037C138.776 3.38159 139.244 3.25719 139.769 3.25719C139.825 3.25719 139.88 3.25719 139.935 3.25719C139.991 3.25719 140.042 3.25892 140.091 3.26238V3.89989C140.049 3.89643 139.999 3.89125 139.94 3.88434C139.885 3.87397 139.816 3.86879 139.733 3.86879C139.291 3.86879 138.897 3.96381 138.551 4.15385C138.209 4.3439 137.94 4.6065 137.743 4.94167C137.546 5.27339 137.447 5.65347 137.447 6.08194V11.3271H136.815ZM147.852 3.36604L144.976 11.3271H144.26L141.384 3.36604H142.063L144.592 10.5134H144.644L147.173 3.36604H147.852ZM151.696 11.4982C151.236 11.4982 150.814 11.4066 150.431 11.2235C150.051 11.0404 149.745 10.7726 149.513 10.4201C149.285 10.0677 149.171 9.63921 149.171 9.13473C149.171 8.80302 149.23 8.51104 149.348 8.2588C149.465 8.00656 149.647 7.78888 149.892 7.60574C150.137 7.42261 150.452 7.2723 150.835 7.15482C151.219 7.03388 151.677 6.94059 152.209 6.87494C152.613 6.82656 152.974 6.77992 153.292 6.735C153.61 6.68662 153.859 6.61233 154.038 6.51213C154.221 6.41192 154.313 6.25989 154.313 6.05602V5.72431C154.313 5.14381 154.13 4.68252 153.764 4.34044C153.397 3.99836 152.893 3.82732 152.25 3.82732C151.68 3.82732 151.2 3.95344 150.809 4.20568C150.422 4.45447 150.151 4.77582 149.995 5.16973L149.399 4.94686C149.551 4.56677 149.771 4.2506 150.058 3.99836C150.348 3.74612 150.68 3.55781 151.053 3.43342C151.429 3.30902 151.823 3.24683 152.235 3.24683C152.59 3.24683 152.929 3.29693 153.25 3.39713C153.575 3.49734 153.864 3.64937 154.116 3.85324C154.372 4.0571 154.574 4.31798 154.722 4.63587C154.871 4.95031 154.945 5.32694 154.945 5.76577V11.3271H154.313V9.89145H154.266C154.128 10.1886 153.938 10.4599 153.696 10.7052C153.458 10.9471 153.169 11.1406 152.831 11.2857C152.495 11.4274 152.117 11.4982 151.696 11.4982ZM151.758 10.9125C152.255 10.9125 152.696 10.7916 153.079 10.5497C153.466 10.3044 153.769 9.9692 153.986 9.54419C154.204 9.11918 154.313 8.63716 154.313 8.09813V6.92677C154.233 6.99587 154.118 7.05807 153.966 7.11336C153.817 7.16519 153.648 7.21183 153.458 7.2533C153.271 7.29131 153.074 7.32586 152.867 7.35696C152.663 7.3846 152.464 7.41052 152.271 7.4347C151.69 7.50381 151.217 7.61093 150.851 7.75605C150.488 7.89772 150.222 8.08431 150.053 8.31582C149.887 8.54732 149.804 8.82721 149.804 9.15546C149.804 9.69795 149.99 10.1264 150.363 10.4409C150.737 10.7553 151.201 10.9125 151.758 10.9125ZM160.411 3.36604V3.93098H156.933V3.36604H160.411ZM158.11 1.45869H158.737V9.44571C158.737 9.77052 158.799 10.0366 158.923 10.2439C159.051 10.4478 159.217 10.5998 159.421 10.7C159.628 10.7968 159.849 10.8451 160.084 10.8451C160.198 10.8451 160.297 10.8365 160.38 10.8192C160.466 10.8019 160.547 10.7795 160.623 10.7518L160.779 11.3271C160.682 11.3617 160.575 11.3911 160.457 11.4153C160.34 11.4429 160.202 11.4567 160.043 11.4567C159.711 11.4567 159.397 11.3824 159.099 11.2339C158.806 11.0853 158.567 10.8693 158.384 10.586C158.201 10.3026 158.11 9.96056 158.11 9.55974V1.45869ZM162.787 11.3271V3.36604H163.414V11.3271H162.787ZM163.103 1.95626C162.965 1.95626 162.844 1.90788 162.741 1.81113C162.64 1.71438 162.59 1.5969 162.59 1.45869C162.59 1.32047 162.64 1.20299 162.741 1.10624C162.841 1.00949 162.962 0.961116 163.103 0.961116C163.242 0.961116 163.361 1.00949 163.461 1.10624C163.565 1.20299 163.616 1.32047 163.616 1.45869C163.616 1.5969 163.566 1.71438 163.466 1.81113C163.366 1.90788 163.245 1.95626 163.103 1.95626ZM169.022 11.493C168.366 11.493 167.782 11.3168 167.27 10.9643C166.759 10.6084 166.357 10.1195 166.063 9.49754C165.769 8.87558 165.622 8.16724 165.622 7.37251C165.622 6.57432 165.769 5.86598 166.063 5.24747C166.357 4.62551 166.759 4.13658 167.27 3.78068C167.782 3.42478 168.366 3.24683 169.022 3.24683C169.679 3.24683 170.263 3.42478 170.774 3.78068C171.286 4.13658 171.688 4.62551 171.982 5.24747C172.276 5.86943 172.422 6.57778 172.422 7.37251C172.422 8.16724 172.276 8.87558 171.982 9.49754C171.688 10.1195 171.286 10.6084 170.774 10.9643C170.263 11.3168 169.679 11.493 169.022 11.493ZM169.022 10.9073C169.579 10.9073 170.064 10.7501 170.479 10.4357C170.897 10.1212 171.22 9.69623 171.448 9.16065C171.68 8.62507 171.795 8.02902 171.795 7.37251C171.795 6.71599 171.68 6.12167 171.448 5.58955C171.216 5.05397 170.893 4.62896 170.479 4.31453C170.064 3.99664 169.579 3.83769 169.022 3.83769C168.466 3.83769 167.981 3.99664 167.566 4.31453C167.151 4.62896 166.828 5.05397 166.597 5.58955C166.365 6.12167 166.249 6.71599 166.249 7.37251C166.249 8.02902 166.363 8.62507 166.592 9.16065C166.823 9.69623 167.146 10.1212 167.561 10.4357C167.979 10.7501 168.466 10.9073 169.022 10.9073ZM175.233 6.16486V11.3271H174.601V3.36604H175.217V4.62551H175.28C175.466 4.21432 175.765 3.88434 176.176 3.63555C176.587 3.38677 177.076 3.26238 177.643 3.26238C178.179 3.26238 178.649 3.3764 179.053 3.60446C179.461 3.83251 179.778 4.15731 180.006 4.57886C180.238 4.99696 180.354 5.49626 180.354 6.07675V11.3271H179.721V6.10267C179.721 5.42542 179.519 4.8812 179.115 4.47002C178.714 4.05538 178.184 3.84806 177.524 3.84806C177.082 3.84806 176.688 3.94481 176.342 4.13831C175.997 4.3318 175.725 4.60305 175.528 4.95204C175.331 5.29757 175.233 5.70185 175.233 6.16486ZM188.04 5.08161L187.454 5.2371C187.361 4.94686 187.228 4.69634 187.055 4.48557C186.883 4.27479 186.665 4.11239 186.402 3.99836C186.143 3.88088 185.832 3.82214 185.469 3.82214C184.885 3.82214 184.407 3.96727 184.034 4.25752C183.664 4.54776 183.479 4.92612 183.479 5.3926C183.479 5.77268 183.605 6.08712 183.857 6.3359C184.11 6.58123 184.495 6.76782 185.013 6.89567L186.236 7.20147C186.865 7.35696 187.339 7.6092 187.657 7.95819C187.974 8.30372 188.133 8.73391 188.133 9.24876C188.133 9.68759 188.014 10.0763 187.776 10.4149C187.537 10.7536 187.207 11.0179 186.786 11.2079C186.368 11.398 185.881 11.493 185.324 11.493C184.581 11.493 183.971 11.3202 183.495 10.9747C183.018 10.6257 182.712 10.1264 182.577 9.47681L183.184 9.32132C183.298 9.83962 183.534 10.2353 183.894 10.5082C184.257 10.7777 184.732 10.9125 185.319 10.9125C185.969 10.9125 186.492 10.7587 186.89 10.4512C187.29 10.1437 187.491 9.74978 187.491 9.26949C187.491 8.90322 187.373 8.59397 187.138 8.34173C186.903 8.08949 186.547 7.90463 186.071 7.78715L184.801 7.47617C184.151 7.31722 183.664 7.06325 183.339 6.71426C183.014 6.36182 182.852 5.92817 182.852 5.41333C182.852 4.98486 182.964 4.60823 183.189 4.28343C183.413 3.95863 183.723 3.70466 184.117 3.52153C184.511 3.33839 184.961 3.24683 185.469 3.24683C186.143 3.24683 186.693 3.40577 187.118 3.72366C187.543 4.04156 187.85 4.49421 188.04 5.08161Z" fill="white"/>
</svg>
