<svg width="299" height="43" viewBox="0 0 299 43" fill="none" xmlns="http://www.w3.org/2000/svg">
<path d="M13.4378 2.81169C10.2416 2.81169 7.71007 4.14109 5.84326 6.79989C3.97644 9.45869 3.04303 13.3055 3.04303 18.3402C3.04303 24.4498 4.44314 28.3956 7.24337 30.1775C8.09192 30.7149 8.86976 31.0685 9.57689 31.2382C10.3123 31.3796 11.1184 31.4503 11.9953 31.4503C14.7955 31.4503 17.723 31.1109 20.7778 30.4321L20.9051 31.0261C20.4242 31.1958 19.1372 31.4221 17.0442 31.7049C14.9793 31.9595 13.2964 32.0868 11.9953 32.0868C10.6941 32.0868 9.56274 32.0019 8.60105 31.8322C7.63936 31.6342 6.6211 31.2382 5.54626 30.6442C4.47143 30.0502 3.55216 29.2724 2.78847 28.3107C2.05305 27.3207 1.43078 25.9772 0.921649 24.2801C0.412517 22.583 0.157952 20.603 0.157952 18.3402C0.157952 13.3337 1.3035 9.4304 3.59459 6.63018C5.99882 3.68853 9.27989 2.2177 13.4378 2.2177C14.7106 2.2177 16.0825 2.34499 17.5533 2.59955C19.0524 2.82583 20.1131 3.05212 20.7354 3.2784L21.2445 9.38798L20.4384 9.68497L19.8868 5.14521C17.5957 3.58953 15.446 2.81169 13.4378 2.81169ZM32.091 32.0868C29.1494 32.0868 26.7593 31.2382 24.9208 29.5411C23.1105 27.844 22.2054 25.2559 22.2054 21.7768C22.2054 18.2695 23.1671 15.5258 25.0905 13.5459C27.0422 11.5376 29.4888 10.5335 32.4305 10.5335C35.3721 10.5335 37.7622 11.3821 39.6007 13.0792C41.4393 14.7763 42.3585 17.3785 42.3585 20.8859C42.3585 24.3649 41.3827 27.1086 39.431 29.1168C37.5076 31.0968 35.061 32.0868 32.091 32.0868ZM32.388 11.2972C30.2667 11.2972 28.4988 12.2165 27.0846 14.055C25.6703 15.8935 24.9632 18.3968 24.9632 21.5647C24.9632 24.7044 25.6279 27.1227 26.9573 28.8198C28.315 30.4887 30.0545 31.3231 32.1759 31.3231C34.2973 31.3231 36.0651 30.4038 37.4794 28.5653C38.8936 26.7267 39.6007 24.2376 39.6007 21.098C39.6007 17.9584 38.9219 15.54 37.5642 13.8429C36.2348 12.1458 34.5094 11.2972 32.388 11.2972ZM44.9208 31.9595L44.9632 31.3655L47.1694 31.0685C47.424 31.0402 47.5513 30.8422 47.5513 30.4745V12.1033C47.4947 11.8771 47.4099 11.7639 47.2967 11.7639L44.7086 11.6791L44.7511 11.0851C46.533 10.8305 47.7351 10.7032 48.3574 10.7032C49.4888 10.7032 50.1252 11.1982 50.2667 12.1882H50.3091V13.0792C52.6285 11.4952 54.8488 10.6608 56.9702 10.5759C59.035 10.5759 60.6049 10.9861 61.6797 11.8064C62.1605 12.1741 62.5848 12.7539 62.9525 13.5459C63.3485 14.3096 63.5465 15.2288 63.5465 16.3037V31.0685L66.7286 31.2806C66.7286 31.3089 66.7144 31.5211 66.6861 31.9171L58.2006 31.9595C58.2006 31.7049 58.2148 31.5069 58.243 31.3655L60.4493 31.0685C60.6756 31.0402 60.7887 30.8422 60.7887 30.4745V17.3644C60.7887 16.233 60.6331 15.2713 60.322 14.4793C60.0392 13.6873 59.7139 13.1075 59.3462 12.7398C58.9785 12.3721 58.5259 12.0892 57.9885 11.8912C57.3662 11.6649 56.7157 11.5518 56.0368 11.5518C54.3397 11.5801 52.4305 12.2448 50.3091 13.5459V31.0685L53.4912 31.2806C53.4912 31.3089 53.477 31.5211 53.4487 31.9171L44.9208 31.9595ZM67.9023 36.2871C67.9023 33.6283 69.5145 31.3514 72.739 29.4563C71.3531 28.6926 70.6601 27.7309 70.6601 26.5712C70.6601 25.3832 71.2258 24.4639 72.3572 23.8134C70.151 22.8234 69.0478 20.7303 69.0478 17.5341C69.0478 15.3561 69.8681 13.6449 71.5086 12.4003C73.1492 11.1558 75.2423 10.5335 77.7879 10.5335C78.9759 10.5335 80.1073 10.6749 81.1821 10.9578L88.2676 10.5335L88.1827 12.1458L83.1338 11.8488C84.9724 13.0368 85.8916 14.8329 85.8916 17.2371C85.8916 19.6413 85.1138 21.4799 83.5581 22.7527C82.0024 24.0255 79.9942 24.6619 77.5334 24.6619C75.8928 24.6619 74.5493 24.5205 73.5027 24.2377C73.0219 24.7751 72.7815 25.3973 72.7815 26.1045C72.7815 27.3773 73.2906 28.2966 74.3089 28.8623C75.412 29.5128 77.3637 30.0785 80.1639 30.5594C80.8144 30.6725 81.2811 30.7715 81.564 30.8564C81.8751 30.9129 82.3136 30.9978 82.8793 31.1109C83.445 31.2241 83.8692 31.3372 84.1521 31.4503C84.4349 31.5352 84.7885 31.6766 85.2128 31.8746C85.6653 32.0443 86.0048 32.214 86.231 32.3838C86.4573 32.5535 86.7119 32.7656 86.9947 33.0202C87.2776 33.2747 87.4897 33.5576 87.6312 33.8687C87.9423 34.6041 88.0979 35.4527 88.0979 36.4144C88.0979 37.4044 87.8009 38.3378 87.2069 39.2146C86.6129 40.0914 85.7926 40.7561 84.7461 41.2087C82.7095 42.0855 80.376 42.524 77.7455 42.524C74.2664 42.524 71.7491 41.9017 70.1934 40.6571C68.666 39.4409 67.9023 37.9842 67.9023 36.2871ZM73.4179 29.7957C71.5794 31.8039 70.6601 33.7697 70.6601 35.6931C70.6601 37.6165 71.2117 39.1015 72.3148 40.148C73.4462 41.2228 75.1574 41.7603 77.4485 41.7603C79.7396 41.7603 81.6206 41.3218 83.0914 40.445C84.5905 39.5682 85.3401 38.1681 85.3401 36.2447C85.3401 34.7173 84.8592 33.6 83.8975 32.8929C82.9641 32.1858 81.6347 31.6625 79.9093 31.3231C76.4303 30.6725 74.2664 30.1634 73.4179 29.7957ZM77.6607 11.0851C75.907 11.0851 74.4927 11.6366 73.4179 12.7398C72.3431 13.8146 71.8056 15.441 71.8056 17.6189C71.8056 19.7969 72.2158 21.4233 73.036 22.4981C73.8563 23.573 75.1857 24.1104 77.0242 24.1104C78.8911 24.1104 80.3477 23.5022 81.3943 22.286C82.4691 21.0414 83.0065 19.3726 83.0065 17.2795C83.0065 13.1499 81.2246 11.0851 77.6607 11.0851ZM95.9261 12.4428V15.837C98.1606 12.5559 100.353 10.8871 102.502 10.8305C102.672 10.8305 102.842 10.8305 103.012 10.8305L105.387 11.1275L104.284 13.6732C103.747 13.1358 103.054 12.867 102.205 12.867C100.141 12.8953 98.0475 14.2672 95.9261 16.9825V31.0685L99.5324 31.2806C99.5324 31.3089 99.5183 31.5211 99.49 31.9171L90.5802 31.9595C90.5802 31.7049 90.5943 31.5069 90.6226 31.3655L92.8289 31.0685C93.0551 31.0402 93.1683 30.8422 93.1683 30.4745V12.0609C93.1117 11.8629 93.0269 11.7639 92.9137 11.7639L90.3681 11.6791L90.4105 11.0851C91.9379 10.8305 93.0976 10.7032 93.8896 10.7032C94.6815 10.7032 95.219 10.8871 95.5018 11.2548C95.7847 11.6225 95.9261 12.0185 95.9261 12.4428ZM121.544 30.3048H121.417C118.871 31.4928 116.396 32.0868 113.992 32.0868C110.23 32.0868 108.236 30.6018 108.01 27.6319C107.981 27.4339 107.967 27.25 107.967 27.0803C107.967 24.9023 109.396 23.4457 112.252 22.7103C113.95 22.3425 117.004 21.9041 121.417 21.395V17.6614C121.417 16.4734 121.275 15.4551 120.993 14.6066C120.71 13.758 120.399 13.1358 120.059 12.7398C119.72 12.3155 119.281 11.9902 118.744 11.7639C118.065 11.4811 117.301 11.3396 116.453 11.3396C115.633 11.3396 114.685 11.5518 113.61 11.9761C112.054 12.6266 110.668 13.4469 109.452 14.4369L109.283 17.7462L108.476 17.9584V12.8246L108.901 12.6549C111.107 11.6932 112.79 11.1134 113.95 10.9154C115.109 10.7174 115.958 10.6184 116.495 10.6184C117.033 10.5901 117.542 10.5901 118.023 10.6184C118.532 10.6467 119.182 10.7739 119.974 11.0002C120.766 11.2265 121.445 11.5518 122.011 11.9761C122.605 12.3721 123.114 12.9802 123.538 13.8005C123.962 14.6207 124.175 15.5966 124.175 16.728V29.7108C124.175 30.5877 124.401 31.0261 124.853 31.0261L127.442 31.1534L127.399 31.7898C125.815 32.0161 124.401 32.1292 123.156 32.1292C122.817 32.1009 122.463 31.9312 122.096 31.6201C121.728 31.2806 121.544 30.8422 121.544 30.3048ZM114.756 31.4079C116.849 31.4079 119.069 30.6725 121.417 29.2017V22.2011C117.174 22.3425 114.501 22.5971 113.398 22.9648C112.323 23.3042 111.574 23.8558 111.149 24.6195C110.753 25.3549 110.555 26.0903 110.555 26.8257C110.555 26.9672 110.555 27.1086 110.555 27.25C110.64 28.7208 111.079 29.7815 111.871 30.4321C112.663 31.0826 113.624 31.4079 114.756 31.4079ZM137.984 31.1109L139.639 31.0261L139.766 31.4503C139.738 31.4503 139.54 31.4928 139.172 31.5776C138.324 31.7756 137.376 31.8746 136.33 31.8746C135.368 31.8181 134.491 31.6625 133.699 31.4079C132.907 31.1251 132.172 30.5594 131.493 29.7108C130.814 28.834 130.475 27.7167 130.475 26.359V11.4669H128.311L128.65 11.1275L130.517 10.7457L130.857 6.67261L133.233 6.46047V10.7032H138.366V11.4669H133.233V25.6378C133.233 27.7874 133.685 29.2441 134.59 30.0078C135.495 30.7432 136.627 31.1109 137.984 31.1109ZM142.751 11.3821L142.708 10.7457L148.436 10.7032V25.4681C148.436 26.5712 148.591 27.5329 148.903 28.3531C149.214 29.1451 149.553 29.725 149.921 30.0927C150.317 30.4604 150.769 30.7432 151.279 30.9412C152.071 31.2241 152.735 31.3372 153.273 31.2806C154.998 31.2524 156.964 30.3614 159.17 28.6077V12.1882C159.057 11.8488 158.817 11.6508 158.449 11.5942L156.243 11.3821C156.214 11.2124 156.2 11.0002 156.2 10.7457L161.928 10.7032V29.9654C161.984 30.6725 162.211 31.0261 162.607 31.0261L165.152 31.1534L165.11 31.7898C163.752 32.0161 162.338 32.1292 160.867 32.1292C160.528 32.1009 160.16 31.9171 159.764 31.5776C159.368 31.2099 159.17 30.7574 159.17 30.2199V29.4563C156.596 31.1816 154.164 32.0443 151.873 32.0443C150.911 32.0443 149.779 31.8039 148.478 31.3231C147.63 31.0119 146.951 30.4321 146.442 29.5835C145.933 28.7067 145.678 27.6177 145.678 26.3166V12.2306C145.678 12.0892 145.593 11.9619 145.424 11.8488C145.282 11.7074 145.127 11.6225 144.957 11.5942L142.751 11.3821ZM168.775 31.9595L168.817 31.3655L171.023 31.0685C171.221 31.0402 171.349 30.8988 171.405 30.6442V1.62372C171.405 1.31258 171.32 1.15701 171.151 1.15701L168.563 1.07216L168.605 0.47817C170.387 0.223604 171.603 0.0963214 172.254 0.0963214C172.933 0.0963214 173.413 0.280175 173.696 0.647881C174.007 1.01559 174.163 1.41158 174.163 1.83586V31.0685L177.345 31.2806C177.345 31.3089 177.331 31.5211 177.303 31.9171L168.775 31.9595ZM193.887 30.3048H193.759C191.214 31.4928 188.739 32.0868 186.334 32.0868C182.572 32.0868 180.578 30.6018 180.352 27.6319C180.324 27.4339 180.31 27.25 180.31 27.0803C180.31 24.9023 181.738 23.4457 184.595 22.7103C186.292 22.3425 189.347 21.9041 193.759 21.395V17.6614C193.759 16.4734 193.618 15.4551 193.335 14.6066C193.052 13.758 192.741 13.1358 192.402 12.7398C192.062 12.3155 191.624 11.9902 191.086 11.7639C190.407 11.4811 189.644 11.3396 188.795 11.3396C187.975 11.3396 187.027 11.5518 185.953 11.9761C184.397 12.6266 183.011 13.4469 181.795 14.4369L181.625 17.7462L180.819 17.9584V12.8246L181.243 12.6549C183.449 11.6932 185.132 11.1134 186.292 10.9154C187.452 10.7174 188.3 10.6184 188.838 10.6184C189.375 10.5901 189.884 10.5901 190.365 10.6184C190.874 10.6467 191.525 10.7739 192.317 11.0002C193.109 11.2265 193.788 11.5518 194.353 11.9761C194.947 12.3721 195.456 12.9802 195.881 13.8005C196.305 14.6207 196.517 15.5966 196.517 16.728V29.7108C196.517 30.5877 196.743 31.0261 197.196 31.0261L199.784 31.1534L199.742 31.7898C198.158 32.0161 196.743 32.1292 195.499 32.1292C195.159 32.1009 194.806 31.9312 194.438 31.6201C194.07 31.2806 193.887 30.8422 193.887 30.3048ZM187.098 31.4079C189.191 31.4079 191.412 30.6725 193.759 29.2017V22.2011C189.516 22.3425 186.844 22.5971 185.74 22.9648C184.666 23.3042 183.916 23.8558 183.492 24.6195C183.096 25.3549 182.898 26.0903 182.898 26.8257C182.898 26.9672 182.898 27.1086 182.898 27.25C182.983 28.7208 183.421 29.7815 184.213 30.4321C185.005 31.0826 185.967 31.4079 187.098 31.4079ZM210.327 31.1109L211.982 31.0261L212.109 31.4503C212.081 31.4503 211.883 31.4928 211.515 31.5776C210.666 31.7756 209.719 31.8746 208.672 31.8746C207.711 31.8181 206.834 31.6625 206.042 31.4079C205.25 31.1251 204.514 30.5594 203.835 29.7108C203.157 28.834 202.817 27.7167 202.817 26.359V11.4669H200.653L200.993 11.1275L202.86 10.7457L203.199 6.67261L205.575 6.46047V10.7032H210.709V11.4669H205.575V25.6378C205.575 27.7874 206.028 29.2441 206.933 30.0078C207.838 30.7432 208.969 31.1109 210.327 31.1109ZM219.78 12.4428V31.0685L222.962 31.2806C222.962 31.3089 222.948 31.5211 222.92 31.9171L214.434 31.9595C214.434 31.7049 214.448 31.5069 214.477 31.3655L216.683 31.0685C216.852 31.0685 216.966 30.9412 217.022 30.6867V12.0609C216.966 11.8629 216.881 11.7639 216.768 11.7639L214.222 11.6791L214.264 11.0851C215.792 10.8305 216.951 10.7032 217.743 10.7032C218.535 10.7032 219.073 10.8871 219.356 11.2548C219.639 11.6225 219.78 12.0185 219.78 12.4428ZM218.337 5.01793C217.772 5.01793 217.333 4.84822 217.022 4.5088C216.711 4.14109 216.555 3.67439 216.555 3.10869C216.555 2.5147 216.711 2.04799 217.022 1.70857C217.362 1.34087 217.814 1.15701 218.38 1.15701C218.946 1.15701 219.398 1.34087 219.738 1.70857C220.105 2.04799 220.289 2.52884 220.289 3.15111C220.289 3.7451 220.105 4.2118 219.738 4.55122C219.37 4.86236 218.903 5.01793 218.337 5.01793ZM236.896 32.0868C233.954 32.0868 231.564 31.2382 229.725 29.5411C227.915 27.844 227.01 25.2559 227.01 21.7768C227.01 18.2695 227.972 15.5258 229.895 13.5459C231.847 11.5376 234.293 10.5335 237.235 10.5335C240.177 10.5335 242.567 11.3821 244.405 13.0792C246.244 14.7763 247.163 17.3785 247.163 20.8859C247.163 24.3649 246.187 27.1086 244.236 29.1168C242.312 31.0968 239.865 32.0868 236.896 32.0868ZM237.193 11.2972C235.071 11.2972 233.303 12.2165 231.889 14.055C230.475 15.8935 229.768 18.3968 229.768 21.5647C229.768 24.7044 230.432 27.1227 231.762 28.8198C233.12 30.4887 234.859 31.3231 236.98 31.3231C239.102 31.3231 240.87 30.4038 242.284 28.5653C243.698 26.7267 244.405 24.2376 244.405 21.098C244.405 17.9584 243.726 15.54 242.369 13.8429C241.039 12.1458 239.314 11.2972 237.193 11.2972ZM249.725 31.9595L249.768 31.3655L251.974 31.0685C252.229 31.0402 252.356 30.8422 252.356 30.4745V12.1033C252.299 11.8771 252.214 11.7639 252.101 11.7639L249.513 11.6791L249.556 11.0851C251.338 10.8305 252.54 10.7032 253.162 10.7032C254.293 10.7032 254.93 11.1982 255.071 12.1882H255.114V13.0792C257.433 11.4952 259.653 10.6608 261.775 10.5759C263.84 10.5759 265.409 10.9861 266.484 11.8064C266.965 12.1741 267.389 12.7539 267.757 13.5459C268.153 14.3096 268.351 15.2288 268.351 16.3037V31.0685L271.533 31.2806C271.533 31.3089 271.519 31.5211 271.491 31.9171L263.005 31.9595C263.005 31.7049 263.019 31.5069 263.048 31.3655L265.254 31.0685C265.48 31.0402 265.593 30.8422 265.593 30.4745V17.3644C265.593 16.233 265.438 15.2713 265.127 14.4793C264.844 13.6873 264.518 13.1075 264.151 12.7398C263.783 12.3721 263.33 12.0892 262.793 11.8912C262.171 11.6649 261.52 11.5518 260.841 11.5518C259.144 11.5801 257.235 12.2448 255.114 13.5459V31.0685L258.296 31.2806C258.296 31.3089 258.282 31.5211 258.253 31.9171L249.725 31.9595ZM281.507 31.4079C281.676 31.4079 281.846 31.3938 282.016 31.3655C283.487 31.3372 284.717 30.8846 285.707 30.0078C286.697 29.1027 287.192 27.7874 287.192 26.062C287.192 24.3649 285.862 23.1345 283.204 22.3708C282.101 22.0597 280.997 21.7203 279.894 21.3526C278.791 20.9849 277.844 20.405 277.052 19.613C276.288 18.8211 275.906 17.7886 275.906 16.5158C275.906 14.7056 276.599 13.263 277.985 12.1882C279.371 11.0851 281.125 10.5335 283.246 10.5335C284.83 10.5335 286.428 10.8164 288.04 11.3821L288.804 11.6791V16.5582L287.998 16.8552L287.828 13.2489C286.188 11.9478 284.816 11.2972 283.713 11.2972C282.157 11.2972 280.927 11.7639 280.022 12.6973C279.116 13.6025 278.664 14.8187 278.664 16.3461C278.664 17.2229 279.046 17.9301 279.809 18.4675C280.601 19.0049 281.549 19.4292 282.652 19.7403C283.755 20.0515 284.858 20.405 285.961 20.801C287.065 21.1687 287.998 21.791 288.762 22.6678C289.554 23.5164 289.95 24.6336 289.95 26.0196C289.95 27.8864 289.243 29.3714 287.828 30.4745C286.442 31.5493 284.462 32.0868 281.888 32.0868C279.314 32.0868 277.179 31.4786 275.482 30.2624V25.3832L276.246 25.0862L276.458 28.6926C276.854 29.428 277.561 30.0644 278.579 30.6018C279.626 31.1392 280.601 31.4079 281.507 31.4079ZM297.863 2.2177L297.014 26.4439H296.166L295.317 2.42984L297.863 2.2177ZM295.487 31.4928C295.204 31.1816 295.063 30.8281 295.063 30.4321C295.063 30.0361 295.204 29.6967 295.487 29.4138C295.798 29.1027 296.151 28.9471 296.547 28.9471C296.943 28.9471 297.283 29.1027 297.566 29.4138C297.877 29.6967 298.032 30.0361 298.032 30.4321C298.032 30.8281 297.877 31.1816 297.566 31.4928C297.283 31.7756 296.943 31.9171 296.547 31.9171C296.151 31.9171 295.798 31.7756 295.487 31.4928Z" fill="white"/>
<path d="M13.4378 2.81169C10.2416 2.81169 7.71007 4.14109 5.84326 6.79989C3.97644 9.45869 3.04303 13.3055 3.04303 18.3402C3.04303 24.4498 4.44314 28.3956 7.24337 30.1775C8.09192 30.7149 8.86976 31.0685 9.57689 31.2382C10.3123 31.3796 11.1184 31.4503 11.9953 31.4503C14.7955 31.4503 17.723 31.1109 20.7778 30.4321L20.9051 31.0261C20.4242 31.1958 19.1372 31.4221 17.0442 31.7049C14.9793 31.9595 13.2964 32.0868 11.9953 32.0868C10.6941 32.0868 9.56274 32.0019 8.60105 31.8322C7.63936 31.6342 6.6211 31.2382 5.54626 30.6442C4.47143 30.0502 3.55216 29.2724 2.78847 28.3107C2.05305 27.3207 1.43078 25.9772 0.921649 24.2801C0.412517 22.583 0.157952 20.603 0.157952 18.3402C0.157952 13.3337 1.3035 9.4304 3.59459 6.63018C5.99882 3.68853 9.27989 2.2177 13.4378 2.2177C14.7106 2.2177 16.0825 2.34499 17.5533 2.59955C19.0524 2.82583 20.1131 3.05212 20.7354 3.2784L21.2445 9.38798L20.4384 9.68497L19.8868 5.14521C17.5957 3.58953 15.446 2.81169 13.4378 2.81169ZM32.091 32.0868C29.1494 32.0868 26.7593 31.2382 24.9208 29.5411C23.1105 27.844 22.2054 25.2559 22.2054 21.7768C22.2054 18.2695 23.1671 15.5258 25.0905 13.5459C27.0422 11.5376 29.4888 10.5335 32.4305 10.5335C35.3721 10.5335 37.7622 11.3821 39.6007 13.0792C41.4393 14.7763 42.3585 17.3785 42.3585 20.8859C42.3585 24.3649 41.3827 27.1086 39.431 29.1168C37.5076 31.0968 35.061 32.0868 32.091 32.0868ZM32.388 11.2972C30.2667 11.2972 28.4988 12.2165 27.0846 14.055C25.6703 15.8935 24.9632 18.3968 24.9632 21.5647C24.9632 24.7044 25.6279 27.1227 26.9573 28.8198C28.315 30.4887 30.0545 31.3231 32.1759 31.3231C34.2973 31.3231 36.0651 30.4038 37.4794 28.5653C38.8936 26.7267 39.6007 24.2376 39.6007 21.098C39.6007 17.9584 38.9219 15.54 37.5642 13.8429C36.2348 12.1458 34.5094 11.2972 32.388 11.2972ZM44.9208 31.9595L44.9632 31.3655L47.1694 31.0685C47.424 31.0402 47.5513 30.8422 47.5513 30.4745V12.1033C47.4947 11.8771 47.4099 11.7639 47.2967 11.7639L44.7086 11.6791L44.7511 11.0851C46.533 10.8305 47.7351 10.7032 48.3574 10.7032C49.4888 10.7032 50.1252 11.1982 50.2667 12.1882H50.3091V13.0792C52.6285 11.4952 54.8488 10.6608 56.9702 10.5759C59.035 10.5759 60.6049 10.9861 61.6797 11.8064C62.1605 12.1741 62.5848 12.7539 62.9525 13.5459C63.3485 14.3096 63.5465 15.2288 63.5465 16.3037V31.0685L66.7286 31.2806C66.7286 31.3089 66.7144 31.5211 66.6861 31.9171L58.2006 31.9595C58.2006 31.7049 58.2148 31.5069 58.243 31.3655L60.4493 31.0685C60.6756 31.0402 60.7887 30.8422 60.7887 30.4745V17.3644C60.7887 16.233 60.6331 15.2713 60.322 14.4793C60.0392 13.6873 59.7139 13.1075 59.3462 12.7398C58.9785 12.3721 58.5259 12.0892 57.9885 11.8912C57.3662 11.6649 56.7157 11.5518 56.0368 11.5518C54.3397 11.5801 52.4305 12.2448 50.3091 13.5459V31.0685L53.4912 31.2806C53.4912 31.3089 53.477 31.5211 53.4487 31.9171L44.9208 31.9595ZM67.9023 36.2871C67.9023 33.6283 69.5145 31.3514 72.739 29.4563C71.3531 28.6926 70.6601 27.7309 70.6601 26.5712C70.6601 25.3832 71.2258 24.4639 72.3572 23.8134C70.151 22.8234 69.0478 20.7303 69.0478 17.5341C69.0478 15.3561 69.8681 13.6449 71.5086 12.4003C73.1492 11.1558 75.2423 10.5335 77.7879 10.5335C78.9759 10.5335 80.1073 10.6749 81.1821 10.9578L88.2676 10.5335L88.1827 12.1458L83.1338 11.8488C84.9724 13.0368 85.8916 14.8329 85.8916 17.2371C85.8916 19.6413 85.1138 21.4799 83.5581 22.7527C82.0024 24.0255 79.9942 24.6619 77.5334 24.6619C75.8928 24.6619 74.5493 24.5205 73.5027 24.2377C73.0219 24.7751 72.7815 25.3973 72.7815 26.1045C72.7815 27.3773 73.2906 28.2966 74.3089 28.8623C75.412 29.5128 77.3637 30.0785 80.1639 30.5594C80.8144 30.6725 81.2811 30.7715 81.564 30.8564C81.8751 30.9129 82.3136 30.9978 82.8793 31.1109C83.445 31.2241 83.8692 31.3372 84.1521 31.4503C84.4349 31.5352 84.7885 31.6766 85.2128 31.8746C85.6653 32.0443 86.0048 32.214 86.231 32.3838C86.4573 32.5535 86.7119 32.7656 86.9947 33.0202C87.2776 33.2747 87.4897 33.5576 87.6312 33.8687C87.9423 34.6041 88.0979 35.4527 88.0979 36.4144C88.0979 37.4044 87.8009 38.3378 87.2069 39.2146C86.6129 40.0914 85.7926 40.7561 84.7461 41.2087C82.7095 42.0855 80.376 42.524 77.7455 42.524C74.2664 42.524 71.7491 41.9017 70.1934 40.6571C68.666 39.4409 67.9023 37.9842 67.9023 36.2871ZM73.4179 29.7957C71.5794 31.8039 70.6601 33.7697 70.6601 35.6931C70.6601 37.6165 71.2117 39.1015 72.3148 40.148C73.4462 41.2228 75.1574 41.7603 77.4485 41.7603C79.7396 41.7603 81.6206 41.3218 83.0914 40.445C84.5905 39.5682 85.3401 38.1681 85.3401 36.2447C85.3401 34.7173 84.8592 33.6 83.8975 32.8929C82.9641 32.1858 81.6347 31.6625 79.9093 31.3231C76.4303 30.6725 74.2664 30.1634 73.4179 29.7957ZM77.6607 11.0851C75.907 11.0851 74.4927 11.6366 73.4179 12.7398C72.3431 13.8146 71.8056 15.441 71.8056 17.6189C71.8056 19.7969 72.2158 21.4233 73.036 22.4981C73.8563 23.573 75.1857 24.1104 77.0242 24.1104C78.8911 24.1104 80.3477 23.5022 81.3943 22.286C82.4691 21.0414 83.0065 19.3726 83.0065 17.2795C83.0065 13.1499 81.2246 11.0851 77.6607 11.0851ZM95.9261 12.4428V15.837C98.1606 12.5559 100.353 10.8871 102.502 10.8305C102.672 10.8305 102.842 10.8305 103.012 10.8305L105.387 11.1275L104.284 13.6732C103.747 13.1358 103.054 12.867 102.205 12.867C100.141 12.8953 98.0475 14.2672 95.9261 16.9825V31.0685L99.5324 31.2806C99.5324 31.3089 99.5183 31.5211 99.49 31.9171L90.5802 31.9595C90.5802 31.7049 90.5943 31.5069 90.6226 31.3655L92.8289 31.0685C93.0551 31.0402 93.1683 30.8422 93.1683 30.4745V12.0609C93.1117 11.8629 93.0269 11.7639 92.9137 11.7639L90.3681 11.6791L90.4105 11.0851C91.9379 10.8305 93.0976 10.7032 93.8896 10.7032C94.6815 10.7032 95.219 10.8871 95.5018 11.2548C95.7847 11.6225 95.9261 12.0185 95.9261 12.4428ZM121.544 30.3048H121.417C118.871 31.4928 116.396 32.0868 113.992 32.0868C110.23 32.0868 108.236 30.6018 108.01 27.6319C107.981 27.4339 107.967 27.25 107.967 27.0803C107.967 24.9023 109.396 23.4457 112.252 22.7103C113.95 22.3425 117.004 21.9041 121.417 21.395V17.6614C121.417 16.4734 121.275 15.4551 120.993 14.6066C120.71 13.758 120.399 13.1358 120.059 12.7398C119.72 12.3155 119.281 11.9902 118.744 11.7639C118.065 11.4811 117.301 11.3396 116.453 11.3396C115.633 11.3396 114.685 11.5518 113.61 11.9761C112.054 12.6266 110.668 13.4469 109.452 14.4369L109.283 17.7462L108.476 17.9584V12.8246L108.901 12.6549C111.107 11.6932 112.79 11.1134 113.95 10.9154C115.109 10.7174 115.958 10.6184 116.495 10.6184C117.033 10.5901 117.542 10.5901 118.023 10.6184C118.532 10.6467 119.182 10.7739 119.974 11.0002C120.766 11.2265 121.445 11.5518 122.011 11.9761C122.605 12.3721 123.114 12.9802 123.538 13.8005C123.962 14.6207 124.175 15.5966 124.175 16.728V29.7108C124.175 30.5877 124.401 31.0261 124.853 31.0261L127.442 31.1534L127.399 31.7898C125.815 32.0161 124.401 32.1292 123.156 32.1292C122.817 32.1009 122.463 31.9312 122.096 31.6201C121.728 31.2806 121.544 30.8422 121.544 30.3048ZM114.756 31.4079C116.849 31.4079 119.069 30.6725 121.417 29.2017V22.2011C117.174 22.3425 114.501 22.5971 113.398 22.9648C112.323 23.3042 111.574 23.8558 111.149 24.6195C110.753 25.3549 110.555 26.0903 110.555 26.8257C110.555 26.9672 110.555 27.1086 110.555 27.25C110.64 28.7208 111.079 29.7815 111.871 30.4321C112.663 31.0826 113.624 31.4079 114.756 31.4079ZM137.984 31.1109L139.639 31.0261L139.766 31.4503C139.738 31.4503 139.54 31.4928 139.172 31.5776C138.324 31.7756 137.376 31.8746 136.33 31.8746C135.368 31.8181 134.491 31.6625 133.699 31.4079C132.907 31.1251 132.172 30.5594 131.493 29.7108C130.814 28.834 130.475 27.7167 130.475 26.359V11.4669H128.311L128.65 11.1275L130.517 10.7457L130.857 6.67261L133.233 6.46047V10.7032H138.366V11.4669H133.233V25.6378C133.233 27.7874 133.685 29.2441 134.59 30.0078C135.495 30.7432 136.627 31.1109 137.984 31.1109ZM142.751 11.3821L142.708 10.7457L148.436 10.7032V25.4681C148.436 26.5712 148.591 27.5329 148.903 28.3531C149.214 29.1451 149.553 29.725 149.921 30.0927C150.317 30.4604 150.769 30.7432 151.279 30.9412C152.071 31.2241 152.735 31.3372 153.273 31.2806C154.998 31.2524 156.964 30.3614 159.17 28.6077V12.1882C159.057 11.8488 158.817 11.6508 158.449 11.5942L156.243 11.3821C156.214 11.2124 156.2 11.0002 156.2 10.7457L161.928 10.7032V29.9654C161.984 30.6725 162.211 31.0261 162.607 31.0261L165.152 31.1534L165.11 31.7898C163.752 32.0161 162.338 32.1292 160.867 32.1292C160.528 32.1009 160.16 31.9171 159.764 31.5776C159.368 31.2099 159.17 30.7574 159.17 30.2199V29.4563C156.596 31.1816 154.164 32.0443 151.873 32.0443C150.911 32.0443 149.779 31.8039 148.478 31.3231C147.63 31.0119 146.951 30.4321 146.442 29.5835C145.933 28.7067 145.678 27.6177 145.678 26.3166V12.2306C145.678 12.0892 145.593 11.9619 145.424 11.8488C145.282 11.7074 145.127 11.6225 144.957 11.5942L142.751 11.3821ZM168.775 31.9595L168.817 31.3655L171.023 31.0685C171.221 31.0402 171.349 30.8988 171.405 30.6442V1.62372C171.405 1.31258 171.32 1.15701 171.151 1.15701L168.563 1.07216L168.605 0.47817C170.387 0.223604 171.603 0.0963214 172.254 0.0963214C172.933 0.0963214 173.413 0.280175 173.696 0.647881C174.007 1.01559 174.163 1.41158 174.163 1.83586V31.0685L177.345 31.2806C177.345 31.3089 177.331 31.5211 177.303 31.9171L168.775 31.9595ZM193.887 30.3048H193.759C191.214 31.4928 188.739 32.0868 186.334 32.0868C182.572 32.0868 180.578 30.6018 180.352 27.6319C180.324 27.4339 180.31 27.25 180.31 27.0803C180.31 24.9023 181.738 23.4457 184.595 22.7103C186.292 22.3425 189.347 21.9041 193.759 21.395V17.6614C193.759 16.4734 193.618 15.4551 193.335 14.6066C193.052 13.758 192.741 13.1358 192.402 12.7398C192.062 12.3155 191.624 11.9902 191.086 11.7639C190.407 11.4811 189.644 11.3396 188.795 11.3396C187.975 11.3396 187.027 11.5518 185.953 11.9761C184.397 12.6266 183.011 13.4469 181.795 14.4369L181.625 17.7462L180.819 17.9584V12.8246L181.243 12.6549C183.449 11.6932 185.132 11.1134 186.292 10.9154C187.452 10.7174 188.3 10.6184 188.838 10.6184C189.375 10.5901 189.884 10.5901 190.365 10.6184C190.874 10.6467 191.525 10.7739 192.317 11.0002C193.109 11.2265 193.788 11.5518 194.353 11.9761C194.947 12.3721 195.456 12.9802 195.881 13.8005C196.305 14.6207 196.517 15.5966 196.517 16.728V29.7108C196.517 30.5877 196.743 31.0261 197.196 31.0261L199.784 31.1534L199.742 31.7898C198.158 32.0161 196.743 32.1292 195.499 32.1292C195.159 32.1009 194.806 31.9312 194.438 31.6201C194.07 31.2806 193.887 30.8422 193.887 30.3048ZM187.098 31.4079C189.191 31.4079 191.412 30.6725 193.759 29.2017V22.2011C189.516 22.3425 186.844 22.5971 185.74 22.9648C184.666 23.3042 183.916 23.8558 183.492 24.6195C183.096 25.3549 182.898 26.0903 182.898 26.8257C182.898 26.9672 182.898 27.1086 182.898 27.25C182.983 28.7208 183.421 29.7815 184.213 30.4321C185.005 31.0826 185.967 31.4079 187.098 31.4079ZM210.327 31.1109L211.982 31.0261L212.109 31.4503C212.081 31.4503 211.883 31.4928 211.515 31.5776C210.666 31.7756 209.719 31.8746 208.672 31.8746C207.711 31.8181 206.834 31.6625 206.042 31.4079C205.25 31.1251 204.514 30.5594 203.835 29.7108C203.157 28.834 202.817 27.7167 202.817 26.359V11.4669H200.653L200.993 11.1275L202.86 10.7457L203.199 6.67261L205.575 6.46047V10.7032H210.709V11.4669H205.575V25.6378C205.575 27.7874 206.028 29.2441 206.933 30.0078C207.838 30.7432 208.969 31.1109 210.327 31.1109ZM219.78 12.4428V31.0685L222.962 31.2806C222.962 31.3089 222.948 31.5211 222.92 31.9171L214.434 31.9595C214.434 31.7049 214.448 31.5069 214.477 31.3655L216.683 31.0685C216.852 31.0685 216.966 30.9412 217.022 30.6867V12.0609C216.966 11.8629 216.881 11.7639 216.768 11.7639L214.222 11.6791L214.264 11.0851C215.792 10.8305 216.951 10.7032 217.743 10.7032C218.535 10.7032 219.073 10.8871 219.356 11.2548C219.639 11.6225 219.78 12.0185 219.78 12.4428ZM218.337 5.01793C217.772 5.01793 217.333 4.84822 217.022 4.5088C216.711 4.14109 216.555 3.67439 216.555 3.10869C216.555 2.5147 216.711 2.04799 217.022 1.70857C217.362 1.34087 217.814 1.15701 218.38 1.15701C218.946 1.15701 219.398 1.34087 219.738 1.70857C220.105 2.04799 220.289 2.52884 220.289 3.15111C220.289 3.7451 220.105 4.2118 219.738 4.55122C219.37 4.86236 218.903 5.01793 218.337 5.01793ZM236.896 32.0868C233.954 32.0868 231.564 31.2382 229.725 29.5411C227.915 27.844 227.01 25.2559 227.01 21.7768C227.01 18.2695 227.972 15.5258 229.895 13.5459C231.847 11.5376 234.293 10.5335 237.235 10.5335C240.177 10.5335 242.567 11.3821 244.405 13.0792C246.244 14.7763 247.163 17.3785 247.163 20.8859C247.163 24.3649 246.187 27.1086 244.236 29.1168C242.312 31.0968 239.865 32.0868 236.896 32.0868ZM237.193 11.2972C235.071 11.2972 233.303 12.2165 231.889 14.055C230.475 15.8935 229.768 18.3968 229.768 21.5647C229.768 24.7044 230.432 27.1227 231.762 28.8198C233.12 30.4887 234.859 31.3231 236.98 31.3231C239.102 31.3231 240.87 30.4038 242.284 28.5653C243.698 26.7267 244.405 24.2376 244.405 21.098C244.405 17.9584 243.726 15.54 242.369 13.8429C241.039 12.1458 239.314 11.2972 237.193 11.2972ZM249.725 31.9595L249.768 31.3655L251.974 31.0685C252.229 31.0402 252.356 30.8422 252.356 30.4745V12.1033C252.299 11.8771 252.214 11.7639 252.101 11.7639L249.513 11.6791L249.556 11.0851C251.338 10.8305 252.54 10.7032 253.162 10.7032C254.293 10.7032 254.93 11.1982 255.071 12.1882H255.114V13.0792C257.433 11.4952 259.653 10.6608 261.775 10.5759C263.84 10.5759 265.409 10.9861 266.484 11.8064C266.965 12.1741 267.389 12.7539 267.757 13.5459C268.153 14.3096 268.351 15.2288 268.351 16.3037V31.0685L271.533 31.2806C271.533 31.3089 271.519 31.5211 271.491 31.9171L263.005 31.9595C263.005 31.7049 263.019 31.5069 263.048 31.3655L265.254 31.0685C265.48 31.0402 265.593 30.8422 265.593 30.4745V17.3644C265.593 16.233 265.438 15.2713 265.127 14.4793C264.844 13.6873 264.518 13.1075 264.151 12.7398C263.783 12.3721 263.33 12.0892 262.793 11.8912C262.171 11.6649 261.52 11.5518 260.841 11.5518C259.144 11.5801 257.235 12.2448 255.114 13.5459V31.0685L258.296 31.2806C258.296 31.3089 258.282 31.5211 258.253 31.9171L249.725 31.9595ZM281.507 31.4079C281.676 31.4079 281.846 31.3938 282.016 31.3655C283.487 31.3372 284.717 30.8846 285.707 30.0078C286.697 29.1027 287.192 27.7874 287.192 26.062C287.192 24.3649 285.862 23.1345 283.204 22.3708C282.101 22.0597 280.997 21.7203 279.894 21.3526C278.791 20.9849 277.844 20.405 277.052 19.613C276.288 18.8211 275.906 17.7886 275.906 16.5158C275.906 14.7056 276.599 13.263 277.985 12.1882C279.371 11.0851 281.125 10.5335 283.246 10.5335C284.83 10.5335 286.428 10.8164 288.04 11.3821L288.804 11.6791V16.5582L287.998 16.8552L287.828 13.2489C286.188 11.9478 284.816 11.2972 283.713 11.2972C282.157 11.2972 280.927 11.7639 280.022 12.6973C279.116 13.6025 278.664 14.8187 278.664 16.3461C278.664 17.2229 279.046 17.9301 279.809 18.4675C280.601 19.0049 281.549 19.4292 282.652 19.7403C283.755 20.0515 284.858 20.405 285.961 20.801C287.065 21.1687 287.998 21.791 288.762 22.6678C289.554 23.5164 289.95 24.6336 289.95 26.0196C289.95 27.8864 289.243 29.3714 287.828 30.4745C286.442 31.5493 284.462 32.0868 281.888 32.0868C279.314 32.0868 277.179 31.4786 275.482 30.2624V25.3832L276.246 25.0862L276.458 28.6926C276.854 29.428 277.561 30.0644 278.579 30.6018C279.626 31.1392 280.601 31.4079 281.507 31.4079ZM297.863 2.2177L297.014 26.4439H296.166L295.317 2.42984L297.863 2.2177ZM295.487 31.4928C295.204 31.1816 295.063 30.8281 295.063 30.4321C295.063 30.0361 295.204 29.6967 295.487 29.4138C295.798 29.1027 296.151 28.9471 296.547 28.9471C296.943 28.9471 297.283 29.1027 297.566 29.4138C297.877 29.6967 298.032 30.0361 298.032 30.4321C298.032 30.8281 297.877 31.1816 297.566 31.4928C297.283 31.7756 296.943 31.9171 296.547 31.9171C296.151 31.9171 295.798 31.7756 295.487 31.4928Z" fill="url(#paint0_linear_13_2469)"/>
<defs>
<linearGradient id="paint0_linear_13_2469" x1="78.5973" y1="-8.08294" x2="222.885" y2="118.855" gradientUnits="userSpaceOnUse">
<stop stop-color="#FFB905"/>
<stop offset="1" stop-color="#F4DC00"/>
</linearGradient>
</defs>
</svg>
