<svg width="223" height="57" viewBox="0 0 223 57" fill="none" xmlns="http://www.w3.org/2000/svg">
<rect x="0.235352" y="0.201538" width="222.066" height="56.6977" rx="28.3489" fill="url(#paint0_linear_230_9)"/>
<path d="M36.8371 19.6108V35.9401H33.879V19.6108H36.8371ZM48.0097 35.9401L44.5493 23.6932H47.4914L49.6442 32.3043H49.7558L51.9565 23.6932H54.8667L57.0674 32.2565H57.187L59.3078 23.6932H62.258L58.7896 35.9401H55.7837L53.4873 27.6639H53.3199L51.0236 35.9401H48.0097ZM67.7974 36.1873C67.0213 36.1873 66.3223 36.0491 65.7004 35.7727C65.0838 35.491 64.5948 35.0764 64.2333 34.5289C63.8772 33.9814 63.6991 33.3063 63.6991 32.5036C63.6991 31.8126 63.8267 31.2412 64.0819 30.7894C64.337 30.3376 64.6852 29.9761 65.1264 29.705C65.5675 29.4339 66.0645 29.2293 66.6174 29.0911C67.1755 28.9476 67.7522 28.8439 68.3476 28.7801C69.0652 28.7057 69.6472 28.6393 70.0937 28.5808C70.5402 28.517 70.8645 28.4213 71.0665 28.2937C71.2738 28.1609 71.3774 27.9562 71.3774 27.6798V27.632C71.3774 27.0313 71.1993 26.5662 70.8432 26.2366C70.4871 25.9071 69.9741 25.7423 69.3044 25.7423C68.5974 25.7423 68.0366 25.8964 67.622 26.2047C67.2127 26.513 66.9363 26.8772 66.7928 27.2971L64.0978 26.9144C64.3104 26.1702 64.6612 25.5483 65.1503 25.0486C65.6393 24.5436 66.2373 24.1662 66.9443 23.9164C67.6512 23.6613 68.4326 23.5337 69.2884 23.5337C69.8784 23.5337 70.4658 23.6028 71.0505 23.741C71.6352 23.8792 72.1694 24.1078 72.6531 24.4267C73.1368 24.7403 73.5249 25.1682 73.8172 25.7104C74.1149 26.2526 74.2637 26.9303 74.2637 27.7436V35.9401H71.489V34.2578H71.3934C71.2179 34.598 70.9708 34.9169 70.6518 35.2146C70.3382 35.5069 69.9422 35.7435 69.4638 35.9242C68.9907 36.0996 68.4353 36.1873 67.7974 36.1873ZM68.5469 34.0664C69.1263 34.0664 69.6286 33.9521 70.0538 33.7236C70.4791 33.4897 70.806 33.1814 71.0346 32.7986C71.2684 32.4159 71.3854 31.9987 71.3854 31.5468V30.1037C71.295 30.1781 71.1409 30.2472 70.9229 30.311C70.7103 30.3748 70.4711 30.4306 70.2053 30.4784C69.9396 30.5263 69.6764 30.5688 69.416 30.606C69.1555 30.6432 68.9296 30.6751 68.7383 30.7017C68.3077 30.7601 67.9223 30.8558 67.5821 30.9887C67.2419 31.1216 66.9735 31.3076 66.7768 31.5468C66.5801 31.7807 66.4818 32.0837 66.4818 32.4558C66.4818 32.9874 66.6758 33.3887 67.0639 33.6598C67.4519 33.9309 67.9462 34.0664 68.5469 34.0664ZM80.0523 28.7642V35.9401H77.166V23.6932H79.9248V25.7742H80.0683C80.35 25.0885 80.7992 24.5436 81.4158 24.1397C82.0377 23.7357 82.8058 23.5337 83.7201 23.5337C84.5652 23.5337 85.3014 23.7144 85.9287 24.0759C86.5612 24.4373 87.0502 24.9609 87.3957 25.6466C87.7466 26.3323 87.9193 27.1642 87.914 28.1422V35.9401H85.0277V28.5888C85.0277 27.7702 84.8151 27.1296 84.3898 26.6672C83.9699 26.2047 83.3878 25.9735 82.6437 25.9735C82.1387 25.9735 81.6895 26.0851 81.2962 26.3084C80.9081 26.5263 80.6025 26.8426 80.3792 27.2572C80.1613 27.6718 80.0523 28.1741 80.0523 28.7642ZM96.9637 23.6932V25.9257H89.9233V23.6932H96.9637ZM91.6615 20.759H94.5478V32.2565C94.5478 32.6445 94.6063 32.9422 94.7232 33.1495C94.8455 33.3515 95.0049 33.4897 95.2016 33.5641C95.3983 33.6385 95.6162 33.6757 95.8554 33.6757C96.0361 33.6757 96.2009 33.6624 96.3497 33.6358C96.5039 33.6093 96.6208 33.5853 96.7006 33.5641L97.1869 35.8205C97.0328 35.8737 96.8122 35.9322 96.5252 35.9959C96.2434 36.0597 95.8979 36.0969 95.4886 36.1076C94.7657 36.1288 94.1146 36.0199 93.5352 35.7807C92.9558 35.5361 92.496 35.1587 92.1558 34.6485C91.8209 34.1382 91.6561 33.5003 91.6615 32.7349V20.759ZM108.471 36.1873C107.695 36.1873 106.996 36.0491 106.374 35.7727C105.758 35.491 105.269 35.0764 104.907 34.5289C104.551 33.9814 104.373 33.3063 104.373 32.5036C104.373 31.8126 104.5 31.2412 104.756 30.7894C105.011 30.3376 105.359 29.9761 105.8 29.705C106.241 29.4339 106.738 29.2293 107.291 29.0911C107.849 28.9476 108.426 28.8439 109.021 28.7801C109.739 28.7057 110.321 28.6393 110.767 28.5808C111.214 28.517 111.538 28.4213 111.74 28.2937C111.947 28.1609 112.051 27.9562 112.051 27.6798V27.632C112.051 27.0313 111.873 26.5662 111.517 26.2366C111.161 25.9071 110.648 25.7423 109.978 25.7423C109.271 25.7423 108.71 25.8964 108.296 26.2047C107.886 26.513 107.61 26.8772 107.467 27.2971L104.772 26.9144C104.984 26.1702 105.335 25.5483 105.824 25.0486C106.313 24.5436 106.911 24.1662 107.618 23.9164C108.325 23.6613 109.106 23.5337 109.962 23.5337C110.552 23.5337 111.14 23.6028 111.724 23.741C112.309 23.8792 112.843 24.1078 113.327 24.4267C113.811 24.7403 114.199 25.1682 114.491 25.7104C114.789 26.2526 114.937 26.9303 114.937 27.7436V35.9401H112.163V34.2578H112.067C111.892 34.598 111.645 34.9169 111.326 35.2146C111.012 35.5069 110.616 35.7435 110.138 35.9242C109.664 36.0996 109.109 36.1873 108.471 36.1873ZM109.221 34.0664C109.8 34.0664 110.302 33.9521 110.728 33.7236C111.153 33.4897 111.48 33.1814 111.708 32.7986C111.942 32.4159 112.059 31.9987 112.059 31.5468V30.1037C111.969 30.1781 111.815 30.2472 111.597 30.311C111.384 30.3748 111.145 30.4306 110.879 30.4784C110.613 30.5263 110.35 30.5688 110.09 30.606C109.829 30.6432 109.603 30.6751 109.412 30.7017C108.981 30.7601 108.596 30.8558 108.256 30.9887C107.916 31.1216 107.647 31.3076 107.451 31.5468C107.254 31.7807 107.156 32.0837 107.156 32.4558C107.156 32.9874 107.35 33.3887 107.738 33.6598C108.126 33.9309 108.62 34.0664 109.221 34.0664ZM123.537 35.9401V19.6108H126.423V25.7184H126.543C126.691 25.4207 126.901 25.1044 127.172 24.7695C127.444 24.4294 127.81 24.1397 128.273 23.9005C128.735 23.6559 129.325 23.5337 130.043 23.5337C130.989 23.5337 131.842 23.7755 132.602 24.2593C133.368 24.7377 133.974 25.4473 134.42 26.3881C134.872 27.3237 135.098 28.4718 135.098 29.8326C135.098 31.1774 134.877 32.3203 134.436 33.2611C133.995 34.2019 133.394 34.9195 132.634 35.4139C131.874 35.9082 131.013 36.1554 130.051 36.1554C129.349 36.1554 128.767 36.0385 128.305 35.8046C127.842 35.5707 127.47 35.289 127.188 34.9594C126.912 34.6245 126.697 34.3083 126.543 34.0106H126.375V35.9401H123.537ZM126.367 29.8166C126.367 30.6087 126.479 31.3023 126.702 31.8977C126.931 32.493 127.258 32.9581 127.683 33.293C128.113 33.6226 128.634 33.7873 129.246 33.7873C129.883 33.7873 130.418 33.6172 130.848 33.277C131.279 32.9315 131.603 32.4611 131.821 31.8658C132.044 31.2651 132.156 30.5821 132.156 29.8166C132.156 29.0565 132.047 28.3814 131.829 27.7914C131.611 27.2014 131.287 26.739 130.856 26.4041C130.426 26.0692 129.889 25.9018 129.246 25.9018C128.629 25.9018 128.105 26.0639 127.675 26.3881C127.244 26.7124 126.917 27.1669 126.694 27.7516C126.476 28.3363 126.367 29.0246 126.367 29.8166ZM142.894 36.1793C141.698 36.1793 140.661 35.9162 139.784 35.39C138.907 34.8637 138.227 34.1275 137.743 33.1814C137.265 32.2352 137.025 31.1296 137.025 29.8645C137.025 28.5994 137.265 27.4911 137.743 26.5396C138.227 25.5881 138.907 24.8493 139.784 24.323C140.661 23.7968 141.698 23.5337 142.894 23.5337C144.09 23.5337 145.126 23.7968 146.003 24.323C146.88 24.8493 147.558 25.5881 148.037 26.5396C148.52 27.4911 148.762 28.5994 148.762 29.8645C148.762 31.1296 148.52 32.2352 148.037 33.1814C147.558 34.1275 146.88 34.8637 146.003 35.39C145.126 35.9162 144.09 36.1793 142.894 36.1793ZM142.91 33.8671C143.558 33.8671 144.1 33.689 144.536 33.3329C144.972 32.9714 145.296 32.4877 145.509 31.8817C145.727 31.2758 145.836 30.6007 145.836 29.8565C145.836 29.107 145.727 28.4293 145.509 27.8233C145.296 27.212 144.972 26.7257 144.536 26.3642C144.1 26.0028 143.558 25.822 142.91 25.822C142.245 25.822 141.693 26.0028 141.251 26.3642C140.815 26.7257 140.489 27.212 140.271 27.8233C140.058 28.4293 139.952 29.107 139.952 29.8565C139.952 30.6007 140.058 31.2758 140.271 31.8817C140.489 32.4877 140.815 32.9714 141.251 33.3329C141.693 33.689 142.245 33.8671 142.91 33.8671ZM154.098 28.7642V35.9401H151.212V23.6932H153.971V25.7742H154.114C154.396 25.0885 154.845 24.5436 155.462 24.1397C156.084 23.7357 156.852 23.5337 157.766 23.5337C158.611 23.5337 159.347 23.7144 159.975 24.0759C160.607 24.4373 161.096 24.9609 161.442 25.6466C161.792 26.3323 161.965 27.1642 161.96 28.1422V35.9401H159.074V28.5888C159.074 27.7702 158.861 27.1296 158.436 26.6672C158.016 26.2047 157.434 25.9735 156.69 25.9735C156.185 25.9735 155.735 26.0851 155.342 26.3084C154.954 26.5263 154.648 26.8426 154.425 27.2572C154.207 27.6718 154.098 28.1741 154.098 28.7642ZM172.7 30.7894V23.6932H175.586V35.9401H172.788V33.7634H172.66C172.384 34.4491 171.929 35.0099 171.297 35.4458C170.669 35.8817 169.896 36.0996 168.976 36.0996C168.174 36.0996 167.464 35.9215 166.848 35.5654C166.236 35.2039 165.758 34.6803 165.412 33.9946C165.067 33.3036 164.894 32.4691 164.894 31.491V23.6932H167.78V31.0445C167.78 31.8206 167.993 32.4372 168.418 32.8943C168.844 33.3515 169.402 33.58 170.093 33.58C170.518 33.58 170.93 33.4764 171.329 33.2691C171.727 33.0618 172.054 32.7535 172.309 32.3442C172.57 31.9296 172.7 31.4113 172.7 30.7894ZM188.234 26.9303L185.603 27.2173C185.528 26.9516 185.398 26.7017 185.212 26.4679C185.031 26.234 184.787 26.0453 184.478 25.9018C184.17 25.7582 183.793 25.6865 183.346 25.6865C182.746 25.6865 182.241 25.8167 181.831 26.0772C181.427 26.3376 181.228 26.6752 181.233 27.0898C181.228 27.4459 181.358 27.7356 181.624 27.9589C181.895 28.1821 182.342 28.3655 182.964 28.509L185.053 28.9555C186.211 29.2054 187.072 29.6014 187.636 30.1435C188.205 30.6857 188.492 31.3954 188.497 32.2724C188.492 33.0432 188.266 33.7236 187.819 34.3136C187.378 34.8983 186.764 35.3554 185.977 35.685C185.191 36.0145 184.287 36.1793 183.267 36.1793C181.768 36.1793 180.561 35.8657 179.647 35.2385C178.732 34.6059 178.188 33.7262 178.012 32.5993L180.827 32.3282C180.954 32.881 181.225 33.2983 181.64 33.58C182.055 33.8618 182.594 34.0026 183.259 34.0026C183.944 34.0026 184.494 33.8618 184.909 33.58C185.329 33.2983 185.539 32.9501 185.539 32.5355C185.539 32.1847 185.403 31.895 185.132 31.6664C184.867 31.4379 184.452 31.2625 183.888 31.1402L181.799 30.7017C180.625 30.4572 179.756 30.0452 179.192 29.4658C178.629 28.8811 178.35 28.1422 178.355 27.2492C178.35 26.4944 178.554 25.8406 178.969 25.2878C179.389 24.7297 179.971 24.2991 180.715 23.9961C181.465 23.6878 182.328 23.5337 183.306 23.5337C184.742 23.5337 185.871 23.8393 186.695 24.4506C187.524 25.0619 188.037 25.8885 188.234 26.9303Z" fill="white"/>
<defs>
<linearGradient id="paint0_linear_230_9" x1="61.8247" y1="0.201544" x2="198.839" y2="73.2977" gradientUnits="userSpaceOnUse">
<stop stop-color="#FFB905"/>
<stop offset="1" stop-color="#F4DC00"/>
</linearGradient>
</defs>
</svg>
