<svg width="229" height="230" viewBox="0 0 229 230" fill="none" xmlns="http://www.w3.org/2000/svg">
<path d="M0.268555 38.913V76.9901H38.3456H76.4227V38.913V0.835938H38.3456H0.268555V38.913ZM65.5436 38.913V66.1109H38.3456H11.1477V38.913V11.7151H38.3456H65.5436V38.913Z" fill="url(#paint0_linear_55_200)"/>
<path d="M22.0264 38.913V55.2318H38.3451H54.6639V38.913V22.5942H38.3451H22.0264V38.913Z" fill="url(#paint1_linear_55_200)"/>
<path d="M119.939 11.7151V22.5943H114.5H109.06V17.1547V11.7151H98.1811H87.3019V28.0338V44.3526H92.7415H98.1811V55.2318V66.1109H92.7415H87.3019V82.4297V98.7484H81.8623H76.4227V93.3089V87.8693H70.9831H65.5436V93.3089V98.7484H70.9831H76.4227V104.188V109.628H65.5436H54.6644V104.188V98.7484H49.2248H43.7852V104.188V109.628H32.9061H22.0269V115.067V120.507H11.1477H0.268555V131.386V142.265H11.1477H22.0269V131.386V120.507H38.3456H54.6644V125.946V131.386H43.7852H32.9061V136.826V142.265H54.6644H76.4227V136.826V131.386H81.8623H87.3019V142.265V153.144H92.7415H98.1811V164.023V174.903H109.06H119.939V180.342V185.782H125.379H130.819V191.221V196.661H119.939H109.06V191.221V185.782H103.621H98.1811V191.221V196.661H103.621H109.06V207.54V218.419H114.5H119.939V223.859V229.298H125.379H130.819V223.859V218.419H125.379H119.939V212.98V207.54H130.819H141.698V212.98V218.419H147.137H152.577V223.859V229.298H163.456H174.335V223.859V218.419H179.775H185.214V223.859V229.298H190.654H196.094V223.859V218.419H201.533H206.973V223.859V229.298H212.412H217.852V223.859V218.419H212.412H206.973V212.98V207.54H217.852H228.731V202.101V196.661H217.852H206.973V191.221V185.782H185.214H163.456V174.903V164.023H158.016H152.577V158.584V153.144H158.016H163.456V147.705V142.265H168.896H174.335V147.705V153.144H179.775H185.214V164.023V174.903H201.533H217.852V180.342V185.782H223.292H228.731V180.342V174.903H223.292H217.852V158.584V142.265H223.292H228.731V131.386V120.507H223.292H217.852V115.067V109.628H212.412H206.973V104.188V98.7484H212.412H217.852V93.3089V87.8693H201.533H185.214V109.628V131.386H179.775H174.335V125.946V120.507H168.896H163.456V131.386V142.265H158.016H152.577V131.386V120.507H147.137H141.698V115.067V109.628H158.016H174.335V104.188V98.7484H168.896H163.456V93.3089V87.8693H152.577H141.698V93.3089V98.7484H136.258H130.819V93.3089V87.8693H125.379H119.939V76.9901V66.1109H125.379H130.819V71.5505V76.9901H136.258H141.698V71.5505V66.1109H136.258H130.819V60.6714V55.2318H136.258H141.698V49.7922V44.3526H136.258H130.819V49.7922V55.2318H125.379H119.939V49.7922V44.3526H109.06H98.1811V33.4734V22.5943H103.621H109.06V28.0338V33.4734H125.379H141.698V28.0338V22.5943H136.258H130.819V17.1547V11.7151H136.258H141.698V6.27551V0.835922H130.819H119.939V11.7151ZM119.939 60.6714V66.1109H114.5H109.06V76.9901V87.8693H114.5H119.939V93.3089V98.7484H109.06H98.1811V104.188V109.628H103.621H109.06V131.386V153.144H114.5H119.939V147.705V142.265H125.379H130.819V147.705V153.144H136.258H141.698V147.705V142.265H147.137H152.577V147.705V153.144H147.137H141.698V164.023V174.903H147.137H152.577V180.342V185.782H141.698H130.819V180.342V174.903H125.379H119.939V169.463V164.023H114.5H109.06V158.584V153.144H103.621H98.1811V131.386V109.628H92.7415H87.3019V104.188V98.7484H92.7415H98.1811V82.4297V66.1109H103.621H109.06V60.6714V55.2318H114.5H119.939V60.6714ZM130.819 115.067V120.507H125.379H119.939V115.067V109.628H125.379H130.819V115.067ZM76.4227 125.946V131.386H70.9831H65.5436V125.946V120.507H70.9831H76.4227V125.946ZM217.852 125.946V131.386H212.412H206.973V136.826V142.265H201.533H196.094V147.705V153.144H201.533H206.973V158.584V164.023H201.533H196.094V158.584V153.144H190.654H185.214V142.265V131.386H196.094H206.973V125.946V120.507H212.412H217.852V125.946ZM174.335 207.54V218.419H163.456H152.577V212.98V207.54H147.137H141.698V202.101V196.661H158.016H174.335V207.54ZM196.094 202.101V207.54H190.654H185.214V202.101V196.661H190.654H196.094V202.101Z" fill="url(#paint2_linear_55_200)"/>
<path d="M119.939 158.584V164.023H125.379H130.818V158.584V153.144H125.379H119.939V158.584Z" fill="url(#paint3_linear_55_200)"/>
<path d="M152.576 38.913V76.9901H190.653H228.73V38.913V0.835938H190.653H152.576V38.913ZM217.851 38.913V66.1109H190.653H163.455V38.913V11.7151H190.653H217.851V38.913Z" fill="url(#paint4_linear_55_200)"/>
<path d="M174.335 38.913V55.2318H190.654H206.973V38.913V22.5942H190.654H174.335V38.913Z" fill="url(#paint5_linear_55_200)"/>
<path d="M0.268555 98.7485V109.628H5.70814H11.1477V98.7485V87.8693H5.70814H0.268555V98.7485Z" fill="url(#paint6_linear_55_200)"/>
<path d="M0.268555 191.221V229.298H38.3456H76.4227V191.221V153.144H38.3456H0.268555V191.221ZM65.5436 191.221V218.419H38.3456H11.1477V191.221V164.023H38.3456H65.5436V191.221Z" fill="url(#paint7_linear_55_200)"/>
<path d="M22.0264 191.221V207.54H38.3451H54.6639V191.221V174.903H38.3451H22.0264V191.221Z" fill="url(#paint8_linear_55_200)"/>
<path d="M87.3013 223.859V229.298H92.7409H98.1804V223.859V218.419H92.7409H87.3013V223.859Z" fill="url(#paint9_linear_55_200)"/>
<defs>
<linearGradient id="paint0_linear_55_200" x1="21.3897" y1="76.9901" x2="80.6504" y2="68.9182" gradientUnits="userSpaceOnUse">
<stop stop-color="#FFB905"/>
<stop offset="1" stop-color="#F4DC00"/>
</linearGradient>
<linearGradient id="paint1_linear_55_200" x1="31.0783" y1="55.2317" x2="56.4757" y2="51.7723" gradientUnits="userSpaceOnUse">
<stop stop-color="#FFB905"/>
<stop offset="1" stop-color="#F4DC00"/>
</linearGradient>
<linearGradient id="paint2_linear_55_200" x1="63.632" y1="229.298" x2="241.414" y2="205.083" gradientUnits="userSpaceOnUse">
<stop stop-color="#FFB905"/>
<stop offset="1" stop-color="#F4DC00"/>
</linearGradient>
<linearGradient id="paint3_linear_55_200" x1="122.956" y1="164.023" x2="131.422" y2="162.87" gradientUnits="userSpaceOnUse">
<stop stop-color="#FFB905"/>
<stop offset="1" stop-color="#F4DC00"/>
</linearGradient>
<linearGradient id="paint4_linear_55_200" x1="173.697" y1="76.9901" x2="232.958" y2="68.9182" gradientUnits="userSpaceOnUse">
<stop stop-color="#FFB905"/>
<stop offset="1" stop-color="#F4DC00"/>
</linearGradient>
<linearGradient id="paint5_linear_55_200" x1="183.387" y1="55.2317" x2="208.785" y2="51.7723" gradientUnits="userSpaceOnUse">
<stop stop-color="#FFB905"/>
<stop offset="1" stop-color="#F4DC00"/>
</linearGradient>
<linearGradient id="paint6_linear_55_200" x1="3.28586" y1="109.628" x2="11.8689" y2="109.043" gradientUnits="userSpaceOnUse">
<stop stop-color="#FFB905"/>
<stop offset="1" stop-color="#F4DC00"/>
</linearGradient>
<linearGradient id="paint7_linear_55_200" x1="21.3897" y1="229.298" x2="80.6504" y2="221.227" gradientUnits="userSpaceOnUse">
<stop stop-color="#FFB905"/>
<stop offset="1" stop-color="#F4DC00"/>
</linearGradient>
<linearGradient id="paint8_linear_55_200" x1="31.0783" y1="207.54" x2="56.4757" y2="204.081" gradientUnits="userSpaceOnUse">
<stop stop-color="#FFB905"/>
<stop offset="1" stop-color="#F4DC00"/>
</linearGradient>
<linearGradient id="paint9_linear_55_200" x1="90.3186" y1="229.298" x2="98.7844" y2="228.145" gradientUnits="userSpaceOnUse">
<stop stop-color="#FFB905"/>
<stop offset="1" stop-color="#F4DC00"/>
</linearGradient>
</defs>
</svg>
