<svg width="110" height="12" viewBox="0 0 110 12" fill="none" xmlns="http://www.w3.org/2000/svg">
<path d="M9.11968 3.99461H8.45625C8.38714 3.63526 8.25757 3.28799 8.06753 2.95282C7.87748 2.6142 7.63215 2.31013 7.33154 2.04061C7.03438 1.76764 6.68884 1.55168 6.29493 1.39274C5.90102 1.23379 5.46565 1.15432 4.98881 1.15432C4.29083 1.15432 3.64814 1.34091 3.06073 1.71408C2.47678 2.08381 2.00858 2.62802 1.65613 3.34673C1.30714 4.06545 1.13265 4.94483 1.13265 5.98489C1.13265 7.03186 1.30714 7.9147 1.65613 8.63341C2.00858 9.35212 2.47678 9.89634 3.06073 10.2661C3.64814 10.6323 4.29083 10.8155 4.98881 10.8155C5.46565 10.8155 5.90102 10.7377 6.29493 10.5822C6.68884 10.4233 7.03438 10.209 7.33154 9.93953C7.63215 9.66656 7.87748 9.36076 8.06753 9.02214C8.25757 8.68351 8.38714 8.33452 8.45625 7.97517H9.11968C9.04366 8.40363 8.89681 8.82345 8.67912 9.23464C8.46489 9.64583 8.18155 10.019 7.82911 10.3542C7.48012 10.6859 7.0672 10.9502 6.59037 11.1472C6.11698 11.3407 5.58313 11.4374 4.98881 11.4374C4.10425 11.4374 3.32507 11.2128 2.65127 10.7636C1.97748 10.311 1.44881 9.6752 1.06527 8.85628C0.685183 8.03736 0.495139 7.08023 0.495139 5.98489C0.495139 4.88955 0.685183 3.93241 1.06527 3.1135C1.44881 2.29458 1.97748 1.66053 2.65127 1.21133C3.32507 0.758681 4.10425 0.532356 4.98881 0.532356C5.58313 0.532356 6.11698 0.630834 6.59037 0.827789C7.0672 1.02129 7.48012 1.28389 7.82911 1.61561C8.18155 1.94386 8.46489 2.31359 8.67912 2.72477C8.89681 3.13596 9.04366 3.55924 9.11968 3.99461ZM12.0196 0.677481V11.2923H11.3872V0.677481H12.0196ZM16.7465 11.4633C16.2869 11.4633 15.8654 11.3718 15.4818 11.1886C15.1017 11.0055 14.7959 10.7377 14.5644 10.3853C14.3364 10.0328 14.2224 9.60436 14.2224 9.09988C14.2224 8.76817 14.2811 8.47619 14.3986 8.22395C14.5161 7.97171 14.6975 7.75403 14.9428 7.57089C15.1881 7.38776 15.5026 7.23745 15.8861 7.11997C16.2696 6.99903 16.7275 6.90574 17.2596 6.84009C17.6639 6.79171 18.025 6.74506 18.3429 6.70015C18.6607 6.65177 18.9095 6.57748 19.0892 6.47728C19.2723 6.37707 19.3639 6.22504 19.3639 6.02117V5.68946C19.3639 5.10896 19.1808 4.64767 18.8145 4.30559C18.4482 3.96351 17.9438 3.79247 17.3011 3.79247C16.7309 3.79247 16.2506 3.91859 15.8602 4.17083C15.4732 4.41962 15.2019 4.74097 15.0465 5.13487L14.4504 4.912C14.6024 4.53192 14.8219 4.21575 15.1087 3.96351C15.3989 3.71127 15.7306 3.52296 16.1038 3.39856C16.4804 3.27417 16.8743 3.21198 17.2855 3.21198C17.6414 3.21198 17.98 3.26208 18.3014 3.36228C18.6262 3.46249 18.9147 3.61452 19.167 3.81839C19.4226 4.02225 19.6248 4.28313 19.7734 4.60102C19.9219 4.91546 19.9962 5.29209 19.9962 5.73092V11.2923H19.3639V9.8566H19.3173C19.179 10.1538 18.989 10.425 18.7471 10.6703C18.5087 10.9122 18.2202 11.1057 17.8816 11.2508C17.5464 11.3925 17.168 11.4633 16.7465 11.4633ZM16.8087 10.8777C17.3063 10.8777 17.7468 10.7567 18.1304 10.5148C18.5173 10.2695 18.8197 9.93435 19.0374 9.50934C19.2551 9.08433 19.3639 8.60231 19.3639 8.06328V6.89192C19.2844 6.96102 19.1687 7.02322 19.0166 7.07851C18.8681 7.13034 18.6988 7.17698 18.5087 7.21845C18.3221 7.25646 18.1252 7.29101 17.9178 7.32211C17.714 7.34975 17.5153 7.37566 17.3218 7.39985C16.7413 7.46896 16.2679 7.57608 15.9017 7.7212C15.5388 7.86287 15.2728 8.04946 15.1035 8.28097C14.9376 8.51247 14.8547 8.79236 14.8547 9.12061C14.8547 9.6631 15.0413 10.0916 15.4145 10.406C15.7876 10.7204 16.2524 10.8777 16.8087 10.8777ZM27.706 5.04676L27.1203 5.20225C27.027 4.912 26.894 4.66149 26.7212 4.45072C26.5484 4.23994 26.3307 4.07754 26.0681 3.96351C25.809 3.84603 25.498 3.78729 25.1352 3.78729C24.5512 3.78729 24.0727 3.93241 23.6995 4.22266C23.3298 4.51291 23.1449 4.89127 23.1449 5.35774C23.1449 5.73783 23.271 6.05227 23.5233 6.30105C23.7755 6.54638 24.1608 6.73297 24.6791 6.86082L25.9023 7.16662C26.5312 7.32211 27.0045 7.57435 27.3224 7.92334C27.6403 8.26887 27.7993 8.69906 27.7993 9.21391C27.7993 9.65274 27.6801 10.0415 27.4416 10.3801C27.2032 10.7187 26.8732 10.983 26.4517 11.1731C26.0336 11.3631 25.5464 11.4582 24.9901 11.4582C24.2472 11.4582 23.6373 11.2854 23.1605 10.9399C22.6836 10.5909 22.3778 10.0916 22.2431 9.44196L22.8495 9.28647C22.9635 9.80477 23.2002 10.2004 23.5596 10.4734C23.9224 10.7429 24.3975 10.8777 24.9849 10.8777C25.6345 10.8777 26.158 10.7239 26.5553 10.4164C26.9562 10.1088 27.1566 9.71493 27.1566 9.23464C27.1566 8.86837 27.0391 8.55912 26.8041 8.30688C26.5692 8.05464 26.2133 7.86978 25.7364 7.7523L24.4666 7.44132C23.817 7.28237 23.3298 7.0284 23.005 6.67941C22.6802 6.32697 22.5178 5.89332 22.5178 5.37848C22.5178 4.95001 22.6301 4.57338 22.8547 4.24858C23.0793 3.92378 23.3885 3.66981 23.7824 3.48668C24.1763 3.30354 24.6273 3.21198 25.1352 3.21198C25.809 3.21198 26.3584 3.37092 26.7834 3.68881C27.2084 4.0067 27.5159 4.45935 27.706 5.04676ZM35.0464 5.04676L34.4607 5.20225C34.3674 4.912 34.2344 4.66149 34.0616 4.45072C33.8889 4.23994 33.6712 4.07754 33.4086 3.96351C33.1494 3.84603 32.8385 3.78729 32.4756 3.78729C31.8917 3.78729 31.4131 3.93241 31.0399 4.22266C30.6702 4.51291 30.4854 4.89127 30.4854 5.35774C30.4854 5.73783 30.6115 6.05227 30.8637 6.30105C31.116 6.54638 31.5012 6.73297 32.0195 6.86082L33.2427 7.16662C33.8716 7.32211 34.345 7.57435 34.6629 7.92334C34.9808 8.26887 35.1397 8.69906 35.1397 9.21391C35.1397 9.65274 35.0205 10.0415 34.7821 10.3801C34.5437 10.7187 34.2137 10.983 33.7921 11.1731C33.374 11.3631 32.8868 11.4582 32.3305 11.4582C31.5876 11.4582 30.9778 11.2854 30.5009 10.9399C30.0241 10.5909 29.7183 10.0916 29.5835 9.44196L30.1899 9.28647C30.304 9.80477 30.5407 10.2004 30.9 10.4734C31.2628 10.7429 31.7379 10.8777 32.3253 10.8777C32.9749 10.8777 33.4984 10.7239 33.8958 10.4164C34.2966 10.1088 34.497 9.71493 34.497 9.23464C34.497 8.86837 34.3795 8.55912 34.1446 8.30688C33.9096 8.05464 33.5537 7.86978 33.0769 7.7523L31.807 7.44132C31.1574 7.28237 30.6702 7.0284 30.3454 6.67941C30.0206 6.32697 29.8582 5.89332 29.8582 5.37848C29.8582 4.95001 29.9705 4.57338 30.1951 4.24858C30.4197 3.92378 30.729 3.66981 31.1229 3.48668C31.5168 3.30354 31.9677 3.21198 32.4756 3.21198C33.1494 3.21198 33.6988 3.37092 34.1238 3.68881C34.5488 4.0067 34.8564 4.45935 35.0464 5.04676ZM37.3593 11.2923V3.33119H37.9865V11.2923H37.3593ZM37.6755 1.9214C37.5373 1.9214 37.4164 1.87303 37.3127 1.77628C37.2125 1.67953 37.1624 1.56205 37.1624 1.42384C37.1624 1.28562 37.2125 1.16814 37.3127 1.07139C37.4129 0.97464 37.5338 0.926265 37.6755 0.926265C37.8137 0.926265 37.9329 0.97464 38.0331 1.07139C38.1368 1.16814 38.1886 1.28562 38.1886 1.42384C38.1886 1.56205 38.1385 1.67953 38.0383 1.77628C37.9381 1.87303 37.8172 1.9214 37.6755 1.9214ZM43.6204 11.4582C42.9432 11.4582 42.3471 11.2802 41.8323 10.9243C41.3174 10.5649 40.9149 10.0743 40.6246 9.45233C40.3378 8.83036 40.1945 8.12547 40.1945 7.33766C40.1945 6.54984 40.3396 5.84495 40.6298 5.22299C40.9201 4.60102 41.3226 4.11037 41.8375 3.75101C42.3523 3.39165 42.9449 3.21198 43.6152 3.21198C44.1197 3.21198 44.5793 3.31564 44.9939 3.52296C45.412 3.73028 45.7576 4.0188 46.0305 4.38852C46.307 4.75824 46.4832 5.1867 46.5592 5.67391H45.9165C45.8128 5.13487 45.5537 4.68914 45.139 4.33669C44.7279 3.98079 44.2217 3.80284 43.6204 3.80284C43.0814 3.80284 42.6011 3.95487 42.1795 4.25894C41.758 4.55956 41.4263 4.97593 41.1844 5.50805C40.9425 6.03672 40.8216 6.64313 40.8216 7.32729C40.8216 8.00108 40.9391 8.60577 41.174 9.14135C41.409 9.67347 41.7373 10.095 42.1588 10.406C42.5804 10.717 43.0676 10.8725 43.6204 10.8725C44.0109 10.8725 44.3668 10.7947 44.6881 10.6392C45.0129 10.4837 45.2842 10.2626 45.5019 9.97581C45.7195 9.68902 45.8629 9.35385 45.932 8.97031H46.5747C46.4987 9.46097 46.326 9.89288 46.0564 10.2661C45.7869 10.6392 45.4431 10.9312 45.025 11.142C44.6069 11.3528 44.1387 11.4582 43.6204 11.4582ZM55.8212 11.4582C55.144 11.4582 54.5479 11.2802 54.0331 10.9243C53.5183 10.5649 53.1157 10.0743 52.8255 9.45233C52.5387 8.83036 52.3953 8.12547 52.3953 7.33766C52.3953 6.54984 52.5404 5.84495 52.8306 5.22299C53.1209 4.60102 53.5234 4.11037 54.0383 3.75101C54.5531 3.39165 55.1457 3.21198 55.8161 3.21198C56.3205 3.21198 56.7801 3.31564 57.1947 3.52296C57.6128 3.73028 57.9584 4.0188 58.2313 4.38852C58.5078 4.75824 58.684 5.1867 58.76 5.67391H58.1173C58.0137 5.13487 57.7545 4.68914 57.3399 4.33669C56.9287 3.98079 56.4225 3.80284 55.8212 3.80284C55.2822 3.80284 54.8019 3.95487 54.3804 4.25894C53.9588 4.55956 53.6271 4.97593 53.3852 5.50805C53.1433 6.03672 53.0224 6.64313 53.0224 7.32729C53.0224 8.00108 53.1399 8.60577 53.3749 9.14135C53.6098 9.67347 53.9381 10.095 54.3596 10.406C54.7812 10.717 55.2684 10.8725 55.8212 10.8725C56.2117 10.8725 56.5676 10.7947 56.8889 10.6392C57.2137 10.4837 57.485 10.2626 57.7027 9.97581C57.9204 9.68902 58.0638 9.35385 58.1329 8.97031H58.7756C58.6995 9.46097 58.5268 9.89288 58.2573 10.2661C57.9877 10.6392 57.6439 10.9312 57.2258 11.142C56.8077 11.3528 56.3395 11.4582 55.8212 11.4582ZM63.8912 11.4582C63.2347 11.4582 62.6507 11.2819 62.1393 10.9295C61.6279 10.5736 61.2254 10.0847 60.9317 9.46269C60.638 8.84073 60.4911 8.13239 60.4911 7.33766C60.4911 6.53947 60.638 5.83113 60.9317 5.21262C61.2254 4.59066 61.6279 4.10173 62.1393 3.74583C62.6507 3.38993 63.2347 3.21198 63.8912 3.21198C64.5477 3.21198 65.1317 3.38993 65.6431 3.74583C66.1544 4.10173 66.557 4.59066 66.8507 5.21262C67.1444 5.83458 67.2913 6.54293 67.2913 7.33766C67.2913 8.13239 67.1444 8.84073 66.8507 9.46269C66.557 10.0847 66.1544 10.5736 65.6431 10.9295C65.1317 11.2819 64.5477 11.4582 63.8912 11.4582ZM63.8912 10.8725C64.4475 10.8725 64.933 10.7153 65.3476 10.4008C65.7657 10.0864 66.0888 9.66138 66.3168 9.1258C66.5484 8.59022 66.6641 7.99417 66.6641 7.33766C66.6641 6.68114 66.5484 6.08682 66.3168 5.5547C66.0853 5.01912 65.7623 4.59411 65.3476 4.27968C64.933 3.96179 64.4475 3.80284 63.8912 3.80284C63.3349 3.80284 62.8494 3.96179 62.4348 4.27968C62.0201 4.59411 61.6971 5.01912 61.4655 5.5547C61.234 6.08682 61.1183 6.68114 61.1183 7.33766C61.1183 7.99417 61.2323 8.59022 61.4604 9.1258C61.6919 9.66138 62.0149 10.0864 62.4296 10.4008C62.8477 10.7153 63.3349 10.8725 63.8912 10.8725ZM72.4548 11.4582C71.7776 11.4582 71.1815 11.2802 70.6667 10.9243C70.1518 10.5649 69.7493 10.0743 69.459 9.45233C69.1723 8.83036 69.0289 8.12547 69.0289 7.33766C69.0289 6.54984 69.174 5.84495 69.4642 5.22299C69.7545 4.60102 70.157 4.11037 70.6719 3.75101C71.1867 3.39165 71.7793 3.21198 72.4496 3.21198C72.9541 3.21198 73.4137 3.31564 73.8283 3.52296C74.2464 3.73028 74.592 4.0188 74.8649 4.38852C75.1414 4.75824 75.3176 5.1867 75.3936 5.67391H74.7509C74.6472 5.13487 74.3881 4.68914 73.9735 4.33669C73.5623 3.98079 73.0561 3.80284 72.4548 3.80284C71.9158 3.80284 71.4355 3.95487 71.014 4.25894C70.5924 4.55956 70.2607 4.97593 70.0188 5.50805C69.7769 6.03672 69.656 6.64313 69.656 7.32729C69.656 8.00108 69.7735 8.60577 70.0084 9.14135C70.2434 9.67347 70.5717 10.095 70.9932 10.406C71.4148 10.717 71.902 10.8725 72.4548 10.8725C72.8453 10.8725 73.2012 10.7947 73.5225 10.6392C73.8473 10.4837 74.1186 10.2626 74.3363 9.97581C74.554 9.68902 74.6973 9.35385 74.7665 8.97031H75.4092C75.3331 9.46097 75.1604 9.89288 74.8908 10.2661C74.6213 10.6392 74.2775 10.9312 73.8594 11.142C73.4413 11.3528 72.9731 11.4582 72.4548 11.4582ZM78.1147 8.18249L78.1043 7.27546H78.2702L82.2507 3.33119H83.0748L79.4208 6.9593L79.3586 6.98521L78.1147 8.18249ZM77.5653 11.2923V0.677481H78.1976V11.2923H77.5653ZM82.4321 11.2923L79.0735 7.04741L79.5296 6.62758L83.2407 11.2923H82.4321ZM87.7629 3.33119V3.89613H84.2851V3.33119H87.7629ZM85.4616 1.42384H86.0888V9.41086C86.0888 9.73566 86.151 10.0017 86.2753 10.209C86.4032 10.4129 86.5691 10.5649 86.7729 10.6652C86.9802 10.7619 87.2014 10.8103 87.4363 10.8103C87.5504 10.8103 87.6488 10.8016 87.7318 10.7844C87.8182 10.7671 87.8994 10.7446 87.9754 10.717L88.1309 11.2923C88.0341 11.3269 87.927 11.3562 87.8095 11.3804C87.692 11.4081 87.5538 11.4219 87.3949 11.4219C87.0632 11.4219 86.7487 11.3476 86.4516 11.199C86.1579 11.0504 85.9194 10.8345 85.7363 10.5511C85.5532 10.2678 85.4616 9.92571 85.4616 9.52489V1.42384ZM92.2177 11.4633C91.7581 11.4633 91.3366 11.3718 90.953 11.1886C90.5729 11.0055 90.2671 10.7377 90.0356 10.3853C89.8076 10.0328 89.6935 9.60436 89.6935 9.09988C89.6935 8.76817 89.7523 8.47619 89.8698 8.22395C89.9872 7.97171 90.1687 7.75403 90.414 7.57089C90.6593 7.38776 90.9737 7.23745 91.3573 7.11997C91.7408 6.99903 92.1987 6.90574 92.7308 6.84009C93.1351 6.79171 93.4962 6.74506 93.814 6.70015C94.1319 6.65177 94.3807 6.57748 94.5604 6.47728C94.7435 6.37707 94.8351 6.22504 94.8351 6.02117V5.68946C94.8351 5.10896 94.652 4.64767 94.2857 4.30559C93.9194 3.96351 93.4149 3.79247 92.7723 3.79247C92.2021 3.79247 91.7218 3.91859 91.3314 4.17083C90.9444 4.41962 90.6731 4.74097 90.5176 5.13487L89.9216 4.912C90.0736 4.53192 90.293 4.21575 90.5798 3.96351C90.8701 3.71127 91.2018 3.52296 91.575 3.39856C91.9516 3.27417 92.3455 3.21198 92.7567 3.21198C93.1126 3.21198 93.4512 3.26208 93.7726 3.36228C94.0974 3.46249 94.3859 3.61452 94.6381 3.81839C94.8938 4.02225 95.096 4.28313 95.2446 4.60102C95.3931 4.91546 95.4674 5.29209 95.4674 5.73092V11.2923H94.8351V9.8566H94.7884C94.6502 10.1538 94.4602 10.425 94.2183 10.6703C93.9799 10.9122 93.6914 11.1057 93.3528 11.2508C93.0176 11.3925 92.6392 11.4633 92.2177 11.4633ZM92.2799 10.8777C92.7774 10.8777 93.218 10.7567 93.6015 10.5148C93.9885 10.2695 94.2909 9.93435 94.5086 9.50934C94.7263 9.08433 94.8351 8.60231 94.8351 8.06328V6.89192C94.7556 6.96102 94.6399 7.02322 94.4878 7.07851C94.3393 7.13034 94.1699 7.17698 93.9799 7.21845C93.7933 7.25646 93.5964 7.29101 93.389 7.32211C93.1852 7.34975 92.9865 7.37566 92.793 7.39985C92.2125 7.46896 91.7391 7.57608 91.3728 7.7212C91.01 7.86287 90.744 8.04946 90.5747 8.28097C90.4088 8.51247 90.3259 8.79236 90.3259 9.12061C90.3259 9.6631 90.5125 10.0916 90.8856 10.406C91.2588 10.7204 91.7236 10.8777 92.2799 10.8777ZM98.1496 11.2923V3.33119H98.7768V11.2923H98.1496ZM98.4658 1.9214C98.3276 1.9214 98.2066 1.87303 98.103 1.77628C98.0028 1.67953 97.9527 1.56205 97.9527 1.42384C97.9527 1.28562 98.0028 1.16814 98.103 1.07139C98.2032 0.97464 98.3241 0.926265 98.4658 0.926265C98.604 0.926265 98.7232 0.97464 98.8234 1.07139C98.9271 1.16814 98.9789 1.28562 98.9789 1.42384C98.9789 1.56205 98.9288 1.67953 98.8286 1.77628C98.7284 1.87303 98.6075 1.9214 98.4658 1.9214ZM102.058 0.677481V11.2923H101.425V0.677481H102.058ZM109.734 5.04676L109.148 5.20225C109.055 4.912 108.922 4.66149 108.749 4.45072C108.576 4.23994 108.358 4.07754 108.096 3.96351C107.837 3.84603 107.526 3.78729 107.163 3.78729C106.579 3.78729 106.1 3.93241 105.727 4.22266C105.357 4.51291 105.173 4.89127 105.173 5.35774C105.173 5.73783 105.299 6.05227 105.551 6.30105C105.803 6.54638 106.188 6.73297 106.707 6.86082L107.93 7.16662C108.559 7.32211 109.032 7.57435 109.35 7.92334C109.668 8.26887 109.827 8.69906 109.827 9.21391C109.827 9.65274 109.708 10.0415 109.469 10.3801C109.231 10.7187 108.901 10.983 108.479 11.1731C108.061 11.3631 107.574 11.4582 107.018 11.4582C106.275 11.4582 105.665 11.2854 105.188 10.9399C104.711 10.5909 104.406 10.0916 104.271 9.44196L104.877 9.28647C104.991 9.80477 105.228 10.2004 105.587 10.4734C105.95 10.7429 106.425 10.8777 107.013 10.8777C107.662 10.8777 108.186 10.7239 108.583 10.4164C108.984 10.1088 109.184 9.71493 109.184 9.23464C109.184 8.86837 109.067 8.55912 108.832 8.30688C108.597 8.05464 108.241 7.86978 107.764 7.7523L106.494 7.44132C105.845 7.28237 105.357 7.0284 105.033 6.67941C104.708 6.32697 104.545 5.89332 104.545 5.37848C104.545 4.95001 104.658 4.57338 104.882 4.24858C105.107 3.92378 105.416 3.66981 105.81 3.48668C106.204 3.30354 106.655 3.21198 107.163 3.21198C107.837 3.21198 108.386 3.37092 108.811 3.68881C109.236 4.0067 109.544 4.45935 109.734 5.04676Z" fill="white"/>
</svg>
