<svg width="22" height="22" viewBox="0 0 22 22" fill="none" xmlns="http://www.w3.org/2000/svg">
<rect x="0.247986" y="0.623169" width="21" height="21" rx="10.5" fill="url(#paint0_linear_237_16)"/>
<path d="M5.49933 14.1852V16.3718H7.68597L14.1351 9.92269L11.9485 7.73604L5.49933 14.1852ZM15.8261 7.4095L14.4617 6.04504C14.4077 5.99098 14.3436 5.9481 14.2731 5.91883C14.2025 5.88957 14.1269 5.87451 14.0506 5.87451C13.9742 5.87451 13.8986 5.88957 13.828 5.91883C13.7575 5.9481 13.6934 5.99098 13.6395 6.04504L12.5724 7.11212L14.759 9.29876L15.8261 8.23168C15.8802 8.17774 15.9231 8.11366 15.9523 8.04312C15.9816 7.97258 15.9966 7.89696 15.9966 7.82059C15.9966 7.74422 15.9816 7.66861 15.9523 7.59806C15.9231 7.52752 15.8802 7.46345 15.8261 7.4095Z" fill="url(#paint1_linear_237_16)"/>
<path d="M5.49933 14.1852V16.3718H7.68597L14.1351 9.92269L11.9485 7.73604L5.49933 14.1852ZM15.8261 7.4095L14.4617 6.04504C14.4077 5.99098 14.3436 5.9481 14.2731 5.91883C14.2025 5.88957 14.1269 5.87451 14.0506 5.87451C13.9742 5.87451 13.8986 5.88957 13.828 5.91883C13.7575 5.9481 13.6934 5.99098 13.6395 6.04504L12.5724 7.11212L14.759 9.29876L15.8261 8.23168C15.8802 8.17774 15.9231 8.11366 15.9523 8.04312C15.9816 7.97258 15.9966 7.89696 15.9966 7.82059C15.9966 7.74422 15.9816 7.66861 15.9523 7.59806C15.9231 7.52752 15.8802 7.46345 15.8261 7.4095Z" fill="white"/>
<defs>
<linearGradient id="paint0_linear_237_16" x1="6.07228" y1="0.623171" x2="22.4138" y2="2.84906" gradientUnits="userSpaceOnUse">
<stop stop-color="#FFB905"/>
<stop offset="1" stop-color="#F4DC00"/>
</linearGradient>
<linearGradient id="paint1_linear_237_16" x1="8.41073" y1="5.87451" x2="16.5794" y2="6.98717" gradientUnits="userSpaceOnUse">
<stop stop-color="#FFB905"/>
<stop offset="1" stop-color="#F4DC00"/>
</linearGradient>
</defs>
</svg>
