<svg width="84" height="15" viewBox="0 0 84 15" fill="none" xmlns="http://www.w3.org/2000/svg">
<circle cx="6.39748" cy="6.39748" r="6.39748" transform="matrix(1 0 0 -1 0.130859 13.6494)" fill="#3E8549"/>
<circle cx="6.39748" cy="6.39748" r="6.39748" transform="matrix(1 0 0 -1 0.130859 13.6494)" fill="#3E8549"/>
<path d="M31.4489 11.5827V3.34862H36.0444V3.815H31.9514V7.22847H35.6624V7.69486H31.9514V11.5827H31.4489ZM37.8436 11.5827V5.40715H38.322V6.37209H38.3663C38.5003 6.0558 38.7268 5.80251 39.0457 5.6122C39.3647 5.41921 39.7279 5.32272 40.1353 5.32272C40.1782 5.32272 40.2211 5.32272 40.264 5.32272C40.3069 5.32272 40.3471 5.32406 40.3846 5.32674V5.82127C40.3524 5.81859 40.3136 5.81457 40.268 5.80921C40.2251 5.80117 40.1715 5.79715 40.1072 5.79715C39.7641 5.79715 39.4585 5.87086 39.1905 6.01828C38.9251 6.1657 38.7161 6.36941 38.5633 6.6294C38.4105 6.88672 38.3341 7.18156 38.3341 7.51393V11.5827H37.8436ZM43.9227 11.7114C43.3652 11.7114 42.88 11.5734 42.4673 11.2973C42.0545 11.0212 41.7355 10.6433 41.5104 10.1635C41.2852 9.6837 41.1726 9.1369 41.1726 8.52309C41.1726 7.90661 41.2852 7.35713 41.5104 6.87466C41.7382 6.39219 42.0505 6.01158 42.4472 5.73282C42.8438 5.45406 43.2968 5.31468 43.8061 5.31468C44.1519 5.31468 44.4789 5.38437 44.7871 5.52375C45.098 5.66045 45.3714 5.85879 45.6073 6.11879C45.8459 6.37879 46.0322 6.69239 46.1662 7.05961C46.3029 7.42682 46.3712 7.8396 46.3712 8.29794V8.6035H41.4822V8.15722H45.8807C45.8807 7.7096 45.7896 7.3062 45.6073 6.94703C45.4251 6.58786 45.1771 6.3024 44.8635 6.09065C44.5499 5.8789 44.1974 5.77302 43.8061 5.77302C43.396 5.77302 43.0301 5.88828 42.7085 6.11879C42.3895 6.34662 42.1362 6.65487 41.9486 7.04352C41.7637 7.43218 41.6672 7.8664 41.6591 8.34619V8.54722C41.6591 9.06185 41.7489 9.52422 41.9285 9.93431C42.1108 10.3417 42.3708 10.6647 42.7085 10.9033C43.0462 11.1391 43.451 11.2571 43.9227 11.2571C44.2604 11.2571 44.5486 11.2008 44.7871 11.0882C45.0284 10.973 45.2254 10.8336 45.3781 10.6701C45.5309 10.5066 45.6462 10.3484 45.7239 10.1957L46.1702 10.3766C46.0764 10.583 45.9303 10.7894 45.732 10.9957C45.5363 11.1995 45.287 11.3697 44.9841 11.5064C44.6839 11.6431 44.3301 11.7114 43.9227 11.7114ZM50.4682 11.7114C49.9107 11.7114 49.4255 11.5734 49.0127 11.2973C48.6 11.0212 48.281 10.6433 48.0558 10.1635C47.8307 9.6837 47.7181 9.1369 47.7181 8.52309C47.7181 7.90661 47.8307 7.35713 48.0558 6.87466C48.2837 6.39219 48.5959 6.01158 48.9926 5.73282C49.3893 5.45406 49.8423 5.31468 50.3516 5.31468C50.6974 5.31468 51.0244 5.38437 51.3326 5.52375C51.6435 5.66045 51.9169 5.85879 52.1528 6.11879C52.3914 6.37879 52.5777 6.69239 52.7117 7.05961C52.8484 7.42682 52.9167 7.8396 52.9167 8.29794V8.6035H48.0277V8.15722H52.4262C52.4262 7.7096 52.3351 7.3062 52.1528 6.94703C51.9705 6.58786 51.7226 6.3024 51.409 6.09065C51.0954 5.8789 50.7429 5.77302 50.3516 5.77302C49.9415 5.77302 49.5756 5.88828 49.254 6.11879C48.935 6.34662 48.6817 6.65487 48.4941 7.04352C48.3091 7.43218 48.2126 7.8664 48.2046 8.34619V8.54722C48.2046 9.06185 48.2944 9.52422 48.474 9.93431C48.6563 10.3417 48.9162 10.6647 49.254 10.9033C49.5917 11.1391 49.9964 11.2571 50.4682 11.2571C50.8059 11.2571 51.0941 11.2008 51.3326 11.0882C51.5738 10.973 51.7709 10.8336 51.9236 10.6701C52.0764 10.5066 52.1917 10.3484 52.2694 10.1957L52.7157 10.3766C52.6219 10.583 52.4758 10.7894 52.2774 10.9957C52.0818 11.1995 51.8325 11.3697 51.5296 11.5064C51.2294 11.6431 50.8756 11.7114 50.4682 11.7114ZM59.9728 5.40715V5.84539H57.275V5.40715H59.9728ZM58.1877 3.92758H58.6742V10.1233C58.6742 10.3752 58.7224 10.5816 58.8189 10.7424C58.9181 10.9006 59.0468 11.0185 59.2049 11.0963C59.3657 11.1713 59.5373 11.2088 59.7195 11.2088C59.808 11.2088 59.8844 11.2021 59.9487 11.1887C60.0157 11.1753 60.0787 11.1579 60.1377 11.1365L60.2583 11.5827C60.1832 11.6096 60.1001 11.6323 60.009 11.6511C59.9179 11.6725 59.8107 11.6833 59.6874 11.6833C59.43 11.6833 59.1861 11.6256 58.9556 11.5104C58.7278 11.3951 58.5428 11.2276 58.4008 11.0078C58.2587 10.788 58.1877 10.5227 58.1877 10.2117V3.92758ZM63.4285 11.7154C63.072 11.7154 62.745 11.6444 62.4475 11.5023C62.1526 11.3603 61.9154 11.1525 61.7358 10.8791C61.5589 10.6057 61.4705 10.2734 61.4705 9.88205C61.4705 9.62473 61.5161 9.39824 61.6072 9.20257C61.6983 9.0069 61.839 8.83804 62.0293 8.69598C62.2197 8.55392 62.4636 8.43732 62.7611 8.34619C63.0586 8.25237 63.4138 8.18 63.8265 8.12908C64.1401 8.09155 64.4202 8.05537 64.6668 8.02052C64.9134 7.983 65.1064 7.92537 65.2458 7.84764C65.3879 7.76991 65.4589 7.65197 65.4589 7.49383V7.23651C65.4589 6.78621 65.3168 6.42838 65.0327 6.16302C64.7486 5.89766 64.3573 5.76498 63.8587 5.76498C63.4164 5.76498 63.0439 5.86282 62.741 6.05848C62.4408 6.25147 62.2304 6.50075 62.1098 6.80631L61.6474 6.63342C61.7653 6.33858 61.9355 6.09333 62.158 5.89766C62.3832 5.70199 62.6405 5.55591 62.93 5.45942C63.2221 5.36292 63.5277 5.31468 63.8466 5.31468C64.1227 5.31468 64.3854 5.35354 64.6347 5.43127C64.8866 5.50901 65.1104 5.62694 65.3061 5.78508C65.5045 5.94323 65.6613 6.1456 65.7765 6.39219C65.8918 6.63611 65.9494 6.92827 65.9494 7.26868V11.5827H65.4589V10.4691H65.4227C65.3155 10.6996 65.1681 10.91 64.9804 11.1003C64.7955 11.2879 64.5717 11.438 64.309 11.5506C64.049 11.6605 63.7555 11.7154 63.4285 11.7154ZM63.4767 11.2611C63.8627 11.2611 64.2045 11.1673 64.502 10.9797C64.8022 10.7894 65.0367 10.5294 65.2056 10.1997C65.3745 9.86998 65.4589 9.49607 65.4589 9.07793V8.16928C65.3972 8.22289 65.3074 8.27114 65.1895 8.31402C65.0743 8.35423 64.9429 8.39041 64.7955 8.42258C64.6508 8.45206 64.498 8.47887 64.3372 8.50299C64.179 8.52443 64.0249 8.54454 63.8748 8.5633C63.4245 8.61691 63.0573 8.7 62.7731 8.81257C62.4917 8.92247 62.2853 9.06721 62.154 9.2468C62.0253 9.42638 61.961 9.64349 61.961 9.89813C61.961 10.3189 62.1057 10.6513 62.3952 10.8952C62.6847 11.1391 63.0452 11.2611 63.4767 11.2611ZM68.1788 11.5827V3.34862H68.6653V6.78621H68.7135C68.81 6.52085 68.9467 6.27693 69.1236 6.05446C69.3005 5.83199 69.5203 5.65375 69.783 5.51973C70.0457 5.38303 70.3526 5.31468 70.7037 5.31468C71.1996 5.31468 71.6325 5.45272 72.0024 5.7288C72.3723 6.0022 72.6591 6.38013 72.8628 6.8626C73.0665 7.34239 73.1683 7.89186 73.1683 8.51103C73.1683 9.13556 73.0665 9.68906 72.8628 10.1715C72.6591 10.6513 72.3736 11.0279 72.0064 11.3013C71.6392 11.5747 71.2063 11.7114 70.7077 11.7114C70.3566 11.7114 70.0497 11.6444 69.787 11.5104C69.5244 11.3737 69.3046 11.1941 69.1277 10.9716C68.9508 10.7465 68.8127 10.5012 68.7135 10.2359H68.6573V11.5827H68.1788ZM68.6613 8.50701C68.6613 9.03237 68.7403 9.50277 68.8985 9.91823C69.0593 10.331 69.2898 10.658 69.59 10.8993C69.8902 11.1378 70.2494 11.2571 70.6675 11.2571C71.091 11.2571 71.4529 11.1365 71.7531 10.8952C72.0533 10.6513 72.2825 10.3216 72.4406 9.90617C72.6014 9.49071 72.6818 9.02432 72.6818 8.50701C72.6818 7.9897 72.6014 7.52465 72.4406 7.11187C72.2825 6.69909 72.0533 6.37343 71.7531 6.13487C71.4529 5.89364 71.091 5.77302 70.6675 5.77302C70.2494 5.77302 69.8902 5.8923 69.59 6.13085C69.2898 6.36673 69.0593 6.69105 68.8985 7.10383C68.7403 7.51393 68.6613 7.98166 68.6613 8.50701ZM75.3515 3.34862V11.5827H74.861V3.34862H75.3515ZM79.7902 11.7114C79.2327 11.7114 78.7476 11.5734 78.3348 11.2973C77.922 11.0212 77.603 10.6433 77.3779 10.1635C77.1527 9.6837 77.0401 9.1369 77.0401 8.52309C77.0401 7.90661 77.1527 7.35713 77.3779 6.87466C77.6057 6.39219 77.918 6.01158 78.3147 5.73282C78.7114 5.45406 79.1644 5.31468 79.6736 5.31468C80.0194 5.31468 80.3464 5.38437 80.6546 5.52375C80.9656 5.66045 81.239 5.85879 81.4748 6.11879C81.7134 6.37879 81.8997 6.69239 82.0337 7.05961C82.1704 7.42682 82.2387 7.8396 82.2387 8.29794V8.6035H77.3497V8.15722H81.7482C81.7482 7.7096 81.6571 7.3062 81.4748 6.94703C81.2926 6.58786 81.0446 6.3024 80.731 6.09065C80.4174 5.8789 80.065 5.77302 79.6736 5.77302C79.2635 5.77302 78.8977 5.88828 78.576 6.11879C78.257 6.34662 78.0037 6.65487 77.8161 7.04352C77.6312 7.43218 77.5347 7.8664 77.5266 8.34619V8.54722C77.5266 9.06185 77.6164 9.52422 77.796 9.93431C77.9783 10.3417 78.2383 10.6647 78.576 10.9033C78.9137 11.1391 79.3185 11.2571 79.7902 11.2571C80.1279 11.2571 80.4161 11.2008 80.6546 11.0882C80.8959 10.973 81.0929 10.8336 81.2457 10.6701C81.3984 10.5066 81.5137 10.3484 81.5914 10.1957L82.0377 10.3766C81.9439 10.583 81.7978 10.7894 81.5995 10.9957C81.4038 11.1995 81.1545 11.3697 80.8517 11.5064C80.5514 11.6431 80.1976 11.7114 79.7902 11.7114Z" fill="white"/>
<path d="M23.994 7.81949V8.28588H20.7453V7.81949H23.994Z" fill="white"/>
</svg>
