<svg width="37" height="37" viewBox="0 0 37 37" fill="none" xmlns="http://www.w3.org/2000/svg">
<circle cx="18.2694" cy="18.7694" r="18.1277" fill="url(#paint0_linear_401_10)"/>
<path d="M23.1744 23.4094L22.2471 25.0907L26.7871 24.375C25.8709 23.9319 24.6307 23.6152 23.1744 23.4094ZM11.4792 23.776C9.37641 24.3107 8.04425 25.187 8.04425 26.4885C8.04512 26.7687 8.10863 27.0454 8.23047 27.2998L15.5168 26.1514L11.4792 23.776ZM28.3237 25.7294L18.1828 27.3233L20.8572 30.2571C25.249 29.8778 28.4946 28.525 28.4946 26.4885C28.4946 26.2171 28.4339 25.9647 28.3237 25.7294ZM16.4693 27.5982L9.61724 28.6781C11.4284 29.7602 14.6252 30.3694 18.2694 30.3694C18.4903 30.3694 18.7061 30.3634 18.9236 30.359L16.4693 27.5982Z" fill="url(#paint1_linear_401_10)"/>
<path d="M23.1744 23.4094L22.2471 25.0907L26.7871 24.375C25.8709 23.9319 24.6307 23.6152 23.1744 23.4094ZM11.4792 23.776C9.37641 24.3107 8.04425 25.187 8.04425 26.4885C8.04512 26.7687 8.10863 27.0454 8.23047 27.2998L15.5168 26.1514L11.4792 23.776ZM28.3237 25.7294L18.1828 27.3233L20.8572 30.2571C25.249 29.8778 28.4946 28.525 28.4946 26.4885C28.4946 26.2171 28.4339 25.9647 28.3237 25.7294ZM16.4693 27.5982L9.61724 28.6781C11.4284 29.7602 14.6252 30.3694 18.2694 30.3694C18.4903 30.3694 18.7061 30.3634 18.9236 30.359L16.4693 27.5982Z" fill="white"/>
<path d="M18.2699 7.16943C14.3483 7.16943 11.1304 10.2624 11.1304 14.0355C11.1304 15.4975 11.6156 16.8596 12.4346 17.9757L12.4101 17.9388L17.0436 25.6623L17.0629 25.6872C17.2457 25.9171 17.4238 26.0983 17.6333 26.2319C17.8426 26.3653 18.1025 26.4456 18.3573 26.421C18.8668 26.3718 19.1791 26.0247 19.4753 25.6375L19.4909 25.6173L24.5999 17.2329L24.603 17.2273C24.7228 17.0185 24.8111 16.8062 24.8862 16.5993C25.2308 15.7854 25.4081 14.9146 25.4083 14.0355C25.4085 10.2624 22.1916 7.16943 18.2699 7.16943ZM18.2699 8.13223C21.6478 8.13223 24.4098 10.7898 24.4098 14.0355C24.4098 14.8166 24.2491 15.562 23.9582 16.2464L23.953 16.2585L23.9486 16.2705C23.8837 16.4501 23.8132 16.6153 23.7294 16.7614L18.6638 25.074C18.5185 25.2605 18.3976 25.3653 18.3264 25.418C18.2824 25.4507 18.2306 25.4583 18.1845 25.4287C18.1169 25.3858 18.0017 25.2798 17.8674 25.1132L13.2625 17.4377L13.2497 17.4201C12.5443 16.4585 12.1288 15.2929 12.1288 14.0357C12.1288 10.79 14.892 8.13223 18.2699 8.13223ZM18.2699 10.1613C16.0406 10.1613 14.2417 11.8897 14.2417 14.0355C14.2417 16.1812 16.0406 17.9096 18.2699 17.9096C20.499 17.9096 22.2974 16.1812 22.2974 14.0352C22.2974 11.8897 20.4993 10.1613 18.2699 10.1613ZM18.2699 11.1241C19.9709 11.1241 21.299 12.4017 21.299 14.0355C21.299 15.6692 19.9712 16.9468 18.2699 16.9468C16.5685 16.9468 15.2402 15.669 15.2402 14.0352C15.2402 12.4019 16.5685 11.1241 18.2699 11.1241Z" fill="url(#paint2_linear_401_10)"/>
<path d="M18.2699 7.16943C14.3483 7.16943 11.1304 10.2624 11.1304 14.0355C11.1304 15.4975 11.6156 16.8596 12.4346 17.9757L12.4101 17.9388L17.0436 25.6623L17.0629 25.6872C17.2457 25.9171 17.4238 26.0983 17.6333 26.2319C17.8426 26.3653 18.1025 26.4456 18.3573 26.421C18.8668 26.3718 19.1791 26.0247 19.4753 25.6375L19.4909 25.6173L24.5999 17.2329L24.603 17.2273C24.7228 17.0185 24.8111 16.8062 24.8862 16.5993C25.2308 15.7854 25.4081 14.9146 25.4083 14.0355C25.4085 10.2624 22.1916 7.16943 18.2699 7.16943ZM18.2699 8.13223C21.6478 8.13223 24.4098 10.7898 24.4098 14.0355C24.4098 14.8166 24.2491 15.562 23.9582 16.2464L23.953 16.2585L23.9486 16.2705C23.8837 16.4501 23.8132 16.6153 23.7294 16.7614L18.6638 25.074C18.5185 25.2605 18.3976 25.3653 18.3264 25.418C18.2824 25.4507 18.2306 25.4583 18.1845 25.4287C18.1169 25.3858 18.0017 25.2798 17.8674 25.1132L13.2625 17.4377L13.2497 17.4201C12.5443 16.4585 12.1288 15.2929 12.1288 14.0357C12.1288 10.79 14.892 8.13223 18.2699 8.13223ZM18.2699 10.1613C16.0406 10.1613 14.2417 11.8897 14.2417 14.0355C14.2417 16.1812 16.0406 17.9096 18.2699 17.9096C20.499 17.9096 22.2974 16.1812 22.2974 14.0352C22.2974 11.8897 20.4993 10.1613 18.2699 10.1613ZM18.2699 11.1241C19.9709 11.1241 21.299 12.4017 21.299 14.0355C21.299 15.6692 19.9712 16.9468 18.2699 16.9468C16.5685 16.9468 15.2402 15.669 15.2402 14.0352C15.2402 12.4019 16.5685 11.1241 18.2699 11.1241Z" fill="white"/>
<defs>
<linearGradient id="paint0_linear_401_10" x1="10.1971" y1="0.641666" x2="38.4099" y2="4.48456" gradientUnits="userSpaceOnUse">
<stop stop-color="#FFB905"/>
<stop offset="1" stop-color="#F4DC00"/>
</linearGradient>
<linearGradient id="paint1_linear_401_10" x1="13.7161" y1="23.4094" x2="27.6872" y2="29.001" gradientUnits="userSpaceOnUse">
<stop stop-color="#FFB905"/>
<stop offset="1" stop-color="#F4DC00"/>
</linearGradient>
<linearGradient id="paint2_linear_401_10" x1="15.0903" y1="7.16944" x2="26.2928" y2="8.30086" gradientUnits="userSpaceOnUse">
<stop stop-color="#FFB905"/>
<stop offset="1" stop-color="#F4DC00"/>
</linearGradient>
</defs>
</svg>
