<svg width="109" height="15" viewBox="0 0 109 15" fill="none" xmlns="http://www.w3.org/2000/svg">
<circle cx="6.39748" cy="6.39748" r="6.39748" transform="matrix(1 0 0 -1 0.556152 13.6494)" fill="#CE3412"/>
<circle cx="6.39748" cy="6.39748" r="6.39748" transform="matrix(1 0 0 -1 0.556152 13.6494)" fill="#CE3412"/>
<path d="M31.3274 3.815V3.34862H37.0969V3.815H34.4634V11.5827H33.9608V3.815H31.3274ZM39.5515 11.7154C39.195 11.7154 38.868 11.6444 38.5704 11.5023C38.2756 11.3603 38.0384 11.1525 37.8588 10.8791C37.6819 10.6057 37.5934 10.2734 37.5934 9.88205C37.5934 9.62473 37.639 9.39824 37.7301 9.20257C37.8213 9.0069 37.962 8.83804 38.1523 8.69598C38.3426 8.55392 38.5865 8.43732 38.884 8.34619C39.1816 8.25237 39.5367 8.18 39.9495 8.12908C40.2631 8.09155 40.5432 8.05537 40.7898 8.02052C41.0364 7.983 41.2294 7.92537 41.3688 7.84764C41.5108 7.76991 41.5818 7.65197 41.5818 7.49383V7.23651C41.5818 6.78621 41.4398 6.42838 41.1557 6.16302C40.8715 5.89766 40.4802 5.76498 39.9817 5.76498C39.5394 5.76498 39.1668 5.86282 38.8639 6.05848C38.5637 6.25147 38.3533 6.50075 38.2327 6.80631L37.7703 6.63342C37.8883 6.33858 38.0585 6.09333 38.281 5.89766C38.5061 5.70199 38.7634 5.55591 39.0529 5.45942C39.3451 5.36292 39.6506 5.31468 39.9696 5.31468C40.2457 5.31468 40.5083 5.35354 40.7576 5.43127C41.0096 5.50901 41.2334 5.62694 41.4291 5.78508C41.6274 5.94323 41.7842 6.1456 41.8995 6.39219C42.0147 6.63611 42.0724 6.92827 42.0724 7.26868V11.5827H41.5818V10.4691H41.5457C41.4384 10.6996 41.291 10.91 41.1034 11.1003C40.9184 11.2879 40.6946 11.438 40.432 11.5506C40.172 11.6605 39.8785 11.7154 39.5515 11.7154ZM39.5997 11.2611C39.9857 11.2611 40.3274 11.1673 40.6249 10.9797C40.9251 10.7894 41.1597 10.5294 41.3285 10.1997C41.4974 9.86998 41.5818 9.49607 41.5818 9.07793V8.16928C41.5202 8.22289 41.4304 8.27114 41.3125 8.31402C41.1972 8.35423 41.0659 8.39041 40.9184 8.42258C40.7737 8.45206 40.6209 8.47887 40.4601 8.50299C40.302 8.52443 40.1478 8.54454 39.9977 8.5633C39.5474 8.61691 39.1802 8.7 38.8961 8.81257C38.6147 8.92247 38.4083 9.06721 38.2769 9.2468C38.1483 9.42638 38.0839 9.64349 38.0839 9.89813C38.0839 10.3189 38.2287 10.6513 38.5182 10.8952C38.8076 11.1391 39.1682 11.2611 39.5997 11.2611ZM44.3018 11.5827V3.34862H44.7882V6.78621H44.8365C44.933 6.52085 45.0697 6.27693 45.2466 6.05446C45.4235 5.83199 45.6433 5.65375 45.906 5.51973C46.1686 5.38303 46.4755 5.31468 46.8267 5.31468C47.3225 5.31468 47.7554 5.45272 48.1253 5.7288C48.4952 6.0022 48.782 6.38013 48.9857 6.8626C49.1894 7.34239 49.2913 7.89186 49.2913 8.51103C49.2913 9.13556 49.1894 9.68906 48.9857 10.1715C48.782 10.6513 48.4966 11.0279 48.1293 11.3013C47.7621 11.5747 47.3292 11.7114 46.8307 11.7114C46.4796 11.7114 46.1727 11.6444 45.91 11.5104C45.6473 11.3737 45.4275 11.1941 45.2506 10.9716C45.0737 10.7465 44.9357 10.5012 44.8365 10.2359H44.7802V11.5827H44.3018ZM44.7842 8.50701C44.7842 9.03237 44.8633 9.50277 45.0214 9.91823C45.1823 10.331 45.4128 10.658 45.713 10.8993C46.0132 11.1378 46.3724 11.2571 46.7905 11.2571C47.214 11.2571 47.5758 11.1365 47.876 10.8952C48.1762 10.6513 48.4054 10.3216 48.5636 9.90617C48.7244 9.49071 48.8048 9.02432 48.8048 8.50701C48.8048 7.9897 48.7244 7.52465 48.5636 7.11187C48.4054 6.69909 48.1762 6.37343 47.876 6.13487C47.5758 5.89364 47.214 5.77302 46.7905 5.77302C46.3724 5.77302 46.0132 5.8923 45.713 6.13085C45.4128 6.36673 45.1823 6.69105 45.0214 7.10383C44.8633 7.51393 44.7842 7.98166 44.7842 8.50701ZM51.4745 3.34862V11.5827H50.9839V3.34862H51.4745ZM55.9132 11.7114C55.3556 11.7114 54.8705 11.5734 54.4577 11.2973C54.0449 11.0212 53.726 10.6433 53.5008 10.1635C53.2757 9.6837 53.1631 9.1369 53.1631 8.52309C53.1631 7.90661 53.2757 7.35713 53.5008 6.87466C53.7287 6.39219 54.0409 6.01158 54.4376 5.73282C54.8343 5.45406 55.2873 5.31468 55.7966 5.31468C56.1423 5.31468 56.4693 5.38437 56.7776 5.52375C57.0885 5.66045 57.3619 5.85879 57.5978 6.11879C57.8363 6.37879 58.0226 6.69239 58.1566 7.05961C58.2933 7.42682 58.3617 7.8396 58.3617 8.29794V8.6035H53.4727V8.15722H57.8712C57.8712 7.7096 57.7801 7.3062 57.5978 6.94703C57.4155 6.58786 57.1676 6.3024 56.854 6.09065C56.5404 5.8789 56.1879 5.77302 55.7966 5.77302C55.3865 5.77302 55.0206 5.88828 54.699 6.11879C54.38 6.34662 54.1267 6.65487 53.9391 7.04352C53.7541 7.43218 53.6576 7.8664 53.6496 8.34619V8.54722C53.6496 9.06185 53.7394 9.52422 53.919 9.93431C54.1012 10.3417 54.3612 10.6647 54.699 10.9033C55.0367 11.1391 55.4414 11.2571 55.9132 11.2571C56.2509 11.2571 56.539 11.2008 56.7776 11.0882C57.0188 10.973 57.2158 10.8336 57.3686 10.6701C57.5214 10.5066 57.6367 10.3484 57.7144 10.1957L58.1607 10.3766C58.0669 10.583 57.9208 10.7894 57.7224 10.9957C57.5268 11.1995 57.2775 11.3697 56.9746 11.5064C56.6744 11.6431 56.3206 11.7114 55.9132 11.7114ZM63.2346 11.5827V5.40715H63.7131V6.37209H63.7573C63.8913 6.0558 64.1178 5.80251 64.4368 5.6122C64.7557 5.41921 65.1189 5.32272 65.5264 5.32272C65.5692 5.32272 65.6121 5.32272 65.655 5.32272C65.6979 5.32272 65.7381 5.32406 65.7756 5.32674V5.82127C65.7435 5.81859 65.7046 5.81457 65.659 5.80921C65.6161 5.80117 65.5625 5.79715 65.4982 5.79715C65.1551 5.79715 64.8496 5.87086 64.5815 6.01828C64.3162 6.1657 64.1071 6.36941 63.9543 6.6294C63.8015 6.88672 63.7251 7.18156 63.7251 7.51393V11.5827H63.2346ZM69.3137 11.7114C68.7562 11.7114 68.2711 11.5734 67.8583 11.2973C67.4455 11.0212 67.1265 10.6433 66.9014 10.1635C66.6762 9.6837 66.5637 9.1369 66.5637 8.52309C66.5637 7.90661 66.6762 7.35713 66.9014 6.87466C67.1292 6.39219 67.4415 6.01158 67.8382 5.73282C68.2349 5.45406 68.6879 5.31468 69.1971 5.31468C69.5429 5.31468 69.8699 5.38437 70.1782 5.52375C70.4891 5.66045 70.7625 5.85879 70.9984 6.11879C71.2369 6.37879 71.4232 6.69239 71.5572 7.05961C71.6939 7.42682 71.7623 7.8396 71.7623 8.29794V8.6035H66.8732V8.15722H71.2718C71.2718 7.7096 71.1806 7.3062 70.9984 6.94703C70.8161 6.58786 70.5682 6.3024 70.2545 6.09065C69.9409 5.8789 69.5885 5.77302 69.1971 5.77302C68.787 5.77302 68.4212 5.88828 68.0995 6.11879C67.7806 6.34662 67.5273 6.65487 67.3396 7.04352C67.1547 7.43218 67.0582 7.8664 67.0502 8.34619V8.54722C67.0502 9.06185 67.1399 9.52422 67.3195 9.93431C67.5018 10.3417 67.7618 10.6647 68.0995 10.9033C68.4372 11.1391 68.842 11.2571 69.3137 11.2571C69.6515 11.2571 69.9396 11.2008 70.1782 11.0882C70.4194 10.973 70.6164 10.8336 70.7692 10.6701C70.922 10.5066 71.0372 10.3484 71.1149 10.1957L71.5612 10.3766C71.4674 10.583 71.3213 10.7894 71.123 10.9957C70.9273 11.1995 70.678 11.3697 70.3752 11.5064C70.075 11.6431 69.7212 11.7114 69.3137 11.7114ZM77.375 6.73796L76.9207 6.85858C76.8483 6.63342 76.7451 6.4391 76.6111 6.27559C76.4771 6.11209 76.3082 5.98611 76.1045 5.89766C75.9035 5.80653 75.6622 5.76096 75.3808 5.76096C74.9278 5.76096 74.5566 5.87354 74.2671 6.09869C73.9803 6.32384 73.8369 6.61734 73.8369 6.97919C73.8369 7.27404 73.9347 7.51795 74.1304 7.71094C74.326 7.90125 74.6249 8.04599 75.027 8.14516L75.9758 8.38237C76.4636 8.50299 76.8309 8.69866 77.0775 8.96938C77.3241 9.23742 77.4473 9.57112 77.4473 9.9705C77.4473 10.3109 77.3549 10.6125 77.1699 10.8751C76.985 11.1378 76.729 11.3429 76.402 11.4903C76.0777 11.6377 75.6997 11.7114 75.2682 11.7114C74.6919 11.7114 74.2188 11.5774 73.8489 11.3093C73.479 11.0386 73.2418 10.6513 73.1373 10.1474L73.6077 10.0268C73.6962 10.4288 73.8798 10.7357 74.1585 10.9475C74.44 11.1566 74.8085 11.2611 75.2642 11.2611C75.7681 11.2611 76.1742 11.1418 76.4824 10.9033C76.7933 10.6647 76.9488 10.3592 76.9488 9.98658C76.9488 9.70246 76.8577 9.46257 76.6754 9.2669C76.4931 9.07123 76.2171 8.92783 75.8472 8.8367L74.8621 8.59546C74.3582 8.47217 73.9803 8.27516 73.7283 8.00444C73.4764 7.73104 73.3504 7.39465 73.3504 6.99528C73.3504 6.66291 73.4375 6.37075 73.6117 6.11879C73.7859 5.86684 74.0258 5.66983 74.3314 5.52777C74.637 5.38571 74.9868 5.31468 75.3808 5.31468C75.9035 5.31468 76.3296 5.43797 76.6593 5.68457C76.989 5.93117 77.2276 6.2823 77.375 6.73796ZM81.5534 11.7114C80.9958 11.7114 80.5107 11.5734 80.0979 11.2973C79.6851 11.0212 79.3662 10.6433 79.141 10.1635C78.9159 9.6837 78.8033 9.1369 78.8033 8.52309C78.8033 7.90661 78.9159 7.35713 79.141 6.87466C79.3688 6.39219 79.6811 6.01158 80.0778 5.73282C80.4745 5.45406 80.9275 5.31468 81.4368 5.31468C81.7825 5.31468 82.1095 5.38437 82.4178 5.52375C82.7287 5.66045 83.0021 5.85879 83.238 6.11879C83.4765 6.37879 83.6628 6.69239 83.7968 7.05961C83.9335 7.42682 84.0019 7.8396 84.0019 8.29794V8.6035H79.1129V8.15722H83.5114C83.5114 7.7096 83.4202 7.3062 83.238 6.94703C83.0557 6.58786 82.8078 6.3024 82.4942 6.09065C82.1806 5.8789 81.8281 5.77302 81.4368 5.77302C81.0267 5.77302 80.6608 5.88828 80.3391 6.11879C80.0202 6.34662 79.7669 6.65487 79.5793 7.04352C79.3943 7.43218 79.2978 7.8664 79.2898 8.34619V8.54722C79.2898 9.06185 79.3796 9.52422 79.5592 9.93431C79.7414 10.3417 80.0014 10.6647 80.3391 10.9033C80.6769 11.1391 81.0816 11.2571 81.5534 11.2571C81.8911 11.2571 82.1792 11.2008 82.4178 11.0882C82.659 10.973 82.856 10.8336 83.0088 10.6701C83.1616 10.5066 83.2768 10.3484 83.3546 10.1957L83.8009 10.3766C83.707 10.583 83.561 10.7894 83.3626 10.9957C83.1669 11.1995 82.9177 11.3697 82.6148 11.5064C82.3146 11.6431 81.9608 11.7114 81.5534 11.7114ZM85.6905 11.5827V5.40715H86.169V6.37209H86.2132C86.3472 6.0558 86.5737 5.80251 86.8927 5.6122C87.2116 5.41921 87.5748 5.32272 87.9823 5.32272C88.0251 5.32272 88.068 5.32272 88.1109 5.32272C88.1538 5.32272 88.194 5.32406 88.2315 5.32674V5.82127C88.1994 5.81859 88.1605 5.81457 88.1149 5.80921C88.072 5.80117 88.0184 5.79715 87.9541 5.79715C87.611 5.79715 87.3055 5.87086 87.0374 6.01828C86.7721 6.1657 86.563 6.36941 86.4102 6.6294C86.2574 6.88672 86.181 7.18156 86.181 7.51393V11.5827H85.6905ZM94.2523 5.40715L92.0209 11.5827H91.4661L89.2347 5.40715H89.7614L91.7234 10.9515H91.7636L93.7256 5.40715H94.2523ZM97.9724 11.7114C97.4148 11.7114 96.9297 11.5734 96.5169 11.2973C96.1041 11.0212 95.7852 10.6433 95.56 10.1635C95.3349 9.6837 95.2223 9.1369 95.2223 8.52309C95.2223 7.90661 95.3349 7.35713 95.56 6.87466C95.7879 6.39219 96.1001 6.01158 96.4968 5.73282C96.8935 5.45406 97.3465 5.31468 97.8558 5.31468C98.2015 5.31468 98.5285 5.38437 98.8368 5.52375C99.1477 5.66045 99.4211 5.85879 99.657 6.11879C99.8955 6.37879 100.082 6.69239 100.216 7.05961C100.353 7.42682 100.421 7.8396 100.421 8.29794V8.6035H95.5319V8.15722H99.9304C99.9304 7.7096 99.8393 7.3062 99.657 6.94703C99.4747 6.58786 99.2268 6.3024 98.9132 6.09065C98.5996 5.8789 98.2471 5.77302 97.8558 5.77302C97.4457 5.77302 97.0798 5.88828 96.7582 6.11879C96.4392 6.34662 96.1859 6.65487 95.9983 7.04352C95.8133 7.43218 95.7168 7.8664 95.7088 8.34619V8.54722C95.7088 9.06185 95.7986 9.52422 95.9782 9.93431C96.1604 10.3417 96.4204 10.6647 96.7582 10.9033C97.0959 11.1391 97.5006 11.2571 97.9724 11.2571C98.3101 11.2571 98.5982 11.2008 98.8368 11.0882C99.078 10.973 99.275 10.8336 99.4278 10.6701C99.5806 10.5066 99.6959 10.3484 99.7736 10.1957L100.22 10.3766C100.126 10.583 99.98 10.7894 99.7816 10.9957C99.586 11.1995 99.3367 11.3697 99.0338 11.5064C98.7336 11.6431 98.3798 11.7114 97.9724 11.7114ZM104.228 11.7114C103.733 11.7114 103.3 11.5747 102.93 11.3013C102.56 11.0279 102.273 10.6513 102.069 10.1715C101.868 9.68906 101.768 9.13556 101.768 8.51103C101.768 7.89186 101.87 7.34239 102.073 6.8626C102.28 6.38013 102.568 6.0022 102.938 5.7288C103.308 5.45272 103.739 5.31468 104.232 5.31468C104.586 5.31468 104.893 5.38303 105.153 5.51973C105.416 5.65375 105.636 5.83199 105.812 6.05446C105.992 6.27693 106.129 6.52085 106.223 6.78621H106.271V3.34862H106.757V11.5827H106.283V10.2359H106.223C106.123 10.5012 105.985 10.7465 105.808 10.9716C105.632 11.1941 105.412 11.3737 105.149 11.5104C104.886 11.6444 104.58 11.7114 104.228 11.7114ZM104.273 11.2571C104.691 11.2571 105.049 11.1378 105.346 10.8993C105.646 10.658 105.875 10.331 106.034 9.91823C106.194 9.50277 106.275 9.03237 106.275 8.50701C106.275 7.98166 106.194 7.51393 106.034 7.10383C105.875 6.69105 105.646 6.36673 105.346 6.13085C105.049 5.8923 104.691 5.77302 104.273 5.77302C103.849 5.77302 103.486 5.89364 103.183 6.13487C102.883 6.37343 102.652 6.69909 102.491 7.11187C102.333 7.52465 102.254 7.9897 102.254 8.50701C102.254 9.02432 102.333 9.49071 102.491 9.90617C102.652 10.3216 102.883 10.6513 103.183 10.8952C103.486 11.1365 103.849 11.2571 104.273 11.2571Z" fill="white"/>
<path d="M31.3274 3.815V3.34862H37.0969V3.815H34.4634V11.5827H33.9608V3.815H31.3274ZM39.5515 11.7154C39.195 11.7154 38.868 11.6444 38.5704 11.5023C38.2756 11.3603 38.0384 11.1525 37.8588 10.8791C37.6819 10.6057 37.5934 10.2734 37.5934 9.88205C37.5934 9.62473 37.639 9.39824 37.7301 9.20257C37.8213 9.0069 37.962 8.83804 38.1523 8.69598C38.3426 8.55392 38.5865 8.43732 38.884 8.34619C39.1816 8.25237 39.5367 8.18 39.9495 8.12908C40.2631 8.09155 40.5432 8.05537 40.7898 8.02052C41.0364 7.983 41.2294 7.92537 41.3688 7.84764C41.5108 7.76991 41.5818 7.65197 41.5818 7.49383V7.23651C41.5818 6.78621 41.4398 6.42838 41.1557 6.16302C40.8715 5.89766 40.4802 5.76498 39.9817 5.76498C39.5394 5.76498 39.1668 5.86282 38.8639 6.05848C38.5637 6.25147 38.3533 6.50075 38.2327 6.80631L37.7703 6.63342C37.8883 6.33858 38.0585 6.09333 38.281 5.89766C38.5061 5.70199 38.7634 5.55591 39.0529 5.45942C39.3451 5.36292 39.6506 5.31468 39.9696 5.31468C40.2457 5.31468 40.5083 5.35354 40.7576 5.43127C41.0096 5.50901 41.2334 5.62694 41.4291 5.78508C41.6274 5.94323 41.7842 6.1456 41.8995 6.39219C42.0147 6.63611 42.0724 6.92827 42.0724 7.26868V11.5827H41.5818V10.4691H41.5457C41.4384 10.6996 41.291 10.91 41.1034 11.1003C40.9184 11.2879 40.6946 11.438 40.432 11.5506C40.172 11.6605 39.8785 11.7154 39.5515 11.7154ZM39.5997 11.2611C39.9857 11.2611 40.3274 11.1673 40.6249 10.9797C40.9251 10.7894 41.1597 10.5294 41.3285 10.1997C41.4974 9.86998 41.5818 9.49607 41.5818 9.07793V8.16928C41.5202 8.22289 41.4304 8.27114 41.3125 8.31402C41.1972 8.35423 41.0659 8.39041 40.9184 8.42258C40.7737 8.45206 40.6209 8.47887 40.4601 8.50299C40.302 8.52443 40.1478 8.54454 39.9977 8.5633C39.5474 8.61691 39.1802 8.7 38.8961 8.81257C38.6147 8.92247 38.4083 9.06721 38.2769 9.2468C38.1483 9.42638 38.0839 9.64349 38.0839 9.89813C38.0839 10.3189 38.2287 10.6513 38.5182 10.8952C38.8076 11.1391 39.1682 11.2611 39.5997 11.2611ZM44.3018 11.5827V3.34862H44.7882V6.78621H44.8365C44.933 6.52085 45.0697 6.27693 45.2466 6.05446C45.4235 5.83199 45.6433 5.65375 45.906 5.51973C46.1686 5.38303 46.4755 5.31468 46.8267 5.31468C47.3225 5.31468 47.7554 5.45272 48.1253 5.7288C48.4952 6.0022 48.782 6.38013 48.9857 6.8626C49.1894 7.34239 49.2913 7.89186 49.2913 8.51103C49.2913 9.13556 49.1894 9.68906 48.9857 10.1715C48.782 10.6513 48.4966 11.0279 48.1293 11.3013C47.7621 11.5747 47.3292 11.7114 46.8307 11.7114C46.4796 11.7114 46.1727 11.6444 45.91 11.5104C45.6473 11.3737 45.4275 11.1941 45.2506 10.9716C45.0737 10.7465 44.9357 10.5012 44.8365 10.2359H44.7802V11.5827H44.3018ZM44.7842 8.50701C44.7842 9.03237 44.8633 9.50277 45.0214 9.91823C45.1823 10.331 45.4128 10.658 45.713 10.8993C46.0132 11.1378 46.3724 11.2571 46.7905 11.2571C47.214 11.2571 47.5758 11.1365 47.876 10.8952C48.1762 10.6513 48.4054 10.3216 48.5636 9.90617C48.7244 9.49071 48.8048 9.02432 48.8048 8.50701C48.8048 7.9897 48.7244 7.52465 48.5636 7.11187C48.4054 6.69909 48.1762 6.37343 47.876 6.13487C47.5758 5.89364 47.214 5.77302 46.7905 5.77302C46.3724 5.77302 46.0132 5.8923 45.713 6.13085C45.4128 6.36673 45.1823 6.69105 45.0214 7.10383C44.8633 7.51393 44.7842 7.98166 44.7842 8.50701ZM51.4745 3.34862V11.5827H50.9839V3.34862H51.4745ZM55.9132 11.7114C55.3556 11.7114 54.8705 11.5734 54.4577 11.2973C54.0449 11.0212 53.726 10.6433 53.5008 10.1635C53.2757 9.6837 53.1631 9.1369 53.1631 8.52309C53.1631 7.90661 53.2757 7.35713 53.5008 6.87466C53.7287 6.39219 54.0409 6.01158 54.4376 5.73282C54.8343 5.45406 55.2873 5.31468 55.7966 5.31468C56.1423 5.31468 56.4693 5.38437 56.7776 5.52375C57.0885 5.66045 57.3619 5.85879 57.5978 6.11879C57.8363 6.37879 58.0226 6.69239 58.1566 7.05961C58.2933 7.42682 58.3617 7.8396 58.3617 8.29794V8.6035H53.4727V8.15722H57.8712C57.8712 7.7096 57.7801 7.3062 57.5978 6.94703C57.4155 6.58786 57.1676 6.3024 56.854 6.09065C56.5404 5.8789 56.1879 5.77302 55.7966 5.77302C55.3865 5.77302 55.0206 5.88828 54.699 6.11879C54.38 6.34662 54.1267 6.65487 53.9391 7.04352C53.7541 7.43218 53.6576 7.8664 53.6496 8.34619V8.54722C53.6496 9.06185 53.7394 9.52422 53.919 9.93431C54.1012 10.3417 54.3612 10.6647 54.699 10.9033C55.0367 11.1391 55.4414 11.2571 55.9132 11.2571C56.2509 11.2571 56.539 11.2008 56.7776 11.0882C57.0188 10.973 57.2158 10.8336 57.3686 10.6701C57.5214 10.5066 57.6367 10.3484 57.7144 10.1957L58.1607 10.3766C58.0669 10.583 57.9208 10.7894 57.7224 10.9957C57.5268 11.1995 57.2775 11.3697 56.9746 11.5064C56.6744 11.6431 56.3206 11.7114 55.9132 11.7114ZM63.2346 11.5827V5.40715H63.7131V6.37209H63.7573C63.8913 6.0558 64.1178 5.80251 64.4368 5.6122C64.7557 5.41921 65.1189 5.32272 65.5264 5.32272C65.5692 5.32272 65.6121 5.32272 65.655 5.32272C65.6979 5.32272 65.7381 5.32406 65.7756 5.32674V5.82127C65.7435 5.81859 65.7046 5.81457 65.659 5.80921C65.6161 5.80117 65.5625 5.79715 65.4982 5.79715C65.1551 5.79715 64.8496 5.87086 64.5815 6.01828C64.3162 6.1657 64.1071 6.36941 63.9543 6.6294C63.8015 6.88672 63.7251 7.18156 63.7251 7.51393V11.5827H63.2346ZM69.3137 11.7114C68.7562 11.7114 68.2711 11.5734 67.8583 11.2973C67.4455 11.0212 67.1265 10.6433 66.9014 10.1635C66.6762 9.6837 66.5637 9.1369 66.5637 8.52309C66.5637 7.90661 66.6762 7.35713 66.9014 6.87466C67.1292 6.39219 67.4415 6.01158 67.8382 5.73282C68.2349 5.45406 68.6879 5.31468 69.1971 5.31468C69.5429 5.31468 69.8699 5.38437 70.1782 5.52375C70.4891 5.66045 70.7625 5.85879 70.9984 6.11879C71.2369 6.37879 71.4232 6.69239 71.5572 7.05961C71.6939 7.42682 71.7623 7.8396 71.7623 8.29794V8.6035H66.8732V8.15722H71.2718C71.2718 7.7096 71.1806 7.3062 70.9984 6.94703C70.8161 6.58786 70.5682 6.3024 70.2545 6.09065C69.9409 5.8789 69.5885 5.77302 69.1971 5.77302C68.787 5.77302 68.4212 5.88828 68.0995 6.11879C67.7806 6.34662 67.5273 6.65487 67.3396 7.04352C67.1547 7.43218 67.0582 7.8664 67.0502 8.34619V8.54722C67.0502 9.06185 67.1399 9.52422 67.3195 9.93431C67.5018 10.3417 67.7618 10.6647 68.0995 10.9033C68.4372 11.1391 68.842 11.2571 69.3137 11.2571C69.6515 11.2571 69.9396 11.2008 70.1782 11.0882C70.4194 10.973 70.6164 10.8336 70.7692 10.6701C70.922 10.5066 71.0372 10.3484 71.1149 10.1957L71.5612 10.3766C71.4674 10.583 71.3213 10.7894 71.123 10.9957C70.9273 11.1995 70.678 11.3697 70.3752 11.5064C70.075 11.6431 69.7212 11.7114 69.3137 11.7114ZM77.375 6.73796L76.9207 6.85858C76.8483 6.63342 76.7451 6.4391 76.6111 6.27559C76.4771 6.11209 76.3082 5.98611 76.1045 5.89766C75.9035 5.80653 75.6622 5.76096 75.3808 5.76096C74.9278 5.76096 74.5566 5.87354 74.2671 6.09869C73.9803 6.32384 73.8369 6.61734 73.8369 6.97919C73.8369 7.27404 73.9347 7.51795 74.1304 7.71094C74.326 7.90125 74.6249 8.04599 75.027 8.14516L75.9758 8.38237C76.4636 8.50299 76.8309 8.69866 77.0775 8.96938C77.3241 9.23742 77.4473 9.57112 77.4473 9.9705C77.4473 10.3109 77.3549 10.6125 77.1699 10.8751C76.985 11.1378 76.729 11.3429 76.402 11.4903C76.0777 11.6377 75.6997 11.7114 75.2682 11.7114C74.6919 11.7114 74.2188 11.5774 73.8489 11.3093C73.479 11.0386 73.2418 10.6513 73.1373 10.1474L73.6077 10.0268C73.6962 10.4288 73.8798 10.7357 74.1585 10.9475C74.44 11.1566 74.8085 11.2611 75.2642 11.2611C75.7681 11.2611 76.1742 11.1418 76.4824 10.9033C76.7933 10.6647 76.9488 10.3592 76.9488 9.98658C76.9488 9.70246 76.8577 9.46257 76.6754 9.2669C76.4931 9.07123 76.2171 8.92783 75.8472 8.8367L74.8621 8.59546C74.3582 8.47217 73.9803 8.27516 73.7283 8.00444C73.4764 7.73104 73.3504 7.39465 73.3504 6.99528C73.3504 6.66291 73.4375 6.37075 73.6117 6.11879C73.7859 5.86684 74.0258 5.66983 74.3314 5.52777C74.637 5.38571 74.9868 5.31468 75.3808 5.31468C75.9035 5.31468 76.3296 5.43797 76.6593 5.68457C76.989 5.93117 77.2276 6.2823 77.375 6.73796ZM81.5534 11.7114C80.9958 11.7114 80.5107 11.5734 80.0979 11.2973C79.6851 11.0212 79.3662 10.6433 79.141 10.1635C78.9159 9.6837 78.8033 9.1369 78.8033 8.52309C78.8033 7.90661 78.9159 7.35713 79.141 6.87466C79.3688 6.39219 79.6811 6.01158 80.0778 5.73282C80.4745 5.45406 80.9275 5.31468 81.4368 5.31468C81.7825 5.31468 82.1095 5.38437 82.4178 5.52375C82.7287 5.66045 83.0021 5.85879 83.238 6.11879C83.4765 6.37879 83.6628 6.69239 83.7968 7.05961C83.9335 7.42682 84.0019 7.8396 84.0019 8.29794V8.6035H79.1129V8.15722H83.5114C83.5114 7.7096 83.4202 7.3062 83.238 6.94703C83.0557 6.58786 82.8078 6.3024 82.4942 6.09065C82.1806 5.8789 81.8281 5.77302 81.4368 5.77302C81.0267 5.77302 80.6608 5.88828 80.3391 6.11879C80.0202 6.34662 79.7669 6.65487 79.5793 7.04352C79.3943 7.43218 79.2978 7.8664 79.2898 8.34619V8.54722C79.2898 9.06185 79.3796 9.52422 79.5592 9.93431C79.7414 10.3417 80.0014 10.6647 80.3391 10.9033C80.6769 11.1391 81.0816 11.2571 81.5534 11.2571C81.8911 11.2571 82.1792 11.2008 82.4178 11.0882C82.659 10.973 82.856 10.8336 83.0088 10.6701C83.1616 10.5066 83.2768 10.3484 83.3546 10.1957L83.8009 10.3766C83.707 10.583 83.561 10.7894 83.3626 10.9957C83.1669 11.1995 82.9177 11.3697 82.6148 11.5064C82.3146 11.6431 81.9608 11.7114 81.5534 11.7114ZM85.6905 11.5827V5.40715H86.169V6.37209H86.2132C86.3472 6.0558 86.5737 5.80251 86.8927 5.6122C87.2116 5.41921 87.5748 5.32272 87.9823 5.32272C88.0251 5.32272 88.068 5.32272 88.1109 5.32272C88.1538 5.32272 88.194 5.32406 88.2315 5.32674V5.82127C88.1994 5.81859 88.1605 5.81457 88.1149 5.80921C88.072 5.80117 88.0184 5.79715 87.9541 5.79715C87.611 5.79715 87.3055 5.87086 87.0374 6.01828C86.7721 6.1657 86.563 6.36941 86.4102 6.6294C86.2574 6.88672 86.181 7.18156 86.181 7.51393V11.5827H85.6905ZM94.2523 5.40715L92.0209 11.5827H91.4661L89.2347 5.40715H89.7614L91.7234 10.9515H91.7636L93.7256 5.40715H94.2523ZM97.9724 11.7114C97.4148 11.7114 96.9297 11.5734 96.5169 11.2973C96.1041 11.0212 95.7852 10.6433 95.56 10.1635C95.3349 9.6837 95.2223 9.1369 95.2223 8.52309C95.2223 7.90661 95.3349 7.35713 95.56 6.87466C95.7879 6.39219 96.1001 6.01158 96.4968 5.73282C96.8935 5.45406 97.3465 5.31468 97.8558 5.31468C98.2015 5.31468 98.5285 5.38437 98.8368 5.52375C99.1477 5.66045 99.4211 5.85879 99.657 6.11879C99.8955 6.37879 100.082 6.69239 100.216 7.05961C100.353 7.42682 100.421 7.8396 100.421 8.29794V8.6035H95.5319V8.15722H99.9304C99.9304 7.7096 99.8393 7.3062 99.657 6.94703C99.4747 6.58786 99.2268 6.3024 98.9132 6.09065C98.5996 5.8789 98.2471 5.77302 97.8558 5.77302C97.4457 5.77302 97.0798 5.88828 96.7582 6.11879C96.4392 6.34662 96.1859 6.65487 95.9983 7.04352C95.8133 7.43218 95.7168 7.8664 95.7088 8.34619V8.54722C95.7088 9.06185 95.7986 9.52422 95.9782 9.93431C96.1604 10.3417 96.4204 10.6647 96.7582 10.9033C97.0959 11.1391 97.5006 11.2571 97.9724 11.2571C98.3101 11.2571 98.5982 11.2008 98.8368 11.0882C99.078 10.973 99.275 10.8336 99.4278 10.6701C99.5806 10.5066 99.6959 10.3484 99.7736 10.1957L100.22 10.3766C100.126 10.583 99.98 10.7894 99.7816 10.9957C99.586 11.1995 99.3367 11.3697 99.0338 11.5064C98.7336 11.6431 98.3798 11.7114 97.9724 11.7114ZM104.228 11.7114C103.733 11.7114 103.3 11.5747 102.93 11.3013C102.56 11.0279 102.273 10.6513 102.069 10.1715C101.868 9.68906 101.768 9.13556 101.768 8.51103C101.768 7.89186 101.87 7.34239 102.073 6.8626C102.28 6.38013 102.568 6.0022 102.938 5.7288C103.308 5.45272 103.739 5.31468 104.232 5.31468C104.586 5.31468 104.893 5.38303 105.153 5.51973C105.416 5.65375 105.636 5.83199 105.812 6.05446C105.992 6.27693 106.129 6.52085 106.223 6.78621H106.271V3.34862H106.757V11.5827H106.283V10.2359H106.223C106.123 10.5012 105.985 10.7465 105.808 10.9716C105.632 11.1941 105.412 11.3737 105.149 11.5104C104.886 11.6444 104.58 11.7114 104.228 11.7114ZM104.273 11.2571C104.691 11.2571 105.049 11.1378 105.346 10.8993C105.646 10.658 105.875 10.331 106.034 9.91823C106.194 9.50277 106.275 9.03237 106.275 8.50701C106.275 7.98166 106.194 7.51393 106.034 7.10383C105.875 6.69105 105.646 6.36673 105.346 6.13085C105.049 5.8923 104.691 5.77302 104.273 5.77302C103.849 5.77302 103.486 5.89364 103.183 6.13487C102.883 6.37343 102.652 6.69909 102.491 7.11187C102.333 7.52465 102.254 7.9897 102.254 8.50701C102.254 9.02432 102.333 9.49071 102.491 9.90617C102.652 10.3216 102.883 10.6513 103.183 10.8952C103.486 11.1365 103.849 11.2571 104.273 11.2571Z" fill="white"/>
<path d="M24.4192 7.81949V8.28588H21.1706V7.81949H24.4192Z" fill="white"/>
<path d="M24.4192 7.81949V8.28588H21.1706V7.81949H24.4192Z" fill="white"/>
</svg>
