<svg width="104" height="15" viewBox="0 0 104 15" fill="none" xmlns="http://www.w3.org/2000/svg">
<circle cx="6.39748" cy="6.39748" r="6.39748" transform="matrix(1 0 0 -1 0.556152 13.6494)" fill="#FBC703"/>
<circle cx="6.39748" cy="6.39748" r="6.39748" transform="matrix(1 0 0 -1 0.556152 13.6494)" fill="#FDC004"/>
<path d="M31.0379 3.34862H31.6329L34.2262 7.32094H34.2825L36.8758 3.34862H37.4708L34.5076 7.84764V11.5827H34.0011V7.84764L31.0379 3.34862ZM40.2661 11.7114C39.7568 11.7114 39.3039 11.5747 38.9072 11.3013C38.5105 11.0252 38.1982 10.646 37.9704 10.1635C37.7425 9.68102 37.6286 9.13154 37.6286 8.51505C37.6286 7.89588 37.7425 7.34641 37.9704 6.86662C38.1982 6.38415 38.5105 6.00488 38.9072 5.7288C39.3039 5.45272 39.7568 5.31468 40.2661 5.31468C40.7754 5.31468 41.2284 5.45272 41.6251 5.7288C42.0218 6.00488 42.334 6.38415 42.5619 6.86662C42.7897 7.34909 42.9036 7.89856 42.9036 8.51505C42.9036 9.13154 42.7897 9.68102 42.5619 10.1635C42.334 10.646 42.0218 11.0252 41.6251 11.3013C41.2284 11.5747 40.7754 11.7114 40.2661 11.7114ZM40.2661 11.2571C40.6977 11.2571 41.0742 11.1351 41.3959 10.8912C41.7202 10.6473 41.9708 10.3176 42.1477 9.90215C42.3273 9.48669 42.4171 9.02432 42.4171 8.51505C42.4171 8.00578 42.3273 7.54475 42.1477 7.13198C41.9682 6.71652 41.7175 6.38683 41.3959 6.14292C41.0742 5.89632 40.6977 5.77302 40.2661 5.77302C39.8346 5.77302 39.458 5.89632 39.1363 6.14292C38.8147 6.38683 38.5641 6.71652 38.3845 7.13198C38.2049 7.54475 38.1151 8.00578 38.1151 8.51505C38.1151 9.02432 38.2036 9.48669 38.3805 9.90215C38.56 10.3176 38.8107 10.6473 39.1323 10.8912C39.4566 11.1351 39.8346 11.2571 40.2661 11.2571ZM48.5495 9.39154V5.40715H49.04V11.5827H48.5495V10.5816H48.5093C48.3645 10.9006 48.13 11.1606 47.8057 11.3616C47.484 11.5626 47.1034 11.6632 46.6638 11.6632C46.2591 11.6632 45.9013 11.5747 45.5904 11.3978C45.2794 11.2209 45.0355 10.9703 44.8586 10.646C44.6817 10.3189 44.5932 9.93029 44.5932 9.47999V5.40715H45.0838V9.45989C45.0838 9.97452 45.2392 10.3913 45.5501 10.7103C45.8637 11.0266 46.2685 11.1847 46.7644 11.1847C47.086 11.1847 47.3822 11.1123 47.6529 10.9676C47.9236 10.8229 48.1407 10.6165 48.3042 10.3484C48.4677 10.0777 48.5495 9.75875 48.5495 9.39154ZM51.0724 11.5827V5.40715H51.5508V6.37209H51.5951C51.7291 6.0558 51.9556 5.80251 52.2746 5.6122C52.5935 5.41921 52.9567 5.32272 53.3641 5.32272C53.407 5.32272 53.4499 5.32272 53.4928 5.32272C53.5357 5.32272 53.5759 5.32406 53.6134 5.32674V5.82127C53.5812 5.81859 53.5424 5.81457 53.4968 5.80921C53.4539 5.80117 53.4003 5.79715 53.336 5.79715C52.9929 5.79715 52.6873 5.87086 52.4193 6.01828C52.1539 6.1657 51.9449 6.36941 51.7921 6.6294C51.6393 6.88672 51.5629 7.18156 51.5629 7.51393V11.5827H51.0724ZM58.1154 11.5827V5.40715H58.5939V6.37209H58.6381C58.7721 6.0558 58.9986 5.80251 59.3176 5.6122C59.6366 5.41921 59.9997 5.32272 60.4072 5.32272C60.45 5.32272 60.4929 5.32272 60.5358 5.32272C60.5787 5.32272 60.6189 5.32406 60.6564 5.32674V5.82127C60.6243 5.81859 60.5854 5.81457 60.5398 5.80921C60.497 5.80117 60.4433 5.79715 60.379 5.79715C60.0359 5.79715 59.7304 5.87086 59.4623 6.01828C59.197 6.1657 58.9879 6.36941 58.8351 6.6294C58.6823 6.88672 58.6059 7.18156 58.6059 7.51393V11.5827H58.1154ZM64.1945 11.7114C63.637 11.7114 63.1519 11.5734 62.7391 11.2973C62.3263 11.0212 62.0073 10.6433 61.7822 10.1635C61.557 9.6837 61.4445 9.1369 61.4445 8.52309C61.4445 7.90661 61.557 7.35713 61.7822 6.87466C62.01 6.39219 62.3223 6.01158 62.719 5.73282C63.1157 5.45406 63.5687 5.31468 64.0779 5.31468C64.4237 5.31468 64.7507 5.38437 65.059 5.52375C65.3699 5.66045 65.6433 5.85879 65.8792 6.11879C66.1177 6.37879 66.304 6.69239 66.438 7.05961C66.5747 7.42682 66.6431 7.8396 66.6431 8.29794V8.6035H61.7541V8.15722H66.1526C66.1526 7.7096 66.0614 7.3062 65.8792 6.94703C65.6969 6.58786 65.449 6.3024 65.1354 6.09065C64.8217 5.8789 64.4693 5.77302 64.0779 5.77302C63.6678 5.77302 63.302 5.88828 62.9803 6.11879C62.6614 6.34662 62.4081 6.65487 62.2204 7.04352C62.0355 7.43218 61.939 7.8664 61.931 8.34619V8.54722C61.931 9.06185 62.0208 9.52422 62.2003 9.93431C62.3826 10.3417 62.6426 10.6647 62.9803 10.9033C63.3181 11.1391 63.7228 11.2571 64.1945 11.2571C64.5323 11.2571 64.8204 11.2008 65.059 11.0882C65.3002 10.973 65.4972 10.8336 65.65 10.6701C65.8028 10.5066 65.918 10.3484 65.9958 10.1957L66.442 10.3766C66.3482 10.583 66.2021 10.7894 66.0038 10.9957C65.8081 11.1995 65.5589 11.3697 65.256 11.5064C64.9558 11.6431 64.602 11.7114 64.1945 11.7114ZM72.2558 6.73796L71.8015 6.85858C71.7291 6.63342 71.6259 6.4391 71.4919 6.27559C71.3579 6.11209 71.189 5.98611 70.9853 5.89766C70.7843 5.80653 70.543 5.76096 70.2616 5.76096C69.8086 5.76096 69.4374 5.87354 69.1479 6.09869C68.8611 6.32384 68.7177 6.61734 68.7177 6.97919C68.7177 7.27404 68.8155 7.51795 69.0112 7.71094C69.2069 7.90125 69.5057 8.04599 69.9078 8.14516L70.8566 8.38237C71.3445 8.50299 71.7117 8.69866 71.9583 8.96938C72.2049 9.23742 72.3282 9.57112 72.3282 9.9705C72.3282 10.3109 72.2357 10.6125 72.0507 10.8751C71.8658 11.1378 71.6098 11.3429 71.2828 11.4903C70.9585 11.6377 70.5805 11.7114 70.149 11.7114C69.5727 11.7114 69.0996 11.5774 68.7297 11.3093C68.3599 11.0386 68.1226 10.6513 68.0181 10.1474L68.4885 10.0268C68.577 10.4288 68.7606 10.7357 69.0393 10.9475C69.3208 11.1566 69.6893 11.2611 70.145 11.2611C70.6489 11.2611 71.055 11.1418 71.3632 10.9033C71.6741 10.6647 71.8296 10.3592 71.8296 9.98658C71.8296 9.70246 71.7385 9.46257 71.5562 9.2669C71.3739 9.07123 71.0979 8.92783 70.728 8.8367L69.7429 8.59546C69.239 8.47217 68.8611 8.27516 68.6091 8.00444C68.3572 7.73104 68.2312 7.39465 68.2312 6.99528C68.2312 6.66291 68.3183 6.37075 68.4925 6.11879C68.6668 5.86684 68.9066 5.66983 69.2122 5.52777C69.5178 5.38571 69.8676 5.31468 70.2616 5.31468C70.7843 5.31468 71.2104 5.43797 71.5401 5.68457C71.8698 5.93117 72.1084 6.2823 72.2558 6.73796ZM76.4342 11.7114C75.8766 11.7114 75.3915 11.5734 74.9787 11.2973C74.5659 11.0212 74.247 10.6433 74.0218 10.1635C73.7967 9.6837 73.6841 9.1369 73.6841 8.52309C73.6841 7.90661 73.7967 7.35713 74.0218 6.87466C74.2497 6.39219 74.5619 6.01158 74.9586 5.73282C75.3553 5.45406 75.8083 5.31468 76.3176 5.31468C76.6633 5.31468 76.9903 5.38437 77.2986 5.52375C77.6095 5.66045 77.8829 5.85879 78.1188 6.11879C78.3573 6.37879 78.5436 6.69239 78.6776 7.05961C78.8143 7.42682 78.8827 7.8396 78.8827 8.29794V8.6035H73.9937V8.15722H78.3922C78.3922 7.7096 78.301 7.3062 78.1188 6.94703C77.9365 6.58786 77.6886 6.3024 77.375 6.09065C77.0614 5.8789 76.7089 5.77302 76.3176 5.77302C75.9075 5.77302 75.5416 5.88828 75.22 6.11879C74.901 6.34662 74.6477 6.65487 74.4601 7.04352C74.2751 7.43218 74.1786 7.8664 74.1706 8.34619V8.54722C74.1706 9.06185 74.2604 9.52422 74.44 9.93431C74.6222 10.3417 74.8822 10.6647 75.22 10.9033C75.5577 11.1391 75.9624 11.2571 76.4342 11.2571C76.7719 11.2571 77.06 11.2008 77.2986 11.0882C77.5398 10.973 77.7368 10.8336 77.8896 10.6701C78.0424 10.5066 78.1576 10.3484 78.2354 10.1957L78.6817 10.3766C78.5878 10.583 78.4418 10.7894 78.2434 10.9957C78.0478 11.1995 77.7985 11.3697 77.4956 11.5064C77.1954 11.6431 76.8416 11.7114 76.4342 11.7114ZM80.5713 11.5827V5.40715H81.0498V6.37209H81.094C81.228 6.0558 81.4545 5.80251 81.7735 5.6122C82.0924 5.41921 82.4556 5.32272 82.8631 5.32272C82.9059 5.32272 82.9488 5.32272 82.9917 5.32272C83.0346 5.32272 83.0748 5.32406 83.1123 5.32674V5.82127C83.0802 5.81859 83.0413 5.81457 82.9957 5.80921C82.9528 5.80117 82.8992 5.79715 82.8349 5.79715C82.4918 5.79715 82.1863 5.87086 81.9182 6.01828C81.6529 6.1657 81.4438 6.36941 81.291 6.6294C81.1382 6.88672 81.0618 7.18156 81.0618 7.51393V11.5827H80.5713ZM89.1331 5.40715L86.9017 11.5827H86.3469L84.1155 5.40715H84.6422L86.6042 10.9515H86.6444L88.6064 5.40715H89.1331ZM92.8532 11.7114C92.2957 11.7114 91.8105 11.5734 91.3977 11.2973C90.9849 11.0212 90.666 10.6433 90.4408 10.1635C90.2157 9.6837 90.1031 9.1369 90.1031 8.52309C90.1031 7.90661 90.2157 7.35713 90.4408 6.87466C90.6687 6.39219 90.9809 6.01158 91.3776 5.73282C91.7743 5.45406 92.2273 5.31468 92.7366 5.31468C93.0823 5.31468 93.4094 5.38437 93.7176 5.52375C94.0285 5.66045 94.3019 5.85879 94.5378 6.11879C94.7763 6.37879 94.9626 6.69239 95.0967 7.05961C95.2334 7.42682 95.3017 7.8396 95.3017 8.29794V8.6035H90.4127V8.15722H94.8112C94.8112 7.7096 94.7201 7.3062 94.5378 6.94703C94.3555 6.58786 94.1076 6.3024 93.794 6.09065C93.4804 5.8789 93.1279 5.77302 92.7366 5.77302C92.3265 5.77302 91.9606 5.88828 91.639 6.11879C91.32 6.34662 91.0667 6.65487 90.8791 7.04352C90.6941 7.43218 90.5976 7.8664 90.5896 8.34619V8.54722C90.5896 9.06185 90.6794 9.52422 90.859 9.93431C91.0412 10.3417 91.3012 10.6647 91.639 10.9033C91.9767 11.1391 92.3814 11.2571 92.8532 11.2571C93.1909 11.2571 93.479 11.2008 93.7176 11.0882C93.9588 10.973 94.1558 10.8336 94.3086 10.6701C94.4614 10.5066 94.5767 10.3484 94.6544 10.1957L95.1007 10.3766C95.0069 10.583 94.8608 10.7894 94.6624 10.9957C94.4668 11.1995 94.2175 11.3697 93.9146 11.5064C93.6144 11.6431 93.2606 11.7114 92.8532 11.7114ZM99.1092 11.7114C98.6133 11.7114 98.1804 11.5747 97.8105 11.3013C97.4406 11.0279 97.1538 10.6513 96.9501 10.1715C96.7491 9.68906 96.6486 9.13556 96.6486 8.51103C96.6486 7.89186 96.7504 7.34239 96.9542 6.8626C97.1605 6.38013 97.4487 6.0022 97.8186 5.7288C98.1885 5.45272 98.62 5.31468 99.1132 5.31468C99.467 5.31468 99.7739 5.38303 100.034 5.51973C100.297 5.65375 100.516 5.83199 100.693 6.05446C100.873 6.27693 101.01 6.52085 101.103 6.78621H101.152V3.34862H101.638V11.5827H101.164V10.2359H101.103C101.004 10.5012 100.866 10.7465 100.689 10.9716C100.512 11.1941 100.293 11.3737 100.03 11.5104C99.7672 11.6444 99.4603 11.7114 99.1092 11.7114ZM99.1534 11.2571C99.5715 11.2571 99.9294 11.1378 100.227 10.8993C100.527 10.658 100.756 10.331 100.914 9.91823C101.075 9.50277 101.156 9.03237 101.156 8.50701C101.156 7.98166 101.075 7.51393 100.914 7.10383C100.756 6.69105 100.527 6.36673 100.227 6.13085C99.9294 5.8923 99.5715 5.77302 99.1534 5.77302C98.7299 5.77302 98.3667 5.89364 98.0638 6.13487C97.7636 6.37343 97.5331 6.69909 97.3723 7.11187C97.2142 7.52465 97.1351 7.9897 97.1351 8.50701C97.1351 9.02432 97.2142 9.49071 97.3723 9.90617C97.5331 10.3216 97.7636 10.6513 98.0638 10.8952C98.3667 11.1365 98.7299 11.2571 99.1534 11.2571Z" fill="white"/>
<path d="M24.4192 7.81949V8.28588H21.1706V7.81949H24.4192Z" fill="white"/>
<path d="M24.4192 7.81949V8.28588H21.1706V7.81949H24.4192Z" fill="white"/>
</svg>
