<svg width="22" height="22" viewBox="0 0 22 22" fill="none" xmlns="http://www.w3.org/2000/svg">
<rect x="0.804016" y="0.623169" width="21" height="21" rx="10.5" fill="url(#paint0_linear_248_18)"/>
<path d="M15.8024 7.51302C15.3181 7.02872 14.5329 7.02872 14.0486 7.51302L10.336 11.2256C9.84543 11.7162 9.0414 11.7076 8.55081 11.217C8.06965 10.7359 7.28108 10.7274 6.79993 11.2085C6.31877 11.6897 6.31876 12.4698 6.79992 12.951L7.7053 13.8564C8.66762 14.8187 10.2392 14.8301 11.2015 13.8677L15.8024 9.26684C16.2867 8.78254 16.2867 7.99733 15.8024 7.51302Z" fill="url(#paint1_linear_248_18)"/>
<path d="M15.8024 7.51302C15.3181 7.02872 14.5329 7.02872 14.0486 7.51302L10.336 11.2256C9.84543 11.7162 9.0414 11.7076 8.55081 11.217C8.06965 10.7359 7.28108 10.7274 6.79993 11.2085C6.31877 11.6897 6.31876 12.4698 6.79992 12.951L7.7053 13.8564C8.66762 14.8187 10.2392 14.8301 11.2015 13.8677L15.8024 9.26684C16.2867 8.78254 16.2867 7.99733 15.8024 7.51302Z" fill="white"/>
<defs>
<linearGradient id="paint0_linear_248_18" x1="6.62831" y1="0.623171" x2="22.9698" y2="2.84906" gradientUnits="userSpaceOnUse">
<stop stop-color="#00CA20"/>
<stop offset="1" stop-color="#34A201"/>
</linearGradient>
<linearGradient id="paint1_linear_248_18" x1="8.91037" y1="6.63611" x2="17.2104" y2="7.99047" gradientUnits="userSpaceOnUse">
<stop stop-color="#FFB905"/>
<stop offset="1" stop-color="#F4DC00"/>
</linearGradient>
</defs>
</svg>
