<svg width="154" height="12" viewBox="0 0 154 12" fill="none" xmlns="http://www.w3.org/2000/svg">
<path d="M8.80142 0.677481V11.2923H8.16909L1.40007 1.85403H1.33787V11.2923H0.689995V0.677481H1.32751L8.09653 10.1261H8.15872V0.677481H8.80142ZM14.6012 11.4582C13.9447 11.4582 13.3607 11.2819 12.8494 10.9295C12.338 10.5736 11.9354 10.0847 11.6417 9.46269C11.348 8.84073 11.2012 8.13239 11.2012 7.33766C11.2012 6.53947 11.348 5.83113 11.6417 5.21262C11.9354 4.59066 12.338 4.10173 12.8494 3.74583C13.3607 3.38993 13.9447 3.21198 14.6012 3.21198C15.2577 3.21198 15.8417 3.38993 16.3531 3.74583C16.8645 4.10173 17.267 4.59066 17.5607 5.21262C17.8544 5.83458 18.0013 6.54293 18.0013 7.33766C18.0013 8.13239 17.8544 8.84073 17.5607 9.46269C17.267 10.0847 16.8645 10.5736 16.3531 10.9295C15.8417 11.2819 15.2577 11.4582 14.6012 11.4582ZM14.6012 10.8725C15.1575 10.8725 15.643 10.7153 16.0576 10.4008C16.4757 10.0864 16.7988 9.66138 17.0269 9.1258C17.2584 8.59022 17.3741 7.99417 17.3741 7.33766C17.3741 6.68114 17.2584 6.08682 17.0269 5.5547C16.7954 5.01912 16.4723 4.59411 16.0576 4.27968C15.643 3.96179 15.1575 3.80284 14.6012 3.80284C14.0449 3.80284 13.5594 3.96179 13.1448 4.27968C12.7301 4.59411 12.4071 5.01912 12.1756 5.5547C11.944 6.08682 11.8283 6.68114 11.8283 7.33766C11.8283 7.99417 11.9423 8.59022 12.1704 9.1258C12.4019 9.66138 12.725 10.0864 13.1396 10.4008C13.5577 10.7153 14.0449 10.8725 14.6012 10.8725ZM20.8118 6.13001V11.2923H20.1794V3.33119H20.7962V4.59066H20.8584C21.045 4.17947 21.3439 3.84949 21.7551 3.6007C22.1663 3.35192 22.6552 3.22753 23.2219 3.22753C23.7574 3.22753 24.2274 3.34155 24.6316 3.5696C25.0394 3.79766 25.3573 4.12246 25.5853 4.54401C25.8168 4.96211 25.9326 5.4614 25.9326 6.0419V11.2923H25.3002V6.06782C25.3002 5.39057 25.0981 4.84635 24.6938 4.43517C24.293 4.02053 23.7626 3.81321 23.1026 3.81321C22.6604 3.81321 22.2665 3.90996 21.9209 4.10345C21.5754 4.29695 21.3041 4.5682 21.1072 4.91719C20.9102 5.26272 20.8118 5.667 20.8118 6.13001ZM34.7748 11.4633C34.3152 11.4633 33.8937 11.3718 33.5101 11.1886C33.1301 11.0055 32.8243 10.7377 32.5928 10.3853C32.3647 10.0328 32.2507 9.60436 32.2507 9.09988C32.2507 8.76817 32.3094 8.47619 32.4269 8.22395C32.5444 7.97171 32.7258 7.75403 32.9711 7.57089C33.2164 7.38776 33.5309 7.23745 33.9144 7.11997C34.298 6.99903 34.7558 6.90574 35.2879 6.84009C35.6922 6.79171 36.0533 6.74506 36.3712 6.70015C36.6891 6.65177 36.9378 6.57748 37.1175 6.47728C37.3007 6.37707 37.3922 6.22504 37.3922 6.02117V5.68946C37.3922 5.10896 37.2091 4.64767 36.8428 4.30559C36.4766 3.96351 35.9721 3.79247 35.3294 3.79247C34.7593 3.79247 34.279 3.91859 33.8885 4.17083C33.5015 4.41962 33.2303 4.74097 33.0748 5.13487L32.4787 4.912C32.6308 4.53192 32.8502 4.21575 33.137 3.96351C33.4272 3.71127 33.7589 3.52296 34.1321 3.39856C34.5087 3.27417 34.9026 3.21198 35.3138 3.21198C35.6697 3.21198 36.0084 3.26208 36.3297 3.36228C36.6545 3.46249 36.943 3.61452 37.1953 3.81839C37.451 4.02225 37.6531 4.28313 37.8017 4.60102C37.9503 4.91546 38.0246 5.29209 38.0246 5.73092V11.2923H37.3922V9.8566H37.3456C37.2074 10.1538 37.0173 10.425 36.7754 10.6703C36.537 10.9122 36.2485 11.1057 35.9099 11.2508C35.5747 11.3925 35.1964 11.4633 34.7748 11.4633ZM34.837 10.8777C35.3346 10.8777 35.7751 10.7567 36.1587 10.5148C36.5457 10.2695 36.848 9.93435 37.0657 9.50934C37.2834 9.08433 37.3922 8.60231 37.3922 8.06328V6.89192C37.3128 6.96102 37.197 7.02322 37.045 7.07851C36.8964 7.13034 36.7271 7.17698 36.537 7.21845C36.3504 7.25646 36.1535 7.29101 35.9462 7.32211C35.7423 7.34975 35.5436 7.37566 35.3501 7.39985C34.7696 7.46896 34.2962 7.57608 33.93 7.7212C33.5672 7.86287 33.3011 8.04946 33.1318 8.28097C32.9659 8.51247 32.883 8.79236 32.883 9.12061C32.883 9.6631 33.0696 10.0916 33.4428 10.406C33.8159 10.7204 34.2807 10.8777 34.837 10.8777ZM41.308 0.677481V11.2923H40.6757V0.677481H41.308ZM46.9108 11.4582C46.2336 11.4582 45.6375 11.2802 45.1227 10.9243C44.6078 10.5649 44.2053 10.0743 43.915 9.45233C43.6283 8.83036 43.4849 8.12547 43.4849 7.33766C43.4849 6.54984 43.63 5.84495 43.9202 5.22299C44.2105 4.60102 44.613 4.11037 45.1279 3.75101C45.6427 3.39165 46.2353 3.21198 46.9056 3.21198C47.4101 3.21198 47.8697 3.31564 48.2843 3.52296C48.7024 3.73028 49.048 4.0188 49.3209 4.38852C49.5974 4.75824 49.7736 5.1867 49.8496 5.67391H49.2069C49.1032 5.13487 48.8441 4.68914 48.4295 4.33669C48.0183 3.98079 47.5121 3.80284 46.9108 3.80284C46.3718 3.80284 45.8915 3.95487 45.47 4.25894C45.0484 4.55956 44.7167 4.97593 44.4748 5.50805C44.2329 6.03672 44.112 6.64313 44.112 7.32729C44.112 8.00108 44.2295 8.60577 44.4644 9.14135C44.6994 9.67347 45.0277 10.095 45.4492 10.406C45.8708 10.717 46.358 10.8725 46.9108 10.8725C47.3013 10.8725 47.6572 10.7947 47.9785 10.6392C48.3033 10.4837 48.5746 10.2626 48.7923 9.97581C49.01 9.68902 49.1534 9.35385 49.2225 8.97031H49.8652C49.7891 9.46097 49.6164 9.89288 49.3469 10.2661C49.0773 10.6392 48.7335 10.9312 48.3154 11.142C47.8973 11.3528 47.4291 11.4582 46.9108 11.4582ZM54.9808 11.4582C54.3243 11.4582 53.7403 11.2819 53.2289 10.9295C52.7175 10.5736 52.315 10.0847 52.0213 9.46269C51.7276 8.84073 51.5807 8.13239 51.5807 7.33766C51.5807 6.53947 51.7276 5.83113 52.0213 5.21262C52.315 4.59066 52.7175 4.10173 53.2289 3.74583C53.7403 3.38993 54.3243 3.21198 54.9808 3.21198C55.6373 3.21198 56.2213 3.38993 56.7326 3.74583C57.244 4.10173 57.6466 4.59066 57.9403 5.21262C58.234 5.83458 58.3808 6.54293 58.3808 7.33766C58.3808 8.13239 58.234 8.84073 57.9403 9.46269C57.6466 10.0847 57.244 10.5736 56.7326 10.9295C56.2213 11.2819 55.6373 11.4582 54.9808 11.4582ZM54.9808 10.8725C55.5371 10.8725 56.0226 10.7153 56.4372 10.4008C56.8553 10.0864 57.1784 9.66138 57.4064 9.1258C57.6379 8.59022 57.7537 7.99417 57.7537 7.33766C57.7537 6.68114 57.6379 6.08682 57.4064 5.5547C57.1749 5.01912 56.8519 4.59411 56.4372 4.27968C56.0226 3.96179 55.5371 3.80284 54.9808 3.80284C54.4245 3.80284 53.939 3.96179 53.5244 4.27968C53.1097 4.59411 52.7866 5.01912 52.5551 5.5547C52.3236 6.08682 52.2079 6.68114 52.2079 7.33766C52.2079 7.99417 52.3219 8.59022 52.55 9.1258C52.7815 9.66138 53.1045 10.0864 53.5192 10.4008C53.9373 10.7153 54.4245 10.8725 54.9808 10.8725ZM61.1913 6.13001V11.2923H60.559V0.677481H61.1913V4.59066H61.2535C61.4401 4.17602 61.7373 3.84603 62.145 3.6007C62.5562 3.35192 63.0486 3.22753 63.6222 3.22753C64.1578 3.22753 64.6294 3.34155 65.0371 3.5696C65.4449 3.7942 65.7628 4.11728 65.9908 4.53883C66.2223 4.95692 66.3381 5.45795 66.3381 6.0419V11.2923H65.7109V6.06782C65.7109 5.38711 65.5088 4.84117 65.1045 4.42998C64.7002 4.0188 64.1664 3.81321 63.503 3.81321C63.0572 3.81321 62.6599 3.90996 62.3109 4.10345C61.9619 4.29695 61.6872 4.5682 61.4868 4.91719C61.2898 5.26272 61.1913 5.667 61.1913 6.13001ZM71.9137 11.4582C71.2572 11.4582 70.6732 11.2819 70.1618 10.9295C69.6505 10.5736 69.2479 10.0847 68.9542 9.46269C68.6605 8.84073 68.5136 8.13239 68.5136 7.33766C68.5136 6.53947 68.6605 5.83113 68.9542 5.21262C69.2479 4.59066 69.6505 4.10173 70.1618 3.74583C70.6732 3.38993 71.2572 3.21198 71.9137 3.21198C72.5702 3.21198 73.1542 3.38993 73.6656 3.74583C74.177 4.10173 74.5795 4.59066 74.8732 5.21262C75.1669 5.83458 75.3138 6.54293 75.3138 7.33766C75.3138 8.13239 75.1669 8.84073 74.8732 9.46269C74.5795 10.0847 74.177 10.5736 73.6656 10.9295C73.1542 11.2819 72.5702 11.4582 71.9137 11.4582ZM71.9137 10.8725C72.47 10.8725 72.9555 10.7153 73.3701 10.4008C73.7882 10.0864 74.1113 9.66138 74.3394 9.1258C74.5709 8.59022 74.6866 7.99417 74.6866 7.33766C74.6866 6.68114 74.5709 6.08682 74.3394 5.5547C74.1078 5.01912 73.7848 4.59411 73.3701 4.27968C72.9555 3.96179 72.47 3.80284 71.9137 3.80284C71.3574 3.80284 70.8719 3.96179 70.4573 4.27968C70.0426 4.59411 69.7196 5.01912 69.4881 5.5547C69.2565 6.08682 69.1408 6.68114 69.1408 7.33766C69.1408 7.99417 69.2548 8.59022 69.4829 9.1258C69.7144 9.66138 70.0375 10.0864 70.4521 10.4008C70.8702 10.7153 71.3574 10.8725 71.9137 10.8725ZM78.1242 0.677481V11.2923H77.4919V0.677481H78.1242ZM80.7728 11.2923V3.33119H81.3999V11.2923H80.7728ZM81.0889 1.9214C80.9507 1.9214 80.8298 1.87303 80.7261 1.77628C80.6259 1.67953 80.5758 1.56205 80.5758 1.42384C80.5758 1.28562 80.6259 1.16814 80.7261 1.07139C80.8263 0.97464 80.9473 0.926265 81.0889 0.926265C81.2272 0.926265 81.3464 0.97464 81.4466 1.07139C81.5502 1.16814 81.6021 1.28562 81.6021 1.42384C81.6021 1.56205 81.552 1.67953 81.4518 1.77628C81.3515 1.87303 81.2306 1.9214 81.0889 1.9214ZM87.0339 11.4582C86.3566 11.4582 85.7606 11.2802 85.2457 10.9243C84.7309 10.5649 84.3283 10.0743 84.0381 9.45233C83.7513 8.83036 83.6079 8.12547 83.6079 7.33766C83.6079 6.54984 83.753 5.84495 84.0433 5.22299C84.3335 4.60102 84.7361 4.11037 85.2509 3.75101C85.7657 3.39165 86.3583 3.21198 87.0287 3.21198C87.5332 3.21198 87.9927 3.31564 88.4074 3.52296C88.8255 3.73028 89.171 4.0188 89.444 4.38852C89.7204 4.75824 89.8966 5.1867 89.9726 5.67391H89.3299C89.2263 5.13487 88.9671 4.68914 88.5525 4.33669C88.1413 3.98079 87.6351 3.80284 87.0339 3.80284C86.4948 3.80284 86.0145 3.95487 85.593 4.25894C85.1714 4.55956 84.8397 4.97593 84.5978 5.50805C84.356 6.03672 84.235 6.64313 84.235 7.32729C84.235 8.00108 84.3525 8.60577 84.5875 9.14135C84.8224 9.67347 85.1507 10.095 85.5722 10.406C85.9938 10.717 86.481 10.8725 87.0339 10.8725C87.4243 10.8725 87.7802 10.7947 88.1016 10.6392C88.4264 10.4837 88.6976 10.2626 88.9153 9.97581C89.133 9.68902 89.2764 9.35385 89.3455 8.97031H89.9882C89.9122 9.46097 89.7394 9.89288 89.4699 10.2661C89.2004 10.6392 88.8566 10.9312 88.4385 11.142C88.0204 11.3528 87.5522 11.4582 87.0339 11.4582ZM99.2347 11.4582C98.5574 11.4582 97.9614 11.2802 97.4465 10.9243C96.9317 10.5649 96.5291 10.0743 96.2389 9.45233C95.9521 8.83036 95.8087 8.12547 95.8087 7.33766C95.8087 6.54984 95.9538 5.84495 96.2441 5.22299C96.5343 4.60102 96.9369 4.11037 97.4517 3.75101C97.9666 3.39165 98.5592 3.21198 99.2295 3.21198C99.734 3.21198 100.194 3.31564 100.608 3.52296C101.026 3.73028 101.372 4.0188 101.645 4.38852C101.921 4.75824 102.097 5.1867 102.173 5.67391H101.531C101.427 5.13487 101.168 4.68914 100.753 4.33669C100.342 3.98079 99.8359 3.80284 99.2347 3.80284C98.6956 3.80284 98.2154 3.95487 97.7938 4.25894C97.3722 4.55956 97.0405 4.97593 96.7987 5.50805C96.5568 6.03672 96.4358 6.64313 96.4358 7.32729C96.4358 8.00108 96.5533 8.60577 96.7883 9.14135C97.0233 9.67347 97.3515 10.095 97.7731 10.406C98.1946 10.717 98.6818 10.8725 99.2347 10.8725C99.6251 10.8725 99.981 10.7947 100.302 10.6392C100.627 10.4837 100.898 10.2626 101.116 9.97581C101.334 9.68902 101.477 9.35385 101.546 8.97031H102.189C102.113 9.46097 101.94 9.89288 101.671 10.2661C101.401 10.6392 101.057 10.9312 100.639 11.142C100.221 11.3528 99.753 11.4582 99.2347 11.4582ZM107.305 11.4582C106.648 11.4582 106.064 11.2819 105.553 10.9295C105.041 10.5736 104.639 10.0847 104.345 9.46269C104.051 8.84073 103.905 8.13239 103.905 7.33766C103.905 6.53947 104.051 5.83113 104.345 5.21262C104.639 4.59066 105.041 4.10173 105.553 3.74583C106.064 3.38993 106.648 3.21198 107.305 3.21198C107.961 3.21198 108.545 3.38993 109.056 3.74583C109.568 4.10173 109.97 4.59066 110.264 5.21262C110.558 5.83458 110.705 6.54293 110.705 7.33766C110.705 8.13239 110.558 8.84073 110.264 9.46269C109.97 10.0847 109.568 10.5736 109.056 10.9295C108.545 11.2819 107.961 11.4582 107.305 11.4582ZM107.305 10.8725C107.861 10.8725 108.346 10.7153 108.761 10.4008C109.179 10.0864 109.502 9.66138 109.73 9.1258C109.962 8.59022 110.078 7.99417 110.078 7.33766C110.078 6.68114 109.962 6.08682 109.73 5.5547C109.499 5.01912 109.176 4.59411 108.761 4.27968C108.346 3.96179 107.861 3.80284 107.305 3.80284C106.748 3.80284 106.263 3.96179 105.848 4.27968C105.434 4.59411 105.11 5.01912 104.879 5.5547C104.647 6.08682 104.532 6.68114 104.532 7.33766C104.532 7.99417 104.646 8.59022 104.874 9.1258C105.105 9.66138 105.428 10.0864 105.843 10.4008C106.261 10.7153 106.748 10.8725 107.305 10.8725ZM115.868 11.4582C115.191 11.4582 114.595 11.2802 114.08 10.9243C113.565 10.5649 113.163 10.0743 112.872 9.45233C112.586 8.83036 112.442 8.12547 112.442 7.33766C112.442 6.54984 112.587 5.84495 112.878 5.22299C113.168 4.60102 113.57 4.11037 114.085 3.75101C114.6 3.39165 115.193 3.21198 115.863 3.21198C116.368 3.21198 116.827 3.31564 117.242 3.52296C117.66 3.73028 118.005 4.0188 118.278 4.38852C118.555 4.75824 118.731 5.1867 118.807 5.67391H118.164C118.061 5.13487 117.802 4.68914 117.387 4.33669C116.976 3.98079 116.469 3.80284 115.868 3.80284C115.329 3.80284 114.849 3.95487 114.427 4.25894C114.006 4.55956 113.674 4.97593 113.432 5.50805C113.19 6.03672 113.069 6.64313 113.069 7.32729C113.069 8.00108 113.187 8.60577 113.422 9.14135C113.657 9.67347 113.985 10.095 114.407 10.406C114.828 10.717 115.315 10.8725 115.868 10.8725C116.259 10.8725 116.615 10.7947 116.936 10.6392C117.261 10.4837 117.532 10.2626 117.75 9.97581C117.967 9.68902 118.111 9.35385 118.18 8.97031H118.823C118.747 9.46097 118.574 9.89288 118.304 10.2661C118.035 10.6392 117.691 10.9312 117.273 11.142C116.855 11.3528 116.387 11.4582 115.868 11.4582ZM121.528 8.18249L121.518 7.27546H121.684L125.664 3.33119H126.488L122.834 6.9593L122.772 6.98521L121.528 8.18249ZM120.979 11.2923V0.677481H121.611V11.2923H120.979ZM125.846 11.2923L122.487 7.04741L122.943 6.62758L126.654 11.2923H125.846ZM131.176 3.33119V3.89613H127.698V3.33119H131.176ZM128.875 1.42384H129.502V9.41086C129.502 9.73566 129.564 10.0017 129.689 10.209C129.817 10.4129 129.982 10.5649 130.186 10.6652C130.394 10.7619 130.615 10.8103 130.85 10.8103C130.964 10.8103 131.062 10.8016 131.145 10.7844C131.232 10.7671 131.313 10.7446 131.389 10.717L131.544 11.2923C131.448 11.3269 131.34 11.3562 131.223 11.3804C131.105 11.4081 130.967 11.4219 130.808 11.4219C130.477 11.4219 130.162 11.3476 129.865 11.199C129.571 11.0504 129.333 10.8345 129.15 10.5511C128.967 10.2678 128.875 9.92571 128.875 9.52489V1.42384ZM135.631 11.4633C135.172 11.4633 134.75 11.3718 134.366 11.1886C133.986 11.0055 133.681 10.7377 133.449 10.3853C133.221 10.0328 133.107 9.60436 133.107 9.09988C133.107 8.76817 133.166 8.47619 133.283 8.22395C133.401 7.97171 133.582 7.75403 133.827 7.57089C134.073 7.38776 134.387 7.23745 134.771 7.11997C135.154 6.99903 135.612 6.90574 136.144 6.84009C136.548 6.79171 136.91 6.74506 137.227 6.70015C137.545 6.65177 137.794 6.57748 137.974 6.47728C138.157 6.37707 138.249 6.22504 138.249 6.02117V5.68946C138.249 5.10896 138.065 4.64767 137.699 4.30559C137.333 3.96351 136.828 3.79247 136.186 3.79247C135.616 3.79247 135.135 3.91859 134.745 4.17083C134.358 4.41962 134.087 4.74097 133.931 5.13487L133.335 4.912C133.487 4.53192 133.706 4.21575 133.993 3.96351C134.284 3.71127 134.615 3.52296 134.988 3.39856C135.365 3.27417 135.759 3.21198 136.17 3.21198C136.526 3.21198 136.865 3.26208 137.186 3.36228C137.511 3.46249 137.799 3.61452 138.052 3.81839C138.307 4.02225 138.509 4.28313 138.658 4.60102C138.807 4.91546 138.881 5.29209 138.881 5.73092V11.2923H138.249V9.8566H138.202C138.064 10.1538 137.874 10.425 137.632 10.6703C137.393 10.9122 137.105 11.1057 136.766 11.2508C136.431 11.3925 136.053 11.4633 135.631 11.4633ZM135.693 10.8777C136.191 10.8777 136.631 10.7567 137.015 10.5148C137.402 10.2695 137.704 9.93435 137.922 9.50934C138.14 9.08433 138.249 8.60231 138.249 8.06328V6.89192C138.169 6.96102 138.053 7.02322 137.901 7.07851C137.753 7.13034 137.583 7.17698 137.393 7.21845C137.207 7.25646 137.01 7.29101 136.802 7.32211C136.599 7.34975 136.4 7.37566 136.206 7.39985C135.626 7.46896 135.153 7.57608 134.786 7.7212C134.423 7.86287 134.157 8.04946 133.988 8.28097C133.822 8.51247 133.739 8.79236 133.739 9.12061C133.739 9.6631 133.926 10.0916 134.299 10.406C134.672 10.7204 135.137 10.8777 135.693 10.8777ZM141.563 11.2923V3.33119H142.19V11.2923H141.563ZM141.879 1.9214C141.741 1.9214 141.62 1.87303 141.516 1.77628C141.416 1.67953 141.366 1.56205 141.366 1.42384C141.366 1.28562 141.416 1.16814 141.516 1.07139C141.617 0.97464 141.738 0.926265 141.879 0.926265C142.017 0.926265 142.137 0.97464 142.237 1.07139C142.341 1.16814 142.392 1.28562 142.392 1.42384C142.392 1.56205 142.342 1.67953 142.242 1.77628C142.142 1.87303 142.021 1.9214 141.879 1.9214ZM145.471 0.677481V11.2923H144.839V0.677481H145.471ZM153.147 5.04676L152.561 5.20225C152.468 4.912 152.335 4.66149 152.162 4.45072C151.99 4.23994 151.772 4.07754 151.509 3.96351C151.25 3.84603 150.939 3.78729 150.576 3.78729C149.992 3.78729 149.514 3.93241 149.141 4.22266C148.771 4.51291 148.586 4.89127 148.586 5.35774C148.586 5.73783 148.712 6.05227 148.964 6.30105C149.217 6.54638 149.602 6.73297 150.12 6.86082L151.343 7.16662C151.972 7.32211 152.446 7.57435 152.764 7.92334C153.081 8.26887 153.24 8.69906 153.24 9.21391C153.24 9.65274 153.121 10.0415 152.883 10.3801C152.644 10.7187 152.314 10.983 151.893 11.1731C151.475 11.3631 150.988 11.4582 150.431 11.4582C149.688 11.4582 149.078 11.2854 148.602 10.9399C148.125 10.5909 147.819 10.0916 147.684 9.44196L148.291 9.28647C148.405 9.80477 148.641 10.2004 149.001 10.4734C149.364 10.7429 149.839 10.8777 150.426 10.8777C151.076 10.8777 151.599 10.7239 151.996 10.4164C152.397 10.1088 152.598 9.71493 152.598 9.23464C152.598 8.86837 152.48 8.55912 152.245 8.30688C152.01 8.05464 151.654 7.86978 151.178 7.7523L149.908 7.44132C149.258 7.28237 148.771 7.0284 148.446 6.67941C148.121 6.32697 147.959 5.89332 147.959 5.37848C147.959 4.95001 148.071 4.57338 148.296 4.24858C148.52 3.92378 148.83 3.66981 149.224 3.48668C149.617 3.30354 150.068 3.21198 150.576 3.21198C151.25 3.21198 151.8 3.37092 152.225 3.68881C152.65 4.0067 152.957 4.45935 153.147 5.04676Z" fill="white"/>
</svg>
