<svg width="358" height="139" viewBox="0 0 358 139" fill="none" xmlns="http://www.w3.org/2000/svg">
<g filter="url(#filter0_d_13_2468)">
<path d="M56.5439 16.8165L56.229 17.1629C55.6623 17.8555 55.1796 18.5797 54.7808 19.3353L51.9157 24.8136V28.5602C51.9157 29.043 51.9576 29.4103 52.0416 29.6622C52.1466 29.8931 52.3145 30.0715 52.5454 30.1974C52.7762 30.3234 53.1436 30.4598 53.6473 30.6067L53.4584 31.1735H47.9486L47.6967 30.8586L47.9486 30.4808C48.3054 30.019 48.5468 29.5468 48.6728 29.064C48.8197 28.5602 48.8932 27.8886 48.8932 27.049V24.8766L45.9021 19.3983C45.5663 18.7266 45.2515 18.2123 44.9576 17.8555C44.6637 17.4777 44.2964 17.1314 43.8556 16.8165L44.139 16.4702H49.9007L50.0581 17.0369L49.5858 17.1629C48.9771 17.2888 48.6728 17.5302 48.6728 17.887C48.6728 18.0129 48.7252 18.1914 48.8302 18.4222C48.9351 18.6531 49.0926 18.968 49.3025 19.3668L51.4434 23.3968L53.7103 19.0834C53.8782 18.8105 53.9622 18.5377 53.9622 18.2648C53.9622 17.992 53.8782 17.7611 53.7103 17.5722C53.5424 17.3623 53.3325 17.2258 53.0806 17.1629L52.4824 17.0369L52.6713 16.4702H56.292L56.5439 16.8165ZM57.5915 26.1045C57.5915 24.4463 58.0638 23.1344 59.0083 22.1689C59.9738 21.2034 61.2752 20.7206 62.9124 20.7206C64.5496 20.7206 65.8509 21.2139 66.8164 22.2004C67.782 23.1659 68.2647 24.4673 68.2647 26.1045C68.2647 27.7417 67.782 29.043 66.8164 30.0085C65.8509 30.9741 64.5496 31.4568 62.9124 31.4568C61.2752 31.4568 59.9738 30.9741 59.0083 30.0085C58.0638 29.043 57.5915 27.7417 57.5915 26.1045ZM65.0848 26.1674C65.0848 24.7611 64.8854 23.6172 64.4866 22.7356C64.0878 21.8331 63.584 21.3818 62.9753 21.3818C62.3037 21.3818 61.7579 21.8226 61.3381 22.7041C60.9183 23.5647 60.7085 24.6982 60.7085 26.1045C60.7085 27.5318 60.8974 28.6652 61.2752 29.5048C61.674 30.3444 62.1987 30.7642 62.8494 30.7642C63.5001 30.7642 64.0353 30.3444 64.4551 29.5048C64.8749 28.6442 65.0848 27.5318 65.0848 26.1674ZM77.4193 28.3084C77.1255 29.2319 76.6112 29.9875 75.8766 30.5753C75.163 31.163 74.3968 31.4568 73.5782 31.4568C72.6547 31.4568 71.9725 31.163 71.5317 30.5753C71.091 29.9875 70.8706 29.085 70.8706 27.8676V22.7356C70.8706 22.4418 70.7341 22.2948 70.4613 22.2948H69.4852L69.3908 21.9485C69.8106 21.5917 70.3353 21.2978 70.965 21.0669C71.5947 20.8361 72.2139 20.7206 72.8226 20.7206C73.0955 20.7206 73.3054 20.7836 73.4523 20.9095C73.6202 21.0355 73.7042 21.2034 73.7042 21.4133V27.7102C73.7042 28.4238 73.8091 28.98 74.019 29.3788C74.2289 29.7567 74.5228 29.9456 74.9006 29.9456C75.6772 29.9456 76.2964 29.4733 76.7582 28.5288C77.2409 27.5632 77.4823 26.3144 77.4823 24.7821C77.4823 23.9635 77.4193 23.3338 77.2934 22.893C77.1885 22.4313 76.9891 22.0325 76.6952 21.6966L76.4118 21.3503L76.6637 21.0669L80.2844 20.7836V29.3788C80.2844 30.0085 80.4733 30.3234 80.8511 30.3234C81.25 30.3234 81.6383 30.166 82.0161 29.8511L82.268 30.166C81.5333 31.0265 80.6203 31.4568 79.5288 31.4568C78.7312 31.4568 78.175 31.2259 77.8601 30.7642C77.5663 30.3024 77.4193 29.4838 77.4193 28.3084ZM99.228 29.3788C99.228 30.0085 99.4274 30.3234 99.8262 30.3234C100.225 30.3234 100.613 30.166 100.991 29.8511L101.243 30.166C100.466 31.0265 99.5534 31.4568 98.5039 31.4568C97.7482 31.4568 97.2025 31.2679 96.8667 30.8901C96.5518 30.4913 96.3944 29.8511 96.3944 28.9695V24.1524C96.3944 22.935 96.0061 22.3263 95.2295 22.3263C94.4739 22.3263 93.8652 22.8406 93.4034 23.8691C92.9416 24.8976 92.7107 26.2409 92.7107 27.8991C92.7107 28.5498 92.7527 29.0745 92.8367 29.4733C92.9416 29.8511 93.1095 30.2079 93.3404 30.5438L93.5923 30.8586L93.3404 31.1735H88.7752L88.5863 30.6382L89.027 30.5438C89.3629 30.4598 89.5833 30.3339 89.6882 30.166C89.7932 29.9771 89.8456 29.6202 89.8456 29.0955V17.8555C89.8456 17.6876 89.8037 17.5512 89.7197 17.4462C89.6567 17.3413 89.5623 17.2888 89.4363 17.2888H88.4603L88.3344 16.974C88.7332 16.5961 89.2474 16.3023 89.8771 16.0924C90.5278 15.8615 91.168 15.7461 91.7977 15.7461C92.0705 15.7461 92.2909 15.809 92.4588 15.935C92.6268 16.0399 92.7107 16.1973 92.7107 16.4072V24.1839C93.0046 23.1974 93.5188 22.3788 94.2535 21.7281C95.0091 21.0564 95.8067 20.7206 96.6463 20.7206C97.5488 20.7206 98.1995 21.0145 98.5983 21.6022C99.0181 22.1899 99.228 23.1239 99.228 24.4043V29.3788ZM105.795 24.2154C105.354 24.4673 104.829 24.5932 104.221 24.5932C103.78 24.5932 103.433 24.4673 103.182 24.2154C102.93 23.9425 102.804 23.5647 102.804 23.0819C102.804 22.3683 103.15 21.8016 103.843 21.3818C104.556 20.941 105.48 20.7206 106.613 20.7206C107.957 20.7206 109.006 21.0145 109.762 21.6022C110.538 22.1899 110.927 22.9875 110.927 23.995V29.4418C110.927 30.0295 111.137 30.3234 111.556 30.3234C111.955 30.3234 112.344 30.166 112.721 29.8511L112.973 30.166C112.197 31.0265 111.273 31.4568 110.203 31.4568C109.573 31.4568 109.09 31.2994 108.754 30.9846C108.439 30.6697 108.251 30.1765 108.188 29.5048H108.062C107.726 30.1135 107.275 30.5962 106.708 30.9531C106.162 31.2889 105.532 31.4568 104.819 31.4568C104.021 31.4568 103.381 31.2154 102.898 30.7327C102.415 30.2289 102.174 29.5782 102.174 28.7806C102.174 27.8781 102.604 27.1644 103.465 26.6397C104.325 26.115 105.49 25.8526 106.96 25.8526C107.233 25.8526 107.621 25.8736 108.125 25.9156V24.3413C108.125 23.3128 107.999 22.5782 107.747 22.1374C107.495 21.6756 107.086 21.4448 106.519 21.4448C106.12 21.4448 105.805 21.5707 105.574 21.8226C105.343 22.0744 105.228 22.3998 105.228 22.7986C105.228 23.4283 105.417 23.9005 105.795 24.2154ZM106.267 29.8826C107.505 29.8826 108.125 28.7597 108.125 26.5138C107.075 26.5138 106.288 26.6922 105.763 27.049C105.239 27.3848 104.976 27.8676 104.976 28.4973C104.976 28.9171 105.092 29.2529 105.322 29.5048C105.553 29.7567 105.868 29.8826 106.267 29.8826ZM119.403 30.4493C120.075 30.4493 120.6 30.019 120.978 29.1585C121.376 28.2769 121.576 27.1749 121.576 25.8526C121.576 24.0685 121.198 22.6622 120.442 21.6337L120.159 21.2873L120.411 21.0355L123.056 20.7206C123.119 21.6232 123.15 22.3473 123.15 22.893C123.15 25.5797 122.741 27.6787 121.922 29.1899C121.104 30.7012 120.002 31.4568 118.616 31.4568C117.525 31.4568 116.696 31.1315 116.129 30.4808C115.583 29.8301 115.195 28.7597 114.964 27.2694L114.303 22.7356C114.282 22.5677 114.24 22.4523 114.177 22.3893C114.114 22.3263 114.02 22.2948 113.894 22.2948H113.044L112.949 21.9485C113.369 21.5707 113.873 21.2768 114.46 21.0669C115.048 20.8361 115.625 20.7206 116.192 20.7206C116.507 20.7206 116.727 20.8151 116.853 21.004C117 21.1929 117.116 21.5707 117.2 22.1374L118.018 27.7731C118.165 28.8016 118.333 29.5048 118.522 29.8826C118.711 30.2604 119.005 30.4493 119.403 30.4493ZM131.155 30.4178C131.764 30.4178 132.299 30.3129 132.761 30.103C133.223 29.8721 133.674 29.4943 134.115 28.9695L134.493 29.2529C134.01 29.9456 133.391 30.4913 132.635 30.8901C131.9 31.2679 131.092 31.4568 130.211 31.4568C129.245 31.4568 128.374 31.2259 127.598 30.7642C126.842 30.3024 126.244 29.6727 125.803 28.8751C125.362 28.0565 125.142 27.133 125.142 26.1045C125.142 24.4673 125.635 23.1659 126.621 22.2004C127.629 21.2139 128.962 20.7206 130.62 20.7206C131.795 20.7206 132.75 21.004 133.485 21.5707C134.241 22.1164 134.619 22.8301 134.619 23.7116C134.619 24.7191 134.188 25.5272 133.328 26.1359C132.488 26.7237 131.334 27.0175 129.864 27.0175C129.277 27.0175 128.741 26.9755 128.259 26.8916C128.364 27.983 128.678 28.8436 129.203 29.4733C129.728 30.103 130.379 30.4178 131.155 30.4178ZM130.274 21.4762C129.623 21.4762 129.109 21.875 128.731 22.6726C128.374 23.4493 128.196 24.5407 128.196 25.947V26.4508C128.427 26.4508 128.71 26.4298 129.046 26.3878C129.927 26.2829 130.599 25.9995 131.061 25.5377C131.544 25.055 131.785 24.4253 131.785 23.6487C131.785 23.019 131.638 22.5047 131.344 22.1059C131.071 21.6861 130.714 21.4762 130.274 21.4762ZM150.572 23.4912C150.572 24.1839 150.362 24.7296 149.942 25.1284C149.522 25.5272 149.008 25.7266 148.399 25.7266C147.916 25.7266 147.476 25.6007 147.077 25.3488C147.539 24.929 147.769 24.3413 147.769 23.5857C147.769 22.977 147.644 22.4837 147.392 22.1059C147.14 21.7071 146.772 21.5077 146.29 21.5077C145.744 21.5077 145.293 21.938 144.936 22.7986C144.6 23.6382 144.432 24.7401 144.432 26.1045C144.432 27.4058 144.673 28.4553 145.156 29.2529C145.66 30.0295 146.363 30.4178 147.266 30.4178C147.895 30.4178 148.431 30.3024 148.871 30.0715C149.333 29.8406 149.763 29.5048 150.162 29.064L150.54 29.3159C150.099 29.9456 149.522 30.4598 148.808 30.8586C148.095 31.2574 147.266 31.4568 146.321 31.4568C144.852 31.4568 143.645 30.9636 142.7 29.9771C141.756 28.9905 141.284 27.7207 141.284 26.1674C141.284 24.5092 141.777 23.1869 142.763 22.2004C143.75 21.2139 145.062 20.7206 146.699 20.7206C147.853 20.7206 148.787 20.983 149.501 21.5077C150.215 22.0115 150.572 22.6726 150.572 23.4912ZM158.724 20.7206C159.396 20.7206 159.942 20.92 160.361 21.3188C160.781 21.6966 160.991 22.1899 160.991 22.7986C160.991 23.3653 160.823 23.8271 160.487 24.1839C160.151 24.5197 159.711 24.6877 159.165 24.6877C158.745 24.6877 158.357 24.6037 158 24.4358C158.378 24.1209 158.567 23.6487 158.567 23.019C158.567 22.7251 158.504 22.4942 158.378 22.3263C158.252 22.1584 158.084 22.0744 157.874 22.0744C157.37 22.0744 156.95 22.5887 156.615 23.6172C156.279 24.6247 156.111 25.8841 156.111 27.3953C156.111 28.1719 156.153 28.7911 156.237 29.2529C156.342 29.7147 156.51 30.145 156.741 30.5438L156.992 30.8586L156.741 31.1735H152.175L151.986 30.6382L152.427 30.5438C152.763 30.4598 152.983 30.3339 153.088 30.166C153.193 29.9771 153.246 29.6202 153.246 29.0955V22.956C153.246 22.5572 153.109 22.3578 152.837 22.3578H151.86L151.735 22.0115C152.133 21.6546 152.627 21.3608 153.214 21.1299C153.823 20.899 154.421 20.7836 155.009 20.7836C155.282 20.7836 155.502 20.8465 155.67 20.9725C155.838 21.0984 155.922 21.2663 155.922 21.4762V23.7746H156.016C156.457 21.7386 157.36 20.7206 158.724 20.7206ZM167.867 30.4178C168.475 30.4178 169.011 30.3129 169.472 30.103C169.934 29.8721 170.385 29.4943 170.826 28.9695L171.204 29.2529C170.721 29.9456 170.102 30.4913 169.346 30.8901C168.612 31.2679 167.804 31.4568 166.922 31.4568C165.957 31.4568 165.086 31.2259 164.309 30.7642C163.553 30.3024 162.955 29.6727 162.514 28.8751C162.074 28.0565 161.853 27.133 161.853 26.1045C161.853 24.4673 162.346 23.1659 163.333 22.2004C164.34 21.2139 165.673 20.7206 167.331 20.7206C168.507 20.7206 169.462 21.004 170.197 21.5707C170.952 22.1164 171.33 22.8301 171.33 23.7116C171.33 24.7191 170.9 25.5272 170.039 26.1359C169.2 26.7237 168.045 27.0175 166.576 27.0175C165.988 27.0175 165.453 26.9755 164.97 26.8916C165.075 27.983 165.39 28.8436 165.915 29.4733C166.439 30.103 167.09 30.4178 167.867 30.4178ZM166.985 21.4762C166.334 21.4762 165.82 21.875 165.442 22.6726C165.086 23.4493 164.907 24.5407 164.907 25.947V26.4508C165.138 26.4508 165.421 26.4298 165.757 26.3878C166.639 26.2829 167.31 25.9995 167.772 25.5377C168.255 25.055 168.496 24.4253 168.496 23.6487C168.496 23.019 168.349 22.5047 168.056 22.1059C167.783 21.6861 167.426 21.4762 166.985 21.4762ZM176.327 24.2154C175.887 24.4673 175.362 24.5932 174.753 24.5932C174.312 24.5932 173.966 24.4673 173.714 24.2154C173.462 23.9425 173.336 23.5647 173.336 23.0819C173.336 22.3683 173.683 21.8016 174.375 21.3818C175.089 20.941 176.013 20.7206 177.146 20.7206C178.489 20.7206 179.539 21.0145 180.294 21.6022C181.071 22.1899 181.459 22.9875 181.459 23.995V29.4418C181.459 30.0295 181.669 30.3234 182.089 30.3234C182.488 30.3234 182.876 30.166 183.254 29.8511L183.506 30.166C182.729 31.0265 181.806 31.4568 180.735 31.4568C180.106 31.4568 179.623 31.2994 179.287 30.9846C178.972 30.6697 178.783 30.1765 178.72 29.5048H178.594C178.258 30.1135 177.807 30.5962 177.24 30.9531C176.695 31.2889 176.065 31.4568 175.351 31.4568C174.554 31.4568 173.914 31.2154 173.431 30.7327C172.948 30.2289 172.707 29.5782 172.707 28.7806C172.707 27.8781 173.137 27.1644 173.998 26.6397C174.858 26.115 176.023 25.8526 177.492 25.8526C177.765 25.8526 178.153 25.8736 178.657 25.9156V24.3413C178.657 23.3128 178.531 22.5782 178.279 22.1374C178.028 21.6756 177.618 21.4448 177.052 21.4448C176.653 21.4448 176.338 21.5707 176.107 21.8226C175.876 22.0744 175.761 22.3998 175.761 22.7986C175.761 23.4283 175.95 23.9005 176.327 24.2154ZM176.8 29.8826C178.038 29.8826 178.657 28.7597 178.657 26.5138C177.608 26.5138 176.821 26.6922 176.296 27.049C175.771 27.3848 175.509 27.8676 175.509 28.4973C175.509 28.9171 175.624 29.2529 175.855 29.5048C176.086 29.7567 176.401 29.8826 176.8 29.8826ZM187.701 31.4568C186.84 31.4568 186.221 31.2679 185.843 30.8901C185.465 30.4913 185.276 29.8511 185.276 28.9695V22.2948H183.702C183.702 21.938 183.723 21.7071 183.765 21.6022C183.807 21.4972 183.933 21.4133 184.143 21.3503C184.836 21.1614 185.381 20.8675 185.78 20.4687C186.179 20.0699 186.504 19.4927 186.756 18.7371C186.819 18.5062 186.924 18.3698 187.071 18.3278C187.218 18.2648 187.575 18.2333 188.141 18.2333V21.0669H190.723C190.723 21.3398 190.681 21.5917 190.597 21.8226C190.513 22.0325 190.398 22.1899 190.251 22.2948H188.141V29.3788C188.141 30.0085 188.404 30.3234 188.929 30.3234C189.159 30.3234 189.411 30.2499 189.684 30.103C189.978 29.9561 190.24 29.7567 190.471 29.5048L190.723 29.8196C189.821 30.9111 188.813 31.4568 187.701 31.4568ZM197.691 30.4178C198.3 30.4178 198.835 30.3129 199.297 30.103C199.758 29.8721 200.21 29.4943 200.65 28.9695L201.028 29.2529C200.545 29.9456 199.926 30.4913 199.171 30.8901C198.436 31.2679 197.628 31.4568 196.746 31.4568C195.781 31.4568 194.91 31.2259 194.133 30.7642C193.377 30.3024 192.779 29.6727 192.338 28.8751C191.898 28.0565 191.677 27.133 191.677 26.1045C191.677 24.4673 192.171 23.1659 193.157 22.2004C194.165 21.2139 195.497 20.7206 197.156 20.7206C198.331 20.7206 199.286 21.004 200.021 21.5707C200.776 22.1164 201.154 22.8301 201.154 23.7116C201.154 24.7191 200.724 25.5272 199.863 26.1359C199.024 26.7237 197.869 27.0175 196.4 27.0175C195.812 27.0175 195.277 26.9755 194.794 26.8916C194.899 27.983 195.214 28.8436 195.739 29.4733C196.264 30.103 196.914 30.4178 197.691 30.4178ZM196.809 21.4762C196.159 21.4762 195.644 21.875 195.267 22.6726C194.91 23.4493 194.731 24.5407 194.731 25.947V26.4508C194.962 26.4508 195.246 26.4298 195.581 26.3878C196.463 26.2829 197.135 25.9995 197.596 25.5377C198.079 25.055 198.321 24.4253 198.321 23.6487C198.321 23.019 198.174 22.5047 197.88 22.1059C197.607 21.6861 197.25 21.4762 196.809 21.4762ZM214.558 30.166C213.781 31.0265 212.868 31.4568 211.819 31.4568C211.168 31.4568 210.685 31.3204 210.37 31.0475C210.056 30.7537 209.846 30.2814 209.741 29.6307C209.195 30.2604 208.628 30.7222 208.041 31.016C207.453 31.3099 206.802 31.4568 206.089 31.4568C205.039 31.4568 204.179 30.995 203.507 30.0715C202.856 29.148 202.531 27.9515 202.531 26.4823C202.531 24.7191 202.993 23.3233 203.916 22.2948C204.84 21.2454 206.099 20.7206 207.694 20.7206C208.429 20.7206 209.101 20.8885 209.709 21.2244V17.7296C209.709 17.4357 209.573 17.2888 209.3 17.2888H208.23L208.104 16.974C208.523 16.5961 209.059 16.3023 209.709 16.0924C210.36 15.8615 211 15.7461 211.63 15.7461C211.903 15.7461 212.123 15.809 212.291 15.935C212.459 16.0399 212.543 16.1973 212.543 16.4072V29.3788C212.543 30.0085 212.742 30.3234 213.141 30.3234C213.54 30.3234 213.928 30.166 214.306 29.8511L214.558 30.166ZM207.726 29.9456C208.523 29.9456 209.185 29.5048 209.709 28.6232V21.8541C209.29 21.6442 208.828 21.5392 208.324 21.5392C206.561 21.5392 205.679 23.061 205.679 26.1045C205.679 27.3428 205.847 28.2979 206.183 28.9695C206.54 29.6202 207.054 29.9456 207.726 29.9456ZM230.967 20.7836V31.1735C230.967 32.8316 230.484 34.112 229.518 35.0146C228.574 35.9381 227.252 36.3999 225.551 36.3999C224.502 36.3999 223.652 36.2005 223.001 35.8017C222.351 35.4029 222.025 34.8781 222.025 34.2275C222.025 33.6607 222.193 33.199 222.529 32.8421C222.865 32.5063 223.306 32.3384 223.851 32.3384C224.25 32.3384 224.638 32.4223 225.016 32.5903C224.638 32.9681 224.449 33.4823 224.449 34.133C224.449 34.5948 224.586 34.9726 224.859 35.2664C225.153 35.5603 225.52 35.7072 225.961 35.7072C227.43 35.7072 228.165 34.5108 228.165 32.118V28.1195C227.892 28.9171 227.409 29.5782 226.716 30.103C226.045 30.6067 225.321 30.8586 224.544 30.8586C223.62 30.8586 222.938 30.5753 222.497 30.0085C222.057 29.4418 221.836 28.5812 221.836 27.4268V22.7356C221.836 22.4418 221.7 22.2948 221.427 22.2948H220.451L220.356 21.9485C220.755 21.5917 221.28 21.2978 221.931 21.0669C222.581 20.8361 223.201 20.7206 223.788 20.7206C224.061 20.7206 224.271 20.7836 224.418 20.9095C224.586 21.0355 224.67 21.2034 224.67 21.4133V27.7731C224.67 28.9486 225.037 29.5363 225.772 29.5363C226.485 29.5363 227.063 29.106 227.503 28.2454C227.944 27.3848 228.165 26.2409 228.165 24.8136C228.165 24.058 228.102 23.4388 227.976 22.956C227.85 22.4732 227.65 22.0535 227.378 21.6966L227.126 21.3503L227.346 21.0669L230.967 20.7836ZM233.462 26.1045C233.462 24.4463 233.934 23.1344 234.879 22.1689C235.844 21.2034 237.146 20.7206 238.783 20.7206C240.42 20.7206 241.721 21.2139 242.687 22.2004C243.652 23.1659 244.135 24.4673 244.135 26.1045C244.135 27.7417 243.652 29.043 242.687 30.0085C241.721 30.9741 240.42 31.4568 238.783 31.4568C237.146 31.4568 235.844 30.9741 234.879 30.0085C233.934 29.043 233.462 27.7417 233.462 26.1045ZM240.955 26.1674C240.955 24.7611 240.756 23.6172 240.357 22.7356C239.958 21.8331 239.454 21.3818 238.846 21.3818C238.174 21.3818 237.628 21.8226 237.209 22.7041C236.789 23.5647 236.579 24.6982 236.579 26.1045C236.579 27.5318 236.768 28.6652 237.146 29.5048C237.544 30.3444 238.069 30.7642 238.72 30.7642C239.37 30.7642 239.906 30.3444 240.326 29.5048C240.745 28.6442 240.955 27.5318 240.955 26.1674ZM253.29 28.3084C252.996 29.2319 252.482 29.9875 251.747 30.5753C251.033 31.163 250.267 31.4568 249.449 31.4568C248.525 31.4568 247.843 31.163 247.402 30.5753C246.961 29.9875 246.741 29.085 246.741 27.8676V22.7356C246.741 22.4418 246.605 22.2948 246.332 22.2948H245.356L245.261 21.9485C245.681 21.5917 246.206 21.2978 246.835 21.0669C247.465 20.8361 248.084 20.7206 248.693 20.7206C248.966 20.7206 249.176 20.7836 249.323 20.9095C249.491 21.0355 249.575 21.2034 249.575 21.4133V27.7102C249.575 28.4238 249.68 28.98 249.889 29.3788C250.099 29.7567 250.393 29.9456 250.771 29.9456C251.548 29.9456 252.167 29.4733 252.629 28.5288C253.111 27.5632 253.353 26.3144 253.353 24.7821C253.353 23.9635 253.29 23.3338 253.164 22.893C253.059 22.4313 252.859 22.0325 252.566 21.6966L252.282 21.3503L252.534 21.0669L256.155 20.7836V29.3788C256.155 30.0085 256.344 30.3234 256.722 30.3234C257.12 30.3234 257.509 30.166 257.886 29.8511L258.138 30.166C257.404 31.0265 256.491 31.4568 255.399 31.4568C254.602 31.4568 254.045 31.2259 253.731 30.7642C253.437 30.3024 253.29 29.4838 253.29 28.3084ZM265.937 20.7206C266.609 20.7206 267.155 20.92 267.575 21.3188C267.994 21.6966 268.204 22.1899 268.204 22.7986C268.204 23.3653 268.036 23.8271 267.701 24.1839C267.365 24.5197 266.924 24.6877 266.378 24.6877C265.958 24.6877 265.57 24.6037 265.213 24.4358C265.591 24.1209 265.78 23.6487 265.78 23.019C265.78 22.7251 265.717 22.4942 265.591 22.3263C265.465 22.1584 265.297 22.0744 265.087 22.0744C264.584 22.0744 264.164 22.5887 263.828 23.6172C263.492 24.6247 263.324 25.8841 263.324 27.3953C263.324 28.1719 263.366 28.7911 263.45 29.2529C263.555 29.7147 263.723 30.145 263.954 30.5438L264.206 30.8586L263.954 31.1735H259.389L259.2 30.6382L259.641 30.5438C259.976 30.4598 260.197 30.3339 260.302 30.166C260.407 29.9771 260.459 29.6202 260.459 29.0955V22.956C260.459 22.5572 260.323 22.3578 260.05 22.3578H259.074L258.948 22.0115C259.347 21.6546 259.84 21.3608 260.428 21.1299C261.036 20.899 261.635 20.7836 262.222 20.7836C262.495 20.7836 262.716 20.8465 262.883 20.9725C263.051 21.0984 263.135 21.2663 263.135 21.4762V23.7746H263.23C263.671 21.7386 264.573 20.7206 265.937 20.7206ZM286.949 30.166C286.151 31.0265 285.227 31.4568 284.178 31.4568C283.422 31.4568 282.877 31.2574 282.541 30.8586C282.226 30.4598 282.069 29.7357 282.069 28.6862V22.7356C282.069 22.4418 281.932 22.2948 281.659 22.2948H278.385V29.0955C278.385 29.5992 278.448 29.9456 278.574 30.1345C278.721 30.3024 279.046 30.4388 279.55 30.5438L279.959 30.6382L279.77 31.1735H274.859L274.607 30.8586L274.859 30.5438C275.11 30.2079 275.278 29.8511 275.362 29.4733C275.467 29.0745 275.52 28.5393 275.52 27.8676V22.2948H273.914C273.914 21.938 273.935 21.7071 273.977 21.6022C274.019 21.4972 274.145 21.4133 274.355 21.3503L275.551 21.0669C275.719 19.3038 276.286 17.929 277.251 16.9425C278.217 15.956 279.539 15.4627 281.218 15.4627C282.31 15.4627 283.223 15.6621 283.958 16.0609C284.692 16.4597 285.06 17.0159 285.06 17.7296C285.06 18.2963 284.892 18.7581 284.556 19.1149C284.22 19.4507 283.779 19.6187 283.233 19.6187C282.814 19.6187 282.425 19.5347 282.069 19.3668C282.446 19.0519 282.635 18.5797 282.635 17.95C282.635 17.4462 282.488 17.0369 282.194 16.7221C281.901 16.3862 281.47 16.2183 280.904 16.2183C280.064 16.2183 279.434 16.6486 279.015 17.5092C278.595 18.3488 278.385 19.5347 278.385 21.0669H281.659C282.142 21.0669 282.698 20.9935 283.328 20.8465C283.706 20.7626 283.979 20.7206 284.147 20.7206C284.398 20.7206 284.587 20.7941 284.713 20.941C284.86 21.0879 284.934 21.2768 284.934 21.5077V29.3788C284.934 30.0085 285.133 30.3234 285.532 30.3234C285.847 30.3234 286.235 30.166 286.697 29.8511L286.949 30.166ZM294.47 20.7206C295.142 20.7206 295.688 20.92 296.107 21.3188C296.527 21.6966 296.737 22.1899 296.737 22.7986C296.737 23.3653 296.569 23.8271 296.233 24.1839C295.898 24.5197 295.457 24.6877 294.911 24.6877C294.491 24.6877 294.103 24.6037 293.746 24.4358C294.124 24.1209 294.313 23.6487 294.313 23.019C294.313 22.7251 294.25 22.4942 294.124 22.3263C293.998 22.1584 293.83 22.0744 293.62 22.0744C293.116 22.0744 292.697 22.5887 292.361 23.6172C292.025 24.6247 291.857 25.8841 291.857 27.3953C291.857 28.1719 291.899 28.7911 291.983 29.2529C292.088 29.7147 292.256 30.145 292.487 30.5438L292.739 30.8586L292.487 31.1735H287.921L287.733 30.6382L288.173 30.5438C288.509 30.4598 288.73 30.3339 288.835 30.166C288.939 29.9771 288.992 29.6202 288.992 29.0955V22.956C288.992 22.5572 288.856 22.3578 288.583 22.3578H287.607L287.481 22.0115C287.879 21.6546 288.373 21.3608 288.96 21.1299C289.569 20.899 290.167 20.7836 290.755 20.7836C291.028 20.7836 291.248 20.8465 291.416 20.9725C291.584 21.0984 291.668 21.2663 291.668 21.4762V23.7746H291.763C292.203 21.7386 293.106 20.7206 294.47 20.7206ZM300.716 22.8616C300.716 23.3863 300.916 23.8166 301.314 24.1524C301.734 24.4673 302.364 24.8241 303.204 25.2229C303.896 25.5587 304.431 25.8526 304.809 26.1045C305.187 26.3353 305.512 26.6502 305.785 27.049C306.079 27.4478 306.226 27.9201 306.226 28.4658C306.226 29.3684 305.796 30.0925 304.935 30.6382C304.096 31.184 302.962 31.4568 301.535 31.4568C300.464 31.4568 299.583 31.2679 298.89 30.8901C298.197 30.4913 297.851 29.9771 297.851 29.3474C297.851 28.9276 298.009 28.5812 298.323 28.3084C298.638 28.0145 299.027 27.8676 299.488 27.8676C299.845 27.8676 300.202 27.9411 300.559 28.088C300.202 28.3608 300.024 28.8016 300.024 29.4103C300.024 29.8301 300.17 30.1555 300.464 30.3863C300.758 30.6172 301.115 30.7327 301.535 30.7327C302.018 30.7327 302.427 30.6067 302.763 30.3549C303.12 30.103 303.298 29.7462 303.298 29.2844C303.298 28.8436 303.12 28.4973 302.763 28.2454C302.427 27.9725 301.892 27.6577 301.157 27.3009C300.485 26.986 299.94 26.7027 299.52 26.4508C299.121 26.1779 298.775 25.8211 298.481 25.3803C298.187 24.9395 298.04 24.4043 298.04 23.7746C298.04 22.8301 298.439 22.0849 299.236 21.5392C300.034 20.9935 301.042 20.7206 302.259 20.7206C303.329 20.7206 304.201 20.92 304.872 21.3188C305.565 21.7176 305.911 22.2319 305.911 22.8616C305.911 23.3443 305.764 23.7011 305.47 23.932C305.177 24.1629 304.799 24.2784 304.337 24.2784C303.896 24.2784 303.508 24.1839 303.172 23.995C303.55 23.6382 303.739 23.1869 303.739 22.6412C303.739 22.2843 303.602 22.001 303.329 21.7911C303.057 21.5602 302.7 21.4448 302.259 21.4448C301.776 21.4448 301.398 21.5812 301.126 21.8541C300.853 22.1269 300.716 22.4628 300.716 22.8616ZM311.394 31.4568C310.534 31.4568 309.914 31.2679 309.537 30.8901C309.159 30.4913 308.97 29.8511 308.97 28.9695V22.2948H307.396C307.396 21.938 307.417 21.7071 307.459 21.6022C307.501 21.4972 307.627 21.4133 307.836 21.3503C308.529 21.1614 309.075 20.8675 309.474 20.4687C309.872 20.0699 310.198 19.4927 310.45 18.7371C310.513 18.5062 310.618 18.3698 310.764 18.3278C310.911 18.2648 311.268 18.2333 311.835 18.2333V21.0669H314.417C314.417 21.3398 314.375 21.5917 314.291 21.8226C314.207 22.0325 314.091 22.1899 313.944 22.2948H311.835V29.3788C311.835 30.0085 312.097 30.3234 312.622 30.3234C312.853 30.3234 313.105 30.2499 313.378 30.103C313.672 29.9561 313.934 29.7567 314.165 29.5048L314.417 29.8196C313.514 30.9111 312.507 31.4568 311.394 31.4568ZM23.3008 49.7206C23.9725 49.7206 24.5182 49.92 24.938 50.3188C25.3578 50.6966 25.5677 51.1899 25.5677 51.7986C25.5677 52.3653 25.3998 52.8271 25.0639 53.1839C24.7281 53.5197 24.2873 53.6877 23.7416 53.6877C23.3218 53.6877 22.9335 53.6037 22.5767 53.4358C22.9545 53.1209 23.1434 52.6487 23.1434 52.019C23.1434 51.7251 23.0804 51.4942 22.9545 51.3263C22.8285 51.1584 22.6606 51.0744 22.4507 51.0744C21.947 51.0744 21.5272 51.5887 21.1913 52.6172C20.8555 53.6247 20.6876 54.8841 20.6876 56.3953C20.6876 57.1719 20.7296 57.7911 20.8135 58.2529C20.9185 58.7147 21.0864 59.145 21.3173 59.5438L21.5692 59.8586L21.3173 60.1735H16.752L16.5631 59.6382L17.0039 59.5438C17.3397 59.4598 17.5601 59.3339 17.6651 59.166C17.77 58.9771 17.8225 58.6202 17.8225 58.0955V51.956C17.8225 51.5572 17.6861 51.3578 17.4132 51.3578H16.4372L16.3112 51.0115C16.7101 50.6546 17.2033 50.3608 17.791 50.1299C18.3997 49.899 18.9979 49.7836 19.5856 49.7836C19.8585 49.7836 20.0789 49.8465 20.2468 49.9725C20.4147 50.0984 20.4987 50.2663 20.4987 50.4762V52.7746H20.5931C21.0339 50.7386 21.9365 49.7206 23.3008 49.7206ZM32.4434 59.4178C33.0521 59.4178 33.5873 59.3129 34.0491 59.103C34.5108 58.8721 34.9621 58.4943 35.4029 57.9695L35.7807 58.2529C35.298 58.9456 34.6788 59.4913 33.9231 59.8901C33.1885 60.2679 32.3804 60.4568 31.4988 60.4568C30.5333 60.4568 29.6622 60.2259 28.8856 59.7642C28.13 59.3024 27.5318 58.6727 27.091 57.8751C26.6502 57.0565 26.4298 56.133 26.4298 55.1045C26.4298 53.4673 26.9231 52.1659 27.9096 51.2004C28.9171 50.2139 30.2499 49.7206 31.9081 49.7206C33.0835 49.7206 34.0386 50.004 34.7732 50.5707C35.5288 51.1164 35.9067 51.8301 35.9067 52.7116C35.9067 53.7191 35.4764 54.5272 34.6158 55.1359C33.7762 55.7237 32.6218 56.0175 31.1525 56.0175C30.5648 56.0175 30.0296 55.9755 29.5468 55.8916C29.6517 56.983 29.9666 57.8436 30.4913 58.4733C31.0161 59.103 31.6667 59.4178 32.4434 59.4178ZM31.5618 50.4762C30.9111 50.4762 30.3969 50.875 30.0191 51.6726C29.6622 52.4493 29.4838 53.5407 29.4838 54.947V55.4508C29.7147 55.4508 29.9981 55.4298 30.3339 55.3878C31.2155 55.2829 31.8871 54.9995 32.3489 54.5377C32.8317 54.055 33.0731 53.4253 33.0731 52.6487C33.0731 52.019 32.9261 51.5047 32.6323 51.1059C32.3594 50.6861 32.0026 50.4762 31.5618 50.4762ZM40.4003 51.8616C40.4003 52.3863 40.5997 52.8166 40.9985 53.1524C41.4183 53.4673 42.048 53.8241 42.8876 54.2229C43.5803 54.5587 44.1155 54.8526 44.4933 55.1045C44.8711 55.3353 45.1965 55.6502 45.4693 56.049C45.7632 56.4478 45.9101 56.9201 45.9101 57.4658C45.9101 58.3684 45.4798 59.0925 44.6193 59.6382C43.7797 60.184 42.6462 60.4568 41.2189 60.4568C40.1485 60.4568 39.2669 60.2679 38.5742 59.8901C37.8816 59.4913 37.5352 58.9771 37.5352 58.3474C37.5352 57.9276 37.6927 57.5812 38.0075 57.3084C38.3224 57.0145 38.7107 56.8676 39.1724 56.8676C39.5293 56.8676 39.8861 56.9411 40.2429 57.088C39.8861 57.3608 39.7077 57.8016 39.7077 58.4103C39.7077 58.8301 39.8546 59.1555 40.1485 59.3863C40.4423 59.6172 40.7991 59.7327 41.2189 59.7327C41.7017 59.7327 42.111 59.6067 42.4468 59.3549C42.8036 59.103 42.9821 58.7462 42.9821 58.2844C42.9821 57.8436 42.8036 57.4973 42.4468 57.2454C42.111 56.9725 41.5758 56.6577 40.8411 56.3009C40.1694 55.986 39.6237 55.7027 39.2039 55.4508C38.8051 55.1779 38.4588 54.8211 38.1649 54.3803C37.8711 53.9395 37.7241 53.4043 37.7241 52.7746C37.7241 51.8301 38.123 51.0849 38.9206 50.5392C39.7182 49.9935 40.7257 49.7206 41.9431 49.7206C43.0135 49.7206 43.8846 49.92 44.5563 50.3188C45.2489 50.7176 45.5953 51.2319 45.5953 51.8616C45.5953 52.3443 45.4483 52.7011 45.1545 52.932C44.8606 53.1629 44.4828 53.2784 44.021 53.2784C43.5803 53.2784 43.192 53.1839 42.8561 52.995C43.2339 52.6382 43.4228 52.1869 43.4228 51.6412C43.4228 51.2843 43.2864 51.001 43.0135 50.7911C42.7407 50.5602 42.3839 50.4448 41.9431 50.4448C41.4603 50.4448 41.0825 50.5812 40.8096 50.8541C40.5368 51.1269 40.4003 51.4628 40.4003 51.8616ZM53.597 59.4178C54.2057 59.4178 54.7409 59.3129 55.2027 59.103C55.6645 58.8721 56.1158 58.4943 56.5566 57.9695L56.9344 58.2529C56.4516 58.9456 55.8324 59.4913 55.0768 59.8901C54.3421 60.2679 53.534 60.4568 52.6525 60.4568C51.6869 60.4568 50.8159 60.2259 50.0393 59.7642C49.2836 59.3024 48.6854 58.6727 48.2446 57.8751C47.8039 57.0565 47.5835 56.133 47.5835 55.1045C47.5835 53.4673 48.0767 52.1659 49.0632 51.2004C50.0707 50.2139 51.4036 49.7206 53.0618 49.7206C54.2372 49.7206 55.1922 50.004 55.9269 50.5707C56.6825 51.1164 57.0603 51.8301 57.0603 52.7116C57.0603 53.7191 56.63 54.5272 55.7694 55.1359C54.9299 55.7237 53.7754 56.0175 52.3061 56.0175C51.7184 56.0175 51.1832 55.9755 50.7004 55.8916C50.8054 56.983 51.1202 57.8436 51.645 58.4733C52.1697 59.103 52.8204 59.4178 53.597 59.4178ZM52.7154 50.4762C52.0648 50.4762 51.5505 50.875 51.1727 51.6726C50.8159 52.4493 50.6375 53.5407 50.6375 54.947V55.4508C50.8684 55.4508 51.1517 55.4298 51.4875 55.3878C52.3691 55.2829 53.0408 54.9995 53.5026 54.5377C53.9853 54.055 54.2267 53.4253 54.2267 52.6487C54.2267 52.019 54.0798 51.5047 53.7859 51.1059C53.513 50.6861 53.1562 50.4762 52.7154 50.4762ZM65.3006 49.7206C65.9723 49.7206 66.518 49.92 66.9378 50.3188C67.3576 50.6966 67.5675 51.1899 67.5675 51.7986C67.5675 52.3653 67.3996 52.8271 67.0638 53.1839C66.7279 53.5197 66.2871 53.6877 65.7414 53.6877C65.3216 53.6877 64.9333 53.6037 64.5765 53.4358C64.9543 53.1209 65.1432 52.6487 65.1432 52.019C65.1432 51.7251 65.0802 51.4942 64.9543 51.3263C64.8284 51.1584 64.6604 51.0744 64.4506 51.0744C63.9468 51.0744 63.527 51.5887 63.1912 52.6172C62.8553 53.6247 62.6874 54.8841 62.6874 56.3953C62.6874 57.1719 62.7294 57.7911 62.8134 58.2529C62.9183 58.7147 63.0862 59.145 63.3171 59.5438L63.569 59.8586L63.3171 60.1735H58.7519L58.5629 59.6382L59.0037 59.5438C59.3396 59.4598 59.56 59.3339 59.6649 59.166C59.7699 58.9771 59.8223 58.6202 59.8223 58.0955V51.956C59.8223 51.5572 59.6859 51.3578 59.413 51.3578H58.437L58.3111 51.0115C58.7099 50.6546 59.2031 50.3608 59.7908 50.1299C60.3995 49.899 60.9978 49.7836 61.5855 49.7836C61.8583 49.7836 62.0787 49.8465 62.2466 49.9725C62.4146 50.0984 62.4985 50.2663 62.4985 50.4762V52.7746H62.593C63.0337 50.7386 63.9363 49.7206 65.3006 49.7206ZM74.1598 59.4493C74.8315 59.4493 75.3562 59.019 75.7341 58.1585C76.1329 57.2769 76.3323 56.1749 76.3323 54.8526C76.3323 53.0685 75.9544 51.6622 75.1988 50.6337L74.9155 50.2873L75.1673 50.0355L77.812 49.7206C77.875 50.6232 77.9065 51.3473 77.9065 51.893C77.9065 54.5797 77.4972 56.6787 76.6786 58.1899C75.86 59.7012 74.758 60.4568 73.3727 60.4568C72.2813 60.4568 71.4522 60.1315 70.8854 59.4808C70.3397 58.8301 69.9514 57.7597 69.7205 56.2694L69.0593 51.7356C69.0383 51.5677 68.9964 51.4523 68.9334 51.3893C68.8704 51.3263 68.776 51.2948 68.65 51.2948H67.8L67.7055 50.9485C68.1253 50.5707 68.6291 50.2768 69.2168 50.0669C69.8045 49.8361 70.3817 49.7206 70.9484 49.7206C71.2633 49.7206 71.4836 49.8151 71.6096 50.004C71.7565 50.1929 71.872 50.5707 71.9559 51.1374L72.7745 56.7731C72.9214 57.8016 73.0894 58.5048 73.2783 58.8826C73.4672 59.2604 73.761 59.4493 74.1598 59.4493ZM83.5188 53.2154C83.0781 53.4673 82.5533 53.5932 81.9446 53.5932C81.5038 53.5932 81.1575 53.4673 80.9056 53.2154C80.6538 52.9425 80.5278 52.5647 80.5278 52.0819C80.5278 51.3683 80.8741 50.8016 81.5668 50.3818C82.2805 49.941 83.204 49.7206 84.3374 49.7206C85.6808 49.7206 86.7303 50.0145 87.4859 50.6022C88.2625 51.1899 88.6508 51.9875 88.6508 52.995V58.4418C88.6508 59.0295 88.8607 59.3234 89.2805 59.3234C89.6793 59.3234 90.0676 59.166 90.4454 58.8511L90.6973 59.166C89.9207 60.0265 88.9971 60.4568 87.9267 60.4568C87.297 60.4568 86.8142 60.2994 86.4784 59.9846C86.1635 59.6697 85.9746 59.1765 85.9117 58.5048H85.7857C85.4499 59.1135 84.9986 59.5962 84.4319 59.9531C83.8862 60.2889 83.2565 60.4568 82.5428 60.4568C81.7452 60.4568 81.105 60.2154 80.6223 59.7327C80.1395 59.2289 79.8981 58.5782 79.8981 57.7806C79.8981 56.8781 80.3284 56.1644 81.189 55.6397C82.0496 55.115 83.2145 54.8526 84.6838 54.8526C84.9566 54.8526 85.3449 54.8736 85.8487 54.9156V53.3413C85.8487 52.3128 85.7228 51.5782 85.4709 51.1374C85.219 50.6756 84.8097 50.4448 84.243 50.4448C83.8442 50.4448 83.5293 50.5707 83.2984 50.8226C83.0676 51.0744 82.9521 51.3998 82.9521 51.7986C82.9521 52.4283 83.141 52.9005 83.5188 53.2154ZM83.9911 58.8826C85.2295 58.8826 85.8487 57.7597 85.8487 55.5138C84.7992 55.5138 84.0121 55.6922 83.4874 56.049C82.9626 56.3848 82.7002 56.8676 82.7002 57.4973C82.7002 57.9171 82.8157 58.2529 83.0466 58.5048C83.2775 58.7567 83.5923 58.8826 83.9911 58.8826ZM94.8921 60.4568C94.0315 60.4568 93.4123 60.2679 93.0345 59.8901C92.6567 59.4913 92.4678 58.8511 92.4678 57.9695V51.2948H90.8936C90.8936 50.938 90.9146 50.7071 90.9566 50.6022C90.9985 50.4972 91.1245 50.4133 91.3344 50.3503C92.027 50.1614 92.5728 49.8675 92.9716 49.4687C93.3704 49.0699 93.6957 48.4927 93.9476 47.7371C94.0106 47.5062 94.1155 47.3698 94.2624 47.3278C94.4094 47.2648 94.7662 47.2333 95.3329 47.2333V50.0669H97.9146C97.9146 50.3398 97.8726 50.5917 97.7887 50.8226C97.7047 51.0325 97.5893 51.1899 97.4424 51.2948H95.3329V58.3788C95.3329 59.0085 95.5953 59.3234 96.12 59.3234C96.3509 59.3234 96.6028 59.2499 96.8756 59.103C97.1695 58.9561 97.4319 58.7567 97.6628 58.5048L97.9146 58.8196C97.0121 59.9111 96.0046 60.4568 94.8921 60.4568ZM102.836 58.3788C102.836 59.0085 103.035 59.3234 103.434 59.3234C103.833 59.3234 104.221 59.166 104.599 58.8511L104.851 59.166C104.074 60.0265 103.161 60.4568 102.112 60.4568C101.356 60.4568 100.81 60.2679 100.474 59.8901C100.139 59.4913 99.9707 58.8511 99.9707 57.9695V51.7356C99.9707 51.4418 99.8343 51.2948 99.5614 51.2948H98.5854L98.4909 50.9485C98.9107 50.5917 99.4355 50.2978 100.065 50.0669C100.695 49.8361 101.325 49.7206 101.954 49.7206C102.206 49.7206 102.416 49.7836 102.584 49.9095C102.752 50.0355 102.836 50.2034 102.836 50.4133V58.3788ZM99.6559 46.6981C99.6559 46.3203 99.8658 45.9005 100.286 45.4387C100.705 44.9769 101.094 44.7461 101.45 44.7461C101.828 44.7461 102.227 44.9769 102.647 45.4387C103.088 45.9005 103.308 46.3203 103.308 46.6981C103.308 47.0969 103.088 47.5272 102.647 47.989C102.227 48.4297 101.828 48.6501 101.45 48.6501C101.094 48.6501 100.705 48.4297 100.286 47.989C99.8658 47.5272 99.6559 47.0969 99.6559 46.6981ZM105.541 55.1045C105.541 53.4463 106.013 52.1344 106.958 51.1689C107.923 50.2034 109.224 49.7206 110.862 49.7206C112.499 49.7206 113.8 50.2139 114.766 51.2004C115.731 52.1659 116.214 53.4673 116.214 55.1045C116.214 56.7417 115.731 58.043 114.766 59.0085C113.8 59.9741 112.499 60.4568 110.862 60.4568C109.224 60.4568 107.923 59.9741 106.958 59.0085C106.013 58.043 105.541 56.7417 105.541 55.1045ZM113.034 55.1674C113.034 53.7611 112.835 52.6172 112.436 51.7356C112.037 50.8331 111.533 50.3818 110.925 50.3818C110.253 50.3818 109.707 50.8226 109.287 51.7041C108.868 52.5647 108.658 53.6982 108.658 55.1045C108.658 56.5318 108.847 57.6652 109.224 58.5048C109.623 59.3444 110.148 59.7642 110.799 59.7642C111.449 59.7642 111.985 59.3444 112.404 58.5048C112.824 57.6442 113.034 56.5318 113.034 55.1674ZM128.612 58.3788C128.612 59.0085 128.811 59.3234 129.21 59.3234C129.609 59.3234 129.997 59.166 130.375 58.8511L130.627 59.166C129.85 60.0265 128.937 60.4568 127.887 60.4568C127.132 60.4568 126.586 60.2679 126.25 59.8901C125.935 59.4913 125.778 58.8511 125.778 57.9695V53.1524C125.778 51.935 125.39 51.3263 124.613 51.3263C123.857 51.3263 123.238 51.8406 122.755 52.8691C122.294 53.8976 122.063 55.2409 122.063 56.8991C122.063 57.5288 122.115 58.043 122.22 58.4418C122.325 58.8196 122.493 59.1869 122.724 59.5438L122.976 59.8586L122.724 60.1735H118.159L117.97 59.6382L118.411 59.5438C118.746 59.4598 118.967 59.3339 119.072 59.166C119.177 58.9771 119.229 58.6202 119.229 58.0955V51.956C119.229 51.5572 119.093 51.3578 118.82 51.3578H117.812L117.718 51.0115C118.138 50.6546 118.662 50.3608 119.292 50.1299C119.922 49.899 120.551 49.7836 121.181 49.7836C121.454 49.7836 121.664 49.8465 121.811 49.9725C121.979 50.0984 122.063 50.2663 122.063 50.4762V53.1839C122.357 52.1974 122.881 51.3788 123.637 50.7281C124.393 50.0564 125.19 49.7206 126.03 49.7206C126.932 49.7206 127.583 50.0145 127.982 50.6022C128.402 51.1899 128.612 52.1239 128.612 53.4043V58.3788ZM140.461 53.2154C140.021 53.4673 139.496 53.5932 138.887 53.5932C138.446 53.5932 138.1 53.4673 137.848 53.2154C137.596 52.9425 137.47 52.5647 137.47 52.0819C137.47 51.3683 137.817 50.8016 138.509 50.3818C139.223 49.941 140.147 49.7206 141.28 49.7206C142.623 49.7206 143.673 50.0145 144.429 50.6022C145.205 51.1899 145.593 51.9875 145.593 52.995V58.4418C145.593 59.0295 145.803 59.3234 146.223 59.3234C146.622 59.3234 147.01 59.166 147.388 58.8511L147.64 59.166C146.863 60.0265 145.94 60.4568 144.869 60.4568C144.24 60.4568 143.757 60.2994 143.421 59.9846C143.106 59.6697 142.917 59.1765 142.854 58.5048H142.728C142.393 59.1135 141.941 59.5962 141.375 59.9531C140.829 60.2889 140.199 60.4568 139.485 60.4568C138.688 60.4568 138.048 60.2154 137.565 59.7327C137.082 59.2289 136.841 58.5782 136.841 57.7806C136.841 56.8781 137.271 56.1644 138.132 55.6397C138.992 55.115 140.157 54.8526 141.626 54.8526C141.899 54.8526 142.288 54.8736 142.791 54.9156V53.3413C142.791 52.3128 142.665 51.5782 142.414 51.1374C142.162 50.6756 141.752 50.4448 141.186 50.4448C140.787 50.4448 140.472 50.5707 140.241 50.8226C140.01 51.0744 139.895 51.3998 139.895 51.7986C139.895 52.4283 140.084 52.9005 140.461 53.2154ZM140.934 58.8826C142.172 58.8826 142.791 57.7597 142.791 55.5138C141.742 55.5138 140.955 55.6922 140.43 56.049C139.905 56.3848 139.643 56.8676 139.643 57.4973C139.643 57.9171 139.758 58.2529 139.989 58.5048C140.22 58.7567 140.535 58.8826 140.934 58.8826ZM151.835 60.4568C150.974 60.4568 150.355 60.2679 149.977 59.8901C149.599 59.4913 149.41 58.8511 149.41 57.9695V51.2948H147.836C147.836 50.938 147.857 50.7071 147.899 50.6022C147.941 50.4972 148.067 50.4133 148.277 50.3503C148.97 50.1614 149.515 49.8675 149.914 49.4687C150.313 49.0699 150.638 48.4927 150.89 47.7371C150.953 47.5062 151.058 47.3698 151.205 47.3278C151.352 47.2648 151.709 47.2333 152.276 47.2333V50.0669H154.857C154.857 50.3398 154.815 50.5917 154.731 50.8226C154.647 51.0325 154.532 51.1899 154.385 51.2948H152.276V58.3788C152.276 59.0085 152.538 59.3234 153.063 59.3234C153.294 59.3234 153.545 59.2499 153.818 59.103C154.112 58.9561 154.375 58.7567 154.605 58.5048L154.857 58.8196C153.955 59.9111 152.947 60.4568 151.835 60.4568ZM182.604 45.8165C182.079 46.2153 181.691 46.5931 181.439 46.95C181.187 47.2858 180.956 47.7371 180.746 48.3038L176.779 60.1735H174.071L171.395 51.3263L168.751 60.1735H166.011L161.981 48.3038C161.771 47.7161 161.541 47.2648 161.289 46.95C161.058 46.6141 160.68 46.2363 160.155 45.8165L160.407 45.4702H166.137L166.326 46.0369L165.885 46.1629C165.571 46.2678 165.34 46.4042 165.193 46.5722C165.067 46.7191 165.004 46.929 165.004 47.2018C165.004 47.4117 165.077 47.7476 165.224 48.2094L168.373 57.5917L170.797 49.4058L170.451 48.3038C170.241 47.7161 170.01 47.2648 169.758 46.95C169.527 46.6141 169.149 46.2363 168.625 45.8165L168.877 45.4702H174.607L174.827 46.0369L174.355 46.1629C174.019 46.2468 173.788 46.3728 173.662 46.5407C173.536 46.6876 173.473 46.908 173.473 47.2018C173.473 47.4117 173.547 47.7476 173.694 48.2094L176.464 57.6232L179.581 48.2723C179.728 47.8105 179.802 47.4642 179.802 47.2333C179.802 46.9815 179.728 46.7821 179.581 46.6351C179.455 46.4672 179.235 46.3413 178.92 46.2573L178.353 46.0369L178.542 45.4702H182.352L182.604 45.8165ZM183.176 55.1045C183.176 53.4463 183.648 52.1344 184.593 51.1689C185.558 50.2034 186.86 49.7206 188.497 49.7206C190.134 49.7206 191.435 50.2139 192.401 51.2004C193.366 52.1659 193.849 53.4673 193.849 55.1045C193.849 56.7417 193.366 58.043 192.401 59.0085C191.435 59.9741 190.134 60.4568 188.497 60.4568C186.86 60.4568 185.558 59.9741 184.593 59.0085C183.648 58.043 183.176 56.7417 183.176 55.1045ZM190.669 55.1674C190.669 53.7611 190.47 52.6172 190.071 51.7356C189.672 50.8331 189.168 50.3818 188.56 50.3818C187.888 50.3818 187.342 50.8226 186.923 51.7041C186.503 52.5647 186.293 53.6982 186.293 55.1045C186.293 56.5318 186.482 57.6652 186.86 58.5048C187.258 59.3444 187.783 59.7642 188.434 59.7642C189.084 59.7642 189.62 59.3444 190.04 58.5048C190.459 57.6442 190.669 56.5318 190.669 55.1674ZM200.076 60.4568C199.068 60.4568 198.281 60.1315 197.714 59.4808C197.169 58.8091 196.791 57.7387 196.581 56.2694L195.92 51.7356C195.899 51.5677 195.857 51.4523 195.794 51.3893C195.731 51.3263 195.636 51.2948 195.51 51.2948H194.66L194.566 50.9485C194.986 50.5707 195.489 50.2768 196.077 50.0669C196.665 49.8361 197.242 49.7206 197.809 49.7206C198.124 49.7206 198.344 49.8151 198.47 50.004C198.617 50.1929 198.732 50.5602 198.816 51.1059L199.635 56.7731C199.782 57.8016 199.95 58.5048 200.139 58.8826C200.328 59.2604 200.611 59.4493 200.989 59.4493C201.576 59.4493 202.038 59.0925 202.374 58.3788C202.731 57.6442 202.909 56.6787 202.909 55.4823C202.909 54.2649 202.752 53.016 202.437 51.7356C202.395 51.5677 202.353 51.4523 202.311 51.3893C202.269 51.3263 202.175 51.2948 202.028 51.2948H201.209L201.115 50.9485C201.513 50.5707 202.007 50.2768 202.594 50.0669C203.182 49.8361 203.77 49.7206 204.358 49.7206C204.651 49.7206 204.872 49.8256 205.019 50.0355C205.166 50.2244 205.271 50.5812 205.334 51.1059L206.121 56.6157C206.289 57.7492 206.467 58.5048 206.656 58.8826C206.866 59.2604 207.118 59.4493 207.412 59.4493C207.978 59.4493 208.43 59.0295 208.765 58.1899C209.122 57.3294 209.301 56.2169 209.301 54.8526C209.301 53.929 209.206 53.1314 209.017 52.4598C208.849 51.7671 208.566 51.1584 208.167 50.6337L207.915 50.2873L208.136 50.0355L210.78 49.7206C210.843 50.5392 210.875 51.2633 210.875 51.893C210.875 54.5797 210.487 56.6787 209.71 58.1899C208.954 59.7012 207.863 60.4568 206.436 60.4568C205.575 60.4568 204.924 60.2364 204.484 59.7956C204.043 59.3549 203.675 58.5468 203.382 57.3713C202.962 59.4283 201.86 60.4568 200.076 60.4568ZM224.968 60.4568C222.722 60.4568 221.001 59.7432 219.804 58.3159C218.629 56.8886 218.041 55.0625 218.041 52.8376C218.041 50.6127 218.639 48.7866 219.836 47.3593C221.032 45.911 222.764 45.1868 225.031 45.1868C226.479 45.1868 227.654 45.4702 228.557 46.0369C229.48 46.5827 229.942 47.3068 229.942 48.2094C229.942 49.0909 229.575 49.7836 228.84 50.2873C228.106 50.7911 227.182 51.043 226.07 51.043C226.699 50.3713 227.014 49.4582 227.014 48.3038C227.014 47.6321 226.804 47.0759 226.384 46.6351C225.986 46.1734 225.461 45.9425 224.81 45.9425C223.614 45.9425 222.732 46.6246 222.165 47.989C221.62 49.3533 221.347 50.9695 221.347 52.8376C221.347 54.034 221.515 55.1254 221.851 56.112C222.207 57.0985 222.711 57.8856 223.362 58.4733C224.034 59.04 224.8 59.3234 225.66 59.3234C226.647 59.3234 227.465 59.124 228.116 58.7252C228.788 58.3054 229.396 57.7282 229.942 56.9935L230.32 57.2769C229.753 58.2214 229.019 58.9875 228.116 59.5753C227.234 60.163 226.185 60.4568 224.968 60.4568ZM231.171 55.1045C231.171 53.4463 231.644 52.1344 232.588 51.1689C233.554 50.2034 234.855 49.7206 236.492 49.7206C238.129 49.7206 239.431 50.2139 240.396 51.2004C241.362 52.1659 241.845 53.4673 241.845 55.1045C241.845 56.7417 241.362 58.043 240.396 59.0085C239.431 59.9741 238.129 60.4568 236.492 60.4568C234.855 60.4568 233.554 59.9741 232.588 59.0085C231.644 58.043 231.171 56.7417 231.171 55.1045ZM238.665 55.1674C238.665 53.7611 238.465 52.6172 238.066 51.7356C237.668 50.8331 237.164 50.3818 236.555 50.3818C235.883 50.3818 235.338 50.8226 234.918 51.7041C234.498 52.5647 234.288 53.6982 234.288 55.1045C234.288 56.5318 234.477 57.6652 234.855 58.5048C235.254 59.3444 235.779 59.7642 236.429 59.7642C237.08 59.7642 237.615 59.3444 238.035 58.5048C238.455 57.6442 238.665 56.5318 238.665 55.1674ZM252.573 52.4912C252.573 53.1839 252.363 53.7296 251.944 54.1284C251.524 54.5272 251.01 54.7266 250.401 54.7266C249.918 54.7266 249.477 54.6007 249.079 54.3488C249.54 53.929 249.771 53.3413 249.771 52.5857C249.771 51.977 249.645 51.4837 249.393 51.1059C249.142 50.7071 248.774 50.5077 248.291 50.5077C247.746 50.5077 247.294 50.938 246.938 51.7986C246.602 52.6382 246.434 53.7401 246.434 55.1045C246.434 56.4058 246.675 57.4553 247.158 58.2529C247.662 59.0295 248.365 59.4178 249.267 59.4178C249.897 59.4178 250.432 59.3024 250.873 59.0715C251.335 58.8406 251.765 58.5048 252.164 58.064L252.542 58.3159C252.101 58.9456 251.524 59.4598 250.81 59.8586C250.097 60.2574 249.267 60.4568 248.323 60.4568C246.854 60.4568 245.647 59.9636 244.702 58.9771C243.758 57.9905 243.285 56.7207 243.285 55.1674C243.285 53.5092 243.779 52.1869 244.765 51.2004C245.752 50.2139 247.064 49.7206 248.701 49.7206C249.855 49.7206 250.789 49.983 251.503 50.5077C252.217 51.0115 252.573 51.6726 252.573 52.4912ZM265.574 59.2289C264.84 60.0475 263.927 60.4568 262.835 60.4568C262.164 60.4568 261.628 60.3099 261.23 60.016C260.852 59.7222 260.558 59.2289 260.348 58.5363L259.372 55.7656C259.246 55.4088 259.078 55.1359 258.868 54.947C258.679 54.7581 258.417 54.6217 258.081 54.5377V56.8991C258.081 57.5498 258.123 58.064 258.207 58.4418C258.312 58.8196 258.48 59.1869 258.711 59.5438L258.963 59.8586L258.711 60.1735H254.146L253.957 59.6382L254.397 59.5438C254.733 59.4598 254.954 59.3339 255.059 59.166C255.164 58.9771 255.216 58.6202 255.216 58.0955V46.7296C255.216 46.4357 255.08 46.2888 254.807 46.2888H253.831L253.705 45.974C254.104 45.5961 254.618 45.3023 255.248 45.0924C255.898 44.8615 256.538 44.7461 257.168 44.7461C257.441 44.7461 257.661 44.809 257.829 44.935C257.997 45.0399 258.081 45.1973 258.081 45.4072V53.9395L259.97 52.5542C260.411 52.2394 260.715 51.9875 260.883 51.7986C261.051 51.6097 261.135 51.4103 261.135 51.2004C261.135 50.9065 261.009 50.6546 260.757 50.4448L260.505 50.2558L260.757 49.941H264.567L264.756 50.4762C264.231 50.6022 263.643 50.896 262.993 51.3578L259.278 54.0655C260.201 54.1704 260.915 54.3908 261.419 54.7266C261.922 55.0625 262.29 55.5452 262.52 56.1749L263.402 58.6937C263.549 59.1555 263.843 59.3863 264.284 59.3863C264.598 59.3863 264.945 59.2289 265.323 58.9141L265.574 59.2289ZM269.379 60.4568C268.518 60.4568 267.899 60.2679 267.521 59.8901C267.144 59.4913 266.955 58.8511 266.955 57.9695V51.2948H265.38C265.38 50.938 265.401 50.7071 265.443 50.6022C265.485 50.4972 265.611 50.4133 265.821 50.3503C266.514 50.1614 267.06 49.8675 267.458 49.4687C267.857 49.0699 268.183 48.4927 268.434 47.7371C268.497 47.5062 268.602 47.3698 268.749 47.3278C268.896 47.2648 269.253 47.2333 269.82 47.2333V50.0669H272.401C272.401 50.3398 272.359 50.5917 272.276 50.8226C272.192 51.0325 272.076 51.1899 271.929 51.2948H269.82V58.3788C269.82 59.0085 270.082 59.3234 270.607 59.3234C270.838 59.3234 271.09 59.2499 271.362 59.103C271.656 58.9561 271.919 58.7567 272.15 58.5048L272.401 58.8196C271.499 59.9111 270.491 60.4568 269.379 60.4568ZM276.976 53.2154C276.536 53.4673 276.011 53.5932 275.402 53.5932C274.961 53.5932 274.615 53.4673 274.363 53.2154C274.111 52.9425 273.985 52.5647 273.985 52.0819C273.985 51.3683 274.332 50.8016 275.024 50.3818C275.738 49.941 276.661 49.7206 277.795 49.7206C279.138 49.7206 280.188 50.0145 280.943 50.6022C281.72 51.1899 282.108 51.9875 282.108 52.995V58.4418C282.108 59.0295 282.318 59.3234 282.738 59.3234C283.137 59.3234 283.525 59.166 283.903 58.8511L284.155 59.166C283.378 60.0265 282.455 60.4568 281.384 60.4568C280.754 60.4568 280.272 60.2994 279.936 59.9846C279.621 59.6697 279.432 59.1765 279.369 58.5048H279.243C278.907 59.1135 278.456 59.5962 277.889 59.9531C277.344 60.2889 276.714 60.4568 276 60.4568C275.203 60.4568 274.562 60.2154 274.08 59.7327C273.597 59.2289 273.356 58.5782 273.356 57.7806C273.356 56.8781 273.786 56.1644 274.646 55.6397C275.507 55.115 276.672 54.8526 278.141 54.8526C278.414 54.8526 278.802 54.8736 279.306 54.9156V53.3413C279.306 52.3128 279.18 51.5782 278.928 51.1374C278.676 50.6756 278.267 50.4448 277.7 50.4448C277.302 50.4448 276.987 50.5707 276.756 50.8226C276.525 51.0744 276.41 51.3998 276.41 51.7986C276.41 52.4283 276.598 52.9005 276.976 53.2154ZM277.449 58.8826C278.687 58.8826 279.306 57.7597 279.306 55.5138C278.257 55.5138 277.47 55.6922 276.945 56.049C276.42 56.3848 276.158 56.8676 276.158 57.4973C276.158 57.9171 276.273 58.2529 276.504 58.5048C276.735 58.7567 277.05 58.8826 277.449 58.8826ZM288.822 58.3788C288.822 59.0085 289.021 59.3234 289.42 59.3234C289.819 59.3234 290.207 59.166 290.585 58.8511L290.837 59.166C290.06 60.0265 289.147 60.4568 288.098 60.4568C287.342 60.4568 286.796 60.2679 286.46 59.8901C286.125 59.4913 285.957 58.8511 285.957 57.9695V51.7356C285.957 51.4418 285.82 51.2948 285.547 51.2948H284.571L284.477 50.9485C284.897 50.5917 285.422 50.2978 286.051 50.0669C286.681 49.8361 287.311 49.7206 287.94 49.7206C288.192 49.7206 288.402 49.7836 288.57 49.9095C288.738 50.0355 288.822 50.2034 288.822 50.4133V58.3788ZM285.642 46.6981C285.642 46.3203 285.852 45.9005 286.272 45.4387C286.691 44.9769 287.08 44.7461 287.437 44.7461C287.814 44.7461 288.213 44.9769 288.633 45.4387C289.074 45.9005 289.294 46.3203 289.294 46.6981C289.294 47.0969 289.074 47.5272 288.633 47.989C288.213 48.4297 287.814 48.6501 287.437 48.6501C287.08 48.6501 286.691 48.4297 286.272 47.989C285.852 47.5272 285.642 47.0969 285.642 46.6981ZM295.273 58.3788C295.273 59.0085 295.473 59.3234 295.872 59.3234C296.27 59.3234 296.659 59.166 297.037 58.8511L297.288 59.166C296.554 60.0265 295.641 60.4568 294.549 60.4568C293.815 60.4568 293.279 60.2889 292.944 59.9531C292.608 59.5962 292.44 59.04 292.44 58.2844V46.7296C292.44 46.4357 292.303 46.2888 292.031 46.2888H291.023L290.929 45.974C291.327 45.5961 291.842 45.3023 292.471 45.0924C293.122 44.8615 293.762 44.7461 294.392 44.7461C294.665 44.7461 294.875 44.809 295.022 44.935C295.19 45.0399 295.273 45.1973 295.273 45.4072V58.3788ZM312.465 52.4598C313.494 52.6906 314.313 53.1419 314.921 53.8136C315.551 54.4853 315.866 55.2724 315.866 56.1749C315.866 57.3923 315.352 58.3684 314.323 59.103C313.295 59.8166 311.909 60.1735 310.167 60.1735H303.587L303.366 59.6067C303.891 59.4598 304.269 59.3234 304.5 59.1974C304.731 59.0505 304.888 58.8616 304.972 58.6307C305.056 58.3998 305.098 58.043 305.098 57.5602V49.028C305.098 48.2933 305.035 47.7581 304.909 47.4222C304.804 47.0864 304.542 46.7926 304.122 46.5407L303.744 46.3203L303.87 45.911C304.542 45.7011 305.402 45.5332 306.452 45.4072C307.522 45.2603 308.488 45.1868 309.349 45.1868C311.196 45.1868 312.633 45.5332 313.662 46.2258C314.711 46.9185 315.236 47.884 315.236 49.1224C315.236 49.899 314.984 50.5812 314.48 51.1689C313.998 51.7356 313.326 52.1659 312.465 52.4598ZM310.136 59.4808C310.891 59.4808 311.51 59.1765 311.993 58.5678C312.497 57.9591 312.749 57.1824 312.749 56.2379C312.749 55.2724 312.423 54.4853 311.773 53.8766C311.122 53.2679 310.199 52.8586 309.002 52.6487V52.2709C309.968 52.2709 310.723 51.9875 311.269 51.4208C311.836 50.8541 312.119 50.0879 312.119 49.1224C312.119 48.1569 311.888 47.3908 311.426 46.824C310.965 46.2363 310.346 45.9425 309.569 45.9425C309.107 45.9425 308.75 46.0999 308.498 46.4147C308.247 46.7086 308.121 47.1284 308.121 47.6741V56.6787C308.121 57.5393 308.299 58.2214 308.656 58.7252C309.034 59.2289 309.527 59.4808 310.136 59.4808ZM321.036 53.2154C320.595 53.4673 320.071 53.5932 319.462 53.5932C319.021 53.5932 318.675 53.4673 318.423 53.2154C318.171 52.9425 318.045 52.5647 318.045 52.0819C318.045 51.3683 318.391 50.8016 319.084 50.3818C319.798 49.941 320.721 49.7206 321.855 49.7206C323.198 49.7206 324.248 50.0145 325.003 50.6022C325.78 51.1899 326.168 51.9875 326.168 52.995V58.4418C326.168 59.0295 326.378 59.3234 326.798 59.3234C327.197 59.3234 327.585 59.166 327.963 58.8511L328.215 59.166C327.438 60.0265 326.514 60.4568 325.444 60.4568C324.814 60.4568 324.332 60.2994 323.996 59.9846C323.681 59.6697 323.492 59.1765 323.429 58.5048H323.303C322.967 59.1135 322.516 59.5962 321.949 59.9531C321.403 60.2889 320.774 60.4568 320.06 60.4568C319.263 60.4568 318.622 60.2154 318.14 59.7327C317.657 59.2289 317.415 58.5782 317.415 57.7806C317.415 56.8781 317.846 56.1644 318.706 55.6397C319.567 55.115 320.732 54.8526 322.201 54.8526C322.474 54.8526 322.862 54.8736 323.366 54.9156V53.3413C323.366 52.3128 323.24 51.5782 322.988 51.1374C322.736 50.6756 322.327 50.4448 321.76 50.4448C321.361 50.4448 321.047 50.5707 320.816 50.8226C320.585 51.0744 320.469 51.3998 320.469 51.7986C320.469 52.4283 320.658 52.9005 321.036 53.2154ZM321.508 58.8826C322.747 58.8826 323.366 57.7597 323.366 55.5138C322.317 55.5138 321.529 55.6922 321.005 56.049C320.48 56.3848 320.218 56.8676 320.218 57.4973C320.218 57.9171 320.333 58.2529 320.564 58.5048C320.795 58.7567 321.11 58.8826 321.508 58.8826ZM335.778 49.7206C336.45 49.7206 336.996 49.92 337.415 50.3188C337.835 50.6966 338.045 51.1899 338.045 51.7986C338.045 52.3653 337.877 52.8271 337.541 53.1839C337.206 53.5197 336.765 53.6877 336.219 53.6877C335.799 53.6877 335.411 53.6037 335.054 53.4358C335.432 53.1209 335.621 52.6487 335.621 52.019C335.621 51.7251 335.558 51.4942 335.432 51.3263C335.306 51.1584 335.138 51.0744 334.928 51.0744C334.424 51.0744 334.005 51.5887 333.669 52.6172C333.333 53.6247 333.165 54.8841 333.165 56.3953C333.165 57.1719 333.207 57.7911 333.291 58.2529C333.396 58.7147 333.564 59.145 333.795 59.5438L334.047 59.8586L333.795 60.1735H329.229L329.041 59.6382L329.481 59.5438C329.817 59.4598 330.038 59.3339 330.143 59.166C330.247 58.9771 330.3 58.6202 330.3 58.0955V51.956C330.3 51.5572 330.164 51.3578 329.891 51.3578H328.915L328.789 51.0115C329.187 50.6546 329.681 50.3608 330.268 50.1299C330.877 49.899 331.475 49.7836 332.063 49.7836C332.336 49.7836 332.556 49.8465 332.724 49.9725C332.892 50.0984 332.976 50.2663 332.976 50.4762V52.7746H333.071C333.511 50.7386 334.414 49.7206 335.778 49.7206ZM338.876 58.6622C338.876 58.3054 339.075 57.9171 339.474 57.4973C339.873 57.0565 340.24 56.8361 340.576 56.8361C340.912 56.8361 341.279 57.0565 341.678 57.4973C342.098 57.9171 342.308 58.3054 342.308 58.6622C342.308 59.019 342.098 59.4073 341.678 59.8271C341.279 60.2469 340.912 60.4568 340.576 60.4568C340.24 60.4568 339.873 60.2469 339.474 59.8271C339.075 59.4073 338.876 59.019 338.876 58.6622ZM51.6442 117.607C52.169 117.46 52.5468 117.323 52.7777 117.197C53.0086 117.051 53.166 116.862 53.2499 116.631C53.3339 116.4 53.3759 116.043 53.3759 115.56V107.028C53.3759 106.293 53.3129 105.758 53.187 105.422C53.082 105.086 52.8197 104.793 52.3999 104.541L52.022 104.32L52.148 103.911C52.8406 103.701 53.7012 103.533 54.7297 103.407C55.7582 103.26 56.7027 103.187 57.5633 103.187C60.229 103.187 62.2545 103.848 63.6398 105.17C65.0461 106.472 65.7493 108.361 65.7493 110.838C65.7493 113.083 65.0986 114.868 63.7973 116.19C62.5169 117.512 60.7642 118.173 58.5393 118.173H51.8646L51.6442 117.607ZM58.256 117.544C61.0896 117.544 62.5064 115.308 62.5064 110.838C62.5064 108.781 62.0971 107.133 61.2785 105.895C60.4809 104.635 59.4209 104.005 58.0986 104.005C57.5528 104.005 57.133 104.089 56.8392 104.257C56.5453 104.425 56.3984 104.667 56.3984 104.981V114.616C56.3984 115.602 56.5453 116.337 56.8392 116.82C57.154 117.302 57.6263 117.544 58.256 117.544ZM67.1383 113.104C67.1383 111.446 67.6106 110.134 68.5551 109.169C69.5206 108.203 70.822 107.721 72.4592 107.721C74.0964 107.721 75.3977 108.214 76.3633 109.2C77.3288 110.166 77.8115 111.467 77.8115 113.104C77.8115 114.742 77.3288 116.043 76.3633 117.009C75.3977 117.974 74.0964 118.457 72.4592 118.457C70.822 118.457 69.5206 117.974 68.5551 117.009C67.6106 116.043 67.1383 114.742 67.1383 113.104ZM74.6316 113.167C74.6316 111.761 74.4322 110.617 74.0334 109.736C73.6346 108.833 73.1308 108.382 72.5221 108.382C71.8505 108.382 71.3047 108.823 70.885 109.704C70.4652 110.565 70.2553 111.698 70.2553 113.104C70.2553 114.532 70.4442 115.665 70.822 116.505C71.2208 117.344 71.7455 117.764 72.3962 117.764C73.0469 117.764 73.5821 117.344 74.0019 116.505C74.4217 115.644 74.6316 114.532 74.6316 113.167ZM90.2091 116.379C90.2091 117.009 90.4085 117.323 90.8073 117.323C91.2061 117.323 91.5944 117.166 91.9722 116.851L92.2241 117.166C91.4474 118.027 90.5344 118.457 89.4849 118.457C88.7293 118.457 88.1836 118.268 87.8477 117.89C87.5329 117.491 87.3754 116.851 87.3754 115.97V111.152C87.3754 109.935 86.9871 109.326 86.2105 109.326C85.4549 109.326 84.8357 109.841 84.3529 110.869C83.8912 111.898 83.6603 113.241 83.6603 114.899C83.6603 115.529 83.7128 116.043 83.8177 116.442C83.9226 116.82 84.0906 117.187 84.3215 117.544L84.5733 117.859L84.3215 118.173H79.7562L79.5673 117.638L80.0081 117.544C80.3439 117.46 80.5643 117.334 80.6693 117.166C80.7742 116.977 80.8267 116.62 80.8267 116.095V109.956C80.8267 109.557 80.6902 109.358 80.4174 109.358H79.4099L79.3154 109.011C79.7352 108.655 80.26 108.361 80.8896 108.13C81.5193 107.899 82.149 107.784 82.7787 107.784C83.0516 107.784 83.2615 107.847 83.4084 107.972C83.5763 108.098 83.6603 108.266 83.6603 108.476V111.184C83.9541 110.197 84.4789 109.379 85.2345 108.728C85.9901 108.056 86.7877 107.721 87.6273 107.721C88.5299 107.721 89.1806 108.014 89.5794 108.602C89.9992 109.19 90.2091 110.124 90.2091 111.404V116.379ZM94.4408 101.739C95.0705 101.739 95.5427 101.938 95.8576 102.337C95.8576 102.903 95.7211 103.785 95.4483 104.981C95.1964 106.157 94.934 107.028 94.6612 107.595H94.1574C93.8636 107.049 93.5907 106.188 93.3388 105.013C93.0869 103.817 92.961 102.924 92.961 102.337C93.2968 101.938 93.7901 101.739 94.4408 101.739ZM100.611 118.457C99.7504 118.457 99.1312 118.268 98.7534 117.89C98.3756 117.491 98.1867 116.851 98.1867 115.97V109.295H96.6125C96.6125 108.938 96.6334 108.707 96.6754 108.602C96.7174 108.497 96.8433 108.413 97.0532 108.35C97.7459 108.161 98.2916 107.868 98.6904 107.469C99.0892 107.07 99.4146 106.493 99.6664 105.737C99.7294 105.506 99.8344 105.37 99.9813 105.328C100.128 105.265 100.485 105.233 101.052 105.233V108.067H103.633C103.633 108.34 103.592 108.592 103.508 108.823C103.424 109.032 103.308 109.19 103.161 109.295H101.052V116.379C101.052 117.009 101.314 117.323 101.839 117.323C102.07 117.323 102.322 117.25 102.595 117.103C102.888 116.956 103.151 116.757 103.382 116.505L103.633 116.82C102.731 117.911 101.723 118.457 100.611 118.457ZM113.906 116.095C113.906 116.599 113.969 116.946 114.095 117.134C114.242 117.302 114.567 117.439 115.071 117.544L115.48 117.638L115.291 118.173H110.38L110.128 117.859L110.38 117.544C110.632 117.208 110.8 116.851 110.884 116.473C110.988 116.074 111.041 115.539 111.041 114.868V109.295H109.435C109.435 108.938 109.456 108.707 109.498 108.602C109.54 108.497 109.666 108.413 109.876 108.35L111.041 108.067C111.041 106.262 111.429 104.877 112.206 103.911C113.003 102.945 114.137 102.463 115.606 102.463C116.53 102.463 117.275 102.662 117.842 103.061C118.429 103.46 118.723 103.984 118.723 104.635C118.723 105.202 118.555 105.664 118.219 106.02C117.884 106.356 117.443 106.524 116.897 106.524C116.477 106.524 116.089 106.44 115.732 106.272C116.11 105.957 116.299 105.485 116.299 104.856C116.299 104.352 116.204 103.953 116.016 103.659C115.827 103.365 115.564 103.218 115.228 103.218C114.809 103.218 114.483 103.439 114.252 103.88C114.021 104.32 113.906 104.939 113.906 105.737V108.067H116.204C116.204 108.655 116.047 109.064 115.732 109.295H113.906V116.095ZM116.978 113.104C116.978 111.446 117.451 110.134 118.395 109.169C119.361 108.203 120.662 107.721 122.299 107.721C123.937 107.721 125.238 108.214 126.203 109.2C127.169 110.166 127.652 111.467 127.652 113.104C127.652 114.742 127.169 116.043 126.203 117.009C125.238 117.974 123.937 118.457 122.299 118.457C120.662 118.457 119.361 117.974 118.395 117.009C117.451 116.043 116.978 114.742 116.978 113.104ZM124.472 113.167C124.472 111.761 124.272 110.617 123.874 109.736C123.475 108.833 122.971 108.382 122.362 108.382C121.691 108.382 121.145 108.823 120.725 109.704C120.305 110.565 120.095 111.698 120.095 113.104C120.095 114.532 120.284 115.665 120.662 116.505C121.061 117.344 121.586 117.764 122.236 117.764C122.887 117.764 123.422 117.344 123.842 116.505C124.262 115.644 124.472 114.532 124.472 113.167ZM135.956 107.721C136.628 107.721 137.174 107.92 137.593 108.319C138.013 108.697 138.223 109.19 138.223 109.799C138.223 110.365 138.055 110.827 137.719 111.184C137.384 111.52 136.943 111.688 136.397 111.688C135.977 111.688 135.589 111.604 135.232 111.436C135.61 111.121 135.799 110.649 135.799 110.019C135.799 109.725 135.736 109.494 135.61 109.326C135.484 109.158 135.316 109.074 135.106 109.074C134.602 109.074 134.183 109.589 133.847 110.617C133.511 111.625 133.343 112.884 133.343 114.395C133.343 115.172 133.385 115.791 133.469 116.253C133.574 116.715 133.742 117.145 133.973 117.544L134.225 117.859L133.973 118.173H129.407L129.219 117.638L129.659 117.544C129.995 117.46 130.216 117.334 130.321 117.166C130.425 116.977 130.478 116.62 130.478 116.095V109.956C130.478 109.557 130.342 109.358 130.069 109.358H129.093L128.967 109.011C129.366 108.655 129.859 108.361 130.446 108.13C131.055 107.899 131.653 107.784 132.241 107.784C132.514 107.784 132.734 107.847 132.902 107.972C133.07 108.098 133.154 108.266 133.154 108.476V110.775H133.249C133.689 108.739 134.592 107.721 135.956 107.721ZM142.58 121.133C142.58 121.595 142.717 121.973 142.989 122.266C143.283 122.56 143.651 122.707 144.091 122.707C145.561 122.707 146.295 121.511 146.295 119.118V116.064C145.77 116.673 145.225 117.124 144.658 117.418C144.091 117.712 143.462 117.859 142.769 117.859C141.74 117.859 140.901 117.428 140.25 116.568C139.621 115.707 139.306 114.574 139.306 113.167C139.306 111.488 139.82 110.166 140.848 109.2C141.877 108.214 143.262 107.721 145.004 107.721C145.466 107.721 145.97 107.763 146.516 107.847C147.082 107.931 147.429 107.983 147.555 108.004C148.436 108.13 149.045 108.214 149.381 108.256L149.633 108.508L149.381 108.886C149.192 109.137 149.097 109.4 149.097 109.673V118.173C149.097 119.832 148.615 121.112 147.649 122.015C146.705 122.938 145.382 123.4 143.682 123.4C142.633 123.4 141.782 123.2 141.132 122.802C140.481 122.403 140.156 121.878 140.156 121.227C140.156 120.661 140.324 120.199 140.66 119.842C140.995 119.506 141.436 119.338 141.982 119.338C142.381 119.338 142.769 119.422 143.147 119.59C142.769 119.968 142.58 120.482 142.58 121.133ZM144.28 116.347C145.12 116.347 145.781 115.907 146.264 115.025V108.76C145.781 108.55 145.319 108.445 144.878 108.445C144.081 108.445 143.472 108.802 143.052 109.515C142.654 110.208 142.454 111.226 142.454 112.569C142.454 113.787 142.612 114.721 142.926 115.371C143.241 116.022 143.693 116.347 144.28 116.347ZM157.613 117.418C158.221 117.418 158.757 117.313 159.218 117.103C159.68 116.872 160.131 116.494 160.572 115.97L160.95 116.253C160.467 116.946 159.848 117.491 159.092 117.89C158.358 118.268 157.55 118.457 156.668 118.457C155.703 118.457 154.832 118.226 154.055 117.764C153.299 117.302 152.701 116.673 152.26 115.875C151.82 115.056 151.599 114.133 151.599 113.104C151.599 111.467 152.092 110.166 153.079 109.2C154.086 108.214 155.419 107.721 157.077 107.721C158.253 107.721 159.208 108.004 159.943 108.571C160.698 109.116 161.076 109.83 161.076 110.712C161.076 111.719 160.646 112.527 159.785 113.136C158.946 113.724 157.791 114.018 156.322 114.018C155.734 114.018 155.199 113.976 154.716 113.892C154.821 114.983 155.136 115.844 155.661 116.473C156.185 117.103 156.836 117.418 157.613 117.418ZM156.731 108.476C156.08 108.476 155.566 108.875 155.188 109.673C154.832 110.449 154.653 111.541 154.653 112.947V113.451C154.884 113.451 155.167 113.43 155.503 113.388C156.385 113.283 157.056 113 157.518 112.538C158.001 112.055 158.242 111.425 158.242 110.649C158.242 110.019 158.095 109.505 157.802 109.106C157.529 108.686 157.172 108.476 156.731 108.476ZM165.947 118.457C165.087 118.457 164.468 118.268 164.09 117.89C163.712 117.491 163.523 116.851 163.523 115.97V109.295H161.949C161.949 108.938 161.97 108.707 162.012 108.602C162.054 108.497 162.18 108.413 162.39 108.35C163.082 108.161 163.628 107.868 164.027 107.469C164.426 107.07 164.751 106.493 165.003 105.737C165.066 105.506 165.171 105.37 165.318 105.328C165.465 105.265 165.822 105.233 166.388 105.233V108.067H168.97C168.97 108.34 168.928 108.592 168.844 108.823C168.76 109.032 168.645 109.19 168.498 109.295H166.388V116.379C166.388 117.009 166.651 117.323 167.175 117.323C167.406 117.323 167.658 117.25 167.931 117.103C168.225 116.956 168.487 116.757 168.718 116.505L168.97 116.82C168.067 117.911 167.06 118.457 165.947 118.457ZM178.707 118.457C177.847 118.457 177.228 118.268 176.85 117.89C176.472 117.491 176.283 116.851 176.283 115.97V109.295H174.709C174.709 108.938 174.73 108.707 174.772 108.602C174.814 108.497 174.94 108.413 175.15 108.35C175.842 108.161 176.388 107.868 176.787 107.469C177.186 107.07 177.511 106.493 177.763 105.737C177.826 105.506 177.931 105.37 178.078 105.328C178.225 105.265 178.581 105.233 179.148 105.233V108.067H181.73C181.73 108.34 181.688 108.592 181.604 108.823C181.52 109.032 181.404 109.19 181.258 109.295H179.148V116.379C179.148 117.009 179.41 117.323 179.935 117.323C180.166 117.323 180.418 117.25 180.691 117.103C180.985 116.956 181.247 116.757 181.478 116.505L181.73 116.82C180.827 117.911 179.82 118.457 178.707 118.457ZM182.684 113.104C182.684 111.446 183.156 110.134 184.101 109.169C185.066 108.203 186.368 107.721 188.005 107.721C189.642 107.721 190.943 108.214 191.909 109.2C192.874 110.166 193.357 111.467 193.357 113.104C193.357 114.742 192.874 116.043 191.909 117.009C190.943 117.974 189.642 118.457 188.005 118.457C186.368 118.457 185.066 117.974 184.101 117.009C183.156 116.043 182.684 114.742 182.684 113.104ZM190.177 113.167C190.177 111.761 189.978 110.617 189.579 109.736C189.18 108.833 188.676 108.382 188.068 108.382C187.396 108.382 186.85 108.823 186.431 109.704C186.011 110.565 185.801 111.698 185.801 113.104C185.801 114.532 185.99 115.665 186.368 116.505C186.766 117.344 187.291 117.764 187.942 117.764C188.593 117.764 189.128 117.344 189.548 116.505C189.967 115.644 190.177 114.532 190.177 113.167ZM209.374 110.491C209.374 111.184 209.165 111.73 208.745 112.128C208.325 112.527 207.811 112.727 207.202 112.727C206.719 112.727 206.278 112.601 205.88 112.349C206.341 111.929 206.572 111.341 206.572 110.586C206.572 109.977 206.446 109.484 206.194 109.106C205.943 108.707 205.575 108.508 205.093 108.508C204.547 108.508 204.096 108.938 203.739 109.799C203.403 110.638 203.235 111.74 203.235 113.104C203.235 114.406 203.476 115.455 203.959 116.253C204.463 117.03 205.166 117.418 206.069 117.418C206.698 117.418 207.233 117.302 207.674 117.072C208.136 116.841 208.566 116.505 208.965 116.064L209.343 116.316C208.902 116.946 208.325 117.46 207.611 117.859C206.898 118.257 206.069 118.457 205.124 118.457C203.655 118.457 202.448 117.964 201.503 116.977C200.559 115.991 200.086 114.721 200.086 113.167C200.086 111.509 200.58 110.187 201.566 109.2C202.553 108.214 203.865 107.721 205.502 107.721C206.656 107.721 207.59 107.983 208.304 108.508C209.018 109.011 209.374 109.673 209.374 110.491ZM214.41 116.379C214.41 117.009 214.609 117.323 215.008 117.323C215.407 117.323 215.795 117.166 216.173 116.851L216.425 117.166C215.69 118.027 214.777 118.457 213.686 118.457C212.951 118.457 212.416 118.289 212.08 117.953C211.744 117.596 211.576 117.04 211.576 116.284V104.73C211.576 104.436 211.44 104.289 211.167 104.289H210.16L210.065 103.974C210.464 103.596 210.978 103.302 211.608 103.092C212.259 102.862 212.899 102.746 213.528 102.746C213.801 102.746 214.011 102.809 214.158 102.935C214.326 103.04 214.41 103.197 214.41 103.407V116.379ZM220.741 111.215C220.3 111.467 219.775 111.593 219.167 111.593C218.726 111.593 218.379 111.467 218.128 111.215C217.876 110.943 217.75 110.565 217.75 110.082C217.75 109.368 218.096 108.802 218.789 108.382C219.502 107.941 220.426 107.721 221.559 107.721C222.903 107.721 223.952 108.014 224.708 108.602C225.484 109.19 225.873 109.987 225.873 110.995V116.442C225.873 117.03 226.083 117.323 226.502 117.323C226.901 117.323 227.29 117.166 227.667 116.851L227.919 117.166C227.143 118.027 226.219 118.457 225.149 118.457C224.519 118.457 224.036 118.299 223.7 117.985C223.386 117.67 223.197 117.176 223.134 116.505H223.008C222.672 117.113 222.221 117.596 221.654 117.953C221.108 118.289 220.478 118.457 219.765 118.457C218.967 118.457 218.327 118.215 217.844 117.733C217.361 117.229 217.12 116.578 217.12 115.781C217.12 114.878 217.55 114.164 218.411 113.64C219.272 113.115 220.436 112.853 221.906 112.853C222.179 112.853 222.567 112.874 223.071 112.916V111.341C223.071 110.313 222.945 109.578 222.693 109.137C222.441 108.676 222.032 108.445 221.465 108.445C221.066 108.445 220.751 108.571 220.52 108.823C220.29 109.074 220.174 109.4 220.174 109.799C220.174 110.428 220.363 110.901 220.741 111.215ZM221.213 116.883C222.451 116.883 223.071 115.76 223.071 113.514C222.021 113.514 221.234 113.692 220.709 114.049C220.185 114.385 219.922 114.868 219.922 115.497C219.922 115.917 220.038 116.253 220.269 116.505C220.499 116.757 220.814 116.883 221.213 116.883ZM232.586 116.379C232.586 117.009 232.786 117.323 233.185 117.323C233.583 117.323 233.972 117.166 234.349 116.851L234.601 117.166C233.825 118.027 232.912 118.457 231.862 118.457C231.107 118.457 230.561 118.268 230.225 117.89C229.889 117.491 229.721 116.851 229.721 115.97V109.736C229.721 109.442 229.585 109.295 229.312 109.295H228.336L228.242 108.949C228.661 108.592 229.186 108.298 229.816 108.067C230.445 107.836 231.075 107.721 231.705 107.721C231.957 107.721 232.167 107.784 232.334 107.91C232.502 108.035 232.586 108.203 232.586 108.413V116.379ZM229.406 104.698C229.406 104.32 229.616 103.9 230.036 103.439C230.456 102.977 230.844 102.746 231.201 102.746C231.579 102.746 231.978 102.977 232.397 103.439C232.838 103.9 233.059 104.32 233.059 104.698C233.059 105.097 232.838 105.527 232.397 105.989C231.978 106.43 231.579 106.65 231.201 106.65C230.844 106.65 230.456 106.43 230.036 105.989C229.616 105.527 229.406 105.097 229.406 104.698ZM245.177 108.571C245.576 109.116 245.786 109.987 245.807 111.184H245.87C246.164 110.176 246.647 109.347 247.318 108.697C247.99 108.046 248.704 107.721 249.459 107.721C250.362 107.721 251.013 108.025 251.411 108.634C251.831 109.221 252.041 110.145 252.041 111.404V116.379C252.041 117.009 252.24 117.323 252.639 117.323C253.038 117.323 253.426 117.166 253.804 116.851L254.056 117.166C253.279 118.027 252.366 118.457 251.317 118.457C250.54 118.457 249.995 118.257 249.68 117.859C249.365 117.439 249.207 116.715 249.207 115.686V111.152C249.207 109.935 248.809 109.326 248.011 109.326C247.339 109.326 246.815 109.893 246.437 111.026C246.059 112.139 245.87 113.43 245.87 114.899C245.891 115.55 245.944 116.064 246.028 116.442C246.132 116.82 246.3 117.187 246.531 117.544L246.783 117.859L246.531 118.173H243.037V111.152C243.037 109.935 242.638 109.326 241.84 109.326C241.168 109.326 240.644 109.893 240.266 111.026C239.888 112.139 239.699 113.43 239.699 114.899C239.699 115.55 239.741 116.064 239.825 116.442C239.93 116.82 240.108 117.187 240.36 117.544L240.612 117.859L240.36 118.173H235.795L235.606 117.638L236.047 117.544C236.383 117.46 236.603 117.334 236.708 117.166C236.813 116.977 236.866 116.62 236.866 116.095V109.956C236.866 109.641 236.729 109.484 236.456 109.484H235.449L235.354 109.169C235.774 108.812 236.299 108.518 236.929 108.287C237.558 108.056 238.188 107.941 238.818 107.941C239.09 107.941 239.3 108.004 239.447 108.13C239.615 108.235 239.699 108.392 239.699 108.602V111.184C239.972 110.218 240.434 109.4 241.084 108.728C241.735 108.056 242.47 107.721 243.288 107.721C244.149 107.721 244.779 108.004 245.177 108.571ZM270.553 107.784V118.173C270.553 119.832 270.07 121.112 269.105 122.015C268.16 122.938 266.838 123.4 265.138 123.4C264.088 123.4 263.238 123.2 262.587 122.802C261.937 122.403 261.611 121.878 261.611 121.227C261.611 120.661 261.779 120.199 262.115 119.842C262.451 119.506 262.892 119.338 263.437 119.338C263.836 119.338 264.225 119.422 264.602 119.59C264.225 119.968 264.036 120.482 264.036 121.133C264.036 121.595 264.172 121.973 264.445 122.266C264.739 122.56 265.106 122.707 265.547 122.707C267.016 122.707 267.751 121.511 267.751 119.118V115.119C267.478 115.917 266.995 116.578 266.303 117.103C265.631 117.607 264.907 117.859 264.13 117.859C263.207 117.859 262.524 117.575 262.084 117.009C261.643 116.442 261.422 115.581 261.422 114.427V109.736C261.422 109.442 261.286 109.295 261.013 109.295H260.037L259.943 108.949C260.342 108.592 260.866 108.298 261.517 108.067C262.168 107.836 262.787 107.721 263.375 107.721C263.647 107.721 263.857 107.784 264.004 107.91C264.172 108.035 264.256 108.203 264.256 108.413V114.773C264.256 115.949 264.623 116.536 265.358 116.536C266.072 116.536 266.649 116.106 267.09 115.245C267.53 114.385 267.751 113.241 267.751 111.814C267.751 111.058 267.688 110.439 267.562 109.956C267.436 109.473 267.237 109.053 266.964 108.697L266.712 108.35L266.932 108.067L270.553 107.784ZM273.048 113.104C273.048 111.446 273.52 110.134 274.465 109.169C275.43 108.203 276.732 107.721 278.369 107.721C280.006 107.721 281.308 108.214 282.273 109.2C283.239 110.166 283.721 111.467 283.721 113.104C283.721 114.742 283.239 116.043 282.273 117.009C281.308 117.974 280.006 118.457 278.369 118.457C276.732 118.457 275.43 117.974 274.465 117.009C273.52 116.043 273.048 114.742 273.048 113.104ZM280.541 113.167C280.541 111.761 280.342 110.617 279.943 109.736C279.544 108.833 279.041 108.382 278.432 108.382C277.76 108.382 277.215 108.823 276.795 109.704C276.375 110.565 276.165 111.698 276.165 113.104C276.165 114.532 276.354 115.665 276.732 116.505C277.131 117.344 277.655 117.764 278.306 117.764C278.957 117.764 279.492 117.344 279.912 116.505C280.332 115.644 280.541 114.532 280.541 113.167ZM292.876 115.308C292.582 116.232 292.068 116.988 291.333 117.575C290.62 118.163 289.853 118.457 289.035 118.457C288.111 118.457 287.429 118.163 286.988 117.575C286.548 116.988 286.327 116.085 286.327 114.868V109.736C286.327 109.442 286.191 109.295 285.918 109.295H284.942L284.847 108.949C285.267 108.592 285.792 108.298 286.422 108.067C287.051 107.836 287.671 107.721 288.279 107.721C288.552 107.721 288.762 107.784 288.909 107.91C289.077 108.035 289.161 108.203 289.161 108.413V114.71C289.161 115.424 289.266 115.98 289.476 116.379C289.686 116.757 289.979 116.946 290.357 116.946C291.134 116.946 291.753 116.473 292.215 115.529C292.698 114.563 292.939 113.314 292.939 111.782C292.939 110.964 292.876 110.334 292.75 109.893C292.645 109.431 292.446 109.032 292.152 108.697L291.868 108.35L292.12 108.067L295.741 107.784V116.379C295.741 117.009 295.93 117.323 296.308 117.323C296.707 117.323 297.095 117.166 297.473 116.851L297.725 117.166C296.99 118.027 296.077 118.457 294.985 118.457C294.188 118.457 293.632 118.226 293.317 117.764C293.023 117.302 292.876 116.484 292.876 115.308ZM305.524 107.721C306.195 107.721 306.741 107.92 307.161 108.319C307.581 108.697 307.791 109.19 307.791 109.799C307.791 110.365 307.623 110.827 307.287 111.184C306.951 111.52 306.51 111.688 305.964 111.688C305.545 111.688 305.156 111.604 304.8 111.436C305.177 111.121 305.366 110.649 305.366 110.019C305.366 109.725 305.303 109.494 305.177 109.326C305.051 109.158 304.883 109.074 304.674 109.074C304.17 109.074 303.75 109.589 303.414 110.617C303.078 111.625 302.91 112.884 302.91 114.395C302.91 115.172 302.952 115.791 303.036 116.253C303.141 116.715 303.309 117.145 303.54 117.544L303.792 117.859L303.54 118.173H298.975L298.786 117.638L299.227 117.544C299.563 117.46 299.783 117.334 299.888 117.166C299.993 116.977 300.045 116.62 300.045 116.095V109.956C300.045 109.557 299.909 109.358 299.636 109.358H298.66L298.534 109.011C298.933 108.655 299.426 108.361 300.014 108.13C300.623 107.899 301.221 107.784 301.808 107.784C302.081 107.784 302.302 107.847 302.47 107.972C302.638 108.098 302.722 108.266 302.722 108.476V110.775H302.816C303.257 108.739 304.159 107.721 305.524 107.721Z" fill="white"/>
</g>
<defs>
<filter id="filter0_d_13_2468" x="0.921717" y="0.0731297" width="356.775" height="138.716" filterUnits="userSpaceOnUse" color-interpolation-filters="sRGB">
<feFlood flood-opacity="0" result="BackgroundImageFix"/>
<feColorMatrix in="SourceAlpha" type="matrix" values="0 0 0 0 0 0 0 0 0 0 0 0 0 0 0 0 0 0 127 0" result="hardAlpha"/>
<feOffset/>
<feGaussianBlur stdDeviation="7.69478"/>
<feComposite in2="hardAlpha" operator="out"/>
<feColorMatrix type="matrix" values="0 0 0 0 0.807843 0 0 0 0 0.203922 0 0 0 0 0.0705882 0 0 0 1 0"/>
<feBlend mode="normal" in2="BackgroundImageFix" result="effect1_dropShadow_13_2468"/>
<feBlend mode="normal" in="SourceGraphic" in2="effect1_dropShadow_13_2468" result="shape"/>
</filter>
</defs>
</svg>
