<svg width="270" height="39" viewBox="0 0 270 39" fill="none" xmlns="http://www.w3.org/2000/svg">
<path d="M0.317203 3.05637L0.354956 2.49008H16.5131L16.4753 2.60334L16.9661 7.92646L16.2111 8.22848L15.607 3.24514H5.3383V15.4392H14.3612C14.487 15.4644 14.6003 15.4392 14.701 15.3637C14.8016 15.2631 14.852 15.1372 14.852 14.9862L15.003 12.3813L15.607 12.3058V18.7615C15.5819 18.7615 15.3931 18.7741 15.0407 18.7992L14.8897 16.1943H5.3383V28.1996L7.94324 28.3506C7.94324 28.3758 7.93065 28.5646 7.90548 28.9169L0.317203 28.9547L0.354956 28.4261L2.31809 28.1619C2.56978 28.1367 2.72079 27.9731 2.77113 27.6711V3.77367C2.72079 3.47165 2.56978 3.30806 2.31809 3.28289L0.317203 3.05637ZM22.8523 11.5885V14.6087C24.8406 11.6891 26.7911 10.2042 28.7039 10.1539C28.855 10.1539 29.006 10.1539 29.157 10.1539L31.2711 10.4181L30.2896 12.6833C29.8114 12.2051 29.1947 11.966 28.4397 11.966C26.6024 11.9912 24.7399 13.2118 22.8523 15.628V28.1619L26.0613 28.3506C26.0613 28.3758 26.0487 28.5646 26.0235 28.9169L18.0955 28.9547C18.0955 28.7282 18.108 28.552 18.1332 28.4261L20.0963 28.1619C20.2977 28.1367 20.3984 27.9605 20.3984 27.6333V11.2487C20.348 11.0725 20.2725 10.9844 20.1718 10.9844L17.9067 10.9089L17.9444 10.3804C19.3035 10.1539 20.3354 10.0406 21.0402 10.0406C21.7449 10.0406 22.2231 10.2042 22.4748 10.5314C22.7264 10.8586 22.8523 11.2109 22.8523 11.5885ZM38.1244 11.5885V28.1619L40.9559 28.3506C40.9559 28.3758 40.9433 28.5646 40.9181 28.9169L33.3676 28.9547C33.3676 28.7282 33.3802 28.552 33.4053 28.4261L35.3685 28.1619C35.5195 28.1619 35.6201 28.0486 35.6705 27.8221V11.2487C35.6201 11.0725 35.5446 10.9844 35.444 10.9844L33.1788 10.9089L33.2166 10.3804C34.5757 10.1539 35.6076 10.0406 36.3123 10.0406C37.017 10.0406 37.4952 10.2042 37.7469 10.5314C37.9986 10.8586 38.1244 11.2109 38.1244 11.5885ZM36.8408 4.98176C36.3374 4.98176 35.9473 4.83075 35.6705 4.52872C35.3936 4.20153 35.2552 3.78626 35.2552 3.28289C35.2552 2.75435 35.3936 2.33907 35.6705 2.03705C35.9725 1.70986 36.3752 1.54627 36.8786 1.54627C37.3819 1.54627 37.7846 1.70986 38.0867 2.03705C38.4138 2.33907 38.5774 2.76693 38.5774 3.32064C38.5774 3.84918 38.4138 4.26446 38.0867 4.56648C37.7595 4.84333 37.3442 4.98176 36.8408 4.98176ZM59.9608 2.15031V26.9538C59.9608 27.734 60.1621 28.1241 60.5648 28.1241L62.83 28.2374L62.7922 28.8037C61.5841 29.005 60.3257 29.1057 59.017 29.1057C58.7401 29.0805 58.4381 28.9421 58.1109 28.6904C57.8089 28.4387 57.6327 28.1115 57.5824 27.7088C56.1478 28.6149 54.4866 29.0679 52.599 29.0679C50.7617 29.0679 49.0628 28.552 47.5024 27.5201C46.6215 26.9412 45.9042 26.0351 45.3505 24.8019C44.822 23.5435 44.5577 22.0208 44.5577 20.2338C44.5577 16.9368 45.4008 14.4199 47.0871 12.6833C48.8741 10.8208 50.9127 9.8896 53.203 9.8896C54.6125 9.8896 56.0471 10.2545 57.5069 10.9844V1.96154C57.5069 1.68469 57.4313 1.54627 57.2803 1.54627L54.9774 1.47076L55.0152 0.942223C56.6008 0.715707 57.683 0.602449 58.2619 0.602449C58.8659 0.602449 59.2938 0.766044 59.5455 1.09323C59.8223 1.42042 59.9608 1.77278 59.9608 2.15031ZM53.0898 28.3884C54.6251 28.3884 56.0974 28.0486 57.5069 27.3691V11.5885C56.3994 10.9089 55.3046 10.5691 54.2224 10.5691C52.0579 10.5691 50.3087 11.3997 48.9748 13.0608C47.666 14.7219 47.0116 17.1004 47.0116 20.1961C47.0116 25.6576 49.0377 28.3884 53.0898 28.3884ZM77.9437 27.4823H77.8305C75.5653 28.5394 73.3631 29.0679 71.2237 29.0679C67.8763 29.0679 66.102 27.7466 65.9006 25.1039C65.8755 24.9277 65.8629 24.7641 65.8629 24.6131C65.8629 22.6752 67.1339 21.379 69.6759 20.7246C71.186 20.3974 73.9042 20.0073 77.8305 19.5543V16.232C77.8305 15.175 77.7046 14.2689 77.4529 13.5139C77.2012 12.7588 76.9244 12.2051 76.6224 11.8527C76.3203 11.4752 75.9302 11.1858 75.452 10.9844C74.848 10.7327 74.1684 10.6069 73.4134 10.6069C72.6835 10.6069 71.8404 10.7957 70.884 11.1732C69.4997 11.7521 68.2665 12.4819 67.1842 13.3628L67.0332 16.3075L66.3159 16.4963V11.9282L66.6934 11.7772C68.6566 10.9215 70.1541 10.4056 71.186 10.2294C72.2179 10.0532 72.9729 9.9651 73.4511 9.9651C73.9293 9.93994 74.3824 9.93994 74.8102 9.9651C75.2633 9.99027 75.8421 10.1035 76.5469 10.3049C77.2516 10.5062 77.8556 10.7957 78.359 11.1732C78.8875 11.5255 79.3406 12.0667 79.7181 12.7966C80.0956 13.5264 80.2844 14.3947 80.2844 15.4015V26.9538C80.2844 27.734 80.4857 28.1241 80.8884 28.1241L83.1913 28.2374L83.1536 28.8037C81.7441 29.005 80.4857 29.1057 79.3783 29.1057C79.0763 29.0805 78.7617 28.9295 78.4345 28.6527C78.1073 28.3506 77.9437 27.9605 77.9437 27.4823ZM71.9033 28.4639C73.7658 28.4639 75.7415 27.8095 77.8305 26.5008V20.2716C74.0552 20.3974 71.6768 20.6239 70.6952 20.9511C69.7388 21.2531 69.0718 21.7439 68.6943 22.4235C68.342 23.0779 68.1658 23.7322 68.1658 24.3866C68.1658 24.5125 68.1658 24.6383 68.1658 24.7641C68.2413 26.0729 68.6314 27.0167 69.3361 27.5956C70.0408 28.1745 70.8966 28.4639 71.9033 28.4639ZM87.988 38.3551L87.9125 37.8266L91.4235 37.3735C91.5996 37.3484 91.7129 37.1722 91.7632 36.845L93.0091 28.9169H91.7632L85.4585 11.362L85.4208 11.3242C85.2949 11.0222 85.0936 10.846 84.8167 10.7957L83.1179 10.6447C83.0927 10.4936 83.0801 10.3049 83.0801 10.0784L91.0082 10.0406C91.0082 10.0658 91.0208 10.2545 91.0459 10.6069L88.1012 10.8334L93.6886 27.9354L100.711 11.3242C100.786 11.1732 100.736 11.0473 100.56 10.9467C100.409 10.846 100.245 10.7831 100.069 10.7579L98.4077 10.6447C98.3825 10.4936 98.3699 10.3049 98.3699 10.0784L105.279 10.0406C105.279 10.0658 105.291 10.2545 105.316 10.6069L101.956 10.9467L94.0284 28.9169L92.5938 37.5623L95.8783 37.751C95.9286 38.1034 95.9538 38.2922 95.9538 38.3173L87.988 38.3551ZM119.593 28.9547L119.63 28.4261L121.593 28.1619C121.82 28.1367 121.933 27.9605 121.933 27.6333V11.2864C121.883 11.0851 121.807 10.9844 121.707 10.9844L119.404 10.9089L119.442 10.3804C121.027 10.1539 122.097 10.0406 122.651 10.0406C123.657 10.0406 124.224 10.4811 124.349 11.362H124.387V12.1548C126.451 10.7453 128.427 10.0029 130.314 9.92735C132.152 9.92735 133.548 10.2923 134.505 11.0222C134.933 11.3494 135.31 11.8653 135.637 12.57C135.99 13.2496 136.166 14.0676 136.166 15.024V28.1619L138.997 28.3506C138.997 28.3758 138.985 28.5646 138.96 28.9169L131.409 28.9547C131.409 28.7282 131.422 28.552 131.447 28.4261L133.41 28.1619C133.611 28.1367 133.712 27.9605 133.712 27.6333V15.9678C133.712 14.961 133.574 14.1053 133.297 13.4006C133.045 12.6959 132.756 12.1799 132.428 11.8527C132.101 11.5255 131.699 11.2739 131.22 11.0977C130.667 10.8963 130.088 10.7957 129.484 10.7957C127.974 10.8208 126.275 11.4123 124.387 12.57V28.1619L127.219 28.3506C127.219 28.3758 127.206 28.5646 127.181 28.9169L119.593 28.9547ZM146.258 11.5885V28.1619L149.089 28.3506C149.089 28.3758 149.077 28.5646 149.051 28.9169L141.501 28.9547C141.501 28.7282 141.513 28.552 141.539 28.4261L143.502 28.1619C143.653 28.1619 143.753 28.0486 143.804 27.8221V11.2487C143.753 11.0725 143.678 10.9844 143.577 10.9844L141.312 10.9089L141.35 10.3804C142.709 10.1539 143.741 10.0406 144.446 10.0406C145.15 10.0406 145.628 10.2042 145.88 10.5314C146.132 10.8586 146.258 11.2109 146.258 11.5885ZM144.974 4.98176C144.471 4.98176 144.081 4.83075 143.804 4.52872C143.527 4.20153 143.389 3.78626 143.389 3.28289C143.389 2.75435 143.527 2.33907 143.804 2.03705C144.106 1.70986 144.509 1.54627 145.012 1.54627C145.515 1.54627 145.918 1.70986 146.22 2.03705C146.547 2.33907 146.711 2.76693 146.711 3.32064C146.711 3.84918 146.547 4.26446 146.22 4.56648C145.893 4.84333 145.477 4.98176 144.974 4.98176ZM151.028 32.8055C151.028 30.4396 152.463 28.4136 155.332 26.7273C154.099 26.0477 153.482 25.192 153.482 24.1601C153.482 23.103 153.986 22.2851 154.992 21.7062C153.029 20.8253 152.048 18.9628 152.048 16.1188C152.048 14.1808 152.778 12.6581 154.237 11.5507C155.697 10.4433 157.56 9.8896 159.825 9.8896C160.882 9.8896 161.889 10.0154 162.845 10.2671L169.15 9.8896L169.074 11.3242L164.582 11.0599C166.218 12.117 167.036 13.7152 167.036 15.8545C167.036 17.9938 166.343 19.6298 164.959 20.7624C163.575 21.8949 161.788 22.4612 159.598 22.4612C158.138 22.4612 156.943 22.3354 156.012 22.0837C155.584 22.5619 155.37 23.1156 155.37 23.7448C155.37 24.8774 155.823 25.6954 156.729 26.1987C157.711 26.7776 159.447 27.281 161.939 27.7088C162.518 27.8095 162.933 27.8976 163.185 27.9731C163.462 28.0235 163.852 28.099 164.355 28.1996C164.858 28.3003 165.236 28.401 165.488 28.5017C165.739 28.5772 166.054 28.703 166.431 28.8792C166.834 29.0302 167.136 29.1812 167.338 29.3322C167.539 29.4832 167.765 29.672 168.017 29.8985C168.269 30.125 168.458 30.3767 168.583 30.6536C168.86 31.3079 168.999 32.063 168.999 32.9187C168.999 33.7996 168.734 34.6302 168.206 35.4104C167.677 36.1906 166.947 36.7821 166.016 37.1848C164.204 37.965 162.128 38.3551 159.787 38.3551C156.691 38.3551 154.451 37.8014 153.067 36.694C151.708 35.6117 151.028 34.3156 151.028 32.8055ZM155.936 27.0293C154.3 28.8163 153.482 30.5655 153.482 32.2769C153.482 33.9884 153.973 35.3097 154.955 36.2409C155.961 37.1973 157.484 37.6755 159.523 37.6755C161.561 37.6755 163.235 37.2854 164.544 36.5052C165.878 35.725 166.545 34.4792 166.545 32.7677C166.545 31.4086 166.117 30.4145 165.261 29.7852C164.431 29.156 163.248 28.6904 161.712 28.3884C158.617 27.8095 156.691 27.3565 155.936 27.0293ZM159.711 10.3804C158.151 10.3804 156.893 10.8712 155.936 11.8527C154.98 12.8091 154.502 14.2563 154.502 16.1943C154.502 18.1323 154.867 19.5794 155.596 20.5358C156.326 21.4922 157.509 21.9704 159.145 21.9704C160.806 21.9704 162.102 21.4293 163.034 20.3471C163.99 19.2397 164.468 17.7547 164.468 15.8923C164.468 12.2177 162.883 10.3804 159.711 10.3804ZM176.342 2.15031V12.3813C179.639 10.1161 182.621 9.4114 185.289 10.2671C185.893 10.4433 186.409 10.7076 186.837 11.0599C187.29 11.3871 187.68 11.8905 188.007 12.57C188.335 13.2496 188.498 14.0676 188.498 15.024V28.1619L191.33 28.3506C191.33 28.3758 191.317 28.5646 191.292 28.9169L183.741 28.9547C183.741 28.7282 183.754 28.552 183.779 28.4261L185.742 28.1619C185.893 28.1619 185.994 28.0486 186.044 27.8221V16.0055C186.044 15.024 185.906 14.1808 185.629 13.4761C185.377 12.7462 185.075 12.2177 184.723 11.8905C184.371 11.5633 183.955 11.3116 183.477 11.1354C182.823 10.8838 182.244 10.7831 181.74 10.8334C180.105 10.8838 178.305 11.5507 176.342 12.8343V28.1619L179.173 28.3506C179.173 28.3758 179.161 28.5646 179.136 28.9169L171.585 28.9547C171.585 28.7282 171.598 28.552 171.623 28.4261L173.586 28.1619C173.787 28.1367 173.888 27.9605 173.888 27.6333V1.96154C173.888 1.68469 173.812 1.54627 173.661 1.54627L171.396 1.47076L171.434 0.942223C172.793 0.715707 173.825 0.602449 174.53 0.602449C175.234 0.602449 175.713 0.766044 175.964 1.09323C176.216 1.42042 176.342 1.77278 176.342 2.15031ZM200.706 28.1996L202.178 28.1241L202.291 28.5017C202.266 28.5017 202.09 28.5394 201.763 28.6149C201.008 28.7911 200.165 28.8792 199.234 28.8792C198.378 28.8288 197.598 28.6904 196.893 28.4639C196.188 28.2122 195.534 27.7088 194.93 26.9538C194.326 26.1736 194.024 25.1794 194.024 23.9713V10.7202H192.098L192.4 10.4181L194.061 10.0784L194.363 6.45411L196.478 6.26535V10.0406H201.046V10.7202H196.478V23.3295C196.478 25.2423 196.88 26.5385 197.686 27.2181C198.491 27.8724 199.498 28.1996 200.706 28.1996ZM225.564 29.0679C222.946 29.0679 220.819 28.3129 219.183 26.8028C217.573 25.2927 216.767 22.9898 216.767 19.894C216.767 16.7732 217.623 14.3318 219.334 12.57C221.071 10.7831 223.248 9.8896 225.866 9.8896C228.483 9.8896 230.61 10.6447 232.246 12.1548C233.882 13.6649 234.7 15.9804 234.7 19.1012C234.7 22.197 233.831 24.6383 232.095 26.4253C230.383 28.187 228.206 29.0679 225.564 29.0679ZM225.828 10.5691C223.94 10.5691 222.367 11.3871 221.109 13.0231C219.85 14.659 219.221 16.8864 219.221 19.7053C219.221 22.499 219.813 24.6509 220.996 26.161C222.204 27.6459 223.751 28.3884 225.639 28.3884C227.527 28.3884 229.1 27.5704 230.358 25.9345C231.617 24.2985 232.246 22.0837 232.246 19.29C232.246 16.4963 231.642 14.3444 230.434 12.8343C229.251 11.3242 227.716 10.5691 225.828 10.5691ZM237.427 10.6447L237.39 10.0784L242.486 10.0406V23.1785C242.486 24.1601 242.625 25.0158 242.902 25.7457C243.178 26.4504 243.48 26.9664 243.808 27.2936C244.16 27.6208 244.563 27.8724 245.016 28.0486C245.72 28.3003 246.312 28.401 246.79 28.3506C248.325 28.3255 250.075 27.5327 252.038 25.9722V11.362C251.937 11.0599 251.723 10.8838 251.396 10.8334L249.433 10.6447C249.408 10.4936 249.395 10.3049 249.395 10.0784L254.492 10.0406V27.1803C254.542 27.8095 254.743 28.1241 255.096 28.1241L257.361 28.2374L257.323 28.8037C256.115 29.005 254.857 29.1057 253.548 29.1057C253.246 29.0805 252.919 28.9169 252.566 28.6149C252.214 28.2877 252.038 27.885 252.038 27.4068V26.7273C249.747 28.2626 247.583 29.0302 245.544 29.0302C244.688 29.0302 243.682 28.8163 242.524 28.3884C241.769 28.1115 241.165 27.5956 240.712 26.8405C240.259 26.0603 240.032 25.0913 240.032 23.9336V11.3997C240.032 11.2739 239.957 11.1606 239.806 11.0599C239.68 10.9341 239.542 10.8586 239.391 10.8334L237.427 10.6447ZM267.51 28.1996L268.983 28.1241L269.096 28.5017C269.071 28.5017 268.895 28.5394 268.567 28.6149C267.812 28.7911 266.969 28.8792 266.038 28.8792C265.182 28.8288 264.402 28.6904 263.697 28.4639C262.993 28.2122 262.338 27.7088 261.734 26.9538C261.13 26.1736 260.828 25.1794 260.828 23.9713V10.7202H258.903L259.205 10.4181L260.866 10.0784L261.168 6.45411L263.282 6.26535V10.0406H267.85V10.7202H263.282V23.3295C263.282 25.2423 263.685 26.5385 264.49 27.2181C265.296 27.8724 266.302 28.1996 267.51 28.1996Z" fill="white"/>
<path d="M0.317203 3.05637L0.354956 2.49008H16.5131L16.4753 2.60334L16.9661 7.92646L16.2111 8.22848L15.607 3.24514H5.3383V15.4392H14.3612C14.487 15.4644 14.6003 15.4392 14.701 15.3637C14.8016 15.2631 14.852 15.1372 14.852 14.9862L15.003 12.3813L15.607 12.3058V18.7615C15.5819 18.7615 15.3931 18.7741 15.0407 18.7992L14.8897 16.1943H5.3383V28.1996L7.94324 28.3506C7.94324 28.3758 7.93065 28.5646 7.90548 28.9169L0.317203 28.9547L0.354956 28.4261L2.31809 28.1619C2.56978 28.1367 2.72079 27.9731 2.77113 27.6711V3.77367C2.72079 3.47165 2.56978 3.30806 2.31809 3.28289L0.317203 3.05637ZM22.8523 11.5885V14.6087C24.8406 11.6891 26.7911 10.2042 28.7039 10.1539C28.855 10.1539 29.006 10.1539 29.157 10.1539L31.2711 10.4181L30.2896 12.6833C29.8114 12.2051 29.1947 11.966 28.4397 11.966C26.6024 11.9912 24.7399 13.2118 22.8523 15.628V28.1619L26.0613 28.3506C26.0613 28.3758 26.0487 28.5646 26.0235 28.9169L18.0955 28.9547C18.0955 28.7282 18.108 28.552 18.1332 28.4261L20.0963 28.1619C20.2977 28.1367 20.3984 27.9605 20.3984 27.6333V11.2487C20.348 11.0725 20.2725 10.9844 20.1718 10.9844L17.9067 10.9089L17.9444 10.3804C19.3035 10.1539 20.3354 10.0406 21.0402 10.0406C21.7449 10.0406 22.2231 10.2042 22.4748 10.5314C22.7264 10.8586 22.8523 11.2109 22.8523 11.5885ZM38.1244 11.5885V28.1619L40.9559 28.3506C40.9559 28.3758 40.9433 28.5646 40.9181 28.9169L33.3676 28.9547C33.3676 28.7282 33.3802 28.552 33.4053 28.4261L35.3685 28.1619C35.5195 28.1619 35.6201 28.0486 35.6705 27.8221V11.2487C35.6201 11.0725 35.5446 10.9844 35.444 10.9844L33.1788 10.9089L33.2166 10.3804C34.5757 10.1539 35.6076 10.0406 36.3123 10.0406C37.017 10.0406 37.4952 10.2042 37.7469 10.5314C37.9986 10.8586 38.1244 11.2109 38.1244 11.5885ZM36.8408 4.98176C36.3374 4.98176 35.9473 4.83075 35.6705 4.52872C35.3936 4.20153 35.2552 3.78626 35.2552 3.28289C35.2552 2.75435 35.3936 2.33907 35.6705 2.03705C35.9725 1.70986 36.3752 1.54627 36.8786 1.54627C37.3819 1.54627 37.7846 1.70986 38.0867 2.03705C38.4138 2.33907 38.5774 2.76693 38.5774 3.32064C38.5774 3.84918 38.4138 4.26446 38.0867 4.56648C37.7595 4.84333 37.3442 4.98176 36.8408 4.98176ZM59.9608 2.15031V26.9538C59.9608 27.734 60.1621 28.1241 60.5648 28.1241L62.83 28.2374L62.7922 28.8037C61.5841 29.005 60.3257 29.1057 59.017 29.1057C58.7401 29.0805 58.4381 28.9421 58.1109 28.6904C57.8089 28.4387 57.6327 28.1115 57.5824 27.7088C56.1478 28.6149 54.4866 29.0679 52.599 29.0679C50.7617 29.0679 49.0628 28.552 47.5024 27.5201C46.6215 26.9412 45.9042 26.0351 45.3505 24.8019C44.822 23.5435 44.5577 22.0208 44.5577 20.2338C44.5577 16.9368 45.4008 14.4199 47.0871 12.6833C48.8741 10.8208 50.9127 9.8896 53.203 9.8896C54.6125 9.8896 56.0471 10.2545 57.5069 10.9844V1.96154C57.5069 1.68469 57.4313 1.54627 57.2803 1.54627L54.9774 1.47076L55.0152 0.942223C56.6008 0.715707 57.683 0.602449 58.2619 0.602449C58.8659 0.602449 59.2938 0.766044 59.5455 1.09323C59.8223 1.42042 59.9608 1.77278 59.9608 2.15031ZM53.0898 28.3884C54.6251 28.3884 56.0974 28.0486 57.5069 27.3691V11.5885C56.3994 10.9089 55.3046 10.5691 54.2224 10.5691C52.0579 10.5691 50.3087 11.3997 48.9748 13.0608C47.666 14.7219 47.0116 17.1004 47.0116 20.1961C47.0116 25.6576 49.0377 28.3884 53.0898 28.3884ZM77.9437 27.4823H77.8305C75.5653 28.5394 73.3631 29.0679 71.2237 29.0679C67.8763 29.0679 66.102 27.7466 65.9006 25.1039C65.8755 24.9277 65.8629 24.7641 65.8629 24.6131C65.8629 22.6752 67.1339 21.379 69.6759 20.7246C71.186 20.3974 73.9042 20.0073 77.8305 19.5543V16.232C77.8305 15.175 77.7046 14.2689 77.4529 13.5139C77.2012 12.7588 76.9244 12.2051 76.6224 11.8527C76.3203 11.4752 75.9302 11.1858 75.452 10.9844C74.848 10.7327 74.1684 10.6069 73.4134 10.6069C72.6835 10.6069 71.8404 10.7957 70.884 11.1732C69.4997 11.7521 68.2665 12.4819 67.1842 13.3628L67.0332 16.3075L66.3159 16.4963V11.9282L66.6934 11.7772C68.6566 10.9215 70.1541 10.4056 71.186 10.2294C72.2179 10.0532 72.9729 9.9651 73.4511 9.9651C73.9293 9.93994 74.3824 9.93994 74.8102 9.9651C75.2633 9.99027 75.8421 10.1035 76.5469 10.3049C77.2516 10.5062 77.8556 10.7957 78.359 11.1732C78.8875 11.5255 79.3406 12.0667 79.7181 12.7966C80.0956 13.5264 80.2844 14.3947 80.2844 15.4015V26.9538C80.2844 27.734 80.4857 28.1241 80.8884 28.1241L83.1913 28.2374L83.1536 28.8037C81.7441 29.005 80.4857 29.1057 79.3783 29.1057C79.0763 29.0805 78.7617 28.9295 78.4345 28.6527C78.1073 28.3506 77.9437 27.9605 77.9437 27.4823ZM71.9033 28.4639C73.7658 28.4639 75.7415 27.8095 77.8305 26.5008V20.2716C74.0552 20.3974 71.6768 20.6239 70.6952 20.9511C69.7388 21.2531 69.0718 21.7439 68.6943 22.4235C68.342 23.0779 68.1658 23.7322 68.1658 24.3866C68.1658 24.5125 68.1658 24.6383 68.1658 24.7641C68.2413 26.0729 68.6314 27.0167 69.3361 27.5956C70.0408 28.1745 70.8966 28.4639 71.9033 28.4639ZM87.988 38.3551L87.9125 37.8266L91.4235 37.3735C91.5996 37.3484 91.7129 37.1722 91.7632 36.845L93.0091 28.9169H91.7632L85.4585 11.362L85.4208 11.3242C85.2949 11.0222 85.0936 10.846 84.8167 10.7957L83.1179 10.6447C83.0927 10.4936 83.0801 10.3049 83.0801 10.0784L91.0082 10.0406C91.0082 10.0658 91.0208 10.2545 91.0459 10.6069L88.1012 10.8334L93.6886 27.9354L100.711 11.3242C100.786 11.1732 100.736 11.0473 100.56 10.9467C100.409 10.846 100.245 10.7831 100.069 10.7579L98.4077 10.6447C98.3825 10.4936 98.3699 10.3049 98.3699 10.0784L105.279 10.0406C105.279 10.0658 105.291 10.2545 105.316 10.6069L101.956 10.9467L94.0284 28.9169L92.5938 37.5623L95.8783 37.751C95.9286 38.1034 95.9538 38.2922 95.9538 38.3173L87.988 38.3551ZM119.593 28.9547L119.63 28.4261L121.593 28.1619C121.82 28.1367 121.933 27.9605 121.933 27.6333V11.2864C121.883 11.0851 121.807 10.9844 121.707 10.9844L119.404 10.9089L119.442 10.3804C121.027 10.1539 122.097 10.0406 122.651 10.0406C123.657 10.0406 124.224 10.4811 124.349 11.362H124.387V12.1548C126.451 10.7453 128.427 10.0029 130.314 9.92735C132.152 9.92735 133.548 10.2923 134.505 11.0222C134.933 11.3494 135.31 11.8653 135.637 12.57C135.99 13.2496 136.166 14.0676 136.166 15.024V28.1619L138.997 28.3506C138.997 28.3758 138.985 28.5646 138.96 28.9169L131.409 28.9547C131.409 28.7282 131.422 28.552 131.447 28.4261L133.41 28.1619C133.611 28.1367 133.712 27.9605 133.712 27.6333V15.9678C133.712 14.961 133.574 14.1053 133.297 13.4006C133.045 12.6959 132.756 12.1799 132.428 11.8527C132.101 11.5255 131.699 11.2739 131.22 11.0977C130.667 10.8963 130.088 10.7957 129.484 10.7957C127.974 10.8208 126.275 11.4123 124.387 12.57V28.1619L127.219 28.3506C127.219 28.3758 127.206 28.5646 127.181 28.9169L119.593 28.9547ZM146.258 11.5885V28.1619L149.089 28.3506C149.089 28.3758 149.077 28.5646 149.051 28.9169L141.501 28.9547C141.501 28.7282 141.513 28.552 141.539 28.4261L143.502 28.1619C143.653 28.1619 143.753 28.0486 143.804 27.8221V11.2487C143.753 11.0725 143.678 10.9844 143.577 10.9844L141.312 10.9089L141.35 10.3804C142.709 10.1539 143.741 10.0406 144.446 10.0406C145.15 10.0406 145.628 10.2042 145.88 10.5314C146.132 10.8586 146.258 11.2109 146.258 11.5885ZM144.974 4.98176C144.471 4.98176 144.081 4.83075 143.804 4.52872C143.527 4.20153 143.389 3.78626 143.389 3.28289C143.389 2.75435 143.527 2.33907 143.804 2.03705C144.106 1.70986 144.509 1.54627 145.012 1.54627C145.515 1.54627 145.918 1.70986 146.22 2.03705C146.547 2.33907 146.711 2.76693 146.711 3.32064C146.711 3.84918 146.547 4.26446 146.22 4.56648C145.893 4.84333 145.477 4.98176 144.974 4.98176ZM151.028 32.8055C151.028 30.4396 152.463 28.4136 155.332 26.7273C154.099 26.0477 153.482 25.192 153.482 24.1601C153.482 23.103 153.986 22.2851 154.992 21.7062C153.029 20.8253 152.048 18.9628 152.048 16.1188C152.048 14.1808 152.778 12.6581 154.237 11.5507C155.697 10.4433 157.56 9.8896 159.825 9.8896C160.882 9.8896 161.889 10.0154 162.845 10.2671L169.15 9.8896L169.074 11.3242L164.582 11.0599C166.218 12.117 167.036 13.7152 167.036 15.8545C167.036 17.9938 166.343 19.6298 164.959 20.7624C163.575 21.8949 161.788 22.4612 159.598 22.4612C158.138 22.4612 156.943 22.3354 156.012 22.0837C155.584 22.5619 155.37 23.1156 155.37 23.7448C155.37 24.8774 155.823 25.6954 156.729 26.1987C157.711 26.7776 159.447 27.281 161.939 27.7088C162.518 27.8095 162.933 27.8976 163.185 27.9731C163.462 28.0235 163.852 28.099 164.355 28.1996C164.858 28.3003 165.236 28.401 165.488 28.5017C165.739 28.5772 166.054 28.703 166.431 28.8792C166.834 29.0302 167.136 29.1812 167.338 29.3322C167.539 29.4832 167.765 29.672 168.017 29.8985C168.269 30.125 168.458 30.3767 168.583 30.6536C168.86 31.3079 168.999 32.063 168.999 32.9187C168.999 33.7996 168.734 34.6302 168.206 35.4104C167.677 36.1906 166.947 36.7821 166.016 37.1848C164.204 37.965 162.128 38.3551 159.787 38.3551C156.691 38.3551 154.451 37.8014 153.067 36.694C151.708 35.6117 151.028 34.3156 151.028 32.8055ZM155.936 27.0293C154.3 28.8163 153.482 30.5655 153.482 32.2769C153.482 33.9884 153.973 35.3097 154.955 36.2409C155.961 37.1973 157.484 37.6755 159.523 37.6755C161.561 37.6755 163.235 37.2854 164.544 36.5052C165.878 35.725 166.545 34.4792 166.545 32.7677C166.545 31.4086 166.117 30.4145 165.261 29.7852C164.431 29.156 163.248 28.6904 161.712 28.3884C158.617 27.8095 156.691 27.3565 155.936 27.0293ZM159.711 10.3804C158.151 10.3804 156.893 10.8712 155.936 11.8527C154.98 12.8091 154.502 14.2563 154.502 16.1943C154.502 18.1323 154.867 19.5794 155.596 20.5358C156.326 21.4922 157.509 21.9704 159.145 21.9704C160.806 21.9704 162.102 21.4293 163.034 20.3471C163.99 19.2397 164.468 17.7547 164.468 15.8923C164.468 12.2177 162.883 10.3804 159.711 10.3804ZM176.342 2.15031V12.3813C179.639 10.1161 182.621 9.4114 185.289 10.2671C185.893 10.4433 186.409 10.7076 186.837 11.0599C187.29 11.3871 187.68 11.8905 188.007 12.57C188.335 13.2496 188.498 14.0676 188.498 15.024V28.1619L191.33 28.3506C191.33 28.3758 191.317 28.5646 191.292 28.9169L183.741 28.9547C183.741 28.7282 183.754 28.552 183.779 28.4261L185.742 28.1619C185.893 28.1619 185.994 28.0486 186.044 27.8221V16.0055C186.044 15.024 185.906 14.1808 185.629 13.4761C185.377 12.7462 185.075 12.2177 184.723 11.8905C184.371 11.5633 183.955 11.3116 183.477 11.1354C182.823 10.8838 182.244 10.7831 181.74 10.8334C180.105 10.8838 178.305 11.5507 176.342 12.8343V28.1619L179.173 28.3506C179.173 28.3758 179.161 28.5646 179.136 28.9169L171.585 28.9547C171.585 28.7282 171.598 28.552 171.623 28.4261L173.586 28.1619C173.787 28.1367 173.888 27.9605 173.888 27.6333V1.96154C173.888 1.68469 173.812 1.54627 173.661 1.54627L171.396 1.47076L171.434 0.942223C172.793 0.715707 173.825 0.602449 174.53 0.602449C175.234 0.602449 175.713 0.766044 175.964 1.09323C176.216 1.42042 176.342 1.77278 176.342 2.15031ZM200.706 28.1996L202.178 28.1241L202.291 28.5017C202.266 28.5017 202.09 28.5394 201.763 28.6149C201.008 28.7911 200.165 28.8792 199.234 28.8792C198.378 28.8288 197.598 28.6904 196.893 28.4639C196.188 28.2122 195.534 27.7088 194.93 26.9538C194.326 26.1736 194.024 25.1794 194.024 23.9713V10.7202H192.098L192.4 10.4181L194.061 10.0784L194.363 6.45411L196.478 6.26535V10.0406H201.046V10.7202H196.478V23.3295C196.478 25.2423 196.88 26.5385 197.686 27.2181C198.491 27.8724 199.498 28.1996 200.706 28.1996ZM225.564 29.0679C222.946 29.0679 220.819 28.3129 219.183 26.8028C217.573 25.2927 216.767 22.9898 216.767 19.894C216.767 16.7732 217.623 14.3318 219.334 12.57C221.071 10.7831 223.248 9.8896 225.866 9.8896C228.483 9.8896 230.61 10.6447 232.246 12.1548C233.882 13.6649 234.7 15.9804 234.7 19.1012C234.7 22.197 233.831 24.6383 232.095 26.4253C230.383 28.187 228.206 29.0679 225.564 29.0679ZM225.828 10.5691C223.94 10.5691 222.367 11.3871 221.109 13.0231C219.85 14.659 219.221 16.8864 219.221 19.7053C219.221 22.499 219.813 24.6509 220.996 26.161C222.204 27.6459 223.751 28.3884 225.639 28.3884C227.527 28.3884 229.1 27.5704 230.358 25.9345C231.617 24.2985 232.246 22.0837 232.246 19.29C232.246 16.4963 231.642 14.3444 230.434 12.8343C229.251 11.3242 227.716 10.5691 225.828 10.5691ZM237.427 10.6447L237.39 10.0784L242.486 10.0406V23.1785C242.486 24.1601 242.625 25.0158 242.902 25.7457C243.178 26.4504 243.48 26.9664 243.808 27.2936C244.16 27.6208 244.563 27.8724 245.016 28.0486C245.72 28.3003 246.312 28.401 246.79 28.3506C248.325 28.3255 250.075 27.5327 252.038 25.9722V11.362C251.937 11.0599 251.723 10.8838 251.396 10.8334L249.433 10.6447C249.408 10.4936 249.395 10.3049 249.395 10.0784L254.492 10.0406V27.1803C254.542 27.8095 254.743 28.1241 255.096 28.1241L257.361 28.2374L257.323 28.8037C256.115 29.005 254.857 29.1057 253.548 29.1057C253.246 29.0805 252.919 28.9169 252.566 28.6149C252.214 28.2877 252.038 27.885 252.038 27.4068V26.7273C249.747 28.2626 247.583 29.0302 245.544 29.0302C244.688 29.0302 243.682 28.8163 242.524 28.3884C241.769 28.1115 241.165 27.5956 240.712 26.8405C240.259 26.0603 240.032 25.0913 240.032 23.9336V11.3997C240.032 11.2739 239.957 11.1606 239.806 11.0599C239.68 10.9341 239.542 10.8586 239.391 10.8334L237.427 10.6447ZM267.51 28.1996L268.983 28.1241L269.096 28.5017C269.071 28.5017 268.895 28.5394 268.567 28.6149C267.812 28.7911 266.969 28.8792 266.038 28.8792C265.182 28.8288 264.402 28.6904 263.697 28.4639C262.993 28.2122 262.338 27.7088 261.734 26.9538C261.13 26.1736 260.828 25.1794 260.828 23.9713V10.7202H258.903L259.205 10.4181L260.866 10.0784L261.168 6.45411L263.282 6.26535V10.0406H267.85V10.7202H263.282V23.3295C263.282 25.2423 263.685 26.5385 264.49 27.2181C265.296 27.8724 266.302 28.1996 267.51 28.1996Z" fill="url(#paint0_linear_14_2596)"/>
<defs>
<linearGradient id="paint0_linear_14_2596" x1="73.8017" y1="-7.08306" x2="202.382" y2="99.1688" gradientUnits="userSpaceOnUse">
<stop stop-color="#FFB905"/>
<stop offset="1" stop-color="#F4DC00"/>
</linearGradient>
</defs>
</svg>
