<svg width="181" height="79" viewBox="0 0 181 79" fill="none" xmlns="http://www.w3.org/2000/svg">
<g filter="url(#filter0_d_106_120)">
<rect x="11.9287" y="11.1429" width="157.143" height="56.6977" rx="28.3489" fill="url(#paint0_linear_106_120)"/>
</g>
<path d="M74.9849 35.0411C74.9105 34.3448 74.5968 33.8026 74.044 33.4146C73.4965 33.0266 72.7842 32.8325 71.9072 32.8325C71.2906 32.8325 70.7617 32.9256 70.3205 33.1116C69.8793 33.2976 69.5418 33.5501 69.3079 33.8691C69.074 34.188 68.9544 34.5521 68.9491 34.9614C68.9491 35.3016 69.0262 35.5966 69.1803 35.8464C69.3398 36.0963 69.5551 36.3089 69.8262 36.4843C70.0972 36.6544 70.3976 36.7979 70.7271 36.9149C71.0567 37.0318 71.3889 37.1301 71.7238 37.2099L73.2547 37.5926C73.8713 37.7361 74.464 37.9301 75.0327 38.1746C75.6068 38.4192 76.1197 38.7275 76.5716 39.0995C77.0287 39.4716 77.3901 39.9208 77.6559 40.447C77.9217 40.9733 78.0546 41.5899 78.0546 42.2968C78.0546 43.2536 77.8101 44.0961 77.321 44.8244C76.832 45.5473 76.1251 46.1134 75.2002 46.5227C74.2806 46.9267 73.167 47.1286 71.8593 47.1286C70.5889 47.1286 69.486 46.932 68.5504 46.5386C67.6202 46.1453 66.892 45.5712 66.3657 44.8164C65.8448 44.0616 65.5631 43.142 65.5206 42.0576H68.4308C68.4734 42.6264 68.6488 43.0995 68.9571 43.4769C69.2654 43.8543 69.6667 44.136 70.161 44.322C70.6607 44.5081 71.2188 44.6011 71.8354 44.6011C72.4786 44.6011 73.042 44.5054 73.5258 44.3141C74.0148 44.1174 74.3975 43.8463 74.6739 43.5008C74.9503 43.15 75.0912 42.7407 75.0965 42.2729C75.0912 41.8477 74.9663 41.4968 74.7218 41.2204C74.4772 40.9387 74.1344 40.7048 73.6932 40.5188C73.2573 40.3274 72.747 40.1573 72.1623 40.0085L70.3046 39.5301C68.9597 39.1846 67.8966 38.661 67.1152 37.9594C66.3392 37.2524 65.9511 36.3142 65.9511 35.1448C65.9511 34.1827 66.2116 33.3402 66.7325 32.6173C67.2588 31.8943 67.9737 31.3336 68.8773 30.9349C69.781 30.5309 70.8042 30.3289 71.9471 30.3289C73.1058 30.3289 74.1211 30.5309 74.9928 30.9349C75.8699 31.3336 76.5583 31.889 77.0579 32.6013C77.5576 33.3083 77.8154 34.1216 77.8313 35.0411H74.9849ZM80.6918 46.8815V30.5522H86.8152C88.0697 30.5522 89.1222 30.7861 89.9727 31.2538C90.8285 31.7216 91.4743 32.3648 91.9102 33.1834C92.3514 33.9966 92.572 34.9215 92.572 35.9581C92.572 37.0052 92.3514 37.9354 91.9102 38.7487C91.469 39.562 90.8178 40.2025 89.9567 40.6703C89.0956 41.1327 88.0352 41.364 86.7754 41.364H82.717V38.9321H86.3767C87.1103 38.9321 87.7109 38.8045 88.1787 38.5494C88.6464 38.2942 88.9919 37.9434 89.2152 37.4969C89.4438 37.0504 89.5581 36.5375 89.5581 35.9581C89.5581 35.3787 89.4438 34.8684 89.2152 34.4272C88.9919 33.986 88.6438 33.6432 88.1707 33.3986C87.7029 33.1488 87.0996 33.0239 86.3608 33.0239H83.6498V46.8815H80.6918ZM98.0994 30.5522V46.8815H95.1413V30.5522H98.0994ZM114.722 30.5522V46.8815H112.091L104.396 35.7587H104.261V46.8815H101.303V30.5522H103.95L111.636 41.6829H111.78V30.5522H114.722Z" fill="white"/>
<defs>
<filter id="filter0_d_106_120" x="0.928711" y="0.142944" width="179.143" height="78.6977" filterUnits="userSpaceOnUse" color-interpolation-filters="sRGB">
<feFlood flood-opacity="0" result="BackgroundImageFix"/>
<feColorMatrix in="SourceAlpha" type="matrix" values="0 0 0 0 0 0 0 0 0 0 0 0 0 0 0 0 0 0 127 0" result="hardAlpha"/>
<feOffset/>
<feGaussianBlur stdDeviation="5.5"/>
<feComposite in2="hardAlpha" operator="out"/>
<feColorMatrix type="matrix" values="0 0 0 0 0.807843 0 0 0 0 0.203922 0 0 0 0 0.0705882 0 0 0 1 0"/>
<feBlend mode="normal" in2="BackgroundImageFix" result="effect1_dropShadow_106_120"/>
<feBlend mode="normal" in="SourceGraphic" in2="effect1_dropShadow_106_120" result="shape"/>
</filter>
<linearGradient id="paint0_linear_106_120" x1="55.5119" y1="11.1429" x2="164.527" y2="52.2985" gradientUnits="userSpaceOnUse">
<stop stop-color="#FFB905"/>
<stop offset="1" stop-color="#F4DC00"/>
</linearGradient>
</defs>
</svg>
