<svg width="291" height="46" viewBox="0 0 291 46" fill="none" xmlns="http://www.w3.org/2000/svg">
<path d="M8.7825 10.4901C8.7825 10.5152 8.79508 10.704 8.82025 11.0564L5.87555 11.3206L12.1425 35.9354L19.1645 10.4901H19.7308L19.6175 10.7921L19.7685 10.4901L26.413 36.0109L33.0574 11.8114C33.0574 11.5597 32.9442 11.4213 32.7177 11.3961L29.1689 11.0941L29.1312 10.5278L36.5307 10.4901C36.5307 10.5152 36.5433 10.704 36.5684 11.0564L34.1145 11.2829L26.6395 36.9169H24.3366L18.6359 14.3786L12.4068 36.9169H10.0661L3.57264 11.5849C3.49713 11.4087 3.37129 11.3081 3.19511 11.2829L1.23197 11.0941L1.19422 10.5278L8.7825 10.4901ZM42.8262 10.1503V20.3813C46.1233 18.1161 49.1058 17.4114 51.7736 18.2671C52.3777 18.4433 52.8936 18.7076 53.3215 19.0599C53.7745 19.3871 54.1646 19.8905 54.4918 20.57C54.819 21.2496 54.9826 22.0676 54.9826 23.024V36.1619L57.814 36.3506C57.814 36.3758 57.8015 36.5646 57.7763 36.9169L50.2258 36.9547C50.2258 36.7282 50.2383 36.552 50.2635 36.4261L52.2266 36.1619C52.3777 36.1619 52.4783 36.0486 52.5287 35.8221V24.0055C52.5287 23.024 52.3902 22.1808 52.1134 21.4761C51.8617 20.7462 51.5597 20.2177 51.2073 19.8905C50.855 19.5633 50.4397 19.3116 49.9615 19.1354C49.3071 18.8838 48.7282 18.7831 48.2249 18.8334C46.5889 18.8838 44.7894 19.5507 42.8262 20.8343V36.1619L45.6577 36.3506C45.6577 36.3758 45.6451 36.5646 45.6199 36.9169L38.0694 36.9547C38.0694 36.7282 38.082 36.552 38.1072 36.4261L40.0703 36.1619C40.2716 36.1367 40.3723 35.9605 40.3723 35.6333V9.96154C40.3723 9.68469 40.2968 9.54627 40.1458 9.54627L37.8806 9.47076L37.9184 8.94222C39.2775 8.71571 40.3094 8.60245 41.0141 8.60245C41.7188 8.60245 42.197 8.76604 42.4487 9.09323C42.7004 9.42042 42.8262 9.77278 42.8262 10.1503ZM61.2253 28.2338C61.2253 33.6702 63.3395 36.3884 67.5678 36.3884C68.6752 36.3884 69.8581 36.2751 71.1165 36.0486C72.375 35.7969 73.1803 35.5704 73.5327 35.3691L73.797 35.7466C73.2181 36.1241 72.2617 36.4387 70.9278 36.6904C69.619 36.9421 68.4109 37.0679 67.3035 37.0679C66.2213 37.0679 65.2397 36.9547 64.3588 36.7282C63.5031 36.5017 62.6222 36.099 61.7161 35.5201C60.8101 34.9412 60.0928 34.0351 59.5642 32.8019C59.0357 31.5686 58.7714 30.0585 58.7714 28.2716C58.7714 24.9493 59.6271 22.4073 61.3386 20.6455C63.1256 18.8082 65.202 17.8896 67.5678 17.8896C69.9336 17.8896 71.7332 18.544 72.9664 19.8527C74.2248 21.1615 74.854 22.9988 74.854 25.3646C74.854 25.868 74.8163 26.4091 74.7408 26.988H61.2631C61.2379 27.2648 61.2253 27.6801 61.2253 28.2338ZM72.6266 25.1004C72.6266 23.2127 72.2114 21.6774 71.3808 20.4945C70.5502 19.2864 69.4177 18.6824 67.9831 18.6824C66.1206 18.6824 64.5476 19.5004 63.264 21.1363C62.2321 22.4199 61.5903 24.1314 61.3386 26.2707H72.5889C72.6141 25.9938 72.6266 25.6037 72.6266 25.1004ZM80.3229 28.2338C80.3229 33.6702 82.437 36.3884 86.6653 36.3884C87.7727 36.3884 88.9556 36.2751 90.2141 36.0486C91.4725 35.7969 92.2779 35.5704 92.6302 35.3691L92.8945 35.7466C92.3156 36.1241 91.3592 36.4387 90.0253 36.6904C88.7165 36.9421 87.5085 37.0679 86.401 37.0679C85.3188 37.0679 84.3372 36.9547 83.4563 36.7282C82.6006 36.5017 81.7197 36.099 80.8136 35.5201C79.9076 34.9412 79.1903 34.0351 78.6617 32.8019C78.1332 31.5686 77.8689 30.0585 77.8689 28.2716C77.8689 24.9493 78.7247 22.4073 80.4361 20.6455C82.2231 18.8082 84.2995 17.8896 86.6653 17.8896C89.0311 17.8896 90.8307 18.544 92.0639 19.8527C93.3224 21.1615 93.9516 22.9988 93.9516 25.3646C93.9516 25.868 93.9138 26.4091 93.8383 26.988H80.3606C80.3354 27.2648 80.3229 27.6801 80.3229 28.2338ZM91.7242 25.1004C91.7242 23.2127 91.3089 21.6774 90.4783 20.4945C89.6478 19.2864 88.5152 18.6824 87.0806 18.6824C85.2181 18.6824 83.6451 19.5004 82.3615 21.1363C81.3296 22.4199 80.6878 24.1314 80.4361 26.2707H91.6864C91.7116 25.9938 91.7242 25.6037 91.7242 25.1004ZM96.9842 36.9547L97.0219 36.4261L98.9851 36.1619C99.1612 36.1367 99.2745 36.0109 99.3248 35.7844V9.96154C99.3248 9.68469 99.2493 9.54627 99.0983 9.54627L96.7954 9.47076L96.8332 8.94222C98.4188 8.71571 99.501 8.60245 100.08 8.60245C100.684 8.60245 101.112 8.76604 101.363 9.09323C101.64 9.42042 101.779 9.77278 101.779 10.1503V36.1619L104.61 36.3506C104.61 36.3758 104.598 36.5646 104.572 36.9169L96.9842 36.9547ZM127.884 37.0679C125.266 37.0679 123.139 36.3129 121.503 34.8028C119.893 33.2927 119.087 30.9898 119.087 27.894C119.087 24.7732 119.943 22.3318 121.654 20.57C123.391 18.7831 125.568 17.8896 128.186 17.8896C130.803 17.8896 132.93 18.6447 134.566 20.1548C136.202 21.6649 137.02 23.9804 137.02 27.1012C137.02 30.197 136.151 32.6383 134.415 34.4253C132.703 36.187 130.526 37.0679 127.884 37.0679ZM128.148 18.5691C126.26 18.5691 124.687 19.3871 123.429 21.0231C122.17 22.659 121.541 24.8864 121.541 27.7053C121.541 30.499 122.133 32.6509 123.315 34.161C124.524 35.6459 126.071 36.3884 127.959 36.3884C129.847 36.3884 131.42 35.5704 132.678 33.9345C133.937 32.2985 134.566 30.0837 134.566 27.29C134.566 24.4963 133.962 22.3444 132.754 20.8343C131.571 19.3242 130.035 18.5691 128.148 18.5691ZM138.733 36.9547L138.771 36.4261L140.734 36.1619C140.961 36.1367 141.074 35.9605 141.074 35.6333V18.7202H139.149L139.451 18.4181L141.074 18.0784V13.4725C141.074 11.7359 141.64 10.4901 142.773 9.73503C143.905 8.95481 145.227 8.5647 146.737 8.5647C147.744 8.5647 148.599 8.70312 149.304 8.97998L149.191 9.24424C148.587 9.16874 148.058 9.13099 147.605 9.13099C147.177 9.13099 146.749 9.19391 146.322 9.31975C145.919 9.44559 145.491 9.67211 145.038 9.9993C144.031 10.7292 143.528 12.1764 143.528 14.3409V18.0406H148.096V18.7202H143.528V36.1619L146.737 36.3506C146.737 36.3758 146.724 36.5646 146.699 36.9169L138.733 36.9547ZM163.846 11.0564L163.883 10.4901H180.041L180.004 10.6033L180.494 15.9265L179.739 16.2285L179.135 11.2451H168.867V23.4392H177.89C178.015 23.4644 178.129 23.4392 178.229 23.3637C178.33 23.2631 178.38 23.1372 178.38 22.9862L178.531 20.3813L179.135 20.3058V26.7615C179.11 26.7615 178.921 26.7741 178.569 26.7992L178.418 24.1943H168.867V36.1996L171.472 36.3506C171.472 36.3758 171.459 36.5646 171.434 36.9169L163.846 36.9547L163.883 36.4261L165.846 36.1619C166.098 36.1367 166.249 35.9731 166.299 35.6711V11.7737C166.249 11.4717 166.098 11.3081 165.846 11.2829L163.846 11.0564ZM189.969 37.0679C187.351 37.0679 185.225 36.3129 183.589 34.8028C181.978 33.2927 181.173 30.9898 181.173 27.894C181.173 24.7732 182.028 22.3318 183.74 20.57C185.476 18.7831 187.653 17.8896 190.271 17.8896C192.888 17.8896 195.015 18.6447 196.651 20.1548C198.287 21.6649 199.105 23.9804 199.105 27.1012C199.105 30.197 198.237 32.6383 196.5 34.4253C194.789 36.187 192.612 37.0679 189.969 37.0679ZM190.233 18.5691C188.346 18.5691 186.773 19.3871 185.514 21.0231C184.256 22.659 183.626 24.8864 183.626 27.7053C183.626 30.499 184.218 32.6509 185.401 34.161C186.609 35.6459 188.157 36.3884 190.044 36.3884C191.932 36.3884 193.505 35.5704 194.764 33.9345C196.022 32.2985 196.651 30.0837 196.651 27.29C196.651 24.4963 196.047 22.3444 194.839 20.8343C193.656 19.3242 192.121 18.5691 190.233 18.5691ZM206.142 19.5885V22.6087C208.13 19.6891 210.081 18.2042 211.993 18.1539C212.144 18.1539 212.295 18.1539 212.446 18.1539L214.561 18.4181L213.579 20.6833C213.101 20.2051 212.484 19.966 211.729 19.966C209.892 19.9912 208.029 21.2118 206.142 23.628V36.1619L209.351 36.3506C209.351 36.3758 209.338 36.5646 209.313 36.9169L201.385 36.9547C201.385 36.7282 201.398 36.552 201.423 36.4261L203.386 36.1619C203.587 36.1367 203.688 35.9605 203.688 35.6333V19.2487C203.638 19.0725 203.562 18.9844 203.461 18.9844L201.196 18.9089L201.234 18.3804C202.593 18.1539 203.625 18.0406 204.33 18.0406C205.034 18.0406 205.513 18.2042 205.764 18.5314C206.016 18.8586 206.142 19.2109 206.142 19.5885ZM224.8 36.1996L226.273 36.1241L226.386 36.5017C226.361 36.5017 226.184 36.5394 225.857 36.6149C225.102 36.7911 224.259 36.8792 223.328 36.8792C222.472 36.8288 221.692 36.6904 220.987 36.4639C220.282 36.2122 219.628 35.7088 219.024 34.9538C218.42 34.1736 218.118 33.1794 218.118 31.9713V18.7202H216.193L216.495 18.4181L218.156 18.0784L218.458 14.4541L220.572 14.2653V18.0406H225.14V18.7202H220.572V31.3295C220.572 33.2423 220.975 34.5385 221.78 35.2181C222.585 35.8724 223.592 36.1996 224.8 36.1996ZM229.041 18.6447L229.003 18.0784L234.1 18.0406V31.1785C234.1 32.1601 234.238 33.0158 234.515 33.7457C234.792 34.4504 235.094 34.9664 235.421 35.2936C235.774 35.6208 236.176 35.8724 236.629 36.0486C237.334 36.3003 237.926 36.401 238.404 36.3506C239.939 36.3255 241.688 35.5327 243.651 33.9722V19.362C243.551 19.0599 243.337 18.8838 243.01 18.8334L241.046 18.6447C241.021 18.4936 241.009 18.3049 241.009 18.0784L246.105 18.0406V35.1803C246.156 35.8095 246.357 36.1241 246.709 36.1241L248.975 36.2374L248.937 36.8037C247.729 37.005 246.47 37.1057 245.162 37.1057C244.859 37.0805 244.532 36.9169 244.18 36.6149C243.828 36.2877 243.651 35.885 243.651 35.4068V34.7273C241.361 36.2626 239.197 37.0302 237.158 37.0302C236.302 37.0302 235.295 36.8163 234.138 36.3884C233.383 36.1115 232.779 35.5956 232.326 34.8405C231.873 34.0603 231.646 33.0913 231.646 31.9336V19.3997C231.646 19.2739 231.571 19.1606 231.42 19.0599C231.294 18.9341 231.155 18.8586 231.004 18.8334L229.041 18.6447ZM251.82 36.9547L251.858 36.4261L253.821 36.1619C254.048 36.1367 254.161 35.9605 254.161 35.6333V19.2864C254.11 19.0851 254.035 18.9844 253.934 18.9844L251.631 18.9089L251.669 18.3804C253.255 18.1539 254.324 18.0406 254.878 18.0406C255.885 18.0406 256.451 18.4811 256.577 19.362H256.615V20.1548C258.679 18.7453 260.654 18.0029 262.542 17.9274C264.379 17.9274 265.776 18.2923 266.732 19.0222C267.16 19.3494 267.538 19.8653 267.865 20.57C268.217 21.2496 268.394 22.0676 268.394 23.024V36.1619L271.225 36.3506C271.225 36.3758 271.212 36.5646 271.187 36.9169L263.637 36.9547C263.637 36.7282 263.649 36.552 263.674 36.4261L265.638 36.1619C265.839 36.1367 265.94 35.9605 265.94 35.6333V23.9678C265.94 22.961 265.801 22.1053 265.524 21.4006C265.273 20.6959 264.983 20.1799 264.656 19.8527C264.329 19.5255 263.926 19.2739 263.448 19.0977C262.894 18.8963 262.315 18.7957 261.711 18.7957C260.201 18.8208 258.502 19.4123 256.615 20.57V36.1619L259.446 36.3506C259.446 36.3758 259.434 36.5646 259.408 36.9169L251.82 36.9547ZM275.427 28.2338C275.427 33.6702 277.541 36.3884 281.77 36.3884C282.877 36.3884 284.06 36.2751 285.319 36.0486C286.577 35.7969 287.382 35.5704 287.735 35.3691L287.999 35.7466C287.42 36.1241 286.464 36.4387 285.13 36.6904C283.821 36.9421 282.613 37.0679 281.506 37.0679C280.423 37.0679 279.442 36.9547 278.561 36.7282C277.705 36.5017 276.824 36.099 275.918 35.5201C275.012 34.9412 274.295 34.0351 273.766 32.8019C273.238 31.5686 272.973 30.0585 272.973 28.2716C272.973 24.9493 273.829 22.4073 275.541 20.6455C277.328 18.8082 279.404 17.8896 281.77 17.8896C284.136 17.8896 285.935 18.544 287.168 19.8527C288.427 21.1615 289.056 22.9988 289.056 25.3646C289.056 25.868 289.018 26.4091 288.943 26.988H275.465C275.44 27.2648 275.427 27.6801 275.427 28.2338ZM286.829 25.1004C286.829 23.2127 286.413 21.6774 285.583 20.4945C284.752 19.2864 283.62 18.6824 282.185 18.6824C280.323 18.6824 278.75 19.5004 277.466 21.1363C276.434 22.4199 275.792 24.1314 275.541 26.2707H286.791C286.816 25.9938 286.829 25.6037 286.829 25.1004Z" fill="white"/>
<path d="M8.7825 10.4901C8.7825 10.5152 8.79508 10.704 8.82025 11.0564L5.87555 11.3206L12.1425 35.9354L19.1645 10.4901H19.7308L19.6175 10.7921L19.7685 10.4901L26.413 36.0109L33.0574 11.8114C33.0574 11.5597 32.9442 11.4213 32.7177 11.3961L29.1689 11.0941L29.1312 10.5278L36.5307 10.4901C36.5307 10.5152 36.5433 10.704 36.5684 11.0564L34.1145 11.2829L26.6395 36.9169H24.3366L18.6359 14.3786L12.4068 36.9169H10.0661L3.57264 11.5849C3.49713 11.4087 3.37129 11.3081 3.19511 11.2829L1.23197 11.0941L1.19422 10.5278L8.7825 10.4901ZM42.8262 10.1503V20.3813C46.1233 18.1161 49.1058 17.4114 51.7736 18.2671C52.3777 18.4433 52.8936 18.7076 53.3215 19.0599C53.7745 19.3871 54.1646 19.8905 54.4918 20.57C54.819 21.2496 54.9826 22.0676 54.9826 23.024V36.1619L57.814 36.3506C57.814 36.3758 57.8015 36.5646 57.7763 36.9169L50.2258 36.9547C50.2258 36.7282 50.2383 36.552 50.2635 36.4261L52.2266 36.1619C52.3777 36.1619 52.4783 36.0486 52.5287 35.8221V24.0055C52.5287 23.024 52.3902 22.1808 52.1134 21.4761C51.8617 20.7462 51.5597 20.2177 51.2073 19.8905C50.855 19.5633 50.4397 19.3116 49.9615 19.1354C49.3071 18.8838 48.7282 18.7831 48.2249 18.8334C46.5889 18.8838 44.7894 19.5507 42.8262 20.8343V36.1619L45.6577 36.3506C45.6577 36.3758 45.6451 36.5646 45.6199 36.9169L38.0694 36.9547C38.0694 36.7282 38.082 36.552 38.1072 36.4261L40.0703 36.1619C40.2716 36.1367 40.3723 35.9605 40.3723 35.6333V9.96154C40.3723 9.68469 40.2968 9.54627 40.1458 9.54627L37.8806 9.47076L37.9184 8.94222C39.2775 8.71571 40.3094 8.60245 41.0141 8.60245C41.7188 8.60245 42.197 8.76604 42.4487 9.09323C42.7004 9.42042 42.8262 9.77278 42.8262 10.1503ZM61.2253 28.2338C61.2253 33.6702 63.3395 36.3884 67.5678 36.3884C68.6752 36.3884 69.8581 36.2751 71.1165 36.0486C72.375 35.7969 73.1803 35.5704 73.5327 35.3691L73.797 35.7466C73.2181 36.1241 72.2617 36.4387 70.9278 36.6904C69.619 36.9421 68.4109 37.0679 67.3035 37.0679C66.2213 37.0679 65.2397 36.9547 64.3588 36.7282C63.5031 36.5017 62.6222 36.099 61.7161 35.5201C60.8101 34.9412 60.0928 34.0351 59.5642 32.8019C59.0357 31.5686 58.7714 30.0585 58.7714 28.2716C58.7714 24.9493 59.6271 22.4073 61.3386 20.6455C63.1256 18.8082 65.202 17.8896 67.5678 17.8896C69.9336 17.8896 71.7332 18.544 72.9664 19.8527C74.2248 21.1615 74.854 22.9988 74.854 25.3646C74.854 25.868 74.8163 26.4091 74.7408 26.988H61.2631C61.2379 27.2648 61.2253 27.6801 61.2253 28.2338ZM72.6266 25.1004C72.6266 23.2127 72.2114 21.6774 71.3808 20.4945C70.5502 19.2864 69.4177 18.6824 67.9831 18.6824C66.1206 18.6824 64.5476 19.5004 63.264 21.1363C62.2321 22.4199 61.5903 24.1314 61.3386 26.2707H72.5889C72.6141 25.9938 72.6266 25.6037 72.6266 25.1004ZM80.3229 28.2338C80.3229 33.6702 82.437 36.3884 86.6653 36.3884C87.7727 36.3884 88.9556 36.2751 90.2141 36.0486C91.4725 35.7969 92.2779 35.5704 92.6302 35.3691L92.8945 35.7466C92.3156 36.1241 91.3592 36.4387 90.0253 36.6904C88.7165 36.9421 87.5085 37.0679 86.401 37.0679C85.3188 37.0679 84.3372 36.9547 83.4563 36.7282C82.6006 36.5017 81.7197 36.099 80.8136 35.5201C79.9076 34.9412 79.1903 34.0351 78.6617 32.8019C78.1332 31.5686 77.8689 30.0585 77.8689 28.2716C77.8689 24.9493 78.7247 22.4073 80.4361 20.6455C82.2231 18.8082 84.2995 17.8896 86.6653 17.8896C89.0311 17.8896 90.8307 18.544 92.0639 19.8527C93.3224 21.1615 93.9516 22.9988 93.9516 25.3646C93.9516 25.868 93.9138 26.4091 93.8383 26.988H80.3606C80.3354 27.2648 80.3229 27.6801 80.3229 28.2338ZM91.7242 25.1004C91.7242 23.2127 91.3089 21.6774 90.4783 20.4945C89.6478 19.2864 88.5152 18.6824 87.0806 18.6824C85.2181 18.6824 83.6451 19.5004 82.3615 21.1363C81.3296 22.4199 80.6878 24.1314 80.4361 26.2707H91.6864C91.7116 25.9938 91.7242 25.6037 91.7242 25.1004ZM96.9842 36.9547L97.0219 36.4261L98.9851 36.1619C99.1612 36.1367 99.2745 36.0109 99.3248 35.7844V9.96154C99.3248 9.68469 99.2493 9.54627 99.0983 9.54627L96.7954 9.47076L96.8332 8.94222C98.4188 8.71571 99.501 8.60245 100.08 8.60245C100.684 8.60245 101.112 8.76604 101.363 9.09323C101.64 9.42042 101.779 9.77278 101.779 10.1503V36.1619L104.61 36.3506C104.61 36.3758 104.598 36.5646 104.572 36.9169L96.9842 36.9547ZM127.884 37.0679C125.266 37.0679 123.139 36.3129 121.503 34.8028C119.893 33.2927 119.087 30.9898 119.087 27.894C119.087 24.7732 119.943 22.3318 121.654 20.57C123.391 18.7831 125.568 17.8896 128.186 17.8896C130.803 17.8896 132.93 18.6447 134.566 20.1548C136.202 21.6649 137.02 23.9804 137.02 27.1012C137.02 30.197 136.151 32.6383 134.415 34.4253C132.703 36.187 130.526 37.0679 127.884 37.0679ZM128.148 18.5691C126.26 18.5691 124.687 19.3871 123.429 21.0231C122.17 22.659 121.541 24.8864 121.541 27.7053C121.541 30.499 122.133 32.6509 123.315 34.161C124.524 35.6459 126.071 36.3884 127.959 36.3884C129.847 36.3884 131.42 35.5704 132.678 33.9345C133.937 32.2985 134.566 30.0837 134.566 27.29C134.566 24.4963 133.962 22.3444 132.754 20.8343C131.571 19.3242 130.035 18.5691 128.148 18.5691ZM138.733 36.9547L138.771 36.4261L140.734 36.1619C140.961 36.1367 141.074 35.9605 141.074 35.6333V18.7202H139.149L139.451 18.4181L141.074 18.0784V13.4725C141.074 11.7359 141.64 10.4901 142.773 9.73503C143.905 8.95481 145.227 8.5647 146.737 8.5647C147.744 8.5647 148.599 8.70312 149.304 8.97998L149.191 9.24424C148.587 9.16874 148.058 9.13099 147.605 9.13099C147.177 9.13099 146.749 9.19391 146.322 9.31975C145.919 9.44559 145.491 9.67211 145.038 9.9993C144.031 10.7292 143.528 12.1764 143.528 14.3409V18.0406H148.096V18.7202H143.528V36.1619L146.737 36.3506C146.737 36.3758 146.724 36.5646 146.699 36.9169L138.733 36.9547ZM163.846 11.0564L163.883 10.4901H180.041L180.004 10.6033L180.494 15.9265L179.739 16.2285L179.135 11.2451H168.867V23.4392H177.89C178.015 23.4644 178.129 23.4392 178.229 23.3637C178.33 23.2631 178.38 23.1372 178.38 22.9862L178.531 20.3813L179.135 20.3058V26.7615C179.11 26.7615 178.921 26.7741 178.569 26.7992L178.418 24.1943H168.867V36.1996L171.472 36.3506C171.472 36.3758 171.459 36.5646 171.434 36.9169L163.846 36.9547L163.883 36.4261L165.846 36.1619C166.098 36.1367 166.249 35.9731 166.299 35.6711V11.7737C166.249 11.4717 166.098 11.3081 165.846 11.2829L163.846 11.0564ZM189.969 37.0679C187.351 37.0679 185.225 36.3129 183.589 34.8028C181.978 33.2927 181.173 30.9898 181.173 27.894C181.173 24.7732 182.028 22.3318 183.74 20.57C185.476 18.7831 187.653 17.8896 190.271 17.8896C192.888 17.8896 195.015 18.6447 196.651 20.1548C198.287 21.6649 199.105 23.9804 199.105 27.1012C199.105 30.197 198.237 32.6383 196.5 34.4253C194.789 36.187 192.612 37.0679 189.969 37.0679ZM190.233 18.5691C188.346 18.5691 186.773 19.3871 185.514 21.0231C184.256 22.659 183.626 24.8864 183.626 27.7053C183.626 30.499 184.218 32.6509 185.401 34.161C186.609 35.6459 188.157 36.3884 190.044 36.3884C191.932 36.3884 193.505 35.5704 194.764 33.9345C196.022 32.2985 196.651 30.0837 196.651 27.29C196.651 24.4963 196.047 22.3444 194.839 20.8343C193.656 19.3242 192.121 18.5691 190.233 18.5691ZM206.142 19.5885V22.6087C208.13 19.6891 210.081 18.2042 211.993 18.1539C212.144 18.1539 212.295 18.1539 212.446 18.1539L214.561 18.4181L213.579 20.6833C213.101 20.2051 212.484 19.966 211.729 19.966C209.892 19.9912 208.029 21.2118 206.142 23.628V36.1619L209.351 36.3506C209.351 36.3758 209.338 36.5646 209.313 36.9169L201.385 36.9547C201.385 36.7282 201.398 36.552 201.423 36.4261L203.386 36.1619C203.587 36.1367 203.688 35.9605 203.688 35.6333V19.2487C203.638 19.0725 203.562 18.9844 203.461 18.9844L201.196 18.9089L201.234 18.3804C202.593 18.1539 203.625 18.0406 204.33 18.0406C205.034 18.0406 205.513 18.2042 205.764 18.5314C206.016 18.8586 206.142 19.2109 206.142 19.5885ZM224.8 36.1996L226.273 36.1241L226.386 36.5017C226.361 36.5017 226.184 36.5394 225.857 36.6149C225.102 36.7911 224.259 36.8792 223.328 36.8792C222.472 36.8288 221.692 36.6904 220.987 36.4639C220.282 36.2122 219.628 35.7088 219.024 34.9538C218.42 34.1736 218.118 33.1794 218.118 31.9713V18.7202H216.193L216.495 18.4181L218.156 18.0784L218.458 14.4541L220.572 14.2653V18.0406H225.14V18.7202H220.572V31.3295C220.572 33.2423 220.975 34.5385 221.78 35.2181C222.585 35.8724 223.592 36.1996 224.8 36.1996ZM229.041 18.6447L229.003 18.0784L234.1 18.0406V31.1785C234.1 32.1601 234.238 33.0158 234.515 33.7457C234.792 34.4504 235.094 34.9664 235.421 35.2936C235.774 35.6208 236.176 35.8724 236.629 36.0486C237.334 36.3003 237.926 36.401 238.404 36.3506C239.939 36.3255 241.688 35.5327 243.651 33.9722V19.362C243.551 19.0599 243.337 18.8838 243.01 18.8334L241.046 18.6447C241.021 18.4936 241.009 18.3049 241.009 18.0784L246.105 18.0406V35.1803C246.156 35.8095 246.357 36.1241 246.709 36.1241L248.975 36.2374L248.937 36.8037C247.729 37.005 246.47 37.1057 245.162 37.1057C244.859 37.0805 244.532 36.9169 244.18 36.6149C243.828 36.2877 243.651 35.885 243.651 35.4068V34.7273C241.361 36.2626 239.197 37.0302 237.158 37.0302C236.302 37.0302 235.295 36.8163 234.138 36.3884C233.383 36.1115 232.779 35.5956 232.326 34.8405C231.873 34.0603 231.646 33.0913 231.646 31.9336V19.3997C231.646 19.2739 231.571 19.1606 231.42 19.0599C231.294 18.9341 231.155 18.8586 231.004 18.8334L229.041 18.6447ZM251.82 36.9547L251.858 36.4261L253.821 36.1619C254.048 36.1367 254.161 35.9605 254.161 35.6333V19.2864C254.11 19.0851 254.035 18.9844 253.934 18.9844L251.631 18.9089L251.669 18.3804C253.255 18.1539 254.324 18.0406 254.878 18.0406C255.885 18.0406 256.451 18.4811 256.577 19.362H256.615V20.1548C258.679 18.7453 260.654 18.0029 262.542 17.9274C264.379 17.9274 265.776 18.2923 266.732 19.0222C267.16 19.3494 267.538 19.8653 267.865 20.57C268.217 21.2496 268.394 22.0676 268.394 23.024V36.1619L271.225 36.3506C271.225 36.3758 271.212 36.5646 271.187 36.9169L263.637 36.9547C263.637 36.7282 263.649 36.552 263.674 36.4261L265.638 36.1619C265.839 36.1367 265.94 35.9605 265.94 35.6333V23.9678C265.94 22.961 265.801 22.1053 265.524 21.4006C265.273 20.6959 264.983 20.1799 264.656 19.8527C264.329 19.5255 263.926 19.2739 263.448 19.0977C262.894 18.8963 262.315 18.7957 261.711 18.7957C260.201 18.8208 258.502 19.4123 256.615 20.57V36.1619L259.446 36.3506C259.446 36.3758 259.434 36.5646 259.408 36.9169L251.82 36.9547ZM275.427 28.2338C275.427 33.6702 277.541 36.3884 281.77 36.3884C282.877 36.3884 284.06 36.2751 285.319 36.0486C286.577 35.7969 287.382 35.5704 287.735 35.3691L287.999 35.7466C287.42 36.1241 286.464 36.4387 285.13 36.6904C283.821 36.9421 282.613 37.0679 281.506 37.0679C280.423 37.0679 279.442 36.9547 278.561 36.7282C277.705 36.5017 276.824 36.099 275.918 35.5201C275.012 34.9412 274.295 34.0351 273.766 32.8019C273.238 31.5686 272.973 30.0585 272.973 28.2716C272.973 24.9493 273.829 22.4073 275.541 20.6455C277.328 18.8082 279.404 17.8896 281.77 17.8896C284.136 17.8896 285.935 18.544 287.168 19.8527C288.427 21.1615 289.056 22.9988 289.056 25.3646C289.056 25.868 289.018 26.4091 288.943 26.988H275.465C275.44 27.2648 275.427 27.6801 275.427 28.2338ZM286.829 25.1004C286.829 23.2127 286.413 21.6774 285.583 20.4945C284.752 19.2864 283.62 18.6824 282.185 18.6824C280.323 18.6824 278.75 19.5004 277.466 21.1363C276.434 22.4199 275.792 24.1314 275.541 26.2707H286.791C286.816 25.9938 286.829 25.6037 286.829 25.1004Z" fill="url(#paint0_linear_31_323)"/>
<defs>
<linearGradient id="paint0_linear_31_323" x1="80.9307" y1="0.916936" x2="210.753" y2="114.875" gradientUnits="userSpaceOnUse">
<stop stop-color="#FFB905"/>
<stop offset="1" stop-color="#F4DC00"/>
</linearGradient>
</defs>
</svg>
