<svg width="27" height="170" viewBox="0 0 27 170" fill="none" xmlns="http://www.w3.org/2000/svg">
<rect x="0.828613" y="0.476135" width="25.4749" height="169.434" rx="5" fill="#4D4D4D"/>
<path d="M9.56592 77.883H17.8V78.3695H14.3625V78.4178C14.6278 78.5143 14.8717 78.651 15.0942 78.8279C15.3167 79.0048 15.4949 79.2246 15.6289 79.4872C15.7656 79.7499 15.834 80.0568 15.834 80.4079C15.834 80.9038 15.6959 81.3367 15.4199 81.7066C15.1465 82.0765 14.7685 82.3633 14.2861 82.567C13.8063 82.7707 13.2568 82.8726 12.6376 82.8726C12.0131 82.8726 11.4596 82.7707 10.9771 82.567C10.4974 82.3633 10.1208 82.0778 9.84736 81.7106C9.57396 81.3434 9.43726 80.9105 9.43726 80.412C9.43726 80.0608 9.50427 79.7539 9.63829 79.4912C9.77499 79.2286 9.95457 79.0088 10.177 78.8319C10.4022 78.655 10.6475 78.5169 10.9128 78.4178V78.3615H9.56592V77.883ZM12.6417 78.3655C12.1163 78.3655 11.6459 78.4446 11.2304 78.6027C10.8177 78.7635 10.4906 78.994 10.2494 79.2942C10.0109 79.5944 9.89158 79.9536 9.89158 80.3718C9.89158 80.7953 10.0122 81.1571 10.2534 81.4573C10.4974 81.7575 10.827 81.9867 11.2425 82.1448C11.658 82.3056 12.1243 82.3861 12.6417 82.3861C13.159 82.3861 13.624 82.3056 14.0368 82.1448C14.4496 81.9867 14.7752 81.7575 15.0138 81.4573C15.255 81.1571 15.3756 80.7953 15.3756 80.3718C15.3756 79.9536 15.2564 79.5944 15.0178 79.2942C14.7819 78.994 14.4576 78.7635 14.0448 78.6027C13.6347 78.4446 13.167 78.3655 12.6417 78.3655ZM9.43324 86.2016C9.43324 85.8451 9.50427 85.5181 9.64633 85.2206C9.78839 84.9257 9.99612 84.6885 10.2695 84.5089C10.5429 84.332 10.8753 84.2436 11.2666 84.2436C11.5239 84.2436 11.7504 84.2891 11.9461 84.3803C12.1418 84.4714 12.3106 84.6121 12.4527 84.8024C12.5947 84.9927 12.7113 85.2366 12.8025 85.5342C12.8963 85.8317 12.9687 86.1868 13.0196 86.5996C13.0571 86.9132 13.0933 87.1933 13.1281 87.4399C13.1657 87.6865 13.2233 87.8795 13.301 88.0189C13.3788 88.1609 13.4967 88.232 13.6548 88.232H13.9122C14.3625 88.232 14.7203 88.0899 14.9856 87.8058C15.251 87.5217 15.3837 87.1303 15.3837 86.6318C15.3837 86.1895 15.2859 85.8169 15.0902 85.5141C14.8972 85.2139 14.6479 85.0035 14.3424 84.8828L14.5152 84.4205C14.8101 84.5384 15.0553 84.7086 15.251 84.9311C15.4467 85.1562 15.5928 85.4136 15.6892 85.703C15.7857 85.9952 15.834 86.3008 15.834 86.6197C15.834 86.8958 15.7951 87.1585 15.7174 87.4078C15.6397 87.6597 15.5217 87.8835 15.3636 88.0792C15.2054 88.2775 15.0031 88.4343 14.7565 88.5496C14.5126 88.6649 14.2204 88.7225 13.88 88.7225H9.56592V88.232H10.6796V88.1958C10.4491 88.0886 10.2387 87.9412 10.0484 87.7535C9.86076 87.5686 9.71066 87.3448 9.59808 87.0821C9.48819 86.8221 9.43324 86.5286 9.43324 86.2016ZM9.88756 86.2498C9.88756 86.6358 9.98138 86.9776 10.169 87.2751C10.3593 87.5753 10.6193 87.8098 10.949 87.9787C11.2787 88.1475 11.6526 88.232 12.0707 88.232H12.9794C12.9258 88.1703 12.8775 88.0805 12.8346 87.9626C12.7944 87.8473 12.7583 87.716 12.7261 87.5686C12.6966 87.4238 12.6698 87.2711 12.6457 87.1102C12.6242 86.9521 12.6041 86.798 12.5854 86.6479C12.5318 86.1976 12.4487 85.8304 12.3361 85.5462C12.2262 85.2648 12.0815 85.0584 11.9019 84.9271C11.7223 84.7984 11.5052 84.7341 11.2505 84.7341C10.8297 84.7341 10.4974 84.8788 10.2534 85.1683C10.0095 85.4578 9.88756 85.8183 9.88756 86.2498ZM9.56592 90.779H15.7415V91.2575H14.7766V91.3017C15.0929 91.4357 15.3462 91.6622 15.5365 91.9812C15.7295 92.3001 15.8259 92.6633 15.8259 93.0707C15.8259 93.1136 15.8259 93.1565 15.8259 93.1994C15.8259 93.2423 15.8246 93.2825 15.8219 93.32H15.3274C15.3301 93.2878 15.3341 93.249 15.3395 93.2034C15.3475 93.1605 15.3515 93.1069 15.3515 93.0426C15.3515 92.6995 15.2778 92.3939 15.1304 92.1259C14.983 91.8605 14.7793 91.6515 14.5193 91.4987C14.2619 91.3459 13.9671 91.2695 13.6347 91.2695H9.56592V90.779Z" fill="#797878"/>
</svg>
