<svg width="277" height="95" viewBox="0 0 277 95" fill="none" xmlns="http://www.w3.org/2000/svg">
<g filter="url(#filter0_d_14_2582)">
<path d="M39.0124 33.5585C39.0124 34.1246 39.0616 34.5554 39.1601 34.8508C39.2832 35.1216 39.4801 35.3308 39.7509 35.4785C40.0216 35.6262 40.4647 35.7862 41.0801 35.9585L40.8217 36.6232H34.3969L34.1015 36.2539L34.3969 35.8108C34.8153 35.2447 35.0984 34.6785 35.2461 34.1123C35.4184 33.5215 35.4923 32.7461 35.4677 31.7861V21.8535C35.4677 21.2381 35.4061 20.832 35.283 20.635C35.1846 20.4135 34.9753 20.3027 34.6553 20.3027H34.2492C33.4122 20.3027 32.7845 20.5612 32.366 21.0781C31.9476 21.5704 31.5168 22.4689 31.0737 23.7736L30.3352 23.5151V18.8996L30.7045 18.5673L31.1476 18.8996C31.6153 19.2196 32.5261 19.3796 33.8799 19.3796H40.637C41.9909 19.3796 42.9017 19.2196 43.3694 18.8996L43.8125 18.5673L44.2187 18.8996V23.5151L43.4433 23.7736C42.9756 22.4197 42.5325 21.5089 42.114 21.0412C41.7201 20.5489 41.1171 20.3027 40.3047 20.3027H39.8247C39.5047 20.3027 39.2832 20.4135 39.1601 20.635C39.0616 20.832 39.0124 21.2381 39.0124 21.8535V33.5585ZM58.1517 34.5185C58.1517 35.257 58.3856 35.6262 58.8533 35.6262C59.321 35.6262 59.7764 35.4416 60.2195 35.0724L60.5149 35.4416C59.6041 36.4509 58.5333 36.9555 57.3025 36.9555C56.4163 36.9555 55.7763 36.7339 55.3824 36.2909C55.0132 35.8231 54.8286 35.0724 54.8286 34.0385V28.3891C54.8286 26.9614 54.3732 26.2475 53.4624 26.2475C52.5762 26.2475 51.8623 26.8506 51.3208 28.0568C50.7792 29.263 50.5085 30.8384 50.5085 32.7831C50.5085 33.5462 50.5577 34.1616 50.6562 34.6293C50.7792 35.0724 50.9762 35.4908 51.2469 35.8847L51.5423 36.2539L51.2469 36.6232H45.893L45.6714 35.9955L46.1883 35.8847C46.5822 35.7862 46.8407 35.6385 46.9637 35.4416C47.0868 35.2201 47.1484 34.8016 47.1484 34.1862V21.0043C47.1484 20.8074 47.0991 20.6473 47.0007 20.5243C46.9268 20.4012 46.8161 20.3396 46.6684 20.3396H45.5237L45.376 19.9704C45.8437 19.5273 46.4468 19.1827 47.1853 18.9365C47.9484 18.6658 48.6992 18.5304 49.4377 18.5304C49.7577 18.5304 50.0161 18.6042 50.2131 18.7519C50.41 18.875 50.5085 19.0596 50.5085 19.3058V28.426C50.8531 27.2691 51.4562 26.309 52.3177 25.5459C53.2039 24.7582 54.1393 24.3644 55.124 24.3644C56.1825 24.3644 56.9456 24.709 57.4133 25.3982C57.9056 26.0875 58.1517 27.1829 58.1517 28.6845V34.5185ZM68.6592 35.737C69.3731 35.737 70.0008 35.6139 70.5424 35.3678C71.0839 35.097 71.6132 34.6539 72.1301 34.0385L72.5732 34.3708C72.007 35.1831 71.2809 35.8231 70.3947 36.2909C69.5331 36.7339 68.5854 36.9555 67.5515 36.9555C66.4192 36.9555 65.3976 36.6847 64.4868 36.1432C63.6006 35.6016 62.8991 34.8631 62.3822 33.9277C61.8652 32.9677 61.6067 31.8846 61.6067 30.6784C61.6067 28.7583 62.1852 27.2321 63.3422 26.0998C64.5237 24.9428 66.0869 24.3644 68.0315 24.3644C69.41 24.3644 70.5301 24.6967 71.3916 25.3613C72.2778 26.0013 72.7209 26.8383 72.7209 27.8722C72.7209 29.0537 72.2163 30.0014 71.207 30.7153C70.2224 31.4046 68.8685 31.7492 67.1454 31.7492C66.4561 31.7492 65.8284 31.7 65.2622 31.6015C65.3853 32.8815 65.7546 33.8908 66.37 34.6293C66.9854 35.3678 67.7485 35.737 68.6592 35.737ZM67.6254 25.2506C66.8623 25.2506 66.2592 25.7183 65.8161 26.6537C65.3976 27.5645 65.1884 28.8445 65.1884 30.4938V31.0846C65.4592 31.0846 65.7915 31.0599 66.1853 31.0107C67.2192 30.8876 68.0069 30.5553 68.5485 30.0138C69.1146 29.4476 69.3977 28.7091 69.3977 27.7983C69.3977 27.0598 69.2254 26.4567 68.8808 25.989C68.5608 25.4967 68.1423 25.2506 67.6254 25.2506ZM84.6361 36.9555C83.6269 36.9555 82.9007 36.7339 82.4576 36.2909C82.0145 35.8231 81.793 35.0724 81.793 34.0385V26.2106H79.9468C79.9468 25.7921 79.9714 25.5213 80.0206 25.3982C80.0698 25.2752 80.2175 25.1767 80.4637 25.1029C81.276 24.8813 81.916 24.5367 82.3838 24.069C82.8515 23.6013 83.233 22.9243 83.5284 22.0382C83.6022 21.7674 83.7253 21.6074 83.8976 21.5581C84.07 21.4843 84.4884 21.4474 85.1531 21.4474V24.7705H88.1808C88.1808 25.0905 88.1316 25.3859 88.0331 25.6567C87.9347 25.9029 87.7993 26.0875 87.627 26.2106H85.1531V34.5185C85.1531 35.257 85.4608 35.6262 86.0762 35.6262C86.3469 35.6262 86.6423 35.5401 86.9623 35.3678C87.307 35.1954 87.6147 34.9616 87.8854 34.6662L88.1808 35.0354C87.1223 36.3155 85.9408 36.9555 84.6361 36.9555ZM93.5461 28.4629C93.0291 28.7583 92.4137 28.906 91.6999 28.906C91.1829 28.906 90.7768 28.7583 90.4814 28.4629C90.186 28.1429 90.0383 27.6998 90.0383 27.1337C90.0383 26.2967 90.4445 25.6321 91.2568 25.1398C92.0937 24.6228 93.1768 24.3644 94.5061 24.3644C96.0815 24.3644 97.3123 24.709 98.1985 25.3982C99.1093 26.0875 99.5647 27.0229 99.5647 28.2045V34.5923C99.5647 35.2816 99.8109 35.6262 100.303 35.6262C100.771 35.6262 101.226 35.4416 101.669 35.0724L101.965 35.4416C101.054 36.4509 99.9709 36.9555 98.7155 36.9555C97.977 36.9555 97.4108 36.7709 97.0169 36.4016C96.6477 36.0324 96.4262 35.4539 96.3523 34.6662H96.2046C95.8108 35.3801 95.2815 35.9462 94.6169 36.3647C93.9769 36.7586 93.2384 36.9555 92.4014 36.9555C91.466 36.9555 90.7152 36.6724 90.1491 36.1062C89.5829 35.5154 89.2998 34.7523 89.2998 33.8169C89.2998 32.7584 89.8044 31.9215 90.8137 31.3061C91.823 30.6907 93.1892 30.383 94.9123 30.383C95.2323 30.383 95.6877 30.4076 96.2785 30.4568V28.6106C96.2785 27.4045 96.1308 26.5429 95.8354 26.026C95.54 25.4844 95.06 25.2136 94.3953 25.2136C93.9276 25.2136 93.5584 25.3613 93.2876 25.6567C93.0168 25.9521 92.8815 26.3337 92.8815 26.8014C92.8815 27.5398 93.103 28.0937 93.5461 28.4629ZM94.0999 35.1093C95.5523 35.1093 96.2785 33.7923 96.2785 31.1584C95.0477 31.1584 94.1246 31.3676 93.5092 31.7861C92.8938 32.18 92.5861 32.7461 92.5861 33.4846C92.5861 33.9769 92.7214 34.3708 92.9922 34.6662C93.263 34.9616 93.6322 35.1093 94.0999 35.1093ZM110.392 24.3644C111.377 24.3644 112.263 24.6228 113.051 25.1398C113.863 25.6321 114.491 26.3213 114.934 27.2075C115.401 28.0937 115.635 29.0907 115.635 30.1984C115.635 31.4784 115.328 32.6354 114.712 33.6692C114.121 34.6785 113.297 35.4785 112.238 36.0693C111.18 36.6601 109.998 36.9555 108.694 36.9555C107.807 36.9555 106.921 36.8201 106.035 36.5493C105.149 36.2785 104.423 35.9093 103.857 35.4416V20.8566C103.857 20.6597 103.82 20.5243 103.746 20.4504C103.672 20.3766 103.549 20.3396 103.377 20.3396H102.232L102.121 19.9704C102.589 19.5273 103.192 19.1827 103.93 18.9365C104.693 18.6658 105.444 18.5304 106.183 18.5304C106.503 18.5304 106.749 18.6042 106.921 18.7519C107.118 18.875 107.217 19.0596 107.217 19.3058V25.509C107.586 25.1398 108.041 24.8567 108.583 24.6598C109.149 24.4628 109.752 24.3644 110.392 24.3644ZM108.878 36.1062C110.921 36.1062 111.943 34.3462 111.943 30.8261C111.943 29.0783 111.684 27.7491 111.168 26.8383C110.675 25.9029 109.937 25.4352 108.952 25.4352C108.337 25.4352 107.758 25.6198 107.217 25.989V35.737C107.758 35.9832 108.312 36.1062 108.878 36.1062ZM121.747 34.5185C121.747 35.257 121.981 35.6262 122.449 35.6262C122.917 35.6262 123.372 35.4416 123.815 35.0724L124.111 35.4416C123.249 36.4509 122.178 36.9555 120.898 36.9555C120.037 36.9555 119.409 36.7586 119.015 36.3647C118.621 35.9462 118.424 35.2939 118.424 34.4077V20.8566C118.424 20.512 118.264 20.3396 117.944 20.3396H116.763L116.652 19.9704C117.12 19.5273 117.723 19.1827 118.461 18.9365C119.224 18.6658 119.975 18.5304 120.714 18.5304C121.034 18.5304 121.28 18.6042 121.452 18.7519C121.649 18.875 121.747 19.0596 121.747 19.3058V34.5185ZM131.978 35.737C132.692 35.737 133.32 35.6139 133.861 35.3678C134.403 35.097 134.932 34.6539 135.449 34.0385L135.892 34.3708C135.326 35.1831 134.6 35.8231 133.714 36.2909C132.852 36.7339 131.904 36.9555 130.871 36.9555C129.738 36.9555 128.717 36.6847 127.806 36.1432C126.92 35.6016 126.218 34.8631 125.701 33.9277C125.184 32.9677 124.926 31.8846 124.926 30.6784C124.926 28.7583 125.504 27.2321 126.661 26.0998C127.843 24.9428 129.406 24.3644 131.351 24.3644C132.729 24.3644 133.849 24.6967 134.711 25.3613C135.597 26.0013 136.04 26.8383 136.04 27.8722C136.04 29.0537 135.535 30.0014 134.526 30.7153C133.541 31.4046 132.188 31.7492 130.464 31.7492C129.775 31.7492 129.147 31.7 128.581 31.6015C128.704 32.8815 129.074 33.8908 129.689 34.6293C130.304 35.3678 131.067 35.737 131.978 35.737ZM130.944 25.2506C130.181 25.2506 129.578 25.7183 129.135 26.6537C128.717 27.5645 128.507 28.8445 128.507 30.4938V31.0846C128.778 31.0846 129.111 31.0599 129.504 31.0107C130.538 30.8876 131.326 30.5553 131.868 30.0138C132.434 29.4476 132.717 28.7091 132.717 27.7983C132.717 27.0598 132.544 26.4567 132.2 25.989C131.88 25.4967 131.461 25.2506 130.944 25.2506ZM156.448 34.5185C156.448 35.257 156.682 35.6262 157.149 35.6262C157.617 35.6262 158.072 35.4416 158.515 35.0724L158.811 35.4416C157.9 36.4509 156.829 36.9555 155.598 36.9555C154.712 36.9555 154.072 36.7339 153.678 36.2909C153.309 35.8231 153.125 35.0724 153.125 34.0385V28.3891C153.125 26.9614 152.669 26.2475 151.758 26.2475C150.872 26.2475 150.158 26.8506 149.617 28.0568C149.075 29.263 148.804 30.8384 148.804 32.7831C148.804 33.5462 148.854 34.1616 148.952 34.6293C149.075 35.0724 149.272 35.4908 149.543 35.8847L149.838 36.2539L149.543 36.6232H144.189L143.967 35.9955L144.484 35.8847C144.878 35.7862 145.137 35.6385 145.26 35.4416C145.383 35.2201 145.444 34.8016 145.444 34.1862V21.0043C145.444 20.8074 145.395 20.6473 145.297 20.5243C145.223 20.4012 145.112 20.3396 144.964 20.3396H143.82L143.672 19.9704C144.14 19.5273 144.743 19.1827 145.481 18.9365C146.244 18.6658 146.995 18.5304 147.734 18.5304C148.054 18.5304 148.312 18.6042 148.509 18.7519C148.706 18.875 148.804 19.0596 148.804 19.3058V28.426C149.149 27.2691 149.752 26.309 150.614 25.5459C151.5 24.7582 152.435 24.3644 153.42 24.3644C154.478 24.3644 155.242 24.709 155.709 25.3982C156.202 26.0875 156.448 27.1829 156.448 28.6845V34.5185ZM164.149 28.4629C163.632 28.7583 163.017 28.906 162.303 28.906C161.786 28.906 161.38 28.7583 161.084 28.4629C160.789 28.1429 160.641 27.6998 160.641 27.1337C160.641 26.2967 161.047 25.6321 161.86 25.1398C162.697 24.6228 163.78 24.3644 165.109 24.3644C166.684 24.3644 167.915 24.709 168.801 25.3982C169.712 26.0875 170.168 27.0229 170.168 28.2045V34.5923C170.168 35.2816 170.414 35.6262 170.906 35.6262C171.374 35.6262 171.829 35.4416 172.272 35.0724L172.568 35.4416C171.657 36.4509 170.574 36.9555 169.318 36.9555C168.58 36.9555 168.014 36.7709 167.62 36.4016C167.251 36.0324 167.029 35.4539 166.955 34.6662H166.807C166.414 35.3801 165.884 35.9462 165.22 36.3647C164.58 36.7586 163.841 36.9555 163.004 36.9555C162.069 36.9555 161.318 36.6724 160.752 36.1062C160.186 35.5154 159.903 34.7523 159.903 33.8169C159.903 32.7584 160.407 31.9215 161.417 31.3061C162.426 30.6907 163.792 30.383 165.515 30.383C165.835 30.383 166.291 30.4076 166.881 30.4568V28.6106C166.881 27.4045 166.734 26.5429 166.438 26.026C166.143 25.4844 165.663 25.2136 164.998 25.2136C164.531 25.2136 164.161 25.3613 163.89 25.6567C163.62 25.9521 163.484 26.3337 163.484 26.8014C163.484 27.5398 163.706 28.0937 164.149 28.4629ZM164.703 35.1093C166.155 35.1093 166.881 33.7923 166.881 31.1584C165.651 31.1584 164.727 31.3676 164.112 31.7861C163.497 32.18 163.189 32.7461 163.189 33.4846C163.189 33.9769 163.324 34.3708 163.595 34.6662C163.866 34.9616 164.235 35.1093 164.703 35.1093ZM177.044 26.8752C177.044 27.4906 177.278 27.9952 177.746 28.3891C178.238 28.7583 178.976 29.1768 179.961 29.6445C180.773 30.0384 181.401 30.383 181.844 30.6784C182.287 30.9492 182.669 31.3184 182.989 31.7861C183.334 32.2538 183.506 32.8077 183.506 33.4477C183.506 34.5062 183.001 35.3554 181.992 35.9955C181.007 36.6355 179.678 36.9555 178.004 36.9555C176.749 36.9555 175.715 36.7339 174.903 36.2909C174.09 35.8231 173.684 35.2201 173.684 34.4816C173.684 33.9893 173.869 33.5831 174.238 33.2631C174.607 32.9185 175.063 32.7461 175.604 32.7461C176.023 32.7461 176.441 32.8323 176.86 33.0046C176.441 33.3246 176.232 33.8416 176.232 34.5554C176.232 35.0477 176.404 35.4293 176.749 35.7001C177.093 35.9708 177.512 36.1062 178.004 36.1062C178.57 36.1062 179.05 35.9585 179.444 35.6631C179.863 35.3678 180.072 34.9493 180.072 34.4077C180.072 33.8908 179.863 33.4846 179.444 33.1892C179.05 32.8692 178.423 32.5 177.561 32.0815C176.773 31.7123 176.133 31.3799 175.641 31.0846C175.173 30.7645 174.767 30.3461 174.423 29.8291C174.078 29.3122 173.906 28.6845 173.906 27.946C173.906 26.8383 174.373 25.9644 175.309 25.3244C176.244 24.6844 177.426 24.3644 178.853 24.3644C180.109 24.3644 181.13 24.5982 181.918 25.0659C182.73 25.5336 183.137 26.1367 183.137 26.8752C183.137 27.4414 182.964 27.8599 182.62 28.1306C182.275 28.4014 181.832 28.5368 181.29 28.5368C180.773 28.5368 180.318 28.426 179.924 28.2045C180.367 27.786 180.589 27.2568 180.589 26.6167C180.589 26.1983 180.429 25.866 180.109 25.6198C179.789 25.349 179.37 25.2136 178.853 25.2136C178.287 25.2136 177.844 25.3736 177.524 25.6936C177.204 26.0136 177.044 26.4075 177.044 26.8752ZM199.277 24.3644C200.261 24.3644 201.148 24.6228 201.935 25.1398C202.748 25.6321 203.375 26.3213 203.818 27.2075C204.286 28.0937 204.52 29.0907 204.52 30.1984C204.52 31.4784 204.212 32.6354 203.597 33.6692C203.006 34.6785 202.181 35.4785 201.123 36.0693C200.064 36.6601 198.883 36.9555 197.578 36.9555C196.692 36.9555 195.806 36.8201 194.92 36.5493C194.034 36.2785 193.307 35.9093 192.741 35.4416V20.8566C192.741 20.6597 192.704 20.5243 192.63 20.4504C192.557 20.3766 192.433 20.3396 192.261 20.3396H191.117L191.006 19.9704C191.473 19.5273 192.077 19.1827 192.815 18.9365C193.578 18.6658 194.329 18.5304 195.067 18.5304C195.387 18.5304 195.634 18.6042 195.806 18.7519C196.003 18.875 196.101 19.0596 196.101 19.3058V25.509C196.471 25.1398 196.926 24.8567 197.467 24.6598C198.034 24.4628 198.637 24.3644 199.277 24.3644ZM197.763 36.1062C199.806 36.1062 200.828 34.3462 200.828 30.8261C200.828 29.0783 200.569 27.7491 200.052 26.8383C199.56 25.9029 198.821 25.4352 197.837 25.4352C197.221 25.4352 196.643 25.6198 196.101 25.989V35.737C196.643 35.9832 197.197 36.1062 197.763 36.1062ZM213.291 35.737C214.004 35.737 214.632 35.6139 215.174 35.3678C215.715 35.097 216.245 34.6539 216.761 34.0385L217.205 34.3708C216.638 35.1831 215.912 35.8231 215.026 36.2909C214.164 36.7339 213.217 36.9555 212.183 36.9555C211.051 36.9555 210.029 36.6847 209.118 36.1432C208.232 35.6016 207.53 34.8631 207.013 33.9277C206.497 32.9677 206.238 31.8846 206.238 30.6784C206.238 28.7583 206.817 27.2321 207.974 26.0998C209.155 24.9428 210.718 24.3644 212.663 24.3644C214.041 24.3644 215.161 24.6967 216.023 25.3613C216.909 26.0013 217.352 26.8383 217.352 27.8722C217.352 29.0537 216.848 30.0014 215.838 30.7153C214.854 31.4046 213.5 31.7492 211.777 31.7492C211.087 31.7492 210.46 31.7 209.894 31.6015C210.017 32.8815 210.386 33.8908 211.001 34.6293C211.617 35.3678 212.38 35.737 213.291 35.737ZM212.257 25.2506C211.494 25.2506 210.891 25.7183 210.447 26.6537C210.029 27.5645 209.82 28.8445 209.82 30.4938V31.0846C210.091 31.0846 210.423 31.0599 210.817 31.0107C211.851 30.8876 212.638 30.5553 213.18 30.0138C213.746 29.4476 214.029 28.7091 214.029 27.7983C214.029 27.0598 213.857 26.4567 213.512 25.989C213.192 25.4967 212.774 25.2506 212.257 25.2506ZM226.019 35.737C226.733 35.737 227.361 35.6139 227.902 35.3678C228.444 35.097 228.973 34.6539 229.49 34.0385L229.933 34.3708C229.367 35.1831 228.641 35.8231 227.755 36.2909C226.893 36.7339 225.945 36.9555 224.912 36.9555C223.779 36.9555 222.758 36.6847 221.847 36.1432C220.961 35.6016 220.259 34.8631 219.742 33.9277C219.225 32.9677 218.967 31.8846 218.967 30.6784C218.967 28.7583 219.545 27.2321 220.702 26.0998C221.884 24.9428 223.447 24.3644 225.392 24.3644C226.77 24.3644 227.89 24.6967 228.752 25.3613C229.638 26.0013 230.081 26.8383 230.081 27.8722C230.081 29.0537 229.576 30.0014 228.567 30.7153C227.582 31.4046 226.229 31.7492 224.505 31.7492C223.816 31.7492 223.188 31.7 222.622 31.6015C222.745 32.8815 223.115 33.8908 223.73 34.6293C224.345 35.3678 225.109 35.737 226.019 35.737ZM224.985 25.2506C224.222 25.2506 223.619 25.7183 223.176 26.6537C222.758 27.5645 222.548 28.8445 222.548 30.4938V31.0846C222.819 31.0846 223.152 31.0599 223.545 31.0107C224.579 30.8876 225.367 30.5553 225.909 30.0138C226.475 29.4476 226.758 28.7091 226.758 27.7983C226.758 27.0598 226.585 26.4567 226.241 25.989C225.921 25.4967 225.502 25.2506 224.985 25.2506ZM244.545 34.5185C244.545 35.257 244.779 35.6262 245.247 35.6262C245.714 35.6262 246.17 35.4416 246.613 35.0724L246.908 35.4416C245.997 36.4509 244.927 36.9555 243.696 36.9555C242.81 36.9555 242.17 36.7339 241.776 36.2909C241.407 35.8231 241.222 35.0724 241.222 34.0385V28.3891C241.222 26.9614 240.767 26.2475 239.856 26.2475C238.97 26.2475 238.243 26.8506 237.677 28.0568C237.136 29.263 236.865 30.8384 236.865 32.7831C236.865 33.5215 236.926 34.1246 237.049 34.5923C237.173 35.0354 237.37 35.4662 237.64 35.8847L237.936 36.2539L237.64 36.6232H232.286L232.065 35.9955L232.582 35.8847C232.976 35.7862 233.234 35.6385 233.357 35.4416C233.48 35.2201 233.542 34.8016 233.542 34.1862V26.986C233.542 26.5183 233.382 26.2844 233.062 26.2844H231.88L231.769 25.8783C232.262 25.4598 232.877 25.1152 233.616 24.8444C234.354 24.5736 235.093 24.4382 235.831 24.4382C236.151 24.4382 236.397 24.5121 236.569 24.6598C236.766 24.8075 236.865 25.0044 236.865 25.2506V28.426C237.21 27.2691 237.825 26.309 238.711 25.5459C239.597 24.7582 240.533 24.3644 241.517 24.3644C242.576 24.3644 243.339 24.709 243.807 25.3982C244.299 26.0875 244.545 27.1829 244.545 28.6845V34.5185ZM22.3885 60.8752C22.3885 61.4906 22.6223 61.9952 23.09 62.3891C23.5823 62.7583 24.3208 63.1768 25.3055 63.6445C26.1178 64.0384 26.7455 64.383 27.1886 64.6784C27.6317 64.9492 28.0132 65.3184 28.3332 65.7861C28.6779 66.2538 28.8502 66.8077 28.8502 67.4477C28.8502 68.5062 28.3456 69.3554 27.3363 69.9955C26.3517 70.6355 25.0224 70.9555 23.3485 70.9555C22.0931 70.9555 21.0592 70.7339 20.2469 70.2909C19.4345 69.8231 19.0284 69.2201 19.0284 68.4816C19.0284 67.9893 19.213 67.5831 19.5822 67.2631C19.9515 66.9185 20.4069 66.7461 20.9484 66.7461C21.3669 66.7461 21.7854 66.8323 22.2038 67.0046C21.7854 67.3246 21.5761 67.8416 21.5761 68.5554C21.5761 69.0477 21.7484 69.4293 22.0931 69.7001C22.4377 69.9708 22.8562 70.1062 23.3485 70.1062C23.9147 70.1062 24.3947 69.9585 24.7885 69.6631C25.207 69.3678 25.4162 68.9493 25.4162 68.4077C25.4162 67.8908 25.207 67.4846 24.7885 67.1892C24.3947 66.8692 23.767 66.5 22.9054 66.0815C22.1177 65.7123 21.4777 65.3799 20.9854 65.0846C20.5176 64.7645 20.1115 64.3461 19.7669 63.8291C19.4222 63.3122 19.2499 62.6845 19.2499 61.946C19.2499 60.8383 19.7176 59.9644 20.653 59.3244C21.5884 58.6844 22.77 58.3644 24.1977 58.3644C25.4532 58.3644 26.4747 58.5982 27.2624 59.0659C28.0748 59.5336 28.4809 60.1367 28.4809 60.8752C28.4809 61.4414 28.3086 61.8599 27.964 62.1306C27.6194 62.4014 27.1763 62.5368 26.6347 62.5368C26.1178 62.5368 25.6624 62.426 25.2685 62.2045C25.7116 61.786 25.9332 61.2568 25.9332 60.6167C25.9332 60.1983 25.7732 59.866 25.4532 59.6198C25.1332 59.349 24.7147 59.2136 24.1977 59.2136C23.6316 59.2136 23.1885 59.3736 22.8685 59.6936C22.5485 60.0136 22.3885 60.4075 22.3885 60.8752ZM39.859 67.2631C39.5144 68.3462 38.9113 69.2324 38.0498 69.9216C37.2128 70.6109 36.3143 70.9555 35.3543 70.9555C34.2712 70.9555 33.4712 70.6109 32.9542 69.9216C32.4373 69.2324 32.1788 68.1739 32.1788 66.7461V60.7275C32.1788 60.3829 32.0188 60.2106 31.6988 60.2106H30.5542L30.4434 59.8044C30.9357 59.3859 31.5511 59.0413 32.2896 58.7705C33.0281 58.4998 33.7543 58.3644 34.4681 58.3644C34.7881 58.3644 35.0343 58.4382 35.2066 58.5859C35.4035 58.7336 35.502 58.9305 35.502 59.1767V66.5615C35.502 67.3985 35.6251 68.0508 35.8712 68.5185C36.1174 68.9616 36.462 69.1831 36.9051 69.1831C37.8159 69.1831 38.5421 68.6293 39.0836 67.5215C39.6498 66.3892 39.9329 64.9246 39.9329 63.1276C39.9329 62.1676 39.859 61.4291 39.7113 60.9121C39.5883 60.3706 39.3544 59.9029 39.0098 59.509L38.6775 59.1029L38.9729 58.7705L43.2191 58.4382V68.5185C43.2191 69.257 43.4407 69.6262 43.8838 69.6262C44.3515 69.6262 44.8069 69.4416 45.25 69.0724L45.5454 69.4416C44.6838 70.4509 43.613 70.9555 42.333 70.9555C41.3975 70.9555 40.7452 70.6847 40.376 70.1432C40.0314 69.6016 39.859 68.6416 39.859 67.2631ZM57.535 61.6137C57.535 62.426 57.2888 63.066 56.7965 63.5337C56.3042 64.0014 55.7011 64.2353 54.9872 64.2353C54.4211 64.2353 53.9041 64.0876 53.4364 63.7922C53.978 63.2999 54.2488 62.6106 54.2488 61.7245C54.2488 61.0106 54.1011 60.4321 53.8057 59.989C53.5103 59.5213 53.0795 59.2875 52.5133 59.2875C51.8733 59.2875 51.3441 59.7921 50.9256 60.8014C50.5317 61.786 50.3348 63.0783 50.3348 64.6784C50.3348 66.2046 50.6179 67.4354 51.1841 68.3708C51.7748 69.2816 52.5995 69.737 53.658 69.737C54.3965 69.737 55.0242 69.6016 55.5411 69.3308C56.0827 69.06 56.5873 68.6662 57.055 68.1493L57.4981 68.4446C56.9811 69.1831 56.3042 69.7862 55.4673 70.2539C54.6303 70.7216 53.658 70.9555 52.5503 70.9555C50.8271 70.9555 49.4117 70.377 48.304 69.2201C47.1963 68.0631 46.6424 66.5738 46.6424 64.7522C46.6424 62.8076 47.2209 61.2568 48.3778 60.0998C49.5348 58.9428 51.0733 58.3644 52.9933 58.3644C54.3472 58.3644 55.4426 58.6721 56.2796 59.2875C57.1165 59.8783 57.535 60.6537 57.535 61.6137ZM69.9392 61.6137C69.9392 62.426 69.693 63.066 69.2007 63.5337C68.7084 64.0014 68.1053 64.2353 67.3914 64.2353C66.8253 64.2353 66.3083 64.0876 65.8406 63.7922C66.3822 63.2999 66.6529 62.6106 66.6529 61.7245C66.6529 61.0106 66.5052 60.4321 66.2099 59.989C65.9145 59.5213 65.4837 59.2875 64.9175 59.2875C64.2775 59.2875 63.7482 59.7921 63.3298 60.8014C62.9359 61.786 62.739 63.0783 62.739 64.6784C62.739 66.2046 63.0221 67.4354 63.5882 68.3708C64.179 69.2816 65.0037 69.737 66.0622 69.737C66.8006 69.737 67.4283 69.6016 67.9453 69.3308C68.4868 69.06 68.9915 68.6662 69.4592 68.1493L69.9023 68.4446C69.3853 69.1831 68.7084 69.7862 67.8714 70.2539C67.0345 70.7216 66.0622 70.9555 64.9544 70.9555C63.2313 70.9555 61.8159 70.377 60.7082 69.2201C59.6004 68.0631 59.0466 66.5738 59.0466 64.7522C59.0466 62.8076 59.6251 61.2568 60.782 60.0998C61.939 58.9428 63.4775 58.3644 65.3975 58.3644C66.7514 58.3644 67.8468 58.6721 68.6838 59.2875C69.5207 59.8783 69.9392 60.6537 69.9392 61.6137ZM78.5033 69.737C79.2171 69.737 79.8448 69.6139 80.3864 69.3678C80.928 69.097 81.4572 68.6539 81.9741 68.0385L82.4172 68.3708C81.8511 69.1831 81.1249 69.8231 80.2387 70.2909C79.3771 70.7339 78.4294 70.9555 77.3955 70.9555C76.2632 70.9555 75.2416 70.6847 74.3308 70.1432C73.4447 69.6016 72.7431 68.8631 72.2262 67.9277C71.7092 66.9677 71.4508 65.8846 71.4508 64.6784C71.4508 62.7583 72.0292 61.2321 73.1862 60.0998C74.3678 58.9428 75.9309 58.3644 77.8756 58.3644C79.2541 58.3644 80.3741 58.6967 81.2357 59.3613C82.1218 60.0013 82.5649 60.8383 82.5649 61.8722C82.5649 63.0537 82.0603 64.0014 81.051 64.7153C80.0664 65.4046 78.7125 65.7492 76.9894 65.7492C76.3001 65.7492 75.6724 65.7 75.1063 65.6015C75.2293 66.8815 75.5986 67.8908 76.214 68.6293C76.8294 69.3678 77.5925 69.737 78.5033 69.737ZM77.4694 59.2506C76.7063 59.2506 76.1032 59.7183 75.6601 60.6537C75.2416 61.5645 75.0324 62.8445 75.0324 64.4938V65.0846C75.3032 65.0846 75.6355 65.0599 76.0294 65.0107C77.0632 64.8876 77.8509 64.5553 78.3925 64.0138C78.9587 63.4476 79.2418 62.7091 79.2418 61.7983C79.2418 61.0598 79.0694 60.4567 78.7248 59.989C78.4048 59.4967 77.9863 59.2506 77.4694 59.2506ZM87.835 60.8752C87.835 61.4906 88.0688 61.9952 88.5365 62.3891C89.0288 62.7583 89.7673 63.1768 90.752 63.6445C91.5643 64.0384 92.192 64.383 92.6351 64.6784C93.0782 64.9492 93.4597 65.3184 93.7797 65.7861C94.1244 66.2538 94.2967 66.8077 94.2967 67.4477C94.2967 68.5062 93.792 69.3554 92.7828 69.9955C91.7981 70.6355 90.4689 70.9555 88.795 70.9555C87.5396 70.9555 86.5057 70.7339 85.6934 70.2909C84.881 69.8231 84.4749 69.2201 84.4749 68.4816C84.4749 67.9893 84.6595 67.5831 85.0287 67.2631C85.398 66.9185 85.8534 66.7461 86.3949 66.7461C86.8134 66.7461 87.2319 66.8323 87.6503 67.0046C87.2319 67.3246 87.0226 67.8416 87.0226 68.5554C87.0226 69.0477 87.1949 69.4293 87.5396 69.7001C87.8842 69.9708 88.3027 70.1062 88.795 70.1062C89.3612 70.1062 89.8412 69.9585 90.235 69.6631C90.6535 69.3678 90.8627 68.9493 90.8627 68.4077C90.8627 67.8908 90.6535 67.4846 90.235 67.1892C89.8412 66.8692 89.2135 66.5 88.3519 66.0815C87.5642 65.7123 86.9242 65.3799 86.4318 65.0846C85.9641 64.7645 85.558 64.3461 85.2134 63.8291C84.8687 63.3122 84.6964 62.6845 84.6964 61.946C84.6964 60.8383 85.1641 59.9644 86.0995 59.3244C87.0349 58.6844 88.2165 58.3644 89.6442 58.3644C90.8997 58.3644 91.9212 58.5982 92.7089 59.0659C93.5213 59.5336 93.9274 60.1367 93.9274 60.8752C93.9274 61.4414 93.7551 61.8599 93.4105 62.1306C93.0659 62.4014 92.6228 62.5368 92.0812 62.5368C91.5643 62.5368 91.1089 62.426 90.715 62.2045C91.1581 61.786 91.3797 61.2568 91.3797 60.6167C91.3797 60.1983 91.2197 59.866 90.8997 59.6198C90.5797 59.349 90.1612 59.2136 89.6442 59.2136C89.0781 59.2136 88.635 59.3736 88.315 59.6936C87.995 60.0136 87.835 60.4075 87.835 60.8752ZM99.9146 60.8752C99.9146 61.4906 100.148 61.9952 100.616 62.3891C101.108 62.7583 101.847 63.1768 102.832 63.6445C103.644 64.0384 104.272 64.383 104.715 64.6784C105.158 64.9492 105.539 65.3184 105.859 65.7861C106.204 66.2538 106.376 66.8077 106.376 67.4477C106.376 68.5062 105.872 69.3554 104.862 69.9955C103.878 70.6355 102.549 70.9555 100.875 70.9555C99.6192 70.9555 98.5854 70.7339 97.773 70.2909C96.9607 69.8231 96.5545 69.2201 96.5545 68.4816C96.5545 67.9893 96.7391 67.5831 97.1084 67.2631C97.4776 66.9185 97.933 66.7461 98.4746 66.7461C98.8931 66.7461 99.3115 66.8323 99.73 67.0046C99.3115 67.3246 99.1023 67.8416 99.1023 68.5554C99.1023 69.0477 99.2746 69.4293 99.6192 69.7001C99.9639 69.9708 100.382 70.1062 100.875 70.1062C101.441 70.1062 101.921 69.9585 102.315 69.6631C102.733 69.3678 102.942 68.9493 102.942 68.4077C102.942 67.8908 102.733 67.4846 102.315 67.1892C101.921 66.8692 101.293 66.5 100.432 66.0815C99.6438 65.7123 99.0038 65.3799 98.5115 65.0846C98.0438 64.7645 97.6376 64.3461 97.293 63.8291C96.9484 63.3122 96.7761 62.6845 96.7761 61.946C96.7761 60.8383 97.2438 59.9644 98.1792 59.3244C99.1146 58.6844 100.296 58.3644 101.724 58.3644C102.979 58.3644 104.001 58.5982 104.789 59.0659C105.601 59.5336 106.007 60.1367 106.007 60.8752C106.007 61.4414 105.835 61.8599 105.49 62.1306C105.146 62.4014 104.702 62.5368 104.161 62.5368C103.644 62.5368 103.189 62.426 102.795 62.2045C103.238 61.786 103.459 61.2568 103.459 60.6167C103.459 60.1983 103.299 59.866 102.979 59.6198C102.659 59.349 102.241 59.2136 101.724 59.2136C101.158 59.2136 100.715 59.3736 100.395 59.6936C100.075 60.0136 99.9146 60.4075 99.9146 60.8752ZM113.065 68.1862C113.065 68.777 113.139 69.1831 113.287 69.4047C113.459 69.6016 113.84 69.7616 114.431 69.8847L114.911 69.9955L114.69 70.6232H108.93L108.634 70.2539L108.93 69.8847C109.225 69.4908 109.422 69.0724 109.52 68.6293C109.643 68.1616 109.705 67.5339 109.705 66.7461V60.2106H107.822C107.822 59.7921 107.846 59.5213 107.896 59.3982C107.945 59.2752 108.093 59.1767 108.339 59.1029L109.705 58.7705C109.705 56.6536 110.16 55.0289 111.071 53.8966C112.007 52.7642 113.336 52.1981 115.059 52.1981C116.142 52.1981 117.016 52.4319 117.681 52.8996C118.37 53.3673 118.714 53.9827 118.714 54.7458C118.714 55.4104 118.518 55.952 118.124 56.3705C117.73 56.7643 117.213 56.9613 116.573 56.9613C116.081 56.9613 115.625 56.8628 115.207 56.6659C115.65 56.2966 115.871 55.7428 115.871 55.0043C115.871 54.4135 115.761 53.9458 115.539 53.6012C115.317 53.2565 115.01 53.0842 114.616 53.0842C114.124 53.0842 113.742 53.3427 113.471 53.8596C113.2 54.3766 113.065 55.1027 113.065 56.0382V58.7705H115.761C115.761 59.4598 115.576 59.9398 115.207 60.2106H113.065V68.1862ZM125.715 67.2631C125.37 68.3462 124.767 69.2324 123.905 69.9216C123.069 70.6109 122.17 70.9555 121.21 70.9555C120.127 70.9555 119.327 70.6109 118.81 69.9216C118.293 69.2324 118.035 68.1739 118.035 66.7461V60.7275C118.035 60.3829 117.875 60.2106 117.555 60.2106H116.41L116.299 59.8044C116.791 59.3859 117.407 59.0413 118.145 58.7705C118.884 58.4998 119.61 58.3644 120.324 58.3644C120.644 58.3644 120.89 58.4382 121.062 58.5859C121.259 58.7336 121.358 58.9305 121.358 59.1767V66.5615C121.358 67.3985 121.481 68.0508 121.727 68.5185C121.973 68.9616 122.318 69.1831 122.761 69.1831C123.672 69.1831 124.398 68.6293 124.939 67.5215C125.506 66.3892 125.789 64.9246 125.789 63.1276C125.789 62.1676 125.715 61.4291 125.567 60.9121C125.444 60.3706 125.21 59.9029 124.865 59.509L124.533 59.1029L124.829 58.7705L129.075 58.4382V68.5185C129.075 69.257 129.296 69.6262 129.739 69.6262C130.207 69.6262 130.663 69.4416 131.106 69.0724L131.401 69.4416C130.539 70.4509 129.469 70.9555 128.189 70.9555C127.253 70.9555 126.601 70.6847 126.232 70.1432C125.887 69.6016 125.715 68.6416 125.715 67.2631ZM136.892 68.5185C136.892 69.257 137.126 69.6262 137.594 69.6262C138.061 69.6262 138.517 69.4416 138.96 69.0724L139.255 69.4416C138.394 70.4509 137.323 70.9555 136.043 70.9555C135.181 70.9555 134.554 70.7586 134.16 70.3647C133.766 69.9462 133.569 69.2939 133.569 68.4077V54.8566C133.569 54.512 133.409 54.3396 133.089 54.3396H131.907L131.797 53.9704C132.264 53.5273 132.867 53.1827 133.606 52.9365C134.369 52.6658 135.12 52.5304 135.858 52.5304C136.178 52.5304 136.424 52.6042 136.597 52.7519C136.794 52.875 136.892 53.0596 136.892 53.3058V68.5185ZM144.464 68.5185C144.464 69.257 144.698 69.6262 145.166 69.6262C145.634 69.6262 146.089 69.4416 146.532 69.0724L146.828 69.4416C145.966 70.4509 144.895 70.9555 143.615 70.9555C142.754 70.9555 142.126 70.7586 141.732 70.3647C141.338 69.9462 141.141 69.2939 141.141 68.4077V54.8566C141.141 54.512 140.981 54.3396 140.661 54.3396H139.48L139.369 53.9704C139.837 53.5273 140.44 53.1827 141.178 52.9365C141.941 52.6658 142.692 52.5304 143.431 52.5304C143.751 52.5304 143.997 52.6042 144.169 52.7519C144.366 52.875 144.464 53.0596 144.464 53.3058V68.5185ZM159.717 58.4382V70.6232C159.717 72.5678 159.151 74.0694 158.018 75.1279C156.911 76.211 155.36 76.7526 153.366 76.7526C152.135 76.7526 151.138 76.5187 150.375 76.051C149.612 75.5833 149.23 74.9679 149.23 74.2048C149.23 73.5402 149.427 72.9986 149.821 72.5801C150.215 72.1863 150.732 71.9894 151.372 71.9894C151.84 71.9894 152.295 72.0878 152.738 72.2848C152.295 72.7278 152.074 73.3309 152.074 74.094C152.074 74.6356 152.234 75.0787 152.554 75.4233C152.898 75.7679 153.329 75.9402 153.846 75.9402C155.569 75.9402 156.431 74.5371 156.431 71.7309V67.0415C156.111 67.9769 155.544 68.7523 154.732 69.3678C153.944 69.9585 153.095 70.2539 152.184 70.2539C151.101 70.2539 150.301 69.9216 149.784 69.257C149.267 68.5923 149.009 67.5831 149.009 66.2292V60.7275C149.009 60.3829 148.849 60.2106 148.529 60.2106H147.384L147.274 59.8044C147.741 59.3859 148.357 59.0413 149.12 58.7705C149.883 58.4998 150.609 58.3644 151.298 58.3644C151.618 58.3644 151.864 58.4382 152.037 58.5859C152.234 58.7336 152.332 58.9305 152.332 59.1767V66.6354C152.332 68.0139 152.763 68.7031 153.624 68.7031C154.461 68.7031 155.138 68.1985 155.655 67.1892C156.172 66.18 156.431 64.8384 156.431 63.1645C156.431 62.2783 156.357 61.5522 156.209 60.986C156.061 60.4198 155.828 59.9275 155.508 59.509L155.212 59.1029L155.471 58.7705L159.717 58.4382ZM176.452 58.3644C177.436 58.3644 178.322 58.6228 179.11 59.1398C179.922 59.6321 180.55 60.3213 180.993 61.2075C181.461 62.0937 181.695 63.0907 181.695 64.1984C181.695 65.4784 181.387 66.6354 180.772 67.6692C180.181 68.6785 179.356 69.4785 178.298 70.0693C177.239 70.6601 176.058 70.9555 174.753 70.9555C173.867 70.9555 172.981 70.8201 172.095 70.5493C171.208 70.2785 170.482 69.9093 169.916 69.4416V54.8566C169.916 54.6597 169.879 54.5243 169.805 54.4504C169.731 54.3766 169.608 54.3396 169.436 54.3396H168.291L168.181 53.9704C168.648 53.5273 169.251 53.1827 169.99 52.9365C170.753 52.6658 171.504 52.5304 172.242 52.5304C172.562 52.5304 172.808 52.6042 172.981 52.7519C173.178 52.875 173.276 53.0596 173.276 53.3058V59.509C173.645 59.1398 174.101 58.8567 174.642 58.6598C175.209 58.4628 175.812 58.3644 176.452 58.3644ZM174.938 70.1062C176.981 70.1062 178.002 68.3462 178.002 64.8261C178.002 63.0783 177.744 61.7491 177.227 60.8383C176.735 59.9029 175.996 59.4352 175.012 59.4352C174.396 59.4352 173.818 59.6198 173.276 59.989V69.737C173.818 69.9832 174.372 70.1062 174.938 70.1062ZM183.413 64.6784C183.413 62.7337 183.967 61.1952 185.075 60.0629C186.207 58.9305 187.733 58.3644 189.653 58.3644C191.573 58.3644 193.099 58.9428 194.232 60.0998C195.364 61.2321 195.93 62.7583 195.93 64.6784C195.93 66.5984 195.364 68.1246 194.232 69.257C193.099 70.3893 191.573 70.9555 189.653 70.9555C187.733 70.9555 186.207 70.3893 185.075 69.257C183.967 68.1246 183.413 66.5984 183.413 64.6784ZM192.201 64.7522C192.201 63.103 191.967 61.7614 191.499 60.7275C191.032 59.669 190.441 59.1398 189.727 59.1398C188.939 59.1398 188.299 59.6567 187.807 60.6906C187.315 61.6998 187.068 63.0291 187.068 64.6784C187.068 66.3523 187.29 67.6816 187.733 68.6662C188.201 69.6508 188.816 70.1432 189.579 70.1432C190.342 70.1432 190.97 69.6508 191.462 68.6662C191.955 67.6569 192.201 66.3523 192.201 64.7522ZM197.62 64.6784C197.62 62.7337 198.174 61.1952 199.282 60.0629C200.414 58.9305 201.94 58.3644 203.86 58.3644C205.78 58.3644 207.306 58.9428 208.439 60.0998C209.571 61.2321 210.137 62.7583 210.137 64.6784C210.137 66.5984 209.571 68.1246 208.439 69.257C207.306 70.3893 205.78 70.9555 203.86 70.9555C201.94 70.9555 200.414 70.3893 199.282 69.257C198.174 68.1246 197.62 66.5984 197.62 64.6784ZM206.408 64.7522C206.408 63.103 206.174 61.7614 205.706 60.7275C205.239 59.669 204.648 59.1398 203.934 59.1398C203.146 59.1398 202.506 59.6567 202.014 60.6906C201.522 61.6998 201.276 63.0291 201.276 64.6784C201.276 66.3523 201.497 67.6816 201.94 68.6662C202.408 69.6508 203.023 70.1432 203.786 70.1432C204.549 70.1432 205.177 69.6508 205.67 68.6662C206.162 67.6569 206.408 66.3523 206.408 64.7522ZM225.563 69.5154C224.701 70.4755 223.631 70.9555 222.351 70.9555C221.563 70.9555 220.935 70.7832 220.467 70.4385C220.024 70.0939 219.68 69.5154 219.434 68.7031L218.289 65.4538C218.141 65.0353 217.944 64.7153 217.698 64.4938C217.477 64.2722 217.169 64.1122 216.775 64.0138V66.7831C216.775 67.5462 216.824 68.1493 216.923 68.5923C217.046 69.0354 217.243 69.4662 217.513 69.8847L217.809 70.2539L217.513 70.6232H212.16L211.938 69.9955L212.455 69.8847C212.849 69.7862 213.107 69.6385 213.23 69.4416C213.353 69.2201 213.415 68.8016 213.415 68.1862V54.8566C213.415 54.512 213.255 54.3396 212.935 54.3396H211.79L211.643 53.9704C212.11 53.5273 212.713 53.1827 213.452 52.9365C214.215 52.6658 214.966 52.5304 215.704 52.5304C216.024 52.5304 216.283 52.6042 216.48 52.7519C216.677 52.875 216.775 53.0596 216.775 53.3058V63.3122L218.99 61.6875C219.507 61.3183 219.864 61.0229 220.061 60.8014C220.258 60.5798 220.357 60.346 220.357 60.0998C220.357 59.7552 220.209 59.4598 219.914 59.2136L219.618 58.9921L219.914 58.6228H224.381L224.603 59.2506C223.988 59.3982 223.298 59.7429 222.535 60.2844L218.178 63.4599C219.261 63.583 220.098 63.8414 220.689 64.2353C221.28 64.6292 221.711 65.1953 221.981 65.9338L223.015 68.8877C223.187 69.4293 223.532 69.7001 224.049 69.7001C224.418 69.7001 224.824 69.5154 225.268 69.1462L225.563 69.5154ZM232.979 69.737C233.692 69.737 234.32 69.6139 234.862 69.3678C235.403 69.097 235.933 68.6539 236.449 68.0385L236.893 68.3708C236.326 69.1831 235.6 69.8231 234.714 70.2909C233.852 70.7339 232.905 70.9555 231.871 70.9555C230.739 70.9555 229.717 70.6847 228.806 70.1432C227.92 69.6016 227.218 68.8631 226.702 67.9277C226.185 66.9677 225.926 65.8846 225.926 64.6784C225.926 62.7583 226.505 61.2321 227.662 60.0998C228.843 58.9428 230.406 58.3644 232.351 58.3644C233.729 58.3644 234.849 58.6967 235.711 59.3613C236.597 60.0013 237.04 60.8383 237.04 61.8722C237.04 63.0537 236.536 64.0014 235.526 64.7153C234.542 65.4046 233.188 65.7492 231.465 65.7492C230.775 65.7492 230.148 65.7 229.582 65.6015C229.705 66.8815 230.074 67.8908 230.689 68.6293C231.305 69.3678 232.068 69.737 232.979 69.737ZM231.945 59.2506C231.182 59.2506 230.579 59.7183 230.135 60.6537C229.717 61.5645 229.508 62.8445 229.508 64.4938V65.0846C229.779 65.0846 230.111 65.0599 230.505 65.0107C231.539 64.8876 232.326 64.5553 232.868 64.0138C233.434 63.4476 233.717 62.7091 233.717 61.7983C233.717 61.0598 233.545 60.4567 233.2 59.989C232.88 59.4967 232.462 59.2506 231.945 59.2506ZM252.76 69.4416C251.849 70.4509 250.778 70.9555 249.547 70.9555C248.784 70.9555 248.218 70.7955 247.849 70.4755C247.48 70.1308 247.234 69.577 247.11 68.8139C246.47 69.5524 245.806 70.0939 245.117 70.4385C244.427 70.7832 243.664 70.9555 242.827 70.9555C241.596 70.9555 240.587 70.4139 239.8 69.3308C239.036 68.2477 238.655 66.8446 238.655 65.1215C238.655 63.0537 239.196 61.4168 240.28 60.2106C241.363 58.9798 242.84 58.3644 244.71 58.3644C245.572 58.3644 246.36 58.5613 247.074 58.9552V54.8566C247.074 54.512 246.914 54.3396 246.594 54.3396H245.338L245.19 53.9704C245.683 53.5273 246.31 53.1827 247.074 52.9365C247.837 52.6658 248.587 52.5304 249.326 52.5304C249.646 52.5304 249.904 52.6042 250.101 52.7519C250.298 52.875 250.397 53.0596 250.397 53.3058V68.5185C250.397 69.257 250.631 69.6262 251.098 69.6262C251.566 69.6262 252.021 69.4416 252.464 69.0724L252.76 69.4416ZM244.747 69.1831C245.683 69.1831 246.458 68.6662 247.074 67.6323V59.6936C246.581 59.4475 246.04 59.3244 245.449 59.3244C243.381 59.3244 242.347 61.1091 242.347 64.6784C242.347 66.1307 242.544 67.2508 242.938 68.0385C243.357 68.8016 243.96 69.1831 244.747 69.1831ZM255.98 52.3457C256.423 52.3457 256.841 52.4073 257.235 52.5304C257.629 52.6534 257.924 52.8135 258.121 53.0104C258.121 53.8966 257.9 55.8289 257.457 58.8075C257.038 61.7614 256.657 64.0014 256.312 65.5276H255.684C255.34 63.9768 254.946 61.7245 254.503 58.7705C254.06 55.8166 253.838 53.8966 253.838 53.0104C254.035 52.8135 254.33 52.6534 254.724 52.5304C255.118 52.4073 255.537 52.3457 255.98 52.3457ZM254.097 68.9247C254.097 68.5308 254.318 68.1 254.761 67.6323C255.204 67.14 255.61 66.8938 255.98 66.8938C256.374 66.8938 256.804 67.14 257.272 67.6323C257.74 68.1 257.974 68.5308 257.974 68.9247C257.974 69.3431 257.74 69.7862 257.272 70.2539C256.804 70.7216 256.374 70.9555 255.98 70.9555C255.61 70.9555 255.204 70.7216 254.761 70.2539C254.318 69.7616 254.097 69.3185 254.097 68.9247Z" fill="white"/>
</g>
<defs>
<filter id="filter0_d_14_2582" x="0.979897" y="0.481941" width="275.19" height="94.319" filterUnits="userSpaceOnUse" color-interpolation-filters="sRGB">
<feFlood flood-opacity="0" result="BackgroundImageFix"/>
<feColorMatrix in="SourceAlpha" type="matrix" values="0 0 0 0 0 0 0 0 0 0 0 0 0 0 0 0 0 0 127 0" result="hardAlpha"/>
<feOffset/>
<feGaussianBlur stdDeviation="9.02421"/>
<feComposite in2="hardAlpha" operator="out"/>
<feColorMatrix type="matrix" values="0 0 0 0 0.807843 0 0 0 0 0.203922 0 0 0 0 0.0705882 0 0 0 1 0"/>
<feBlend mode="normal" in2="BackgroundImageFix" result="effect1_dropShadow_14_2582"/>
<feBlend mode="normal" in="SourceGraphic" in2="effect1_dropShadow_14_2582" result="shape"/>
</filter>
</defs>
</svg>
