<svg width="158" height="12" viewBox="0 0 158 12" fill="none" xmlns="http://www.w3.org/2000/svg">
<path d="M0.651971 11.2923V0.677481H1.29985V5.67909H7.69569V0.677481H8.34357V11.2923H7.69569V6.28032H1.29985V11.2923H0.651971ZM14.1498 11.4582C13.4933 11.4582 12.9094 11.2819 12.398 10.9295C11.8866 10.5736 11.484 10.0847 11.1903 9.46269C10.8966 8.84073 10.7498 8.13239 10.7498 7.33766C10.7498 6.53947 10.8966 5.83113 11.1903 5.21262C11.484 4.59066 11.8866 4.10173 12.398 3.74583C12.9094 3.38993 13.4933 3.21198 14.1498 3.21198C14.8064 3.21198 15.3903 3.38993 15.9017 3.74583C16.4131 4.10173 16.8156 4.59066 17.1093 5.21262C17.403 5.83458 17.5499 6.54293 17.5499 7.33766C17.5499 8.13239 17.403 8.84073 17.1093 9.46269C16.8156 10.0847 16.4131 10.5736 15.9017 10.9295C15.3903 11.2819 14.8064 11.4582 14.1498 11.4582ZM14.1498 10.8725C14.7061 10.8725 15.1916 10.7153 15.6063 10.4008C16.0244 10.0864 16.3474 9.66138 16.5755 9.1258C16.807 8.59022 16.9228 7.99417 16.9228 7.33766C16.9228 6.68114 16.807 6.08682 16.5755 5.5547C16.344 5.01912 16.0209 4.59411 15.6063 4.27968C15.1916 3.96179 14.7061 3.80284 14.1498 3.80284C13.5935 3.80284 13.1081 3.96179 12.6934 4.27968C12.2788 4.59411 11.9557 5.01912 11.7242 5.5547C11.4927 6.08682 11.3769 6.68114 11.3769 7.33766C11.3769 7.99417 11.491 8.59022 11.719 9.1258C11.9505 9.66138 12.2736 10.0864 12.6882 10.4008C13.1063 10.7153 13.5935 10.8725 14.1498 10.8725ZM19.7281 11.2923V3.33119H20.3448V4.53364H20.407C20.5591 4.13282 20.8217 3.81493 21.1949 3.57997C21.568 3.34501 22.0172 3.22753 22.5424 3.22753C23.1195 3.22753 23.5842 3.36574 23.9367 3.64217C24.2926 3.91859 24.5483 4.2935 24.7038 4.76688H24.7608C24.9163 4.30041 25.1944 3.92723 25.5952 3.64735C25.9995 3.36747 26.4971 3.22753 27.0879 3.22753C27.8585 3.22753 28.4459 3.47113 28.8502 3.95833C29.2579 4.44208 29.4618 5.1055 29.4618 5.94861V11.2923H28.8294V5.94861C28.8294 5.28518 28.6705 4.76342 28.3526 4.38334C28.0347 4.00325 27.5682 3.81321 26.9532 3.81321C26.2967 3.81321 25.7922 4.0188 25.4397 4.42998C25.0873 4.84117 24.9111 5.36465 24.9111 6.00044V11.2923H24.2787V5.90714C24.2787 5.28864 24.1233 4.78588 23.8123 4.39889C23.5013 4.00843 23.0348 3.81321 22.4129 3.81321C21.9913 3.81321 21.6268 3.90996 21.3192 4.10345C21.0152 4.29695 20.7785 4.56302 20.6092 4.90164C20.4433 5.24026 20.3604 5.62899 20.3604 6.06782V11.2923H19.7281ZM35.1903 11.4582C34.4716 11.4582 33.8462 11.2802 33.314 10.9243C32.7819 10.5684 32.3707 10.0812 32.0805 9.46269C31.7902 8.84419 31.6451 8.1393 31.6451 7.34802C31.6451 6.55329 31.7902 5.84495 32.0805 5.22299C32.3742 4.60102 32.7767 4.11037 33.2881 3.75101C33.7995 3.39165 34.3835 3.21198 35.04 3.21198C35.4857 3.21198 35.9073 3.30181 36.3046 3.48149C36.7055 3.65771 37.0579 3.91341 37.362 4.24858C37.6695 4.58375 37.9096 4.98802 38.0824 5.4614C38.2586 5.93479 38.3467 6.46691 38.3467 7.05777V7.45168H32.0442V6.87637H37.7144C37.7144 6.29933 37.5969 5.7793 37.362 5.31628C37.127 4.85326 36.8074 4.48527 36.4031 4.2123C35.9988 3.93933 35.5445 3.80284 35.04 3.80284C34.5113 3.80284 34.0397 3.95142 33.625 4.24858C33.2138 4.54228 32.8873 4.93965 32.6454 5.44067C32.407 5.9417 32.2826 6.50146 32.2723 7.11997V7.37912C32.2723 8.04255 32.388 8.63859 32.6195 9.16726C32.8545 9.69247 33.1896 10.1088 33.625 10.4164C34.0604 10.7204 34.5821 10.8725 35.1903 10.8725C35.6257 10.8725 35.9971 10.7999 36.3046 10.6548C36.6156 10.5062 36.8696 10.3265 37.0665 10.1158C37.2635 9.90498 37.4121 9.70111 37.5123 9.50416L38.0876 9.73739C37.9667 10.0035 37.7783 10.2695 37.5226 10.5356C37.2704 10.7982 36.9491 11.0176 36.5586 11.1938C36.1716 11.37 35.7155 11.4582 35.1903 11.4582ZM44.6286 11.2923V3.33119H45.2453V4.53364H45.3075C45.4596 4.13282 45.7222 3.81493 46.0954 3.57997C46.4685 3.34501 46.9177 3.22753 47.4429 3.22753C48.02 3.22753 48.4847 3.36574 48.8372 3.64217C49.1931 3.91859 49.4488 4.2935 49.6043 4.76688H49.6613C49.8168 4.30041 50.0949 3.92723 50.4957 3.64735C50.9 3.36747 51.3976 3.22753 51.9884 3.22753C52.759 3.22753 53.3464 3.47113 53.7507 3.95833C54.1584 4.44208 54.3623 5.1055 54.3623 5.94861V11.2923H53.7299V5.94861C53.7299 5.28518 53.571 4.76342 53.2531 4.38334C52.9352 4.00325 52.4687 3.81321 51.8537 3.81321C51.1972 3.81321 50.6927 4.0188 50.3402 4.42998C49.9878 4.84117 49.8116 5.36465 49.8116 6.00044V11.2923H49.1793V5.90714C49.1793 5.28864 49.0238 4.78588 48.7128 4.39889C48.4018 4.00843 47.9353 3.81321 47.3134 3.81321C46.8918 3.81321 46.5273 3.90996 46.2197 4.10345C45.9157 4.29695 45.679 4.56302 45.5097 4.90164C45.3438 5.24026 45.2609 5.62899 45.2609 6.06782V11.2923H44.6286ZM59.0957 11.4633C58.6361 11.4633 58.2145 11.3718 57.831 11.1886C57.4509 11.0055 57.1451 10.7377 56.9136 10.3853C56.6856 10.0328 56.5715 9.60436 56.5715 9.09988C56.5715 8.76817 56.6303 8.47619 56.7477 8.22395C56.8652 7.97171 57.0466 7.75403 57.292 7.57089C57.5373 7.38776 57.8517 7.23745 58.2353 7.11997C58.6188 6.99903 59.0767 6.90574 59.6088 6.84009C60.0131 6.79171 60.3741 6.74506 60.692 6.70015C61.0099 6.65177 61.2587 6.57748 61.4384 6.47728C61.6215 6.37707 61.7131 6.22504 61.7131 6.02117V5.68946C61.7131 5.10896 61.5299 4.64767 61.1637 4.30559C60.7974 3.96351 60.2929 3.79247 59.6502 3.79247C59.0801 3.79247 58.5998 3.91859 58.2094 4.17083C57.8224 4.41962 57.5511 4.74097 57.3956 5.13487L56.7996 4.912C56.9516 4.53192 57.171 4.21575 57.4578 3.96351C57.7481 3.71127 58.0798 3.52296 58.453 3.39856C58.8296 3.27417 59.2235 3.21198 59.6347 3.21198C59.9906 3.21198 60.3292 3.26208 60.6506 3.36228C60.9754 3.46249 61.2639 3.61452 61.5161 3.81839C61.7718 4.02225 61.974 4.28313 62.1225 4.60102C62.2711 4.91546 62.3454 5.29209 62.3454 5.73092V11.2923H61.7131V9.8566H61.6664C61.5282 10.1538 61.3382 10.425 61.0963 10.6703C60.8579 10.9122 60.5694 11.1057 60.2307 11.2508C59.8956 11.3925 59.5172 11.4633 59.0957 11.4633ZM59.1579 10.8777C59.6554 10.8777 60.096 10.7567 60.4795 10.5148C60.8665 10.2695 61.1689 9.93435 61.3865 9.50934C61.6042 9.08433 61.7131 8.60231 61.7131 8.06328V6.89192C61.6336 6.96102 61.5179 7.02322 61.3658 7.07851C61.2172 7.13034 61.0479 7.17698 60.8579 7.21845C60.6713 7.25646 60.4743 7.29101 60.267 7.32211C60.0632 7.34975 59.8645 7.37566 59.671 7.39985C59.0905 7.46896 58.6171 7.57608 58.2508 7.7212C57.888 7.86287 57.622 8.04946 57.4526 8.28097C57.2868 8.51247 57.2039 8.79236 57.2039 9.12061C57.2039 9.6631 57.3904 10.0916 57.7636 10.406C58.1368 10.7204 58.6015 10.8777 59.1579 10.8777ZM67.728 11.4582C67.0887 11.4582 66.5307 11.2819 66.0539 10.9295C65.577 10.577 65.2073 10.0916 64.9447 9.47306C64.6855 8.8511 64.556 8.13757 64.556 7.33247C64.556 6.53429 64.6873 5.82594 64.9499 5.20744C65.2159 4.58547 65.5874 4.09827 66.0642 3.74583C66.5411 3.38993 67.0974 3.21198 67.7332 3.21198C68.1893 3.21198 68.5849 3.30009 68.9201 3.47631C69.2587 3.64908 69.542 3.87886 69.7701 4.16565C70.0016 4.45244 70.1778 4.76688 70.2987 5.10896H70.3609V0.677481H70.9881V11.2923H70.3765V9.55599H70.2987C70.1709 9.89807 69.9929 10.2142 69.7649 10.5045C69.5368 10.7913 69.2535 11.0228 68.9149 11.199C68.5763 11.3718 68.1806 11.4582 67.728 11.4582ZM67.785 10.8725C68.324 10.8725 68.7853 10.7187 69.1688 10.4112C69.5558 10.1002 69.8513 9.67865 70.0551 9.14653C70.2625 8.61095 70.3661 8.00454 70.3661 7.32729C70.3661 6.65004 70.2625 6.04709 70.0551 5.51842C69.8513 4.98629 69.5558 4.5682 69.1688 4.26413C68.7853 3.9566 68.324 3.80284 67.785 3.80284C67.239 3.80284 66.7708 3.95833 66.3804 4.26931C65.9934 4.57684 65.6962 4.99666 65.4889 5.52878C65.285 6.06091 65.1831 6.66041 65.1831 7.32729C65.1831 7.99417 65.285 8.5954 65.4889 9.13098C65.6962 9.66656 65.9934 10.0916 66.3804 10.406C66.7708 10.717 67.239 10.8725 67.785 10.8725ZM76.9382 11.4582C76.2195 11.4582 75.5941 11.2802 75.0619 10.9243C74.5298 10.5684 74.1186 10.0812 73.8284 9.46269C73.5381 8.84419 73.393 8.1393 73.393 7.34802C73.393 6.55329 73.5381 5.84495 73.8284 5.22299C74.1221 4.60102 74.5246 4.11037 75.036 3.75101C75.5474 3.39165 76.1314 3.21198 76.7879 3.21198C77.2336 3.21198 77.6552 3.30181 78.0525 3.48149C78.4534 3.65771 78.8058 3.91341 79.1099 4.24858C79.4174 4.58375 79.6575 4.98802 79.8303 5.4614C80.0065 5.93479 80.0946 6.46691 80.0946 7.05777V7.45168H73.7921V6.87637H79.4623C79.4623 6.29933 79.3448 5.7793 79.1099 5.31628C78.8749 4.85326 78.5553 4.48527 78.151 4.2123C77.7467 3.93933 77.2924 3.80284 76.7879 3.80284C76.2592 3.80284 75.7876 3.95142 75.3729 4.24858C74.9617 4.54228 74.6352 4.93965 74.3933 5.44067C74.1549 5.9417 74.0305 6.50146 74.0201 7.11997V7.37912C74.0201 8.04255 74.1359 8.63859 74.3674 9.16726C74.6024 9.69247 74.9375 10.1088 75.3729 10.4164C75.8083 10.7204 76.33 10.8725 76.9382 10.8725C77.3736 10.8725 77.745 10.7999 78.0525 10.6548C78.3635 10.5062 78.6175 10.3265 78.8144 10.1158C79.0114 9.90498 79.16 9.70111 79.2602 9.50416L79.8355 9.73739C79.7146 10.0035 79.5262 10.2695 79.2705 10.5356C79.0183 10.7982 78.697 11.0176 78.3065 11.1938C77.9195 11.37 77.4634 11.4582 76.9382 11.4582ZM87.0088 0.677481V11.2923H86.3765V0.677481H87.0088ZM92.7308 11.4582C92.0121 11.4582 91.3867 11.2802 90.8546 10.9243C90.3225 10.5684 89.9113 10.0812 89.621 9.46269C89.3308 8.84419 89.1856 8.1393 89.1856 7.34802C89.1856 6.55329 89.3308 5.84495 89.621 5.22299C89.9147 4.60102 90.3173 4.11037 90.8287 3.75101C91.3401 3.39165 91.924 3.21198 92.5805 3.21198C93.0263 3.21198 93.4478 3.30181 93.8452 3.48149C94.246 3.65771 94.5984 3.91341 94.9025 4.24858C95.21 4.58375 95.4502 4.98802 95.623 5.4614C95.7992 5.93479 95.8873 6.46691 95.8873 7.05777V7.45168H89.5847V6.87637H95.255C95.255 6.29933 95.1375 5.7793 94.9025 5.31628C94.6676 4.85326 94.3479 4.48527 93.9437 4.2123C93.5394 3.93933 93.085 3.80284 92.5805 3.80284C92.0519 3.80284 91.5802 3.95142 91.1656 4.24858C90.7544 4.54228 90.4278 4.93965 90.186 5.44067C89.9476 5.9417 89.8232 6.50146 89.8128 7.11997V7.37912C89.8128 8.04255 89.9285 8.63859 90.1601 9.16726C90.395 9.69247 90.7302 10.1088 91.1656 10.4164C91.6009 10.7204 92.1227 10.8725 92.7308 10.8725C93.1662 10.8725 93.5377 10.7999 93.8452 10.6548C94.1562 10.5062 94.4101 10.3265 94.6071 10.1158C94.804 9.90498 94.9526 9.70111 95.0528 9.50416L95.6281 9.73739C95.5072 10.0035 95.3189 10.2695 95.0632 10.5356C94.8109 10.7982 94.4896 11.0176 94.0991 11.1938C93.7122 11.37 93.256 11.4582 92.7308 11.4582ZM98.0642 11.2923V3.33119H98.6809V4.53364H98.7431C98.8952 4.13282 99.1578 3.81493 99.5309 3.57997C99.9041 3.34501 100.353 3.22753 100.879 3.22753C101.456 3.22753 101.92 3.36574 102.273 3.64217C102.629 3.91859 102.884 4.2935 103.04 4.76688H103.097C103.252 4.30041 103.531 3.92723 103.931 3.64735C104.336 3.36747 104.833 3.22753 105.424 3.22753C106.195 3.22753 106.782 3.47113 107.186 3.95833C107.594 4.44208 107.798 5.1055 107.798 5.94861V11.2923H107.166V5.94861C107.166 5.28518 107.007 4.76342 106.689 4.38334C106.371 4.00325 105.904 3.81321 105.289 3.81321C104.633 3.81321 104.128 4.0188 103.776 4.42998C103.423 4.84117 103.247 5.36465 103.247 6.00044V11.2923H102.615V5.90714C102.615 5.28864 102.459 4.78588 102.148 4.39889C101.837 4.00843 101.371 3.81321 100.749 3.81321C100.327 3.81321 99.9629 3.90996 99.6553 4.10345C99.3513 4.29695 99.1146 4.56302 98.9453 4.90164C98.7794 5.24026 98.6965 5.62899 98.6965 6.06782V11.2923H98.0642ZM113.381 11.4582C112.725 11.4582 112.141 11.2819 111.629 10.9295C111.118 10.5736 110.715 10.0847 110.422 9.46269C110.128 8.84073 109.981 8.13239 109.981 7.33766C109.981 6.53947 110.128 5.83113 110.422 5.21262C110.715 4.59066 111.118 4.10173 111.629 3.74583C112.141 3.38993 112.725 3.21198 113.381 3.21198C114.038 3.21198 114.622 3.38993 115.133 3.74583C115.645 4.10173 116.047 4.59066 116.341 5.21262C116.634 5.83458 116.781 6.54293 116.781 7.33766C116.781 8.13239 116.634 8.84073 116.341 9.46269C116.047 10.0847 115.645 10.5736 115.133 10.9295C114.622 11.2819 114.038 11.4582 113.381 11.4582ZM113.381 10.8725C113.938 10.8725 114.423 10.7153 114.838 10.4008C115.256 10.0864 115.579 9.66138 115.807 9.1258C116.038 8.59022 116.154 7.99417 116.154 7.33766C116.154 6.68114 116.038 6.08682 115.807 5.5547C115.575 5.01912 115.252 4.59411 114.838 4.27968C114.423 3.96179 113.938 3.80284 113.381 3.80284C112.825 3.80284 112.339 3.96179 111.925 4.27968C111.51 4.59411 111.187 5.01912 110.956 5.5547C110.724 6.08682 110.608 6.68114 110.608 7.33766C110.608 7.99417 110.722 8.59022 110.95 9.1258C111.182 9.66138 111.505 10.0864 111.92 10.4008C112.338 10.7153 112.825 10.8725 113.381 10.8725ZM119.592 6.13001V11.2923H118.959V3.33119H119.576V4.59066H119.638C119.825 4.17947 120.124 3.84949 120.535 3.6007C120.946 3.35192 121.435 3.22753 122.002 3.22753C122.537 3.22753 123.007 3.34155 123.412 3.5696C123.819 3.79766 124.137 4.12246 124.365 4.54401C124.597 4.96211 124.713 5.4614 124.713 6.0419V11.2923H124.08V6.06782C124.08 5.39057 123.878 4.84635 123.474 4.43517C123.073 4.02053 122.543 3.81321 121.883 3.81321C121.44 3.81321 121.047 3.90996 120.701 4.10345C120.355 4.29695 120.084 4.5682 119.887 4.91719C119.69 5.26272 119.592 5.667 119.592 6.13001ZM129.45 11.4633C128.99 11.4633 128.569 11.3718 128.185 11.1886C127.805 11.0055 127.499 10.7377 127.268 10.3853C127.04 10.0328 126.926 9.60436 126.926 9.09988C126.926 8.76817 126.985 8.47619 127.102 8.22395C127.219 7.97171 127.401 7.75403 127.646 7.57089C127.892 7.38776 128.206 7.23745 128.59 7.11997C128.973 6.99903 129.431 6.90574 129.963 6.84009C130.367 6.79171 130.728 6.74506 131.046 6.70015C131.364 6.65177 131.613 6.57748 131.793 6.47728C131.976 6.37707 132.067 6.22504 132.067 6.02117V5.68946C132.067 5.10896 131.884 4.64767 131.518 4.30559C131.152 3.96351 130.647 3.79247 130.004 3.79247C129.434 3.79247 128.954 3.91859 128.564 4.17083C128.177 4.41962 127.905 4.74097 127.75 5.13487L127.154 4.912C127.306 4.53192 127.525 4.21575 127.812 3.96351C128.102 3.71127 128.434 3.52296 128.807 3.39856C129.184 3.27417 129.578 3.21198 129.989 3.21198C130.345 3.21198 130.683 3.26208 131.005 3.36228C131.33 3.46249 131.618 3.61452 131.87 3.81839C132.126 4.02225 132.328 4.28313 132.477 4.60102C132.625 4.91546 132.7 5.29209 132.7 5.73092V11.2923H132.067V9.8566H132.021C131.882 10.1538 131.692 10.425 131.451 10.6703C131.212 10.9122 130.924 11.1057 130.585 11.2508C130.25 11.3925 129.871 11.4633 129.45 11.4633ZM129.512 10.8777C130.01 10.8777 130.45 10.7567 130.834 10.5148C131.221 10.2695 131.523 9.93435 131.741 9.50934C131.958 9.08433 132.067 8.60231 132.067 8.06328V6.89192C131.988 6.96102 131.872 7.02322 131.72 7.07851C131.571 7.13034 131.402 7.17698 131.212 7.21845C131.026 7.25646 130.829 7.29101 130.621 7.32211C130.417 7.34975 130.219 7.37566 130.025 7.39985C129.445 7.46896 128.971 7.57608 128.605 7.7212C128.242 7.86287 127.976 8.04946 127.807 8.28097C127.641 8.51247 127.558 8.79236 127.558 9.12061C127.558 9.6631 127.745 10.0916 128.118 10.406C128.491 10.7204 128.956 10.8777 129.512 10.8777ZM138.082 11.4582C137.443 11.4582 136.885 11.2819 136.408 10.9295C135.931 10.577 135.562 10.0916 135.299 9.47306C135.04 8.8511 134.91 8.13757 134.91 7.33247C134.91 6.53429 135.042 5.82594 135.304 5.20744C135.57 4.58547 135.942 4.09827 136.418 3.74583C136.895 3.38993 137.452 3.21198 138.087 3.21198C138.544 3.21198 138.939 3.30009 139.274 3.47631C139.613 3.64908 139.896 3.87886 140.124 4.16565C140.356 4.45244 140.532 4.76688 140.653 5.10896H140.715V0.677481H141.342V11.2923H140.731V9.55599H140.653C140.525 9.89807 140.347 10.2142 140.119 10.5045C139.891 10.7913 139.608 11.0228 139.269 11.199C138.931 11.3718 138.535 11.4582 138.082 11.4582ZM138.139 10.8725C138.678 10.8725 139.14 10.7187 139.523 10.4112C139.91 10.1002 140.206 9.67865 140.409 9.14653C140.617 8.61095 140.72 8.00454 140.72 7.32729C140.72 6.65004 140.617 6.04709 140.409 5.51842C140.206 4.98629 139.91 4.5682 139.523 4.26413C139.14 3.9566 138.678 3.80284 138.139 3.80284C137.593 3.80284 137.125 3.95833 136.735 4.26931C136.348 4.57684 136.05 4.99666 135.843 5.52878C135.639 6.06091 135.537 6.66041 135.537 7.32729C135.537 7.99417 135.639 8.5954 135.843 9.13098C136.05 9.66656 136.348 10.0916 136.735 10.406C137.125 10.717 137.593 10.8725 138.139 10.8725ZM147.292 11.4582C146.574 11.4582 145.948 11.2802 145.416 10.9243C144.884 10.5684 144.473 10.0812 144.183 9.46269C143.892 8.84419 143.747 8.1393 143.747 7.34802C143.747 6.55329 143.892 5.84495 144.183 5.22299C144.476 4.60102 144.879 4.11037 145.39 3.75101C145.902 3.39165 146.486 3.21198 147.142 3.21198C147.588 3.21198 148.009 3.30181 148.407 3.48149C148.808 3.65771 149.16 3.91341 149.464 4.24858C149.772 4.58375 150.012 4.98802 150.185 5.4614C150.361 5.93479 150.449 6.46691 150.449 7.05777V7.45168H144.146V6.87637H149.817C149.817 6.29933 149.699 5.7793 149.464 5.31628C149.229 4.85326 148.91 4.48527 148.505 4.2123C148.101 3.93933 147.647 3.80284 147.142 3.80284C146.613 3.80284 146.142 3.95142 145.727 4.24858C145.316 4.54228 144.989 4.93965 144.748 5.44067C144.509 5.9417 144.385 6.50146 144.374 7.11997V7.37912C144.374 8.04255 144.49 8.63859 144.722 9.16726C144.957 9.69247 145.292 10.1088 145.727 10.4164C146.163 10.7204 146.684 10.8725 147.292 10.8725C147.728 10.8725 148.099 10.7999 148.407 10.6548C148.718 10.5062 148.972 10.3265 149.169 10.1158C149.366 9.90498 149.514 9.70111 149.614 9.50416L150.19 9.73739C150.069 10.0035 149.88 10.2695 149.625 10.5356C149.373 10.7982 149.051 11.0176 148.661 11.1938C148.274 11.37 147.818 11.4582 147.292 11.4582ZM157.684 5.04676L157.099 5.20225C157.005 4.912 156.872 4.66149 156.7 4.45072C156.527 4.23994 156.309 4.07754 156.047 3.96351C155.787 3.84603 155.476 3.78729 155.114 3.78729C154.53 3.78729 154.051 3.93241 153.678 4.22266C153.308 4.51291 153.123 4.89127 153.123 5.35774C153.123 5.73783 153.249 6.05227 153.502 6.30105C153.754 6.54638 154.139 6.73297 154.658 6.86082L155.881 7.16662C156.51 7.32211 156.983 7.57435 157.301 7.92334C157.619 8.26887 157.778 8.69906 157.778 9.21391C157.778 9.65274 157.658 10.0415 157.42 10.3801C157.182 10.7187 156.852 10.983 156.43 11.1731C156.012 11.3631 155.525 11.4582 154.968 11.4582C154.226 11.4582 153.616 11.2854 153.139 10.9399C152.662 10.5909 152.356 10.0916 152.221 9.44196L152.828 9.28647C152.942 9.80477 153.179 10.2004 153.538 10.4734C153.901 10.7429 154.376 10.8777 154.963 10.8777C155.613 10.8777 156.136 10.7239 156.534 10.4164C156.935 10.1088 157.135 9.71493 157.135 9.23464C157.135 8.86837 157.018 8.55912 156.783 8.30688C156.548 8.05464 156.192 7.86978 155.715 7.7523L154.445 7.44132C153.795 7.28237 153.308 7.0284 152.983 6.67941C152.659 6.32697 152.496 5.89332 152.496 5.37848C152.496 4.95001 152.608 4.57338 152.833 4.24858C153.058 3.92378 153.367 3.66981 153.761 3.48668C154.155 3.30354 154.606 3.21198 155.114 3.21198C155.787 3.21198 156.337 3.37092 156.762 3.68881C157.187 4.0067 157.494 4.45935 157.684 5.04676Z" fill="white"/>
</svg>
