<svg width="124" height="12" viewBox="0 0 124 12" fill="none" xmlns="http://www.w3.org/2000/svg">
<path d="M0.822198 11.2923V0.677481H6.73084V1.27871H1.47007V5.67909H6.41467V6.28032H1.47007V10.6911H6.85523V11.2923H0.822198ZM9.43248 3.33119L11.6301 6.87118L13.8277 3.33119H14.5585L12.0084 7.31174L14.5585 11.2923H13.8277L11.6301 7.80931L9.43248 11.2923H8.69649L11.2362 7.31174L8.69649 3.33119H9.43248ZM19.3346 11.4582C18.6574 11.4582 18.0613 11.2802 17.5465 10.9243C17.0316 10.5649 16.6291 10.0743 16.3389 9.45233C16.0521 8.83036 15.9087 8.12547 15.9087 7.33766C15.9087 6.54984 16.0538 5.84495 16.344 5.22299C16.6343 4.60102 17.0368 4.11037 17.5517 3.75101C18.0665 3.39165 18.6591 3.21198 19.3295 3.21198C19.8339 3.21198 20.2935 3.31564 20.7081 3.52296C21.1262 3.73028 21.4718 4.0188 21.7447 4.38852C22.0212 4.75824 22.1974 5.1867 22.2734 5.67391H21.6307C21.5271 5.13487 21.2679 4.68914 20.8533 4.33669C20.4421 3.98079 19.9359 3.80284 19.3346 3.80284C18.7956 3.80284 18.3153 3.95487 17.8938 4.25894C17.4722 4.55956 17.1405 4.97593 16.8986 5.50805C16.6567 6.03672 16.5358 6.64313 16.5358 7.32729C16.5358 8.00108 16.6533 8.60577 16.8883 9.14135C17.1232 9.67347 17.4515 10.095 17.873 10.406C18.2946 10.717 18.7818 10.8725 19.3346 10.8725C19.7251 10.8725 20.081 10.7947 20.4023 10.6392C20.7271 10.4837 20.9984 10.2626 21.2161 9.97581C21.4338 9.68902 21.5772 9.35385 21.6463 8.97031H22.289C22.2129 9.46097 22.0402 9.89288 21.7707 10.2661C21.5011 10.6392 21.1573 10.9312 20.7392 11.142C20.3211 11.3528 19.8529 11.4582 19.3346 11.4582ZM25.0774 0.677481V11.2923H24.4451V0.677481H25.0774ZM32.7949 8.46755V3.33119H33.4273V11.2923H32.7949V10.0017H32.7431C32.5565 10.4129 32.2542 10.7481 31.8361 11.0072C31.4214 11.2664 30.9308 11.396 30.3641 11.396C29.8423 11.396 29.381 11.2819 28.9802 11.0539C28.5794 10.8258 28.265 10.5028 28.0369 10.0847C27.8089 9.6631 27.6948 9.16208 27.6948 8.58158V3.33119H28.3272V8.55567C28.3272 9.21909 28.5276 9.7564 28.9284 10.1676C29.3327 10.5753 29.8544 10.7792 30.4937 10.7792C30.9083 10.7792 31.2901 10.6859 31.6391 10.4993C31.9881 10.3127 32.268 10.0466 32.4788 9.70111C32.6895 9.35212 32.7949 8.94094 32.7949 8.46755ZM41.1059 5.04676L40.5202 5.20225C40.4269 4.912 40.2939 4.66149 40.1211 4.45072C39.9484 4.23994 39.7307 4.07754 39.4681 3.96351C39.2089 3.84603 38.8979 3.78729 38.5351 3.78729C37.9512 3.78729 37.4726 3.93241 37.0994 4.22266C36.7297 4.51291 36.5448 4.89127 36.5448 5.35774C36.5448 5.73783 36.671 6.05227 36.9232 6.30105C37.1754 6.54638 37.5607 6.73297 38.079 6.86082L39.3022 7.16662C39.9311 7.32211 40.4045 7.57435 40.7223 7.92334C41.0402 8.26887 41.1992 8.69906 41.1992 9.21391C41.1992 9.65274 41.08 10.0415 40.8416 10.3801C40.6031 10.7187 40.2732 10.983 39.8516 11.1731C39.4335 11.3631 38.9463 11.4582 38.39 11.4582C37.6471 11.4582 37.0372 11.2854 36.5604 10.9399C36.0835 10.5909 35.7778 10.0916 35.643 9.44196L36.2494 9.28647C36.3634 9.80477 36.6001 10.2004 36.9595 10.4734C37.3223 10.7429 37.7974 10.8777 38.3848 10.8777C39.0344 10.8777 39.5579 10.7239 39.9553 10.4164C40.3561 10.1088 40.5565 9.71493 40.5565 9.23464C40.5565 8.86837 40.439 8.55912 40.204 8.30688C39.9691 8.05464 39.6132 7.86978 39.1363 7.7523L37.8665 7.44132C37.2169 7.28237 36.7297 7.0284 36.4049 6.67941C36.0801 6.32697 35.9177 5.89332 35.9177 5.37848C35.9177 4.95001 36.03 4.57338 36.2546 4.24858C36.4792 3.92378 36.7884 3.66981 37.1823 3.48668C37.5763 3.30354 38.0272 3.21198 38.5351 3.21198C39.2089 3.21198 39.7583 3.37092 40.1833 3.68881C40.6083 4.0067 40.9158 4.45935 41.1059 5.04676ZM43.4188 11.2923V3.33119H44.046V11.2923H43.4188ZM43.735 1.9214C43.5968 1.9214 43.4758 1.87303 43.3722 1.77628C43.272 1.67953 43.2219 1.56205 43.2219 1.42384C43.2219 1.28562 43.272 1.16814 43.3722 1.07139C43.4724 0.97464 43.5933 0.926265 43.735 0.926265C43.8732 0.926265 43.9924 0.97464 44.0926 1.07139C44.1963 1.16814 44.2481 1.28562 44.2481 1.42384C44.2481 1.56205 44.198 1.67953 44.0978 1.77628C43.9976 1.87303 43.8766 1.9214 43.735 1.9214ZM52.515 3.33119L49.6384 11.2923H48.9232L46.0466 3.33119H46.7256L49.2549 10.4786H49.3067L51.836 3.33119H52.515ZM57.3106 11.4582C56.5919 11.4582 55.9665 11.2802 55.4343 10.9243C54.9022 10.5684 54.491 10.0812 54.2008 9.46269C53.9105 8.84419 53.7654 8.1393 53.7654 7.34802C53.7654 6.55329 53.9105 5.84495 54.2008 5.22299C54.4945 4.60102 54.897 4.11037 55.4084 3.75101C55.9198 3.39165 56.5038 3.21198 57.1603 3.21198C57.606 3.21198 58.0276 3.30181 58.4249 3.48149C58.8258 3.65771 59.1782 3.91341 59.4823 4.24858C59.7898 4.58375 60.0299 4.98802 60.2027 5.4614C60.3789 5.93479 60.467 6.46691 60.467 7.05777V7.45168H54.1645V6.87637H59.8347C59.8347 6.29933 59.7172 5.7793 59.4823 5.31628C59.2473 4.85326 58.9277 4.48527 58.5234 4.2123C58.1191 3.93933 57.6648 3.80284 57.1603 3.80284C56.6316 3.80284 56.16 3.95142 55.7453 4.24858C55.3341 4.54228 55.0076 4.93965 54.7657 5.44067C54.5273 5.9417 54.4029 6.50146 54.3926 7.11997V7.37912C54.3926 8.04255 54.5083 8.63859 54.7398 9.16726C54.9748 9.69247 55.3099 10.1088 55.7453 10.4164C56.1807 10.7204 56.7024 10.8725 57.3106 10.8725C57.746 10.8725 58.1174 10.7999 58.4249 10.6548C58.7359 10.5062 58.9899 10.3265 59.1868 10.1158C59.3838 9.90498 59.5324 9.70111 59.6326 9.50416L60.2079 9.73739C60.087 10.0035 59.8986 10.2695 59.6429 10.5356C59.3907 10.7982 59.0694 11.0176 58.6789 11.1938C58.2919 11.37 57.8358 11.4582 57.3106 11.4582ZM69.7343 11.4582C69.057 11.4582 68.461 11.2802 67.9461 10.9243C67.4313 10.5649 67.0287 10.0743 66.7385 9.45233C66.4517 8.83036 66.3083 8.12547 66.3083 7.33766C66.3083 6.54984 66.4534 5.84495 66.7437 5.22299C67.0339 4.60102 67.4365 4.11037 67.9513 3.75101C68.4662 3.39165 69.0588 3.21198 69.7291 3.21198C70.2336 3.21198 70.6931 3.31564 71.1078 3.52296C71.5259 3.73028 71.8714 4.0188 72.1444 4.38852C72.4208 4.75824 72.597 5.1867 72.6731 5.67391H72.0304C71.9267 5.13487 71.6675 4.68914 71.2529 4.33669C70.8417 3.98079 70.3355 3.80284 69.7343 3.80284C69.1952 3.80284 68.715 3.95487 68.2934 4.25894C67.8719 4.55956 67.5401 4.97593 67.2983 5.50805C67.0564 6.03672 66.9355 6.64313 66.9355 7.32729C66.9355 8.00108 67.0529 8.60577 67.2879 9.14135C67.5229 9.67347 67.8511 10.095 68.2727 10.406C68.6942 10.717 69.1814 10.8725 69.7343 10.8725C70.1247 10.8725 70.4806 10.7947 70.802 10.6392C71.1268 10.4837 71.398 10.2626 71.6157 9.97581C71.8334 9.68902 71.9768 9.35385 72.0459 8.97031H72.6886C72.6126 9.46097 72.4398 9.89288 72.1703 10.2661C71.9008 10.6392 71.557 10.9312 71.1389 11.142C70.7208 11.3528 70.2526 11.4582 69.7343 11.4582ZM77.8042 11.4582C77.1477 11.4582 76.5638 11.2819 76.0524 10.9295C75.541 10.5736 75.1384 10.0847 74.8447 9.46269C74.551 8.84073 74.4042 8.13239 74.4042 7.33766C74.4042 6.53947 74.551 5.83113 74.8447 5.21262C75.1384 4.59066 75.541 4.10173 76.0524 3.74583C76.5638 3.38993 77.1477 3.21198 77.8042 3.21198C78.4608 3.21198 79.0447 3.38993 79.5561 3.74583C80.0675 4.10173 80.47 4.59066 80.7637 5.21262C81.0574 5.83458 81.2043 6.54293 81.2043 7.33766C81.2043 8.13239 81.0574 8.84073 80.7637 9.46269C80.47 10.0847 80.0675 10.5736 79.5561 10.9295C79.0447 11.2819 78.4608 11.4582 77.8042 11.4582ZM77.8042 10.8725C78.3605 10.8725 78.846 10.7153 79.2607 10.4008C79.6788 10.0864 80.0018 9.66138 80.2299 9.1258C80.4614 8.59022 80.5772 7.99417 80.5772 7.33766C80.5772 6.68114 80.4614 6.08682 80.2299 5.5547C79.9984 5.01912 79.6753 4.59411 79.2607 4.27968C78.846 3.96179 78.3605 3.80284 77.8042 3.80284C77.2479 3.80284 76.7625 3.96179 76.3478 4.27968C75.9332 4.59411 75.6101 5.01912 75.3786 5.5547C75.1471 6.08682 75.0313 6.68114 75.0313 7.33766C75.0313 7.99417 75.1453 8.59022 75.3734 9.1258C75.6049 9.66138 75.928 10.0864 76.3426 10.4008C76.7607 10.7153 77.2479 10.8725 77.8042 10.8725ZM86.3679 11.4582C85.6906 11.4582 85.0946 11.2802 84.5797 10.9243C84.0649 10.5649 83.6623 10.0743 83.3721 9.45233C83.0853 8.83036 82.9419 8.12547 82.9419 7.33766C82.9419 6.54984 83.087 5.84495 83.3773 5.22299C83.6675 4.60102 84.0701 4.11037 84.5849 3.75101C85.0998 3.39165 85.6924 3.21198 86.3627 3.21198C86.8672 3.21198 87.3267 3.31564 87.7414 3.52296C88.1595 3.73028 88.505 4.0188 88.778 4.38852C89.0544 4.75824 89.2306 5.1867 89.3066 5.67391H88.6639C88.5603 5.13487 88.3011 4.68914 87.8865 4.33669C87.4753 3.98079 86.9691 3.80284 86.3679 3.80284C85.8288 3.80284 85.3485 3.95487 84.927 4.25894C84.5054 4.55956 84.1737 4.97593 83.9319 5.50805C83.69 6.03672 83.569 6.64313 83.569 7.32729C83.569 8.00108 83.6865 8.60577 83.9215 9.14135C84.1565 9.67347 84.4847 10.095 84.9063 10.406C85.3278 10.717 85.815 10.8725 86.3679 10.8725C86.7583 10.8725 87.1142 10.7947 87.4356 10.6392C87.7604 10.4837 88.0316 10.2626 88.2493 9.97581C88.467 9.68902 88.6104 9.35385 88.6795 8.97031H89.3222C89.2462 9.46097 89.0734 9.89288 88.8039 10.2661C88.5344 10.6392 88.1906 10.9312 87.7725 11.142C87.3544 11.3528 86.8862 11.4582 86.3679 11.4582ZM92.0277 8.18249L92.0174 7.27546H92.1832L96.1638 3.33119H96.9879L93.3338 6.9593L93.2716 6.98521L92.0277 8.18249ZM91.4783 11.2923V0.677481H92.1107V11.2923H91.4783ZM96.3452 11.2923L92.9866 7.04741L93.4427 6.62758L97.1537 11.2923H96.3452ZM101.676 3.33119V3.89613H98.1981V3.33119H101.676ZM99.3747 1.42384H100.002V9.41086C100.002 9.73566 100.064 10.0017 100.188 10.209C100.316 10.4129 100.482 10.5649 100.686 10.6652C100.893 10.7619 101.114 10.8103 101.349 10.8103C101.463 10.8103 101.562 10.8016 101.645 10.7844C101.731 10.7671 101.812 10.7446 101.888 10.717L102.044 11.2923C101.947 11.3269 101.84 11.3562 101.723 11.3804C101.605 11.4081 101.467 11.4219 101.308 11.4219C100.976 11.4219 100.662 11.3476 100.365 11.199C100.071 11.0504 99.8325 10.8345 99.6494 10.5511C99.4662 10.2678 99.3747 9.92571 99.3747 9.52489V1.42384ZM106.131 11.4633C105.671 11.4633 105.25 11.3718 104.866 11.1886C104.486 11.0055 104.18 10.7377 103.949 10.3853C103.721 10.0328 103.607 9.60436 103.607 9.09988C103.607 8.76817 103.665 8.47619 103.783 8.22395C103.9 7.97171 104.082 7.75403 104.327 7.57089C104.572 7.38776 104.887 7.23745 105.27 7.11997C105.654 6.99903 106.112 6.90574 106.644 6.84009C107.048 6.79171 107.409 6.74506 107.727 6.70015C108.045 6.65177 108.294 6.57748 108.473 6.47728C108.657 6.37707 108.748 6.22504 108.748 6.02117V5.68946C108.748 5.10896 108.565 4.64767 108.199 4.30559C107.832 3.96351 107.328 3.79247 106.685 3.79247C106.115 3.79247 105.635 3.91859 105.244 4.17083C104.857 4.41962 104.586 4.74097 104.431 5.13487L103.835 4.912C103.987 4.53192 104.206 4.21575 104.493 3.96351C104.783 3.71127 105.115 3.52296 105.488 3.39856C105.865 3.27417 106.259 3.21198 106.67 3.21198C107.026 3.21198 107.364 3.26208 107.686 3.36228C108.01 3.46249 108.299 3.61452 108.551 3.81839C108.807 4.02225 109.009 4.28313 109.158 4.60102C109.306 4.91546 109.38 5.29209 109.38 5.73092V11.2923H108.748V9.8566H108.701C108.563 10.1538 108.373 10.425 108.131 10.6703C107.893 10.9122 107.604 11.1057 107.266 11.2508C106.931 11.3925 106.552 11.4633 106.131 11.4633ZM106.193 10.8777C106.69 10.8777 107.131 10.7567 107.515 10.5148C107.902 10.2695 108.204 9.93435 108.422 9.50934C108.639 9.08433 108.748 8.60231 108.748 8.06328V6.89192C108.669 6.96102 108.553 7.02322 108.401 7.07851C108.252 7.13034 108.083 7.17698 107.893 7.21845C107.706 7.25646 107.509 7.29101 107.302 7.32211C107.098 7.34975 106.9 7.37566 106.706 7.39985C106.126 7.46896 105.652 7.57608 105.286 7.7212C104.923 7.86287 104.657 8.04946 104.488 8.28097C104.322 8.51247 104.239 8.79236 104.239 9.12061C104.239 9.6631 104.426 10.0916 104.799 10.406C105.172 10.7204 105.637 10.8777 106.193 10.8777ZM112.063 11.2923V3.33119H112.69V11.2923H112.063ZM112.379 1.9214C112.241 1.9214 112.12 1.87303 112.016 1.77628C111.916 1.67953 111.866 1.56205 111.866 1.42384C111.866 1.28562 111.916 1.16814 112.016 1.07139C112.116 0.97464 112.237 0.926265 112.379 0.926265C112.517 0.926265 112.636 0.97464 112.736 1.07139C112.84 1.16814 112.892 1.28562 112.892 1.42384C112.892 1.56205 112.842 1.67953 112.742 1.77628C112.641 1.87303 112.521 1.9214 112.379 1.9214ZM115.971 0.677481V11.2923H115.338V0.677481H115.971ZM123.647 5.04676L123.061 5.20225C122.968 4.912 122.835 4.66149 122.662 4.45072C122.489 4.23994 122.271 4.07754 122.009 3.96351C121.75 3.84603 121.439 3.78729 121.076 3.78729C120.492 3.78729 120.013 3.93241 119.64 4.22266C119.271 4.51291 119.086 4.89127 119.086 5.35774C119.086 5.73783 119.212 6.05227 119.464 6.30105C119.716 6.54638 120.102 6.73297 120.62 6.86082L121.843 7.16662C122.472 7.32211 122.945 7.57435 123.263 7.92334C123.581 8.26887 123.74 8.69906 123.74 9.21391C123.74 9.65274 123.621 10.0415 123.382 10.3801C123.144 10.7187 122.814 10.983 122.392 11.1731C121.974 11.3631 121.487 11.4582 120.931 11.4582C120.188 11.4582 119.578 11.2854 119.101 10.9399C118.624 10.5909 118.319 10.0916 118.184 9.44196L118.79 9.28647C118.904 9.80477 119.141 10.2004 119.5 10.4734C119.863 10.7429 120.338 10.8777 120.926 10.8777C121.575 10.8777 122.099 10.7239 122.496 10.4164C122.897 10.1088 123.097 9.71493 123.097 9.23464C123.097 8.86837 122.98 8.55912 122.745 8.30688C122.51 8.05464 122.154 7.86978 121.677 7.7523L120.407 7.44132C119.758 7.28237 119.271 7.0284 118.946 6.67941C118.621 6.32697 118.459 5.89332 118.459 5.37848C118.459 4.95001 118.571 4.57338 118.795 4.24858C119.02 3.92378 119.329 3.66981 119.723 3.48668C120.117 3.30354 120.568 3.21198 121.076 3.21198C121.75 3.21198 122.299 3.37092 122.724 3.68881C123.149 4.0067 123.457 4.45935 123.647 5.04676Z" fill="white"/>
</svg>
