<svg width="29" height="29" viewBox="0 0 29 29" fill="none" xmlns="http://www.w3.org/2000/svg">
<mask id="path-1-inside-1_10_802" fill="white">
<path d="M14.5 0.106201C6.64 0.106201 0.209106 6.53709 0.209106 14.3971C0.209106 22.257 6.64 28.6879 14.5 28.6879C22.3599 28.6879 28.7908 22.257 28.7908 14.3971C28.7908 6.53709 22.3599 0.106201 14.5 0.106201ZM8.3549 19.3989L7.35454 17.5411L13.0709 14.2542V7.25163H15.2145V15.5403L8.3549 19.3989Z"/>
</mask>
<path d="M8.3549 19.3989L-86.736 70.6016L-34.5798 167.463L61.3031 113.529L8.3549 19.3989ZM7.35454 17.5411L-46.4803 -76.0848L-137.53 -23.731L-87.7364 68.7438L7.35454 17.5411ZM13.0709 14.2542L66.9058 107.88L121.071 76.7351V14.2542H13.0709ZM13.0709 7.25163V-100.748H-94.9291V7.25163H13.0709ZM15.2145 7.25163H123.215V-100.748H15.2145V7.25163ZM15.2145 15.5403L68.1627 109.67L123.215 78.7039V15.5403H15.2145ZM14.5 -107.894C-53.0068 -107.894 -107.791 -53.1097 -107.791 14.3971H108.209C108.209 66.1838 66.2868 108.106 14.5 108.106V-107.894ZM-107.791 14.3971C-107.791 81.9038 -53.0068 136.688 14.5 136.688V-79.3121C66.2868 -79.3121 108.209 -37.3897 108.209 14.3971H-107.791ZM14.5 136.688C82.0067 136.688 136.791 81.9038 136.791 14.3971H-79.2092C-79.2092 -37.3897 -37.2868 -79.3121 14.5 -79.3121V136.688ZM136.791 14.3971C136.791 -53.1097 82.0067 -107.894 14.5 -107.894V108.106C-37.2868 108.106 -79.2092 66.1838 -79.2092 14.3971H136.791ZM103.446 -31.8039L102.445 -33.6617L-87.7364 68.7438L-86.736 70.6016L103.446 -31.8039ZM61.1894 111.167L66.9058 107.88L-40.764 -79.3717L-46.4803 -76.0848L61.1894 111.167ZM121.071 14.2542V7.25163H-94.9291V14.2542H121.071ZM13.0709 115.252H15.2145V-100.748H13.0709V115.252ZM-92.7855 7.25163V15.5403H123.215V7.25163H-92.7855ZM-37.7337 -78.5898L-44.5933 -74.7313L61.3031 113.529L68.1627 109.67L-37.7337 -78.5898Z" fill="white" mask="url(#path-1-inside-1_10_802)"/>
</svg>
