<svg width="228" height="26" viewBox="0 0 228 26" fill="none" xmlns="http://www.w3.org/2000/svg">
<path d="M28.7334 8.91867C28.7334 8.94009 28.7441 9.10071 28.7655 9.40053L26.9023 9.59327L25.7459 9.85026L19.9957 24.9806H18.0683L14.3098 12.2596L9.97307 24.9806H8.04564L3.03433 9.97876C2.90583 9.74318 2.74521 9.61469 2.55247 9.59327L0.882029 9.43265C0.860613 9.30416 0.849905 9.14354 0.849905 8.9508L7.59591 8.91867C7.59591 8.94009 7.60662 9.10071 7.62803 9.40053L5.31512 9.56115L9.65184 23.9526L14.3419 9.07929L15.4341 8.91867L19.5139 24.4666L24.5573 10.0751C24.6215 9.94663 24.5894 9.83955 24.4609 9.75389C24.3324 9.66823 24.1825 9.61469 24.0112 9.59327L22.3408 9.43265C22.3193 9.30416 22.3086 9.14354 22.3086 8.9508L28.7334 8.91867ZM30.1127 17.5921C30.1127 22.2179 31.9116 24.5309 35.5095 24.5309C36.4518 24.5309 37.4584 24.4345 38.5292 24.2417C39.6 24.0276 40.2853 23.8348 40.5851 23.6635L40.81 23.9848C40.3174 24.306 39.5036 24.5737 38.3685 24.7878C37.2549 25.002 36.2269 25.1091 35.2847 25.1091C34.3638 25.1091 33.5285 25.0127 32.779 24.82C32.0509 24.6272 31.3013 24.2846 30.5303 23.792C29.7594 23.2994 29.149 22.5285 28.6993 21.4791C28.2495 20.4297 28.0247 19.1448 28.0247 17.6242C28.0247 14.7973 28.7528 12.6343 30.2091 11.1352C31.7296 9.57186 33.4964 8.79018 35.5095 8.79018C37.5226 8.79018 39.0538 9.34699 40.1032 10.4606C41.174 11.5742 41.7094 13.1376 41.7094 15.1507C41.7094 15.579 41.6773 16.0395 41.613 16.532H30.1448C30.1234 16.7676 30.1127 17.121 30.1127 17.5921ZM39.8141 14.9258C39.8141 13.3196 39.4607 12.0133 38.754 11.0067C38.0473 9.97876 37.0836 9.46478 35.8629 9.46478C34.2781 9.46478 32.9396 10.1608 31.8474 11.5528C30.9693 12.645 30.4232 14.1013 30.2091 15.9217H39.782C39.8034 15.6861 39.8141 15.3541 39.8141 14.9258ZM44.2899 25.0127L44.322 24.563L45.9924 24.3381C46.1423 24.3167 46.2387 24.2096 46.2815 24.0169V2.04417C46.2815 1.8086 46.2173 1.69081 46.0888 1.69081L44.1292 1.62656L44.1614 1.17683C45.5106 0.984083 46.4315 0.887712 46.924 0.887712C47.438 0.887712 47.8021 1.02691 48.0162 1.30532C48.2518 1.58373 48.3696 1.88355 48.3696 2.20479V24.3381L50.7789 24.4987C50.7789 24.5201 50.7682 24.6808 50.7468 24.9806L44.2899 25.0127ZM61.6894 9.36841C59.8691 9.36841 58.3914 10.0858 57.2564 11.5207C56.1427 12.9342 55.5859 14.9472 55.5859 17.56C55.5859 22.2072 57.3527 24.5309 60.8863 24.5309C62.2784 24.5309 63.467 24.4024 64.4521 24.1454C65.4372 23.867 65.9726 23.6956 66.0583 23.6314L66.2832 23.9848C65.7906 24.306 64.9768 24.5737 63.8417 24.7878C62.7067 25.002 61.6787 25.1091 60.7579 25.1091C59.837 25.1091 59.0017 25.0127 58.2522 24.82C57.5026 24.6272 56.7424 24.2846 55.9714 23.792C55.2218 23.2994 54.6222 22.5285 54.1725 21.4791C53.7227 20.4083 53.4979 19.1126 53.4979 17.5921C53.4979 14.7866 54.2153 12.6665 55.6502 11.2316C57.2564 9.58256 59.2802 8.75805 61.7216 8.75805C62.4925 8.75805 63.3063 8.86513 64.163 9.07929C65.041 9.27203 65.7156 9.58256 66.1868 10.0109V14.2191L65.5764 14.444L65.4158 11.071C64.9447 10.5784 64.3664 10.1715 63.6811 9.85026C63.0172 9.52902 62.3533 9.36841 61.6894 9.36841ZM75.5075 25.1091C73.2802 25.1091 71.4706 24.4666 70.0785 23.1817C68.7079 21.8967 68.0226 19.9371 68.0226 17.303C68.0226 14.6474 68.7507 12.5701 70.207 11.071C71.6847 9.55044 73.5372 8.79018 75.7645 8.79018C77.9917 8.79018 79.8013 9.43265 81.1934 10.7176C82.5854 12.0026 83.2814 13.9728 83.2814 16.6284C83.2814 19.2625 82.5426 21.3399 81.0649 22.8604C79.6086 24.3595 77.7561 25.1091 75.5075 25.1091ZM75.7323 9.36841C74.1261 9.36841 72.7876 10.0644 71.7168 11.4565C70.6461 12.8485 70.1107 14.7438 70.1107 17.1424C70.1107 19.5195 70.6139 21.3506 71.6205 22.6356C72.6484 23.8991 73.9655 24.5309 75.5717 24.5309C77.1779 24.5309 78.5164 23.8348 79.5872 22.4428C80.658 21.0508 81.1934 19.1662 81.1934 16.789C81.1934 14.4118 80.6794 12.5808 79.6514 11.2958C78.6449 10.0109 77.3385 9.36841 75.7323 9.36841ZM93.4451 9.52902C92.1602 9.55044 90.7681 10.0216 89.269 10.9425V24.3381L91.6783 24.4987C91.6783 24.5201 91.6676 24.6808 91.6462 24.9806L85.2214 25.0127C85.2214 24.82 85.2321 24.6701 85.2535 24.563L86.924 24.3381C87.0525 24.3381 87.1381 24.2417 87.181 24.049V9.94663C87.1381 9.79672 87.0739 9.72177 86.9882 9.72177L85.0608 9.65752L85.0929 9.20779C86.2494 9.01504 87.1274 8.91867 87.7271 8.91867C88.3267 8.91867 88.7336 9.05788 88.9478 9.33628C89.1619 9.61469 89.269 9.91451 89.269 10.2357V10.6212C91.0465 9.50761 92.6741 8.90796 94.1518 8.8223C96.1863 8.8223 97.5677 9.40053 98.2958 10.557C100.159 9.48619 101.915 8.90796 103.564 8.8223C105.063 8.8223 106.198 9.13283 106.969 9.75389C107.333 10.0323 107.644 10.4713 107.901 11.071C108.179 11.6492 108.318 12.3452 108.318 13.159V24.3381L110.728 24.4987C110.728 24.5201 110.717 24.6808 110.696 24.9806L104.271 25.0127C104.271 24.82 104.282 24.6701 104.303 24.563L105.973 24.3381C106.102 24.3381 106.188 24.2417 106.23 24.049V13.9621C106.23 13.1055 106.123 12.3773 105.909 11.7777C105.695 11.1566 105.459 10.7069 105.202 10.4285C104.945 10.1501 104.624 9.93593 104.239 9.78602C103.81 9.61469 103.35 9.52902 102.857 9.52902C101.53 9.55044 100.084 10.0537 98.5207 11.0388C98.7991 11.6385 98.9383 12.3452 98.9383 13.159V24.3381L101.348 24.4987C101.348 24.5201 101.337 24.6808 101.315 24.9806L94.8586 25.0127L94.8907 24.563L96.5611 24.3381C96.711 24.3167 96.8074 24.2096 96.8502 24.0169V13.93C96.8502 12.8806 96.711 12.024 96.4326 11.3601C96.1542 10.6748 95.7794 10.225 95.3083 10.0109C94.6658 9.68964 94.0448 9.52902 93.4451 9.52902ZM114.281 17.5921C114.281 22.2179 116.08 24.5309 119.678 24.5309C120.62 24.5309 121.627 24.4345 122.697 24.2417C123.768 24.0276 124.453 23.8348 124.753 23.6635L124.978 23.9848C124.486 24.306 123.672 24.5737 122.537 24.7878C121.423 25.002 120.395 25.1091 119.453 25.1091C118.532 25.1091 117.697 25.0127 116.947 24.82C116.219 24.6272 115.47 24.2846 114.699 23.792C113.928 23.2994 113.317 22.5285 112.867 21.4791C112.418 20.4297 112.193 19.1448 112.193 17.6242C112.193 14.7973 112.921 12.6343 114.377 11.1352C115.898 9.57186 117.665 8.79018 119.678 8.79018C121.691 8.79018 123.222 9.34699 124.271 10.4606C125.342 11.5742 125.878 13.1376 125.878 15.1507C125.878 15.579 125.846 16.0395 125.781 16.532H114.313C114.292 16.7676 114.281 17.121 114.281 17.5921ZM123.982 14.9258C123.982 13.3196 123.629 12.0133 122.922 11.0067C122.216 9.97876 121.252 9.46478 120.031 9.46478C118.446 9.46478 117.108 10.1608 116.016 11.5528C115.138 12.645 114.591 14.1013 114.377 15.9217H123.95C123.972 15.6861 123.982 15.3541 123.982 14.9258ZM142.443 2.20479V10.2036C143.728 9.15425 145.163 8.62956 146.748 8.62956C148.204 8.62956 149.575 9.07929 150.86 9.97876C151.545 10.4713 152.091 11.2423 152.498 12.2917C152.927 13.3411 153.141 14.6153 153.141 16.1144C153.141 18.9627 152.434 21.1043 151.021 22.5392C149.414 24.1668 147.38 24.9806 144.917 24.9806C143.996 24.9806 143.075 24.9056 142.154 24.7557C141.255 24.6058 140.655 24.4345 140.355 24.2417V1.9478C140.313 1.77647 140.248 1.69081 140.163 1.69081L138.203 1.62656L138.235 1.17683C139.584 0.984083 140.505 0.887712 140.998 0.887712C141.512 0.887712 141.876 1.02691 142.09 1.30532C142.326 1.58373 142.443 1.88355 142.443 2.20479ZM142.443 10.814V24.4024C143.022 24.5951 143.696 24.6915 144.467 24.6915C146.566 24.6915 148.183 23.9526 149.318 22.4749C150.474 20.9972 151.053 18.9306 151.053 16.275C151.053 13.3625 150.474 11.4029 149.318 10.3964C148.419 9.60398 147.38 9.20779 146.202 9.20779C145.024 9.20779 143.771 9.74318 142.443 10.814ZM163.189 25.1091C160.962 25.1091 159.152 24.4666 157.76 23.1817C156.39 21.8967 155.704 19.9371 155.704 17.303C155.704 14.6474 156.433 12.5701 157.889 11.071C159.366 9.55044 161.219 8.79018 163.446 8.79018C165.673 8.79018 167.483 9.43265 168.875 10.7176C170.267 12.0026 170.963 13.9728 170.963 16.6284C170.963 19.2625 170.224 21.3399 168.747 22.8604C167.29 24.3595 165.438 25.1091 163.189 25.1091ZM163.414 9.36841C161.808 9.36841 160.469 10.0644 159.399 11.4565C158.328 12.8485 157.792 14.7438 157.792 17.1424C157.792 19.5195 158.296 21.3506 159.302 22.6356C160.33 23.8991 161.647 24.5309 163.253 24.5309C164.86 24.5309 166.198 23.8348 167.269 22.4428C168.34 21.0508 168.875 19.1662 168.875 16.789C168.875 14.4118 168.361 12.5808 167.333 11.2958C166.327 10.0109 165.02 9.36841 163.414 9.36841ZM172.903 25.0127L172.935 24.563L174.606 24.3381C174.798 24.3167 174.895 24.1668 174.895 23.8884V9.97876C174.852 9.80743 174.788 9.72177 174.702 9.72177L172.743 9.65752L172.775 9.20779C174.124 9.01504 175.034 8.91867 175.505 8.91867C176.362 8.91867 176.844 9.29345 176.951 10.043H176.983V10.7176C178.739 9.51832 180.42 8.88655 182.026 8.8223C183.59 8.8223 184.778 9.13283 185.592 9.75389C185.956 10.0323 186.277 10.4713 186.556 11.071C186.856 11.6492 187.006 12.3452 187.006 13.159V24.3381L189.415 24.4987C189.415 24.5201 189.404 24.6808 189.383 24.9806L182.958 25.0127C182.958 24.82 182.969 24.6701 182.99 24.563L184.66 24.3381C184.832 24.3167 184.917 24.1668 184.917 23.8884V13.9621C184.917 13.1055 184.8 12.3773 184.564 11.7777C184.35 11.178 184.104 10.739 183.825 10.4606C183.547 10.1822 183.204 9.96805 182.797 9.81814C182.326 9.64681 181.834 9.56115 181.32 9.56115C180.035 9.58256 178.589 10.0858 176.983 11.071V24.3381L179.392 24.4987C179.392 24.5201 179.381 24.6808 179.36 24.9806L172.903 25.0127ZM191.417 9.43265L191.384 8.9508L195.721 8.91867V20.0978C195.721 20.933 195.839 21.6611 196.074 22.2822C196.31 22.8818 196.567 23.3209 196.845 23.5993C197.145 23.8777 197.488 24.0918 197.873 24.2417C198.473 24.4559 198.976 24.5416 199.383 24.4987C200.69 24.4773 202.178 23.8027 203.848 22.4749V10.043C203.763 9.78602 203.581 9.6361 203.302 9.59327L201.632 9.43265C201.611 9.30416 201.6 9.14354 201.6 8.9508L205.937 8.91867V23.5029C205.979 24.0383 206.151 24.306 206.45 24.306L208.378 24.4024L208.346 24.8842C207.318 25.0555 206.247 25.1412 205.133 25.1412C204.876 25.1198 204.598 24.9806 204.298 24.7236C203.998 24.4452 203.848 24.1025 203.848 23.6956V23.1174C201.9 24.4238 200.058 25.077 198.323 25.077C197.595 25.077 196.738 24.8949 195.753 24.5309C195.111 24.2953 194.597 23.8563 194.211 23.2138C193.826 22.5499 193.633 21.7254 193.633 20.7402V10.0751C193.633 9.96805 193.569 9.87168 193.44 9.78602C193.333 9.67894 193.215 9.61469 193.087 9.59327L191.417 9.43265ZM215.35 24.5951C215.478 24.5951 215.607 24.5844 215.735 24.563C216.849 24.5416 217.78 24.1989 218.53 23.535C219.279 22.8497 219.654 21.8539 219.654 20.5475C219.654 19.2625 218.648 18.331 216.634 17.7527C215.799 17.5172 214.964 17.2602 214.129 16.9818C213.294 16.7033 212.576 16.2643 211.977 15.6647C211.398 15.065 211.109 14.2834 211.109 13.3196C211.109 11.949 211.634 10.8568 212.683 10.043C213.733 9.20779 215.06 8.79018 216.667 8.79018C217.866 8.79018 219.076 9.00434 220.297 9.43265L220.875 9.65752V13.3518L220.264 13.5766L220.136 10.8461C218.894 9.86097 217.855 9.36841 217.02 9.36841C215.842 9.36841 214.911 9.72177 214.225 10.4285C213.54 11.1138 213.197 12.0347 213.197 13.1911C213.197 13.855 213.486 14.3904 214.065 14.7973C214.664 15.2042 215.382 15.5255 216.217 15.761C217.052 15.9966 217.887 16.2643 218.723 16.5641C219.558 16.8426 220.264 17.3137 220.843 17.9776C221.442 18.6201 221.742 19.466 221.742 20.5154C221.742 21.9288 221.207 23.0532 220.136 23.8884C219.087 24.7022 217.588 25.1091 215.639 25.1091C213.69 25.1091 212.073 24.6486 210.788 23.7278V20.0335L211.366 19.8087L211.527 22.5392C211.827 23.096 212.362 23.5778 213.133 23.9848C213.925 24.3917 214.664 24.5951 215.35 24.5951ZM227.734 2.4939L227.091 20.8366H226.449L225.806 2.65452L227.734 2.4939ZM225.935 24.6594C225.72 24.4238 225.613 24.1561 225.613 23.8563C225.613 23.5564 225.72 23.2994 225.935 23.0853C226.17 22.8497 226.438 22.7319 226.738 22.7319C227.038 22.7319 227.295 22.8497 227.509 23.0853C227.744 23.2994 227.862 23.5564 227.862 23.8563C227.862 24.1561 227.744 24.4238 227.509 24.6594C227.295 24.8735 227.038 24.9806 226.738 24.9806C226.438 24.9806 226.17 24.8735 225.935 24.6594Z" fill="white"/>
<path d="M28.7334 8.91867C28.7334 8.94009 28.7441 9.10071 28.7655 9.40053L26.9023 9.59327L25.7459 9.85026L19.9957 24.9806H18.0683L14.3098 12.2596L9.97307 24.9806H8.04564L3.03433 9.97876C2.90583 9.74318 2.74521 9.61469 2.55247 9.59327L0.882029 9.43265C0.860613 9.30416 0.849905 9.14354 0.849905 8.9508L7.59591 8.91867C7.59591 8.94009 7.60662 9.10071 7.62803 9.40053L5.31512 9.56115L9.65184 23.9526L14.3419 9.07929L15.4341 8.91867L19.5139 24.4666L24.5573 10.0751C24.6215 9.94663 24.5894 9.83955 24.4609 9.75389C24.3324 9.66823 24.1825 9.61469 24.0112 9.59327L22.3408 9.43265C22.3193 9.30416 22.3086 9.14354 22.3086 8.9508L28.7334 8.91867ZM30.1127 17.5921C30.1127 22.2179 31.9116 24.5309 35.5095 24.5309C36.4518 24.5309 37.4584 24.4345 38.5292 24.2417C39.6 24.0276 40.2853 23.8348 40.5851 23.6635L40.81 23.9848C40.3174 24.306 39.5036 24.5737 38.3685 24.7878C37.2549 25.002 36.2269 25.1091 35.2847 25.1091C34.3638 25.1091 33.5285 25.0127 32.779 24.82C32.0509 24.6272 31.3013 24.2846 30.5303 23.792C29.7594 23.2994 29.149 22.5285 28.6993 21.4791C28.2495 20.4297 28.0247 19.1448 28.0247 17.6242C28.0247 14.7973 28.7528 12.6343 30.2091 11.1352C31.7296 9.57186 33.4964 8.79018 35.5095 8.79018C37.5226 8.79018 39.0538 9.34699 40.1032 10.4606C41.174 11.5742 41.7094 13.1376 41.7094 15.1507C41.7094 15.579 41.6773 16.0395 41.613 16.532H30.1448C30.1234 16.7676 30.1127 17.121 30.1127 17.5921ZM39.8141 14.9258C39.8141 13.3196 39.4607 12.0133 38.754 11.0067C38.0473 9.97876 37.0836 9.46478 35.8629 9.46478C34.2781 9.46478 32.9396 10.1608 31.8474 11.5528C30.9693 12.645 30.4232 14.1013 30.2091 15.9217H39.782C39.8034 15.6861 39.8141 15.3541 39.8141 14.9258ZM44.2899 25.0127L44.322 24.563L45.9924 24.3381C46.1423 24.3167 46.2387 24.2096 46.2815 24.0169V2.04417C46.2815 1.8086 46.2173 1.69081 46.0888 1.69081L44.1292 1.62656L44.1614 1.17683C45.5106 0.984083 46.4315 0.887712 46.924 0.887712C47.438 0.887712 47.8021 1.02691 48.0162 1.30532C48.2518 1.58373 48.3696 1.88355 48.3696 2.20479V24.3381L50.7789 24.4987C50.7789 24.5201 50.7682 24.6808 50.7468 24.9806L44.2899 25.0127ZM61.6894 9.36841C59.8691 9.36841 58.3914 10.0858 57.2564 11.5207C56.1427 12.9342 55.5859 14.9472 55.5859 17.56C55.5859 22.2072 57.3527 24.5309 60.8863 24.5309C62.2784 24.5309 63.467 24.4024 64.4521 24.1454C65.4372 23.867 65.9726 23.6956 66.0583 23.6314L66.2832 23.9848C65.7906 24.306 64.9768 24.5737 63.8417 24.7878C62.7067 25.002 61.6787 25.1091 60.7579 25.1091C59.837 25.1091 59.0017 25.0127 58.2522 24.82C57.5026 24.6272 56.7424 24.2846 55.9714 23.792C55.2218 23.2994 54.6222 22.5285 54.1725 21.4791C53.7227 20.4083 53.4979 19.1126 53.4979 17.5921C53.4979 14.7866 54.2153 12.6665 55.6502 11.2316C57.2564 9.58256 59.2802 8.75805 61.7216 8.75805C62.4925 8.75805 63.3063 8.86513 64.163 9.07929C65.041 9.27203 65.7156 9.58256 66.1868 10.0109V14.2191L65.5764 14.444L65.4158 11.071C64.9447 10.5784 64.3664 10.1715 63.6811 9.85026C63.0172 9.52902 62.3533 9.36841 61.6894 9.36841ZM75.5075 25.1091C73.2802 25.1091 71.4706 24.4666 70.0785 23.1817C68.7079 21.8967 68.0226 19.9371 68.0226 17.303C68.0226 14.6474 68.7507 12.5701 70.207 11.071C71.6847 9.55044 73.5372 8.79018 75.7645 8.79018C77.9917 8.79018 79.8013 9.43265 81.1934 10.7176C82.5854 12.0026 83.2814 13.9728 83.2814 16.6284C83.2814 19.2625 82.5426 21.3399 81.0649 22.8604C79.6086 24.3595 77.7561 25.1091 75.5075 25.1091ZM75.7323 9.36841C74.1261 9.36841 72.7876 10.0644 71.7168 11.4565C70.6461 12.8485 70.1107 14.7438 70.1107 17.1424C70.1107 19.5195 70.6139 21.3506 71.6205 22.6356C72.6484 23.8991 73.9655 24.5309 75.5717 24.5309C77.1779 24.5309 78.5164 23.8348 79.5872 22.4428C80.658 21.0508 81.1934 19.1662 81.1934 16.789C81.1934 14.4118 80.6794 12.5808 79.6514 11.2958C78.6449 10.0109 77.3385 9.36841 75.7323 9.36841ZM93.4451 9.52902C92.1602 9.55044 90.7681 10.0216 89.269 10.9425V24.3381L91.6783 24.4987C91.6783 24.5201 91.6676 24.6808 91.6462 24.9806L85.2214 25.0127C85.2214 24.82 85.2321 24.6701 85.2535 24.563L86.924 24.3381C87.0525 24.3381 87.1381 24.2417 87.181 24.049V9.94663C87.1381 9.79672 87.0739 9.72177 86.9882 9.72177L85.0608 9.65752L85.0929 9.20779C86.2494 9.01504 87.1274 8.91867 87.7271 8.91867C88.3267 8.91867 88.7336 9.05788 88.9478 9.33628C89.1619 9.61469 89.269 9.91451 89.269 10.2357V10.6212C91.0465 9.50761 92.6741 8.90796 94.1518 8.8223C96.1863 8.8223 97.5677 9.40053 98.2958 10.557C100.159 9.48619 101.915 8.90796 103.564 8.8223C105.063 8.8223 106.198 9.13283 106.969 9.75389C107.333 10.0323 107.644 10.4713 107.901 11.071C108.179 11.6492 108.318 12.3452 108.318 13.159V24.3381L110.728 24.4987C110.728 24.5201 110.717 24.6808 110.696 24.9806L104.271 25.0127C104.271 24.82 104.282 24.6701 104.303 24.563L105.973 24.3381C106.102 24.3381 106.188 24.2417 106.23 24.049V13.9621C106.23 13.1055 106.123 12.3773 105.909 11.7777C105.695 11.1566 105.459 10.7069 105.202 10.4285C104.945 10.1501 104.624 9.93593 104.239 9.78602C103.81 9.61469 103.35 9.52902 102.857 9.52902C101.53 9.55044 100.084 10.0537 98.5207 11.0388C98.7991 11.6385 98.9383 12.3452 98.9383 13.159V24.3381L101.348 24.4987C101.348 24.5201 101.337 24.6808 101.315 24.9806L94.8586 25.0127L94.8907 24.563L96.5611 24.3381C96.711 24.3167 96.8074 24.2096 96.8502 24.0169V13.93C96.8502 12.8806 96.711 12.024 96.4326 11.3601C96.1542 10.6748 95.7794 10.225 95.3083 10.0109C94.6658 9.68964 94.0448 9.52902 93.4451 9.52902ZM114.281 17.5921C114.281 22.2179 116.08 24.5309 119.678 24.5309C120.62 24.5309 121.627 24.4345 122.697 24.2417C123.768 24.0276 124.453 23.8348 124.753 23.6635L124.978 23.9848C124.486 24.306 123.672 24.5737 122.537 24.7878C121.423 25.002 120.395 25.1091 119.453 25.1091C118.532 25.1091 117.697 25.0127 116.947 24.82C116.219 24.6272 115.47 24.2846 114.699 23.792C113.928 23.2994 113.317 22.5285 112.867 21.4791C112.418 20.4297 112.193 19.1448 112.193 17.6242C112.193 14.7973 112.921 12.6343 114.377 11.1352C115.898 9.57186 117.665 8.79018 119.678 8.79018C121.691 8.79018 123.222 9.34699 124.271 10.4606C125.342 11.5742 125.878 13.1376 125.878 15.1507C125.878 15.579 125.846 16.0395 125.781 16.532H114.313C114.292 16.7676 114.281 17.121 114.281 17.5921ZM123.982 14.9258C123.982 13.3196 123.629 12.0133 122.922 11.0067C122.216 9.97876 121.252 9.46478 120.031 9.46478C118.446 9.46478 117.108 10.1608 116.016 11.5528C115.138 12.645 114.591 14.1013 114.377 15.9217H123.95C123.972 15.6861 123.982 15.3541 123.982 14.9258ZM142.443 2.20479V10.2036C143.728 9.15425 145.163 8.62956 146.748 8.62956C148.204 8.62956 149.575 9.07929 150.86 9.97876C151.545 10.4713 152.091 11.2423 152.498 12.2917C152.927 13.3411 153.141 14.6153 153.141 16.1144C153.141 18.9627 152.434 21.1043 151.021 22.5392C149.414 24.1668 147.38 24.9806 144.917 24.9806C143.996 24.9806 143.075 24.9056 142.154 24.7557C141.255 24.6058 140.655 24.4345 140.355 24.2417V1.9478C140.313 1.77647 140.248 1.69081 140.163 1.69081L138.203 1.62656L138.235 1.17683C139.584 0.984083 140.505 0.887712 140.998 0.887712C141.512 0.887712 141.876 1.02691 142.09 1.30532C142.326 1.58373 142.443 1.88355 142.443 2.20479ZM142.443 10.814V24.4024C143.022 24.5951 143.696 24.6915 144.467 24.6915C146.566 24.6915 148.183 23.9526 149.318 22.4749C150.474 20.9972 151.053 18.9306 151.053 16.275C151.053 13.3625 150.474 11.4029 149.318 10.3964C148.419 9.60398 147.38 9.20779 146.202 9.20779C145.024 9.20779 143.771 9.74318 142.443 10.814ZM163.189 25.1091C160.962 25.1091 159.152 24.4666 157.76 23.1817C156.39 21.8967 155.704 19.9371 155.704 17.303C155.704 14.6474 156.433 12.5701 157.889 11.071C159.366 9.55044 161.219 8.79018 163.446 8.79018C165.673 8.79018 167.483 9.43265 168.875 10.7176C170.267 12.0026 170.963 13.9728 170.963 16.6284C170.963 19.2625 170.224 21.3399 168.747 22.8604C167.29 24.3595 165.438 25.1091 163.189 25.1091ZM163.414 9.36841C161.808 9.36841 160.469 10.0644 159.399 11.4565C158.328 12.8485 157.792 14.7438 157.792 17.1424C157.792 19.5195 158.296 21.3506 159.302 22.6356C160.33 23.8991 161.647 24.5309 163.253 24.5309C164.86 24.5309 166.198 23.8348 167.269 22.4428C168.34 21.0508 168.875 19.1662 168.875 16.789C168.875 14.4118 168.361 12.5808 167.333 11.2958C166.327 10.0109 165.02 9.36841 163.414 9.36841ZM172.903 25.0127L172.935 24.563L174.606 24.3381C174.798 24.3167 174.895 24.1668 174.895 23.8884V9.97876C174.852 9.80743 174.788 9.72177 174.702 9.72177L172.743 9.65752L172.775 9.20779C174.124 9.01504 175.034 8.91867 175.505 8.91867C176.362 8.91867 176.844 9.29345 176.951 10.043H176.983V10.7176C178.739 9.51832 180.42 8.88655 182.026 8.8223C183.59 8.8223 184.778 9.13283 185.592 9.75389C185.956 10.0323 186.277 10.4713 186.556 11.071C186.856 11.6492 187.006 12.3452 187.006 13.159V24.3381L189.415 24.4987C189.415 24.5201 189.404 24.6808 189.383 24.9806L182.958 25.0127C182.958 24.82 182.969 24.6701 182.99 24.563L184.66 24.3381C184.832 24.3167 184.917 24.1668 184.917 23.8884V13.9621C184.917 13.1055 184.8 12.3773 184.564 11.7777C184.35 11.178 184.104 10.739 183.825 10.4606C183.547 10.1822 183.204 9.96805 182.797 9.81814C182.326 9.64681 181.834 9.56115 181.32 9.56115C180.035 9.58256 178.589 10.0858 176.983 11.071V24.3381L179.392 24.4987C179.392 24.5201 179.381 24.6808 179.36 24.9806L172.903 25.0127ZM191.417 9.43265L191.384 8.9508L195.721 8.91867V20.0978C195.721 20.933 195.839 21.6611 196.074 22.2822C196.31 22.8818 196.567 23.3209 196.845 23.5993C197.145 23.8777 197.488 24.0918 197.873 24.2417C198.473 24.4559 198.976 24.5416 199.383 24.4987C200.69 24.4773 202.178 23.8027 203.848 22.4749V10.043C203.763 9.78602 203.581 9.6361 203.302 9.59327L201.632 9.43265C201.611 9.30416 201.6 9.14354 201.6 8.9508L205.937 8.91867V23.5029C205.979 24.0383 206.151 24.306 206.45 24.306L208.378 24.4024L208.346 24.8842C207.318 25.0555 206.247 25.1412 205.133 25.1412C204.876 25.1198 204.598 24.9806 204.298 24.7236C203.998 24.4452 203.848 24.1025 203.848 23.6956V23.1174C201.9 24.4238 200.058 25.077 198.323 25.077C197.595 25.077 196.738 24.8949 195.753 24.5309C195.111 24.2953 194.597 23.8563 194.211 23.2138C193.826 22.5499 193.633 21.7254 193.633 20.7402V10.0751C193.633 9.96805 193.569 9.87168 193.44 9.78602C193.333 9.67894 193.215 9.61469 193.087 9.59327L191.417 9.43265ZM215.35 24.5951C215.478 24.5951 215.607 24.5844 215.735 24.563C216.849 24.5416 217.78 24.1989 218.53 23.535C219.279 22.8497 219.654 21.8539 219.654 20.5475C219.654 19.2625 218.648 18.331 216.634 17.7527C215.799 17.5172 214.964 17.2602 214.129 16.9818C213.294 16.7033 212.576 16.2643 211.977 15.6647C211.398 15.065 211.109 14.2834 211.109 13.3196C211.109 11.949 211.634 10.8568 212.683 10.043C213.733 9.20779 215.06 8.79018 216.667 8.79018C217.866 8.79018 219.076 9.00434 220.297 9.43265L220.875 9.65752V13.3518L220.264 13.5766L220.136 10.8461C218.894 9.86097 217.855 9.36841 217.02 9.36841C215.842 9.36841 214.911 9.72177 214.225 10.4285C213.54 11.1138 213.197 12.0347 213.197 13.1911C213.197 13.855 213.486 14.3904 214.065 14.7973C214.664 15.2042 215.382 15.5255 216.217 15.761C217.052 15.9966 217.887 16.2643 218.723 16.5641C219.558 16.8426 220.264 17.3137 220.843 17.9776C221.442 18.6201 221.742 19.466 221.742 20.5154C221.742 21.9288 221.207 23.0532 220.136 23.8884C219.087 24.7022 217.588 25.1091 215.639 25.1091C213.69 25.1091 212.073 24.6486 210.788 23.7278V20.0335L211.366 19.8087L211.527 22.5392C211.827 23.096 212.362 23.5778 213.133 23.9848C213.925 24.3917 214.664 24.5951 215.35 24.5951ZM227.734 2.4939L227.091 20.8366H226.449L225.806 2.65452L227.734 2.4939ZM225.935 24.6594C225.72 24.4238 225.613 24.1561 225.613 23.8563C225.613 23.5564 225.72 23.2994 225.935 23.0853C226.17 22.8497 226.438 22.7319 226.738 22.7319C227.038 22.7319 227.295 22.8497 227.509 23.0853C227.744 23.2994 227.862 23.5564 227.862 23.8563C227.862 24.1561 227.744 24.4238 227.509 24.6594C227.295 24.8735 227.038 24.9806 226.738 24.9806C226.438 24.9806 226.17 24.8735 225.935 24.6594Z" fill="url(#paint0_linear_13_2470)"/>
<defs>
<linearGradient id="paint0_linear_13_2470" x1="58.0556" y1="-5.01941" x2="168.279" y2="96.915" gradientUnits="userSpaceOnUse">
<stop stop-color="#FFB905"/>
<stop offset="1" stop-color="#F4DC00"/>
</linearGradient>
</defs>
</svg>
